<?xml version="1.0" encoding="utf-8" standalone="no"?>
<!DOCTYPE svg PUBLIC "-//W3C//DTD SVG 1.1//EN"
  "http://www.w3.org/Graphics/SVG/1.1/DTD/svg11.dtd">
<!-- Created with matplotlib (https://matplotlib.org/) -->
<svg height="302.878125pt" version="1.1" viewBox="0 0 316.303125 302.878125" width="316.303125pt" xmlns="http://www.w3.org/2000/svg" xmlns:xlink="http://www.w3.org/1999/xlink">
 <metadata>
  <rdf:RDF xmlns:cc="http://creativecommons.org/ns#" xmlns:dc="http://purl.org/dc/elements/1.1/" xmlns:rdf="http://www.w3.org/1999/02/22-rdf-syntax-ns#">
   <cc:Work>
    <dc:type rdf:resource="http://purl.org/dc/dcmitype/StillImage"/>
    <dc:date>2021-03-02T10:47:24.072097</dc:date>
    <dc:format>image/svg+xml</dc:format>
    <dc:creator>
     <cc:Agent>
      <dc:title>Matplotlib v3.3.4, https://matplotlib.org/</dc:title>
     </cc:Agent>
    </dc:creator>
   </cc:Work>
  </rdf:RDF>
 </metadata>
 <defs>
  <style type="text/css">*{stroke-linecap:butt;stroke-linejoin:round;}</style>
 </defs>
 <g id="figure_1">
  <g id="patch_1">
   <path d="M 0 302.878125 
L 316.303125 302.878125 
L 316.303125 0 
L 0 0 
z
" style="fill:none;"/>
  </g>
  <g id="axes_1">
   <g id="patch_2">
    <path d="M 30.103125 279 
L 309.103125 279 
L 309.103125 7.2 
L 30.103125 7.2 
z
" style="fill:#ffffff;"/>
   </g>
   <g id="PathCollection_1">
    <defs>
     <path d="M 0 3 
C 0.795609 3 1.55874 2.683901 2.12132 2.12132 
C 2.683901 1.55874 3 0.795609 3 0 
C 3 -0.795609 2.683901 -1.55874 2.12132 -2.12132 
C 1.55874 -2.683901 0.795609 -3 0 -3 
C -0.795609 -3 -1.55874 -2.683901 -2.12132 -2.12132 
C -2.683901 -1.55874 -3 -0.795609 -3 0 
C -3 0.795609 -2.683901 1.55874 -2.12132 2.12132 
C -1.55874 2.683901 -0.795609 3 0 3 
z
" id="m49c8f0f1d9" style="stroke:#ffc0cb;"/>
    </defs>
    <g clip-path="url(#pc9658e4988)">
     <use style="fill:#ffc0cb;stroke:#ffc0cb;" x="212.941866" xlink:href="#m49c8f0f1d9" y="183.379185"/>
     <use style="fill:#ffc0cb;stroke:#ffc0cb;" x="89.236066" xlink:href="#m49c8f0f1d9" y="122.170963"/>
     <use style="fill:#ffc0cb;stroke:#ffc0cb;" x="118.034611" xlink:href="#m49c8f0f1d9" y="232.060104"/>
     <use style="fill:#ffc0cb;stroke:#ffc0cb;" x="73.056292" xlink:href="#m49c8f0f1d9" y="38.788675"/>
     <use style="fill:#ffc0cb;stroke:#ffc0cb;" x="203.242707" xlink:href="#m49c8f0f1d9" y="240.026383"/>
     <use style="fill:#ffc0cb;stroke:#ffc0cb;" x="79.13444" xlink:href="#m49c8f0f1d9" y="33.194543"/>
     <use style="fill:#ffc0cb;stroke:#ffc0cb;" x="246.795798" xlink:href="#m49c8f0f1d9" y="176.558638"/>
     <use style="fill:#ffc0cb;stroke:#ffc0cb;" x="225.444362" xlink:href="#m49c8f0f1d9" y="103.35738"/>
     <use style="fill:#ffc0cb;stroke:#ffc0cb;" x="268.254455" xlink:href="#m49c8f0f1d9" y="164.520652"/>
     <use style="fill:#ffc0cb;stroke:#ffc0cb;" x="122.039007" xlink:href="#m49c8f0f1d9" y="262.067273"/>
     <use style="fill:#ffc0cb;stroke:#ffc0cb;" x="192.156811" xlink:href="#m49c8f0f1d9" y="81.52524"/>
     <use style="fill:#ffc0cb;stroke:#ffc0cb;" x="129.212582" xlink:href="#m49c8f0f1d9" y="35.948201"/>
     <use style="fill:#ffc0cb;stroke:#ffc0cb;" x="81.306663" xlink:href="#m49c8f0f1d9" y="255.582869"/>
     <use style="fill:#ffc0cb;stroke:#ffc0cb;" x="249.801614" xlink:href="#m49c8f0f1d9" y="200.576031"/>
     <use style="fill:#ffc0cb;stroke:#ffc0cb;" x="259.48906" xlink:href="#m49c8f0f1d9" y="238.870123"/>
     <use style="fill:#ffc0cb;stroke:#ffc0cb;" x="191.87362" xlink:href="#m49c8f0f1d9" y="212.985363"/>
     <use style="fill:#ffc0cb;stroke:#ffc0cb;" x="247.327604" xlink:href="#m49c8f0f1d9" y="246.42666"/>
     <use style="fill:#ffc0cb;stroke:#ffc0cb;" x="79.96023" xlink:href="#m49c8f0f1d9" y="110.171601"/>
     <use style="fill:#ffc0cb;stroke:#ffc0cb;" x="281.793507" xlink:href="#m49c8f0f1d9" y="248.477767"/>
     <use style="fill:#ffc0cb;stroke:#ffc0cb;" x="103.948206" xlink:href="#m49c8f0f1d9" y="216.356063"/>
     <use style="fill:#ffc0cb;stroke:#ffc0cb;" x="88.712544" xlink:href="#m49c8f0f1d9" y="68.334732"/>
     <use style="fill:#ffc0cb;stroke:#ffc0cb;" x="105.906681" xlink:href="#m49c8f0f1d9" y="53.374038"/>
     <use style="fill:#ffc0cb;stroke:#ffc0cb;" x="107.931734" xlink:href="#m49c8f0f1d9" y="186.782458"/>
     <use style="fill:#ffc0cb;stroke:#ffc0cb;" x="206.002859" xlink:href="#m49c8f0f1d9" y="174.214329"/>
     <use style="fill:#ffc0cb;stroke:#ffc0cb;" x="112.62224" xlink:href="#m49c8f0f1d9" y="49.680747"/>
     <use style="fill:#ffc0cb;stroke:#ffc0cb;" x="290.23197" xlink:href="#m49c8f0f1d9" y="241.538918"/>
     <use style="fill:#ffc0cb;stroke:#ffc0cb;" x="159.155625" xlink:href="#m49c8f0f1d9" y="231.126396"/>
     <use style="fill:#ffc0cb;stroke:#ffc0cb;" x="121.272358" xlink:href="#m49c8f0f1d9" y="40.921711"/>
     <use style="fill:#ffc0cb;stroke:#ffc0cb;" x="205.39347" xlink:href="#m49c8f0f1d9" y="214.940462"/>
     <use style="fill:#ffc0cb;stroke:#ffc0cb;" x="141.816189" xlink:href="#m49c8f0f1d9" y="142.958297"/>
     <use style="fill:#ffc0cb;stroke:#ffc0cb;" x="238.220719" xlink:href="#m49c8f0f1d9" y="160.006685"/>
     <use style="fill:#ffc0cb;stroke:#ffc0cb;" x="102.349321" xlink:href="#m49c8f0f1d9" y="152.701629"/>
     <use style="fill:#ffc0cb;stroke:#ffc0cb;" x="177.251272" xlink:href="#m49c8f0f1d9" y="122.361203"/>
     <use style="fill:#ffc0cb;stroke:#ffc0cb;" x="103.686429" xlink:href="#m49c8f0f1d9" y="66.083088"/>
     <use style="fill:#ffc0cb;stroke:#ffc0cb;" x="102.951482" xlink:href="#m49c8f0f1d9" y="210.353252"/>
     <use style="fill:#ffc0cb;stroke:#ffc0cb;" x="157.360079" xlink:href="#m49c8f0f1d9" y="252.16219"/>
     <use style="fill:#ffc0cb;stroke:#ffc0cb;" x="123.382841" xlink:href="#m49c8f0f1d9" y="229.442332"/>
     <use style="fill:#ffc0cb;stroke:#ffc0cb;" x="186.159164" xlink:href="#m49c8f0f1d9" y="209.019921"/>
     <use style="fill:#ffc0cb;stroke:#ffc0cb;" x="70.721283" xlink:href="#m49c8f0f1d9" y="153.90249"/>
     <use style="fill:#ffc0cb;stroke:#ffc0cb;" x="208.649586" xlink:href="#m49c8f0f1d9" y="186.916285"/>
     <use style="fill:#ffc0cb;stroke:#ffc0cb;" x="278.314989" xlink:href="#m49c8f0f1d9" y="212.449278"/>
     <use style="fill:#ffc0cb;stroke:#ffc0cb;" x="105.896712" xlink:href="#m49c8f0f1d9" y="242.929971"/>
     <use style="fill:#ffc0cb;stroke:#ffc0cb;" x="156.853181" xlink:href="#m49c8f0f1d9" y="256.728614"/>
     <use style="fill:#ffc0cb;stroke:#ffc0cb;" x="92.779257" xlink:href="#m49c8f0f1d9" y="105.726143"/>
     <use style="fill:#ffc0cb;stroke:#ffc0cb;" x="146.730527" xlink:href="#m49c8f0f1d9" y="225.422504"/>
     <use style="fill:#ffc0cb;stroke:#ffc0cb;" x="258.715588" xlink:href="#m49c8f0f1d9" y="163.866496"/>
     <use style="fill:#ffc0cb;stroke:#ffc0cb;" x="186.151992" xlink:href="#m49c8f0f1d9" y="77.525666"/>
     <use style="fill:#ffc0cb;stroke:#ffc0cb;" x="251.006252" xlink:href="#m49c8f0f1d9" y="216.060206"/>
     <use style="fill:#ffc0cb;stroke:#ffc0cb;" x="86.916697" xlink:href="#m49c8f0f1d9" y="177.16645"/>
     <use style="fill:#ffc0cb;stroke:#ffc0cb;" x="224.221049" xlink:href="#m49c8f0f1d9" y="174.979312"/>
     <use style="fill:#ffc0cb;stroke:#ffc0cb;" x="183.223354" xlink:href="#m49c8f0f1d9" y="227.586413"/>
     <use style="fill:#ffc0cb;stroke:#ffc0cb;" x="226.059397" xlink:href="#m49c8f0f1d9" y="178.470278"/>
     <use style="fill:#ffc0cb;stroke:#ffc0cb;" x="119.747197" xlink:href="#m49c8f0f1d9" y="74.959036"/>
     <use style="fill:#ffc0cb;stroke:#ffc0cb;" x="173.880662" xlink:href="#m49c8f0f1d9" y="75.455988"/>
     <use style="fill:#ffc0cb;stroke:#ffc0cb;" x="115.962056" xlink:href="#m49c8f0f1d9" y="111.947849"/>
     <use style="fill:#ffc0cb;stroke:#ffc0cb;" x="200.16603" xlink:href="#m49c8f0f1d9" y="93.142425"/>
     <use style="fill:#ffc0cb;stroke:#ffc0cb;" x="155.049275" xlink:href="#m49c8f0f1d9" y="99.866851"/>
     <use style="fill:#ffc0cb;stroke:#ffc0cb;" x="94.037492" xlink:href="#m49c8f0f1d9" y="138.932156"/>
     <use style="fill:#ffc0cb;stroke:#ffc0cb;" x="191.58337" xlink:href="#m49c8f0f1d9" y="89.071159"/>
     <use style="fill:#ffc0cb;stroke:#ffc0cb;" x="42.784943" xlink:href="#m49c8f0f1d9" y="219.972727"/>
     <use style="fill:#ffc0cb;stroke:#ffc0cb;" x="156.606219" xlink:href="#m49c8f0f1d9" y="204.454342"/>
     <use style="fill:#ffc0cb;stroke:#ffc0cb;" x="163.232924" xlink:href="#m49c8f0f1d9" y="204.88831"/>
     <use style="fill:#ffc0cb;stroke:#ffc0cb;" x="107.409118" xlink:href="#m49c8f0f1d9" y="69.142505"/>
     <use style="fill:#ffc0cb;stroke:#ffc0cb;" x="145.345704" xlink:href="#m49c8f0f1d9" y="162.613052"/>
     <use style="fill:#ffc0cb;stroke:#ffc0cb;" x="87.061923" xlink:href="#m49c8f0f1d9" y="29.697427"/>
     <use style="fill:#ffc0cb;stroke:#ffc0cb;" x="62.852672" xlink:href="#m49c8f0f1d9" y="99.019399"/>
     <use style="fill:#ffc0cb;stroke:#ffc0cb;" x="217.126843" xlink:href="#m49c8f0f1d9" y="214.185672"/>
     <use style="fill:#ffc0cb;stroke:#ffc0cb;" x="66.314804" xlink:href="#m49c8f0f1d9" y="198.589066"/>
     <use style="fill:#ffc0cb;stroke:#ffc0cb;" x="208.716033" xlink:href="#m49c8f0f1d9" y="265.40253"/>
     <use style="fill:#ffc0cb;stroke:#ffc0cb;" x="81.859899" xlink:href="#m49c8f0f1d9" y="144.006657"/>
     <use style="fill:#ffc0cb;stroke:#ffc0cb;" x="156.902388" xlink:href="#m49c8f0f1d9" y="127.599024"/>
     <use style="fill:#ffc0cb;stroke:#ffc0cb;" x="100.06604" xlink:href="#m49c8f0f1d9" y="160.081943"/>
     <use style="fill:#ffc0cb;stroke:#ffc0cb;" x="103.33514" xlink:href="#m49c8f0f1d9" y="250.11167"/>
     <use style="fill:#ffc0cb;stroke:#ffc0cb;" x="156.569649" xlink:href="#m49c8f0f1d9" y="133.058643"/>
     <use style="fill:#ffc0cb;stroke:#ffc0cb;" x="176.01652" xlink:href="#m49c8f0f1d9" y="200.584784"/>
     <use style="fill:#ffc0cb;stroke:#ffc0cb;" x="230.256819" xlink:href="#m49c8f0f1d9" y="153.738141"/>
     <use style="fill:#ffc0cb;stroke:#ffc0cb;" x="194.747116" xlink:href="#m49c8f0f1d9" y="266.380806"/>
     <use style="fill:#ffc0cb;stroke:#ffc0cb;" x="120.017715" xlink:href="#m49c8f0f1d9" y="170.649129"/>
     <use style="fill:#ffc0cb;stroke:#ffc0cb;" x="62.31534" xlink:href="#m49c8f0f1d9" y="251.511041"/>
     <use style="fill:#ffc0cb;stroke:#ffc0cb;" x="208.176228" xlink:href="#m49c8f0f1d9" y="103.55552"/>
     <use style="fill:#ffc0cb;stroke:#ffc0cb;" x="183.560076" xlink:href="#m49c8f0f1d9" y="248.433076"/>
     <use style="fill:#ffc0cb;stroke:#ffc0cb;" x="59.813021" xlink:href="#m49c8f0f1d9" y="183.770346"/>
     <use style="fill:#ffc0cb;stroke:#ffc0cb;" x="238.573458" xlink:href="#m49c8f0f1d9" y="162.593118"/>
     <use style="fill:#ffc0cb;stroke:#ffc0cb;" x="196.250172" xlink:href="#m49c8f0f1d9" y="148.685789"/>
     <use style="fill:#ffc0cb;stroke:#ffc0cb;" x="62.491278" xlink:href="#m49c8f0f1d9" y="41.972985"/>
     <use style="fill:#ffc0cb;stroke:#ffc0cb;" x="242.529237" xlink:href="#m49c8f0f1d9" y="217.614469"/>
     <use style="fill:#ffc0cb;stroke:#ffc0cb;" x="184.246799" xlink:href="#m49c8f0f1d9" y="167.901787"/>
     <use style="fill:#ffc0cb;stroke:#ffc0cb;" x="203.438998" xlink:href="#m49c8f0f1d9" y="122.549042"/>
     <use style="fill:#ffc0cb;stroke:#ffc0cb;" x="121.300928" xlink:href="#m49c8f0f1d9" y="263.185963"/>
     <use style="fill:#ffc0cb;stroke:#ffc0cb;" x="118.96442" xlink:href="#m49c8f0f1d9" y="201.998729"/>
     <use style="fill:#ffc0cb;stroke:#ffc0cb;" x="44.453471" xlink:href="#m49c8f0f1d9" y="68.28752"/>
     <use style="fill:#ffc0cb;stroke:#ffc0cb;" x="82.318926" xlink:href="#m49c8f0f1d9" y="95.920376"/>
     <use style="fill:#ffc0cb;stroke:#ffc0cb;" x="166.534155" xlink:href="#m49c8f0f1d9" y="90.463567"/>
     <use style="fill:#ffc0cb;stroke:#ffc0cb;" x="53.583721" xlink:href="#m49c8f0f1d9" y="78.079775"/>
     <use style="fill:#ffc0cb;stroke:#ffc0cb;" x="258.975296" xlink:href="#m49c8f0f1d9" y="164.184687"/>
     <use style="fill:#ffc0cb;stroke:#ffc0cb;" x="121.833524" xlink:href="#m49c8f0f1d9" y="51.635513"/>
     <use style="fill:#ffc0cb;stroke:#ffc0cb;" x="56.023783" xlink:href="#m49c8f0f1d9" y="25.35372"/>
     <use style="fill:#ffc0cb;stroke:#ffc0cb;" x="87.545405" xlink:href="#m49c8f0f1d9" y="122.368471"/>
     <use style="fill:#ffc0cb;stroke:#ffc0cb;" x="47.571397" xlink:href="#m49c8f0f1d9" y="171.725664"/>
     <use style="fill:#ffc0cb;stroke:#ffc0cb;" x="180.816241" xlink:href="#m49c8f0f1d9" y="123.687487"/>
     <use style="fill:#ffc0cb;stroke:#ffc0cb;" x="107.917839" xlink:href="#m49c8f0f1d9" y="112.174696"/>
     <use style="fill:#ffc0cb;stroke:#ffc0cb;" x="142.127197" xlink:href="#m49c8f0f1d9" y="266.645455"/>
     <use style="fill:#ffc0cb;stroke:#ffc0cb;" x="159.437594" xlink:href="#m49c8f0f1d9" y="186.443201"/>
     <use style="fill:#ffc0cb;stroke:#ffc0cb;" x="95.034097" xlink:href="#m49c8f0f1d9" y="196.628919"/>
     <use style="fill:#ffc0cb;stroke:#ffc0cb;" x="121.264766" xlink:href="#m49c8f0f1d9" y="211.286231"/>
     <use style="fill:#ffc0cb;stroke:#ffc0cb;" x="267.551865" xlink:href="#m49c8f0f1d9" y="244.797383"/>
     <use style="fill:#ffc0cb;stroke:#ffc0cb;" x="139.464248" xlink:href="#m49c8f0f1d9" y="153.378174"/>
     <use style="fill:#ffc0cb;stroke:#ffc0cb;" x="65.641481" xlink:href="#m49c8f0f1d9" y="256.529645"/>
     <use style="fill:#ffc0cb;stroke:#ffc0cb;" x="207.784752" xlink:href="#m49c8f0f1d9" y="104.681606"/>
     <use style="fill:#ffc0cb;stroke:#ffc0cb;" x="241.887223" xlink:href="#m49c8f0f1d9" y="121.792157"/>
     <use style="fill:#ffc0cb;stroke:#ffc0cb;" x="164.223554" xlink:href="#m49c8f0f1d9" y="69.896327"/>
     <use style="fill:#ffc0cb;stroke:#ffc0cb;" x="83.13208" xlink:href="#m49c8f0f1d9" y="170.216014"/>
     <use style="fill:#ffc0cb;stroke:#ffc0cb;" x="182.852542" xlink:href="#m49c8f0f1d9" y="153.277215"/>
     <use style="fill:#ffc0cb;stroke:#ffc0cb;" x="48.017102" xlink:href="#m49c8f0f1d9" y="258.186726"/>
     <use style="fill:#ffc0cb;stroke:#ffc0cb;" x="106.111419" xlink:href="#m49c8f0f1d9" y="231.712154"/>
     <use style="fill:#ffc0cb;stroke:#ffc0cb;" x="84.44547" xlink:href="#m49c8f0f1d9" y="187.658836"/>
     <use style="fill:#ffc0cb;stroke:#ffc0cb;" x="53.035395" xlink:href="#m49c8f0f1d9" y="212.452802"/>
     <use style="fill:#ffc0cb;stroke:#ffc0cb;" x="227.679667" xlink:href="#m49c8f0f1d9" y="266.064202"/>
     <use style="fill:#ffc0cb;stroke:#ffc0cb;" x="271.915673" xlink:href="#m49c8f0f1d9" y="194.114541"/>
     <use style="fill:#ffc0cb;stroke:#ffc0cb;" x="98.647664" xlink:href="#m49c8f0f1d9" y="50.108574"/>
     <use style="fill:#ffc0cb;stroke:#ffc0cb;" x="190.472297" xlink:href="#m49c8f0f1d9" y="131.292259"/>
     <use style="fill:#ffc0cb;stroke:#ffc0cb;" x="216.507058" xlink:href="#m49c8f0f1d9" y="243.455428"/>
     <use style="fill:#ffc0cb;stroke:#ffc0cb;" x="107.359627" xlink:href="#m49c8f0f1d9" y="124.965145"/>
     <use style="fill:#ffc0cb;stroke:#ffc0cb;" x="154.451444" xlink:href="#m49c8f0f1d9" y="163.792872"/>
     <use style="fill:#ffc0cb;stroke:#ffc0cb;" x="239.872651" xlink:href="#m49c8f0f1d9" y="217.50857"/>
     <use style="fill:#ffc0cb;stroke:#ffc0cb;" x="286.308048" xlink:href="#m49c8f0f1d9" y="263.965674"/>
     <use style="fill:#ffc0cb;stroke:#ffc0cb;" x="206.135699" xlink:href="#m49c8f0f1d9" y="228.795289"/>
     <use style="fill:#ffc0cb;stroke:#ffc0cb;" x="123.86651" xlink:href="#m49c8f0f1d9" y="169.503664"/>
     <use style="fill:#ffc0cb;stroke:#ffc0cb;" x="137.294429" xlink:href="#m49c8f0f1d9" y="257.32043"/>
     <use style="fill:#ffc0cb;stroke:#ffc0cb;" x="109.824584" xlink:href="#m49c8f0f1d9" y="211.492708"/>
     <use style="fill:#ffc0cb;stroke:#ffc0cb;" x="117.162119" xlink:href="#m49c8f0f1d9" y="75.653085"/>
     <use style="fill:#ffc0cb;stroke:#ffc0cb;" x="95.89926" xlink:href="#m49c8f0f1d9" y="262.724173"/>
     <use style="fill:#ffc0cb;stroke:#ffc0cb;" x="200.157862" xlink:href="#m49c8f0f1d9" y="98.594445"/>
     <use style="fill:#ffc0cb;stroke:#ffc0cb;" x="213.624256" xlink:href="#m49c8f0f1d9" y="172.480811"/>
     <use style="fill:#ffc0cb;stroke:#ffc0cb;" x="136.33256" xlink:href="#m49c8f0f1d9" y="46.023531"/>
     <use style="fill:#ffc0cb;stroke:#ffc0cb;" x="64.861946" xlink:href="#m49c8f0f1d9" y="249.350164"/>
     <use style="fill:#ffc0cb;stroke:#ffc0cb;" x="228.736224" xlink:href="#m49c8f0f1d9" y="215.013776"/>
     <use style="fill:#ffc0cb;stroke:#ffc0cb;" x="102.944654" xlink:href="#m49c8f0f1d9" y="60.88632"/>
     <use style="fill:#ffc0cb;stroke:#ffc0cb;" x="173.274744" xlink:href="#m49c8f0f1d9" y="77.911902"/>
     <use style="fill:#ffc0cb;stroke:#ffc0cb;" x="98.03875" xlink:href="#m49c8f0f1d9" y="61.325821"/>
     <use style="fill:#ffc0cb;stroke:#ffc0cb;" x="242.682235" xlink:href="#m49c8f0f1d9" y="161.519995"/>
     <use style="fill:#ffc0cb;stroke:#ffc0cb;" x="115.282199" xlink:href="#m49c8f0f1d9" y="72.932508"/>
     <use style="fill:#ffc0cb;stroke:#ffc0cb;" x="243.670054" xlink:href="#m49c8f0f1d9" y="194.995141"/>
     <use style="fill:#ffc0cb;stroke:#ffc0cb;" x="137.483519" xlink:href="#m49c8f0f1d9" y="188.669481"/>
     <use style="fill:#ffc0cb;stroke:#ffc0cb;" x="55.10934" xlink:href="#m49c8f0f1d9" y="86.987255"/>
     <use style="fill:#ffc0cb;stroke:#ffc0cb;" x="112.330098" xlink:href="#m49c8f0f1d9" y="151.814181"/>
     <use style="fill:#ffc0cb;stroke:#ffc0cb;" x="172.091086" xlink:href="#m49c8f0f1d9" y="60.468194"/>
     <use style="fill:#ffc0cb;stroke:#ffc0cb;" x="285.883236" xlink:href="#m49c8f0f1d9" y="220.567413"/>
     <use style="fill:#ffc0cb;stroke:#ffc0cb;" x="124.295518" xlink:href="#m49c8f0f1d9" y="180.0514"/>
     <use style="fill:#ffc0cb;stroke:#ffc0cb;" x="149.997854" xlink:href="#m49c8f0f1d9" y="49.523179"/>
     <use style="fill:#ffc0cb;stroke:#ffc0cb;" x="93.817398" xlink:href="#m49c8f0f1d9" y="37.268713"/>
     <use style="fill:#ffc0cb;stroke:#ffc0cb;" x="110.093502" xlink:href="#m49c8f0f1d9" y="84.643527"/>
     <use style="fill:#ffc0cb;stroke:#ffc0cb;" x="48.950639" xlink:href="#m49c8f0f1d9" y="51.479273"/>
     <use style="fill:#ffc0cb;stroke:#ffc0cb;" x="148.967821" xlink:href="#m49c8f0f1d9" y="67.647186"/>
     <use style="fill:#ffc0cb;stroke:#ffc0cb;" x="232.105141" xlink:href="#m49c8f0f1d9" y="168.536519"/>
     <use style="fill:#ffc0cb;stroke:#ffc0cb;" x="149.230138" xlink:href="#m49c8f0f1d9" y="58.195006"/>
     <use style="fill:#ffc0cb;stroke:#ffc0cb;" x="79.310756" xlink:href="#m49c8f0f1d9" y="256.779861"/>
    </g>
   </g>
   <g id="PathCollection_2">
    <defs>
     <path d="M 0 3 
C 0.795609 3 1.55874 2.683901 2.12132 2.12132 
C 2.683901 1.55874 3 0.795609 3 0 
C 3 -0.795609 2.683901 -1.55874 2.12132 -2.12132 
C 1.55874 -2.683901 0.795609 -3 0 -3 
C -0.795609 -3 -1.55874 -2.683901 -2.12132 -2.12132 
C -2.683901 -1.55874 -3 -0.795609 -3 0 
C -3 0.795609 -2.683901 1.55874 -2.12132 2.12132 
C -1.55874 2.683901 -0.795609 3 0 3 
z
" id="m7320093fba" style="stroke:#00ffff;"/>
    </defs>
    <g clip-path="url(#pc9658e4988)">
     <use style="fill:#00ffff;stroke:#00ffff;" x="218.619822" xlink:href="#m7320093fba" y="26.628452"/>
     <use style="fill:#00ffff;stroke:#00ffff;" x="148.115027" xlink:href="#m7320093fba" y="40.734576"/>
     <use style="fill:#00ffff;stroke:#00ffff;" x="202.598276" xlink:href="#m7320093fba" y="51.844765"/>
     <use style="fill:#00ffff;stroke:#00ffff;" x="269.518486" xlink:href="#m7320093fba" y="34.195225"/>
     <use style="fill:#00ffff;stroke:#00ffff;" x="108.774075" xlink:href="#m7320093fba" y="26.80217"/>
     <use style="fill:#00ffff;stroke:#00ffff;" x="269.133428" xlink:href="#m7320093fba" y="81.33982"/>
     <use style="fill:#00ffff;stroke:#00ffff;" x="295.910823" xlink:href="#m7320093fba" y="148.839043"/>
     <use style="fill:#00ffff;stroke:#00ffff;" x="196.66528" xlink:href="#m7320093fba" y="40.419712"/>
     <use style="fill:#00ffff;stroke:#00ffff;" x="292.817449" xlink:href="#m7320093fba" y="187.902744"/>
     <use style="fill:#00ffff;stroke:#00ffff;" x="179.27692" xlink:href="#m7320093fba" y="42.555291"/>
     <use style="fill:#00ffff;stroke:#00ffff;" x="254.269657" xlink:href="#m7320093fba" y="107.024381"/>
     <use style="fill:#00ffff;stroke:#00ffff;" x="295.886415" xlink:href="#m7320093fba" y="117.503362"/>
     <use style="fill:#00ffff;stroke:#00ffff;" x="269.008783" xlink:href="#m7320093fba" y="105.083018"/>
     <use style="fill:#00ffff;stroke:#00ffff;" x="280.623307" xlink:href="#m7320093fba" y="147.0067"/>
     <use style="fill:#00ffff;stroke:#00ffff;" x="263.523809" xlink:href="#m7320093fba" y="84.120212"/>
     <use style="fill:#00ffff;stroke:#00ffff;" x="279.615444" xlink:href="#m7320093fba" y="58.376933"/>
     <use style="fill:#00ffff;stroke:#00ffff;" x="235.259075" xlink:href="#m7320093fba" y="47.095985"/>
     <use style="fill:#00ffff;stroke:#00ffff;" x="295.205635" xlink:href="#m7320093fba" y="127.089776"/>
     <use style="fill:#00ffff;stroke:#00ffff;" x="292.161557" xlink:href="#m7320093fba" y="204.677871"/>
     <use style="fill:#00ffff;stroke:#00ffff;" x="288.701271" xlink:href="#m7320093fba" y="94.56327"/>
     <use style="fill:#00ffff;stroke:#00ffff;" x="207.20781" xlink:href="#m7320093fba" y="19.554545"/>
     <use style="fill:#00ffff;stroke:#00ffff;" x="200.278465" xlink:href="#m7320093fba" y="25.895409"/>
     <use style="fill:#00ffff;stroke:#00ffff;" x="273.954046" xlink:href="#m7320093fba" y="33.452472"/>
     <use style="fill:#00ffff;stroke:#00ffff;" x="290.539472" xlink:href="#m7320093fba" y="83.050614"/>
     <use style="fill:#00ffff;stroke:#00ffff;" x="192.598666" xlink:href="#m7320093fba" y="33.796002"/>
     <use style="fill:#00ffff;stroke:#00ffff;" x="274.988047" xlink:href="#m7320093fba" y="161.467652"/>
     <use style="fill:#00ffff;stroke:#00ffff;" x="266.179624" xlink:href="#m7320093fba" y="141.487893"/>
     <use style="fill:#00ffff;stroke:#00ffff;" x="287.316652" xlink:href="#m7320093fba" y="51.566488"/>
     <use style="fill:#00ffff;stroke:#00ffff;" x="118.864365" xlink:href="#m7320093fba" y="26.966095"/>
     <use style="fill:#00ffff;stroke:#00ffff;" x="293.408457" xlink:href="#m7320093fba" y="116.293247"/>
     <use style="fill:#00ffff;stroke:#00ffff;" x="203.697296" xlink:href="#m7320093fba" y="67.272339"/>
     <use style="fill:#00ffff;stroke:#00ffff;" x="249.379555" xlink:href="#m7320093fba" y="91.282863"/>
     <use style="fill:#00ffff;stroke:#00ffff;" x="296.421307" xlink:href="#m7320093fba" y="166.344951"/>
     <use style="fill:#00ffff;stroke:#00ffff;" x="288.811861" xlink:href="#m7320093fba" y="126.08164"/>
     <use style="fill:#00ffff;stroke:#00ffff;" x="216.293677" xlink:href="#m7320093fba" y="32.678471"/>
     <use style="fill:#00ffff;stroke:#00ffff;" x="264.261984" xlink:href="#m7320093fba" y="127.313395"/>
     <use style="fill:#00ffff;stroke:#00ffff;" x="286.696888" xlink:href="#m7320093fba" y="181.236985"/>
     <use style="fill:#00ffff;stroke:#00ffff;" x="209.835717" xlink:href="#m7320093fba" y="34.104926"/>
     <use style="fill:#00ffff;stroke:#00ffff;" x="288.009758" xlink:href="#m7320093fba" y="172.480357"/>
     <use style="fill:#00ffff;stroke:#00ffff;" x="289.50639" xlink:href="#m7320093fba" y="21.775919"/>
     <use style="fill:#00ffff;stroke:#00ffff;" x="224.286744" xlink:href="#m7320093fba" y="77.086552"/>
     <use style="fill:#00ffff;stroke:#00ffff;" x="287.38437" xlink:href="#m7320093fba" y="82.877767"/>
     <use style="fill:#00ffff;stroke:#00ffff;" x="87.467269" xlink:href="#m7320093fba" y="22.425826"/>
    </g>
   </g>
   <g id="matplotlib.axis_1">
    <g id="xtick_1">
     <g id="line2d_1">
      <defs>
       <path d="M 0 0 
L 0 3.5 
" id="m10529cf72a" style="stroke:#000000;stroke-width:0.8;"/>
      </defs>
      <g>
       <use style="stroke:#000000;stroke-width:0.8;" x="42.277142" xlink:href="#m10529cf72a" y="279"/>
      </g>
     </g>
     <g id="text_1">
      <!-- 0.0 -->
      <g transform="translate(34.325579 293.598437)scale(0.1 -0.1)">
       <defs>
        <path d="M 31.78125 66.40625 
Q 24.171875 66.40625 20.328125 58.90625 
Q 16.5 51.421875 16.5 36.375 
Q 16.5 21.390625 20.328125 13.890625 
Q 24.171875 6.390625 31.78125 6.390625 
Q 39.453125 6.390625 43.28125 13.890625 
Q 47.125 21.390625 47.125 36.375 
Q 47.125 51.421875 43.28125 58.90625 
Q 39.453125 66.40625 31.78125 66.40625 
z
M 31.78125 74.21875 
Q 44.046875 74.21875 50.515625 64.515625 
Q 56.984375 54.828125 56.984375 36.375 
Q 56.984375 17.96875 50.515625 8.265625 
Q 44.046875 -1.421875 31.78125 -1.421875 
Q 19.53125 -1.421875 13.0625 8.265625 
Q 6.59375 17.96875 6.59375 36.375 
Q 6.59375 54.828125 13.0625 64.515625 
Q 19.53125 74.21875 31.78125 74.21875 
z
" id="DejaVuSans-48"/>
        <path d="M 10.6875 12.40625 
L 21 12.40625 
L 21 0 
L 10.6875 0 
z
" id="DejaVuSans-46"/>
       </defs>
       <use xlink:href="#DejaVuSans-48"/>
       <use x="63.623047" xlink:href="#DejaVuSans-46"/>
       <use x="95.410156" xlink:href="#DejaVuSans-48"/>
      </g>
     </g>
    </g>
    <g id="xtick_2">
     <g id="line2d_2">
      <g>
       <use style="stroke:#000000;stroke-width:0.8;" x="93.409467" xlink:href="#m10529cf72a" y="279"/>
      </g>
     </g>
     <g id="text_2">
      <!-- 0.2 -->
      <g transform="translate(85.457904 293.598437)scale(0.1 -0.1)">
       <defs>
        <path d="M 19.1875 8.296875 
L 53.609375 8.296875 
L 53.609375 0 
L 7.328125 0 
L 7.328125 8.296875 
Q 12.9375 14.109375 22.625 23.890625 
Q 32.328125 33.6875 34.8125 36.53125 
Q 39.546875 41.84375 41.421875 45.53125 
Q 43.3125 49.21875 43.3125 52.78125 
Q 43.3125 58.59375 39.234375 62.25 
Q 35.15625 65.921875 28.609375 65.921875 
Q 23.96875 65.921875 18.8125 64.3125 
Q 13.671875 62.703125 7.8125 59.421875 
L 7.8125 69.390625 
Q 13.765625 71.78125 18.9375 73 
Q 24.125 74.21875 28.421875 74.21875 
Q 39.75 74.21875 46.484375 68.546875 
Q 53.21875 62.890625 53.21875 53.421875 
Q 53.21875 48.921875 51.53125 44.890625 
Q 49.859375 40.875 45.40625 35.40625 
Q 44.1875 33.984375 37.640625 27.21875 
Q 31.109375 20.453125 19.1875 8.296875 
z
" id="DejaVuSans-50"/>
       </defs>
       <use xlink:href="#DejaVuSans-48"/>
       <use x="63.623047" xlink:href="#DejaVuSans-46"/>
       <use x="95.410156" xlink:href="#DejaVuSans-50"/>
      </g>
     </g>
    </g>
    <g id="xtick_3">
     <g id="line2d_3">
      <g>
       <use style="stroke:#000000;stroke-width:0.8;" x="144.541792" xlink:href="#m10529cf72a" y="279"/>
      </g>
     </g>
     <g id="text_3">
      <!-- 0.4 -->
      <g transform="translate(136.590229 293.598437)scale(0.1 -0.1)">
       <defs>
        <path d="M 37.796875 64.3125 
L 12.890625 25.390625 
L 37.796875 25.390625 
z
M 35.203125 72.90625 
L 47.609375 72.90625 
L 47.609375 25.390625 
L 58.015625 25.390625 
L 58.015625 17.1875 
L 47.609375 17.1875 
L 47.609375 0 
L 37.796875 0 
L 37.796875 17.1875 
L 4.890625 17.1875 
L 4.890625 26.703125 
z
" id="DejaVuSans-52"/>
       </defs>
       <use xlink:href="#DejaVuSans-48"/>
       <use x="63.623047" xlink:href="#DejaVuSans-46"/>
       <use x="95.410156" xlink:href="#DejaVuSans-52"/>
      </g>
     </g>
    </g>
    <g id="xtick_4">
     <g id="line2d_4">
      <g>
       <use style="stroke:#000000;stroke-width:0.8;" x="195.674117" xlink:href="#m10529cf72a" y="279"/>
      </g>
     </g>
     <g id="text_4">
      <!-- 0.6 -->
      <g transform="translate(187.722554 293.598437)scale(0.1 -0.1)">
       <defs>
        <path d="M 33.015625 40.375 
Q 26.375 40.375 22.484375 35.828125 
Q 18.609375 31.296875 18.609375 23.390625 
Q 18.609375 15.53125 22.484375 10.953125 
Q 26.375 6.390625 33.015625 6.390625 
Q 39.65625 6.390625 43.53125 10.953125 
Q 47.40625 15.53125 47.40625 23.390625 
Q 47.40625 31.296875 43.53125 35.828125 
Q 39.65625 40.375 33.015625 40.375 
z
M 52.59375 71.296875 
L 52.59375 62.3125 
Q 48.875 64.0625 45.09375 64.984375 
Q 41.3125 65.921875 37.59375 65.921875 
Q 27.828125 65.921875 22.671875 59.328125 
Q 17.53125 52.734375 16.796875 39.40625 
Q 19.671875 43.65625 24.015625 45.921875 
Q 28.375 48.1875 33.59375 48.1875 
Q 44.578125 48.1875 50.953125 41.515625 
Q 57.328125 34.859375 57.328125 23.390625 
Q 57.328125 12.15625 50.6875 5.359375 
Q 44.046875 -1.421875 33.015625 -1.421875 
Q 20.359375 -1.421875 13.671875 8.265625 
Q 6.984375 17.96875 6.984375 36.375 
Q 6.984375 53.65625 15.1875 63.9375 
Q 23.390625 74.21875 37.203125 74.21875 
Q 40.921875 74.21875 44.703125 73.484375 
Q 48.484375 72.75 52.59375 71.296875 
z
" id="DejaVuSans-54"/>
       </defs>
       <use xlink:href="#DejaVuSans-48"/>
       <use x="63.623047" xlink:href="#DejaVuSans-46"/>
       <use x="95.410156" xlink:href="#DejaVuSans-54"/>
      </g>
     </g>
    </g>
    <g id="xtick_5">
     <g id="line2d_5">
      <g>
       <use style="stroke:#000000;stroke-width:0.8;" x="246.806442" xlink:href="#m10529cf72a" y="279"/>
      </g>
     </g>
     <g id="text_5">
      <!-- 0.8 -->
      <g transform="translate(238.854879 293.598437)scale(0.1 -0.1)">
       <defs>
        <path d="M 31.78125 34.625 
Q 24.75 34.625 20.71875 30.859375 
Q 16.703125 27.09375 16.703125 20.515625 
Q 16.703125 13.921875 20.71875 10.15625 
Q 24.75 6.390625 31.78125 6.390625 
Q 38.8125 6.390625 42.859375 10.171875 
Q 46.921875 13.96875 46.921875 20.515625 
Q 46.921875 27.09375 42.890625 30.859375 
Q 38.875 34.625 31.78125 34.625 
z
M 21.921875 38.8125 
Q 15.578125 40.375 12.03125 44.71875 
Q 8.5 49.078125 8.5 55.328125 
Q 8.5 64.0625 14.71875 69.140625 
Q 20.953125 74.21875 31.78125 74.21875 
Q 42.671875 74.21875 48.875 69.140625 
Q 55.078125 64.0625 55.078125 55.328125 
Q 55.078125 49.078125 51.53125 44.71875 
Q 48 40.375 41.703125 38.8125 
Q 48.828125 37.15625 52.796875 32.3125 
Q 56.78125 27.484375 56.78125 20.515625 
Q 56.78125 9.90625 50.3125 4.234375 
Q 43.84375 -1.421875 31.78125 -1.421875 
Q 19.734375 -1.421875 13.25 4.234375 
Q 6.78125 9.90625 6.78125 20.515625 
Q 6.78125 27.484375 10.78125 32.3125 
Q 14.796875 37.15625 21.921875 38.8125 
z
M 18.3125 54.390625 
Q 18.3125 48.734375 21.84375 45.5625 
Q 25.390625 42.390625 31.78125 42.390625 
Q 38.140625 42.390625 41.71875 45.5625 
Q 45.3125 48.734375 45.3125 54.390625 
Q 45.3125 60.0625 41.71875 63.234375 
Q 38.140625 66.40625 31.78125 66.40625 
Q 25.390625 66.40625 21.84375 63.234375 
Q 18.3125 60.0625 18.3125 54.390625 
z
" id="DejaVuSans-56"/>
       </defs>
       <use xlink:href="#DejaVuSans-48"/>
       <use x="63.623047" xlink:href="#DejaVuSans-46"/>
       <use x="95.410156" xlink:href="#DejaVuSans-56"/>
      </g>
     </g>
    </g>
    <g id="xtick_6">
     <g id="line2d_6">
      <g>
       <use style="stroke:#000000;stroke-width:0.8;" x="297.938767" xlink:href="#m10529cf72a" y="279"/>
      </g>
     </g>
     <g id="text_6">
      <!-- 1.0 -->
      <g transform="translate(289.987204 293.598437)scale(0.1 -0.1)">
       <defs>
        <path d="M 12.40625 8.296875 
L 28.515625 8.296875 
L 28.515625 63.921875 
L 10.984375 60.40625 
L 10.984375 69.390625 
L 28.421875 72.90625 
L 38.28125 72.90625 
L 38.28125 8.296875 
L 54.390625 8.296875 
L 54.390625 0 
L 12.40625 0 
z
" id="DejaVuSans-49"/>
       </defs>
       <use xlink:href="#DejaVuSans-49"/>
       <use x="63.623047" xlink:href="#DejaVuSans-46"/>
       <use x="95.410156" xlink:href="#DejaVuSans-48"/>
      </g>
     </g>
    </g>
   </g>
   <g id="matplotlib.axis_2">
    <g id="ytick_1">
     <g id="line2d_7">
      <defs>
       <path d="M 0 0 
L -3.5 0 
" id="m509f56a088" style="stroke:#000000;stroke-width:0.8;"/>
      </defs>
      <g>
       <use style="stroke:#000000;stroke-width:0.8;" x="30.103125" xlink:href="#m509f56a088" y="268.997648"/>
      </g>
     </g>
     <g id="text_7">
      <!-- 0.0 -->
      <g transform="translate(7.2 272.796867)scale(0.1 -0.1)">
       <use xlink:href="#DejaVuSans-48"/>
       <use x="63.623047" xlink:href="#DejaVuSans-46"/>
       <use x="95.410156" xlink:href="#DejaVuSans-48"/>
      </g>
     </g>
    </g>
    <g id="ytick_2">
     <g id="line2d_8">
      <g>
       <use style="stroke:#000000;stroke-width:0.8;" x="30.103125" xlink:href="#m509f56a088" y="218.9117"/>
      </g>
     </g>
     <g id="text_8">
      <!-- 0.2 -->
      <g transform="translate(7.2 222.710919)scale(0.1 -0.1)">
       <use xlink:href="#DejaVuSans-48"/>
       <use x="63.623047" xlink:href="#DejaVuSans-46"/>
       <use x="95.410156" xlink:href="#DejaVuSans-50"/>
      </g>
     </g>
    </g>
    <g id="ytick_3">
     <g id="line2d_9">
      <g>
       <use style="stroke:#000000;stroke-width:0.8;" x="30.103125" xlink:href="#m509f56a088" y="168.825752"/>
      </g>
     </g>
     <g id="text_9">
      <!-- 0.4 -->
      <g transform="translate(7.2 172.62497)scale(0.1 -0.1)">
       <use xlink:href="#DejaVuSans-48"/>
       <use x="63.623047" xlink:href="#DejaVuSans-46"/>
       <use x="95.410156" xlink:href="#DejaVuSans-52"/>
      </g>
     </g>
    </g>
    <g id="ytick_4">
     <g id="line2d_10">
      <g>
       <use style="stroke:#000000;stroke-width:0.8;" x="30.103125" xlink:href="#m509f56a088" y="118.739803"/>
      </g>
     </g>
     <g id="text_10">
      <!-- 0.6 -->
      <g transform="translate(7.2 122.539022)scale(0.1 -0.1)">
       <use xlink:href="#DejaVuSans-48"/>
       <use x="63.623047" xlink:href="#DejaVuSans-46"/>
       <use x="95.410156" xlink:href="#DejaVuSans-54"/>
      </g>
     </g>
    </g>
    <g id="ytick_5">
     <g id="line2d_11">
      <g>
       <use style="stroke:#000000;stroke-width:0.8;" x="30.103125" xlink:href="#m509f56a088" y="68.653855"/>
      </g>
     </g>
     <g id="text_11">
      <!-- 0.8 -->
      <g transform="translate(7.2 72.453074)scale(0.1 -0.1)">
       <use xlink:href="#DejaVuSans-48"/>
       <use x="63.623047" xlink:href="#DejaVuSans-46"/>
       <use x="95.410156" xlink:href="#DejaVuSans-56"/>
      </g>
     </g>
    </g>
    <g id="ytick_6">
     <g id="line2d_12">
      <g>
       <use style="stroke:#000000;stroke-width:0.8;" x="30.103125" xlink:href="#m509f56a088" y="18.567907"/>
      </g>
     </g>
     <g id="text_12">
      <!-- 1.0 -->
      <g transform="translate(7.2 22.367126)scale(0.1 -0.1)">
       <use xlink:href="#DejaVuSans-49"/>
       <use x="63.623047" xlink:href="#DejaVuSans-46"/>
       <use x="95.410156" xlink:href="#DejaVuSans-48"/>
      </g>
     </g>
    </g>
   </g>
   <g id="patch_3">
    <path d="M 30.103125 279 
L 30.103125 7.2 
" style="fill:none;stroke:#000000;stroke-linecap:square;stroke-linejoin:miter;stroke-width:0.8;"/>
   </g>
   <g id="patch_4">
    <path d="M 309.103125 279 
L 309.103125 7.2 
" style="fill:none;stroke:#000000;stroke-linecap:square;stroke-linejoin:miter;stroke-width:0.8;"/>
   </g>
   <g id="patch_5">
    <path d="M 30.103125 279 
L 309.103125 279 
" style="fill:none;stroke:#000000;stroke-linecap:square;stroke-linejoin:miter;stroke-width:0.8;"/>
   </g>
   <g id="patch_6">
    <path d="M 30.103125 7.2 
L 309.103125 7.2 
" style="fill:none;stroke:#000000;stroke-linecap:square;stroke-linejoin:miter;stroke-width:0.8;"/>
   </g>
  </g>
 </g>
 <defs>
  <clipPath id="pc9658e4988">
   <rect height="271.8" width="279" x="30.103125" y="7.2"/>
  </clipPath>
 </defs>
</svg>
