<?xml version="1.0" encoding="utf-8" standalone="no"?>
<!DOCTYPE svg PUBLIC "-//W3C//DTD SVG 1.1//EN"
  "http://www.w3.org/Graphics/SVG/1.1/DTD/svg11.dtd">
<!-- Created with matplotlib (https://matplotlib.org/) -->
<svg height="266.514844pt" version="1.1" viewBox="0 0 388.964375 266.514844" width="388.964375pt" xmlns="http://www.w3.org/2000/svg" xmlns:xlink="http://www.w3.org/1999/xlink">
 <metadata>
  <rdf:RDF xmlns:cc="http://creativecommons.org/ns#" xmlns:dc="http://purl.org/dc/elements/1.1/" xmlns:rdf="http://www.w3.org/1999/02/22-rdf-syntax-ns#">
   <cc:Work>
    <dc:type rdf:resource="http://purl.org/dc/dcmitype/StillImage"/>
    <dc:date>2021-03-05T13:11:53.843672</dc:date>
    <dc:format>image/svg+xml</dc:format>
    <dc:creator>
     <cc:Agent>
      <dc:title>Matplotlib v3.3.4, https://matplotlib.org/</dc:title>
     </cc:Agent>
    </dc:creator>
   </cc:Work>
  </rdf:RDF>
 </metadata>
 <defs>
  <style type="text/css">*{stroke-linecap:butt;stroke-linejoin:round;}</style>
 </defs>
 <g id="figure_1">
  <g id="patch_1">
   <path d="M -0 266.514844 
L 388.964375 266.514844 
L 388.964375 0 
L -0 0 
z
" style="fill:#ffffff;"/>
  </g>
  <g id="axes_1">
   <g id="patch_2">
    <path d="M 46.964375 224.64 
L 381.764375 224.64 
L 381.764375 7.2 
L 46.964375 7.2 
z
" style="fill:#ffffff;"/>
   </g>
   <g id="matplotlib.axis_1">
    <g id="xtick_1">
     <g id="line2d_1">
      <path clip-path="url(#p768570aa41)" d="M 52.621018 224.64 
L 52.621018 7.2 
" style="fill:none;stroke:#cccccc;stroke-linecap:round;"/>
     </g>
     <g id="text_1">
      <!-- 0 -->
      <g style="fill:#262626;" transform="translate(49.562502 242.013594)scale(0.11 -0.11)">
       <defs>
        <path d="M 4.15625 35.296875 
Q 4.15625 48 6.765625 55.734375 
Q 9.375 63.484375 14.515625 67.671875 
Q 19.671875 71.875 27.484375 71.875 
Q 33.25 71.875 37.59375 69.546875 
Q 41.9375 67.234375 44.765625 62.859375 
Q 47.609375 58.5 49.21875 52.21875 
Q 50.828125 45.953125 50.828125 35.296875 
Q 50.828125 22.703125 48.234375 14.96875 
Q 45.65625 7.234375 40.5 3 
Q 35.359375 -1.21875 27.484375 -1.21875 
Q 17.140625 -1.21875 11.234375 6.203125 
Q 4.15625 15.140625 4.15625 35.296875 
z
M 13.1875 35.296875 
Q 13.1875 17.671875 17.3125 11.828125 
Q 21.4375 6 27.484375 6 
Q 33.546875 6 37.671875 11.859375 
Q 41.796875 17.71875 41.796875 35.296875 
Q 41.796875 52.984375 37.671875 58.78125 
Q 33.546875 64.59375 27.390625 64.59375 
Q 21.34375 64.59375 17.71875 59.46875 
Q 13.1875 52.9375 13.1875 35.296875 
z
" id="ArialMT-48"/>
       </defs>
       <use xlink:href="#ArialMT-48"/>
      </g>
     </g>
    </g>
    <g id="xtick_2">
     <g id="line2d_2">
      <path clip-path="url(#p768570aa41)" d="M 117.318361 224.64 
L 117.318361 7.2 
" style="fill:none;stroke:#cccccc;stroke-linecap:round;"/>
     </g>
     <g id="text_2">
      <!-- 1 -->
      <g style="fill:#262626;" transform="translate(114.259845 242.013594)scale(0.11 -0.11)">
       <defs>
        <path d="M 37.25 0 
L 28.46875 0 
L 28.46875 56 
Q 25.296875 52.984375 20.140625 49.953125 
Q 14.984375 46.921875 10.890625 45.40625 
L 10.890625 53.90625 
Q 18.265625 57.375 23.78125 62.296875 
Q 29.296875 67.234375 31.59375 71.875 
L 37.25 71.875 
z
" id="ArialMT-49"/>
       </defs>
       <use xlink:href="#ArialMT-49"/>
      </g>
     </g>
    </g>
    <g id="xtick_3">
     <g id="line2d_3">
      <path clip-path="url(#p768570aa41)" d="M 182.015704 224.64 
L 182.015704 7.2 
" style="fill:none;stroke:#cccccc;stroke-linecap:round;"/>
     </g>
     <g id="text_3">
      <!-- 2 -->
      <g style="fill:#262626;" transform="translate(178.957188 242.013594)scale(0.11 -0.11)">
       <defs>
        <path d="M 50.34375 8.453125 
L 50.34375 0 
L 3.03125 0 
Q 2.9375 3.171875 4.046875 6.109375 
Q 5.859375 10.9375 9.828125 15.625 
Q 13.8125 20.3125 21.34375 26.46875 
Q 33.015625 36.03125 37.109375 41.625 
Q 41.21875 47.21875 41.21875 52.203125 
Q 41.21875 57.421875 37.46875 61 
Q 33.734375 64.59375 27.734375 64.59375 
Q 21.390625 64.59375 17.578125 60.78125 
Q 13.765625 56.984375 13.71875 50.25 
L 4.6875 51.171875 
Q 5.609375 61.28125 11.65625 66.578125 
Q 17.71875 71.875 27.9375 71.875 
Q 38.234375 71.875 44.234375 66.15625 
Q 50.25 60.453125 50.25 52 
Q 50.25 47.703125 48.484375 43.546875 
Q 46.734375 39.40625 42.65625 34.8125 
Q 38.578125 30.21875 29.109375 22.21875 
Q 21.1875 15.578125 18.9375 13.203125 
Q 16.703125 10.84375 15.234375 8.453125 
z
" id="ArialMT-50"/>
       </defs>
       <use xlink:href="#ArialMT-50"/>
      </g>
     </g>
    </g>
    <g id="xtick_4">
     <g id="line2d_4">
      <path clip-path="url(#p768570aa41)" d="M 246.713046 224.64 
L 246.713046 7.2 
" style="fill:none;stroke:#cccccc;stroke-linecap:round;"/>
     </g>
     <g id="text_4">
      <!-- 3 -->
      <g style="fill:#262626;" transform="translate(243.654531 242.013594)scale(0.11 -0.11)">
       <defs>
        <path d="M 4.203125 18.890625 
L 12.984375 20.0625 
Q 14.5 12.59375 18.140625 9.296875 
Q 21.78125 6 27 6 
Q 33.203125 6 37.46875 10.296875 
Q 41.75 14.59375 41.75 20.953125 
Q 41.75 27 37.796875 30.921875 
Q 33.84375 34.859375 27.734375 34.859375 
Q 25.25 34.859375 21.53125 33.890625 
L 22.515625 41.609375 
Q 23.390625 41.5 23.921875 41.5 
Q 29.546875 41.5 34.03125 44.421875 
Q 38.53125 47.359375 38.53125 53.46875 
Q 38.53125 58.296875 35.25 61.46875 
Q 31.984375 64.65625 26.8125 64.65625 
Q 21.6875 64.65625 18.265625 61.421875 
Q 14.84375 58.203125 13.875 51.765625 
L 5.078125 53.328125 
Q 6.6875 62.15625 12.390625 67.015625 
Q 18.109375 71.875 26.609375 71.875 
Q 32.46875 71.875 37.390625 69.359375 
Q 42.328125 66.84375 44.9375 62.5 
Q 47.5625 58.15625 47.5625 53.265625 
Q 47.5625 48.640625 45.0625 44.828125 
Q 42.578125 41.015625 37.703125 38.765625 
Q 44.046875 37.3125 47.5625 32.6875 
Q 51.078125 28.078125 51.078125 21.140625 
Q 51.078125 11.765625 44.234375 5.25 
Q 37.40625 -1.265625 26.953125 -1.265625 
Q 17.53125 -1.265625 11.296875 4.34375 
Q 5.078125 9.96875 4.203125 18.890625 
z
" id="ArialMT-51"/>
       </defs>
       <use xlink:href="#ArialMT-51"/>
      </g>
     </g>
    </g>
    <g id="xtick_5">
     <g id="line2d_5">
      <path clip-path="url(#p768570aa41)" d="M 311.410389 224.64 
L 311.410389 7.2 
" style="fill:none;stroke:#cccccc;stroke-linecap:round;"/>
     </g>
     <g id="text_5">
      <!-- 4 -->
      <g style="fill:#262626;" transform="translate(308.351874 242.013594)scale(0.11 -0.11)">
       <defs>
        <path d="M 32.328125 0 
L 32.328125 17.140625 
L 1.265625 17.140625 
L 1.265625 25.203125 
L 33.9375 71.578125 
L 41.109375 71.578125 
L 41.109375 25.203125 
L 50.78125 25.203125 
L 50.78125 17.140625 
L 41.109375 17.140625 
L 41.109375 0 
z
M 32.328125 25.203125 
L 32.328125 57.46875 
L 9.90625 25.203125 
z
" id="ArialMT-52"/>
       </defs>
       <use xlink:href="#ArialMT-52"/>
      </g>
     </g>
    </g>
    <g id="xtick_6">
     <g id="line2d_6">
      <path clip-path="url(#p768570aa41)" d="M 376.107732 224.64 
L 376.107732 7.2 
" style="fill:none;stroke:#cccccc;stroke-linecap:round;"/>
     </g>
     <g id="text_6">
      <!-- 5 -->
      <g style="fill:#262626;" transform="translate(373.049216 242.013594)scale(0.11 -0.11)">
       <defs>
        <path d="M 4.15625 18.75 
L 13.375 19.53125 
Q 14.40625 12.796875 18.140625 9.390625 
Q 21.875 6 27.15625 6 
Q 33.5 6 37.890625 10.78125 
Q 42.28125 15.578125 42.28125 23.484375 
Q 42.28125 31 38.0625 35.34375 
Q 33.84375 39.703125 27 39.703125 
Q 22.75 39.703125 19.328125 37.765625 
Q 15.921875 35.84375 13.96875 32.765625 
L 5.71875 33.84375 
L 12.640625 70.609375 
L 48.25 70.609375 
L 48.25 62.203125 
L 19.671875 62.203125 
L 15.828125 42.96875 
Q 22.265625 47.46875 29.34375 47.46875 
Q 38.71875 47.46875 45.15625 40.96875 
Q 51.609375 34.46875 51.609375 24.265625 
Q 51.609375 14.546875 45.953125 7.46875 
Q 39.0625 -1.21875 27.15625 -1.21875 
Q 17.390625 -1.21875 11.203125 4.25 
Q 5.03125 9.71875 4.15625 18.75 
z
" id="ArialMT-53"/>
       </defs>
       <use xlink:href="#ArialMT-53"/>
      </g>
     </g>
    </g>
    <g id="text_7">
     <!-- study time -->
     <g style="fill:#262626;" transform="translate(187.023125 256.789219)scale(0.12 -0.12)">
      <defs>
       <path d="M 3.078125 15.484375 
L 11.765625 16.84375 
Q 12.5 11.625 15.84375 8.84375 
Q 19.1875 6.0625 25.203125 6.0625 
Q 31.25 6.0625 34.171875 8.515625 
Q 37.109375 10.984375 37.109375 14.3125 
Q 37.109375 17.28125 34.515625 19 
Q 32.71875 20.171875 25.53125 21.96875 
Q 15.875 24.421875 12.140625 26.203125 
Q 8.40625 27.984375 6.46875 31.125 
Q 4.546875 34.28125 4.546875 38.09375 
Q 4.546875 41.546875 6.125 44.5 
Q 7.71875 47.46875 10.453125 49.421875 
Q 12.5 50.921875 16.03125 51.96875 
Q 19.578125 53.03125 23.640625 53.03125 
Q 29.734375 53.03125 34.34375 51.265625 
Q 38.96875 49.515625 41.15625 46.5 
Q 43.359375 43.5 44.1875 38.484375 
L 35.59375 37.3125 
Q 35.015625 41.3125 32.203125 43.546875 
Q 29.390625 45.796875 24.265625 45.796875 
Q 18.21875 45.796875 15.625 43.796875 
Q 13.03125 41.796875 13.03125 39.109375 
Q 13.03125 37.40625 14.109375 36.03125 
Q 15.1875 34.625 17.484375 33.6875 
Q 18.796875 33.203125 25.25 31.453125 
Q 34.578125 28.953125 38.25 27.359375 
Q 41.9375 25.78125 44.03125 22.75 
Q 46.140625 19.734375 46.140625 15.234375 
Q 46.140625 10.84375 43.578125 6.953125 
Q 41.015625 3.078125 36.171875 0.953125 
Q 31.34375 -1.171875 25.25 -1.171875 
Q 15.140625 -1.171875 9.84375 3.03125 
Q 4.546875 7.234375 3.078125 15.484375 
z
" id="ArialMT-115"/>
       <path d="M 25.78125 7.859375 
L 27.046875 0.09375 
Q 23.34375 -0.6875 20.40625 -0.6875 
Q 15.625 -0.6875 12.984375 0.828125 
Q 10.359375 2.34375 9.28125 4.8125 
Q 8.203125 7.28125 8.203125 15.1875 
L 8.203125 45.015625 
L 1.765625 45.015625 
L 1.765625 51.859375 
L 8.203125 51.859375 
L 8.203125 64.703125 
L 16.9375 69.96875 
L 16.9375 51.859375 
L 25.78125 51.859375 
L 25.78125 45.015625 
L 16.9375 45.015625 
L 16.9375 14.703125 
Q 16.9375 10.9375 17.40625 9.859375 
Q 17.875 8.796875 18.921875 8.15625 
Q 19.96875 7.515625 21.921875 7.515625 
Q 23.390625 7.515625 25.78125 7.859375 
z
" id="ArialMT-116"/>
       <path d="M 40.578125 0 
L 40.578125 7.625 
Q 34.515625 -1.171875 24.125 -1.171875 
Q 19.53125 -1.171875 15.546875 0.578125 
Q 11.578125 2.34375 9.640625 5 
Q 7.71875 7.671875 6.9375 11.53125 
Q 6.390625 14.109375 6.390625 19.734375 
L 6.390625 51.859375 
L 15.1875 51.859375 
L 15.1875 23.09375 
Q 15.1875 16.21875 15.71875 13.8125 
Q 16.546875 10.359375 19.234375 8.375 
Q 21.921875 6.390625 25.875 6.390625 
Q 29.828125 6.390625 33.296875 8.421875 
Q 36.765625 10.453125 38.203125 13.9375 
Q 39.65625 17.4375 39.65625 24.078125 
L 39.65625 51.859375 
L 48.4375 51.859375 
L 48.4375 0 
z
" id="ArialMT-117"/>
       <path d="M 40.234375 0 
L 40.234375 6.546875 
Q 35.296875 -1.171875 25.734375 -1.171875 
Q 19.53125 -1.171875 14.328125 2.25 
Q 9.125 5.671875 6.265625 11.796875 
Q 3.421875 17.921875 3.421875 25.875 
Q 3.421875 33.640625 6 39.96875 
Q 8.59375 46.296875 13.765625 49.65625 
Q 18.953125 53.03125 25.34375 53.03125 
Q 30.03125 53.03125 33.6875 51.046875 
Q 37.359375 49.078125 39.65625 45.90625 
L 39.65625 71.578125 
L 48.390625 71.578125 
L 48.390625 0 
z
M 12.453125 25.875 
Q 12.453125 15.921875 16.640625 10.984375 
Q 20.84375 6.0625 26.5625 6.0625 
Q 32.328125 6.0625 36.34375 10.765625 
Q 40.375 15.484375 40.375 25.140625 
Q 40.375 35.796875 36.265625 40.765625 
Q 32.171875 45.75 26.171875 45.75 
Q 20.3125 45.75 16.375 40.96875 
Q 12.453125 36.1875 12.453125 25.875 
z
" id="ArialMT-100"/>
       <path d="M 6.203125 -19.96875 
L 5.21875 -11.71875 
Q 8.109375 -12.5 10.25 -12.5 
Q 13.1875 -12.5 14.9375 -11.515625 
Q 16.703125 -10.546875 17.828125 -8.796875 
Q 18.65625 -7.46875 20.515625 -2.25 
Q 20.75 -1.515625 21.296875 -0.09375 
L 1.609375 51.859375 
L 11.078125 51.859375 
L 21.875 21.828125 
Q 23.96875 16.109375 25.640625 9.8125 
Q 27.15625 15.875 29.25 21.625 
L 40.328125 51.859375 
L 49.125 51.859375 
L 29.390625 -0.875 
Q 26.21875 -9.421875 24.46875 -12.640625 
Q 22.125 -17 19.09375 -19.015625 
Q 16.0625 -21.046875 11.859375 -21.046875 
Q 9.328125 -21.046875 6.203125 -19.96875 
z
" id="ArialMT-121"/>
       <path id="ArialMT-32"/>
       <path d="M 6.640625 61.46875 
L 6.640625 71.578125 
L 15.4375 71.578125 
L 15.4375 61.46875 
z
M 6.640625 0 
L 6.640625 51.859375 
L 15.4375 51.859375 
L 15.4375 0 
z
" id="ArialMT-105"/>
       <path d="M 6.59375 0 
L 6.59375 51.859375 
L 14.453125 51.859375 
L 14.453125 44.578125 
Q 16.890625 48.390625 20.9375 50.703125 
Q 25 53.03125 30.171875 53.03125 
Q 35.9375 53.03125 39.625 50.640625 
Q 43.3125 48.25 44.828125 43.953125 
Q 50.984375 53.03125 60.84375 53.03125 
Q 68.5625 53.03125 72.703125 48.75 
Q 76.859375 44.484375 76.859375 35.59375 
L 76.859375 0 
L 68.109375 0 
L 68.109375 32.671875 
Q 68.109375 37.9375 67.25 40.25 
Q 66.40625 42.578125 64.15625 43.984375 
Q 61.921875 45.40625 58.890625 45.40625 
Q 53.421875 45.40625 49.796875 41.765625 
Q 46.1875 38.140625 46.1875 30.125 
L 46.1875 0 
L 37.40625 0 
L 37.40625 33.6875 
Q 37.40625 39.546875 35.25 42.46875 
Q 33.109375 45.40625 28.21875 45.40625 
Q 24.515625 45.40625 21.359375 43.453125 
Q 18.21875 41.5 16.796875 37.734375 
Q 15.375 33.984375 15.375 26.90625 
L 15.375 0 
z
" id="ArialMT-109"/>
       <path d="M 42.09375 16.703125 
L 51.171875 15.578125 
Q 49.03125 7.625 43.21875 3.21875 
Q 37.40625 -1.171875 28.375 -1.171875 
Q 17 -1.171875 10.328125 5.828125 
Q 3.65625 12.84375 3.65625 25.484375 
Q 3.65625 38.578125 10.390625 45.796875 
Q 17.140625 53.03125 27.875 53.03125 
Q 38.28125 53.03125 44.875 45.953125 
Q 51.46875 38.875 51.46875 26.03125 
Q 51.46875 25.25 51.421875 23.6875 
L 12.75 23.6875 
Q 13.234375 15.140625 17.578125 10.59375 
Q 21.921875 6.0625 28.421875 6.0625 
Q 33.25 6.0625 36.671875 8.59375 
Q 40.09375 11.140625 42.09375 16.703125 
z
M 13.234375 30.90625 
L 42.1875 30.90625 
Q 41.609375 37.453125 38.875 40.71875 
Q 34.671875 45.796875 27.984375 45.796875 
Q 21.921875 45.796875 17.796875 41.75 
Q 13.671875 37.703125 13.234375 30.90625 
z
" id="ArialMT-101"/>
      </defs>
      <use xlink:href="#ArialMT-115"/>
      <use x="50" xlink:href="#ArialMT-116"/>
      <use x="77.783203" xlink:href="#ArialMT-117"/>
      <use x="133.398438" xlink:href="#ArialMT-100"/>
      <use x="189.013672" xlink:href="#ArialMT-121"/>
      <use x="239.013672" xlink:href="#ArialMT-32"/>
      <use x="266.796875" xlink:href="#ArialMT-116"/>
      <use x="294.580078" xlink:href="#ArialMT-105"/>
      <use x="316.796875" xlink:href="#ArialMT-109"/>
      <use x="400.097656" xlink:href="#ArialMT-101"/>
     </g>
    </g>
   </g>
   <g id="matplotlib.axis_2">
    <g id="ytick_1">
     <g id="line2d_7">
      <path clip-path="url(#p768570aa41)" d="M 46.964375 224.64 
L 381.764375 224.64 
" style="fill:none;stroke:#cccccc;stroke-linecap:round;"/>
     </g>
     <g id="text_8">
      <!-- 0.0 -->
      <g style="fill:#262626;" transform="translate(22.174375 228.576797)scale(0.11 -0.11)">
       <defs>
        <path d="M 9.078125 0 
L 9.078125 10.015625 
L 19.09375 10.015625 
L 19.09375 0 
z
" id="ArialMT-46"/>
       </defs>
       <use xlink:href="#ArialMT-48"/>
       <use x="55.615234" xlink:href="#ArialMT-46"/>
       <use x="83.398438" xlink:href="#ArialMT-48"/>
      </g>
     </g>
    </g>
    <g id="ytick_2">
     <g id="line2d_8">
      <path clip-path="url(#p768570aa41)" d="M 46.964375 198.640914 
L 381.764375 198.640914 
" style="fill:none;stroke:#cccccc;stroke-linecap:round;"/>
     </g>
     <g id="text_9">
      <!-- 0.1 -->
      <g style="fill:#262626;" transform="translate(22.174375 202.577711)scale(0.11 -0.11)">
       <use xlink:href="#ArialMT-48"/>
       <use x="55.615234" xlink:href="#ArialMT-46"/>
       <use x="83.398438" xlink:href="#ArialMT-49"/>
      </g>
     </g>
    </g>
    <g id="ytick_3">
     <g id="line2d_9">
      <path clip-path="url(#p768570aa41)" d="M 46.964375 172.641828 
L 381.764375 172.641828 
" style="fill:none;stroke:#cccccc;stroke-linecap:round;"/>
     </g>
     <g id="text_10">
      <!-- 0.2 -->
      <g style="fill:#262626;" transform="translate(22.174375 176.578625)scale(0.11 -0.11)">
       <use xlink:href="#ArialMT-48"/>
       <use x="55.615234" xlink:href="#ArialMT-46"/>
       <use x="83.398438" xlink:href="#ArialMT-50"/>
      </g>
     </g>
    </g>
    <g id="ytick_4">
     <g id="line2d_10">
      <path clip-path="url(#p768570aa41)" d="M 46.964375 146.642742 
L 381.764375 146.642742 
" style="fill:none;stroke:#cccccc;stroke-linecap:round;"/>
     </g>
     <g id="text_11">
      <!-- 0.3 -->
      <g style="fill:#262626;" transform="translate(22.174375 150.579539)scale(0.11 -0.11)">
       <use xlink:href="#ArialMT-48"/>
       <use x="55.615234" xlink:href="#ArialMT-46"/>
       <use x="83.398438" xlink:href="#ArialMT-51"/>
      </g>
     </g>
    </g>
    <g id="ytick_5">
     <g id="line2d_11">
      <path clip-path="url(#p768570aa41)" d="M 46.964375 120.643656 
L 381.764375 120.643656 
" style="fill:none;stroke:#cccccc;stroke-linecap:round;"/>
     </g>
     <g id="text_12">
      <!-- 0.4 -->
      <g style="fill:#262626;" transform="translate(22.174375 124.580453)scale(0.11 -0.11)">
       <use xlink:href="#ArialMT-48"/>
       <use x="55.615234" xlink:href="#ArialMT-46"/>
       <use x="83.398438" xlink:href="#ArialMT-52"/>
      </g>
     </g>
    </g>
    <g id="ytick_6">
     <g id="line2d_12">
      <path clip-path="url(#p768570aa41)" d="M 46.964375 94.64457 
L 381.764375 94.64457 
" style="fill:none;stroke:#cccccc;stroke-linecap:round;"/>
     </g>
     <g id="text_13">
      <!-- 0.5 -->
      <g style="fill:#262626;" transform="translate(22.174375 98.581367)scale(0.11 -0.11)">
       <use xlink:href="#ArialMT-48"/>
       <use x="55.615234" xlink:href="#ArialMT-46"/>
       <use x="83.398438" xlink:href="#ArialMT-53"/>
      </g>
     </g>
    </g>
    <g id="ytick_7">
     <g id="line2d_13">
      <path clip-path="url(#p768570aa41)" d="M 46.964375 68.645484 
L 381.764375 68.645484 
" style="fill:none;stroke:#cccccc;stroke-linecap:round;"/>
     </g>
     <g id="text_14">
      <!-- 0.6 -->
      <g style="fill:#262626;" transform="translate(22.174375 72.582281)scale(0.11 -0.11)">
       <defs>
        <path d="M 49.75 54.046875 
L 41.015625 53.375 
Q 39.84375 58.546875 37.703125 60.890625 
Q 34.125 64.65625 28.90625 64.65625 
Q 24.703125 64.65625 21.53125 62.3125 
Q 17.390625 59.28125 14.984375 53.46875 
Q 12.59375 47.65625 12.5 36.921875 
Q 15.671875 41.75 20.265625 44.09375 
Q 24.859375 46.4375 29.890625 46.4375 
Q 38.671875 46.4375 44.84375 39.96875 
Q 51.03125 33.5 51.03125 23.25 
Q 51.03125 16.5 48.125 10.71875 
Q 45.21875 4.9375 40.140625 1.859375 
Q 35.0625 -1.21875 28.609375 -1.21875 
Q 17.625 -1.21875 10.6875 6.859375 
Q 3.765625 14.9375 3.765625 33.5 
Q 3.765625 54.25 11.421875 63.671875 
Q 18.109375 71.875 29.4375 71.875 
Q 37.890625 71.875 43.28125 67.140625 
Q 48.6875 62.40625 49.75 54.046875 
z
M 13.875 23.1875 
Q 13.875 18.65625 15.796875 14.5 
Q 17.71875 10.359375 21.1875 8.171875 
Q 24.65625 6 28.46875 6 
Q 34.03125 6 38.03125 10.484375 
Q 42.046875 14.984375 42.046875 22.703125 
Q 42.046875 30.125 38.078125 34.390625 
Q 34.125 38.671875 28.125 38.671875 
Q 22.171875 38.671875 18.015625 34.390625 
Q 13.875 30.125 13.875 23.1875 
z
" id="ArialMT-54"/>
       </defs>
       <use xlink:href="#ArialMT-48"/>
       <use x="55.615234" xlink:href="#ArialMT-46"/>
       <use x="83.398438" xlink:href="#ArialMT-54"/>
      </g>
     </g>
    </g>
    <g id="ytick_8">
     <g id="line2d_14">
      <path clip-path="url(#p768570aa41)" d="M 46.964375 42.646398 
L 381.764375 42.646398 
" style="fill:none;stroke:#cccccc;stroke-linecap:round;"/>
     </g>
     <g id="text_15">
      <!-- 0.7 -->
      <g style="fill:#262626;" transform="translate(22.174375 46.583195)scale(0.11 -0.11)">
       <defs>
        <path d="M 4.734375 62.203125 
L 4.734375 70.65625 
L 51.078125 70.65625 
L 51.078125 63.8125 
Q 44.234375 56.546875 37.515625 44.484375 
Q 30.8125 32.421875 27.15625 19.671875 
Q 24.515625 10.6875 23.78125 0 
L 14.75 0 
Q 14.890625 8.453125 18.0625 20.40625 
Q 21.234375 32.375 27.171875 43.484375 
Q 33.109375 54.59375 39.796875 62.203125 
z
" id="ArialMT-55"/>
       </defs>
       <use xlink:href="#ArialMT-48"/>
       <use x="55.615234" xlink:href="#ArialMT-46"/>
       <use x="83.398438" xlink:href="#ArialMT-55"/>
      </g>
     </g>
    </g>
    <g id="ytick_9">
     <g id="line2d_15">
      <path clip-path="url(#p768570aa41)" d="M 46.964375 16.647312 
L 381.764375 16.647312 
" style="fill:none;stroke:#cccccc;stroke-linecap:round;"/>
     </g>
     <g id="text_16">
      <!-- 0.8 -->
      <g style="fill:#262626;" transform="translate(22.174375 20.584109)scale(0.11 -0.11)">
       <defs>
        <path d="M 17.671875 38.8125 
Q 12.203125 40.828125 9.5625 44.53125 
Q 6.9375 48.25 6.9375 53.421875 
Q 6.9375 61.234375 12.546875 66.546875 
Q 18.171875 71.875 27.484375 71.875 
Q 36.859375 71.875 42.578125 66.421875 
Q 48.296875 60.984375 48.296875 53.171875 
Q 48.296875 48.1875 45.671875 44.5 
Q 43.0625 40.828125 37.75 38.8125 
Q 44.34375 36.671875 47.78125 31.875 
Q 51.21875 27.09375 51.21875 20.453125 
Q 51.21875 11.28125 44.71875 5.03125 
Q 38.234375 -1.21875 27.640625 -1.21875 
Q 17.046875 -1.21875 10.546875 5.046875 
Q 4.046875 11.328125 4.046875 20.703125 
Q 4.046875 27.6875 7.59375 32.390625 
Q 11.140625 37.109375 17.671875 38.8125 
z
M 15.921875 53.71875 
Q 15.921875 48.640625 19.1875 45.40625 
Q 22.46875 42.1875 27.6875 42.1875 
Q 32.765625 42.1875 36.015625 45.375 
Q 39.265625 48.578125 39.265625 53.21875 
Q 39.265625 58.0625 35.90625 61.359375 
Q 32.5625 64.65625 27.59375 64.65625 
Q 22.5625 64.65625 19.234375 61.421875 
Q 15.921875 58.203125 15.921875 53.71875 
z
M 13.09375 20.65625 
Q 13.09375 16.890625 14.875 13.375 
Q 16.65625 9.859375 20.171875 7.921875 
Q 23.6875 6 27.734375 6 
Q 34.03125 6 38.125 10.046875 
Q 42.234375 14.109375 42.234375 20.359375 
Q 42.234375 26.703125 38.015625 30.859375 
Q 33.796875 35.015625 27.4375 35.015625 
Q 21.234375 35.015625 17.15625 30.90625 
Q 13.09375 26.8125 13.09375 20.65625 
z
" id="ArialMT-56"/>
       </defs>
       <use xlink:href="#ArialMT-48"/>
       <use x="55.615234" xlink:href="#ArialMT-46"/>
       <use x="83.398438" xlink:href="#ArialMT-56"/>
      </g>
     </g>
    </g>
    <g id="text_17">
     <!-- % data distribution -->
     <g style="fill:#262626;" transform="translate(15.789375 165.279375)rotate(-90)scale(0.12 -0.12)">
      <defs>
       <path d="M 5.8125 54.390625 
Q 5.8125 62.0625 9.671875 67.421875 
Q 13.53125 72.796875 20.84375 72.796875 
Q 27.59375 72.796875 32 67.984375 
Q 36.421875 63.1875 36.421875 53.859375 
Q 36.421875 44.78125 31.953125 39.875 
Q 27.484375 34.96875 20.953125 34.96875 
Q 14.453125 34.96875 10.125 39.796875 
Q 5.8125 44.625 5.8125 54.390625 
z
M 21.09375 66.75 
Q 17.828125 66.75 15.65625 63.90625 
Q 13.484375 61.078125 13.484375 53.515625 
Q 13.484375 46.625 15.671875 43.8125 
Q 17.875 41.015625 21.09375 41.015625 
Q 24.421875 41.015625 26.59375 43.84375 
Q 28.765625 46.6875 28.765625 54.203125 
Q 28.765625 61.140625 26.5625 63.9375 
Q 24.359375 66.75 21.09375 66.75 
z
M 21.140625 -2.640625 
L 60.296875 72.796875 
L 67.4375 72.796875 
L 28.421875 -2.640625 
z
M 52.09375 16.796875 
Q 52.09375 24.515625 55.953125 29.859375 
Q 59.8125 35.203125 67.1875 35.203125 
Q 73.921875 35.203125 78.34375 30.390625 
Q 82.765625 25.59375 82.765625 16.265625 
Q 82.765625 7.171875 78.296875 2.265625 
Q 73.828125 -2.640625 67.234375 -2.640625 
Q 60.75 -2.640625 56.421875 2.21875 
Q 52.09375 7.078125 52.09375 16.796875 
z
M 67.4375 29.15625 
Q 64.109375 29.15625 61.9375 26.3125 
Q 59.765625 23.484375 59.765625 15.921875 
Q 59.765625 9.078125 61.953125 6.25 
Q 64.15625 3.421875 67.390625 3.421875 
Q 70.75 3.421875 72.921875 6.25 
Q 75.09375 9.078125 75.09375 16.609375 
Q 75.09375 23.53125 72.890625 26.34375 
Q 70.703125 29.15625 67.4375 29.15625 
z
" id="ArialMT-37"/>
       <path d="M 40.4375 6.390625 
Q 35.546875 2.25 31.03125 0.53125 
Q 26.515625 -1.171875 21.34375 -1.171875 
Q 12.796875 -1.171875 8.203125 3 
Q 3.609375 7.171875 3.609375 13.671875 
Q 3.609375 17.484375 5.34375 20.625 
Q 7.078125 23.78125 9.890625 25.6875 
Q 12.703125 27.59375 16.21875 28.5625 
Q 18.796875 29.25 24.03125 29.890625 
Q 34.671875 31.15625 39.703125 32.90625 
Q 39.75 34.71875 39.75 35.203125 
Q 39.75 40.578125 37.25 42.78125 
Q 33.890625 45.75 27.25 45.75 
Q 21.046875 45.75 18.09375 43.578125 
Q 15.140625 41.40625 13.71875 35.890625 
L 5.125 37.0625 
Q 6.296875 42.578125 8.984375 45.96875 
Q 11.671875 49.359375 16.75 51.1875 
Q 21.828125 53.03125 28.515625 53.03125 
Q 35.15625 53.03125 39.296875 51.46875 
Q 43.453125 49.90625 45.40625 47.53125 
Q 47.359375 45.171875 48.140625 41.546875 
Q 48.578125 39.3125 48.578125 33.453125 
L 48.578125 21.734375 
Q 48.578125 9.46875 49.140625 6.21875 
Q 49.703125 2.984375 51.375 0 
L 42.1875 0 
Q 40.828125 2.734375 40.4375 6.390625 
z
M 39.703125 26.03125 
Q 34.90625 24.078125 25.34375 22.703125 
Q 19.921875 21.921875 17.671875 20.9375 
Q 15.4375 19.96875 14.203125 18.09375 
Q 12.984375 16.21875 12.984375 13.921875 
Q 12.984375 10.40625 15.640625 8.0625 
Q 18.3125 5.71875 23.4375 5.71875 
Q 28.515625 5.71875 32.46875 7.9375 
Q 36.421875 10.15625 38.28125 14.015625 
Q 39.703125 17 39.703125 22.796875 
z
" id="ArialMT-97"/>
       <path d="M 6.5 0 
L 6.5 51.859375 
L 14.40625 51.859375 
L 14.40625 44 
Q 17.4375 49.515625 20 51.265625 
Q 22.5625 53.03125 25.640625 53.03125 
Q 30.078125 53.03125 34.671875 50.203125 
L 31.640625 42.046875 
Q 28.421875 43.953125 25.203125 43.953125 
Q 22.3125 43.953125 20.015625 42.21875 
Q 17.71875 40.484375 16.75 37.40625 
Q 15.28125 32.71875 15.28125 27.15625 
L 15.28125 0 
z
" id="ArialMT-114"/>
       <path d="M 14.703125 0 
L 6.546875 0 
L 6.546875 71.578125 
L 15.328125 71.578125 
L 15.328125 46.046875 
Q 20.90625 53.03125 29.546875 53.03125 
Q 34.328125 53.03125 38.59375 51.09375 
Q 42.875 49.171875 45.625 45.671875 
Q 48.390625 42.1875 49.953125 37.25 
Q 51.515625 32.328125 51.515625 26.703125 
Q 51.515625 13.375 44.921875 6.09375 
Q 38.328125 -1.171875 29.109375 -1.171875 
Q 19.921875 -1.171875 14.703125 6.5 
z
M 14.59375 26.3125 
Q 14.59375 17 17.140625 12.84375 
Q 21.296875 6.0625 28.375 6.0625 
Q 34.125 6.0625 38.328125 11.0625 
Q 42.53125 16.0625 42.53125 25.984375 
Q 42.53125 36.140625 38.5 40.96875 
Q 34.46875 45.796875 28.765625 45.796875 
Q 23 45.796875 18.796875 40.796875 
Q 14.59375 35.796875 14.59375 26.3125 
z
" id="ArialMT-98"/>
       <path d="M 3.328125 25.921875 
Q 3.328125 40.328125 11.328125 47.265625 
Q 18.015625 53.03125 27.640625 53.03125 
Q 38.328125 53.03125 45.109375 46.015625 
Q 51.90625 39.015625 51.90625 26.65625 
Q 51.90625 16.65625 48.90625 10.90625 
Q 45.90625 5.171875 40.15625 2 
Q 34.421875 -1.171875 27.640625 -1.171875 
Q 16.75 -1.171875 10.03125 5.8125 
Q 3.328125 12.796875 3.328125 25.921875 
z
M 12.359375 25.921875 
Q 12.359375 15.96875 16.703125 11.015625 
Q 21.046875 6.0625 27.640625 6.0625 
Q 34.1875 6.0625 38.53125 11.03125 
Q 42.875 16.015625 42.875 26.21875 
Q 42.875 35.84375 38.5 40.796875 
Q 34.125 45.75 27.640625 45.75 
Q 21.046875 45.75 16.703125 40.8125 
Q 12.359375 35.890625 12.359375 25.921875 
z
" id="ArialMT-111"/>
       <path d="M 6.59375 0 
L 6.59375 51.859375 
L 14.5 51.859375 
L 14.5 44.484375 
Q 20.21875 53.03125 31 53.03125 
Q 35.6875 53.03125 39.625 51.34375 
Q 43.5625 49.65625 45.515625 46.921875 
Q 47.46875 44.1875 48.25 40.4375 
Q 48.734375 37.984375 48.734375 31.890625 
L 48.734375 0 
L 39.9375 0 
L 39.9375 31.546875 
Q 39.9375 36.921875 38.90625 39.578125 
Q 37.890625 42.234375 35.28125 43.8125 
Q 32.671875 45.40625 29.15625 45.40625 
Q 23.53125 45.40625 19.453125 41.84375 
Q 15.375 38.28125 15.375 28.328125 
L 15.375 0 
z
" id="ArialMT-110"/>
      </defs>
      <use xlink:href="#ArialMT-37"/>
      <use x="88.916016" xlink:href="#ArialMT-32"/>
      <use x="116.699219" xlink:href="#ArialMT-100"/>
      <use x="172.314453" xlink:href="#ArialMT-97"/>
      <use x="227.929688" xlink:href="#ArialMT-116"/>
      <use x="255.712891" xlink:href="#ArialMT-97"/>
      <use x="311.328125" xlink:href="#ArialMT-32"/>
      <use x="339.111328" xlink:href="#ArialMT-100"/>
      <use x="394.726562" xlink:href="#ArialMT-105"/>
      <use x="416.943359" xlink:href="#ArialMT-115"/>
      <use x="466.943359" xlink:href="#ArialMT-116"/>
      <use x="494.726562" xlink:href="#ArialMT-114"/>
      <use x="528.027344" xlink:href="#ArialMT-105"/>
      <use x="550.244141" xlink:href="#ArialMT-98"/>
      <use x="605.859375" xlink:href="#ArialMT-117"/>
      <use x="661.474609" xlink:href="#ArialMT-116"/>
      <use x="689.257812" xlink:href="#ArialMT-105"/>
      <use x="711.474609" xlink:href="#ArialMT-111"/>
      <use x="767.089844" xlink:href="#ArialMT-110"/>
     </g>
    </g>
   </g>
   <g id="PolyCollection_1">
    <defs>
     <path d="M 62.182557 -43.566725 
L 62.182557 -41.874844 
L 63.712022 -41.874844 
L 65.241488 -41.874844 
L 66.770953 -41.874844 
L 68.300419 -41.874844 
L 69.829884 -41.874844 
L 71.35935 -41.874844 
L 72.888815 -41.874844 
L 74.418281 -41.874844 
L 75.947746 -41.874844 
L 77.477212 -41.874844 
L 79.006677 -41.874844 
L 80.536143 -41.874844 
L 82.065608 -41.874844 
L 83.595074 -41.874844 
L 85.124539 -41.874844 
L 86.654005 -41.874844 
L 88.18347 -41.874844 
L 89.712936 -41.874844 
L 91.242401 -41.874844 
L 92.771867 -41.874844 
L 94.301333 -41.874844 
L 95.830798 -41.874844 
L 97.360264 -41.874844 
L 98.889729 -41.874844 
L 100.419195 -41.874844 
L 101.94866 -41.874844 
L 103.478126 -41.874844 
L 105.007591 -41.874844 
L 106.537057 -41.874844 
L 108.066522 -41.874844 
L 109.595988 -41.874844 
L 111.125453 -41.874844 
L 112.654919 -41.874844 
L 114.184384 -41.874844 
L 115.71385 -41.874844 
L 117.243315 -41.874844 
L 118.772781 -41.874844 
L 120.302246 -41.874844 
L 121.831712 -41.874844 
L 123.361177 -41.874844 
L 124.890643 -41.874844 
L 126.420108 -41.874844 
L 127.949574 -41.874844 
L 129.479039 -41.874844 
L 131.008505 -41.874844 
L 132.53797 -41.874844 
L 134.067436 -41.874844 
L 135.596901 -41.874844 
L 137.126367 -41.874844 
L 138.655832 -41.874844 
L 140.185298 -41.874844 
L 141.714763 -41.874844 
L 143.244229 -41.874844 
L 144.773694 -41.874844 
L 146.30316 -41.874844 
L 147.832625 -41.874844 
L 149.362091 -41.874844 
L 150.891556 -41.874844 
L 152.421022 -41.874844 
L 153.950487 -41.874844 
L 155.479953 -41.874844 
L 157.009418 -41.874844 
L 158.538884 -41.874844 
L 160.068349 -41.874844 
L 161.597815 -41.874844 
L 163.12728 -41.874844 
L 164.656746 -41.874844 
L 166.186211 -41.874844 
L 167.715677 -41.874844 
L 169.245142 -41.874844 
L 170.774608 -41.874844 
L 172.304073 -41.874844 
L 173.833539 -41.874844 
L 175.363005 -41.874844 
L 176.89247 -41.874844 
L 178.421936 -41.874844 
L 179.951401 -41.874844 
L 181.480867 -41.874844 
L 183.010332 -41.874844 
L 184.539798 -41.874844 
L 186.069263 -41.874844 
L 187.598729 -41.874844 
L 189.128194 -41.874844 
L 190.65766 -41.874844 
L 192.187125 -41.874844 
L 193.716591 -41.874844 
L 195.246056 -41.874844 
L 196.775522 -41.874844 
L 198.304987 -41.874844 
L 199.834453 -41.874844 
L 201.363918 -41.874844 
L 202.893384 -41.874844 
L 204.422849 -41.874844 
L 205.952315 -41.874844 
L 207.48178 -41.874844 
L 209.011246 -41.874844 
L 210.540711 -41.874844 
L 212.070177 -41.874844 
L 213.599642 -41.874844 
L 215.129108 -41.874844 
L 216.658573 -41.874844 
L 218.188039 -41.874844 
L 219.717504 -41.874844 
L 221.24697 -41.874844 
L 222.776435 -41.874844 
L 224.305901 -41.874844 
L 225.835366 -41.874844 
L 227.364832 -41.874844 
L 228.894297 -41.874844 
L 230.423763 -41.874844 
L 231.953228 -41.874844 
L 233.482694 -41.874844 
L 235.012159 -41.874844 
L 236.541625 -41.874844 
L 238.07109 -41.874844 
L 239.600556 -41.874844 
L 241.130021 -41.874844 
L 242.659487 -41.874844 
L 244.188952 -41.874844 
L 245.718418 -41.874844 
L 247.247883 -41.874844 
L 248.777349 -41.874844 
L 250.306814 -41.874844 
L 251.83628 -41.874844 
L 253.365745 -41.874844 
L 254.895211 -41.874844 
L 256.424677 -41.874844 
L 257.954142 -41.874844 
L 259.483608 -41.874844 
L 261.013073 -41.874844 
L 262.542539 -41.874844 
L 264.072004 -41.874844 
L 265.60147 -41.874844 
L 267.130935 -41.874844 
L 268.660401 -41.874844 
L 270.189866 -41.874844 
L 271.719332 -41.874844 
L 273.248797 -41.874844 
L 274.778263 -41.874844 
L 276.307728 -41.874844 
L 277.837194 -41.874844 
L 279.366659 -41.874844 
L 280.896125 -41.874844 
L 282.42559 -41.874844 
L 283.955056 -41.874844 
L 285.484521 -41.874844 
L 287.013987 -41.874844 
L 288.543452 -41.874844 
L 290.072918 -41.874844 
L 291.602383 -41.874844 
L 293.131849 -41.874844 
L 294.661314 -41.874844 
L 296.19078 -41.874844 
L 297.720245 -41.874844 
L 299.249711 -41.874844 
L 300.779176 -41.874844 
L 302.308642 -41.874844 
L 303.838107 -41.874844 
L 305.367573 -41.874844 
L 306.897038 -41.874844 
L 308.426504 -41.874844 
L 309.955969 -41.874844 
L 311.485435 -41.874844 
L 313.0149 -41.874844 
L 314.544366 -41.874844 
L 316.073831 -41.874844 
L 317.603297 -41.874844 
L 319.132762 -41.874844 
L 320.662228 -41.874844 
L 322.191693 -41.874844 
L 323.721159 -41.874844 
L 325.250624 -41.874844 
L 326.78009 -41.874844 
L 328.309555 -41.874844 
L 329.839021 -41.874844 
L 331.368486 -41.874844 
L 332.897952 -41.874844 
L 334.427417 -41.874844 
L 335.956883 -41.874844 
L 337.486349 -41.874844 
L 339.015814 -41.874844 
L 340.54528 -41.874844 
L 342.074745 -41.874844 
L 343.604211 -41.874844 
L 345.133676 -41.874844 
L 346.663142 -41.874844 
L 348.192607 -41.874844 
L 349.722073 -41.874844 
L 351.251538 -41.874844 
L 352.781004 -41.874844 
L 354.310469 -41.874844 
L 355.839935 -41.874844 
L 357.3694 -41.874844 
L 358.898866 -41.874844 
L 360.428331 -41.874844 
L 361.957797 -41.874844 
L 363.487262 -41.874844 
L 365.016728 -41.874844 
L 366.546193 -41.874844 
L 366.546193 -42.091752 
L 366.546193 -42.091752 
L 365.016728 -42.152302 
L 363.487262 -42.227305 
L 361.957797 -42.319494 
L 360.428331 -42.431923 
L 358.898866 -42.567963 
L 357.3694 -42.731273 
L 355.839935 -42.925758 
L 354.310469 -43.155507 
L 352.781004 -43.424714 
L 351.251538 -43.737565 
L 349.722073 -44.098117 
L 348.192607 -44.510143 
L 346.663142 -44.976971 
L 345.133676 -45.501293 
L 343.604211 -46.084979 
L 342.074745 -46.728879 
L 340.54528 -47.432637 
L 339.015814 -48.194516 
L 337.486349 -49.01125 
L 335.956883 -49.87793 
L 334.427417 -50.787943 
L 332.897952 -51.732951 
L 331.368486 -52.702945 
L 329.839021 -53.686362 
L 328.309555 -54.670264 
L 326.78009 -55.640593 
L 325.250624 -56.582487 
L 323.721159 -57.480646 
L 322.191693 -58.319755 
L 320.662228 -59.08492 
L 319.132762 -59.762133 
L 317.603297 -60.33872 
L 316.073831 -60.803777 
L 314.544366 -61.148557 
L 313.0149 -61.366803 
L 311.485435 -61.455005 
L 309.955969 -61.41258 
L 308.426504 -61.241957 
L 306.897038 -60.948568 
L 305.367573 -60.540749 
L 303.838107 -60.029555 
L 302.308642 -59.428494 
L 300.779176 -58.753195 
L 299.249711 -58.021027 
L 297.720245 -57.250681 
L 296.19078 -56.461728 
L 294.661314 -55.674176 
L 293.131849 -54.908027 
L 291.602383 -54.182859 
L 290.072918 -53.517433 
L 288.543452 -52.929324 
L 287.013987 -52.434605 
L 285.484521 -52.047548 
L 283.955056 -51.780377 
L 282.42559 -51.643045 
L 280.896125 -51.643048 
L 279.366659 -51.785269 
L 277.837194 -52.071848 
L 276.307728 -52.502092 
L 274.778263 -53.072413 
L 273.248797 -53.776298 
L 271.719332 -54.604341 
L 270.189866 -55.544309 
L 268.660401 -56.581278 
L 267.130935 -57.697832 
L 265.60147 -58.874335 
L 264.072004 -60.08928 
L 262.542539 -61.319714 
L 261.013073 -62.541741 
L 259.483608 -63.731082 
L 257.954142 -64.863707 
L 256.424677 -65.916494 
L 254.895211 -66.867918 
L 253.365745 -67.698749 
L 251.83628 -68.392715 
L 250.306814 -68.937144 
L 248.777349 -69.323524 
L 247.247883 -69.548003 
L 245.718418 -69.611771 
L 244.188952 -69.521354 
L 242.659487 -69.288774 
L 241.130021 -68.931605 
L 239.600556 -68.472904 
L 238.07109 -67.941027 
L 236.541625 -67.369341 
L 235.012159 -66.795835 
L 233.482694 -66.262641 
L 231.953228 -65.815464 
L 230.423763 -65.502935 
L 228.894297 -65.375883 
L 227.364832 -65.486524 
L 225.835366 -65.887569 
L 224.305901 -66.631237 
L 222.776435 -67.768186 
L 221.24697 -69.346331 
L 219.717504 -71.40959 
L 218.188039 -73.996526 
L 216.658573 -77.13893 
L 215.129108 -80.860369 
L 213.599642 -85.174718 
L 212.070177 -90.084749 
L 210.540711 -95.580832 
L 209.011246 -101.639796 
L 207.48178 -108.224063 
L 205.952315 -115.281086 
L 204.422849 -122.743204 
L 202.893384 -130.52795 
L 201.363918 -138.538875 
L 199.834453 -146.666911 
L 198.304987 -154.792296 
L 196.775522 -162.787016 
L 195.246056 -170.517737 
L 193.716591 -177.849148 
L 192.187125 -184.647597 
L 190.65766 -190.784908 
L 189.128194 -196.142237 
L 187.598729 -200.6138 
L 186.069263 -204.11033 
L 184.539798 -206.562115 
L 183.010332 -207.921473 
L 181.480867 -208.164571 
L 179.951401 -207.292491 
L 178.421936 -205.331511 
L 176.89247 -202.332586 
L 175.363005 -198.370057 
L 173.833539 -193.539652 
L 172.304073 -187.955873 
L 170.774608 -181.74888 
L 169.245142 -175.061016 
L 167.715677 -168.043102 
L 166.186211 -160.850647 
L 164.656746 -153.640111 
L 163.12728 -146.565319 
L 161.597815 -139.774147 
L 160.068349 -133.405531 
L 158.538884 -127.586855 
L 157.009418 -122.431741 
L 155.479953 -118.038238 
L 153.950487 -114.487405 
L 152.421022 -111.842247 
L 150.891556 -110.146977 
L 149.362091 -109.426573 
L 147.832625 -109.686599 
L 146.30316 -110.913257 
L 144.773694 -113.073681 
L 143.244229 -116.116458 
L 141.714763 -119.972393 
L 140.185298 -124.555537 
L 138.655832 -129.76451 
L 137.126367 -135.484134 
L 135.596901 -141.587398 
L 134.067436 -147.937767 
L 132.53797 -154.391817 
L 131.008505 -160.80218 
L 129.479039 -167.020733 
L 127.949574 -172.901979 
L 126.420108 -178.306507 
L 124.890643 -183.104435 
L 123.361177 -187.178713 
L 121.831712 -190.428154 
L 120.302246 -192.770067 
L 118.772781 -194.142389 
L 117.243315 -194.505207 
L 115.71385 -193.841598 
L 114.184384 -192.157755 
L 112.654919 -189.482368 
L 111.125453 -185.865302 
L 109.595988 -181.375619 
L 108.066522 -176.099026 
L 106.537057 -170.134875 
L 105.007591 -163.592827 
L 103.478126 -156.589341 
L 101.94866 -149.244118 
L 100.419195 -141.676646 
L 98.889729 -134.002983 
L 97.360264 -126.332869 
L 95.830798 -118.767284 
L 94.301333 -111.396481 
L 92.771867 -104.298561 
L 91.242401 -97.538572 
L 89.712936 -91.168131 
L 88.18347 -85.22553 
L 86.654005 -79.73625 
L 85.124539 -74.713851 
L 83.595074 -70.161118 
L 82.065608 -66.071417 
L 80.536143 -62.430169 
L 79.006677 -59.216365 
L 77.477212 -56.404066 
L 75.947746 -53.963828 
L 74.418281 -51.864018 
L 72.888815 -50.071971 
L 71.35935 -48.554991 
L 69.829884 -47.281175 
L 68.300419 -46.220062 
L 66.770953 -45.343113 
L 65.241488 -44.624043 
L 63.712022 -44.039017 
L 62.182557 -43.566725 
z
" id="mc455ccbe14" style="stroke:#4c72b0;"/>
    </defs>
    <g clip-path="url(#p768570aa41)">
     <use style="fill:#4c72b0;fill-opacity:0.25;stroke:#4c72b0;" x="0" xlink:href="#mc455ccbe14" y="266.514844"/>
    </g>
   </g>
   <g id="PolyCollection_2">
    <defs>
     <path d="M 64.462611 -42.42408 
L 64.462611 -41.874844 
L 65.969161 -41.874844 
L 67.475711 -41.874844 
L 68.982262 -41.874844 
L 70.488812 -41.874844 
L 71.995363 -41.874844 
L 73.501913 -41.874844 
L 75.008463 -41.874844 
L 76.515014 -41.874844 
L 78.021564 -41.874844 
L 79.528115 -41.874844 
L 81.034665 -41.874844 
L 82.541215 -41.874844 
L 84.047766 -41.874844 
L 85.554316 -41.874844 
L 87.060867 -41.874844 
L 88.567417 -41.874844 
L 90.073967 -41.874844 
L 91.580518 -41.874844 
L 93.087068 -41.874844 
L 94.593619 -41.874844 
L 96.100169 -41.874844 
L 97.606719 -41.874844 
L 99.11327 -41.874844 
L 100.61982 -41.874844 
L 102.126371 -41.874844 
L 103.632921 -41.874844 
L 105.139471 -41.874844 
L 106.646022 -41.874844 
L 108.152572 -41.874844 
L 109.659122 -41.874844 
L 111.165673 -41.874844 
L 112.672223 -41.874844 
L 114.178774 -41.874844 
L 115.685324 -41.874844 
L 117.191874 -41.874844 
L 118.698425 -41.874844 
L 120.204975 -41.874844 
L 121.711526 -41.874844 
L 123.218076 -41.874844 
L 124.724626 -41.874844 
L 126.231177 -41.874844 
L 127.737727 -41.874844 
L 129.244278 -41.874844 
L 130.750828 -41.874844 
L 132.257378 -41.874844 
L 133.763929 -41.874844 
L 135.270479 -41.874844 
L 136.77703 -41.874844 
L 138.28358 -41.874844 
L 139.79013 -41.874844 
L 141.296681 -41.874844 
L 142.803231 -41.874844 
L 144.309782 -41.874844 
L 145.816332 -41.874844 
L 147.322882 -41.874844 
L 148.829433 -41.874844 
L 150.335983 -41.874844 
L 151.842534 -41.874844 
L 153.349084 -41.874844 
L 154.855634 -41.874844 
L 156.362185 -41.874844 
L 157.868735 -41.874844 
L 159.375286 -41.874844 
L 160.881836 -41.874844 
L 162.388386 -41.874844 
L 163.894937 -41.874844 
L 165.401487 -41.874844 
L 166.908038 -41.874844 
L 168.414588 -41.874844 
L 169.921138 -41.874844 
L 171.427689 -41.874844 
L 172.934239 -41.874844 
L 174.44079 -41.874844 
L 175.94734 -41.874844 
L 177.45389 -41.874844 
L 178.960441 -41.874844 
L 180.466991 -41.874844 
L 181.973541 -41.874844 
L 183.480092 -41.874844 
L 184.986642 -41.874844 
L 186.493193 -41.874844 
L 187.999743 -41.874844 
L 189.506293 -41.874844 
L 191.012844 -41.874844 
L 192.519394 -41.874844 
L 194.025945 -41.874844 
L 195.532495 -41.874844 
L 197.039045 -41.874844 
L 198.545596 -41.874844 
L 200.052146 -41.874844 
L 201.558697 -41.874844 
L 203.065247 -41.874844 
L 204.571797 -41.874844 
L 206.078348 -41.874844 
L 207.584898 -41.874844 
L 209.091449 -41.874844 
L 210.597999 -41.874844 
L 212.104549 -41.874844 
L 213.6111 -41.874844 
L 215.11765 -41.874844 
L 216.624201 -41.874844 
L 218.130751 -41.874844 
L 219.637301 -41.874844 
L 221.143852 -41.874844 
L 222.650402 -41.874844 
L 224.156953 -41.874844 
L 225.663503 -41.874844 
L 227.170053 -41.874844 
L 228.676604 -41.874844 
L 230.183154 -41.874844 
L 231.689705 -41.874844 
L 233.196255 -41.874844 
L 234.702805 -41.874844 
L 236.209356 -41.874844 
L 237.715906 -41.874844 
L 239.222457 -41.874844 
L 240.729007 -41.874844 
L 242.235557 -41.874844 
L 243.742108 -41.874844 
L 245.248658 -41.874844 
L 246.755209 -41.874844 
L 248.261759 -41.874844 
L 249.768309 -41.874844 
L 251.27486 -41.874844 
L 252.78141 -41.874844 
L 254.28796 -41.874844 
L 255.794511 -41.874844 
L 257.301061 -41.874844 
L 258.807612 -41.874844 
L 260.314162 -41.874844 
L 261.820712 -41.874844 
L 263.327263 -41.874844 
L 264.833813 -41.874844 
L 266.340364 -41.874844 
L 267.846914 -41.874844 
L 269.353464 -41.874844 
L 270.860015 -41.874844 
L 272.366565 -41.874844 
L 273.873116 -41.874844 
L 275.379666 -41.874844 
L 276.886216 -41.874844 
L 278.392767 -41.874844 
L 279.899317 -41.874844 
L 281.405868 -41.874844 
L 282.912418 -41.874844 
L 284.418968 -41.874844 
L 285.925519 -41.874844 
L 287.432069 -41.874844 
L 288.93862 -41.874844 
L 290.44517 -41.874844 
L 291.95172 -41.874844 
L 293.458271 -41.874844 
L 294.964821 -41.874844 
L 296.471372 -41.874844 
L 297.977922 -41.874844 
L 299.484472 -41.874844 
L 300.991023 -41.874844 
L 302.497573 -41.874844 
L 304.004124 -41.874844 
L 305.510674 -41.874844 
L 307.017224 -41.874844 
L 308.523775 -41.874844 
L 310.030325 -41.874844 
L 311.536876 -41.874844 
L 313.043426 -41.874844 
L 314.549976 -41.874844 
L 316.056527 -41.874844 
L 317.563077 -41.874844 
L 319.069628 -41.874844 
L 320.576178 -41.874844 
L 322.082728 -41.874844 
L 323.589279 -41.874844 
L 325.095829 -41.874844 
L 326.602379 -41.874844 
L 328.10893 -41.874844 
L 329.61548 -41.874844 
L 331.122031 -41.874844 
L 332.628581 -41.874844 
L 334.135131 -41.874844 
L 335.641682 -41.874844 
L 337.148232 -41.874844 
L 338.654783 -41.874844 
L 340.161333 -41.874844 
L 341.667883 -41.874844 
L 343.174434 -41.874844 
L 344.680984 -41.874844 
L 346.187535 -41.874844 
L 347.694085 -41.874844 
L 349.200635 -41.874844 
L 350.707186 -41.874844 
L 352.213736 -41.874844 
L 353.720287 -41.874844 
L 355.226837 -41.874844 
L 356.733387 -41.874844 
L 358.239938 -41.874844 
L 359.746488 -41.874844 
L 361.253039 -41.874844 
L 362.759589 -41.874844 
L 364.266139 -41.874844 
L 364.266139 -42.220659 
L 364.266139 -42.220659 
L 362.759589 -42.320156 
L 361.253039 -42.444103 
L 359.746488 -42.597247 
L 358.239938 -42.784912 
L 356.733387 -43.012977 
L 355.226837 -43.287825 
L 353.720287 -43.616267 
L 352.213736 -44.005418 
L 350.707186 -44.462543 
L 349.200635 -44.994849 
L 347.694085 -45.609249 
L 346.187535 -46.312076 
L 344.680984 -47.108769 
L 343.174434 -48.003532 
L 341.667883 -48.998981 
L 340.161333 -50.09579 
L 338.654783 -51.292357 
L 337.148232 -52.584505 
L 335.641682 -53.965238 
L 334.135131 -55.424574 
L 332.628581 -56.949476 
L 331.122031 -58.523882 
L 329.61548 -60.128867 
L 328.10893 -61.742929 
L 326.602379 -63.342402 
L 325.095829 -64.901996 
L 323.589279 -66.395448 
L 322.082728 -67.796257 
L 320.576178 -69.078496 
L 319.069628 -70.217652 
L 317.563077 -71.191469 
L 316.056527 -71.980764 
L 314.549976 -72.570169 
L 313.043426 -72.948776 
L 311.536876 -73.110663 
L 310.030325 -73.055261 
L 308.523775 -72.787568 
L 307.017224 -72.318194 
L 305.510674 -71.663241 
L 304.004124 -70.844032 
L 302.497573 -69.886698 
L 300.991023 -68.821656 
L 299.484472 -67.682992 
L 297.977922 -66.507786 
L 296.471372 -65.335393 
L 294.964821 -64.20671 
L 293.458271 -63.163451 
L 291.95172 -62.247421 
L 290.44517 -61.499828 
L 288.93862 -60.960596 
L 287.432069 -60.667703 
L 285.925519 -60.656525 
L 284.418968 -60.959168 
L 282.912418 -61.603795 
L 281.405868 -62.613923 
L 279.899317 -64.007709 
L 278.392767 -65.797215 
L 276.886216 -67.987675 
L 275.379666 -70.576794 
L 273.873116 -73.554096 
L 272.366565 -76.90038 
L 270.860015 -80.587327 
L 269.353464 -84.577292 
L 267.846914 -88.823357 
L 266.340364 -93.269661 
L 264.833813 -97.852062 
L 263.327263 -102.499132 
L 261.820712 -107.133511 
L 260.314162 -111.673584 
L 258.807612 -116.03546 
L 257.301061 -120.135195 
L 255.794511 -123.891181 
L 254.28796 -127.226623 
L 252.78141 -130.072001 
L 251.27486 -132.367412 
L 249.768309 -134.064701 
L 248.261759 -135.129277 
L 246.755209 -135.541539 
L 245.248658 -135.297852 
L 243.742108 -134.411027 
L 242.235557 -132.9103 
L 240.729007 -130.840811 
L 239.222457 -128.262621 
L 237.715906 -125.249323 
L 236.209356 -121.886314 
L 234.702805 -118.268813 
L 233.196255 -114.49971 
L 231.689705 -110.687324 
L 230.183154 -106.943156 
L 228.676604 -103.379692 
L 227.170053 -100.108302 
L 225.663503 -97.237269 
L 224.156953 -94.869958 
L 222.650402 -93.103106 
L 221.143852 -92.025231 
L 219.637301 -91.715127 
L 218.130751 -92.240401 
L 216.624201 -93.656057 
L 215.11765 -96.00308 
L 213.6111 -99.307046 
L 212.104549 -103.576757 
L 210.597999 -108.802958 
L 209.091449 -114.957194 
L 207.584898 -121.990877 
L 206.078348 -129.834673 
L 204.571797 -138.398308 
L 203.065247 -147.570878 
L 201.558697 -157.221786 
L 200.052146 -167.202342 
L 198.545596 -177.348099 
L 197.039045 -187.481913 
L 195.532495 -197.4177 
L 194.025945 -206.964807 
L 192.519394 -215.932884 
L 191.012844 -224.137079 
L 189.506293 -231.403369 
L 187.999743 -237.57381 
L 186.493193 -242.511473 
L 184.986642 -246.104836 
L 183.480092 -248.271431 
L 181.973541 -248.960558 
L 180.466991 -248.154941 
L 178.960441 -245.871227 
L 177.45389 -242.15931 
L 175.94734 -237.100514 
L 174.44079 -230.804709 
L 172.934239 -223.406524 
L 171.427689 -215.060817 
L 169.921138 -205.937629 
L 168.414588 -196.21685 
L 166.908038 -186.082829 
L 165.401487 -175.719156 
L 163.894937 -165.30381 
L 162.388386 -155.004845 
L 160.881836 -144.976744 
L 159.375286 -135.357515 
L 157.868735 -126.266574 
L 156.362185 -117.803414 
L 154.855634 -110.047003 
L 153.349084 -103.055846 
L 151.842534 -96.868622 
L 150.335983 -91.505264 
L 148.829433 -86.968388 
L 147.322882 -83.244953 
L 145.816332 -80.308045 
L 144.309782 -78.118706 
L 142.803231 -76.627743 
L 141.296681 -75.777466 
L 139.79013 -75.503332 
L 138.28358 -75.73548 
L 136.77703 -76.400172 
L 135.270479 -77.421142 
L 133.763929 -78.720877 
L 132.257378 -80.221857 
L 130.750828 -81.847752 
L 129.244278 -83.524609 
L 127.737727 -85.182003 
L 126.231177 -86.754169 
L 124.724626 -88.181073 
L 123.218076 -89.409416 
L 121.711526 -90.393514 
L 120.204975 -91.096042 
L 118.698425 -91.488593 
L 117.191874 -91.552021 
L 115.685324 -91.276548 
L 114.178774 -90.661617 
L 112.672223 -89.715488 
L 111.165673 -88.454589 
L 109.659122 -86.90264 
L 108.152572 -85.089585 
L 106.646022 -83.050371 
L 105.139471 -80.823634 
L 103.632921 -78.450331 
L 102.126371 -75.972387 
L 100.61982 -73.431397 
L 99.11327 -70.86744 
L 97.606719 -68.318042 
L 96.100169 -65.817309 
L 94.593619 -63.395268 
L 93.087068 -61.077406 
L 91.580518 -58.884417 
L 90.073967 -56.832143 
L 88.567417 -54.931686 
L 87.060867 -53.189679 
L 85.554316 -51.608661 
L 84.047766 -50.18756 
L 82.541215 -48.922219 
L 81.034665 -47.805962 
L 79.528115 -46.830148 
L 78.021564 -45.98472 
L 76.515014 -45.258698 
L 75.008463 -44.640634 
L 73.501913 -44.118991 
L 71.995363 -43.682467 
L 70.488812 -43.320247 
L 68.982262 -43.022191 
L 67.475711 -42.778961 
L 65.969161 -42.582105 
L 64.462611 -42.42408 
z
" id="m6103048ee9" style="stroke:#dd8452;"/>
    </defs>
    <g clip-path="url(#p768570aa41)">
     <use style="fill:#dd8452;fill-opacity:0.25;stroke:#dd8452;" x="0" xlink:href="#m6103048ee9" y="266.514844"/>
    </g>
   </g>
   <g id="patch_3">
    <path d="M 46.964375 224.64 
L 46.964375 7.2 
" style="fill:none;stroke:#cccccc;stroke-linecap:square;stroke-linejoin:miter;stroke-width:1.25;"/>
   </g>
   <g id="patch_4">
    <path d="M 381.764375 224.64 
L 381.764375 7.2 
" style="fill:none;stroke:#cccccc;stroke-linecap:square;stroke-linejoin:miter;stroke-width:1.25;"/>
   </g>
   <g id="patch_5">
    <path d="M 46.964375 224.64 
L 381.764375 224.64 
" style="fill:none;stroke:#cccccc;stroke-linecap:square;stroke-linejoin:miter;stroke-width:1.25;"/>
   </g>
   <g id="patch_6">
    <path d="M 46.964375 7.2 
L 381.764375 7.2 
" style="fill:none;stroke:#cccccc;stroke-linecap:square;stroke-linejoin:miter;stroke-width:1.25;"/>
   </g>
  </g>
 </g>
 <defs>
  <clipPath id="p768570aa41">
   <rect height="217.44" width="334.8" x="46.964375" y="7.2"/>
  </clipPath>
 </defs>
</svg>
