<?xml version="1.0" encoding="utf-8" standalone="no"?>
<!DOCTYPE svg PUBLIC "-//W3C//DTD SVG 1.1//EN"
  "http://www.w3.org/Graphics/SVG/1.1/DTD/svg11.dtd">
<!-- Created with matplotlib (https://matplotlib.org/) -->
<svg height="251.669687pt" version="1.1" viewBox="0 0 372.556562 251.669687" width="372.556562pt" xmlns="http://www.w3.org/2000/svg" xmlns:xlink="http://www.w3.org/1999/xlink">
 <metadata>
  <rdf:RDF xmlns:cc="http://creativecommons.org/ns#" xmlns:dc="http://purl.org/dc/elements/1.1/" xmlns:rdf="http://www.w3.org/1999/02/22-rdf-syntax-ns#">
   <cc:Work>
    <dc:type rdf:resource="http://purl.org/dc/dcmitype/StillImage"/>
    <dc:date>2021-03-05T22:25:05.346464</dc:date>
    <dc:format>image/svg+xml</dc:format>
    <dc:creator>
     <cc:Agent>
      <dc:title>Matplotlib v3.3.4, https://matplotlib.org/</dc:title>
     </cc:Agent>
    </dc:creator>
   </cc:Work>
  </rdf:RDF>
 </metadata>
 <defs>
  <style type="text/css">*{stroke-linecap:butt;stroke-linejoin:round;}</style>
 </defs>
 <g id="figure_1">
  <g id="patch_1">
   <path d="M 0 251.669687 
L 372.556562 251.669687 
L 372.556562 0 
L 0 0 
z
" style="fill:#ffffff;"/>
  </g>
  <g id="axes_1">
   <g id="patch_2">
    <path d="M 30.556563 224.64 
L 365.356562 224.64 
L 365.356562 7.2 
L 30.556563 7.2 
z
" style="fill:#eaeaf2;"/>
   </g>
   <g id="matplotlib.axis_1">
    <g id="xtick_1">
     <g id="line2d_1">
      <path clip-path="url(#p3d287c8c3d)" d="M 79.592926 224.64 
L 79.592926 7.2 
" style="fill:none;stroke:#ffffff;stroke-linecap:round;"/>
     </g>
     <g id="text_1">
      <!-- 10 -->
      <g style="fill:#262626;" transform="translate(72.664645 242.379687)scale(0.11 -0.11)">
       <defs>
        <path d="M 38.484375 0.984375 
L 29.6875 0.984375 
L 29.6875 64.109375 
Q 21.4375 61.28125 12.3125 59.328125 
L 10.6875 66.109375 
Q 23.734375 69.390625 32.90625 73.921875 
L 38.484375 73.921875 
z
" id="IPAexGothic-49"/>
        <path d="M 31.84375 73.828125 
Q 45.015625 73.828125 52.09375 61.625 
Q 57.71875 51.953125 57.71875 36.625 
Q 57.71875 21.4375 52.09375 11.578125 
Q 45.125 -0.484375 31.5 -0.484375 
Q 17.921875 -0.484375 10.9375 11.578125 
Q 5.328125 21.4375 5.328125 36.71875 
Q 5.328125 58.015625 15.625 67.71875 
Q 22.171875 73.828125 31.84375 73.828125 
z
M 31.5 66.65625 
Q 23.6875 66.65625 19.1875 58.734375 
Q 14.59375 50.734375 14.59375 36.625 
Q 14.59375 22.75 19.09375 14.796875 
Q 23.640625 6.984375 31.5 6.984375 
Q 40.921875 6.984375 45.453125 18.015625 
Q 48.4375 25.34375 48.4375 37.109375 
Q 48.4375 50.875 43.84375 58.734375 
Q 39.203125 66.65625 31.5 66.65625 
z
" id="IPAexGothic-48"/>
       </defs>
       <use xlink:href="#IPAexGothic-49"/>
       <use x="62.988281" xlink:href="#IPAexGothic-48"/>
      </g>
     </g>
    </g>
    <g id="xtick_2">
     <g id="line2d_2">
      <path clip-path="url(#p3d287c8c3d)" d="M 147.22929 224.64 
L 147.22929 7.2 
" style="fill:none;stroke:#ffffff;stroke-linecap:round;"/>
     </g>
     <g id="text_2">
      <!-- 20 -->
      <g style="fill:#262626;" transform="translate(140.301009 242.379687)scale(0.11 -0.11)">
       <defs>
        <path d="M 57.171875 0.984375 
L 6.984375 0.984375 
L 6.984375 9.28125 
Q 12.890625 23.046875 29.59375 34.421875 
L 32.375 36.28125 
Q 40.921875 42.140625 43.609375 45.40625 
Q 46.6875 49.265625 46.6875 53.8125 
Q 46.6875 58.9375 43.0625 62.546875 
Q 39.0625 66.546875 32.5625 66.546875 
Q 19.53125 66.546875 15.484375 52 
L 7.765625 54.78125 
Q 13.328125 73.828125 33.0625 73.828125 
Q 43.84375 73.828125 50.25 67.4375 
Q 55.859375 61.671875 55.859375 53.515625 
Q 55.859375 47.46875 52.25 42.53125 
Q 48.921875 37.75 36.96875 30.28125 
L 34.859375 29 
Q 19.625 19.578125 15.28125 8.890625 
L 57.171875 8.890625 
z
" id="IPAexGothic-50"/>
       </defs>
       <use xlink:href="#IPAexGothic-50"/>
       <use x="62.988281" xlink:href="#IPAexGothic-48"/>
      </g>
     </g>
    </g>
    <g id="xtick_3">
     <g id="line2d_3">
      <path clip-path="url(#p3d287c8c3d)" d="M 214.865653 224.64 
L 214.865653 7.2 
" style="fill:none;stroke:#ffffff;stroke-linecap:round;"/>
     </g>
     <g id="text_3">
      <!-- 30 -->
      <g style="fill:#262626;" transform="translate(207.937372 242.379687)scale(0.11 -0.11)">
       <defs>
        <path d="M 37.203125 37.796875 
Q 54.78125 34.625 54.78125 19.96875 
Q 54.78125 11.1875 48.875 5.5625 
Q 42.328125 -0.484375 30.375 -0.484375 
Q 12.453125 -0.484375 4.5 13.765625 
L 11.8125 17.671875 
Q 17.328125 6.890625 30.28125 6.890625 
Q 37.890625 6.890625 42.09375 10.796875 
Q 46.09375 14.5 46.09375 20.171875 
Q 46.09375 26.859375 40.09375 30.90625 
Q 34.625 34.578125 25.6875 34.578125 
L 21.296875 34.578125 
L 21.296875 41.703125 
L 25.875 41.703125 
Q 34.859375 41.703125 39.59375 45.125 
Q 44.671875 48.734375 44.671875 54.828125 
Q 44.671875 61.46875 38.96875 64.65625 
Q 35.296875 66.84375 30.171875 66.84375 
Q 19.34375 66.84375 14.109375 55.90625 
L 6.78125 59.421875 
Q 14.015625 73.828125 30.28125 73.828125 
Q 40.578125 73.828125 46.96875 68.65625 
Q 53.375 63.578125 53.375 55.21875 
Q 53.375 47.3125 47.171875 42.28125 
Q 43.171875 39.0625 37.203125 38.1875 
z
" id="IPAexGothic-51"/>
       </defs>
       <use xlink:href="#IPAexGothic-51"/>
       <use x="62.988281" xlink:href="#IPAexGothic-48"/>
      </g>
     </g>
    </g>
    <g id="xtick_4">
     <g id="line2d_4">
      <path clip-path="url(#p3d287c8c3d)" d="M 282.502017 224.64 
L 282.502017 7.2 
" style="fill:none;stroke:#ffffff;stroke-linecap:round;"/>
     </g>
     <g id="text_4">
      <!-- 40 -->
      <g style="fill:#262626;" transform="translate(275.573736 242.379687)scale(0.11 -0.11)">
       <defs>
        <path d="M 59.578125 18.109375 
L 47.796875 18.109375 
L 47.796875 0.984375 
L 39.796875 0.984375 
L 39.796875 18.109375 
L 3.078125 18.109375 
L 3.078125 26.125 
L 38.375 73.09375 
L 47.796875 73.09375 
L 47.796875 25.53125 
L 59.578125 25.53125 
z
M 40.28125 64.203125 
L 39.984375 64.203125 
Q 35.59375 57.125 31.296875 51.3125 
L 11.859375 25.53125 
L 39.796875 25.53125 
L 39.796875 49.125 
Q 39.796875 54.390625 40.28125 64.203125 
z
" id="IPAexGothic-52"/>
       </defs>
       <use xlink:href="#IPAexGothic-52"/>
       <use x="62.988281" xlink:href="#IPAexGothic-48"/>
      </g>
     </g>
    </g>
    <g id="xtick_5">
     <g id="line2d_5">
      <path clip-path="url(#p3d287c8c3d)" d="M 350.138381 224.64 
L 350.138381 7.2 
" style="fill:none;stroke:#ffffff;stroke-linecap:round;"/>
     </g>
     <g id="text_5">
      <!-- 50 -->
      <g style="fill:#262626;" transform="translate(343.210099 242.379687)scale(0.11 -0.11)">
       <defs>
        <path d="M 18.40625 40.671875 
Q 25.53125 46.296875 33.9375 46.296875 
Q 44 46.296875 50.640625 39.5 
Q 56.84375 33.015625 56.84375 23.390625 
Q 56.84375 14.65625 51.515625 8.015625 
Q 44.828125 -0.484375 31.734375 -0.484375 
Q 14.984375 -0.484375 7.328125 12.25 
L 14.65625 16.0625 
Q 20.453125 6.78125 31.453125 6.78125 
Q 38.53125 6.78125 43.265625 11.1875 
Q 48.140625 15.828125 48.140625 23.484375 
Q 48.140625 30.71875 43.84375 35.015625 
Q 39.359375 39.5 32.125 39.5 
Q 21.96875 39.5 16.75 31.6875 
L 9.234375 32.671875 
L 13.8125 72.40625 
L 53.21875 72.40625 
L 53.21875 64.890625 
L 20.953125 64.890625 
L 17.71875 40.671875 
z
" id="IPAexGothic-53"/>
       </defs>
       <use xlink:href="#IPAexGothic-53"/>
       <use x="62.988281" xlink:href="#IPAexGothic-48"/>
      </g>
     </g>
    </g>
   </g>
   <g id="matplotlib.axis_2">
    <g id="ytick_1">
     <g id="line2d_6">
      <path clip-path="url(#p3d287c8c3d)" d="M 30.556563 221.581925 
L 365.356562 221.581925 
" style="fill:none;stroke:#ffffff;stroke-linecap:round;"/>
     </g>
     <g id="text_6">
      <!-- 0 -->
      <g style="fill:#262626;" transform="translate(14.128281 225.701769)scale(0.11 -0.11)">
       <use xlink:href="#IPAexGothic-48"/>
      </g>
     </g>
    </g>
    <g id="ytick_2">
     <g id="line2d_7">
      <path clip-path="url(#p3d287c8c3d)" d="M 30.556563 174.249656 
L 365.356562 174.249656 
" style="fill:none;stroke:#ffffff;stroke-linecap:round;"/>
     </g>
     <g id="text_7">
      <!-- 10 -->
      <g style="fill:#262626;" transform="translate(7.2 178.369499)scale(0.11 -0.11)">
       <use xlink:href="#IPAexGothic-49"/>
       <use x="62.988281" xlink:href="#IPAexGothic-48"/>
      </g>
     </g>
    </g>
    <g id="ytick_3">
     <g id="line2d_8">
      <path clip-path="url(#p3d287c8c3d)" d="M 30.556563 126.917386 
L 365.356562 126.917386 
" style="fill:none;stroke:#ffffff;stroke-linecap:round;"/>
     </g>
     <g id="text_8">
      <!-- 20 -->
      <g style="fill:#262626;" transform="translate(7.2 131.03723)scale(0.11 -0.11)">
       <use xlink:href="#IPAexGothic-50"/>
       <use x="62.988281" xlink:href="#IPAexGothic-48"/>
      </g>
     </g>
    </g>
    <g id="ytick_4">
     <g id="line2d_9">
      <path clip-path="url(#p3d287c8c3d)" d="M 30.556563 79.585117 
L 365.356562 79.585117 
" style="fill:none;stroke:#ffffff;stroke-linecap:round;"/>
     </g>
     <g id="text_9">
      <!-- 30 -->
      <g style="fill:#262626;" transform="translate(7.2 83.704961)scale(0.11 -0.11)">
       <use xlink:href="#IPAexGothic-51"/>
       <use x="62.988281" xlink:href="#IPAexGothic-48"/>
      </g>
     </g>
    </g>
    <g id="ytick_5">
     <g id="line2d_10">
      <path clip-path="url(#p3d287c8c3d)" d="M 30.556563 32.252848 
L 365.356562 32.252848 
" style="fill:none;stroke:#ffffff;stroke-linecap:round;"/>
     </g>
     <g id="text_10">
      <!-- 40 -->
      <g style="fill:#262626;" transform="translate(7.2 36.372691)scale(0.11 -0.11)">
       <use xlink:href="#IPAexGothic-52"/>
       <use x="62.988281" xlink:href="#IPAexGothic-48"/>
      </g>
     </g>
    </g>
   </g>
   <g id="PathCollection_1">
    <defs>
     <path d="M 0 3 
C 0.795609 3 1.55874 2.683901 2.12132 2.12132 
C 2.683901 1.55874 3 0.795609 3 0 
C 3 -0.795609 2.683901 -1.55874 2.12132 -2.12132 
C 1.55874 -2.683901 0.795609 -3 0 -3 
C -0.795609 -3 -1.55874 -2.683901 -2.12132 -2.12132 
C -2.683901 -1.55874 -3 -0.795609 -3 0 
C -3 0.795609 -2.683901 1.55874 -2.12132 2.12132 
C -1.55874 2.683901 -0.795609 3 0 3 
z
" id="m0efaade362" style="stroke:#ff0000;"/>
    </defs>
    <g clip-path="url(#p3d287c8c3d)">
     <use style="fill:#ff0000;stroke:#ff0000;" x="160.756563" xlink:href="#m0efaade362" y="84.672796"/>
     <use style="fill:#ff0000;stroke:#ff0000;" x="350.138381" xlink:href="#m0efaade362" y="108.566609"/>
     <use style="fill:#ff0000;stroke:#ff0000;" x="85.003835" xlink:href="#m0efaade362" y="165.311166"/>
     <use style="fill:#ff0000;stroke:#ff0000;" x="168.196563" xlink:href="#m0efaade362" y="123.331518"/>
     <use style="fill:#ff0000;stroke:#ff0000;" x="149.934744" xlink:href="#m0efaade362" y="129.112796"/>
     <use style="fill:#ff0000;stroke:#ff0000;" x="338.640199" xlink:href="#m0efaade362" y="45.011043"/>
     <use style="fill:#ff0000;stroke:#ff0000;" x="157.374744" xlink:href="#m0efaade362" y="123.073415"/>
     <use style="fill:#ff0000;stroke:#ff0000;" x="166.843835" xlink:href="#m0efaade362" y="103.348595"/>
     <use style="fill:#ff0000;stroke:#ff0000;" x="229.745653" xlink:href="#m0efaade362" y="73.793428"/>
     <use style="fill:#ff0000;stroke:#ff0000;" x="100.560199" xlink:href="#m0efaade362" y="153.16806"/>
     <use style="fill:#ff0000;stroke:#ff0000;" x="176.98929" xlink:href="#m0efaade362" y="118.272653"/>
     <use style="fill:#ff0000;stroke:#ff0000;" x="140.465653" xlink:href="#m0efaade362" y="117.262404"/>
     <use style="fill:#ff0000;stroke:#ff0000;" x="155.345653" xlink:href="#m0efaade362" y="120.017693"/>
     <use style="fill:#ff0000;stroke:#ff0000;" x="235.832926" xlink:href="#m0efaade362" y="64.911399"/>
     <use style="fill:#ff0000;stroke:#ff0000;" x="258.82929" xlink:href="#m0efaade362" y="48.650993"/>
     <use style="fill:#ff0000;stroke:#ff0000;" x="166.167472" xlink:href="#m0efaade362" y="98.33308"/>
     <use style="fill:#ff0000;stroke:#ff0000;" x="80.945653" xlink:href="#m0efaade362" y="141.611407"/>
     <use style="fill:#ff0000;stroke:#ff0000;" x="169.54929" xlink:href="#m0efaade362" y="102.341934"/>
     <use style="fill:#ff0000;stroke:#ff0000;" x="142.494744" xlink:href="#m0efaade362" y="147.882306"/>
     <use style="fill:#ff0000;stroke:#ff0000;" x="190.516563" xlink:href="#m0efaade362" y="84.158714"/>
     <use style="fill:#ff0000;stroke:#ff0000;" x="147.905653" xlink:href="#m0efaade362" y="121.446254"/>
     <use style="fill:#ff0000;stroke:#ff0000;" x="152.640199" xlink:href="#m0efaade362" y="135.933659"/>
     <use style="fill:#ff0000;stroke:#ff0000;" x="45.774744" xlink:href="#m0efaade362" y="184.547345"/>
     <use style="fill:#ff0000;stroke:#ff0000;" x="128.291108" xlink:href="#m0efaade362" y="142.95222"/>
     <use style="fill:#ff0000;stroke:#ff0000;" x="107.323835" xlink:href="#m0efaade362" y="134.884962"/>
     <use style="fill:#ff0000;stroke:#ff0000;" x="174.960199" xlink:href="#m0efaade362" y="103.473309"/>
     <use style="fill:#ff0000;stroke:#ff0000;" x="153.992926" xlink:href="#m0efaade362" y="119.971588"/>
     <use style="fill:#ff0000;stroke:#ff0000;" x="174.960199" xlink:href="#m0efaade362" y="128.687593"/>
     <use style="fill:#ff0000;stroke:#ff0000;" x="350.138381" xlink:href="#m0efaade362" y="27.858914"/>
     <use style="fill:#ff0000;stroke:#ff0000;" x="70.800199" xlink:href="#m0efaade362" y="178.217364"/>
     <use style="fill:#ff0000;stroke:#ff0000;" x="350.138381" xlink:href="#m0efaade362" y="69.834161"/>
     <use style="fill:#ff0000;stroke:#ff0000;" x="155.345653" xlink:href="#m0efaade362" y="112.21431"/>
     <use style="fill:#ff0000;stroke:#ff0000;" x="350.138381" xlink:href="#m0efaade362" y="52.287119"/>
     <use style="fill:#ff0000;stroke:#ff0000;" x="93.120199" xlink:href="#m0efaade362" y="167.093737"/>
     <use style="fill:#ff0000;stroke:#ff0000;" x="172.931108" xlink:href="#m0efaade362" y="117.107147"/>
     <use style="fill:#ff0000;stroke:#ff0000;" x="208.778381" xlink:href="#m0efaade362" y="77.204138"/>
     <use style="fill:#ff0000;stroke:#ff0000;" x="146.552926" xlink:href="#m0efaade362" y="130.984448"/>
     <use style="fill:#ff0000;stroke:#ff0000;" x="156.698381" xlink:href="#m0efaade362" y="103.810366"/>
     <use style="fill:#ff0000;stroke:#ff0000;" x="235.832926" xlink:href="#m0efaade362" y="66.366807"/>
     <use style="fill:#ff0000;stroke:#ff0000;" x="112.058381" xlink:href="#m0efaade362" y="151.378118"/>
     <use style="fill:#ff0000;stroke:#ff0000;" x="150.611108" xlink:href="#m0efaade362" y="108.679846"/>
     <use style="fill:#ff0000;stroke:#ff0000;" x="143.171108" xlink:href="#m0efaade362" y="102.287591"/>
     <use style="fill:#ff0000;stroke:#ff0000;" x="137.760199" xlink:href="#m0efaade362" y="144.749491"/>
     <use style="fill:#ff0000;stroke:#ff0000;" x="225.011108" xlink:href="#m0efaade362" y="66.20024"/>
     <use style="fill:#ff0000;stroke:#ff0000;" x="168.196563" xlink:href="#m0efaade362" y="173.352036"/>
     <use style="fill:#ff0000;stroke:#ff0000;" x="128.291108" xlink:href="#m0efaade362" y="153.048621"/>
     <use style="fill:#ff0000;stroke:#ff0000;" x="105.294744" xlink:href="#m0efaade362" y="214.231228"/>
     <use style="fill:#ff0000;stroke:#ff0000;" x="301.440199" xlink:href="#m0efaade362" y="80.250314"/>
     <use style="fill:#ff0000;stroke:#ff0000;" x="158.727472" xlink:href="#m0efaade362" y="113.735057"/>
     <use style="fill:#ff0000;stroke:#ff0000;" x="350.138381" xlink:href="#m0efaade362" y="45.151288"/>
     <use style="fill:#ff0000;stroke:#ff0000;" x="102.58929" xlink:href="#m0efaade362" y="143.531246"/>
     <use style="fill:#ff0000;stroke:#ff0000;" x="202.691108" xlink:href="#m0efaade362" y="63.462229"/>
     <use style="fill:#ff0000;stroke:#ff0000;" x="174.283835" xlink:href="#m0efaade362" y="99.644692"/>
     <use style="fill:#ff0000;stroke:#ff0000;" x="143.171108" xlink:href="#m0efaade362" y="139.891946"/>
     <use style="fill:#ff0000;stroke:#ff0000;" x="156.698381" xlink:href="#m0efaade362" y="125.693136"/>
     <use style="fill:#ff0000;stroke:#ff0000;" x="169.54929" xlink:href="#m0efaade362" y="117.148202"/>
     <use style="fill:#ff0000;stroke:#ff0000;" x="103.265653" xlink:href="#m0efaade362" y="155.730982"/>
     <use style="fill:#ff0000;stroke:#ff0000;" x="237.185653" xlink:href="#m0efaade362" y="53.746452"/>
     <use style="fill:#ff0000;stroke:#ff0000;" x="181.047472" xlink:href="#m0efaade362" y="107.392573"/>
     <use style="fill:#ff0000;stroke:#ff0000;" x="143.171108" xlink:href="#m0efaade362" y="128.682038"/>
     <use style="fill:#ff0000;stroke:#ff0000;" x="306.174744" xlink:href="#m0efaade362" y="32.922158"/>
     <use style="fill:#ff0000;stroke:#ff0000;" x="152.640199" xlink:href="#m0efaade362" y="135.456315"/>
     <use style="fill:#ff0000;stroke:#ff0000;" x="350.138381" xlink:href="#m0efaade362" y="17.083636"/>
     <use style="fill:#ff0000;stroke:#ff0000;" x="191.192926" xlink:href="#m0efaade362" y="101.985723"/>
     <use style="fill:#ff0000;stroke:#ff0000;" x="145.200199" xlink:href="#m0efaade362" y="153.208811"/>
     <use style="fill:#ff0000;stroke:#ff0000;" x="125.585653" xlink:href="#m0efaade362" y="132.862559"/>
     <use style="fill:#ff0000;stroke:#ff0000;" x="101.236563" xlink:href="#m0efaade362" y="176.645907"/>
     <use style="fill:#ff0000;stroke:#ff0000;" x="139.112926" xlink:href="#m0efaade362" y="124.729948"/>
     <use style="fill:#ff0000;stroke:#ff0000;" x="240.567472" xlink:href="#m0efaade362" y="52.736937"/>
     <use style="fill:#ff0000;stroke:#ff0000;" x="121.527472" xlink:href="#m0efaade362" y="124.890195"/>
     <use style="fill:#ff0000;stroke:#ff0000;" x="112.734744" xlink:href="#m0efaade362" y="136.941076"/>
     <use style="fill:#ff0000;stroke:#ff0000;" x="149.258381" xlink:href="#m0efaade362" y="118.3741"/>
     <use style="fill:#ff0000;stroke:#ff0000;" x="191.86929" xlink:href="#m0efaade362" y="87.407244"/>
     <use style="fill:#ff0000;stroke:#ff0000;" x="97.854744" xlink:href="#m0efaade362" y="161.174262"/>
     <use style="fill:#ff0000;stroke:#ff0000;" x="76.887472" xlink:href="#m0efaade362" y="152.732949"/>
     <use style="fill:#ff0000;stroke:#ff0000;" x="350.138381" xlink:href="#m0efaade362" y="38.468462"/>
     <use style="fill:#ff0000;stroke:#ff0000;" x="200.662017" xlink:href="#m0efaade362" y="128.987642"/>
     <use style="fill:#ff0000;stroke:#ff0000;" x="134.378381" xlink:href="#m0efaade362" y="145.020051"/>
     <use style="fill:#ff0000;stroke:#ff0000;" x="71.476563" xlink:href="#m0efaade362" y="196.274683"/>
     <use style="fill:#ff0000;stroke:#ff0000;" x="66.742017" xlink:href="#m0efaade362" y="214.756364"/>
     <use style="fill:#ff0000;stroke:#ff0000;" x="191.86929" xlink:href="#m0efaade362" y="89.526558"/>
     <use style="fill:#ff0000;stroke:#ff0000;" x="166.167472" xlink:href="#m0efaade362" y="82.939771"/>
     <use style="fill:#ff0000;stroke:#ff0000;" x="136.407472" xlink:href="#m0efaade362" y="152.643906"/>
     <use style="fill:#ff0000;stroke:#ff0000;" x="103.942017" xlink:href="#m0efaade362" y="169.374833"/>
     <use style="fill:#ff0000;stroke:#ff0000;" x="97.178381" xlink:href="#m0efaade362" y="135.250605"/>
     <use style="fill:#ff0000;stroke:#ff0000;" x="176.98929" xlink:href="#m0efaade362" y="109.605894"/>
     <use style="fill:#ff0000;stroke:#ff0000;" x="82.298381" xlink:href="#m0efaade362" y="188.13727"/>
     <use style="fill:#ff0000;stroke:#ff0000;" x="124.232926" xlink:href="#m0efaade362" y="135.459339"/>
     <use style="fill:#ff0000;stroke:#ff0000;" x="139.78929" xlink:href="#m0efaade362" y="153.037939"/>
     <use style="fill:#ff0000;stroke:#ff0000;" x="137.083835" xlink:href="#m0efaade362" y="127.323843"/>
     <use style="fill:#ff0000;stroke:#ff0000;" x="110.705653" xlink:href="#m0efaade362" y="177.937821"/>
     <use style="fill:#ff0000;stroke:#ff0000;" x="128.291108" xlink:href="#m0efaade362" y="156.236195"/>
     <use style="fill:#ff0000;stroke:#ff0000;" x="49.832926" xlink:href="#m0efaade362" y="164.028526"/>
     <use style="fill:#ff0000;stroke:#ff0000;" x="129.643835" xlink:href="#m0efaade362" y="151.398987"/>
     <use style="fill:#ff0000;stroke:#ff0000;" x="149.934744" xlink:href="#m0efaade362" y="112.742624"/>
     <use style="fill:#ff0000;stroke:#ff0000;" x="131.672926" xlink:href="#m0efaade362" y="125.811619"/>
     <use style="fill:#ff0000;stroke:#ff0000;" x="166.843835" xlink:href="#m0efaade362" y="112.738795"/>
     <use style="fill:#ff0000;stroke:#ff0000;" x="160.756563" xlink:href="#m0efaade362" y="100.050116"/>
     <use style="fill:#ff0000;stroke:#ff0000;" x="204.043835" xlink:href="#m0efaade362" y="85.883377"/>
     <use style="fill:#ff0000;stroke:#ff0000;" x="110.705653" xlink:href="#m0efaade362" y="131.937928"/>
     <use style="fill:#ff0000;stroke:#ff0000;" x="105.294744" xlink:href="#m0efaade362" y="126.014487"/>
     <use style="fill:#ff0000;stroke:#ff0000;" x="86.356563" xlink:href="#m0efaade362" y="152.988727"/>
     <use style="fill:#ff0000;stroke:#ff0000;" x="195.251108" xlink:href="#m0efaade362" y="95.945758"/>
     <use style="fill:#ff0000;stroke:#ff0000;" x="213.512926" xlink:href="#m0efaade362" y="101.571"/>
     <use style="fill:#ff0000;stroke:#ff0000;" x="68.771108" xlink:href="#m0efaade362" y="194.423992"/>
     <use style="fill:#ff0000;stroke:#ff0000;" x="218.247472" xlink:href="#m0efaade362" y="80.60921"/>
     <use style="fill:#ff0000;stroke:#ff0000;" x="169.54929" xlink:href="#m0efaade362" y="87.284229"/>
     <use style="fill:#ff0000;stroke:#ff0000;" x="268.298381" xlink:href="#m0efaade362" y="59.6554"/>
     <use style="fill:#ff0000;stroke:#ff0000;" x="117.46929" xlink:href="#m0efaade362" y="164.386328"/>
     <use style="fill:#ff0000;stroke:#ff0000;" x="245.978381" xlink:href="#m0efaade362" y="60.11363"/>
     <use style="fill:#ff0000;stroke:#ff0000;" x="91.091108" xlink:href="#m0efaade362" y="147.025913"/>
     <use style="fill:#ff0000;stroke:#ff0000;" x="171.578381" xlink:href="#m0efaade362" y="76.9598"/>
     <use style="fill:#ff0000;stroke:#ff0000;" x="151.287472" xlink:href="#m0efaade362" y="129.924561"/>
     <use style="fill:#ff0000;stroke:#ff0000;" x="141.818381" xlink:href="#m0efaade362" y="132.894215"/>
     <use style="fill:#ff0000;stroke:#ff0000;" x="219.600199" xlink:href="#m0efaade362" y="68.722707"/>
     <use style="fill:#ff0000;stroke:#ff0000;" x="210.807472" xlink:href="#m0efaade362" y="73.606162"/>
     <use style="fill:#ff0000;stroke:#ff0000;" x="110.02929" xlink:href="#m0efaade362" y="137.474314"/>
     <use style="fill:#ff0000;stroke:#ff0000;" x="143.847472" xlink:href="#m0efaade362" y="127.800061"/>
     <use style="fill:#ff0000;stroke:#ff0000;" x="129.643835" xlink:href="#m0efaade362" y="140.045507"/>
     <use style="fill:#ff0000;stroke:#ff0000;" x="309.556563" xlink:href="#m0efaade362" y="45.9042"/>
     <use style="fill:#ff0000;stroke:#ff0000;" x="146.552926" xlink:href="#m0efaade362" y="129.975538"/>
     <use style="fill:#ff0000;stroke:#ff0000;" x="158.727472" xlink:href="#m0efaade362" y="124.317526"/>
     <use style="fill:#ff0000;stroke:#ff0000;" x="228.392926" xlink:href="#m0efaade362" y="64.899631"/>
     <use style="fill:#ff0000;stroke:#ff0000;" x="77.563835" xlink:href="#m0efaade362" y="172.92528"/>
     <use style="fill:#ff0000;stroke:#ff0000;" x="167.520199" xlink:href="#m0efaade362" y="113.416819"/>
     <use style="fill:#ff0000;stroke:#ff0000;" x="147.905653" xlink:href="#m0efaade362" y="159.51308"/>
     <use style="fill:#ff0000;stroke:#ff0000;" x="160.756563" xlink:href="#m0efaade362" y="94.088699"/>
     <use style="fill:#ff0000;stroke:#ff0000;" x="136.407472" xlink:href="#m0efaade362" y="132.172538"/>
     <use style="fill:#ff0000;stroke:#ff0000;" x="112.734744" xlink:href="#m0efaade362" y="139.920122"/>
     <use style="fill:#ff0000;stroke:#ff0000;" x="149.258381" xlink:href="#m0efaade362" y="131.607614"/>
     <use style="fill:#ff0000;stroke:#ff0000;" x="191.86929" xlink:href="#m0efaade362" y="118.961784"/>
     <use style="fill:#ff0000;stroke:#ff0000;" x="150.611108" xlink:href="#m0efaade362" y="129.858562"/>
     <use style="fill:#ff0000;stroke:#ff0000;" x="144.523835" xlink:href="#m0efaade362" y="135.984593"/>
     <use style="fill:#ff0000;stroke:#ff0000;" x="138.436563" xlink:href="#m0efaade362" y="124.959451"/>
     <use style="fill:#ff0000;stroke:#ff0000;" x="105.294744" xlink:href="#m0efaade362" y="162.159298"/>
     <use style="fill:#ff0000;stroke:#ff0000;" x="236.50929" xlink:href="#m0efaade362" y="68.84029"/>
     <use style="fill:#ff0000;stroke:#ff0000;" x="221.62929" xlink:href="#m0efaade362" y="54.672382"/>
     <use style="fill:#ff0000;stroke:#ff0000;" x="158.051108" xlink:href="#m0efaade362" y="104.23016"/>
     <use style="fill:#ff0000;stroke:#ff0000;" x="135.054744" xlink:href="#m0efaade362" y="133.966594"/>
     <use style="fill:#ff0000;stroke:#ff0000;" x="141.142017" xlink:href="#m0efaade362" y="142.219633"/>
     <use style="fill:#ff0000;stroke:#ff0000;" x="106.647472" xlink:href="#m0efaade362" y="160.497611"/>
     <use style="fill:#ff0000;stroke:#ff0000;" x="166.167472" xlink:href="#m0efaade362" y="106.83029"/>
     <use style="fill:#ff0000;stroke:#ff0000;" x="117.46929" xlink:href="#m0efaade362" y="147.056115"/>
     <use style="fill:#ff0000;stroke:#ff0000;" x="160.080199" xlink:href="#m0efaade362" y="53.385597"/>
     <use style="fill:#ff0000;stroke:#ff0000;" x="60.654744" xlink:href="#m0efaade362" y="136.797852"/>
     <use style="fill:#ff0000;stroke:#ff0000;" x="147.22929" xlink:href="#m0efaade362" y="148.956442"/>
     <use style="fill:#ff0000;stroke:#ff0000;" x="256.800199" xlink:href="#m0efaade362" y="87.912951"/>
     <use style="fill:#ff0000;stroke:#ff0000;" x="132.34929" xlink:href="#m0efaade362" y="137.435049"/>
     <use style="fill:#ff0000;stroke:#ff0000;" x="319.025653" xlink:href="#m0efaade362" y="37.207626"/>
     <use style="fill:#ff0000;stroke:#ff0000;" x="179.018381" xlink:href="#m0efaade362" y="103.192655"/>
     <use style="fill:#ff0000;stroke:#ff0000;" x="144.523835" xlink:href="#m0efaade362" y="135.554224"/>
     <use style="fill:#ff0000;stroke:#ff0000;" x="142.494744" xlink:href="#m0efaade362" y="121.819952"/>
    </g>
   </g>
   <g id="patch_3">
    <path d="M 30.556563 224.64 
L 30.556563 7.2 
" style="fill:none;stroke:#ffffff;stroke-linecap:square;stroke-linejoin:miter;stroke-width:1.25;"/>
   </g>
   <g id="patch_4">
    <path d="M 365.356562 224.64 
L 365.356562 7.2 
" style="fill:none;stroke:#ffffff;stroke-linecap:square;stroke-linejoin:miter;stroke-width:1.25;"/>
   </g>
   <g id="patch_5">
    <path d="M 30.556563 224.64 
L 365.356563 224.64 
" style="fill:none;stroke:#ffffff;stroke-linecap:square;stroke-linejoin:miter;stroke-width:1.25;"/>
   </g>
   <g id="patch_6">
    <path d="M 30.556563 7.2 
L 365.356563 7.2 
" style="fill:none;stroke:#ffffff;stroke-linecap:square;stroke-linejoin:miter;stroke-width:1.25;"/>
   </g>
  </g>
 </g>
 <defs>
  <clipPath id="p3d287c8c3d">
   <rect height="217.44" width="334.8" x="30.556563" y="7.2"/>
  </clipPath>
 </defs>
</svg>
