<?xml version="1.0" encoding="utf-8" standalone="no"?>
<!DOCTYPE svg PUBLIC "-//W3C//DTD SVG 1.1//EN"
  "http://www.w3.org/Graphics/SVG/1.1/DTD/svg11.dtd">
<!-- Created with matplotlib (https://matplotlib.org/) -->
<svg height="248.518125pt" version="1.1" viewBox="0 0 380.482813 248.518125" width="380.482813pt" xmlns="http://www.w3.org/2000/svg" xmlns:xlink="http://www.w3.org/1999/xlink">
 <metadata>
  <rdf:RDF xmlns:cc="http://creativecommons.org/ns#" xmlns:dc="http://purl.org/dc/elements/1.1/" xmlns:rdf="http://www.w3.org/1999/02/22-rdf-syntax-ns#">
   <cc:Work>
    <dc:type rdf:resource="http://purl.org/dc/dcmitype/StillImage"/>
    <dc:date>2021-03-02T10:47:24.904064</dc:date>
    <dc:format>image/svg+xml</dc:format>
    <dc:creator>
     <cc:Agent>
      <dc:title>Matplotlib v3.3.4, https://matplotlib.org/</dc:title>
     </cc:Agent>
    </dc:creator>
   </cc:Work>
  </rdf:RDF>
 </metadata>
 <defs>
  <style type="text/css">*{stroke-linecap:butt;stroke-linejoin:round;}</style>
 </defs>
 <g id="figure_1">
  <g id="patch_1">
   <path d="M -0 248.518125 
L 380.482813 248.518125 
L 380.482813 0 
L -0 0 
z
" style="fill:none;"/>
  </g>
  <g id="axes_1">
   <g id="patch_2">
    <path d="M 38.482813 106.036364 
L 373.282813 106.036364 
L 373.282813 7.2 
L 38.482813 7.2 
z
" style="fill:#ffffff;"/>
   </g>
   <g id="matplotlib.axis_1">
    <g id="xtick_1">
     <g id="line2d_1">
      <defs>
       <path d="M 0 0 
L 0 3.5 
" id="maf6b36628b" style="stroke:#000000;stroke-width:0.8;"/>
      </defs>
      <g>
       <use style="stroke:#000000;stroke-width:0.8;" x="53.700994" xlink:href="#maf6b36628b" y="106.036364"/>
      </g>
     </g>
     <g id="text_1">
      <!-- 0 -->
      <g transform="translate(50.519744 120.634801)scale(0.1 -0.1)">
       <defs>
        <path d="M 31.78125 66.40625 
Q 24.171875 66.40625 20.328125 58.90625 
Q 16.5 51.421875 16.5 36.375 
Q 16.5 21.390625 20.328125 13.890625 
Q 24.171875 6.390625 31.78125 6.390625 
Q 39.453125 6.390625 43.28125 13.890625 
Q 47.125 21.390625 47.125 36.375 
Q 47.125 51.421875 43.28125 58.90625 
Q 39.453125 66.40625 31.78125 66.40625 
z
M 31.78125 74.21875 
Q 44.046875 74.21875 50.515625 64.515625 
Q 56.984375 54.828125 56.984375 36.375 
Q 56.984375 17.96875 50.515625 8.265625 
Q 44.046875 -1.421875 31.78125 -1.421875 
Q 19.53125 -1.421875 13.0625 8.265625 
Q 6.59375 17.96875 6.59375 36.375 
Q 6.59375 54.828125 13.0625 64.515625 
Q 19.53125 74.21875 31.78125 74.21875 
z
" id="DejaVuSans-48"/>
       </defs>
       <use xlink:href="#DejaVuSans-48"/>
      </g>
     </g>
    </g>
    <g id="xtick_2">
     <g id="line2d_2">
      <g>
       <use style="stroke:#000000;stroke-width:0.8;" x="114.81819" xlink:href="#maf6b36628b" y="106.036364"/>
      </g>
     </g>
     <g id="text_2">
      <!-- 1 -->
      <g transform="translate(111.63694 120.634801)scale(0.1 -0.1)">
       <defs>
        <path d="M 12.40625 8.296875 
L 28.515625 8.296875 
L 28.515625 63.921875 
L 10.984375 60.40625 
L 10.984375 69.390625 
L 28.421875 72.90625 
L 38.28125 72.90625 
L 38.28125 8.296875 
L 54.390625 8.296875 
L 54.390625 0 
L 12.40625 0 
z
" id="DejaVuSans-49"/>
       </defs>
       <use xlink:href="#DejaVuSans-49"/>
      </g>
     </g>
    </g>
    <g id="xtick_3">
     <g id="line2d_3">
      <g>
       <use style="stroke:#000000;stroke-width:0.8;" x="175.935386" xlink:href="#maf6b36628b" y="106.036364"/>
      </g>
     </g>
     <g id="text_3">
      <!-- 2 -->
      <g transform="translate(172.754136 120.634801)scale(0.1 -0.1)">
       <defs>
        <path d="M 19.1875 8.296875 
L 53.609375 8.296875 
L 53.609375 0 
L 7.328125 0 
L 7.328125 8.296875 
Q 12.9375 14.109375 22.625 23.890625 
Q 32.328125 33.6875 34.8125 36.53125 
Q 39.546875 41.84375 41.421875 45.53125 
Q 43.3125 49.21875 43.3125 52.78125 
Q 43.3125 58.59375 39.234375 62.25 
Q 35.15625 65.921875 28.609375 65.921875 
Q 23.96875 65.921875 18.8125 64.3125 
Q 13.671875 62.703125 7.8125 59.421875 
L 7.8125 69.390625 
Q 13.765625 71.78125 18.9375 73 
Q 24.125 74.21875 28.421875 74.21875 
Q 39.75 74.21875 46.484375 68.546875 
Q 53.21875 62.890625 53.21875 53.421875 
Q 53.21875 48.921875 51.53125 44.890625 
Q 49.859375 40.875 45.40625 35.40625 
Q 44.1875 33.984375 37.640625 27.21875 
Q 31.109375 20.453125 19.1875 8.296875 
z
" id="DejaVuSans-50"/>
       </defs>
       <use xlink:href="#DejaVuSans-50"/>
      </g>
     </g>
    </g>
    <g id="xtick_4">
     <g id="line2d_4">
      <g>
       <use style="stroke:#000000;stroke-width:0.8;" x="237.052582" xlink:href="#maf6b36628b" y="106.036364"/>
      </g>
     </g>
     <g id="text_4">
      <!-- 3 -->
      <g transform="translate(233.871332 120.634801)scale(0.1 -0.1)">
       <defs>
        <path d="M 40.578125 39.3125 
Q 47.65625 37.796875 51.625 33 
Q 55.609375 28.21875 55.609375 21.1875 
Q 55.609375 10.40625 48.1875 4.484375 
Q 40.765625 -1.421875 27.09375 -1.421875 
Q 22.515625 -1.421875 17.65625 -0.515625 
Q 12.796875 0.390625 7.625 2.203125 
L 7.625 11.71875 
Q 11.71875 9.328125 16.59375 8.109375 
Q 21.484375 6.890625 26.8125 6.890625 
Q 36.078125 6.890625 40.9375 10.546875 
Q 45.796875 14.203125 45.796875 21.1875 
Q 45.796875 27.640625 41.28125 31.265625 
Q 36.765625 34.90625 28.71875 34.90625 
L 20.21875 34.90625 
L 20.21875 43.015625 
L 29.109375 43.015625 
Q 36.375 43.015625 40.234375 45.921875 
Q 44.09375 48.828125 44.09375 54.296875 
Q 44.09375 59.90625 40.109375 62.90625 
Q 36.140625 65.921875 28.71875 65.921875 
Q 24.65625 65.921875 20.015625 65.03125 
Q 15.375 64.15625 9.8125 62.3125 
L 9.8125 71.09375 
Q 15.4375 72.65625 20.34375 73.4375 
Q 25.25 74.21875 29.59375 74.21875 
Q 40.828125 74.21875 47.359375 69.109375 
Q 53.90625 64.015625 53.90625 55.328125 
Q 53.90625 49.265625 50.4375 45.09375 
Q 46.96875 40.921875 40.578125 39.3125 
z
" id="DejaVuSans-51"/>
       </defs>
       <use xlink:href="#DejaVuSans-51"/>
      </g>
     </g>
    </g>
    <g id="xtick_5">
     <g id="line2d_5">
      <g>
       <use style="stroke:#000000;stroke-width:0.8;" x="298.169779" xlink:href="#maf6b36628b" y="106.036364"/>
      </g>
     </g>
     <g id="text_5">
      <!-- 4 -->
      <g transform="translate(294.988529 120.634801)scale(0.1 -0.1)">
       <defs>
        <path d="M 37.796875 64.3125 
L 12.890625 25.390625 
L 37.796875 25.390625 
z
M 35.203125 72.90625 
L 47.609375 72.90625 
L 47.609375 25.390625 
L 58.015625 25.390625 
L 58.015625 17.1875 
L 47.609375 17.1875 
L 47.609375 0 
L 37.796875 0 
L 37.796875 17.1875 
L 4.890625 17.1875 
L 4.890625 26.703125 
z
" id="DejaVuSans-52"/>
       </defs>
       <use xlink:href="#DejaVuSans-52"/>
      </g>
     </g>
    </g>
    <g id="xtick_6">
     <g id="line2d_6">
      <g>
       <use style="stroke:#000000;stroke-width:0.8;" x="359.286975" xlink:href="#maf6b36628b" y="106.036364"/>
      </g>
     </g>
     <g id="text_6">
      <!-- 5 -->
      <g transform="translate(356.105725 120.634801)scale(0.1 -0.1)">
       <defs>
        <path d="M 10.796875 72.90625 
L 49.515625 72.90625 
L 49.515625 64.59375 
L 19.828125 64.59375 
L 19.828125 46.734375 
Q 21.96875 47.46875 24.109375 47.828125 
Q 26.265625 48.1875 28.421875 48.1875 
Q 40.625 48.1875 47.75 41.5 
Q 54.890625 34.8125 54.890625 23.390625 
Q 54.890625 11.625 47.5625 5.09375 
Q 40.234375 -1.421875 26.90625 -1.421875 
Q 22.3125 -1.421875 17.546875 -0.640625 
Q 12.796875 0.140625 7.71875 1.703125 
L 7.71875 11.625 
Q 12.109375 9.234375 16.796875 8.0625 
Q 21.484375 6.890625 26.703125 6.890625 
Q 35.15625 6.890625 40.078125 11.328125 
Q 45.015625 15.765625 45.015625 23.390625 
Q 45.015625 31 40.078125 35.4375 
Q 35.15625 39.890625 26.703125 39.890625 
Q 22.75 39.890625 18.8125 39.015625 
Q 14.890625 38.140625 10.796875 36.28125 
z
" id="DejaVuSans-53"/>
       </defs>
       <use xlink:href="#DejaVuSans-53"/>
      </g>
     </g>
    </g>
   </g>
   <g id="matplotlib.axis_2">
    <g id="ytick_1">
     <g id="line2d_7">
      <defs>
       <path d="M 0 0 
L -3.5 0 
" id="m479f626842" style="stroke:#000000;stroke-width:0.8;"/>
      </defs>
      <g>
       <use style="stroke:#000000;stroke-width:0.8;" x="38.482813" xlink:href="#m479f626842" y="95.202394"/>
      </g>
     </g>
     <g id="text_7">
      <!-- −0.5 -->
      <g transform="translate(7.2 99.001612)scale(0.1 -0.1)">
       <defs>
        <path d="M 10.59375 35.5 
L 73.1875 35.5 
L 73.1875 27.203125 
L 10.59375 27.203125 
z
" id="DejaVuSans-8722"/>
        <path d="M 10.6875 12.40625 
L 21 12.40625 
L 21 0 
L 10.6875 0 
z
" id="DejaVuSans-46"/>
       </defs>
       <use xlink:href="#DejaVuSans-8722"/>
       <use x="83.789062" xlink:href="#DejaVuSans-48"/>
       <use x="147.412109" xlink:href="#DejaVuSans-46"/>
       <use x="179.199219" xlink:href="#DejaVuSans-53"/>
      </g>
     </g>
    </g>
    <g id="ytick_2">
     <g id="line2d_8">
      <g>
       <use style="stroke:#000000;stroke-width:0.8;" x="38.482813" xlink:href="#m479f626842" y="67.365783"/>
      </g>
     </g>
     <g id="text_8">
      <!-- 0.0 -->
      <g transform="translate(15.579688 71.165002)scale(0.1 -0.1)">
       <use xlink:href="#DejaVuSans-48"/>
       <use x="63.623047" xlink:href="#DejaVuSans-46"/>
       <use x="95.410156" xlink:href="#DejaVuSans-48"/>
      </g>
     </g>
    </g>
    <g id="ytick_3">
     <g id="line2d_9">
      <g>
       <use style="stroke:#000000;stroke-width:0.8;" x="38.482813" xlink:href="#m479f626842" y="39.529172"/>
      </g>
     </g>
     <g id="text_9">
      <!-- 0.5 -->
      <g transform="translate(15.579688 43.328391)scale(0.1 -0.1)">
       <use xlink:href="#DejaVuSans-48"/>
       <use x="63.623047" xlink:href="#DejaVuSans-46"/>
       <use x="95.410156" xlink:href="#DejaVuSans-53"/>
      </g>
     </g>
    </g>
    <g id="ytick_4">
     <g id="line2d_10">
      <g>
       <use style="stroke:#000000;stroke-width:0.8;" x="38.482813" xlink:href="#m479f626842" y="11.692562"/>
      </g>
     </g>
     <g id="text_10">
      <!-- 1.0 -->
      <g transform="translate(15.579688 15.491781)scale(0.1 -0.1)">
       <use xlink:href="#DejaVuSans-49"/>
       <use x="63.623047" xlink:href="#DejaVuSans-46"/>
       <use x="95.410156" xlink:href="#DejaVuSans-48"/>
      </g>
     </g>
    </g>
   </g>
   <g id="line2d_11">
    <defs>
     <path d="M 0 3 
C 0.795609 3 1.55874 2.683901 2.12132 2.12132 
C 2.683901 1.55874 3 0.795609 3 0 
C 3 -0.795609 2.683901 -1.55874 2.12132 -2.12132 
C 1.55874 -2.683901 0.795609 -3 0 -3 
C -0.795609 -3 -1.55874 -2.683901 -2.12132 -2.12132 
C -2.683901 -1.55874 -3 -0.795609 -3 0 
C -3 0.795609 -2.683901 1.55874 -2.12132 2.12132 
C -1.55874 2.683901 -0.795609 3 0 3 
z
" id="m5afec471a7" style="stroke:#0000ff;"/>
    </defs>
    <g clip-path="url(#p260df3f6b4)">
     <use style="fill:#0000ff;stroke:#0000ff;" x="53.700994" xlink:href="#m5afec471a7" y="11.692562"/>
     <use style="fill:#0000ff;stroke:#0000ff;" x="59.812714" xlink:href="#m5afec471a7" y="26.611379"/>
     <use style="fill:#0000ff;stroke:#0000ff;" x="65.924434" xlink:href="#m5afec471a7" y="53.280363"/>
     <use style="fill:#0000ff;stroke:#0000ff;" x="72.036153" xlink:href="#m5afec471a7" y="80.110799"/>
     <use style="fill:#0000ff;stroke:#0000ff;" x="78.147873" xlink:href="#m5afec471a7" y="97.557388"/>
     <use style="fill:#0000ff;stroke:#0000ff;" x="84.259592" xlink:href="#m5afec471a7" y="101.133298"/>
     <use style="fill:#0000ff;stroke:#0000ff;" x="90.371312" xlink:href="#m5afec471a7" y="92.084578"/>
     <use style="fill:#0000ff;stroke:#0000ff;" x="96.483032" xlink:href="#m5afec471a7" y="75.909022"/>
     <use style="fill:#0000ff;stroke:#0000ff;" x="102.594751" xlink:href="#m5afec471a7" y="59.63554"/>
     <use style="fill:#0000ff;stroke:#0000ff;" x="108.706471" xlink:href="#m5afec471a7" y="49.053649"/>
     <use style="fill:#0000ff;stroke:#0000ff;" x="114.81819" xlink:href="#m5afec471a7" y="46.88475"/>
     <use style="fill:#0000ff;stroke:#0000ff;" x="120.92991" xlink:href="#m5afec471a7" y="52.373076"/>
     <use style="fill:#0000ff;stroke:#0000ff;" x="127.04163" xlink:href="#m5afec471a7" y="62.184046"/>
     <use style="fill:#0000ff;stroke:#0000ff;" x="133.153349" xlink:href="#m5afec471a7" y="72.054412"/>
     <use style="fill:#0000ff;stroke:#0000ff;" x="139.265069" xlink:href="#m5afec471a7" y="78.472654"/>
     <use style="fill:#0000ff;stroke:#0000ff;" x="145.376788" xlink:href="#m5afec471a7" y="79.788158"/>
     <use style="fill:#0000ff;stroke:#0000ff;" x="151.488508" xlink:href="#m5afec471a7" y="76.45932"/>
     <use style="fill:#0000ff;stroke:#0000ff;" x="157.600228" xlink:href="#m5afec471a7" y="70.508665"/>
     <use style="fill:#0000ff;stroke:#0000ff;" x="163.711947" xlink:href="#m5afec471a7" y="64.521986"/>
     <use style="fill:#0000ff;stroke:#0000ff;" x="169.823667" xlink:href="#m5afec471a7" y="60.629125"/>
     <use style="fill:#0000ff;stroke:#0000ff;" x="175.935386" xlink:href="#m5afec471a7" y="59.831232"/>
     <use style="fill:#0000ff;stroke:#0000ff;" x="182.047106" xlink:href="#m5afec471a7" y="61.850274"/>
     <use style="fill:#0000ff;stroke:#0000ff;" x="188.158826" xlink:href="#m5afec471a7" y="65.459529"/>
     <use style="fill:#0000ff;stroke:#0000ff;" x="194.270545" xlink:href="#m5afec471a7" y="69.090633"/>
     <use style="fill:#0000ff;stroke:#0000ff;" x="200.382265" xlink:href="#m5afec471a7" y="71.451772"/>
     <use style="fill:#0000ff;stroke:#0000ff;" x="206.493984" xlink:href="#m5afec471a7" y="71.935719"/>
     <use style="fill:#0000ff;stroke:#0000ff;" x="212.605704" xlink:href="#m5afec471a7" y="70.711108"/>
     <use style="fill:#0000ff;stroke:#0000ff;" x="218.717424" xlink:href="#m5afec471a7" y="68.521985"/>
     <use style="fill:#0000ff;stroke:#0000ff;" x="224.829143" xlink:href="#m5afec471a7" y="66.319608"/>
     <use style="fill:#0000ff;stroke:#0000ff;" x="230.940863" xlink:href="#m5afec471a7" y="64.887505"/>
     <use style="fill:#0000ff;stroke:#0000ff;" x="237.052582" xlink:href="#m5afec471a7" y="64.593977"/>
     <use style="fill:#0000ff;stroke:#0000ff;" x="243.164302" xlink:href="#m5afec471a7" y="65.336741"/>
     <use style="fill:#0000ff;stroke:#0000ff;" x="249.276022" xlink:href="#m5afec471a7" y="66.664511"/>
     <use style="fill:#0000ff;stroke:#0000ff;" x="255.387741" xlink:href="#m5afec471a7" y="68.00032"/>
     <use style="fill:#0000ff;stroke:#0000ff;" x="261.499461" xlink:href="#m5afec471a7" y="68.868935"/>
     <use style="fill:#0000ff;stroke:#0000ff;" x="267.611181" xlink:href="#m5afec471a7" y="69.046969"/>
     <use style="fill:#0000ff;stroke:#0000ff;" x="273.7229" xlink:href="#m5afec471a7" y="68.596459"/>
     <use style="fill:#0000ff;stroke:#0000ff;" x="279.83462" xlink:href="#m5afec471a7" y="67.791126"/>
     <use style="fill:#0000ff;stroke:#0000ff;" x="285.946339" xlink:href="#m5afec471a7" y="66.980917"/>
     <use style="fill:#0000ff;stroke:#0000ff;" x="292.058059" xlink:href="#m5afec471a7" y="66.454076"/>
     <use style="fill:#0000ff;stroke:#0000ff;" x="298.169779" xlink:href="#m5afec471a7" y="66.346092"/>
     <use style="fill:#0000ff;stroke:#0000ff;" x="304.281498" xlink:href="#m5afec471a7" y="66.61934"/>
     <use style="fill:#0000ff;stroke:#0000ff;" x="310.393218" xlink:href="#m5afec471a7" y="67.1078"/>
     <use style="fill:#0000ff;stroke:#0000ff;" x="316.504937" xlink:href="#m5afec471a7" y="67.599216"/>
     <use style="fill:#0000ff;stroke:#0000ff;" x="322.616657" xlink:href="#m5afec471a7" y="67.918762"/>
     <use style="fill:#0000ff;stroke:#0000ff;" x="328.728377" xlink:href="#m5afec471a7" y="67.984257"/>
     <use style="fill:#0000ff;stroke:#0000ff;" x="334.840096" xlink:href="#m5afec471a7" y="67.818524"/>
     <use style="fill:#0000ff;stroke:#0000ff;" x="340.951816" xlink:href="#m5afec471a7" y="67.522258"/>
     <use style="fill:#0000ff;stroke:#0000ff;" x="347.063535" xlink:href="#m5afec471a7" y="67.224199"/>
     <use style="fill:#0000ff;stroke:#0000ff;" x="353.175255" xlink:href="#m5afec471a7" y="67.030385"/>
    </g>
   </g>
   <g id="line2d_12">
    <path clip-path="url(#p260df3f6b4)" d="M 53.700994 11.692562 
L 54.923338 13.225273 
L 56.145682 15.556035 
L 57.368026 18.616612 
L 58.59037 22.329876 
L 59.812714 26.611379 
L 62.257402 36.514479 
L 65.924434 53.280363 
L 69.591465 70.061187 
L 72.036153 80.110799 
L 73.258497 84.578786 
L 74.480841 88.598748 
L 75.703185 92.124534 
L 76.925529 95.119636 
L 78.147873 97.557388 
L 79.370217 99.421005 
L 80.592561 100.70346 
L 81.814905 101.407213 
L 83.037248 101.543802 
L 84.259592 101.133298 
L 85.481936 100.203662 
L 86.70428 98.789984 
L 87.926624 96.93365 
L 89.148968 94.681441 
L 90.371312 92.084578 
L 92.816 86.078045 
L 96.483032 75.909022 
L 100.150063 65.730938 
L 102.594751 59.63554 
L 103.817095 56.925569 
L 105.039439 54.487338 
L 106.261783 52.348841 
L 107.484127 50.53222 
L 108.706471 49.053649 
L 109.928815 47.923308 
L 111.151159 47.14546 
L 112.373503 46.718612 
L 113.595846 46.635767 
L 114.81819 46.88475 
L 116.040534 47.448602 
L 117.262878 48.306042 
L 118.485222 49.431965 
L 119.707566 50.797999 
L 122.152254 54.124034 
L 124.596942 58.014113 
L 131.931005 70.266302 
L 134.375693 73.698093 
L 135.598037 75.176954 
L 136.820381 76.474019 
L 138.042725 77.575855 
L 139.265069 78.472654 
L 140.487413 79.15824 
L 141.709757 79.630029 
L 142.932101 79.888925 
L 144.154444 79.939173 
L 145.376788 79.788158 
L 146.599132 79.446164 
L 147.821476 78.9261 
L 149.04382 78.243193 
L 151.488508 76.45932 
L 153.933196 74.249639 
L 157.600228 70.508665 
L 161.267259 66.764357 
L 163.711947 64.521986 
L 166.156635 62.628068 
L 168.601323 61.173061 
L 169.823667 60.629125 
L 171.046011 60.213296 
L 172.268355 59.927142 
L 173.490699 59.770113 
L 174.713043 59.739636 
L 175.935386 59.831232 
L 178.380074 60.354096 
L 180.824762 61.270836 
L 183.26945 62.494416 
L 186.936482 64.68619 
L 193.048201 68.432824 
L 195.492889 69.69531 
L 197.937577 70.716516 
L 200.382265 71.451772 
L 202.826953 71.877547 
L 205.271641 71.991275 
L 207.716328 71.809907 
L 210.161016 71.367359 
L 212.605704 70.711108 
L 216.272736 69.452423 
L 224.829143 66.319608 
L 228.496175 65.333461 
L 230.940863 64.887505 
L 233.385551 64.62926 
L 235.830239 64.56028 
L 238.274926 64.670286 
L 241.941958 65.123577 
L 245.60899 65.829787 
L 257.832429 68.42291 
L 261.499461 68.868935 
L 265.166493 69.060606 
L 268.833524 69.000685 
L 272.500556 68.72575 
L 277.389932 68.133415 
L 287.168683 66.845995 
L 292.058059 66.454076 
L 296.947435 66.333696 
L 301.83681 66.472911 
L 307.94853 66.900191 
L 320.171969 67.819255 
L 326.283689 67.989274 
L 332.395408 67.907337 
L 340.951816 67.522258 
L 351.952911 67.057466 
L 358.064631 66.9861 
L 358.064631 66.9861 
" style="fill:none;stroke:#000000;stroke-linecap:square;stroke-width:1.5;"/>
   </g>
   <g id="patch_3">
    <path d="M 38.482813 106.036364 
L 38.482813 7.2 
" style="fill:none;stroke:#000000;stroke-linecap:square;stroke-linejoin:miter;stroke-width:0.8;"/>
   </g>
   <g id="patch_4">
    <path d="M 373.282813 106.036364 
L 373.282813 7.2 
" style="fill:none;stroke:#000000;stroke-linecap:square;stroke-linejoin:miter;stroke-width:0.8;"/>
   </g>
   <g id="patch_5">
    <path d="M 38.482813 106.036364 
L 373.282813 106.036364 
" style="fill:none;stroke:#000000;stroke-linecap:square;stroke-linejoin:miter;stroke-width:0.8;"/>
   </g>
   <g id="patch_6">
    <path d="M 38.482813 7.2 
L 373.282813 7.2 
" style="fill:none;stroke:#000000;stroke-linecap:square;stroke-linejoin:miter;stroke-width:0.8;"/>
   </g>
  </g>
  <g id="axes_2">
   <g id="patch_7">
    <path d="M 38.482813 224.64 
L 373.282813 224.64 
L 373.282813 125.803636 
L 38.482813 125.803636 
z
" style="fill:#ffffff;"/>
   </g>
   <g id="matplotlib.axis_3">
    <g id="xtick_7">
     <g id="line2d_13">
      <g>
       <use style="stroke:#000000;stroke-width:0.8;" x="53.700994" xlink:href="#maf6b36628b" y="224.64"/>
      </g>
     </g>
     <g id="text_11">
      <!-- 0 -->
      <g transform="translate(50.519744 239.238437)scale(0.1 -0.1)">
       <use xlink:href="#DejaVuSans-48"/>
      </g>
     </g>
    </g>
    <g id="xtick_8">
     <g id="line2d_14">
      <g>
       <use style="stroke:#000000;stroke-width:0.8;" x="114.81819" xlink:href="#maf6b36628b" y="224.64"/>
      </g>
     </g>
     <g id="text_12">
      <!-- 1 -->
      <g transform="translate(111.63694 239.238437)scale(0.1 -0.1)">
       <use xlink:href="#DejaVuSans-49"/>
      </g>
     </g>
    </g>
    <g id="xtick_9">
     <g id="line2d_15">
      <g>
       <use style="stroke:#000000;stroke-width:0.8;" x="175.935386" xlink:href="#maf6b36628b" y="224.64"/>
      </g>
     </g>
     <g id="text_13">
      <!-- 2 -->
      <g transform="translate(172.754136 239.238437)scale(0.1 -0.1)">
       <use xlink:href="#DejaVuSans-50"/>
      </g>
     </g>
    </g>
    <g id="xtick_10">
     <g id="line2d_16">
      <g>
       <use style="stroke:#000000;stroke-width:0.8;" x="237.052582" xlink:href="#maf6b36628b" y="224.64"/>
      </g>
     </g>
     <g id="text_14">
      <!-- 3 -->
      <g transform="translate(233.871332 239.238437)scale(0.1 -0.1)">
       <use xlink:href="#DejaVuSans-51"/>
      </g>
     </g>
    </g>
    <g id="xtick_11">
     <g id="line2d_17">
      <g>
       <use style="stroke:#000000;stroke-width:0.8;" x="298.169779" xlink:href="#maf6b36628b" y="224.64"/>
      </g>
     </g>
     <g id="text_15">
      <!-- 4 -->
      <g transform="translate(294.988529 239.238437)scale(0.1 -0.1)">
       <use xlink:href="#DejaVuSans-52"/>
      </g>
     </g>
    </g>
    <g id="xtick_12">
     <g id="line2d_18">
      <g>
       <use style="stroke:#000000;stroke-width:0.8;" x="359.286975" xlink:href="#maf6b36628b" y="224.64"/>
      </g>
     </g>
     <g id="text_16">
      <!-- 5 -->
      <g transform="translate(356.105725 239.238437)scale(0.1 -0.1)">
       <use xlink:href="#DejaVuSans-53"/>
      </g>
     </g>
    </g>
   </g>
   <g id="matplotlib.axis_4">
    <g id="ytick_5">
     <g id="line2d_19">
      <g>
       <use style="stroke:#000000;stroke-width:0.8;" x="38.482813" xlink:href="#m479f626842" y="220.147438"/>
      </g>
     </g>
     <g id="text_17">
      <!-- −1 -->
      <g transform="translate(16.740625 223.946657)scale(0.1 -0.1)">
       <use xlink:href="#DejaVuSans-8722"/>
       <use x="83.789062" xlink:href="#DejaVuSans-49"/>
      </g>
     </g>
    </g>
    <g id="ytick_6">
     <g id="line2d_20">
      <g>
       <use style="stroke:#000000;stroke-width:0.8;" x="38.482813" xlink:href="#m479f626842" y="175.221818"/>
      </g>
     </g>
     <g id="text_18">
      <!-- 0 -->
      <g transform="translate(25.120313 179.021037)scale(0.1 -0.1)">
       <use xlink:href="#DejaVuSans-48"/>
      </g>
     </g>
    </g>
    <g id="ytick_7">
     <g id="line2d_21">
      <g>
       <use style="stroke:#000000;stroke-width:0.8;" x="38.482813" xlink:href="#m479f626842" y="130.296198"/>
      </g>
     </g>
     <g id="text_19">
      <!-- 1 -->
      <g transform="translate(25.120313 134.095417)scale(0.1 -0.1)">
       <use xlink:href="#DejaVuSans-49"/>
      </g>
     </g>
    </g>
   </g>
   <g id="line2d_22">
    <path clip-path="url(#p8a09940671)" d="M 53.700994 130.296198 
L 54.923338 130.65045 
L 56.145682 131.707619 
L 57.368026 133.451033 
L 58.59037 135.853197 
L 59.812714 138.876228 
L 61.035058 142.472451 
L 62.257402 146.58515 
L 64.70209 156.09342 
L 67.146777 166.803596 
L 73.258497 194.350217 
L 75.703185 203.858486 
L 76.925529 207.971186 
L 78.147873 211.567408 
L 79.370217 214.590439 
L 80.592561 216.992603 
L 81.814905 218.736017 
L 83.037248 219.793186 
L 84.259592 220.147438 
L 85.481936 219.793186 
L 86.70428 218.736017 
L 87.926624 216.992603 
L 89.148968 214.590439 
L 90.371312 211.567408 
L 91.593656 207.971186 
L 92.816 203.858486 
L 95.260688 194.350217 
L 97.705375 183.64004 
L 103.817095 156.09342 
L 106.261783 146.58515 
L 107.484127 142.472451 
L 108.706471 138.876228 
L 109.928815 135.853197 
L 111.151159 133.451033 
L 112.373503 131.707619 
L 113.595846 130.65045 
L 114.81819 130.296198 
L 116.040534 130.65045 
L 117.262878 131.707619 
L 118.485222 133.451033 
L 119.707566 135.853197 
L 120.92991 138.876228 
L 122.152254 142.472451 
L 123.374598 146.58515 
L 125.819286 156.09342 
L 128.263974 166.803596 
L 134.375693 194.350217 
L 136.820381 203.858486 
L 138.042725 207.971186 
L 139.265069 211.567408 
L 140.487413 214.590439 
L 141.709757 216.992603 
L 142.932101 218.736017 
L 144.154444 219.793186 
L 145.376788 220.147438 
L 146.599132 219.793186 
L 147.821476 218.736017 
L 149.04382 216.992603 
L 150.266164 214.590439 
L 151.488508 211.567408 
L 152.710852 207.971186 
L 153.933196 203.858486 
L 156.377884 194.350217 
L 158.822572 183.64004 
L 164.934291 156.09342 
L 167.378979 146.58515 
L 168.601323 142.472451 
L 169.823667 138.876228 
L 171.046011 135.853197 
L 172.268355 133.451033 
L 173.490699 131.707619 
L 174.713043 130.65045 
L 175.935386 130.296198 
L 177.15773 130.65045 
L 178.380074 131.707619 
L 179.602418 133.451033 
L 180.824762 135.853197 
L 182.047106 138.876228 
L 183.26945 142.472451 
L 184.491794 146.58515 
L 186.936482 156.09342 
L 189.38117 166.803596 
L 195.492889 194.350217 
L 197.937577 203.858486 
L 199.159921 207.971186 
L 200.382265 211.567408 
L 201.604609 214.590439 
L 202.826953 216.992603 
L 204.049297 218.736017 
L 205.271641 219.793186 
L 206.493984 220.147438 
L 207.716328 219.793186 
L 208.938672 218.736017 
L 210.161016 216.992603 
L 211.38336 214.590439 
L 212.605704 211.567408 
L 213.828048 207.971186 
L 215.050392 203.858486 
L 217.49508 194.350217 
L 219.939768 183.64004 
L 226.051487 156.09342 
L 228.496175 146.58515 
L 229.718519 142.472451 
L 230.940863 138.876228 
L 232.163207 135.853197 
L 233.385551 133.451033 
L 234.607895 131.707619 
L 235.830239 130.65045 
L 237.052582 130.296198 
L 238.274926 130.65045 
L 239.49727 131.707619 
L 240.719614 133.451033 
L 241.941958 135.853197 
L 243.164302 138.876228 
L 244.386646 142.472451 
L 245.60899 146.58515 
L 248.053678 156.09342 
L 250.498366 166.803596 
L 256.610085 194.350217 
L 259.054773 203.858486 
L 260.277117 207.971186 
L 261.499461 211.567408 
L 262.721805 214.590439 
L 263.944149 216.992603 
L 265.166493 218.736017 
L 266.388837 219.793186 
L 267.611181 220.147438 
L 268.833524 219.793186 
L 270.055868 218.736017 
L 271.278212 216.992603 
L 272.500556 214.590439 
L 273.7229 211.567408 
L 274.945244 207.971186 
L 276.167588 203.858486 
L 278.612276 194.350217 
L 281.056964 183.64004 
L 287.168683 156.09342 
L 289.613371 146.58515 
L 290.835715 142.472451 
L 292.058059 138.876228 
L 293.280403 135.853197 
L 294.502747 133.451033 
L 295.725091 131.707619 
L 296.947435 130.65045 
L 298.169779 130.296198 
L 299.392122 130.65045 
L 300.614466 131.707619 
L 301.83681 133.451033 
L 303.059154 135.853197 
L 304.281498 138.876228 
L 305.503842 142.472451 
L 306.726186 146.58515 
L 309.170874 156.09342 
L 311.615562 166.803596 
L 317.727281 194.350217 
L 320.171969 203.858486 
L 321.394313 207.971186 
L 322.616657 211.567408 
L 323.839001 214.590439 
L 325.061345 216.992603 
L 326.283689 218.736017 
L 327.506033 219.793186 
L 328.728377 220.147438 
L 329.95072 219.793186 
L 331.173064 218.736017 
L 332.395408 216.992603 
L 333.617752 214.590439 
L 334.840096 211.567408 
L 336.06244 207.971186 
L 337.284784 203.858486 
L 339.729472 194.350217 
L 342.17416 183.64004 
L 348.285879 156.09342 
L 350.730567 146.58515 
L 351.952911 142.472451 
L 353.175255 138.876228 
L 354.397599 135.853197 
L 355.619943 133.451033 
L 356.842287 131.707619 
L 358.064631 130.65045 
L 358.064631 130.65045 
" style="fill:none;stroke:#ff0000;stroke-dasharray:5.55,2.4;stroke-dashoffset:0;stroke-width:1.5;"/>
   </g>
   <g id="patch_8">
    <path d="M 38.482813 224.64 
L 38.482813 125.803636 
" style="fill:none;stroke:#000000;stroke-linecap:square;stroke-linejoin:miter;stroke-width:0.8;"/>
   </g>
   <g id="patch_9">
    <path d="M 373.282813 224.64 
L 373.282813 125.803636 
" style="fill:none;stroke:#000000;stroke-linecap:square;stroke-linejoin:miter;stroke-width:0.8;"/>
   </g>
   <g id="patch_10">
    <path d="M 38.482813 224.64 
L 373.282813 224.64 
" style="fill:none;stroke:#000000;stroke-linecap:square;stroke-linejoin:miter;stroke-width:0.8;"/>
   </g>
   <g id="patch_11">
    <path d="M 38.482813 125.803636 
L 373.282813 125.803636 
" style="fill:none;stroke:#000000;stroke-linecap:square;stroke-linejoin:miter;stroke-width:0.8;"/>
   </g>
  </g>
 </g>
 <defs>
  <clipPath id="p260df3f6b4">
   <rect height="98.836364" width="334.8" x="38.482813" y="7.2"/>
  </clipPath>
  <clipPath id="p8a09940671">
   <rect height="98.836364" width="334.8" x="38.482813" y="125.803636"/>
  </clipPath>
 </defs>
</svg>
