<?xml version="1.0" encoding="utf-8" standalone="no"?>
<!DOCTYPE svg PUBLIC "-//W3C//DTD SVG 1.1//EN"
  "http://www.w3.org/Graphics/SVG/1.1/DTD/svg11.dtd">
<!-- Created with matplotlib (https://matplotlib.org/) -->
<svg height="248.518125pt" version="1.1" viewBox="0 0 262.322106 248.518125" width="262.322106pt" xmlns="http://www.w3.org/2000/svg" xmlns:xlink="http://www.w3.org/1999/xlink">
 <metadata>
  <rdf:RDF xmlns:cc="http://creativecommons.org/ns#" xmlns:dc="http://purl.org/dc/elements/1.1/" xmlns:rdf="http://www.w3.org/1999/02/22-rdf-syntax-ns#">
   <cc:Work>
    <dc:type rdf:resource="http://purl.org/dc/dcmitype/StillImage"/>
    <dc:date>2021-04-11T16:02:38.571593</dc:date>
    <dc:format>image/svg+xml</dc:format>
    <dc:creator>
     <cc:Agent>
      <dc:title>Matplotlib v3.3.4, https://matplotlib.org/</dc:title>
     </cc:Agent>
    </dc:creator>
   </cc:Work>
  </rdf:RDF>
 </metadata>
 <defs>
  <style type="text/css">*{stroke-linecap:butt;stroke-linejoin:round;}</style>
 </defs>
 <g id="figure_1">
  <g id="patch_1">
   <path d="M 0 248.518125 
L 262.322106 248.518125 
L 262.322106 0 
L 0 0 
z
" style="fill:none;"/>
  </g>
  <g id="axes_1">
   <g id="patch_2">
    <path d="M 30.103125 224.64 
L 253.303125 224.64 
L 253.303125 7.2 
L 30.103125 7.2 
z
" style="fill:#ffffff;"/>
   </g>
   <g id="PathCollection_1">
    <defs>
     <path d="M -3 3 
L 3 -3 
M -3 -3 
L 3 3 
" id="m60126f0bd9" style="stroke:#1f77b4;stroke-width:1.5;"/>
    </defs>
    <g clip-path="url(#p4ee97a8772)">
     <use style="fill:#1f77b4;stroke:#1f77b4;stroke-width:1.5;" x="237.817673" xlink:href="#m60126f0bd9" y="41.017281"/>
     <use style="fill:#1f77b4;stroke:#1f77b4;stroke-width:1.5;" x="106.538318" xlink:href="#m60126f0bd9" y="206.442078"/>
     <use style="fill:#1f77b4;stroke:#1f77b4;stroke-width:1.5;" x="64.229471" xlink:href="#m60126f0bd9" y="69.315585"/>
     <use style="fill:#1f77b4;stroke:#1f77b4;stroke-width:1.5;" x="64.376247" xlink:href="#m60126f0bd9" y="114.163282"/>
     <use style="fill:#1f77b4;stroke:#1f77b4;stroke-width:1.5;" x="99.94689" xlink:href="#m60126f0bd9" y="178.629967"/>
     <use style="fill:#1f77b4;stroke:#1f77b4;stroke-width:1.5;" x="47.41895" xlink:href="#m60126f0bd9" y="148.168371"/>
     <use style="fill:#1f77b4;stroke:#1f77b4;stroke-width:1.5;" x="64.552423" xlink:href="#m60126f0bd9" y="24.435185"/>
     <use style="fill:#1f77b4;stroke:#1f77b4;stroke-width:1.5;" x="229.314281" xlink:href="#m60126f0bd9" y="59.696604"/>
     <use style="fill:#1f77b4;stroke:#1f77b4;stroke-width:1.5;" x="134.717938" xlink:href="#m60126f0bd9" y="205.777599"/>
     <use style="fill:#1f77b4;stroke:#1f77b4;stroke-width:1.5;" x="187.271232" xlink:href="#m60126f0bd9" y="176.610568"/>
     <use style="fill:#1f77b4;stroke:#1f77b4;stroke-width:1.5;" x="110.341778" xlink:href="#m60126f0bd9" y="207.449576"/>
     <use style="fill:#1f77b4;stroke:#1f77b4;stroke-width:1.5;" x="61.060557" xlink:href="#m60126f0bd9" y="203.260841"/>
     <use style="fill:#1f77b4;stroke:#1f77b4;stroke-width:1.5;" x="80.18175" xlink:href="#m60126f0bd9" y="62.16756"/>
     <use style="fill:#1f77b4;stroke:#1f77b4;stroke-width:1.5;" x="180.649423" xlink:href="#m60126f0bd9" y="159.715144"/>
     <use style="fill:#1f77b4;stroke:#1f77b4;stroke-width:1.5;" x="179.926501" xlink:href="#m60126f0bd9" y="98.809502"/>
     <use style="fill:#1f77b4;stroke:#1f77b4;stroke-width:1.5;" x="76.286824" xlink:href="#m60126f0bd9" y="213.325029"/>
     <use style="fill:#1f77b4;stroke:#1f77b4;stroke-width:1.5;" x="152.522812" xlink:href="#m60126f0bd9" y="29.380386"/>
     <use style="fill:#1f77b4;stroke:#1f77b4;stroke-width:1.5;" x="143.591686" xlink:href="#m60126f0bd9" y="203.441404"/>
     <use style="fill:#1f77b4;stroke:#1f77b4;stroke-width:1.5;" x="167.92437" xlink:href="#m60126f0bd9" y="164.994798"/>
     <use style="fill:#1f77b4;stroke:#1f77b4;stroke-width:1.5;" x="40.24858" xlink:href="#m60126f0bd9" y="94.723083"/>
     <use style="fill:#1f77b4;stroke:#1f77b4;stroke-width:1.5;" x="210.750458" xlink:href="#m60126f0bd9" y="83.734321"/>
     <use style="fill:#1f77b4;stroke:#1f77b4;stroke-width:1.5;" x="64.471877" xlink:href="#m60126f0bd9" y="162.109714"/>
     <use style="fill:#1f77b4;stroke:#1f77b4;stroke-width:1.5;" x="61.028102" xlink:href="#m60126f0bd9" y="115.253665"/>
     <use style="fill:#1f77b4;stroke:#1f77b4;stroke-width:1.5;" x="113.70063" xlink:href="#m60126f0bd9" y="24.758994"/>
     <use style="fill:#1f77b4;stroke:#1f77b4;stroke-width:1.5;" x="69.556426" xlink:href="#m60126f0bd9" y="187.309713"/>
     <use style="fill:#1f77b4;stroke:#1f77b4;stroke-width:1.5;" x="55.490098" xlink:href="#m60126f0bd9" y="160.401171"/>
     <use style="fill:#1f77b4;stroke:#1f77b4;stroke-width:1.5;" x="235.082283" xlink:href="#m60126f0bd9" y="156.985088"/>
     <use style="fill:#1f77b4;stroke:#1f77b4;stroke-width:1.5;" x="40.884083" xlink:href="#m60126f0bd9" y="147.515428"/>
     <use style="fill:#1f77b4;stroke:#1f77b4;stroke-width:1.5;" x="181.78116" xlink:href="#m60126f0bd9" y="190.675939"/>
     <use style="fill:#1f77b4;stroke:#1f77b4;stroke-width:1.5;" x="236.937019" xlink:href="#m60126f0bd9" y="204.288914"/>
     <use style="fill:#1f77b4;stroke:#1f77b4;stroke-width:1.5;" x="134.586705" xlink:href="#m60126f0bd9" y="104.864004"/>
     <use style="fill:#1f77b4;stroke:#1f77b4;stroke-width:1.5;" x="72.047227" xlink:href="#m60126f0bd9" y="168.998366"/>
     <use style="fill:#1f77b4;stroke:#1f77b4;stroke-width:1.5;" x="146.731022" xlink:href="#m60126f0bd9" y="62.216025"/>
     <use style="fill:#1f77b4;stroke:#1f77b4;stroke-width:1.5;" x="228.603589" xlink:href="#m60126f0bd9" y="128.551913"/>
     <use style="fill:#1f77b4;stroke:#1f77b4;stroke-width:1.5;" x="179.08561" xlink:href="#m60126f0bd9" y="80.933021"/>
     <use style="fill:#1f77b4;stroke:#1f77b4;stroke-width:1.5;" x="143.749069" xlink:href="#m60126f0bd9" y="37.88559"/>
     <use style="fill:#1f77b4;stroke:#1f77b4;stroke-width:1.5;" x="162.671575" xlink:href="#m60126f0bd9" y="53.244237"/>
     <use style="fill:#1f77b4;stroke:#1f77b4;stroke-width:1.5;" x="139.952109" xlink:href="#m60126f0bd9" y="26.444486"/>
     <use style="fill:#1f77b4;stroke:#1f77b4;stroke-width:1.5;" x="229.115625" xlink:href="#m60126f0bd9" y="168.57689"/>
     <use style="fill:#1f77b4;stroke:#1f77b4;stroke-width:1.5;" x="144.371344" xlink:href="#m60126f0bd9" y="29.779243"/>
     <use style="fill:#1f77b4;stroke:#1f77b4;stroke-width:1.5;" x="212.85738" xlink:href="#m60126f0bd9" y="103.941264"/>
     <use style="fill:#1f77b4;stroke:#1f77b4;stroke-width:1.5;" x="116.167518" xlink:href="#m60126f0bd9" y="142.487875"/>
     <use style="fill:#1f77b4;stroke:#1f77b4;stroke-width:1.5;" x="145.401512" xlink:href="#m60126f0bd9" y="52.051989"/>
     <use style="fill:#1f77b4;stroke:#1f77b4;stroke-width:1.5;" x="240.862142" xlink:href="#m60126f0bd9" y="54.436095"/>
     <use style="fill:#1f77b4;stroke:#1f77b4;stroke-width:1.5;" x="101.306877" xlink:href="#m60126f0bd9" y="18.708852"/>
     <use style="fill:#1f77b4;stroke:#1f77b4;stroke-width:1.5;" x="72.07672" xlink:href="#m60126f0bd9" y="163.651289"/>
     <use style="fill:#1f77b4;stroke:#1f77b4;stroke-width:1.5;" x="204.203503" xlink:href="#m60126f0bd9" y="29.649679"/>
     <use style="fill:#1f77b4;stroke:#1f77b4;stroke-width:1.5;" x="172.740699" xlink:href="#m60126f0bd9" y="42.60565"/>
     <use style="fill:#1f77b4;stroke:#1f77b4;stroke-width:1.5;" x="116.572995" xlink:href="#m60126f0bd9" y="109.978443"/>
     <use style="fill:#1f77b4;stroke:#1f77b4;stroke-width:1.5;" x="227.258973" xlink:href="#m60126f0bd9" y="17.083636"/>
     <use style="fill:#1f77b4;stroke:#1f77b4;stroke-width:1.5;" x="69.016593" xlink:href="#m60126f0bd9" y="37.037261"/>
     <use style="fill:#1f77b4;stroke:#1f77b4;stroke-width:1.5;" x="169.988043" xlink:href="#m60126f0bd9" y="17.984145"/>
     <use style="fill:#1f77b4;stroke:#1f77b4;stroke-width:1.5;" x="71.854835" xlink:href="#m60126f0bd9" y="100.935578"/>
     <use style="fill:#1f77b4;stroke:#1f77b4;stroke-width:1.5;" x="40.57979" xlink:href="#m60126f0bd9" y="47.624024"/>
     <use style="fill:#1f77b4;stroke:#1f77b4;stroke-width:1.5;" x="236.501701" xlink:href="#m60126f0bd9" y="208.514279"/>
     <use style="fill:#1f77b4;stroke:#1f77b4;stroke-width:1.5;" x="70.26356" xlink:href="#m60126f0bd9" y="40.933909"/>
     <use style="fill:#1f77b4;stroke:#1f77b4;stroke-width:1.5;" x="191.120455" xlink:href="#m60126f0bd9" y="139.704505"/>
     <use style="fill:#1f77b4;stroke:#1f77b4;stroke-width:1.5;" x="130.728428" xlink:href="#m60126f0bd9" y="142.780566"/>
     <use style="fill:#1f77b4;stroke:#1f77b4;stroke-width:1.5;" x="56.712764" xlink:href="#m60126f0bd9" y="89.264924"/>
     <use style="fill:#1f77b4;stroke:#1f77b4;stroke-width:1.5;" x="185.848403" xlink:href="#m60126f0bd9" y="182.653264"/>
     <use style="fill:#1f77b4;stroke:#1f77b4;stroke-width:1.5;" x="146.17282" xlink:href="#m60126f0bd9" y="203.22193"/>
     <use style="fill:#1f77b4;stroke:#1f77b4;stroke-width:1.5;" x="100.547309" xlink:href="#m60126f0bd9" y="209.690651"/>
     <use style="fill:#1f77b4;stroke:#1f77b4;stroke-width:1.5;" x="56.237718" xlink:href="#m60126f0bd9" y="74.748319"/>
     <use style="fill:#1f77b4;stroke:#1f77b4;stroke-width:1.5;" x="130.659268" xlink:href="#m60126f0bd9" y="171.873373"/>
     <use style="fill:#1f77b4;stroke:#1f77b4;stroke-width:1.5;" x="149.963282" xlink:href="#m60126f0bd9" y="89.662394"/>
     <use style="fill:#1f77b4;stroke:#1f77b4;stroke-width:1.5;" x="121.492942" xlink:href="#m60126f0bd9" y="151.433982"/>
     <use style="fill:#1f77b4;stroke:#1f77b4;stroke-width:1.5;" x="125.43939" xlink:href="#m60126f0bd9" y="188.795567"/>
     <use style="fill:#1f77b4;stroke:#1f77b4;stroke-width:1.5;" x="243.15767" xlink:href="#m60126f0bd9" y="169.604335"/>
     <use style="fill:#1f77b4;stroke:#1f77b4;stroke-width:1.5;" x="160.935108" xlink:href="#m60126f0bd9" y="22.099401"/>
     <use style="fill:#1f77b4;stroke:#1f77b4;stroke-width:1.5;" x="54.46931" xlink:href="#m60126f0bd9" y="73.492274"/>
     <use style="fill:#1f77b4;stroke:#1f77b4;stroke-width:1.5;" x="142.818877" xlink:href="#m60126f0bd9" y="167.940057"/>
     <use style="fill:#1f77b4;stroke:#1f77b4;stroke-width:1.5;" x="87.183093" xlink:href="#m60126f0bd9" y="203.837438"/>
     <use style="fill:#1f77b4;stroke:#1f77b4;stroke-width:1.5;" x="194.055833" xlink:href="#m60126f0bd9" y="191.964207"/>
     <use style="fill:#1f77b4;stroke:#1f77b4;stroke-width:1.5;" x="163.913472" xlink:href="#m60126f0bd9" y="100.320907"/>
     <use style="fill:#1f77b4;stroke:#1f77b4;stroke-width:1.5;" x="188.526868" xlink:href="#m60126f0bd9" y="135.937073"/>
     <use style="fill:#1f77b4;stroke:#1f77b4;stroke-width:1.5;" x="165.367776" xlink:href="#m60126f0bd9" y="47.24051"/>
     <use style="fill:#1f77b4;stroke:#1f77b4;stroke-width:1.5;" x="66.148898" xlink:href="#m60126f0bd9" y="98.25873"/>
     <use style="fill:#1f77b4;stroke:#1f77b4;stroke-width:1.5;" x="88.594173" xlink:href="#m60126f0bd9" y="43.646414"/>
     <use style="fill:#1f77b4;stroke:#1f77b4;stroke-width:1.5;" x="224.802058" xlink:href="#m60126f0bd9" y="76.075679"/>
     <use style="fill:#1f77b4;stroke:#1f77b4;stroke-width:1.5;" x="97.997864" xlink:href="#m60126f0bd9" y="70.663108"/>
     <use style="fill:#1f77b4;stroke:#1f77b4;stroke-width:1.5;" x="208.685584" xlink:href="#m60126f0bd9" y="89.489414"/>
     <use style="fill:#1f77b4;stroke:#1f77b4;stroke-width:1.5;" x="210.944381" xlink:href="#m60126f0bd9" y="132.750369"/>
     <use style="fill:#1f77b4;stroke:#1f77b4;stroke-width:1.5;" x="128.703527" xlink:href="#m60126f0bd9" y="204.056892"/>
     <use style="fill:#1f77b4;stroke:#1f77b4;stroke-width:1.5;" x="85.222206" xlink:href="#m60126f0bd9" y="99.748225"/>
     <use style="fill:#1f77b4;stroke:#1f77b4;stroke-width:1.5;" x="113.41439" xlink:href="#m60126f0bd9" y="63.156029"/>
     <use style="fill:#1f77b4;stroke:#1f77b4;stroke-width:1.5;" x="165.844372" xlink:href="#m60126f0bd9" y="34.156648"/>
     <use style="fill:#1f77b4;stroke:#1f77b4;stroke-width:1.5;" x="162.207603" xlink:href="#m60126f0bd9" y="143.658233"/>
     <use style="fill:#1f77b4;stroke:#1f77b4;stroke-width:1.5;" x="175.454605" xlink:href="#m60126f0bd9" y="214.756364"/>
     <use style="fill:#1f77b4;stroke:#1f77b4;stroke-width:1.5;" x="195.142026" xlink:href="#m60126f0bd9" y="194.350886"/>
     <use style="fill:#1f77b4;stroke:#1f77b4;stroke-width:1.5;" x="214.558526" xlink:href="#m60126f0bd9" y="37.486991"/>
     <use style="fill:#1f77b4;stroke:#1f77b4;stroke-width:1.5;" x="85.965895" xlink:href="#m60126f0bd9" y="124.806959"/>
     <use style="fill:#1f77b4;stroke:#1f77b4;stroke-width:1.5;" x="118.445906" xlink:href="#m60126f0bd9" y="34.643911"/>
     <use style="fill:#1f77b4;stroke:#1f77b4;stroke-width:1.5;" x="223.935005" xlink:href="#m60126f0bd9" y="73.880571"/>
     <use style="fill:#1f77b4;stroke:#1f77b4;stroke-width:1.5;" x="234.606913" xlink:href="#m60126f0bd9" y="179.083534"/>
     <use style="fill:#1f77b4;stroke:#1f77b4;stroke-width:1.5;" x="132.977673" xlink:href="#m60126f0bd9" y="171.207424"/>
     <use style="fill:#1f77b4;stroke:#1f77b4;stroke-width:1.5;" x="218.579442" xlink:href="#m60126f0bd9" y="120.083304"/>
     <use style="fill:#1f77b4;stroke:#1f77b4;stroke-width:1.5;" x="116.587175" xlink:href="#m60126f0bd9" y="122.257083"/>
     <use style="fill:#1f77b4;stroke:#1f77b4;stroke-width:1.5;" x="220.538325" xlink:href="#m60126f0bd9" y="182.326738"/>
     <use style="fill:#1f77b4;stroke:#1f77b4;stroke-width:1.5;" x="233.473112" xlink:href="#m60126f0bd9" y="182.342591"/>
     <use style="fill:#1f77b4;stroke:#1f77b4;stroke-width:1.5;" x="97.488897" xlink:href="#m60126f0bd9" y="129.278956"/>
    </g>
   </g>
   <g id="matplotlib.axis_1">
    <g id="xtick_1">
     <g id="line2d_1">
      <defs>
       <path d="M 0 0 
L 0 3.5 
" id="mb70726fadb" style="stroke:#000000;stroke-width:0.8;"/>
      </defs>
      <g>
       <use style="stroke:#000000;stroke-width:0.8;" x="33.713127" xlink:href="#mb70726fadb" y="224.64"/>
      </g>
     </g>
     <g id="text_1">
      <!-- 0.0 -->
      <g transform="translate(25.761564 239.238437)scale(0.1 -0.1)">
       <defs>
        <path d="M 31.78125 66.40625 
Q 24.171875 66.40625 20.328125 58.90625 
Q 16.5 51.421875 16.5 36.375 
Q 16.5 21.390625 20.328125 13.890625 
Q 24.171875 6.390625 31.78125 6.390625 
Q 39.453125 6.390625 43.28125 13.890625 
Q 47.125 21.390625 47.125 36.375 
Q 47.125 51.421875 43.28125 58.90625 
Q 39.453125 66.40625 31.78125 66.40625 
z
M 31.78125 74.21875 
Q 44.046875 74.21875 50.515625 64.515625 
Q 56.984375 54.828125 56.984375 36.375 
Q 56.984375 17.96875 50.515625 8.265625 
Q 44.046875 -1.421875 31.78125 -1.421875 
Q 19.53125 -1.421875 13.0625 8.265625 
Q 6.59375 17.96875 6.59375 36.375 
Q 6.59375 54.828125 13.0625 64.515625 
Q 19.53125 74.21875 31.78125 74.21875 
z
" id="DejaVuSans-48"/>
        <path d="M 10.6875 12.40625 
L 21 12.40625 
L 21 0 
L 10.6875 0 
z
" id="DejaVuSans-46"/>
       </defs>
       <use xlink:href="#DejaVuSans-48"/>
       <use x="63.623047" xlink:href="#DejaVuSans-46"/>
       <use x="95.410156" xlink:href="#DejaVuSans-48"/>
      </g>
     </g>
    </g>
    <g id="xtick_2">
     <g id="line2d_2">
      <g>
       <use style="stroke:#000000;stroke-width:0.8;" x="76.40461" xlink:href="#mb70726fadb" y="224.64"/>
      </g>
     </g>
     <g id="text_2">
      <!-- 0.2 -->
      <g transform="translate(68.453048 239.238437)scale(0.1 -0.1)">
       <defs>
        <path d="M 19.1875 8.296875 
L 53.609375 8.296875 
L 53.609375 0 
L 7.328125 0 
L 7.328125 8.296875 
Q 12.9375 14.109375 22.625 23.890625 
Q 32.328125 33.6875 34.8125 36.53125 
Q 39.546875 41.84375 41.421875 45.53125 
Q 43.3125 49.21875 43.3125 52.78125 
Q 43.3125 58.59375 39.234375 62.25 
Q 35.15625 65.921875 28.609375 65.921875 
Q 23.96875 65.921875 18.8125 64.3125 
Q 13.671875 62.703125 7.8125 59.421875 
L 7.8125 69.390625 
Q 13.765625 71.78125 18.9375 73 
Q 24.125 74.21875 28.421875 74.21875 
Q 39.75 74.21875 46.484375 68.546875 
Q 53.21875 62.890625 53.21875 53.421875 
Q 53.21875 48.921875 51.53125 44.890625 
Q 49.859375 40.875 45.40625 35.40625 
Q 44.1875 33.984375 37.640625 27.21875 
Q 31.109375 20.453125 19.1875 8.296875 
z
" id="DejaVuSans-50"/>
       </defs>
       <use xlink:href="#DejaVuSans-48"/>
       <use x="63.623047" xlink:href="#DejaVuSans-46"/>
       <use x="95.410156" xlink:href="#DejaVuSans-50"/>
      </g>
     </g>
    </g>
    <g id="xtick_3">
     <g id="line2d_3">
      <g>
       <use style="stroke:#000000;stroke-width:0.8;" x="119.096094" xlink:href="#mb70726fadb" y="224.64"/>
      </g>
     </g>
     <g id="text_3">
      <!-- 0.4 -->
      <g transform="translate(111.144531 239.238437)scale(0.1 -0.1)">
       <defs>
        <path d="M 37.796875 64.3125 
L 12.890625 25.390625 
L 37.796875 25.390625 
z
M 35.203125 72.90625 
L 47.609375 72.90625 
L 47.609375 25.390625 
L 58.015625 25.390625 
L 58.015625 17.1875 
L 47.609375 17.1875 
L 47.609375 0 
L 37.796875 0 
L 37.796875 17.1875 
L 4.890625 17.1875 
L 4.890625 26.703125 
z
" id="DejaVuSans-52"/>
       </defs>
       <use xlink:href="#DejaVuSans-48"/>
       <use x="63.623047" xlink:href="#DejaVuSans-46"/>
       <use x="95.410156" xlink:href="#DejaVuSans-52"/>
      </g>
     </g>
    </g>
    <g id="xtick_4">
     <g id="line2d_4">
      <g>
       <use style="stroke:#000000;stroke-width:0.8;" x="161.787577" xlink:href="#mb70726fadb" y="224.64"/>
      </g>
     </g>
     <g id="text_4">
      <!-- 0.6 -->
      <g transform="translate(153.836014 239.238437)scale(0.1 -0.1)">
       <defs>
        <path d="M 33.015625 40.375 
Q 26.375 40.375 22.484375 35.828125 
Q 18.609375 31.296875 18.609375 23.390625 
Q 18.609375 15.53125 22.484375 10.953125 
Q 26.375 6.390625 33.015625 6.390625 
Q 39.65625 6.390625 43.53125 10.953125 
Q 47.40625 15.53125 47.40625 23.390625 
Q 47.40625 31.296875 43.53125 35.828125 
Q 39.65625 40.375 33.015625 40.375 
z
M 52.59375 71.296875 
L 52.59375 62.3125 
Q 48.875 64.0625 45.09375 64.984375 
Q 41.3125 65.921875 37.59375 65.921875 
Q 27.828125 65.921875 22.671875 59.328125 
Q 17.53125 52.734375 16.796875 39.40625 
Q 19.671875 43.65625 24.015625 45.921875 
Q 28.375 48.1875 33.59375 48.1875 
Q 44.578125 48.1875 50.953125 41.515625 
Q 57.328125 34.859375 57.328125 23.390625 
Q 57.328125 12.15625 50.6875 5.359375 
Q 44.046875 -1.421875 33.015625 -1.421875 
Q 20.359375 -1.421875 13.671875 8.265625 
Q 6.984375 17.96875 6.984375 36.375 
Q 6.984375 53.65625 15.1875 63.9375 
Q 23.390625 74.21875 37.203125 74.21875 
Q 40.921875 74.21875 44.703125 73.484375 
Q 48.484375 72.75 52.59375 71.296875 
z
" id="DejaVuSans-54"/>
       </defs>
       <use xlink:href="#DejaVuSans-48"/>
       <use x="63.623047" xlink:href="#DejaVuSans-46"/>
       <use x="95.410156" xlink:href="#DejaVuSans-54"/>
      </g>
     </g>
    </g>
    <g id="xtick_5">
     <g id="line2d_5">
      <g>
       <use style="stroke:#000000;stroke-width:0.8;" x="204.47906" xlink:href="#mb70726fadb" y="224.64"/>
      </g>
     </g>
     <g id="text_5">
      <!-- 0.8 -->
      <g transform="translate(196.527498 239.238437)scale(0.1 -0.1)">
       <defs>
        <path d="M 31.78125 34.625 
Q 24.75 34.625 20.71875 30.859375 
Q 16.703125 27.09375 16.703125 20.515625 
Q 16.703125 13.921875 20.71875 10.15625 
Q 24.75 6.390625 31.78125 6.390625 
Q 38.8125 6.390625 42.859375 10.171875 
Q 46.921875 13.96875 46.921875 20.515625 
Q 46.921875 27.09375 42.890625 30.859375 
Q 38.875 34.625 31.78125 34.625 
z
M 21.921875 38.8125 
Q 15.578125 40.375 12.03125 44.71875 
Q 8.5 49.078125 8.5 55.328125 
Q 8.5 64.0625 14.71875 69.140625 
Q 20.953125 74.21875 31.78125 74.21875 
Q 42.671875 74.21875 48.875 69.140625 
Q 55.078125 64.0625 55.078125 55.328125 
Q 55.078125 49.078125 51.53125 44.71875 
Q 48 40.375 41.703125 38.8125 
Q 48.828125 37.15625 52.796875 32.3125 
Q 56.78125 27.484375 56.78125 20.515625 
Q 56.78125 9.90625 50.3125 4.234375 
Q 43.84375 -1.421875 31.78125 -1.421875 
Q 19.734375 -1.421875 13.25 4.234375 
Q 6.78125 9.90625 6.78125 20.515625 
Q 6.78125 27.484375 10.78125 32.3125 
Q 14.796875 37.15625 21.921875 38.8125 
z
M 18.3125 54.390625 
Q 18.3125 48.734375 21.84375 45.5625 
Q 25.390625 42.390625 31.78125 42.390625 
Q 38.140625 42.390625 41.71875 45.5625 
Q 45.3125 48.734375 45.3125 54.390625 
Q 45.3125 60.0625 41.71875 63.234375 
Q 38.140625 66.40625 31.78125 66.40625 
Q 25.390625 66.40625 21.84375 63.234375 
Q 18.3125 60.0625 18.3125 54.390625 
z
" id="DejaVuSans-56"/>
       </defs>
       <use xlink:href="#DejaVuSans-48"/>
       <use x="63.623047" xlink:href="#DejaVuSans-46"/>
       <use x="95.410156" xlink:href="#DejaVuSans-56"/>
      </g>
     </g>
    </g>
    <g id="xtick_6">
     <g id="line2d_6">
      <g>
       <use style="stroke:#000000;stroke-width:0.8;" x="247.170544" xlink:href="#mb70726fadb" y="224.64"/>
      </g>
     </g>
     <g id="text_6">
      <!-- 1.0 -->
      <g transform="translate(239.218981 239.238437)scale(0.1 -0.1)">
       <defs>
        <path d="M 12.40625 8.296875 
L 28.515625 8.296875 
L 28.515625 63.921875 
L 10.984375 60.40625 
L 10.984375 69.390625 
L 28.421875 72.90625 
L 38.28125 72.90625 
L 38.28125 8.296875 
L 54.390625 8.296875 
L 54.390625 0 
L 12.40625 0 
z
" id="DejaVuSans-49"/>
       </defs>
       <use xlink:href="#DejaVuSans-49"/>
       <use x="63.623047" xlink:href="#DejaVuSans-46"/>
       <use x="95.410156" xlink:href="#DejaVuSans-48"/>
      </g>
     </g>
    </g>
   </g>
   <g id="matplotlib.axis_2">
    <g id="ytick_1">
     <g id="line2d_7">
      <defs>
       <path d="M 0 0 
L -3.5 0 
" id="ma7f0f19aef" style="stroke:#000000;stroke-width:0.8;"/>
      </defs>
      <g>
       <use style="stroke:#000000;stroke-width:0.8;" x="30.103125" xlink:href="#ma7f0f19aef" y="216.973832"/>
      </g>
     </g>
     <g id="text_7">
      <!-- 0.0 -->
      <g transform="translate(7.2 220.773051)scale(0.1 -0.1)">
       <use xlink:href="#DejaVuSans-48"/>
       <use x="63.623047" xlink:href="#DejaVuSans-46"/>
       <use x="95.410156" xlink:href="#DejaVuSans-48"/>
      </g>
     </g>
    </g>
    <g id="ytick_2">
     <g id="line2d_8">
      <g>
       <use style="stroke:#000000;stroke-width:0.8;" x="30.103125" xlink:href="#ma7f0f19aef" y="176.799154"/>
      </g>
     </g>
     <g id="text_8">
      <!-- 0.2 -->
      <g transform="translate(7.2 180.598372)scale(0.1 -0.1)">
       <use xlink:href="#DejaVuSans-48"/>
       <use x="63.623047" xlink:href="#DejaVuSans-46"/>
       <use x="95.410156" xlink:href="#DejaVuSans-50"/>
      </g>
     </g>
    </g>
    <g id="ytick_3">
     <g id="line2d_9">
      <g>
       <use style="stroke:#000000;stroke-width:0.8;" x="30.103125" xlink:href="#ma7f0f19aef" y="136.624475"/>
      </g>
     </g>
     <g id="text_9">
      <!-- 0.4 -->
      <g transform="translate(7.2 140.423694)scale(0.1 -0.1)">
       <use xlink:href="#DejaVuSans-48"/>
       <use x="63.623047" xlink:href="#DejaVuSans-46"/>
       <use x="95.410156" xlink:href="#DejaVuSans-52"/>
      </g>
     </g>
    </g>
    <g id="ytick_4">
     <g id="line2d_10">
      <g>
       <use style="stroke:#000000;stroke-width:0.8;" x="30.103125" xlink:href="#ma7f0f19aef" y="96.449797"/>
      </g>
     </g>
     <g id="text_10">
      <!-- 0.6 -->
      <g transform="translate(7.2 100.249016)scale(0.1 -0.1)">
       <use xlink:href="#DejaVuSans-48"/>
       <use x="63.623047" xlink:href="#DejaVuSans-46"/>
       <use x="95.410156" xlink:href="#DejaVuSans-54"/>
      </g>
     </g>
    </g>
    <g id="ytick_5">
     <g id="line2d_11">
      <g>
       <use style="stroke:#000000;stroke-width:0.8;" x="30.103125" xlink:href="#ma7f0f19aef" y="56.275119"/>
      </g>
     </g>
     <g id="text_11">
      <!-- 0.8 -->
      <g transform="translate(7.2 60.074337)scale(0.1 -0.1)">
       <use xlink:href="#DejaVuSans-48"/>
       <use x="63.623047" xlink:href="#DejaVuSans-46"/>
       <use x="95.410156" xlink:href="#DejaVuSans-56"/>
      </g>
     </g>
    </g>
    <g id="ytick_6">
     <g id="line2d_12">
      <g>
       <use style="stroke:#000000;stroke-width:0.8;" x="30.103125" xlink:href="#ma7f0f19aef" y="16.10044"/>
      </g>
     </g>
     <g id="text_12">
      <!-- 1.0 -->
      <g transform="translate(7.2 19.899659)scale(0.1 -0.1)">
       <use xlink:href="#DejaVuSans-49"/>
       <use x="63.623047" xlink:href="#DejaVuSans-46"/>
       <use x="95.410156" xlink:href="#DejaVuSans-48"/>
      </g>
     </g>
    </g>
   </g>
   <g id="patch_3">
    <path d="M 30.103125 224.64 
L 30.103125 7.2 
" style="fill:none;stroke:#000000;stroke-linecap:square;stroke-linejoin:miter;stroke-width:0.8;"/>
   </g>
   <g id="patch_4">
    <path d="M 253.303125 224.64 
L 253.303125 7.2 
" style="fill:none;stroke:#000000;stroke-linecap:square;stroke-linejoin:miter;stroke-width:0.8;"/>
   </g>
   <g id="patch_5">
    <path d="M 30.103125 224.64 
L 253.303125 224.64 
" style="fill:none;stroke:#000000;stroke-linecap:square;stroke-linejoin:miter;stroke-width:0.8;"/>
   </g>
   <g id="patch_6">
    <path d="M 30.103125 7.2 
L 253.303125 7.2 
" style="fill:none;stroke:#000000;stroke-linecap:square;stroke-linejoin:miter;stroke-width:0.8;"/>
   </g>
  </g>
 </g>
 <defs>
  <clipPath id="p4ee97a8772">
   <rect height="217.44" width="223.2" x="30.103125" y="7.2"/>
  </clipPath>
 </defs>
</svg>
