<?xml version="1.0" encoding="utf-8" standalone="no"?>
<!DOCTYPE svg PUBLIC "-//W3C//DTD SVG 1.1//EN"
  "http://www.w3.org/Graphics/SVG/1.1/DTD/svg11.dtd">
<!-- Created with matplotlib (https://matplotlib.org/) -->
<svg height="302.878125pt" version="1.1" viewBox="0 0 316.303125 302.878125" width="316.303125pt" xmlns="http://www.w3.org/2000/svg" xmlns:xlink="http://www.w3.org/1999/xlink">
 <metadata>
  <rdf:RDF xmlns:cc="http://creativecommons.org/ns#" xmlns:dc="http://purl.org/dc/elements/1.1/" xmlns:rdf="http://www.w3.org/1999/02/22-rdf-syntax-ns#">
   <cc:Work>
    <dc:type rdf:resource="http://purl.org/dc/dcmitype/StillImage"/>
    <dc:date>2021-04-11T16:02:38.762425</dc:date>
    <dc:format>image/svg+xml</dc:format>
    <dc:creator>
     <cc:Agent>
      <dc:title>Matplotlib v3.3.4, https://matplotlib.org/</dc:title>
     </cc:Agent>
    </dc:creator>
   </cc:Work>
  </rdf:RDF>
 </metadata>
 <defs>
  <style type="text/css">*{stroke-linecap:butt;stroke-linejoin:round;}</style>
 </defs>
 <g id="figure_1">
  <g id="patch_1">
   <path d="M 0 302.878125 
L 316.303125 302.878125 
L 316.303125 0 
L 0 0 
z
" style="fill:none;"/>
  </g>
  <g id="axes_1">
   <g id="patch_2">
    <path d="M 30.103125 279 
L 309.103125 279 
L 309.103125 7.2 
L 30.103125 7.2 
z
" style="fill:#ffffff;"/>
   </g>
   <g id="PathCollection_1">
    <defs>
     <path d="M 0 3 
C 0.795609 3 1.55874 2.683901 2.12132 2.12132 
C 2.683901 1.55874 3 0.795609 3 0 
C 3 -0.795609 2.683901 -1.55874 2.12132 -2.12132 
C 1.55874 -2.683901 0.795609 -3 0 -3 
C -0.795609 -3 -1.55874 -2.683901 -2.12132 -2.12132 
C -2.683901 -1.55874 -3 -0.795609 -3 0 
C -3 0.795609 -2.683901 1.55874 -2.12132 2.12132 
C -1.55874 2.683901 -0.795609 3 0 3 
z
" id="m11add815c7" style="stroke:#ffc0cb;"/>
    </defs>
    <g clip-path="url(#pe295385e15)">
     <use style="fill:#ffc0cb;stroke:#ffc0cb;" x="225.009259" xlink:href="#m11add815c7" y="160.782535"/>
     <use style="fill:#ffc0cb;stroke:#ffc0cb;" x="249.963525" xlink:href="#m11add815c7" y="242.922562"/>
     <use style="fill:#ffc0cb;stroke:#ffc0cb;" x="52.650852" xlink:href="#m11add815c7" y="150.3836"/>
     <use style="fill:#ffc0cb;stroke:#ffc0cb;" x="125.528361" xlink:href="#m11add815c7" y="171.472461"/>
     <use style="fill:#ffc0cb;stroke:#ffc0cb;" x="153.763704" xlink:href="#m11add815c7" y="120.751377"/>
     <use style="fill:#ffc0cb;stroke:#ffc0cb;" x="206.254931" xlink:href="#m11add815c7" y="107.088893"/>
     <use style="fill:#ffc0cb;stroke:#ffc0cb;" x="72.415555" xlink:href="#m11add815c7" y="205.927369"/>
     <use style="fill:#ffc0cb;stroke:#ffc0cb;" x="183.415535" xlink:href="#m11add815c7" y="126.460818"/>
     <use style="fill:#ffc0cb;stroke:#ffc0cb;" x="90.168024" xlink:href="#m11add815c7" y="65.136411"/>
     <use style="fill:#ffc0cb;stroke:#ffc0cb;" x="228.775844" xlink:href="#m11add815c7" y="240.995839"/>
     <use style="fill:#ffc0cb;stroke:#ffc0cb;" x="280.241075" xlink:href="#m11add815c7" y="248.918171"/>
     <use style="fill:#ffc0cb;stroke:#ffc0cb;" x="51.060978" xlink:href="#m11add815c7" y="244.054684"/>
     <use style="fill:#ffc0cb;stroke:#ffc0cb;" x="281.128402" xlink:href="#m11add815c7" y="213.100904"/>
     <use style="fill:#ffc0cb;stroke:#ffc0cb;" x="222.161783" xlink:href="#m11add815c7" y="160.304024"/>
     <use style="fill:#ffc0cb;stroke:#ffc0cb;" x="140.416039" xlink:href="#m11add815c7" y="86.113719"/>
     <use style="fill:#ffc0cb;stroke:#ffc0cb;" x="112.588036" xlink:href="#m11add815c7" y="239.486507"/>
     <use style="fill:#ffc0cb;stroke:#ffc0cb;" x="89.679469" xlink:href="#m11add815c7" y="123.179259"/>
     <use style="fill:#ffc0cb;stroke:#ffc0cb;" x="134.870738" xlink:href="#m11add815c7" y="60.599908"/>
     <use style="fill:#ffc0cb;stroke:#ffc0cb;" x="215.466153" xlink:href="#m11add815c7" y="179.554686"/>
     <use style="fill:#ffc0cb;stroke:#ffc0cb;" x="44.02311" xlink:href="#m11add815c7" y="205.531021"/>
     <use style="fill:#ffc0cb;stroke:#ffc0cb;" x="173.200171" xlink:href="#m11add815c7" y="227.5582"/>
     <use style="fill:#ffc0cb;stroke:#ffc0cb;" x="206.677418" xlink:href="#m11add815c7" y="134.899221"/>
     <use style="fill:#ffc0cb;stroke:#ffc0cb;" x="173.540347" xlink:href="#m11add815c7" y="169.045277"/>
     <use style="fill:#ffc0cb;stroke:#ffc0cb;" x="190.60189" xlink:href="#m11add815c7" y="77.397105"/>
     <use style="fill:#ffc0cb;stroke:#ffc0cb;" x="98.012934" xlink:href="#m11add815c7" y="77.315637"/>
     <use style="fill:#ffc0cb;stroke:#ffc0cb;" x="125.120972" xlink:href="#m11add815c7" y="52.783073"/>
     <use style="fill:#ffc0cb;stroke:#ffc0cb;" x="119.827396" xlink:href="#m11add815c7" y="90.419183"/>
     <use style="fill:#ffc0cb;stroke:#ffc0cb;" x="166.340837" xlink:href="#m11add815c7" y="150.470401"/>
     <use style="fill:#ffc0cb;stroke:#ffc0cb;" x="137.886263" xlink:href="#m11add815c7" y="41.535939"/>
     <use style="fill:#ffc0cb;stroke:#ffc0cb;" x="130.055646" xlink:href="#m11add815c7" y="88.436343"/>
     <use style="fill:#ffc0cb;stroke:#ffc0cb;" x="200.485321" xlink:href="#m11add815c7" y="180.094393"/>
     <use style="fill:#ffc0cb;stroke:#ffc0cb;" x="161.449913" xlink:href="#m11add815c7" y="76.719561"/>
     <use style="fill:#ffc0cb;stroke:#ffc0cb;" x="199.053141" xlink:href="#m11add815c7" y="203.991637"/>
     <use style="fill:#ffc0cb;stroke:#ffc0cb;" x="111.00527" xlink:href="#m11add815c7" y="37.378125"/>
     <use style="fill:#ffc0cb;stroke:#ffc0cb;" x="227.222114" xlink:href="#m11add815c7" y="183.771252"/>
     <use style="fill:#ffc0cb;stroke:#ffc0cb;" x="104.827892" xlink:href="#m11add815c7" y="195.051103"/>
     <use style="fill:#ffc0cb;stroke:#ffc0cb;" x="63.854647" xlink:href="#m11add815c7" y="47.966144"/>
     <use style="fill:#ffc0cb;stroke:#ffc0cb;" x="71.284714" xlink:href="#m11add815c7" y="166.175894"/>
     <use style="fill:#ffc0cb;stroke:#ffc0cb;" x="160.769776" xlink:href="#m11add815c7" y="109.245027"/>
     <use style="fill:#ffc0cb;stroke:#ffc0cb;" x="161.472731" xlink:href="#m11add815c7" y="116.694719"/>
     <use style="fill:#ffc0cb;stroke:#ffc0cb;" x="53.843238" xlink:href="#m11add815c7" y="235.315844"/>
     <use style="fill:#ffc0cb;stroke:#ffc0cb;" x="103.931058" xlink:href="#m11add815c7" y="72.45332"/>
     <use style="fill:#ffc0cb;stroke:#ffc0cb;" x="96.621878" xlink:href="#m11add815c7" y="220.055228"/>
     <use style="fill:#ffc0cb;stroke:#ffc0cb;" x="290.331129" xlink:href="#m11add815c7" y="244.282471"/>
     <use style="fill:#ffc0cb;stroke:#ffc0cb;" x="139.805092" xlink:href="#m11add815c7" y="154.695605"/>
     <use style="fill:#ffc0cb;stroke:#ffc0cb;" x="209.834951" xlink:href="#m11add815c7" y="161.744622"/>
     <use style="fill:#ffc0cb;stroke:#ffc0cb;" x="168.882779" xlink:href="#m11add815c7" y="91.322205"/>
     <use style="fill:#ffc0cb;stroke:#ffc0cb;" x="126.619404" xlink:href="#m11add815c7" y="247.775977"/>
     <use style="fill:#ffc0cb;stroke:#ffc0cb;" x="293.585207" xlink:href="#m11add815c7" y="223.81334"/>
     <use style="fill:#ffc0cb;stroke:#ffc0cb;" x="158.394018" xlink:href="#m11add815c7" y="112.910517"/>
     <use style="fill:#ffc0cb;stroke:#ffc0cb;" x="86.916662" xlink:href="#m11add815c7" y="253.433841"/>
     <use style="fill:#ffc0cb;stroke:#ffc0cb;" x="177.953285" xlink:href="#m11add815c7" y="154.55992"/>
     <use style="fill:#ffc0cb;stroke:#ffc0cb;" x="58.594634" xlink:href="#m11add815c7" y="116.585083"/>
     <use style="fill:#ffc0cb;stroke:#ffc0cb;" x="80.117589" xlink:href="#m11add815c7" y="262.581491"/>
     <use style="fill:#ffc0cb;stroke:#ffc0cb;" x="123.625304" xlink:href="#m11add815c7" y="260.885697"/>
     <use style="fill:#ffc0cb;stroke:#ffc0cb;" x="175.226903" xlink:href="#m11add815c7" y="263.580781"/>
     <use style="fill:#ffc0cb;stroke:#ffc0cb;" x="88.676064" xlink:href="#m11add815c7" y="153.789046"/>
     <use style="fill:#ffc0cb;stroke:#ffc0cb;" x="103.777485" xlink:href="#m11add815c7" y="107.68202"/>
     <use style="fill:#ffc0cb;stroke:#ffc0cb;" x="90.256378" xlink:href="#m11add815c7" y="63.448058"/>
     <use style="fill:#ffc0cb;stroke:#ffc0cb;" x="167.665315" xlink:href="#m11add815c7" y="170.952707"/>
     <use style="fill:#ffc0cb;stroke:#ffc0cb;" x="81.223756" xlink:href="#m11add815c7" y="118.735679"/>
     <use style="fill:#ffc0cb;stroke:#ffc0cb;" x="287.590464" xlink:href="#m11add815c7" y="230.407326"/>
     <use style="fill:#ffc0cb;stroke:#ffc0cb;" x="64.814132" xlink:href="#m11add815c7" y="107.409628"/>
     <use style="fill:#ffc0cb;stroke:#ffc0cb;" x="94.642581" xlink:href="#m11add815c7" y="132.390018"/>
     <use style="fill:#ffc0cb;stroke:#ffc0cb;" x="125.611542" xlink:href="#m11add815c7" y="170.865129"/>
     <use style="fill:#ffc0cb;stroke:#ffc0cb;" x="93.846914" xlink:href="#m11add815c7" y="99.508335"/>
     <use style="fill:#ffc0cb;stroke:#ffc0cb;" x="91.45604" xlink:href="#m11add815c7" y="103.978215"/>
     <use style="fill:#ffc0cb;stroke:#ffc0cb;" x="189.583938" xlink:href="#m11add815c7" y="250.957222"/>
     <use style="fill:#ffc0cb;stroke:#ffc0cb;" x="53.847242" xlink:href="#m11add815c7" y="87.213706"/>
     <use style="fill:#ffc0cb;stroke:#ffc0cb;" x="42.784943" xlink:href="#m11add815c7" y="100.078214"/>
     <use style="fill:#ffc0cb;stroke:#ffc0cb;" x="145.944799" xlink:href="#m11add815c7" y="222.045906"/>
     <use style="fill:#ffc0cb;stroke:#ffc0cb;" x="149.549746" xlink:href="#m11add815c7" y="73.618353"/>
     <use style="fill:#ffc0cb;stroke:#ffc0cb;" x="110.923076" xlink:href="#m11add815c7" y="253.598331"/>
     <use style="fill:#ffc0cb;stroke:#ffc0cb;" x="94.799427" xlink:href="#m11add815c7" y="237.14774"/>
     <use style="fill:#ffc0cb;stroke:#ffc0cb;" x="237.01174" xlink:href="#m11add815c7" y="124.50719"/>
     <use style="fill:#ffc0cb;stroke:#ffc0cb;" x="188.774889" xlink:href="#m11add815c7" y="217.803267"/>
     <use style="fill:#ffc0cb;stroke:#ffc0cb;" x="194.324228" xlink:href="#m11add815c7" y="182.487217"/>
     <use style="fill:#ffc0cb;stroke:#ffc0cb;" x="164.605307" xlink:href="#m11add815c7" y="210.108977"/>
     <use style="fill:#ffc0cb;stroke:#ffc0cb;" x="193.433751" xlink:href="#m11add815c7" y="99.994707"/>
     <use style="fill:#ffc0cb;stroke:#ffc0cb;" x="54.915776" xlink:href="#m11add815c7" y="215.784506"/>
     <use style="fill:#ffc0cb;stroke:#ffc0cb;" x="135.793208" xlink:href="#m11add815c7" y="147.97273"/>
     <use style="fill:#ffc0cb;stroke:#ffc0cb;" x="186.924274" xlink:href="#m11add815c7" y="101.585612"/>
     <use style="fill:#ffc0cb;stroke:#ffc0cb;" x="204.713892" xlink:href="#m11add815c7" y="208.276358"/>
     <use style="fill:#ffc0cb;stroke:#ffc0cb;" x="158.647844" xlink:href="#m11add815c7" y="99.73809"/>
     <use style="fill:#ffc0cb;stroke:#ffc0cb;" x="85.983414" xlink:href="#m11add815c7" y="164.859357"/>
     <use style="fill:#ffc0cb;stroke:#ffc0cb;" x="261.342485" xlink:href="#m11add815c7" y="260.956267"/>
     <use style="fill:#ffc0cb;stroke:#ffc0cb;" x="142.452569" xlink:href="#m11add815c7" y="177.233197"/>
     <use style="fill:#ffc0cb;stroke:#ffc0cb;" x="73.380847" xlink:href="#m11add815c7" y="44.686751"/>
     <use style="fill:#ffc0cb;stroke:#ffc0cb;" x="177.250401" xlink:href="#m11add815c7" y="75.243149"/>
     <use style="fill:#ffc0cb;stroke:#ffc0cb;" x="189.134186" xlink:href="#m11add815c7" y="254.873425"/>
     <use style="fill:#ffc0cb;stroke:#ffc0cb;" x="168.819819" xlink:href="#m11add815c7" y="84.873543"/>
     <use style="fill:#ffc0cb;stroke:#ffc0cb;" x="162.834649" xlink:href="#m11add815c7" y="178.30999"/>
     <use style="fill:#ffc0cb;stroke:#ffc0cb;" x="174.688539" xlink:href="#m11add815c7" y="157.78763"/>
     <use style="fill:#ffc0cb;stroke:#ffc0cb;" x="249.664001" xlink:href="#m11add815c7" y="175.142746"/>
     <use style="fill:#ffc0cb;stroke:#ffc0cb;" x="224.882723" xlink:href="#m11add815c7" y="194.884501"/>
     <use style="fill:#ffc0cb;stroke:#ffc0cb;" x="72.563467" xlink:href="#m11add815c7" y="204.780787"/>
     <use style="fill:#ffc0cb;stroke:#ffc0cb;" x="99.569834" xlink:href="#m11add815c7" y="110.023307"/>
     <use style="fill:#ffc0cb;stroke:#ffc0cb;" x="71.768398" xlink:href="#m11add815c7" y="29.386412"/>
     <use style="fill:#ffc0cb;stroke:#ffc0cb;" x="226.506606" xlink:href="#m11add815c7" y="128.372174"/>
     <use style="fill:#ffc0cb;stroke:#ffc0cb;" x="86.435342" xlink:href="#m11add815c7" y="99.650535"/>
     <use style="fill:#ffc0cb;stroke:#ffc0cb;" x="88.175188" xlink:href="#m11add815c7" y="114.055383"/>
     <use style="fill:#ffc0cb;stroke:#ffc0cb;" x="126.42976" xlink:href="#m11add815c7" y="100.451607"/>
     <use style="fill:#ffc0cb;stroke:#ffc0cb;" x="230.460566" xlink:href="#m11add815c7" y="157.079886"/>
     <use style="fill:#ffc0cb;stroke:#ffc0cb;" x="124.396044" xlink:href="#m11add815c7" y="213.778481"/>
     <use style="fill:#ffc0cb;stroke:#ffc0cb;" x="168.460881" xlink:href="#m11add815c7" y="208.933708"/>
     <use style="fill:#ffc0cb;stroke:#ffc0cb;" x="283.219157" xlink:href="#m11add815c7" y="251.50596"/>
     <use style="fill:#ffc0cb;stroke:#ffc0cb;" x="240.928896" xlink:href="#m11add815c7" y="138.558152"/>
     <use style="fill:#ffc0cb;stroke:#ffc0cb;" x="188.080902" xlink:href="#m11add815c7" y="88.686963"/>
     <use style="fill:#ffc0cb;stroke:#ffc0cb;" x="231.571121" xlink:href="#m11add815c7" y="136.429972"/>
     <use style="fill:#ffc0cb;stroke:#ffc0cb;" x="252.827371" xlink:href="#m11add815c7" y="208.454186"/>
     <use style="fill:#ffc0cb;stroke:#ffc0cb;" x="143.069143" xlink:href="#m11add815c7" y="122.28012"/>
     <use style="fill:#ffc0cb;stroke:#ffc0cb;" x="216.561951" xlink:href="#m11add815c7" y="217.008383"/>
     <use style="fill:#ffc0cb;stroke:#ffc0cb;" x="214.544221" xlink:href="#m11add815c7" y="150.869334"/>
     <use style="fill:#ffc0cb;stroke:#ffc0cb;" x="206.016294" xlink:href="#m11add815c7" y="113.85307"/>
     <use style="fill:#ffc0cb;stroke:#ffc0cb;" x="235.206593" xlink:href="#m11add815c7" y="255.872831"/>
     <use style="fill:#ffc0cb;stroke:#ffc0cb;" x="97.929115" xlink:href="#m11add815c7" y="86.286572"/>
     <use style="fill:#ffc0cb;stroke:#ffc0cb;" x="284.915351" xlink:href="#m11add815c7" y="190.833319"/>
     <use style="fill:#ffc0cb;stroke:#ffc0cb;" x="150.551514" xlink:href="#m11add815c7" y="187.831482"/>
     <use style="fill:#ffc0cb;stroke:#ffc0cb;" x="139.227487" xlink:href="#m11add815c7" y="108.76793"/>
     <use style="fill:#ffc0cb;stroke:#ffc0cb;" x="117.759749" xlink:href="#m11add815c7" y="163.543125"/>
     <use style="fill:#ffc0cb;stroke:#ffc0cb;" x="164.170916" xlink:href="#m11add815c7" y="104.110499"/>
     <use style="fill:#ffc0cb;stroke:#ffc0cb;" x="141.476601" xlink:href="#m11add815c7" y="42.242866"/>
     <use style="fill:#ffc0cb;stroke:#ffc0cb;" x="91.484678" xlink:href="#m11add815c7" y="242.929921"/>
     <use style="fill:#ffc0cb;stroke:#ffc0cb;" x="77.836278" xlink:href="#m11add815c7" y="95.8509"/>
     <use style="fill:#ffc0cb;stroke:#ffc0cb;" x="53.581399" xlink:href="#m11add815c7" y="25.358255"/>
     <use style="fill:#ffc0cb;stroke:#ffc0cb;" x="214.167507" xlink:href="#m11add815c7" y="105.380834"/>
     <use style="fill:#ffc0cb;stroke:#ffc0cb;" x="67.872865" xlink:href="#m11add815c7" y="188.57557"/>
     <use style="fill:#ffc0cb;stroke:#ffc0cb;" x="156.416422" xlink:href="#m11add815c7" y="192.179985"/>
     <use style="fill:#ffc0cb;stroke:#ffc0cb;" x="100.683898" xlink:href="#m11add815c7" y="107.81899"/>
     <use style="fill:#ffc0cb;stroke:#ffc0cb;" x="240.132768" xlink:href="#m11add815c7" y="201.704354"/>
     <use style="fill:#ffc0cb;stroke:#ffc0cb;" x="159.414862" xlink:href="#m11add815c7" y="218.227514"/>
     <use style="fill:#ffc0cb;stroke:#ffc0cb;" x="135.867069" xlink:href="#m11add815c7" y="66.417277"/>
     <use style="fill:#ffc0cb;stroke:#ffc0cb;" x="276.309844" xlink:href="#m11add815c7" y="227.609925"/>
     <use style="fill:#ffc0cb;stroke:#ffc0cb;" x="62.494659" xlink:href="#m11add815c7" y="133.334235"/>
     <use style="fill:#ffc0cb;stroke:#ffc0cb;" x="249.814494" xlink:href="#m11add815c7" y="265.547058"/>
     <use style="fill:#ffc0cb;stroke:#ffc0cb;" x="261.204984" xlink:href="#m11add815c7" y="159.234721"/>
     <use style="fill:#ffc0cb;stroke:#ffc0cb;" x="115.705422" xlink:href="#m11add815c7" y="265.154774"/>
     <use style="fill:#ffc0cb;stroke:#ffc0cb;" x="168.125503" xlink:href="#m11add815c7" y="120.783673"/>
     <use style="fill:#ffc0cb;stroke:#ffc0cb;" x="282.097691" xlink:href="#m11add815c7" y="221.575136"/>
     <use style="fill:#ffc0cb;stroke:#ffc0cb;" x="149.743705" xlink:href="#m11add815c7" y="63.540566"/>
     <use style="fill:#ffc0cb;stroke:#ffc0cb;" x="51.050344" xlink:href="#m11add815c7" y="39.745553"/>
     <use style="fill:#ffc0cb;stroke:#ffc0cb;" x="116.991382" xlink:href="#m11add815c7" y="131.820491"/>
     <use style="fill:#ffc0cb;stroke:#ffc0cb;" x="126.398883" xlink:href="#m11add815c7" y="107.465578"/>
     <use style="fill:#ffc0cb;stroke:#ffc0cb;" x="155.520266" xlink:href="#m11add815c7" y="59.973192"/>
     <use style="fill:#ffc0cb;stroke:#ffc0cb;" x="233.305107" xlink:href="#m11add815c7" y="266.645455"/>
     <use style="fill:#ffc0cb;stroke:#ffc0cb;" x="236.757066" xlink:href="#m11add815c7" y="108.589835"/>
     <use style="fill:#ffc0cb;stroke:#ffc0cb;" x="179.645389" xlink:href="#m11add815c7" y="62.90064"/>
     <use style="fill:#ffc0cb;stroke:#ffc0cb;" x="148.672123" xlink:href="#m11add815c7" y="77.012748"/>
     <use style="fill:#ffc0cb;stroke:#ffc0cb;" x="139.878555" xlink:href="#m11add815c7" y="246.471568"/>
     <use style="fill:#ffc0cb;stroke:#ffc0cb;" x="105.302668" xlink:href="#m11add815c7" y="211.069156"/>
     <use style="fill:#ffc0cb;stroke:#ffc0cb;" x="64.644795" xlink:href="#m11add815c7" y="261.712245"/>
     <use style="fill:#ffc0cb;stroke:#ffc0cb;" x="220.268927" xlink:href="#m11add815c7" y="123.051991"/>
     <use style="fill:#ffc0cb;stroke:#ffc0cb;" x="105.425743" xlink:href="#m11add815c7" y="28.377645"/>
    </g>
   </g>
   <g id="PathCollection_2">
    <defs>
     <path d="M 0 3 
C 0.795609 3 1.55874 2.683901 2.12132 2.12132 
C 2.683901 1.55874 3 0.795609 3 0 
C 3 -0.795609 2.683901 -1.55874 2.12132 -2.12132 
C 1.55874 -2.683901 0.795609 -3 0 -3 
C -0.795609 -3 -1.55874 -2.683901 -2.12132 -2.12132 
C -2.683901 -1.55874 -3 -0.795609 -3 0 
C -3 0.795609 -2.683901 1.55874 -2.12132 2.12132 
C -1.55874 2.683901 -0.795609 3 0 3 
z
" id="m5359fe7da0" style="stroke:#00ffff;"/>
    </defs>
    <g clip-path="url(#pe295385e15)">
     <use style="fill:#00ffff;stroke:#00ffff;" x="203.519415" xlink:href="#m5359fe7da0" y="32.245488"/>
     <use style="fill:#00ffff;stroke:#00ffff;" x="198.945713" xlink:href="#m5359fe7da0" y="46.868881"/>
     <use style="fill:#00ffff;stroke:#00ffff;" x="265.007771" xlink:href="#m5359fe7da0" y="130.681828"/>
     <use style="fill:#00ffff;stroke:#00ffff;" x="289.433111" xlink:href="#m5359fe7da0" y="21.764569"/>
     <use style="fill:#00ffff;stroke:#00ffff;" x="213.406204" xlink:href="#m5359fe7da0" y="40.518481"/>
     <use style="fill:#00ffff;stroke:#00ffff;" x="292.465916" xlink:href="#m5359fe7da0" y="32.518992"/>
     <use style="fill:#00ffff;stroke:#00ffff;" x="190.698711" xlink:href="#m5359fe7da0" y="19.554545"/>
     <use style="fill:#00ffff;stroke:#00ffff;" x="283.123917" xlink:href="#m5359fe7da0" y="179.620504"/>
     <use style="fill:#00ffff;stroke:#00ffff;" x="296.421307" xlink:href="#m5359fe7da0" y="42.47139"/>
     <use style="fill:#00ffff;stroke:#00ffff;" x="217.626754" xlink:href="#m5359fe7da0" y="69.872527"/>
     <use style="fill:#00ffff;stroke:#00ffff;" x="247.642496" xlink:href="#m5359fe7da0" y="58.074021"/>
     <use style="fill:#00ffff;stroke:#00ffff;" x="152.760137" xlink:href="#m5359fe7da0" y="31.700892"/>
     <use style="fill:#00ffff;stroke:#00ffff;" x="262.855904" xlink:href="#m5359fe7da0" y="57.873906"/>
     <use style="fill:#00ffff;stroke:#00ffff;" x="290.001204" xlink:href="#m5359fe7da0" y="56.300048"/>
     <use style="fill:#00ffff;stroke:#00ffff;" x="204.517772" xlink:href="#m5359fe7da0" y="66.488032"/>
     <use style="fill:#00ffff;stroke:#00ffff;" x="277.656008" xlink:href="#m5359fe7da0" y="166.187396"/>
     <use style="fill:#00ffff;stroke:#00ffff;" x="219.257724" xlink:href="#m5359fe7da0" y="55.925297"/>
     <use style="fill:#00ffff;stroke:#00ffff;" x="202.156376" xlink:href="#m5359fe7da0" y="39.405986"/>
     <use style="fill:#00ffff;stroke:#00ffff;" x="269.039428" xlink:href="#m5359fe7da0" y="150.018402"/>
     <use style="fill:#00ffff;stroke:#00ffff;" x="222.476517" xlink:href="#m5359fe7da0" y="72.21295"/>
     <use style="fill:#00ffff;stroke:#00ffff;" x="278.638957" xlink:href="#m5359fe7da0" y="114.770346"/>
     <use style="fill:#00ffff;stroke:#00ffff;" x="293.817535" xlink:href="#m5359fe7da0" y="149.51858"/>
     <use style="fill:#00ffff;stroke:#00ffff;" x="194.210542" xlink:href="#m5359fe7da0" y="42.346143"/>
     <use style="fill:#00ffff;stroke:#00ffff;" x="267.55896" xlink:href="#m5359fe7da0" y="144.956201"/>
     <use style="fill:#00ffff;stroke:#00ffff;" x="289.342594" xlink:href="#m5359fe7da0" y="106.251882"/>
     <use style="fill:#00ffff;stroke:#00ffff;" x="273.028074" xlink:href="#m5359fe7da0" y="82.350475"/>
     <use style="fill:#00ffff;stroke:#00ffff;" x="293.095134" xlink:href="#m5359fe7da0" y="203.677538"/>
     <use style="fill:#00ffff;stroke:#00ffff;" x="169.615714" xlink:href="#m5359fe7da0" y="29.730323"/>
     <use style="fill:#00ffff;stroke:#00ffff;" x="270.829516" xlink:href="#m5359fe7da0" y="109.391753"/>
     <use style="fill:#00ffff;stroke:#00ffff;" x="270.602671" xlink:href="#m5359fe7da0" y="19.723065"/>
     <use style="fill:#00ffff;stroke:#00ffff;" x="292.902348" xlink:href="#m5359fe7da0" y="89.943311"/>
     <use style="fill:#00ffff;stroke:#00ffff;" x="97.4542" xlink:href="#m5359fe7da0" y="22.435187"/>
     <use style="fill:#00ffff;stroke:#00ffff;" x="250.511074" xlink:href="#m5359fe7da0" y="40.23828"/>
     <use style="fill:#00ffff;stroke:#00ffff;" x="276.061491" xlink:href="#m5359fe7da0" y="129.499897"/>
     <use style="fill:#00ffff;stroke:#00ffff;" x="232.628318" xlink:href="#m5359fe7da0" y="86.792921"/>
     <use style="fill:#00ffff;stroke:#00ffff;" x="267.168031" xlink:href="#m5359fe7da0" y="88.49708"/>
     <use style="fill:#00ffff;stroke:#00ffff;" x="173.849768" xlink:href="#m5359fe7da0" y="25.006336"/>
     <use style="fill:#00ffff;stroke:#00ffff;" x="295.420596" xlink:href="#m5359fe7da0" y="64.448313"/>
     <use style="fill:#00ffff;stroke:#00ffff;" x="279.100636" xlink:href="#m5359fe7da0" y="38.750493"/>
     <use style="fill:#00ffff;stroke:#00ffff;" x="125.055565" xlink:href="#m5359fe7da0" y="27.528358"/>
     <use style="fill:#00ffff;stroke:#00ffff;" x="208.854523" xlink:href="#m5359fe7da0" y="48.483833"/>
     <use style="fill:#00ffff;stroke:#00ffff;" x="245.765972" xlink:href="#m5359fe7da0" y="47.691167"/>
     <use style="fill:#00ffff;stroke:#00ffff;" x="267.685198" xlink:href="#m5359fe7da0" y="107.496471"/>
     <use style="fill:#00ffff;stroke:#00ffff;" x="226.206909" xlink:href="#m5359fe7da0" y="64.387221"/>
     <use style="fill:#00ffff;stroke:#00ffff;" x="281.637099" xlink:href="#m5359fe7da0" y="127.746885"/>
     <use style="fill:#00ffff;stroke:#00ffff;" x="220.946314" xlink:href="#m5359fe7da0" y="19.854681"/>
     <use style="fill:#00ffff;stroke:#00ffff;" x="144.960595" xlink:href="#m5359fe7da0" y="20.22025"/>
    </g>
   </g>
   <g id="matplotlib.axis_1">
    <g id="xtick_1">
     <g id="line2d_1">
      <defs>
       <path d="M 0 0 
L 0 3.5 
" id="mad0acf8369" style="stroke:#000000;stroke-width:0.8;"/>
      </defs>
      <g>
       <use style="stroke:#000000;stroke-width:0.8;" x="42.485206" xlink:href="#mad0acf8369" y="279"/>
      </g>
     </g>
     <g id="text_1">
      <!-- 0.0 -->
      <g transform="translate(34.533643 293.598437)scale(0.1 -0.1)">
       <defs>
        <path d="M 31.78125 66.40625 
Q 24.171875 66.40625 20.328125 58.90625 
Q 16.5 51.421875 16.5 36.375 
Q 16.5 21.390625 20.328125 13.890625 
Q 24.171875 6.390625 31.78125 6.390625 
Q 39.453125 6.390625 43.28125 13.890625 
Q 47.125 21.390625 47.125 36.375 
Q 47.125 51.421875 43.28125 58.90625 
Q 39.453125 66.40625 31.78125 66.40625 
z
M 31.78125 74.21875 
Q 44.046875 74.21875 50.515625 64.515625 
Q 56.984375 54.828125 56.984375 36.375 
Q 56.984375 17.96875 50.515625 8.265625 
Q 44.046875 -1.421875 31.78125 -1.421875 
Q 19.53125 -1.421875 13.0625 8.265625 
Q 6.59375 17.96875 6.59375 36.375 
Q 6.59375 54.828125 13.0625 64.515625 
Q 19.53125 74.21875 31.78125 74.21875 
z
" id="DejaVuSans-48"/>
        <path d="M 10.6875 12.40625 
L 21 12.40625 
L 21 0 
L 10.6875 0 
z
" id="DejaVuSans-46"/>
       </defs>
       <use xlink:href="#DejaVuSans-48"/>
       <use x="63.623047" xlink:href="#DejaVuSans-46"/>
       <use x="95.410156" xlink:href="#DejaVuSans-48"/>
      </g>
     </g>
    </g>
    <g id="xtick_2">
     <g id="line2d_2">
      <g>
       <use style="stroke:#000000;stroke-width:0.8;" x="94.024926" xlink:href="#mad0acf8369" y="279"/>
      </g>
     </g>
     <g id="text_2">
      <!-- 0.2 -->
      <g transform="translate(86.073363 293.598437)scale(0.1 -0.1)">
       <defs>
        <path d="M 19.1875 8.296875 
L 53.609375 8.296875 
L 53.609375 0 
L 7.328125 0 
L 7.328125 8.296875 
Q 12.9375 14.109375 22.625 23.890625 
Q 32.328125 33.6875 34.8125 36.53125 
Q 39.546875 41.84375 41.421875 45.53125 
Q 43.3125 49.21875 43.3125 52.78125 
Q 43.3125 58.59375 39.234375 62.25 
Q 35.15625 65.921875 28.609375 65.921875 
Q 23.96875 65.921875 18.8125 64.3125 
Q 13.671875 62.703125 7.8125 59.421875 
L 7.8125 69.390625 
Q 13.765625 71.78125 18.9375 73 
Q 24.125 74.21875 28.421875 74.21875 
Q 39.75 74.21875 46.484375 68.546875 
Q 53.21875 62.890625 53.21875 53.421875 
Q 53.21875 48.921875 51.53125 44.890625 
Q 49.859375 40.875 45.40625 35.40625 
Q 44.1875 33.984375 37.640625 27.21875 
Q 31.109375 20.453125 19.1875 8.296875 
z
" id="DejaVuSans-50"/>
       </defs>
       <use xlink:href="#DejaVuSans-48"/>
       <use x="63.623047" xlink:href="#DejaVuSans-46"/>
       <use x="95.410156" xlink:href="#DejaVuSans-50"/>
      </g>
     </g>
    </g>
    <g id="xtick_3">
     <g id="line2d_3">
      <g>
       <use style="stroke:#000000;stroke-width:0.8;" x="145.564646" xlink:href="#mad0acf8369" y="279"/>
      </g>
     </g>
     <g id="text_3">
      <!-- 0.4 -->
      <g transform="translate(137.613083 293.598437)scale(0.1 -0.1)">
       <defs>
        <path d="M 37.796875 64.3125 
L 12.890625 25.390625 
L 37.796875 25.390625 
z
M 35.203125 72.90625 
L 47.609375 72.90625 
L 47.609375 25.390625 
L 58.015625 25.390625 
L 58.015625 17.1875 
L 47.609375 17.1875 
L 47.609375 0 
L 37.796875 0 
L 37.796875 17.1875 
L 4.890625 17.1875 
L 4.890625 26.703125 
z
" id="DejaVuSans-52"/>
       </defs>
       <use xlink:href="#DejaVuSans-48"/>
       <use x="63.623047" xlink:href="#DejaVuSans-46"/>
       <use x="95.410156" xlink:href="#DejaVuSans-52"/>
      </g>
     </g>
    </g>
    <g id="xtick_4">
     <g id="line2d_4">
      <g>
       <use style="stroke:#000000;stroke-width:0.8;" x="197.104366" xlink:href="#mad0acf8369" y="279"/>
      </g>
     </g>
     <g id="text_4">
      <!-- 0.6 -->
      <g transform="translate(189.152804 293.598437)scale(0.1 -0.1)">
       <defs>
        <path d="M 33.015625 40.375 
Q 26.375 40.375 22.484375 35.828125 
Q 18.609375 31.296875 18.609375 23.390625 
Q 18.609375 15.53125 22.484375 10.953125 
Q 26.375 6.390625 33.015625 6.390625 
Q 39.65625 6.390625 43.53125 10.953125 
Q 47.40625 15.53125 47.40625 23.390625 
Q 47.40625 31.296875 43.53125 35.828125 
Q 39.65625 40.375 33.015625 40.375 
z
M 52.59375 71.296875 
L 52.59375 62.3125 
Q 48.875 64.0625 45.09375 64.984375 
Q 41.3125 65.921875 37.59375 65.921875 
Q 27.828125 65.921875 22.671875 59.328125 
Q 17.53125 52.734375 16.796875 39.40625 
Q 19.671875 43.65625 24.015625 45.921875 
Q 28.375 48.1875 33.59375 48.1875 
Q 44.578125 48.1875 50.953125 41.515625 
Q 57.328125 34.859375 57.328125 23.390625 
Q 57.328125 12.15625 50.6875 5.359375 
Q 44.046875 -1.421875 33.015625 -1.421875 
Q 20.359375 -1.421875 13.671875 8.265625 
Q 6.984375 17.96875 6.984375 36.375 
Q 6.984375 53.65625 15.1875 63.9375 
Q 23.390625 74.21875 37.203125 74.21875 
Q 40.921875 74.21875 44.703125 73.484375 
Q 48.484375 72.75 52.59375 71.296875 
z
" id="DejaVuSans-54"/>
       </defs>
       <use xlink:href="#DejaVuSans-48"/>
       <use x="63.623047" xlink:href="#DejaVuSans-46"/>
       <use x="95.410156" xlink:href="#DejaVuSans-54"/>
      </g>
     </g>
    </g>
    <g id="xtick_5">
     <g id="line2d_5">
      <g>
       <use style="stroke:#000000;stroke-width:0.8;" x="248.644086" xlink:href="#mad0acf8369" y="279"/>
      </g>
     </g>
     <g id="text_5">
      <!-- 0.8 -->
      <g transform="translate(240.692524 293.598437)scale(0.1 -0.1)">
       <defs>
        <path d="M 31.78125 34.625 
Q 24.75 34.625 20.71875 30.859375 
Q 16.703125 27.09375 16.703125 20.515625 
Q 16.703125 13.921875 20.71875 10.15625 
Q 24.75 6.390625 31.78125 6.390625 
Q 38.8125 6.390625 42.859375 10.171875 
Q 46.921875 13.96875 46.921875 20.515625 
Q 46.921875 27.09375 42.890625 30.859375 
Q 38.875 34.625 31.78125 34.625 
z
M 21.921875 38.8125 
Q 15.578125 40.375 12.03125 44.71875 
Q 8.5 49.078125 8.5 55.328125 
Q 8.5 64.0625 14.71875 69.140625 
Q 20.953125 74.21875 31.78125 74.21875 
Q 42.671875 74.21875 48.875 69.140625 
Q 55.078125 64.0625 55.078125 55.328125 
Q 55.078125 49.078125 51.53125 44.71875 
Q 48 40.375 41.703125 38.8125 
Q 48.828125 37.15625 52.796875 32.3125 
Q 56.78125 27.484375 56.78125 20.515625 
Q 56.78125 9.90625 50.3125 4.234375 
Q 43.84375 -1.421875 31.78125 -1.421875 
Q 19.734375 -1.421875 13.25 4.234375 
Q 6.78125 9.90625 6.78125 20.515625 
Q 6.78125 27.484375 10.78125 32.3125 
Q 14.796875 37.15625 21.921875 38.8125 
z
M 18.3125 54.390625 
Q 18.3125 48.734375 21.84375 45.5625 
Q 25.390625 42.390625 31.78125 42.390625 
Q 38.140625 42.390625 41.71875 45.5625 
Q 45.3125 48.734375 45.3125 54.390625 
Q 45.3125 60.0625 41.71875 63.234375 
Q 38.140625 66.40625 31.78125 66.40625 
Q 25.390625 66.40625 21.84375 63.234375 
Q 18.3125 60.0625 18.3125 54.390625 
z
" id="DejaVuSans-56"/>
       </defs>
       <use xlink:href="#DejaVuSans-48"/>
       <use x="63.623047" xlink:href="#DejaVuSans-46"/>
       <use x="95.410156" xlink:href="#DejaVuSans-56"/>
      </g>
     </g>
    </g>
    <g id="xtick_6">
     <g id="line2d_6">
      <g>
       <use style="stroke:#000000;stroke-width:0.8;" x="300.183806" xlink:href="#mad0acf8369" y="279"/>
      </g>
     </g>
     <g id="text_6">
      <!-- 1.0 -->
      <g transform="translate(292.232244 293.598437)scale(0.1 -0.1)">
       <defs>
        <path d="M 12.40625 8.296875 
L 28.515625 8.296875 
L 28.515625 63.921875 
L 10.984375 60.40625 
L 10.984375 69.390625 
L 28.421875 72.90625 
L 38.28125 72.90625 
L 38.28125 8.296875 
L 54.390625 8.296875 
L 54.390625 0 
L 12.40625 0 
z
" id="DejaVuSans-49"/>
       </defs>
       <use xlink:href="#DejaVuSans-49"/>
       <use x="63.623047" xlink:href="#DejaVuSans-46"/>
       <use x="95.410156" xlink:href="#DejaVuSans-48"/>
      </g>
     </g>
    </g>
   </g>
   <g id="matplotlib.axis_2">
    <g id="ytick_1">
     <g id="line2d_7">
      <defs>
       <path d="M 0 0 
L -3.5 0 
" id="m2e39e45bb2" style="stroke:#000000;stroke-width:0.8;"/>
      </defs>
      <g>
       <use style="stroke:#000000;stroke-width:0.8;" x="30.103125" xlink:href="#m2e39e45bb2" y="271.89421"/>
      </g>
     </g>
     <g id="text_7">
      <!-- 0.0 -->
      <g transform="translate(7.2 275.693429)scale(0.1 -0.1)">
       <use xlink:href="#DejaVuSans-48"/>
       <use x="63.623047" xlink:href="#DejaVuSans-46"/>
       <use x="95.410156" xlink:href="#DejaVuSans-48"/>
      </g>
     </g>
    </g>
    <g id="ytick_2">
     <g id="line2d_8">
      <g>
       <use style="stroke:#000000;stroke-width:0.8;" x="30.103125" xlink:href="#m2e39e45bb2" y="221.267371"/>
      </g>
     </g>
     <g id="text_8">
      <!-- 0.2 -->
      <g transform="translate(7.2 225.066589)scale(0.1 -0.1)">
       <use xlink:href="#DejaVuSans-48"/>
       <use x="63.623047" xlink:href="#DejaVuSans-46"/>
       <use x="95.410156" xlink:href="#DejaVuSans-50"/>
      </g>
     </g>
    </g>
    <g id="ytick_3">
     <g id="line2d_9">
      <g>
       <use style="stroke:#000000;stroke-width:0.8;" x="30.103125" xlink:href="#m2e39e45bb2" y="170.640531"/>
      </g>
     </g>
     <g id="text_9">
      <!-- 0.4 -->
      <g transform="translate(7.2 174.43975)scale(0.1 -0.1)">
       <use xlink:href="#DejaVuSans-48"/>
       <use x="63.623047" xlink:href="#DejaVuSans-46"/>
       <use x="95.410156" xlink:href="#DejaVuSans-52"/>
      </g>
     </g>
    </g>
    <g id="ytick_4">
     <g id="line2d_10">
      <g>
       <use style="stroke:#000000;stroke-width:0.8;" x="30.103125" xlink:href="#m2e39e45bb2" y="120.013691"/>
      </g>
     </g>
     <g id="text_10">
      <!-- 0.6 -->
      <g transform="translate(7.2 123.81291)scale(0.1 -0.1)">
       <use xlink:href="#DejaVuSans-48"/>
       <use x="63.623047" xlink:href="#DejaVuSans-46"/>
       <use x="95.410156" xlink:href="#DejaVuSans-54"/>
      </g>
     </g>
    </g>
    <g id="ytick_5">
     <g id="line2d_11">
      <g>
       <use style="stroke:#000000;stroke-width:0.8;" x="30.103125" xlink:href="#m2e39e45bb2" y="69.386852"/>
      </g>
     </g>
     <g id="text_11">
      <!-- 0.8 -->
      <g transform="translate(7.2 73.186071)scale(0.1 -0.1)">
       <use xlink:href="#DejaVuSans-48"/>
       <use x="63.623047" xlink:href="#DejaVuSans-46"/>
       <use x="95.410156" xlink:href="#DejaVuSans-56"/>
      </g>
     </g>
    </g>
    <g id="ytick_6">
     <g id="line2d_12">
      <g>
       <use style="stroke:#000000;stroke-width:0.8;" x="30.103125" xlink:href="#m2e39e45bb2" y="18.760012"/>
      </g>
     </g>
     <g id="text_12">
      <!-- 1.0 -->
      <g transform="translate(7.2 22.559231)scale(0.1 -0.1)">
       <use xlink:href="#DejaVuSans-49"/>
       <use x="63.623047" xlink:href="#DejaVuSans-46"/>
       <use x="95.410156" xlink:href="#DejaVuSans-48"/>
      </g>
     </g>
    </g>
   </g>
   <g id="patch_3">
    <path d="M 30.103125 279 
L 30.103125 7.2 
" style="fill:none;stroke:#000000;stroke-linecap:square;stroke-linejoin:miter;stroke-width:0.8;"/>
   </g>
   <g id="patch_4">
    <path d="M 309.103125 279 
L 309.103125 7.2 
" style="fill:none;stroke:#000000;stroke-linecap:square;stroke-linejoin:miter;stroke-width:0.8;"/>
   </g>
   <g id="patch_5">
    <path d="M 30.103125 279 
L 309.103125 279 
" style="fill:none;stroke:#000000;stroke-linecap:square;stroke-linejoin:miter;stroke-width:0.8;"/>
   </g>
   <g id="patch_6">
    <path d="M 30.103125 7.2 
L 309.103125 7.2 
" style="fill:none;stroke:#000000;stroke-linecap:square;stroke-linejoin:miter;stroke-width:0.8;"/>
   </g>
  </g>
 </g>
 <defs>
  <clipPath id="pe295385e15">
   <rect height="271.8" width="279" x="30.103125" y="7.2"/>
  </clipPath>
 </defs>
</svg>
