<?xml version="1.0" encoding="utf-8" standalone="no"?>
<!DOCTYPE svg PUBLIC "-//W3C//DTD SVG 1.1//EN"
  "http://www.w3.org/Graphics/SVG/1.1/DTD/svg11.dtd">
<!-- Created with matplotlib (https://matplotlib.org/) -->
<svg height="250.279184pt" version="1.1" viewBox="0 0 260.503125 250.279184" width="260.503125pt" xmlns="http://www.w3.org/2000/svg" xmlns:xlink="http://www.w3.org/1999/xlink">
 <metadata>
  <rdf:RDF xmlns:cc="http://creativecommons.org/ns#" xmlns:dc="http://purl.org/dc/elements/1.1/" xmlns:rdf="http://www.w3.org/1999/02/22-rdf-syntax-ns#">
   <cc:Work>
    <dc:type rdf:resource="http://purl.org/dc/dcmitype/StillImage"/>
    <dc:date>2021-03-02T10:47:23.864597</dc:date>
    <dc:format>image/svg+xml</dc:format>
    <dc:creator>
     <cc:Agent>
      <dc:title>Matplotlib v3.3.4, https://matplotlib.org/</dc:title>
     </cc:Agent>
    </dc:creator>
   </cc:Work>
  </rdf:RDF>
 </metadata>
 <defs>
  <style type="text/css">*{stroke-linecap:butt;stroke-linejoin:round;}</style>
 </defs>
 <g id="figure_1">
  <g id="patch_1">
   <path d="M 0 250.279184 
L 260.503125 250.279184 
L 260.503125 0 
L 0 0 
z
" style="fill:none;"/>
  </g>
  <g id="axes_1">
   <g id="patch_2">
    <path d="M 30.103125 226.401059 
L 253.303125 226.401059 
L 253.303125 8.961059 
L 30.103125 8.961059 
z
" style="fill:#ffffff;"/>
   </g>
   <g id="PathCollection_1">
    <defs>
     <path d="M -3 3 
L 3 -3 
M -3 -3 
L 3 3 
" id="mb69a938a66" style="stroke:#1f77b4;stroke-width:1.5;"/>
    </defs>
    <g clip-path="url(#pa7935d0c9d)">
     <use style="fill:#1f77b4;stroke:#1f77b4;stroke-width:1.5;" x="56.420515" xlink:href="#mb69a938a66" y="176.951371"/>
     <use style="fill:#1f77b4;stroke:#1f77b4;stroke-width:1.5;" x="235.314735" xlink:href="#mb69a938a66" y="27.36736"/>
     <use style="fill:#1f77b4;stroke:#1f77b4;stroke-width:1.5;" x="42.811919" xlink:href="#mb69a938a66" y="60.099497"/>
     <use style="fill:#1f77b4;stroke:#1f77b4;stroke-width:1.5;" x="178.594289" xlink:href="#mb69a938a66" y="77.556677"/>
     <use style="fill:#1f77b4;stroke:#1f77b4;stroke-width:1.5;" x="217.00987" xlink:href="#mb69a938a66" y="132.289508"/>
     <use style="fill:#1f77b4;stroke:#1f77b4;stroke-width:1.5;" x="91.870876" xlink:href="#mb69a938a66" y="159.50977"/>
     <use style="fill:#1f77b4;stroke:#1f77b4;stroke-width:1.5;" x="159.135529" xlink:href="#mb69a938a66" y="84.133507"/>
     <use style="fill:#1f77b4;stroke:#1f77b4;stroke-width:1.5;" x="135.664698" xlink:href="#mb69a938a66" y="144.981257"/>
     <use style="fill:#1f77b4;stroke:#1f77b4;stroke-width:1.5;" x="215.934782" xlink:href="#mb69a938a66" y="149.748704"/>
     <use style="fill:#1f77b4;stroke:#1f77b4;stroke-width:1.5;" x="146.730749" xlink:href="#mb69a938a66" y="187.835133"/>
     <use style="fill:#1f77b4;stroke:#1f77b4;stroke-width:1.5;" x="70.40471" xlink:href="#mb69a938a66" y="183.831856"/>
     <use style="fill:#1f77b4;stroke:#1f77b4;stroke-width:1.5;" x="207.632055" xlink:href="#mb69a938a66" y="119.149963"/>
     <use style="fill:#1f77b4;stroke:#1f77b4;stroke-width:1.5;" x="117.707733" xlink:href="#mb69a938a66" y="26.675755"/>
     <use style="fill:#1f77b4;stroke:#1f77b4;stroke-width:1.5;" x="136.778348" xlink:href="#mb69a938a66" y="48.162955"/>
     <use style="fill:#1f77b4;stroke:#1f77b4;stroke-width:1.5;" x="115.101459" xlink:href="#mb69a938a66" y="79.355967"/>
     <use style="fill:#1f77b4;stroke:#1f77b4;stroke-width:1.5;" x="182.550412" xlink:href="#mb69a938a66" y="136.838947"/>
     <use style="fill:#1f77b4;stroke:#1f77b4;stroke-width:1.5;" x="160.891212" xlink:href="#mb69a938a66" y="118.348753"/>
     <use style="fill:#1f77b4;stroke:#1f77b4;stroke-width:1.5;" x="138.89654" xlink:href="#mb69a938a66" y="20.774315"/>
     <use style="fill:#1f77b4;stroke:#1f77b4;stroke-width:1.5;" x="223.877737" xlink:href="#mb69a938a66" y="213.912296"/>
     <use style="fill:#1f77b4;stroke:#1f77b4;stroke-width:1.5;" x="121.819073" xlink:href="#mb69a938a66" y="68.245276"/>
     <use style="fill:#1f77b4;stroke:#1f77b4;stroke-width:1.5;" x="186.951434" xlink:href="#mb69a938a66" y="150.145428"/>
     <use style="fill:#1f77b4;stroke:#1f77b4;stroke-width:1.5;" x="109.912983" xlink:href="#mb69a938a66" y="171.08871"/>
     <use style="fill:#1f77b4;stroke:#1f77b4;stroke-width:1.5;" x="188.05413" xlink:href="#mb69a938a66" y="182.258546"/>
     <use style="fill:#1f77b4;stroke:#1f77b4;stroke-width:1.5;" x="174.898446" xlink:href="#mb69a938a66" y="159.398966"/>
     <use style="fill:#1f77b4;stroke:#1f77b4;stroke-width:1.5;" x="84.007929" xlink:href="#mb69a938a66" y="150.154105"/>
     <use style="fill:#1f77b4;stroke:#1f77b4;stroke-width:1.5;" x="121.337273" xlink:href="#mb69a938a66" y="190.305172"/>
     <use style="fill:#1f77b4;stroke:#1f77b4;stroke-width:1.5;" x="142.888027" xlink:href="#mb69a938a66" y="92.643081"/>
     <use style="fill:#1f77b4;stroke:#1f77b4;stroke-width:1.5;" x="237.808727" xlink:href="#mb69a938a66" y="61.325029"/>
     <use style="fill:#1f77b4;stroke:#1f77b4;stroke-width:1.5;" x="214.433594" xlink:href="#mb69a938a66" y="170.462679"/>
     <use style="fill:#1f77b4;stroke:#1f77b4;stroke-width:1.5;" x="190.614183" xlink:href="#mb69a938a66" y="54.711774"/>
     <use style="fill:#1f77b4;stroke:#1f77b4;stroke-width:1.5;" x="209.858141" xlink:href="#mb69a938a66" y="47.892669"/>
     <use style="fill:#1f77b4;stroke:#1f77b4;stroke-width:1.5;" x="124.202414" xlink:href="#mb69a938a66" y="214.706046"/>
     <use style="fill:#1f77b4;stroke:#1f77b4;stroke-width:1.5;" x="128.254246" xlink:href="#mb69a938a66" y="61.999732"/>
     <use style="fill:#1f77b4;stroke:#1f77b4;stroke-width:1.5;" x="163.344393" xlink:href="#mb69a938a66" y="139.163627"/>
     <use style="fill:#1f77b4;stroke:#1f77b4;stroke-width:1.5;" x="135.625595" xlink:href="#mb69a938a66" y="168.951861"/>
     <use style="fill:#1f77b4;stroke:#1f77b4;stroke-width:1.5;" x="166.538988" xlink:href="#mb69a938a66" y="103.286663"/>
     <use style="fill:#1f77b4;stroke:#1f77b4;stroke-width:1.5;" x="222.717085" xlink:href="#mb69a938a66" y="216.517423"/>
     <use style="fill:#1f77b4;stroke:#1f77b4;stroke-width:1.5;" x="90.213726" xlink:href="#mb69a938a66" y="136.078757"/>
     <use style="fill:#1f77b4;stroke:#1f77b4;stroke-width:1.5;" x="107.882415" xlink:href="#mb69a938a66" y="197.55048"/>
     <use style="fill:#1f77b4;stroke:#1f77b4;stroke-width:1.5;" x="154.907963" xlink:href="#mb69a938a66" y="209.73776"/>
     <use style="fill:#1f77b4;stroke:#1f77b4;stroke-width:1.5;" x="212.687858" xlink:href="#mb69a938a66" y="212.418985"/>
     <use style="fill:#1f77b4;stroke:#1f77b4;stroke-width:1.5;" x="229.691359" xlink:href="#mb69a938a66" y="155.978916"/>
     <use style="fill:#1f77b4;stroke:#1f77b4;stroke-width:1.5;" x="228.938392" xlink:href="#mb69a938a66" y="45.985292"/>
     <use style="fill:#1f77b4;stroke:#1f77b4;stroke-width:1.5;" x="124.65786" xlink:href="#mb69a938a66" y="23.300438"/>
     <use style="fill:#1f77b4;stroke:#1f77b4;stroke-width:1.5;" x="71.618776" xlink:href="#mb69a938a66" y="140.942143"/>
     <use style="fill:#1f77b4;stroke:#1f77b4;stroke-width:1.5;" x="166.202343" xlink:href="#mb69a938a66" y="44.616108"/>
     <use style="fill:#1f77b4;stroke:#1f77b4;stroke-width:1.5;" x="42.438107" xlink:href="#mb69a938a66" y="19.981639"/>
     <use style="fill:#1f77b4;stroke:#1f77b4;stroke-width:1.5;" x="232.514366" xlink:href="#mb69a938a66" y="43.048864"/>
     <use style="fill:#1f77b4;stroke:#1f77b4;stroke-width:1.5;" x="55.719066" xlink:href="#mb69a938a66" y="205.975018"/>
     <use style="fill:#1f77b4;stroke:#1f77b4;stroke-width:1.5;" x="136.54918" xlink:href="#mb69a938a66" y="92.820086"/>
     <use style="fill:#1f77b4;stroke:#1f77b4;stroke-width:1.5;" x="185.554841" xlink:href="#mb69a938a66" y="82.819861"/>
     <use style="fill:#1f77b4;stroke:#1f77b4;stroke-width:1.5;" x="71.749109" xlink:href="#mb69a938a66" y="119.031966"/>
     <use style="fill:#1f77b4;stroke:#1f77b4;stroke-width:1.5;" x="185.141906" xlink:href="#mb69a938a66" y="91.56656"/>
     <use style="fill:#1f77b4;stroke:#1f77b4;stroke-width:1.5;" x="71.920096" xlink:href="#mb69a938a66" y="36.930373"/>
     <use style="fill:#1f77b4;stroke:#1f77b4;stroke-width:1.5;" x="171.9533" xlink:href="#mb69a938a66" y="75.338416"/>
     <use style="fill:#1f77b4;stroke:#1f77b4;stroke-width:1.5;" x="124.862168" xlink:href="#mb69a938a66" y="200.965262"/>
     <use style="fill:#1f77b4;stroke:#1f77b4;stroke-width:1.5;" x="183.691823" xlink:href="#mb69a938a66" y="71.090059"/>
     <use style="fill:#1f77b4;stroke:#1f77b4;stroke-width:1.5;" x="195.543876" xlink:href="#mb69a938a66" y="101.153912"/>
     <use style="fill:#1f77b4;stroke:#1f77b4;stroke-width:1.5;" x="133.018608" xlink:href="#mb69a938a66" y="80.497556"/>
     <use style="fill:#1f77b4;stroke:#1f77b4;stroke-width:1.5;" x="43.936216" xlink:href="#mb69a938a66" y="157.480129"/>
     <use style="fill:#1f77b4;stroke:#1f77b4;stroke-width:1.5;" x="238.634671" xlink:href="#mb69a938a66" y="56.548877"/>
     <use style="fill:#1f77b4;stroke:#1f77b4;stroke-width:1.5;" x="179.607342" xlink:href="#mb69a938a66" y="18.844695"/>
     <use style="fill:#1f77b4;stroke:#1f77b4;stroke-width:1.5;" x="218.863404" xlink:href="#mb69a938a66" y="21.86478"/>
     <use style="fill:#1f77b4;stroke:#1f77b4;stroke-width:1.5;" x="40.24858" xlink:href="#mb69a938a66" y="45.994776"/>
     <use style="fill:#1f77b4;stroke:#1f77b4;stroke-width:1.5;" x="52.207675" xlink:href="#mb69a938a66" y="132.459801"/>
     <use style="fill:#1f77b4;stroke:#1f77b4;stroke-width:1.5;" x="115.994012" xlink:href="#mb69a938a66" y="188.675906"/>
     <use style="fill:#1f77b4;stroke:#1f77b4;stroke-width:1.5;" x="204.190353" xlink:href="#mb69a938a66" y="64.337255"/>
     <use style="fill:#1f77b4;stroke:#1f77b4;stroke-width:1.5;" x="182.47566" xlink:href="#mb69a938a66" y="41.91138"/>
     <use style="fill:#1f77b4;stroke:#1f77b4;stroke-width:1.5;" x="83.052821" xlink:href="#mb69a938a66" y="102.807512"/>
     <use style="fill:#1f77b4;stroke:#1f77b4;stroke-width:1.5;" x="161.64395" xlink:href="#mb69a938a66" y="103.695932"/>
     <use style="fill:#1f77b4;stroke:#1f77b4;stroke-width:1.5;" x="78.050783" xlink:href="#mb69a938a66" y="180.800059"/>
     <use style="fill:#1f77b4;stroke:#1f77b4;stroke-width:1.5;" x="150.553403" xlink:href="#mb69a938a66" y="105.226207"/>
     <use style="fill:#1f77b4;stroke:#1f77b4;stroke-width:1.5;" x="93.205327" xlink:href="#mb69a938a66" y="158.846649"/>
     <use style="fill:#1f77b4;stroke:#1f77b4;stroke-width:1.5;" x="218.655976" xlink:href="#mb69a938a66" y="35.078279"/>
     <use style="fill:#1f77b4;stroke:#1f77b4;stroke-width:1.5;" x="79.859472" xlink:href="#mb69a938a66" y="214.788825"/>
     <use style="fill:#1f77b4;stroke:#1f77b4;stroke-width:1.5;" x="188.16803" xlink:href="#mb69a938a66" y="140.674743"/>
     <use style="fill:#1f77b4;stroke:#1f77b4;stroke-width:1.5;" x="138.413417" xlink:href="#mb69a938a66" y="192.511287"/>
     <use style="fill:#1f77b4;stroke:#1f77b4;stroke-width:1.5;" x="177.864039" xlink:href="#mb69a938a66" y="57.570957"/>
     <use style="fill:#1f77b4;stroke:#1f77b4;stroke-width:1.5;" x="130.281363" xlink:href="#mb69a938a66" y="190.879795"/>
     <use style="fill:#1f77b4;stroke:#1f77b4;stroke-width:1.5;" x="243.15767" xlink:href="#mb69a938a66" y="205.331419"/>
     <use style="fill:#1f77b4;stroke:#1f77b4;stroke-width:1.5;" x="176.605285" xlink:href="#mb69a938a66" y="105.822696"/>
     <use style="fill:#1f77b4;stroke:#1f77b4;stroke-width:1.5;" x="171.611099" xlink:href="#mb69a938a66" y="61.375474"/>
     <use style="fill:#1f77b4;stroke:#1f77b4;stroke-width:1.5;" x="231.209178" xlink:href="#mb69a938a66" y="138.147244"/>
     <use style="fill:#1f77b4;stroke:#1f77b4;stroke-width:1.5;" x="82.647323" xlink:href="#mb69a938a66" y="196.84387"/>
     <use style="fill:#1f77b4;stroke:#1f77b4;stroke-width:1.5;" x="109.162486" xlink:href="#mb69a938a66" y="211.96736"/>
     <use style="fill:#1f77b4;stroke:#1f77b4;stroke-width:1.5;" x="67.075271" xlink:href="#mb69a938a66" y="67.60685"/>
     <use style="fill:#1f77b4;stroke:#1f77b4;stroke-width:1.5;" x="69.331194" xlink:href="#mb69a938a66" y="21.255098"/>
     <use style="fill:#1f77b4;stroke:#1f77b4;stroke-width:1.5;" x="176.251" xlink:href="#mb69a938a66" y="206.534365"/>
     <use style="fill:#1f77b4;stroke:#1f77b4;stroke-width:1.5;" x="80.513065" xlink:href="#mb69a938a66" y="40.493199"/>
     <use style="fill:#1f77b4;stroke:#1f77b4;stroke-width:1.5;" x="91.43385" xlink:href="#mb69a938a66" y="88.394117"/>
     <use style="fill:#1f77b4;stroke:#1f77b4;stroke-width:1.5;" x="88.033766" xlink:href="#mb69a938a66" y="132.361798"/>
     <use style="fill:#1f77b4;stroke:#1f77b4;stroke-width:1.5;" x="218.930523" xlink:href="#mb69a938a66" y="62.913624"/>
     <use style="fill:#1f77b4;stroke:#1f77b4;stroke-width:1.5;" x="224.358642" xlink:href="#mb69a938a66" y="200.912349"/>
     <use style="fill:#1f77b4;stroke:#1f77b4;stroke-width:1.5;" x="178.71748" xlink:href="#mb69a938a66" y="25.181239"/>
     <use style="fill:#1f77b4;stroke:#1f77b4;stroke-width:1.5;" x="117.487156" xlink:href="#mb69a938a66" y="61.590402"/>
     <use style="fill:#1f77b4;stroke:#1f77b4;stroke-width:1.5;" x="169.75667" xlink:href="#mb69a938a66" y="117.549452"/>
     <use style="fill:#1f77b4;stroke:#1f77b4;stroke-width:1.5;" x="52.5686" xlink:href="#mb69a938a66" y="100.57137"/>
     <use style="fill:#1f77b4;stroke:#1f77b4;stroke-width:1.5;" x="42.026818" xlink:href="#mb69a938a66" y="206.552665"/>
     <use style="fill:#1f77b4;stroke:#1f77b4;stroke-width:1.5;" x="229.660854" xlink:href="#mb69a938a66" y="202.444772"/>
     <use style="fill:#1f77b4;stroke:#1f77b4;stroke-width:1.5;" x="123.503009" xlink:href="#mb69a938a66" y="115.469615"/>
    </g>
   </g>
   <g id="matplotlib.axis_1">
    <g id="xtick_1">
     <g id="line2d_1">
      <defs>
       <path d="M 0 0 
L 0 3.5 
" id="m396f550f9a" style="stroke:#000000;stroke-width:0.8;"/>
      </defs>
      <g>
       <use style="stroke:#000000;stroke-width:0.8;" x="35.600148" xlink:href="#m396f550f9a" y="226.401059"/>
      </g>
     </g>
     <g id="text_1">
      <!-- 0.0 -->
      <g transform="translate(27.648586 240.999497)scale(0.1 -0.1)">
       <defs>
        <path d="M 31.78125 66.40625 
Q 24.171875 66.40625 20.328125 58.90625 
Q 16.5 51.421875 16.5 36.375 
Q 16.5 21.390625 20.328125 13.890625 
Q 24.171875 6.390625 31.78125 6.390625 
Q 39.453125 6.390625 43.28125 13.890625 
Q 47.125 21.390625 47.125 36.375 
Q 47.125 51.421875 43.28125 58.90625 
Q 39.453125 66.40625 31.78125 66.40625 
z
M 31.78125 74.21875 
Q 44.046875 74.21875 50.515625 64.515625 
Q 56.984375 54.828125 56.984375 36.375 
Q 56.984375 17.96875 50.515625 8.265625 
Q 44.046875 -1.421875 31.78125 -1.421875 
Q 19.53125 -1.421875 13.0625 8.265625 
Q 6.59375 17.96875 6.59375 36.375 
Q 6.59375 54.828125 13.0625 64.515625 
Q 19.53125 74.21875 31.78125 74.21875 
z
" id="DejaVuSans-48"/>
        <path d="M 10.6875 12.40625 
L 21 12.40625 
L 21 0 
L 10.6875 0 
z
" id="DejaVuSans-46"/>
       </defs>
       <use xlink:href="#DejaVuSans-48"/>
       <use x="63.623047" xlink:href="#DejaVuSans-46"/>
       <use x="95.410156" xlink:href="#DejaVuSans-48"/>
      </g>
     </g>
    </g>
    <g id="xtick_2">
     <g id="line2d_2">
      <g>
       <use style="stroke:#000000;stroke-width:0.8;" x="77.299923" xlink:href="#m396f550f9a" y="226.401059"/>
      </g>
     </g>
     <g id="text_2">
      <!-- 0.2 -->
      <g transform="translate(69.348361 240.999497)scale(0.1 -0.1)">
       <defs>
        <path d="M 19.1875 8.296875 
L 53.609375 8.296875 
L 53.609375 0 
L 7.328125 0 
L 7.328125 8.296875 
Q 12.9375 14.109375 22.625 23.890625 
Q 32.328125 33.6875 34.8125 36.53125 
Q 39.546875 41.84375 41.421875 45.53125 
Q 43.3125 49.21875 43.3125 52.78125 
Q 43.3125 58.59375 39.234375 62.25 
Q 35.15625 65.921875 28.609375 65.921875 
Q 23.96875 65.921875 18.8125 64.3125 
Q 13.671875 62.703125 7.8125 59.421875 
L 7.8125 69.390625 
Q 13.765625 71.78125 18.9375 73 
Q 24.125 74.21875 28.421875 74.21875 
Q 39.75 74.21875 46.484375 68.546875 
Q 53.21875 62.890625 53.21875 53.421875 
Q 53.21875 48.921875 51.53125 44.890625 
Q 49.859375 40.875 45.40625 35.40625 
Q 44.1875 33.984375 37.640625 27.21875 
Q 31.109375 20.453125 19.1875 8.296875 
z
" id="DejaVuSans-50"/>
       </defs>
       <use xlink:href="#DejaVuSans-48"/>
       <use x="63.623047" xlink:href="#DejaVuSans-46"/>
       <use x="95.410156" xlink:href="#DejaVuSans-50"/>
      </g>
     </g>
    </g>
    <g id="xtick_3">
     <g id="line2d_3">
      <g>
       <use style="stroke:#000000;stroke-width:0.8;" x="118.999698" xlink:href="#m396f550f9a" y="226.401059"/>
      </g>
     </g>
     <g id="text_3">
      <!-- 0.4 -->
      <g transform="translate(111.048136 240.999497)scale(0.1 -0.1)">
       <defs>
        <path d="M 37.796875 64.3125 
L 12.890625 25.390625 
L 37.796875 25.390625 
z
M 35.203125 72.90625 
L 47.609375 72.90625 
L 47.609375 25.390625 
L 58.015625 25.390625 
L 58.015625 17.1875 
L 47.609375 17.1875 
L 47.609375 0 
L 37.796875 0 
L 37.796875 17.1875 
L 4.890625 17.1875 
L 4.890625 26.703125 
z
" id="DejaVuSans-52"/>
       </defs>
       <use xlink:href="#DejaVuSans-48"/>
       <use x="63.623047" xlink:href="#DejaVuSans-46"/>
       <use x="95.410156" xlink:href="#DejaVuSans-52"/>
      </g>
     </g>
    </g>
    <g id="xtick_4">
     <g id="line2d_4">
      <g>
       <use style="stroke:#000000;stroke-width:0.8;" x="160.699474" xlink:href="#m396f550f9a" y="226.401059"/>
      </g>
     </g>
     <g id="text_4">
      <!-- 0.6 -->
      <g transform="translate(152.747911 240.999497)scale(0.1 -0.1)">
       <defs>
        <path d="M 33.015625 40.375 
Q 26.375 40.375 22.484375 35.828125 
Q 18.609375 31.296875 18.609375 23.390625 
Q 18.609375 15.53125 22.484375 10.953125 
Q 26.375 6.390625 33.015625 6.390625 
Q 39.65625 6.390625 43.53125 10.953125 
Q 47.40625 15.53125 47.40625 23.390625 
Q 47.40625 31.296875 43.53125 35.828125 
Q 39.65625 40.375 33.015625 40.375 
z
M 52.59375 71.296875 
L 52.59375 62.3125 
Q 48.875 64.0625 45.09375 64.984375 
Q 41.3125 65.921875 37.59375 65.921875 
Q 27.828125 65.921875 22.671875 59.328125 
Q 17.53125 52.734375 16.796875 39.40625 
Q 19.671875 43.65625 24.015625 45.921875 
Q 28.375 48.1875 33.59375 48.1875 
Q 44.578125 48.1875 50.953125 41.515625 
Q 57.328125 34.859375 57.328125 23.390625 
Q 57.328125 12.15625 50.6875 5.359375 
Q 44.046875 -1.421875 33.015625 -1.421875 
Q 20.359375 -1.421875 13.671875 8.265625 
Q 6.984375 17.96875 6.984375 36.375 
Q 6.984375 53.65625 15.1875 63.9375 
Q 23.390625 74.21875 37.203125 74.21875 
Q 40.921875 74.21875 44.703125 73.484375 
Q 48.484375 72.75 52.59375 71.296875 
z
" id="DejaVuSans-54"/>
       </defs>
       <use xlink:href="#DejaVuSans-48"/>
       <use x="63.623047" xlink:href="#DejaVuSans-46"/>
       <use x="95.410156" xlink:href="#DejaVuSans-54"/>
      </g>
     </g>
    </g>
    <g id="xtick_5">
     <g id="line2d_5">
      <g>
       <use style="stroke:#000000;stroke-width:0.8;" x="202.399249" xlink:href="#m396f550f9a" y="226.401059"/>
      </g>
     </g>
     <g id="text_5">
      <!-- 0.8 -->
      <g transform="translate(194.447686 240.999497)scale(0.1 -0.1)">
       <defs>
        <path d="M 31.78125 34.625 
Q 24.75 34.625 20.71875 30.859375 
Q 16.703125 27.09375 16.703125 20.515625 
Q 16.703125 13.921875 20.71875 10.15625 
Q 24.75 6.390625 31.78125 6.390625 
Q 38.8125 6.390625 42.859375 10.171875 
Q 46.921875 13.96875 46.921875 20.515625 
Q 46.921875 27.09375 42.890625 30.859375 
Q 38.875 34.625 31.78125 34.625 
z
M 21.921875 38.8125 
Q 15.578125 40.375 12.03125 44.71875 
Q 8.5 49.078125 8.5 55.328125 
Q 8.5 64.0625 14.71875 69.140625 
Q 20.953125 74.21875 31.78125 74.21875 
Q 42.671875 74.21875 48.875 69.140625 
Q 55.078125 64.0625 55.078125 55.328125 
Q 55.078125 49.078125 51.53125 44.71875 
Q 48 40.375 41.703125 38.8125 
Q 48.828125 37.15625 52.796875 32.3125 
Q 56.78125 27.484375 56.78125 20.515625 
Q 56.78125 9.90625 50.3125 4.234375 
Q 43.84375 -1.421875 31.78125 -1.421875 
Q 19.734375 -1.421875 13.25 4.234375 
Q 6.78125 9.90625 6.78125 20.515625 
Q 6.78125 27.484375 10.78125 32.3125 
Q 14.796875 37.15625 21.921875 38.8125 
z
M 18.3125 54.390625 
Q 18.3125 48.734375 21.84375 45.5625 
Q 25.390625 42.390625 31.78125 42.390625 
Q 38.140625 42.390625 41.71875 45.5625 
Q 45.3125 48.734375 45.3125 54.390625 
Q 45.3125 60.0625 41.71875 63.234375 
Q 38.140625 66.40625 31.78125 66.40625 
Q 25.390625 66.40625 21.84375 63.234375 
Q 18.3125 60.0625 18.3125 54.390625 
z
" id="DejaVuSans-56"/>
       </defs>
       <use xlink:href="#DejaVuSans-48"/>
       <use x="63.623047" xlink:href="#DejaVuSans-46"/>
       <use x="95.410156" xlink:href="#DejaVuSans-56"/>
      </g>
     </g>
    </g>
    <g id="xtick_6">
     <g id="line2d_6">
      <g>
       <use style="stroke:#000000;stroke-width:0.8;" x="244.099024" xlink:href="#m396f550f9a" y="226.401059"/>
      </g>
     </g>
     <g id="text_6">
      <!-- 1.0 -->
      <g transform="translate(236.147461 240.999497)scale(0.1 -0.1)">
       <defs>
        <path d="M 12.40625 8.296875 
L 28.515625 8.296875 
L 28.515625 63.921875 
L 10.984375 60.40625 
L 10.984375 69.390625 
L 28.421875 72.90625 
L 38.28125 72.90625 
L 38.28125 8.296875 
L 54.390625 8.296875 
L 54.390625 0 
L 12.40625 0 
z
" id="DejaVuSans-49"/>
       </defs>
       <use xlink:href="#DejaVuSans-49"/>
       <use x="63.623047" xlink:href="#DejaVuSans-46"/>
       <use x="95.410156" xlink:href="#DejaVuSans-48"/>
      </g>
     </g>
    </g>
   </g>
   <g id="matplotlib.axis_2">
    <g id="ytick_1">
     <g id="line2d_7">
      <defs>
       <path d="M 0 0 
L -3.5 0 
" id="mf71255393a" style="stroke:#000000;stroke-width:0.8;"/>
      </defs>
      <g>
       <use style="stroke:#000000;stroke-width:0.8;" x="30.103125" xlink:href="#mf71255393a" y="216.969662"/>
      </g>
     </g>
     <g id="text_7">
      <!-- 0.0 -->
      <g transform="translate(7.2 220.768881)scale(0.1 -0.1)">
       <use xlink:href="#DejaVuSans-48"/>
       <use x="63.623047" xlink:href="#DejaVuSans-46"/>
       <use x="95.410156" xlink:href="#DejaVuSans-48"/>
      </g>
     </g>
    </g>
    <g id="ytick_2">
     <g id="line2d_8">
      <g>
       <use style="stroke:#000000;stroke-width:0.8;" x="30.103125" xlink:href="#mf71255393a" y="175.775573"/>
      </g>
     </g>
     <g id="text_8">
      <!-- 0.2 -->
      <g transform="translate(7.2 179.574792)scale(0.1 -0.1)">
       <use xlink:href="#DejaVuSans-48"/>
       <use x="63.623047" xlink:href="#DejaVuSans-46"/>
       <use x="95.410156" xlink:href="#DejaVuSans-50"/>
      </g>
     </g>
    </g>
    <g id="ytick_3">
     <g id="line2d_9">
      <g>
       <use style="stroke:#000000;stroke-width:0.8;" x="30.103125" xlink:href="#mf71255393a" y="134.581485"/>
      </g>
     </g>
     <g id="text_9">
      <!-- 0.4 -->
      <g transform="translate(7.2 138.380703)scale(0.1 -0.1)">
       <use xlink:href="#DejaVuSans-48"/>
       <use x="63.623047" xlink:href="#DejaVuSans-46"/>
       <use x="95.410156" xlink:href="#DejaVuSans-52"/>
      </g>
     </g>
    </g>
    <g id="ytick_4">
     <g id="line2d_10">
      <g>
       <use style="stroke:#000000;stroke-width:0.8;" x="30.103125" xlink:href="#mf71255393a" y="93.387396"/>
      </g>
     </g>
     <g id="text_10">
      <!-- 0.6 -->
      <g transform="translate(7.2 97.186615)scale(0.1 -0.1)">
       <use xlink:href="#DejaVuSans-48"/>
       <use x="63.623047" xlink:href="#DejaVuSans-46"/>
       <use x="95.410156" xlink:href="#DejaVuSans-54"/>
      </g>
     </g>
    </g>
    <g id="ytick_5">
     <g id="line2d_11">
      <g>
       <use style="stroke:#000000;stroke-width:0.8;" x="30.103125" xlink:href="#mf71255393a" y="52.193307"/>
      </g>
     </g>
     <g id="text_11">
      <!-- 0.8 -->
      <g transform="translate(7.2 55.992526)scale(0.1 -0.1)">
       <use xlink:href="#DejaVuSans-48"/>
       <use x="63.623047" xlink:href="#DejaVuSans-46"/>
       <use x="95.410156" xlink:href="#DejaVuSans-56"/>
      </g>
     </g>
    </g>
    <g id="ytick_6">
     <g id="line2d_12">
      <g>
       <use style="stroke:#000000;stroke-width:0.8;" x="30.103125" xlink:href="#mf71255393a" y="10.999219"/>
      </g>
     </g>
     <g id="text_12">
      <!-- 1.0 -->
      <g transform="translate(7.2 14.798437)scale(0.1 -0.1)">
       <use xlink:href="#DejaVuSans-49"/>
       <use x="63.623047" xlink:href="#DejaVuSans-46"/>
       <use x="95.410156" xlink:href="#DejaVuSans-48"/>
      </g>
     </g>
    </g>
   </g>
   <g id="patch_3">
    <path d="M 30.103125 226.401059 
L 30.103125 8.961059 
" style="fill:none;stroke:#000000;stroke-linecap:square;stroke-linejoin:miter;stroke-width:0.8;"/>
   </g>
   <g id="patch_4">
    <path d="M 253.303125 226.401059 
L 253.303125 8.961059 
" style="fill:none;stroke:#000000;stroke-linecap:square;stroke-linejoin:miter;stroke-width:0.8;"/>
   </g>
   <g id="patch_5">
    <path d="M 30.103125 226.401059 
L 253.303125 226.401059 
" style="fill:none;stroke:#000000;stroke-linecap:square;stroke-linejoin:miter;stroke-width:0.8;"/>
   </g>
   <g id="patch_6">
    <path d="M 30.103125 8.961059 
L 253.303125 8.961059 
" style="fill:none;stroke:#000000;stroke-linecap:square;stroke-linejoin:miter;stroke-width:0.8;"/>
   </g>
  </g>
 </g>
 <defs>
  <clipPath id="pa7935d0c9d">
   <rect height="217.44" width="223.2" x="30.103125" y="8.961059"/>
  </clipPath>
 </defs>
</svg>
