<?xml version="1.0" encoding="utf-8" standalone="no"?>
<!DOCTYPE svg PUBLIC "-//W3C//DTD SVG 1.1//EN"
  "http://www.w3.org/Graphics/SVG/1.1/DTD/svg11.dtd">
<!-- Created with matplotlib (https://matplotlib.org/) -->
<svg height="281.927187pt" version="1.1" viewBox="0 0 397.66 281.927187" width="397.66pt" xmlns="http://www.w3.org/2000/svg" xmlns:xlink="http://www.w3.org/1999/xlink">
 <metadata>
  <rdf:RDF xmlns:cc="http://creativecommons.org/ns#" xmlns:dc="http://purl.org/dc/elements/1.1/" xmlns:rdf="http://www.w3.org/1999/02/22-rdf-syntax-ns#">
   <cc:Work>
    <dc:type rdf:resource="http://purl.org/dc/dcmitype/StillImage"/>
    <dc:date>2021-03-22T03:39:35.909154</dc:date>
    <dc:format>image/svg+xml</dc:format>
    <dc:creator>
     <cc:Agent>
      <dc:title>Matplotlib v3.3.4, https://matplotlib.org/</dc:title>
     </cc:Agent>
    </dc:creator>
   </cc:Work>
  </rdf:RDF>
 </metadata>
 <defs>
  <style type="text/css">*{stroke-linecap:butt;stroke-linejoin:round;}</style>
 </defs>
 <g id="figure_1">
  <g id="patch_1">
   <path d="M 0 281.927187 
L 397.66 281.927187 
L 397.66 0 
L 0 0 
z
" style="fill:#ffffff;"/>
  </g>
  <g id="axes_1">
   <g id="patch_2">
    <path d="M 55.66 239.62875 
L 390.46 239.62875 
L 390.46 22.18875 
L 55.66 22.18875 
z
" style="fill:#eaeaf2;"/>
   </g>
   <g id="matplotlib.axis_1">
    <g id="xtick_1">
     <g id="text_1">
      <!-- teacher -->
      <g style="fill:#262626;" transform="translate(69.588359 257.368437)scale(0.11 -0.11)">
       <defs>
        <path d="M 33.203125 3.765625 
Q 27.640625 -0.09375 21.828125 -0.09375 
Q 10.203125 -0.09375 10.203125 12.984375 
L 10.203125 44.671875 
L 3.421875 44.671875 
L 3.421875 50.78125 
L 10.203125 50.78125 
L 10.203125 61.96875 
L 18.40625 66.0625 
L 18.40625 50.78125 
L 32.234375 50.78125 
L 32.234375 44.671875 
L 18.40625 44.671875 
L 18.40625 14.15625 
Q 18.40625 6.5 23.640625 6.5 
Q 27.15625 6.5 30.328125 9.1875 
z
" id="IPAexGothic-116"/>
        <path d="M 13.484375 24.90625 
Q 13.921875 16.265625 18.890625 11.28125 
Q 23.96875 6.203125 31.203125 6.203125 
Q 40.71875 6.203125 46.296875 15.09375 
L 51.90625 11.375 
Q 44.828125 -0.484375 30.171875 -0.484375 
Q 19.09375 -0.484375 11.96875 6.59375 
Q 4.78125 13.8125 4.78125 25.640625 
Q 4.78125 38.1875 12.3125 45.703125 
Q 19 52.390625 29 52.390625 
Q 38.421875 52.390625 44.78125 46.1875 
Q 51.90625 38.96875 51.90625 26.90625 
L 51.90625 24.90625 
z
M 43.0625 31.203125 
Q 42.328125 37.984375 38.28125 41.890625 
Q 34.28125 45.90625 28.8125 45.90625 
Q 22.46875 45.90625 17.96875 40.484375 
Q 14.890625 36.8125 13.96875 31.203125 
z
" id="IPAexGothic-101"/>
        <path d="M 49.3125 0.984375 
L 41.75 0.984375 
Q 39.984375 4.734375 39.546875 8.6875 
L 39.203125 8.6875 
Q 33.546875 -0.390625 22.3125 -0.390625 
Q 14.59375 -0.390625 9.71875 4.5 
Q 5.421875 8.796875 5.421875 14.984375 
Q 5.421875 30.421875 32.03125 31.203125 
L 38.71875 31.390625 
L 38.71875 33.984375 
Q 38.71875 39.203125 35.75 42.1875 
Q 32.625 45.3125 27.734375 45.3125 
Q 19.34375 45.3125 15.140625 37.15625 
L 7.71875 40.578125 
Q 14.65625 52 27.9375 52 
Q 37.109375 52 42.046875 46.875 
Q 46.625 42.28125 46.625 33.890625 
L 46.625 15.578125 
Q 46.625 6.25 49.3125 0.984375 
z
M 38.921875 25.390625 
L 33.453125 25.296875 
Q 14.109375 24.859375 14.109375 14.890625 
Q 14.109375 11.375 16.40625 9.078125 
Q 19.234375 6.296875 23.828125 6.296875 
Q 30.21875 6.296875 34.90625 10.984375 
Q 38.921875 15.140625 38.921875 21 
z
" id="IPAexGothic-97"/>
        <path d="M 51.078125 12.25 
Q 44.28125 -0.484375 29.6875 -0.484375 
Q 19.1875 -0.484375 12.3125 6.390625 
Q 4.890625 13.921875 4.890625 25.984375 
Q 4.890625 37.9375 12.3125 45.515625 
Q 19.09375 52.296875 29.390625 52.296875 
Q 43.953125 52.296875 50.09375 39.703125 
L 43.171875 36.078125 
Q 38.8125 45.3125 29.6875 45.3125 
Q 23.6875 45.3125 19.28125 40.921875 
Q 13.765625 35.40625 13.765625 25.78125 
Q 13.765625 16.703125 19.09375 11.375 
Q 23.78125 6.6875 30.5625 6.6875 
Q 39.796875 6.6875 44.484375 15.875 
z
" id="IPAexGothic-99"/>
        <path d="M 52.296875 0.984375 
L 43.703125 0.984375 
L 43.703125 31.890625 
Q 43.703125 44.578125 33.296875 44.578125 
Q 22.609375 44.578125 17.671875 31.890625 
L 17.671875 0.984375 
L 9.078125 0.984375 
L 9.078125 74.90625 
L 17.671875 74.90625 
L 17.671875 42.28125 
Q 24.46875 51.8125 35.109375 51.8125 
Q 52.296875 51.8125 52.296875 32.375 
z
" id="IPAexGothic-104"/>
        <path d="M 36.078125 51.8125 
L 34.578125 43.265625 
Q 32.90625 43.609375 31.59375 43.609375 
Q 25.828125 43.609375 22.078125 38.1875 
Q 17.390625 31.34375 17.390625 26.171875 
L 17.390625 0.984375 
L 8.796875 0.984375 
L 8.796875 50.78125 
L 16.890625 50.78125 
L 16.5 35.984375 
L 16.703125 35.984375 
Q 22.21875 52.203125 32.765625 52.203125 
Q 34.46875 52.203125 36.078125 51.8125 
z
" id="IPAexGothic-114"/>
       </defs>
       <use xlink:href="#IPAexGothic-116"/>
       <use x="34.619141" xlink:href="#IPAexGothic-101"/>
       <use x="91.503906" xlink:href="#IPAexGothic-97"/>
       <use x="146.484375" xlink:href="#IPAexGothic-99"/>
       <use x="200.878906" xlink:href="#IPAexGothic-104"/>
       <use x="261.572266" xlink:href="#IPAexGothic-101"/>
       <use x="318.457031" xlink:href="#IPAexGothic-114"/>
      </g>
     </g>
    </g>
    <g id="xtick_2">
     <g id="text_2">
      <!-- other -->
      <g style="fill:#262626;" transform="translate(142.370625 257.368437)scale(0.11 -0.11)">
       <defs>
        <path d="M 29.984375 52.203125 
Q 40.53125 52.203125 47.75 45.125 
Q 55.171875 37.703125 55.171875 25.59375 
Q 55.171875 13.875 47.90625 6.59375 
Q 40.765625 -0.484375 29.984375 -0.484375 
Q 19.1875 -0.484375 12.203125 6.5 
Q 4.890625 13.765625 4.890625 25.875 
Q 4.890625 37.703125 12.3125 45.125 
Q 19.390625 52.203125 29.984375 52.203125 
z
M 29.984375 45.609375 
Q 23.734375 45.609375 19.390625 41.109375 
Q 13.875 35.59375 13.875 25.78125 
Q 13.875 16.109375 19.28125 10.6875 
Q 23.6875 6.296875 29.984375 6.296875 
Q 36.421875 6.296875 40.765625 10.796875 
Q 46.1875 16.21875 46.1875 26.125 
Q 46.1875 35.453125 40.671875 41.109375 
Q 36.1875 45.609375 29.984375 45.609375 
z
" id="IPAexGothic-111"/>
       </defs>
       <use xlink:href="#IPAexGothic-111"/>
       <use x="60.400391" xlink:href="#IPAexGothic-116"/>
       <use x="95.019531" xlink:href="#IPAexGothic-104"/>
       <use x="155.712891" xlink:href="#IPAexGothic-101"/>
       <use x="212.597656" xlink:href="#IPAexGothic-114"/>
      </g>
     </g>
    </g>
    <g id="xtick_3">
     <g id="text_3">
      <!-- services -->
      <g style="fill:#262626;" transform="translate(202.537266 257.368437)scale(0.11 -0.11)">
       <defs>
        <path d="M 34.90625 39.796875 
Q 30.28125 45.796875 23.1875 45.796875 
Q 13.921875 45.796875 13.921875 38.671875 
Q 13.921875 33.640625 23.921875 30.375 
L 27.203125 29.296875 
Q 41.40625 24.65625 41.40625 13.96875 
Q 41.40625 6.78125 35.5 2.6875 
Q 30.8125 -0.484375 23.390625 -0.484375 
Q 11.96875 -0.484375 4 7.859375 
L 9.421875 12.796875 
Q 15.578125 6.203125 23.6875 6.203125 
Q 33.296875 6.203125 33.296875 13.671875 
Q 33.296875 19.34375 22.703125 23.09375 
L 19.28125 24.265625 
Q 5.90625 28.953125 5.90625 37.984375 
Q 5.90625 43.703125 9.8125 47.609375 
Q 14.5 52.296875 22.703125 52.296875 
Q 33.6875 52.296875 40.71875 44.671875 
z
" id="IPAexGothic-115"/>
        <path d="M 48.484375 50.78125 
L 27.296875 0.09375 
L 21.484375 0.09375 
L 0.390625 50.78125 
L 9.8125 50.78125 
L 20.90625 21.6875 
L 23.78125 13.1875 
L 24.515625 10.984375 
L 24.8125 10.984375 
Q 25.640625 13.8125 28.46875 21.6875 
L 39.3125 50.78125 
z
" id="IPAexGothic-118"/>
        <path d="M 18.40625 61.375 
L 8.59375 61.375 
L 8.59375 71.390625 
L 18.40625 71.390625 
z
M 17.78125 0.984375 
L 9.1875 0.984375 
L 9.1875 50.78125 
L 17.78125 50.78125 
z
" id="IPAexGothic-105"/>
       </defs>
       <use xlink:href="#IPAexGothic-115"/>
       <use x="46.191406" xlink:href="#IPAexGothic-101"/>
       <use x="103.076172" xlink:href="#IPAexGothic-114"/>
       <use x="140.087891" xlink:href="#IPAexGothic-118"/>
       <use x="188.671875" xlink:href="#IPAexGothic-105"/>
       <use x="215.673828" xlink:href="#IPAexGothic-99"/>
       <use x="270.068359" xlink:href="#IPAexGothic-101"/>
       <use x="326.953125" xlink:href="#IPAexGothic-115"/>
      </g>
     </g>
    </g>
    <g id="xtick_4">
     <g id="text_4">
      <!-- health -->
      <g style="fill:#262626;" transform="translate(273.801875 257.368437)scale(0.11 -0.11)">
       <defs>
        <path d="M 17.671875 0.984375 
L 9.078125 0.984375 
L 9.078125 74.90625 
L 17.671875 74.90625 
z
" id="IPAexGothic-108"/>
       </defs>
       <use xlink:href="#IPAexGothic-104"/>
       <use x="60.693359" xlink:href="#IPAexGothic-101"/>
       <use x="117.578125" xlink:href="#IPAexGothic-97"/>
       <use x="172.558594" xlink:href="#IPAexGothic-108"/>
       <use x="199.560547" xlink:href="#IPAexGothic-116"/>
       <use x="234.179688" xlink:href="#IPAexGothic-104"/>
      </g>
     </g>
    </g>
    <g id="xtick_5">
     <g id="text_5">
      <!-- at_home -->
      <g style="fill:#262626;" transform="translate(334.721328 257.368437)scale(0.11 -0.11)">
       <defs>
        <path d="M 50 -11.71875 
L 0 -11.71875 
L 0 -6.734375 
L 50 -6.734375 
z
" id="IPAexGothic-95"/>
        <path d="M 78.46875 0.984375 
L 69.875 0.984375 
L 69.875 32.171875 
Q 69.875 44.828125 60.109375 44.828125 
Q 55.46875 44.828125 51.609375 40.53125 
Q 48.875 37.453125 47.796875 32.859375 
L 47.796875 0.984375 
L 39.203125 0.984375 
L 39.203125 32.28125 
Q 39.203125 44.828125 29.984375 44.828125 
Q 25.09375 44.828125 21.390625 40.53125 
Q 17.390625 36.03125 17.390625 31.890625 
L 17.390625 0.984375 
L 8.796875 0.984375 
L 8.796875 50.78125 
L 16.796875 50.78125 
L 16.796875 42.1875 
Q 21.734375 51.8125 31.6875 51.8125 
Q 42.578125 51.8125 46.1875 41.359375 
Q 51.609375 51.8125 61.765625 51.8125 
Q 69.96875 51.8125 74.5625 46 
Q 78.46875 41.21875 78.46875 32.375 
z
" id="IPAexGothic-109"/>
       </defs>
       <use xlink:href="#IPAexGothic-97"/>
       <use x="54.980469" xlink:href="#IPAexGothic-116"/>
       <use x="89.599609" xlink:href="#IPAexGothic-95"/>
       <use x="139.599609" xlink:href="#IPAexGothic-104"/>
       <use x="200.292969" xlink:href="#IPAexGothic-111"/>
       <use x="260.693359" xlink:href="#IPAexGothic-109"/>
       <use x="347.802734" xlink:href="#IPAexGothic-101"/>
      </g>
     </g>
    </g>
    <g id="text_6">
     <!-- 父親の仕事 -->
     <g style="fill:#262626;" transform="translate(193.06 272.447187)scale(0.12 -0.12)">
      <defs>
       <path d="M 46 21.578125 
Q 34.71875 33.15625 28.71875 46.875 
L 34.90625 50.484375 
Q 39.984375 38.421875 50.59375 26.90625 
Q 59.078125 37.890625 63.28125 52.78125 
L 70.609375 49.65625 
Q 65.09375 33.40625 55.90625 21.96875 
Q 72.125 8.59375 93.796875 2.78125 
L 88.8125 -4.546875 
Q 67.671875 2.390625 51.703125 16.265625 
L 51.21875 16.703125 
Q 34.671875 -0.4375 10.984375 -6.296875 
L 6.203125 0.59375 
Q 30.515625 5.671875 46 21.578125 
z
M 8.203125 43.3125 
Q 22.90625 55.125 32.171875 75.6875 
L 39.3125 72.609375 
Q 29.640625 51.46875 13.71875 37.890625 
z
M 85.5 40.578125 
Q 72.65625 58.734375 58.203125 72.609375 
L 64.40625 76.703125 
Q 78.953125 63.03125 91.890625 46.296875 
z
" id="IPAexGothic-29238"/>
       <path d="M 41.609375 64.109375 
Q 40.28125 57.28125 37.40625 49.21875 
L 48.78125 49.21875 
L 48.78125 43.109375 
L 30.515625 43.109375 
L 30.515625 33.6875 
L 47.515625 33.6875 
L 47.515625 27.6875 
L 30.515625 27.6875 
L 30.515625 23 
Q 37.40625 19.046875 46.1875 11.859375 
L 42.578125 5.671875 
Q 37.109375 11.671875 30.515625 16.609375 
L 30.515625 -7.03125 
L 24.21875 -7.03125 
L 24.21875 18.796875 
Q 17.875 6.9375 7.8125 -1.8125 
L 4 4.203125 
Q 16.359375 13.96875 23 27.6875 
L 6 27.6875 
L 6 33.6875 
L 24.21875 33.6875 
L 24.21875 43.109375 
L 4.390625 43.109375 
L 4.390625 49.21875 
L 16.109375 49.21875 
Q 14.9375 56.34375 12.5 64.109375 
L 6.296875 64.109375 
L 6.296875 70.125 
L 24.03125 70.125 
L 24.03125 83.015625 
L 30.71875 83.015625 
L 30.71875 70.125 
L 47.171875 70.125 
L 47.171875 64.109375 
z
M 35.203125 64.109375 
L 19.09375 64.109375 
Q 21.34375 55.8125 22.40625 49.21875 
L 31.203125 49.21875 
Q 33.59375 56.25 35.203125 64.109375 
z
M 79.984375 25.6875 
L 79.984375 4 
Q 79.984375 1.265625 83.890625 1.265625 
Q 88.140625 1.265625 88.875 3.171875 
Q 89.890625 5.609375 90.1875 15.1875 
L 96.296875 12.796875 
Q 95.40625 1.3125 94.1875 -1.515625 
Q 92.53125 -5.328125 83.5 -5.328125 
Q 77.59375 -5.328125 75.59375 -3.90625 
Q 73.578125 -2.546875 73.578125 0.59375 
L 73.578125 25.6875 
L 66.359375 25.6875 
Q 65.921875 11.140625 62.0625 4.5 
Q 57.765625 -2.984375 45.453125 -8.203125 
L 41.265625 -2.59375 
Q 52.984375 1.125 57.078125 9.078125 
Q 60.015625 15.140625 60.15625 25.6875 
L 52.484375 25.6875 
L 52.484375 78.8125 
L 89.203125 78.8125 
L 89.203125 25.6875 
z
M 58.890625 72.90625 
L 58.890625 62.984375 
L 82.90625 62.984375 
L 82.90625 72.90625 
z
M 58.890625 57.28125 
L 58.890625 47.515625 
L 82.90625 47.515625 
L 82.90625 57.28125 
z
M 58.890625 41.796875 
L 58.890625 31.5 
L 82.90625 31.5 
L 82.90625 41.796875 
z
" id="IPAexGothic-35242"/>
       <path d="M 48.734375 7.328125 
Q 82.421875 11.96875 82.421875 37.890625 
Q 82.421875 53.953125 68.953125 61.328125 
Q 63.140625 64.3125 55.421875 64.984375 
Q 53.03125 39.453125 44.53125 21.875 
Q 36.28125 4.78125 26.90625 4.78125 
Q 21.625 4.78125 16.9375 10.40625 
Q 9.515625 19.4375 9.515625 31.296875 
Q 9.515625 47.265625 21.828125 59.28125 
Q 34.125 71.296875 53.609375 71.296875 
Q 67.28125 71.296875 77 64.40625 
Q 90.828125 54.78125 90.828125 37.890625 
Q 90.828125 6.84375 53.609375 0.09375 
z
M 47.703125 64.796875 
Q 37.15625 63.1875 29.546875 56.890625 
Q 17.140625 46.578125 17.140625 31.109375 
Q 17.140625 21.34375 22.40625 15.28125 
Q 24.703125 12.703125 26.859375 12.703125 
Q 31.59375 12.703125 37.75 25.390625 
Q 45.453125 41.21875 47.703125 64.796875 
z
" id="IPAexGothic-12398"/>
       <path d="M 25.53125 57.625 
L 25.53125 -6.984375 
L 18.21875 -6.984375 
L 18.21875 43.890625 
Q 13.578125 36.46875 8.109375 29.59375 
L 4.109375 35.796875 
Q 19.140625 54.109375 26.421875 80.90625 
L 33.640625 78.90625 
Q 30.03125 67.1875 25.53125 57.625 
z
M 64.984375 52.59375 
L 93.609375 52.59375 
L 93.609375 45.90625 
L 64.984375 45.90625 
L 64.984375 4.5 
L 90.09375 4.5 
L 90.09375 -2.203125 
L 32.953125 -2.203125 
L 32.953125 4.5 
L 57.46875 4.5 
L 57.46875 45.90625 
L 30.28125 45.90625 
L 30.28125 52.59375 
L 57.46875 52.59375 
L 57.46875 80.46875 
L 64.984375 80.46875 
z
" id="IPAexGothic-20181"/>
       <path d="M 46.09375 61.28125 
L 46.09375 67.09375 
L 7.46875 67.09375 
L 7.46875 72.796875 
L 46.09375 72.796875 
L 46.09375 83.015625 
L 53.171875 83.015625 
L 53.171875 72.796875 
L 92.484375 72.796875 
L 92.484375 67.09375 
L 53.171875 67.09375 
L 53.171875 61.28125 
L 81.78125 61.28125 
L 81.78125 44.09375 
L 53.171875 44.09375 
L 53.171875 38.28125 
L 83.203125 38.28125 
L 83.203125 27.484375 
L 95.015625 27.484375 
L 95.015625 21.578125 
L 83.203125 21.578125 
L 83.203125 6.203125 
L 76.265625 6.203125 
L 76.265625 10.5 
L 53.171875 10.5 
L 53.171875 0.09375 
Q 53.171875 -4.109375 51.078125 -5.5625 
Q 49.21875 -6.890625 44.390625 -6.890625 
Q 39.015625 -6.890625 33.0625 -6.296875 
L 31.890625 0.875 
Q 38.28125 -0.390625 42.671875 -0.390625 
Q 46.09375 -0.390625 46.09375 2.484375 
L 46.09375 10.5 
L 13.1875 10.5 
L 13.1875 16.015625 
L 46.09375 16.015625 
L 46.09375 21.78125 
L 4.984375 21.78125 
L 4.984375 27.296875 
L 46.09375 27.296875 
L 46.09375 32.765625 
L 13.09375 32.765625 
L 13.09375 38.28125 
L 46.09375 38.28125 
L 46.09375 44.09375 
L 18.0625 44.09375 
L 18.0625 61.28125 
z
M 46.09375 56.109375 
L 24.75 56.109375 
L 24.75 49.421875 
L 46.09375 49.421875 
z
M 53.171875 56.109375 
L 53.171875 49.421875 
L 75.09375 49.421875 
L 75.09375 56.109375 
z
M 53.171875 16.015625 
L 76.265625 16.015625 
L 76.265625 21.78125 
L 53.171875 21.78125 
z
M 53.171875 27.296875 
L 76.265625 27.296875 
L 76.265625 32.765625 
L 53.171875 32.765625 
z
" id="IPAexGothic-20107"/>
      </defs>
      <use xlink:href="#IPAexGothic-29238"/>
      <use x="100" xlink:href="#IPAexGothic-35242"/>
      <use x="200" xlink:href="#IPAexGothic-12398"/>
      <use x="300" xlink:href="#IPAexGothic-20181"/>
      <use x="400" xlink:href="#IPAexGothic-20107"/>
     </g>
    </g>
   </g>
   <g id="matplotlib.axis_2">
    <g id="ytick_1">
     <g id="line2d_1">
      <path clip-path="url(#p32550aab28)" d="M 55.66 229.745114 
L 390.46 229.745114 
" style="fill:none;stroke:#ffffff;stroke-linecap:round;"/>
     </g>
     <g id="text_7">
      <!-- 0.0 -->
      <g style="fill:#262626;" transform="translate(29.397031 233.864957)scale(0.11 -0.11)">
       <defs>
        <path d="M 31.84375 73.828125 
Q 45.015625 73.828125 52.09375 61.625 
Q 57.71875 51.953125 57.71875 36.625 
Q 57.71875 21.4375 52.09375 11.578125 
Q 45.125 -0.484375 31.5 -0.484375 
Q 17.921875 -0.484375 10.9375 11.578125 
Q 5.328125 21.4375 5.328125 36.71875 
Q 5.328125 58.015625 15.625 67.71875 
Q 22.171875 73.828125 31.84375 73.828125 
z
M 31.5 66.65625 
Q 23.6875 66.65625 19.1875 58.734375 
Q 14.59375 50.734375 14.59375 36.625 
Q 14.59375 22.75 19.09375 14.796875 
Q 23.640625 6.984375 31.5 6.984375 
Q 40.921875 6.984375 45.453125 18.015625 
Q 48.4375 25.34375 48.4375 37.109375 
Q 48.4375 50.875 43.84375 58.734375 
Q 39.203125 66.65625 31.5 66.65625 
z
" id="IPAexGothic-48"/>
        <path d="M 18.5 0.984375 
L 7.71875 0.984375 
L 7.71875 11.765625 
L 18.5 11.765625 
z
" id="IPAexGothic-46"/>
       </defs>
       <use xlink:href="#IPAexGothic-48"/>
       <use x="62.988281" xlink:href="#IPAexGothic-46"/>
       <use x="89.404297" xlink:href="#IPAexGothic-48"/>
      </g>
     </g>
    </g>
    <g id="ytick_2">
     <g id="line2d_2">
      <path clip-path="url(#p32550aab28)" d="M 55.66 205.036023 
L 390.46 205.036023 
" style="fill:none;stroke:#ffffff;stroke-linecap:round;"/>
     </g>
     <g id="text_8">
      <!-- 2.5 -->
      <g style="fill:#262626;" transform="translate(29.397031 209.155866)scale(0.11 -0.11)">
       <defs>
        <path d="M 57.171875 0.984375 
L 6.984375 0.984375 
L 6.984375 9.28125 
Q 12.890625 23.046875 29.59375 34.421875 
L 32.375 36.28125 
Q 40.921875 42.140625 43.609375 45.40625 
Q 46.6875 49.265625 46.6875 53.8125 
Q 46.6875 58.9375 43.0625 62.546875 
Q 39.0625 66.546875 32.5625 66.546875 
Q 19.53125 66.546875 15.484375 52 
L 7.765625 54.78125 
Q 13.328125 73.828125 33.0625 73.828125 
Q 43.84375 73.828125 50.25 67.4375 
Q 55.859375 61.671875 55.859375 53.515625 
Q 55.859375 47.46875 52.25 42.53125 
Q 48.921875 37.75 36.96875 30.28125 
L 34.859375 29 
Q 19.625 19.578125 15.28125 8.890625 
L 57.171875 8.890625 
z
" id="IPAexGothic-50"/>
        <path d="M 18.40625 40.671875 
Q 25.53125 46.296875 33.9375 46.296875 
Q 44 46.296875 50.640625 39.5 
Q 56.84375 33.015625 56.84375 23.390625 
Q 56.84375 14.65625 51.515625 8.015625 
Q 44.828125 -0.484375 31.734375 -0.484375 
Q 14.984375 -0.484375 7.328125 12.25 
L 14.65625 16.0625 
Q 20.453125 6.78125 31.453125 6.78125 
Q 38.53125 6.78125 43.265625 11.1875 
Q 48.140625 15.828125 48.140625 23.484375 
Q 48.140625 30.71875 43.84375 35.015625 
Q 39.359375 39.5 32.125 39.5 
Q 21.96875 39.5 16.75 31.6875 
L 9.234375 32.671875 
L 13.8125 72.40625 
L 53.21875 72.40625 
L 53.21875 64.890625 
L 20.953125 64.890625 
L 17.71875 40.671875 
z
" id="IPAexGothic-53"/>
       </defs>
       <use xlink:href="#IPAexGothic-50"/>
       <use x="62.988281" xlink:href="#IPAexGothic-46"/>
       <use x="89.404297" xlink:href="#IPAexGothic-53"/>
      </g>
     </g>
    </g>
    <g id="ytick_3">
     <g id="line2d_3">
      <path clip-path="url(#p32550aab28)" d="M 55.66 180.326932 
L 390.46 180.326932 
" style="fill:none;stroke:#ffffff;stroke-linecap:round;"/>
     </g>
     <g id="text_9">
      <!-- 5.0 -->
      <g style="fill:#262626;" transform="translate(29.397031 184.446776)scale(0.11 -0.11)">
       <use xlink:href="#IPAexGothic-53"/>
       <use x="62.988281" xlink:href="#IPAexGothic-46"/>
       <use x="89.404297" xlink:href="#IPAexGothic-48"/>
      </g>
     </g>
    </g>
    <g id="ytick_4">
     <g id="line2d_4">
      <path clip-path="url(#p32550aab28)" d="M 55.66 155.617841 
L 390.46 155.617841 
" style="fill:none;stroke:#ffffff;stroke-linecap:round;"/>
     </g>
     <g id="text_10">
      <!-- 7.5 -->
      <g style="fill:#262626;" transform="translate(29.397031 159.737685)scale(0.11 -0.11)">
       <defs>
        <path d="M 56.203125 66.609375 
Q 34.96875 32.90625 27.78125 0.984375 
L 17.671875 0.984375 
Q 24.703125 28.65625 46.09375 64.5 
L 6.6875 64.5 
L 6.6875 72.40625 
L 56.203125 72.40625 
z
" id="IPAexGothic-55"/>
       </defs>
       <use xlink:href="#IPAexGothic-55"/>
       <use x="62.988281" xlink:href="#IPAexGothic-46"/>
       <use x="89.404297" xlink:href="#IPAexGothic-53"/>
      </g>
     </g>
    </g>
    <g id="ytick_5">
     <g id="line2d_5">
      <path clip-path="url(#p32550aab28)" d="M 55.66 130.90875 
L 390.46 130.90875 
" style="fill:none;stroke:#ffffff;stroke-linecap:round;"/>
     </g>
     <g id="text_11">
      <!-- 10.0 -->
      <g style="fill:#262626;" transform="translate(22.46875 135.028594)scale(0.11 -0.11)">
       <defs>
        <path d="M 38.484375 0.984375 
L 29.6875 0.984375 
L 29.6875 64.109375 
Q 21.4375 61.28125 12.3125 59.328125 
L 10.6875 66.109375 
Q 23.734375 69.390625 32.90625 73.921875 
L 38.484375 73.921875 
z
" id="IPAexGothic-49"/>
       </defs>
       <use xlink:href="#IPAexGothic-49"/>
       <use x="62.988281" xlink:href="#IPAexGothic-48"/>
       <use x="125.976562" xlink:href="#IPAexGothic-46"/>
       <use x="152.392578" xlink:href="#IPAexGothic-48"/>
      </g>
     </g>
    </g>
    <g id="ytick_6">
     <g id="line2d_6">
      <path clip-path="url(#p32550aab28)" d="M 55.66 106.199659 
L 390.46 106.199659 
" style="fill:none;stroke:#ffffff;stroke-linecap:round;"/>
     </g>
     <g id="text_12">
      <!-- 12.5 -->
      <g style="fill:#262626;" transform="translate(22.46875 110.319503)scale(0.11 -0.11)">
       <use xlink:href="#IPAexGothic-49"/>
       <use x="62.988281" xlink:href="#IPAexGothic-50"/>
       <use x="125.976562" xlink:href="#IPAexGothic-46"/>
       <use x="152.392578" xlink:href="#IPAexGothic-53"/>
      </g>
     </g>
    </g>
    <g id="ytick_7">
     <g id="line2d_7">
      <path clip-path="url(#p32550aab28)" d="M 55.66 81.490568 
L 390.46 81.490568 
" style="fill:none;stroke:#ffffff;stroke-linecap:round;"/>
     </g>
     <g id="text_13">
      <!-- 15.0 -->
      <g style="fill:#262626;" transform="translate(22.46875 85.610412)scale(0.11 -0.11)">
       <use xlink:href="#IPAexGothic-49"/>
       <use x="62.988281" xlink:href="#IPAexGothic-53"/>
       <use x="125.976562" xlink:href="#IPAexGothic-46"/>
       <use x="152.392578" xlink:href="#IPAexGothic-48"/>
      </g>
     </g>
    </g>
    <g id="ytick_8">
     <g id="line2d_8">
      <path clip-path="url(#p32550aab28)" d="M 55.66 56.781477 
L 390.46 56.781477 
" style="fill:none;stroke:#ffffff;stroke-linecap:round;"/>
     </g>
     <g id="text_14">
      <!-- 17.5 -->
      <g style="fill:#262626;" transform="translate(22.46875 60.901321)scale(0.11 -0.11)">
       <use xlink:href="#IPAexGothic-49"/>
       <use x="62.988281" xlink:href="#IPAexGothic-55"/>
       <use x="125.976562" xlink:href="#IPAexGothic-46"/>
       <use x="152.392578" xlink:href="#IPAexGothic-53"/>
      </g>
     </g>
    </g>
    <g id="ytick_9">
     <g id="line2d_9">
      <path clip-path="url(#p32550aab28)" d="M 55.66 32.072386 
L 390.46 32.072386 
" style="fill:none;stroke:#ffffff;stroke-linecap:round;"/>
     </g>
     <g id="text_15">
      <!-- 20.0 -->
      <g style="fill:#262626;" transform="translate(22.46875 36.19223)scale(0.11 -0.11)">
       <use xlink:href="#IPAexGothic-50"/>
       <use x="62.988281" xlink:href="#IPAexGothic-48"/>
       <use x="125.976562" xlink:href="#IPAexGothic-46"/>
       <use x="152.392578" xlink:href="#IPAexGothic-48"/>
      </g>
     </g>
    </g>
    <g id="text_16">
     <!-- 成績 -->
     <g style="fill:#262626;" transform="translate(16.18875 142.90875)rotate(-90)scale(0.12 -0.12)">
      <defs>
       <path d="M 67.53125 25.78125 
Q 75.140625 37.109375 80.515625 51.703125 
L 86.921875 48.6875 
Q 80.609375 32.078125 71.34375 18.75 
Q 76.265625 10.546875 82.03125 6 
Q 84.1875 4.296875 85.015625 4.296875 
Q 86.625 4.296875 88.140625 17.484375 
L 94.734375 13.671875 
Q 92.484375 -5.125 86.71875 -5.125 
Q 84.328125 -5.125 80.328125 -2.34375 
Q 72.5625 3.171875 66.40625 12.59375 
Q 57.171875 1.515625 44.140625 -6.734375 
L 39.015625 -0.921875 
Q 52.203125 6.78125 62.640625 19.1875 
Q 54.546875 35.0625 51.125 58.40625 
L 21.046875 58.40625 
L 21.046875 44.484375 
L 46.046875 44.484375 
Q 45.265625 21.34375 43.953125 14.890625 
Q 42.28125 7.078125 34.234375 7.078125 
Q 29.6875 7.078125 24.421875 7.953125 
L 23.640625 15.28125 
Q 30.953125 13.875 33.640625 13.875 
Q 36.71875 13.875 37.359375 17.1875 
Q 38.328125 22.125 38.921875 38.484375 
L 21.046875 38.484375 
L 21.046875 35.984375 
Q 21.046875 9.46875 9.515625 -6.84375 
L 4 -1.21875 
Q 13.71875 12.0625 13.71875 36.1875 
L 13.71875 64.890625 
L 50.25 64.890625 
Q 49.359375 73 48.734375 82.671875 
L 56.15625 82.671875 
Q 56.546875 73.6875 57.515625 65.375 
L 93.109375 65.375 
L 93.109375 58.890625 
L 58.453125 58.890625 
L 58.734375 56.890625 
Q 61.8125 37.703125 67.53125 25.78125 
z
M 77.09375 66.015625 
Q 71.828125 72.75 67.1875 76.515625 
L 72.796875 80.8125 
Q 78.171875 76.8125 83.109375 70.40625 
z
" id="IPAexGothic-25104"/>
       <path d="M 18.5625 48.1875 
Q 11.234375 58.546875 4.984375 64.5 
L 8.890625 69.390625 
Q 11.53125 66.75 13.1875 64.796875 
Q 18.609375 72.90625 23.1875 83.203125 
L 29.59375 80.078125 
Q 22.75 67.875 17.09375 60.40625 
Q 20.75 55.71875 22.171875 53.71875 
Q 26.609375 60.890625 31.890625 70.796875 
L 37.890625 67.484375 
Q 28.90625 51.375 19.96875 40.375 
Q 31.546875 41.109375 32.765625 41.21875 
Q 31.640625 44.4375 29.390625 48.875 
L 34.28125 50.984375 
Q 38.484375 44.484375 42.484375 32.8125 
L 36.46875 29.984375 
Q 36.078125 31.34375 35.40625 33.6875 
Q 34.8125 35.546875 34.578125 36.375 
Q 33.0625 36.078125 26.078125 35.109375 
L 26.078125 -6.984375 
L 19.671875 -6.984375 
L 19.671875 34.28125 
Q 14.015625 33.6875 6.390625 33.109375 
L 4.390625 39.796875 
Q 5.28125 39.84375 9.859375 39.890625 
Q 12.015625 39.9375 12.984375 39.984375 
Q 15.765625 44 18.5625 48.1875 
z
M 75.59375 8.984375 
Q 86.46875 4.734375 96 -1.125 
L 90.484375 -6.59375 
Q 81.5 0.09375 70.40625 4.6875 
L 75.203125 8.984375 
L 45.3125 8.984375 
L 45.3125 44.578125 
L 88.484375 44.578125 
L 88.484375 8.984375 
z
M 51.515625 39.40625 
L 51.515625 34.28125 
L 82.28125 34.28125 
L 82.28125 39.40625 
z
M 51.515625 29.59375 
L 51.515625 24.515625 
L 82.28125 24.515625 
L 82.28125 29.59375 
z
M 51.515625 19.828125 
L 51.515625 14.3125 
L 82.28125 14.3125 
L 82.28125 19.828125 
z
M 63.1875 74.8125 
L 63.1875 83.015625 
L 69.578125 83.015625 
L 69.578125 74.8125 
L 93.609375 74.8125 
L 93.609375 69.484375 
L 69.578125 69.484375 
L 69.578125 64.890625 
L 90.375 64.890625 
L 90.375 59.8125 
L 69.578125 59.8125 
L 69.578125 54.890625 
L 95.125 54.890625 
L 95.125 49.46875 
L 37.984375 49.46875 
L 37.984375 54.890625 
L 63.1875 54.890625 
L 63.1875 59.8125 
L 43.21875 59.8125 
L 43.21875 64.890625 
L 63.1875 64.890625 
L 63.1875 69.484375 
L 39.890625 69.484375 
L 39.890625 74.8125 
z
M 5.078125 2.984375 
Q 8.34375 13.28125 9.375 27.78125 
L 15.484375 27.09375 
Q 14.453125 11.53125 11.28125 -0.203125 
z
M 33.40625 5.171875 
Q 31.984375 16.65625 29.109375 27.203125 
L 34.46875 28.71875 
Q 37.890625 19.484375 39.796875 7.8125 
z
M 37.109375 -2.203125 
Q 48.78125 1.703125 57.71875 8.796875 
L 62.796875 4.6875 
Q 52.046875 -3.8125 42 -7.71875 
z
" id="IPAexGothic-32318"/>
      </defs>
      <use xlink:href="#IPAexGothic-25104"/>
      <use x="100" xlink:href="#IPAexGothic-32318"/>
     </g>
    </g>
   </g>
   <g id="patch_3">
    <path clip-path="url(#p32550aab28)" d="M 62.356 130.90875 
L 115.924 130.90875 
L 115.924 71.606932 
L 62.356 71.606932 
L 62.356 130.90875 
z
" style="fill:#5875a4;stroke:#4c4c4c;stroke-linejoin:miter;stroke-width:1.5;"/>
   </g>
   <g id="patch_4">
    <path clip-path="url(#p32550aab28)" d="M 129.316 150.676023 
L 182.884 150.676023 
L 182.884 101.257841 
L 129.316 101.257841 
L 129.316 150.676023 
z
" style="fill:#cc8963;stroke:#4c4c4c;stroke-linejoin:miter;stroke-width:1.5;"/>
   </g>
   <g id="patch_5">
    <path clip-path="url(#p32550aab28)" d="M 196.276 140.792386 
L 249.844 140.792386 
L 249.844 101.257841 
L 196.276 101.257841 
L 196.276 140.792386 
z
" style="fill:#5f9e6e;stroke:#4c4c4c;stroke-linejoin:miter;stroke-width:1.5;"/>
   </g>
   <g id="patch_6">
    <path clip-path="url(#p32550aab28)" d="M 263.236 140.792386 
L 316.804 140.792386 
L 316.804 91.374205 
L 263.236 91.374205 
L 263.236 140.792386 
z
" style="fill:#b55d60;stroke:#4c4c4c;stroke-linejoin:miter;stroke-width:1.5;"/>
   </g>
   <g id="patch_7">
    <path clip-path="url(#p32550aab28)" d="M 330.196 143.263295 
L 383.764 143.263295 
L 383.764 98.786932 
L 330.196 98.786932 
L 330.196 143.263295 
z
" style="fill:#857aab;stroke:#4c4c4c;stroke-linejoin:miter;stroke-width:1.5;"/>
   </g>
   <g id="line2d_10">
    <path clip-path="url(#p32550aab28)" d="M 89.14 130.90875 
L 89.14 170.443295 
" style="fill:none;stroke:#4c4c4c;stroke-linecap:round;stroke-width:1.5;"/>
   </g>
   <g id="line2d_11">
    <path clip-path="url(#p32550aab28)" d="M 89.14 71.606932 
L 89.14 41.956023 
" style="fill:none;stroke:#4c4c4c;stroke-linecap:round;stroke-width:1.5;"/>
   </g>
   <g id="line2d_12">
    <path clip-path="url(#p32550aab28)" d="M 75.748 170.443295 
L 102.532 170.443295 
" style="fill:none;stroke:#4c4c4c;stroke-linecap:round;stroke-width:1.5;"/>
   </g>
   <g id="line2d_13">
    <path clip-path="url(#p32550aab28)" d="M 75.748 41.956023 
L 102.532 41.956023 
" style="fill:none;stroke:#4c4c4c;stroke-linecap:round;stroke-width:1.5;"/>
   </g>
   <g id="line2d_14">
    <defs>
     <path d="M -0 3.535534 
L 2.12132 0 
L -0 -3.535534 
L -2.12132 -0 
z
" id="m5f7318f96f" style="stroke:#4c4c4c;stroke-linejoin:miter;"/>
    </defs>
    <g clip-path="url(#p32550aab28)">
     <use style="fill:#4c4c4c;stroke:#4c4c4c;stroke-linejoin:miter;" x="89.14" xlink:href="#m5f7318f96f" y="229.745114"/>
     <use style="fill:#4c4c4c;stroke:#4c4c4c;stroke-linejoin:miter;" x="89.14" xlink:href="#m5f7318f96f" y="229.745114"/>
     <use style="fill:#4c4c4c;stroke:#4c4c4c;stroke-linejoin:miter;" x="89.14" xlink:href="#m5f7318f96f" y="229.745114"/>
    </g>
   </g>
   <g id="line2d_15">
    <path clip-path="url(#p32550aab28)" d="M 156.1 150.676023 
L 156.1 190.210568 
" style="fill:none;stroke:#4c4c4c;stroke-linecap:round;stroke-width:1.5;"/>
   </g>
   <g id="line2d_16">
    <path clip-path="url(#p32550aab28)" d="M 156.1 101.257841 
L 156.1 41.956023 
" style="fill:none;stroke:#4c4c4c;stroke-linecap:round;stroke-width:1.5;"/>
   </g>
   <g id="line2d_17">
    <path clip-path="url(#p32550aab28)" d="M 142.708 190.210568 
L 169.492 190.210568 
" style="fill:none;stroke:#4c4c4c;stroke-linecap:round;stroke-width:1.5;"/>
   </g>
   <g id="line2d_18">
    <path clip-path="url(#p32550aab28)" d="M 142.708 41.956023 
L 169.492 41.956023 
" style="fill:none;stroke:#4c4c4c;stroke-linecap:round;stroke-width:1.5;"/>
   </g>
   <g id="line2d_19">
    <g clip-path="url(#p32550aab28)">
     <use style="fill:#4c4c4c;stroke:#4c4c4c;stroke-linejoin:miter;" x="156.1" xlink:href="#m5f7318f96f" y="229.745114"/>
     <use style="fill:#4c4c4c;stroke:#4c4c4c;stroke-linejoin:miter;" x="156.1" xlink:href="#m5f7318f96f" y="229.745114"/>
     <use style="fill:#4c4c4c;stroke:#4c4c4c;stroke-linejoin:miter;" x="156.1" xlink:href="#m5f7318f96f" y="229.745114"/>
     <use style="fill:#4c4c4c;stroke:#4c4c4c;stroke-linejoin:miter;" x="156.1" xlink:href="#m5f7318f96f" y="229.745114"/>
     <use style="fill:#4c4c4c;stroke:#4c4c4c;stroke-linejoin:miter;" x="156.1" xlink:href="#m5f7318f96f" y="229.745114"/>
     <use style="fill:#4c4c4c;stroke:#4c4c4c;stroke-linejoin:miter;" x="156.1" xlink:href="#m5f7318f96f" y="229.745114"/>
     <use style="fill:#4c4c4c;stroke:#4c4c4c;stroke-linejoin:miter;" x="156.1" xlink:href="#m5f7318f96f" y="229.745114"/>
     <use style="fill:#4c4c4c;stroke:#4c4c4c;stroke-linejoin:miter;" x="156.1" xlink:href="#m5f7318f96f" y="229.745114"/>
     <use style="fill:#4c4c4c;stroke:#4c4c4c;stroke-linejoin:miter;" x="156.1" xlink:href="#m5f7318f96f" y="229.745114"/>
     <use style="fill:#4c4c4c;stroke:#4c4c4c;stroke-linejoin:miter;" x="156.1" xlink:href="#m5f7318f96f" y="229.745114"/>
     <use style="fill:#4c4c4c;stroke:#4c4c4c;stroke-linejoin:miter;" x="156.1" xlink:href="#m5f7318f96f" y="229.745114"/>
     <use style="fill:#4c4c4c;stroke:#4c4c4c;stroke-linejoin:miter;" x="156.1" xlink:href="#m5f7318f96f" y="229.745114"/>
     <use style="fill:#4c4c4c;stroke:#4c4c4c;stroke-linejoin:miter;" x="156.1" xlink:href="#m5f7318f96f" y="229.745114"/>
     <use style="fill:#4c4c4c;stroke:#4c4c4c;stroke-linejoin:miter;" x="156.1" xlink:href="#m5f7318f96f" y="229.745114"/>
     <use style="fill:#4c4c4c;stroke:#4c4c4c;stroke-linejoin:miter;" x="156.1" xlink:href="#m5f7318f96f" y="229.745114"/>
     <use style="fill:#4c4c4c;stroke:#4c4c4c;stroke-linejoin:miter;" x="156.1" xlink:href="#m5f7318f96f" y="229.745114"/>
     <use style="fill:#4c4c4c;stroke:#4c4c4c;stroke-linejoin:miter;" x="156.1" xlink:href="#m5f7318f96f" y="229.745114"/>
     <use style="fill:#4c4c4c;stroke:#4c4c4c;stroke-linejoin:miter;" x="156.1" xlink:href="#m5f7318f96f" y="229.745114"/>
     <use style="fill:#4c4c4c;stroke:#4c4c4c;stroke-linejoin:miter;" x="156.1" xlink:href="#m5f7318f96f" y="229.745114"/>
     <use style="fill:#4c4c4c;stroke:#4c4c4c;stroke-linejoin:miter;" x="156.1" xlink:href="#m5f7318f96f" y="229.745114"/>
     <use style="fill:#4c4c4c;stroke:#4c4c4c;stroke-linejoin:miter;" x="156.1" xlink:href="#m5f7318f96f" y="229.745114"/>
    </g>
   </g>
   <g id="line2d_20">
    <path clip-path="url(#p32550aab28)" d="M 223.06 140.792386 
L 223.06 180.326932 
" style="fill:none;stroke:#4c4c4c;stroke-linecap:round;stroke-width:1.5;"/>
   </g>
   <g id="line2d_21">
    <path clip-path="url(#p32550aab28)" d="M 223.06 101.257841 
L 223.06 51.839659 
" style="fill:none;stroke:#4c4c4c;stroke-linecap:round;stroke-width:1.5;"/>
   </g>
   <g id="line2d_22">
    <path clip-path="url(#p32550aab28)" d="M 209.668 180.326932 
L 236.452 180.326932 
" style="fill:none;stroke:#4c4c4c;stroke-linecap:round;stroke-width:1.5;"/>
   </g>
   <g id="line2d_23">
    <path clip-path="url(#p32550aab28)" d="M 209.668 51.839659 
L 236.452 51.839659 
" style="fill:none;stroke:#4c4c4c;stroke-linecap:round;stroke-width:1.5;"/>
   </g>
   <g id="line2d_24">
    <g clip-path="url(#p32550aab28)">
     <use style="fill:#4c4c4c;stroke:#4c4c4c;stroke-linejoin:miter;" x="223.06" xlink:href="#m5f7318f96f" y="229.745114"/>
     <use style="fill:#4c4c4c;stroke:#4c4c4c;stroke-linejoin:miter;" x="223.06" xlink:href="#m5f7318f96f" y="229.745114"/>
     <use style="fill:#4c4c4c;stroke:#4c4c4c;stroke-linejoin:miter;" x="223.06" xlink:href="#m5f7318f96f" y="229.745114"/>
     <use style="fill:#4c4c4c;stroke:#4c4c4c;stroke-linejoin:miter;" x="223.06" xlink:href="#m5f7318f96f" y="229.745114"/>
     <use style="fill:#4c4c4c;stroke:#4c4c4c;stroke-linejoin:miter;" x="223.06" xlink:href="#m5f7318f96f" y="229.745114"/>
     <use style="fill:#4c4c4c;stroke:#4c4c4c;stroke-linejoin:miter;" x="223.06" xlink:href="#m5f7318f96f" y="229.745114"/>
     <use style="fill:#4c4c4c;stroke:#4c4c4c;stroke-linejoin:miter;" x="223.06" xlink:href="#m5f7318f96f" y="229.745114"/>
     <use style="fill:#4c4c4c;stroke:#4c4c4c;stroke-linejoin:miter;" x="223.06" xlink:href="#m5f7318f96f" y="229.745114"/>
     <use style="fill:#4c4c4c;stroke:#4c4c4c;stroke-linejoin:miter;" x="223.06" xlink:href="#m5f7318f96f" y="229.745114"/>
     <use style="fill:#4c4c4c;stroke:#4c4c4c;stroke-linejoin:miter;" x="223.06" xlink:href="#m5f7318f96f" y="229.745114"/>
     <use style="fill:#4c4c4c;stroke:#4c4c4c;stroke-linejoin:miter;" x="223.06" xlink:href="#m5f7318f96f" y="229.745114"/>
     <use style="fill:#4c4c4c;stroke:#4c4c4c;stroke-linejoin:miter;" x="223.06" xlink:href="#m5f7318f96f" y="32.072386"/>
    </g>
   </g>
   <g id="line2d_25">
    <path clip-path="url(#p32550aab28)" d="M 290.02 140.792386 
L 290.02 160.559659 
" style="fill:none;stroke:#4c4c4c;stroke-linecap:round;stroke-width:1.5;"/>
   </g>
   <g id="line2d_26">
    <path clip-path="url(#p32550aab28)" d="M 290.02 91.374205 
L 290.02 51.839659 
" style="fill:none;stroke:#4c4c4c;stroke-linecap:round;stroke-width:1.5;"/>
   </g>
   <g id="line2d_27">
    <path clip-path="url(#p32550aab28)" d="M 276.628 160.559659 
L 303.412 160.559659 
" style="fill:none;stroke:#4c4c4c;stroke-linecap:round;stroke-width:1.5;"/>
   </g>
   <g id="line2d_28">
    <path clip-path="url(#p32550aab28)" d="M 276.628 51.839659 
L 303.412 51.839659 
" style="fill:none;stroke:#4c4c4c;stroke-linecap:round;stroke-width:1.5;"/>
   </g>
   <g id="line2d_29"/>
   <g id="line2d_30">
    <path clip-path="url(#p32550aab28)" d="M 356.98 143.263295 
L 356.98 170.443295 
" style="fill:none;stroke:#4c4c4c;stroke-linecap:round;stroke-width:1.5;"/>
   </g>
   <g id="line2d_31">
    <path clip-path="url(#p32550aab28)" d="M 356.98 98.786932 
L 356.98 41.956023 
" style="fill:none;stroke:#4c4c4c;stroke-linecap:round;stroke-width:1.5;"/>
   </g>
   <g id="line2d_32">
    <path clip-path="url(#p32550aab28)" d="M 343.588 170.443295 
L 370.372 170.443295 
" style="fill:none;stroke:#4c4c4c;stroke-linecap:round;stroke-width:1.5;"/>
   </g>
   <g id="line2d_33">
    <path clip-path="url(#p32550aab28)" d="M 343.588 41.956023 
L 370.372 41.956023 
" style="fill:none;stroke:#4c4c4c;stroke-linecap:round;stroke-width:1.5;"/>
   </g>
   <g id="line2d_34">
    <g clip-path="url(#p32550aab28)">
     <use style="fill:#4c4c4c;stroke:#4c4c4c;stroke-linejoin:miter;" x="356.98" xlink:href="#m5f7318f96f" y="229.745114"/>
     <use style="fill:#4c4c4c;stroke:#4c4c4c;stroke-linejoin:miter;" x="356.98" xlink:href="#m5f7318f96f" y="229.745114"/>
     <use style="fill:#4c4c4c;stroke:#4c4c4c;stroke-linejoin:miter;" x="356.98" xlink:href="#m5f7318f96f" y="229.745114"/>
    </g>
   </g>
   <g id="line2d_35">
    <path clip-path="url(#p32550aab28)" d="M 62.356 91.374205 
L 115.924 91.374205 
" style="fill:none;stroke:#4c4c4c;stroke-linecap:round;stroke-width:1.5;"/>
   </g>
   <g id="line2d_36">
    <path clip-path="url(#p32550aab28)" d="M 129.316 121.025114 
L 182.884 121.025114 
" style="fill:none;stroke:#4c4c4c;stroke-linecap:round;stroke-width:1.5;"/>
   </g>
   <g id="line2d_37">
    <path clip-path="url(#p32550aab28)" d="M 196.276 121.025114 
L 249.844 121.025114 
" style="fill:none;stroke:#4c4c4c;stroke-linecap:round;stroke-width:1.5;"/>
   </g>
   <g id="line2d_38">
    <path clip-path="url(#p32550aab28)" d="M 263.236 121.025114 
L 316.804 121.025114 
" style="fill:none;stroke:#4c4c4c;stroke-linecap:round;stroke-width:1.5;"/>
   </g>
   <g id="line2d_39">
    <path clip-path="url(#p32550aab28)" d="M 330.196 121.025114 
L 383.764 121.025114 
" style="fill:none;stroke:#4c4c4c;stroke-linecap:round;stroke-width:1.5;"/>
   </g>
   <g id="patch_8">
    <path d="M 55.66 239.62875 
L 55.66 22.18875 
" style="fill:none;stroke:#ffffff;stroke-linecap:square;stroke-linejoin:miter;stroke-width:1.25;"/>
   </g>
   <g id="patch_9">
    <path d="M 390.46 239.62875 
L 390.46 22.18875 
" style="fill:none;stroke:#ffffff;stroke-linecap:square;stroke-linejoin:miter;stroke-width:1.25;"/>
   </g>
   <g id="patch_10">
    <path d="M 55.66 239.62875 
L 390.46 239.62875 
" style="fill:none;stroke:#ffffff;stroke-linecap:square;stroke-linejoin:miter;stroke-width:1.25;"/>
   </g>
   <g id="patch_11">
    <path d="M 55.66 22.18875 
L 390.46 22.18875 
" style="fill:none;stroke:#ffffff;stroke-linecap:square;stroke-linejoin:miter;stroke-width:1.25;"/>
   </g>
   <g id="text_17">
    <!-- 父親の仕事が子供の成績に与える影響 -->
    <g style="fill:#262626;" transform="translate(121.06 16.18875)scale(0.12 -0.12)">
     <defs>
      <path d="M 10.296875 52.875 
Q 22.40625 54.734375 33.015625 55.953125 
Q 36.140625 67.828125 37.40625 77.6875 
L 45.3125 76.171875 
Q 43.109375 64.796875 40.921875 56.6875 
L 42.484375 56.78125 
Q 45.21875 56.890625 47.515625 56.890625 
Q 63.625 56.890625 63.625 37.015625 
Q 63.625 17.625 57.8125 6 
Q 54.34375 -0.875 46.921875 -0.875 
Q 40.484375 -0.875 33.015625 3.609375 
L 33.40625 12.109375 
Q 41.109375 6.9375 45.703125 6.9375 
Q 49.515625 6.9375 51.515625 11.03125 
Q 55.71875 20.21875 55.71875 37.3125 
Q 55.71875 50.296875 47.125 50.296875 
Q 44.140625 50.296875 39.015625 49.90625 
Q 37.3125 43.171875 33.015625 31.984375 
Q 25.53125 12.453125 17.484375 -0.59375 
L 10.59375 3.8125 
Q 21.1875 19.34375 29.109375 42.96875 
Q 29.5 44.046875 31.109375 48.875 
Q 24.90625 48.140625 12.015625 45.5625 
z
M 85.015625 28.71875 
Q 76.765625 47.46875 63.921875 61.1875 
L 69.921875 65.375 
Q 83.59375 51.078125 92 33.6875 
z
M 92.390625 66.796875 
Q 86.765625 75.296875 80.609375 80.421875 
L 85.296875 83.984375 
Q 91.3125 79.15625 97.40625 71.09375 
z
M 83.5 59.1875 
Q 78.953125 66.84375 72.015625 73.09375 
L 76.90625 76.90625 
Q 82.71875 72.078125 88.71875 63.484375 
z
" id="IPAexGothic-12364"/>
      <path d="M 54.390625 50.984375 
L 54.390625 40.09375 
L 92.78125 40.09375 
L 92.78125 33.203125 
L 54.984375 33.203125 
L 54.984375 3.21875 
Q 54.984375 -0.875 53.515625 -2.6875 
Q 51.65625 -5.078125 45.265625 -5.078125 
Q 40.140625 -5.078125 30.375 -4.203125 
L 28.859375 4.109375 
Q 37.640625 2.828125 43.171875 2.828125 
Q 47.265625 2.828125 47.265625 6.5 
L 47.265625 33.203125 
L 7.078125 33.203125 
L 7.078125 40.09375 
L 46.6875 40.09375 
L 46.6875 54.5 
Q 59.125 60.0625 70.453125 68.21875 
L 17.390625 68.21875 
L 17.390625 74.90625 
L 80.46875 74.90625 
L 84.859375 70.3125 
Q 69.78125 59.1875 54.390625 50.984375 
z
" id="IPAexGothic-23376"/>
      <path d="M 77.09375 31.203125 
L 94.828125 31.203125 
L 94.828125 24.90625 
L 28.8125 24.90625 
L 28.8125 31.203125 
L 45.796875 31.203125 
L 45.796875 54.203125 
L 32.8125 54.203125 
L 32.8125 60.5 
L 45.796875 60.5 
L 45.796875 80.515625 
L 52.78125 80.515625 
L 52.78125 60.5 
L 70.015625 60.5 
L 70.015625 80.515625 
L 77.09375 80.515625 
L 77.09375 60.5 
L 92 60.5 
L 92 54.203125 
L 77.09375 54.203125 
z
M 70.015625 31.203125 
L 70.015625 54.203125 
L 52.78125 54.203125 
L 52.78125 31.203125 
z
M 24.75 57.171875 
L 24.75 -6.984375 
L 17.671875 -6.984375 
L 17.671875 42.671875 
Q 13.421875 35.5 8.59375 29 
L 4.6875 35.109375 
Q 19.140625 54.640625 25.140625 81.890625 
L 32.171875 80.328125 
Q 29.390625 68.609375 24.75 57.171875 
z
M 29.5 -0.875 
Q 41.609375 6.890625 49.265625 21.484375 
L 55.671875 18.015625 
Q 47.015625 2.203125 34.671875 -6.6875 
z
M 88.375 -5.515625 
Q 79.15625 7.71875 67.484375 18.21875 
L 73 22.21875 
Q 83.984375 12.890625 94.484375 0.390625 
z
" id="IPAexGothic-20379"/>
      <path d="M 17 -0.59375 
Q 14.40625 15.671875 14.40625 32.515625 
Q 14.40625 50.34375 20.796875 74.90625 
L 28.328125 73.1875 
Q 21.734375 48.640625 21.734375 31.296875 
Q 21.734375 22.515625 22.21875 17.921875 
Q 22.40625 18.453125 28.328125 31.5 
L 33.203125 28.078125 
Q 28.125 16.890625 26.421875 11.921875 
Q 24.703125 7.078125 24.703125 4.203125 
Q 24.703125 1.21875 24.8125 0.09375 
z
M 44.28125 63.09375 
Q 62.015625 65.828125 83.015625 65.1875 
L 83.40625 57.515625 
Q 61.859375 58.25 44.828125 55.421875 
z
M 88.28125 4 
Q 78.8125 2.6875 68.3125 2.6875 
Q 54.109375 2.6875 47.609375 6.78125 
Q 43.5 9.28125 41.796875 13.140625 
Q 40.1875 16.796875 40.1875 22.609375 
Q 40.1875 24.421875 40.28125 25.875 
L 47.703125 26.3125 
Q 47.65625 25.203125 47.5625 23.875 
Q 47.515625 23.140625 47.515625 22.90625 
Q 47.515625 18.75 48.734375 16.453125 
Q 49.65625 14.75 51.703125 13.28125 
Q 55.765625 10.59375 66.796875 10.59375 
Q 76.421875 10.59375 87.3125 11.921875 
z
" id="IPAexGothic-12395"/>
      <path d="M 68.5 43.109375 
L 28.90625 43.109375 
L 28.421875 41.609375 
L 26.703125 36.578125 
L 19.625 39.015625 
Q 26.859375 59.671875 30.21875 81.109375 
L 37.59375 80.078125 
Q 36.578125 74.3125 35.5 68.890625 
L 83.40625 68.890625 
L 83.40625 62.40625 
L 34.078125 62.40625 
Q 32.671875 55.5625 30.8125 49.421875 
L 76.03125 49.421875 
Q 75.875 42.78125 75.390625 28.375 
L 93.890625 28.375 
L 93.890625 21.78125 
L 75 21.78125 
Q 73.78125 6.734375 72.21875 2.390625 
Q 70.75 -1.65625 67.828125 -3.375 
Q 65.046875 -4.984375 58.796875 -4.984375 
Q 49.421875 -4.984375 37.3125 -4 
L 35.984375 4 
Q 50.34375 2 57.90625 2 
Q 64.15625 2 65.53125 7.28125 
Q 66.703125 11.71875 67.390625 21.78125 
L 6 21.78125 
L 6 28.375 
L 67.921875 28.375 
Q 68.359375 36.03125 68.5 43.109375 
z
" id="IPAexGothic-19982"/>
      <path d="M 59.328125 63.09375 
Q 49.125 69.1875 31.453125 73.578125 
L 35.40625 79.78125 
Q 52.9375 75.59375 63.71875 69.828125 
z
M 19.734375 52.296875 
Q 40.09375 53.5625 61.8125 56.890625 
L 67.046875 50.984375 
Q 58.734375 42.828125 44.921875 27.78125 
Q 49.3125 29.390625 52.4375 29.390625 
Q 61.078125 29.390625 61.234375 19.578125 
L 61.421875 11.078125 
Q 61.578125 7.125 64.3125 6.390625 
Q 66.3125 5.8125 70.609375 5.8125 
Q 77.25 5.8125 86.53125 7.515625 
L 87.203125 -0.484375 
Q 79.640625 -1.609375 73.046875 -1.609375 
Q 63.234375 -1.609375 59.234375 0.390625 
Q 54.4375 2.78125 54.109375 9.28125 
L 53.8125 17.09375 
Q 53.65625 23.296875 49.21875 23.296875 
Q 43.75 23.296875 36.28125 16.75 
Q 30.46875 11.671875 17.328125 -2.875 
L 11.53125 2.59375 
Q 32.078125 22.40625 56.203125 49.703125 
Q 40.625 46.6875 21.734375 44.390625 
z
" id="IPAexGothic-12360"/>
      <path d="M 68.609375 68.703125 
L 40.828125 40.4375 
Q 50.390625 43.890625 58.734375 43.890625 
Q 66.609375 43.890625 72.796875 41.015625 
Q 84.234375 35.453125 84.234375 23.1875 
Q 84.234375 11.8125 73.53125 4.296875 
Q 63.625 -2.59375 47.703125 -2.59375 
Q 39.984375 -2.59375 35.109375 0.296875 
Q 29.109375 3.90625 29.109375 10.40625 
Q 29.109375 14.59375 32.328125 17.828125 
Q 36.421875 21.921875 42.828125 21.921875 
Q 54.828125 21.921875 62.796875 6.6875 
Q 76.125 12.25 76.125 23.296875 
Q 76.125 30.953125 69.828125 34.71875 
Q 65.09375 37.59375 57.515625 37.59375 
Q 37.890625 37.59375 19.34375 18.890625 
L 13.921875 24.703125 
Q 38.09375 45.84375 55.90625 66.890625 
Q 40.53125 64.453125 24.8125 63.53125 
L 23.09375 71.09375 
Q 40.53125 71.578125 64.203125 74.421875 
z
M 56.109375 4.734375 
Q 50.6875 16.015625 42.671875 16.015625 
Q 39.890625 16.015625 38.03125 14.59375 
Q 36.1875 13.1875 36.1875 10.9375 
Q 36.1875 3.90625 47.40625 3.90625 
Q 51.171875 3.90625 56.109375 4.734375 
z
" id="IPAexGothic-12427"/>
      <path d="M 55.125 78.8125 
L 55.125 52.4375 
L 37.203125 52.4375 
L 37.203125 46.484375 
L 63.09375 46.484375 
L 63.09375 40.875 
L 5.03125 40.875 
L 5.03125 46.484375 
L 30.515625 46.484375 
L 30.515625 52.4375 
L 12.453125 52.4375 
L 12.453125 78.8125 
z
M 18.953125 73.640625 
L 18.953125 68.3125 
L 48.640625 68.3125 
L 48.640625 73.640625 
z
M 18.953125 63.234375 
L 18.953125 57.625 
L 48.640625 57.625 
L 48.640625 63.234375 
z
M 54.4375 35.5 
L 54.4375 17.1875 
L 37.640625 17.1875 
L 37.640625 -0.59375 
Q 37.640625 -6.984375 30.125 -6.984375 
Q 25.484375 -6.984375 21.734375 -6.109375 
L 20.796875 0.390625 
Q 24.125 -0.59375 28.03125 -0.59375 
Q 31.15625 -0.59375 31.15625 2.484375 
L 31.15625 17.1875 
L 13.375 17.1875 
L 13.375 35.5 
z
M 20.125 29.984375 
L 20.125 22.515625 
L 47.703125 22.515625 
L 47.703125 29.984375 
z
M 50.921875 -1.3125 
Q 46.390625 7.125 41.109375 12.40625 
L 46.390625 15.71875 
Q 51.5625 10.84375 56.9375 2.875 
z
M 59.421875 57.078125 
Q 74.125 64.5 83.203125 78.65625 
L 89.40625 74.90625 
Q 79 59.8125 63.921875 51.5625 
z
M 5.8125 0.6875 
Q 12.890625 6.453125 17.53125 14.3125 
L 23.296875 11.1875 
Q 19.1875 3.265625 11.140625 -4.203125 
z
M 55.90625 -1.21875 
Q 77.984375 8.109375 89.796875 30.71875 
L 96.296875 27.296875 
Q 83.40625 3.421875 61.140625 -7.171875 
z
M 59.515625 29.6875 
Q 77.203125 38.625 86.328125 55.171875 
L 92.71875 51.609375 
Q 82.171875 34.28125 64.203125 24.125 
z
" id="IPAexGothic-24433"/>
      <path d="M 24.90625 52.875 
Q 16.5 51.46875 6.890625 50.59375 
L 4.78125 56.390625 
Q 9.46875 56.390625 11.078125 56.5 
Q 11.96875 57.28125 14.453125 59.625 
Q 16.15625 61.1875 17.1875 62.109375 
Q 11.421875 68.75 6.78125 72.3125 
L 11.1875 76.515625 
Q 12.546875 75.296875 14.203125 73.78125 
Q 18.265625 78.421875 21.578125 83.296875 
L 27.09375 80.171875 
Q 23.78125 75.828125 17.578125 70.125 
Q 20.609375 66.21875 20.90625 65.828125 
Q 24.953125 69.875 29.59375 75.09375 
L 34.578125 71.921875 
Q 27.828125 64.265625 18.5 56.78125 
L 19.875 56.890625 
L 21.6875 56.890625 
L 24.8125 57.078125 
L 27 57.328125 
Q 28.515625 59.90625 29.390625 62.5 
L 34.859375 60.6875 
Q 30.28125 49.03125 21.484375 43.015625 
Q 17.390625 40.28125 11.28125 37.703125 
L 7.171875 42.484375 
Q 18.5625 46.296875 24.90625 52.875 
z
M 63.09375 81.390625 
L 63.09375 58.59375 
L 42.671875 58.59375 
L 42.671875 49.171875 
Q 51.171875 50.4375 56.109375 51.421875 
L 55.765625 52 
Q 54.890625 53.46875 52.6875 56.296875 
L 57.765625 58.296875 
Q 62.453125 52.875 65.875 46 
L 60.5 43.109375 
Q 59.96875 44.578125 58.59375 47.40625 
L 58.015625 47.3125 
Q 48.875 44.78125 32.859375 42 
L 30.859375 47.796875 
Q 35.890625 48.390625 36.671875 48.484375 
L 36.671875 81.390625 
z
M 57.171875 76.703125 
L 42.671875 76.703125 
L 42.671875 72.125 
L 57.171875 72.125 
z
M 57.171875 67.828125 
L 42.671875 67.828125 
L 42.671875 63.09375 
L 57.171875 63.09375 
z
M 84.765625 64.3125 
Q 93.5625 58.9375 93.5625 50.78125 
Q 93.5625 43.796875 85.9375 43.796875 
Q 83.109375 43.796875 79.25 44.28125 
L 77.78125 50.484375 
Q 81.5 49.703125 83.640625 49.703125 
Q 86.96875 49.703125 86.96875 52.390625 
Q 86.96875 57.90625 77.78125 63.484375 
Q 81.890625 70.703125 83.25 75.78125 
L 74.265625 75.78125 
L 74.265625 40.1875 
L 67.96875 40.1875 
L 67.96875 81.390625 
L 87.984375 81.390625 
L 91.265625 78.609375 
Q 88.875 71.390625 84.765625 64.3125 
z
M 46.1875 37.40625 
L 46.1875 43.015625 
L 53.078125 43.015625 
L 53.078125 37.40625 
L 85.890625 37.40625 
L 85.890625 32.71875 
L 71.484375 32.71875 
Q 70.125 29.546875 68.796875 27.296875 
L 94.96875 27.296875 
L 94.96875 22.3125 
L 4.984375 22.3125 
L 4.984375 27.296875 
L 30.765625 27.296875 
Q 29.5 30.671875 28.265625 32.71875 
L 14.984375 32.71875 
L 14.984375 37.40625 
z
M 64.203125 32.71875 
L 35.296875 32.71875 
Q 36.078125 30.90625 37.5 27.296875 
L 61.765625 27.296875 
Q 62.984375 29.546875 64.203125 32.71875 
z
M 81.296875 18.3125 
L 81.296875 -6.984375 
L 74.421875 -6.984375 
L 74.421875 -4 
L 25.390625 -4 
L 25.390625 -6.984375 
L 18.609375 -6.984375 
L 18.609375 18.3125 
z
M 25.390625 13.71875 
L 25.390625 9.71875 
L 74.421875 9.71875 
L 74.421875 13.71875 
z
M 25.390625 5.328125 
L 25.390625 0.875 
L 74.421875 0.875 
L 74.421875 5.328125 
z
" id="IPAexGothic-38911"/>
     </defs>
     <use xlink:href="#IPAexGothic-29238"/>
     <use x="100" xlink:href="#IPAexGothic-35242"/>
     <use x="200" xlink:href="#IPAexGothic-12398"/>
     <use x="300" xlink:href="#IPAexGothic-20181"/>
     <use x="400" xlink:href="#IPAexGothic-20107"/>
     <use x="500" xlink:href="#IPAexGothic-12364"/>
     <use x="600" xlink:href="#IPAexGothic-23376"/>
     <use x="700" xlink:href="#IPAexGothic-20379"/>
     <use x="800" xlink:href="#IPAexGothic-12398"/>
     <use x="900" xlink:href="#IPAexGothic-25104"/>
     <use x="1000" xlink:href="#IPAexGothic-32318"/>
     <use x="1100" xlink:href="#IPAexGothic-12395"/>
     <use x="1200" xlink:href="#IPAexGothic-19982"/>
     <use x="1300" xlink:href="#IPAexGothic-12360"/>
     <use x="1400" xlink:href="#IPAexGothic-12427"/>
     <use x="1500" xlink:href="#IPAexGothic-24433"/>
     <use x="1600" xlink:href="#IPAexGothic-38911"/>
    </g>
   </g>
  </g>
 </g>
 <defs>
  <clipPath id="p32550aab28">
   <rect height="217.44" width="334.8" x="55.66" y="22.18875"/>
  </clipPath>
 </defs>
</svg>
