<?xml version="1.0" encoding="utf-8" standalone="no"?>
<!DOCTYPE svg PUBLIC "-//W3C//DTD SVG 1.1//EN"
  "http://www.w3.org/Graphics/SVG/1.1/DTD/svg11.dtd">
<svg height="266.658437pt" version="1.1" viewBox="0 0 394.753594 266.658437" width="394.753594pt" xmlns="http://www.w3.org/2000/svg" xmlns:xlink="http://www.w3.org/1999/xlink">
 <metadata>
  <rdf:RDF xmlns:cc="http://creativecommons.org/ns#" xmlns:dc="http://purl.org/dc/elements/1.1/" xmlns:rdf="http://www.w3.org/1999/02/22-rdf-syntax-ns#">
   <cc:Work>
    <dc:type rdf:resource="http://purl.org/dc/dcmitype/StillImage"/>
    <dc:date>2021-05-24T14:44:25.632438</dc:date>
    <dc:format>image/svg+xml</dc:format>
    <dc:creator>
     <cc:Agent>
      <dc:title>Matplotlib v3.4.2, https://matplotlib.org/</dc:title>
     </cc:Agent>
    </dc:creator>
   </cc:Work>
  </rdf:RDF>
 </metadata>
 <defs>
  <style type="text/css">*{stroke-linecap:butt;stroke-linejoin:round;}</style>
 </defs>
 <g id="figure_1">
  <g id="patch_1">
   <path d="M 0 266.658437 
L 394.753594 266.658437 
L 394.753594 0 
L 0 0 
z
" style="fill:#ffffff;"/>
  </g>
  <g id="axes_1">
   <g id="patch_2">
    <path d="M 52.753594 239.62875 
L 387.553594 239.62875 
L 387.553594 22.18875 
L 52.753594 22.18875 
z
" style="fill:#eaeaf2;"/>
   </g>
   <g id="matplotlib.axis_1">
    <g id="xtick_1">
     <g id="line2d_1">
      <path clip-path="url(#p8f7726a121)" d="M 99.676321 239.62875 
L 99.676321 22.18875 
" style="fill:none;stroke:#ffffff;stroke-linecap:round;"/>
     </g>
     <g id="text_1">
      <!-- 160 -->
      <g style="fill:#262626;" transform="translate(89.283899 257.368437)scale(0.11 -0.11)">
       <defs>
        <path d="M 2463 63 
L 1900 63 
L 1900 4103 
Q 1372 3922 788 3797 
L 684 4231 
Q 1519 4441 2106 4731 
L 2463 4731 
L 2463 63 
z
" id="IPAexGothic-31" transform="scale(0.015625)"/>
        <path d="M 1056 2328 
Q 1509 2981 2234 2981 
Q 2906 2981 3316 2513 
Q 3675 2106 3675 1522 
Q 3675 884 3272 434 
Q 2853 -31 2178 -31 
Q 1375 -31 922 581 
Q 481 1178 481 2228 
Q 481 3425 1013 4109 
Q 1494 4725 2272 4725 
Q 3191 4725 3609 4025 
L 3150 3775 
Q 2894 4266 2300 4266 
Q 1119 4266 1031 2328 
L 1056 2328 
z
M 2141 2547 
Q 1684 2547 1384 2206 
Q 1116 1900 1116 1541 
Q 1116 1156 1353 844 
Q 1672 428 2159 428 
Q 2669 428 2941 844 
Q 3125 1128 3125 1503 
Q 3125 1944 2881 2228 
Q 2600 2547 2141 2547 
z
" id="IPAexGothic-36" transform="scale(0.015625)"/>
        <path d="M 2038 4725 
Q 2881 4725 3334 3944 
Q 3694 3325 3694 2344 
Q 3694 1372 3334 741 
Q 2888 -31 2016 -31 
Q 1147 -31 700 741 
Q 341 1372 341 2350 
Q 341 3713 1000 4334 
Q 1419 4725 2038 4725 
z
M 2016 4266 
Q 1516 4266 1228 3759 
Q 934 3247 934 2344 
Q 934 1456 1222 947 
Q 1513 447 2016 447 
Q 2619 447 2909 1153 
Q 3100 1622 3100 2375 
Q 3100 3256 2806 3759 
Q 2509 4266 2016 4266 
z
" id="IPAexGothic-30" transform="scale(0.015625)"/>
       </defs>
       <use xlink:href="#IPAexGothic-31"/>
       <use x="62.988281" xlink:href="#IPAexGothic-36"/>
       <use x="125.976562" xlink:href="#IPAexGothic-30"/>
      </g>
     </g>
    </g>
    <g id="xtick_2">
     <g id="line2d_2">
      <path clip-path="url(#p8f7726a121)" d="M 163.085412 239.62875 
L 163.085412 22.18875 
" style="fill:none;stroke:#ffffff;stroke-linecap:round;"/>
     </g>
     <g id="text_2">
      <!-- 170 -->
      <g style="fill:#262626;" transform="translate(152.69299 257.368437)scale(0.11 -0.11)">
       <defs>
        <path d="M 3597 4263 
Q 2238 2106 1778 63 
L 1131 63 
Q 1581 1834 2950 4128 
L 428 4128 
L 428 4634 
L 3597 4634 
L 3597 4263 
z
" id="IPAexGothic-37" transform="scale(0.015625)"/>
       </defs>
       <use xlink:href="#IPAexGothic-31"/>
       <use x="62.988281" xlink:href="#IPAexGothic-37"/>
       <use x="125.976562" xlink:href="#IPAexGothic-30"/>
      </g>
     </g>
    </g>
    <g id="xtick_3">
     <g id="line2d_3">
      <path clip-path="url(#p8f7726a121)" d="M 226.494503 239.62875 
L 226.494503 22.18875 
" style="fill:none;stroke:#ffffff;stroke-linecap:round;"/>
     </g>
     <g id="text_3">
      <!-- 180 -->
      <g style="fill:#262626;" transform="translate(216.102081 257.368437)scale(0.11 -0.11)">
       <defs>
        <path d="M 2541 2425 
Q 3700 2031 3700 1197 
Q 3700 541 3100 197 
Q 2663 -56 2016 -56 
Q 1366 -56 928 197 
Q 347 531 347 1178 
Q 347 1988 1409 2381 
L 1409 2400 
Q 481 2734 481 3509 
Q 481 4100 981 4456 
Q 1406 4756 2019 4756 
Q 2703 4756 3131 4403 
Q 3553 4069 3553 3566 
Q 3553 2706 2541 2444 
L 2541 2425 
z
M 2022 2625 
Q 2997 2856 2997 3528 
Q 2997 3916 2675 4150 
Q 2413 4347 2016 4347 
Q 1606 4347 1331 4128 
Q 1050 3897 1050 3522 
Q 1050 3150 1350 2925 
Q 1494 2809 1722 2722 
Q 1984 2616 2022 2625 
z
M 1978 2209 
Q 922 1931 922 1216 
Q 922 775 1313 556 
Q 1606 391 2009 391 
Q 2575 391 2881 697 
Q 3106 922 3106 1250 
Q 3106 1594 2794 1850 
Q 2609 1994 2350 2100 
Q 2047 2222 1978 2209 
z
" id="IPAexGothic-38" transform="scale(0.015625)"/>
       </defs>
       <use xlink:href="#IPAexGothic-31"/>
       <use x="62.988281" xlink:href="#IPAexGothic-38"/>
       <use x="125.976562" xlink:href="#IPAexGothic-30"/>
      </g>
     </g>
    </g>
    <g id="xtick_4">
     <g id="line2d_4">
      <path clip-path="url(#p8f7726a121)" d="M 289.903594 239.62875 
L 289.903594 22.18875 
" style="fill:none;stroke:#ffffff;stroke-linecap:round;"/>
     </g>
     <g id="text_4">
      <!-- 190 -->
      <g style="fill:#262626;" transform="translate(279.511172 257.368437)scale(0.11 -0.11)">
       <defs>
        <path d="M 2984 2356 
Q 2544 1716 1813 1716 
Q 1253 1716 847 2056 
Q 366 2459 366 3163 
Q 366 3813 769 4266 
Q 1181 4725 1869 4725 
Q 2800 4725 3241 3950 
Q 3559 3378 3559 2472 
Q 3559 1250 3041 588 
Q 2553 -31 1769 -31 
Q 859 -31 391 703 
L 853 953 
Q 1156 428 1753 428 
Q 2922 428 3009 2356 
L 2984 2356 
z
M 1888 4278 
Q 1450 4278 1172 3950 
Q 922 3653 922 3200 
Q 922 2741 1159 2478 
Q 1434 2163 1906 2163 
Q 2431 2163 2728 2572 
Q 2925 2847 2925 3169 
Q 2925 3553 2694 3863 
Q 2375 4278 1888 4278 
z
" id="IPAexGothic-39" transform="scale(0.015625)"/>
       </defs>
       <use xlink:href="#IPAexGothic-31"/>
       <use x="62.988281" xlink:href="#IPAexGothic-39"/>
       <use x="125.976562" xlink:href="#IPAexGothic-30"/>
      </g>
     </g>
    </g>
    <g id="xtick_5">
     <g id="line2d_5">
      <path clip-path="url(#p8f7726a121)" d="M 353.312685 239.62875 
L 353.312685 22.18875 
" style="fill:none;stroke:#ffffff;stroke-linecap:round;"/>
     </g>
     <g id="text_5">
      <!-- 200 -->
      <g style="fill:#262626;" transform="translate(342.920263 257.368437)scale(0.11 -0.11)">
       <defs>
        <path d="M 3659 63 
L 447 63 
L 447 594 
Q 825 1475 1894 2203 
L 2072 2322 
Q 2619 2697 2791 2906 
Q 2988 3153 2988 3444 
Q 2988 3772 2756 4003 
Q 2500 4259 2084 4259 
Q 1250 4259 991 3328 
L 497 3506 
Q 853 4725 2116 4725 
Q 2806 4725 3216 4316 
Q 3575 3947 3575 3425 
Q 3575 3038 3344 2722 
Q 3131 2416 2366 1938 
L 2231 1856 
Q 1256 1253 978 569 
L 3659 569 
L 3659 63 
z
" id="IPAexGothic-32" transform="scale(0.015625)"/>
       </defs>
       <use xlink:href="#IPAexGothic-32"/>
       <use x="62.988281" xlink:href="#IPAexGothic-30"/>
       <use x="125.976562" xlink:href="#IPAexGothic-30"/>
      </g>
     </g>
    </g>
   </g>
   <g id="matplotlib.axis_2">
    <g id="ytick_1">
     <g id="line2d_6">
      <path clip-path="url(#p8f7726a121)" d="M 52.753594 239.62875 
L 387.553594 239.62875 
" style="fill:none;stroke:#ffffff;stroke-linecap:round;"/>
     </g>
     <g id="text_6">
      <!-- 0 -->
      <g style="fill:#262626;" transform="translate(36.325313 243.748594)scale(0.11 -0.11)">
       <use xlink:href="#IPAexGothic-30"/>
      </g>
     </g>
    </g>
    <g id="ytick_2">
     <g id="line2d_7">
      <path clip-path="url(#p8f7726a121)" d="M 52.753594 210.866845 
L 387.553594 210.866845 
" style="fill:none;stroke:#ffffff;stroke-linecap:round;"/>
     </g>
     <g id="text_7">
      <!-- 20 -->
      <g style="fill:#262626;" transform="translate(29.397031 214.986689)scale(0.11 -0.11)">
       <use xlink:href="#IPAexGothic-32"/>
       <use x="62.988281" xlink:href="#IPAexGothic-30"/>
      </g>
     </g>
    </g>
    <g id="ytick_3">
     <g id="line2d_8">
      <path clip-path="url(#p8f7726a121)" d="M 52.753594 182.10494 
L 387.553594 182.10494 
" style="fill:none;stroke:#ffffff;stroke-linecap:round;"/>
     </g>
     <g id="text_8">
      <!-- 40 -->
      <g style="fill:#262626;" transform="translate(29.397031 186.224784)scale(0.11 -0.11)">
       <defs>
        <path d="M 3813 1159 
L 3059 1159 
L 3059 63 
L 2547 63 
L 2547 1159 
L 197 1159 
L 197 1672 
L 2456 4678 
L 3059 4678 
L 3059 1634 
L 3813 1634 
L 3813 1159 
z
M 2578 4109 
L 2559 4109 
Q 2278 3656 2003 3284 
L 759 1634 
L 2547 1634 
L 2547 3144 
Q 2547 3481 2578 4109 
z
" id="IPAexGothic-34" transform="scale(0.015625)"/>
       </defs>
       <use xlink:href="#IPAexGothic-34"/>
       <use x="62.988281" xlink:href="#IPAexGothic-30"/>
      </g>
     </g>
    </g>
    <g id="ytick_4">
     <g id="line2d_9">
      <path clip-path="url(#p8f7726a121)" d="M 52.753594 153.343036 
L 387.553594 153.343036 
" style="fill:none;stroke:#ffffff;stroke-linecap:round;"/>
     </g>
     <g id="text_9">
      <!-- 60 -->
      <g style="fill:#262626;" transform="translate(29.397031 157.462879)scale(0.11 -0.11)">
       <use xlink:href="#IPAexGothic-36"/>
       <use x="62.988281" xlink:href="#IPAexGothic-30"/>
      </g>
     </g>
    </g>
    <g id="ytick_5">
     <g id="line2d_10">
      <path clip-path="url(#p8f7726a121)" d="M 52.753594 124.581131 
L 387.553594 124.581131 
" style="fill:none;stroke:#ffffff;stroke-linecap:round;"/>
     </g>
     <g id="text_10">
      <!-- 80 -->
      <g style="fill:#262626;" transform="translate(29.397031 128.700975)scale(0.11 -0.11)">
       <use xlink:href="#IPAexGothic-38"/>
       <use x="62.988281" xlink:href="#IPAexGothic-30"/>
      </g>
     </g>
    </g>
    <g id="ytick_6">
     <g id="line2d_11">
      <path clip-path="url(#p8f7726a121)" d="M 52.753594 95.819226 
L 387.553594 95.819226 
" style="fill:none;stroke:#ffffff;stroke-linecap:round;"/>
     </g>
     <g id="text_11">
      <!-- 100 -->
      <g style="fill:#262626;" transform="translate(22.46875 99.93907)scale(0.11 -0.11)">
       <use xlink:href="#IPAexGothic-31"/>
       <use x="62.988281" xlink:href="#IPAexGothic-30"/>
       <use x="125.976562" xlink:href="#IPAexGothic-30"/>
      </g>
     </g>
    </g>
    <g id="ytick_7">
     <g id="line2d_12">
      <path clip-path="url(#p8f7726a121)" d="M 52.753594 67.057321 
L 387.553594 67.057321 
" style="fill:none;stroke:#ffffff;stroke-linecap:round;"/>
     </g>
     <g id="text_12">
      <!-- 120 -->
      <g style="fill:#262626;" transform="translate(22.46875 71.177165)scale(0.11 -0.11)">
       <use xlink:href="#IPAexGothic-31"/>
       <use x="62.988281" xlink:href="#IPAexGothic-32"/>
       <use x="125.976562" xlink:href="#IPAexGothic-30"/>
      </g>
     </g>
    </g>
    <g id="ytick_8">
     <g id="line2d_13">
      <path clip-path="url(#p8f7726a121)" d="M 52.753594 38.295417 
L 387.553594 38.295417 
" style="fill:none;stroke:#ffffff;stroke-linecap:round;"/>
     </g>
     <g id="text_13">
      <!-- 140 -->
      <g style="fill:#262626;" transform="translate(22.46875 42.41526)scale(0.11 -0.11)">
       <use xlink:href="#IPAexGothic-31"/>
       <use x="62.988281" xlink:href="#IPAexGothic-34"/>
       <use x="125.976562" xlink:href="#IPAexGothic-30"/>
      </g>
     </g>
    </g>
    <g id="text_14">
     <!-- Frequency -->
     <g style="fill:#262626;" transform="translate(16.18875 160.584375)rotate(-90)scale(0.12 -0.12)">
      <defs>
       <path d="M 3469 4141 
L 1172 4141 
L 1172 2656 
L 3206 2656 
L 3206 2188 
L 1172 2188 
L 1172 63 
L 609 63 
L 609 4634 
L 3469 4634 
L 3469 4141 
z
" id="IPAexGothic-46" transform="scale(0.015625)"/>
       <path d="M 2309 3316 
L 2213 2769 
Q 2106 2791 2022 2791 
Q 1653 2791 1413 2444 
Q 1113 2006 1113 1675 
L 1113 63 
L 563 63 
L 563 3250 
L 1081 3250 
L 1056 2303 
L 1069 2303 
Q 1422 3341 2097 3341 
Q 2206 3341 2309 3316 
z
" id="IPAexGothic-72" transform="scale(0.015625)"/>
       <path d="M 863 1594 
Q 891 1041 1209 722 
Q 1534 397 1997 397 
Q 2606 397 2963 966 
L 3322 728 
Q 2869 -31 1931 -31 
Q 1222 -31 766 422 
Q 306 884 306 1641 
Q 306 2444 788 2925 
Q 1216 3353 1856 3353 
Q 2459 3353 2866 2956 
Q 3322 2494 3322 1722 
L 3322 1594 
L 863 1594 
z
M 2756 1997 
Q 2709 2431 2450 2681 
Q 2194 2938 1844 2938 
Q 1438 2938 1150 2591 
Q 953 2356 894 1997 
L 2756 1997 
z
" id="IPAexGothic-65" transform="scale(0.015625)"/>
       <path d="M 3397 -1216 
L 2847 -1216 
L 2847 556 
Q 2441 -31 1759 -31 
Q 1181 -31 788 372 
Q 313 844 313 1656 
Q 313 2450 788 2925 
Q 1203 3341 1803 3341 
Q 2472 3341 2903 2803 
L 2981 3275 
L 3397 3275 
L 3397 -1216 
z
M 2847 1278 
L 2847 2091 
Q 2847 2272 2650 2509 
Q 2319 2906 1869 2906 
Q 1406 2906 1131 2516 
Q 888 2175 888 1672 
Q 888 1116 1169 756 
Q 1447 409 1853 409 
Q 2334 409 2669 875 
Q 2847 1131 2847 1278 
z
" id="IPAexGothic-71" transform="scale(0.015625)"/>
       <path d="M 3284 63 
L 2772 63 
L 2772 644 
Q 2300 0 1625 0 
Q 1072 0 763 375 
Q 519 678 519 1241 
L 519 3250 
L 1069 3250 
L 1069 1259 
Q 1069 466 1734 466 
Q 2406 466 2734 1291 
L 2734 3250 
L 3284 3250 
L 3284 63 
z
" id="IPAexGothic-75" transform="scale(0.015625)"/>
       <path d="M 3328 63 
L 2778 63 
L 2778 2041 
Q 2778 2853 2106 2853 
Q 1428 2853 1113 2041 
L 1113 63 
L 563 63 
L 563 3250 
L 1075 3250 
L 1075 2675 
Q 1525 3316 2222 3316 
Q 3328 3316 3328 2072 
L 3328 63 
z
" id="IPAexGothic-6e" transform="scale(0.015625)"/>
       <path d="M 3269 784 
Q 2834 -31 1900 -31 
Q 1228 -31 788 409 
Q 313 891 313 1663 
Q 313 2428 788 2913 
Q 1222 3347 1881 3347 
Q 2813 3347 3206 2541 
L 2763 2309 
Q 2484 2900 1900 2900 
Q 1516 2900 1234 2619 
Q 881 2266 881 1650 
Q 881 1069 1222 728 
Q 1522 428 1956 428 
Q 2547 428 2847 1016 
L 3269 784 
z
" id="IPAexGothic-63" transform="scale(0.015625)"/>
       <path d="M 3122 3250 
L 1575 -488 
Q 1278 -1203 550 -1203 
L 478 -1203 
L 344 -703 
L 447 -703 
Q 969 -703 1150 -238 
L 1356 275 
L 38 3250 
L 659 3250 
L 1363 1459 
Q 1528 1025 1606 781 
L 1625 781 
Q 1750 1169 1863 1459 
L 2528 3250 
L 3122 3250 
z
" id="IPAexGothic-79" transform="scale(0.015625)"/>
      </defs>
      <use xlink:href="#IPAexGothic-46"/>
      <use x="57.177734" xlink:href="#IPAexGothic-72"/>
      <use x="94.189453" xlink:href="#IPAexGothic-65"/>
      <use x="151.074219" xlink:href="#IPAexGothic-71"/>
      <use x="213.28125" xlink:href="#IPAexGothic-75"/>
      <use x="273.681641" xlink:href="#IPAexGothic-65"/>
      <use x="330.566406" xlink:href="#IPAexGothic-6e"/>
      <use x="390.966797" xlink:href="#IPAexGothic-63"/>
      <use x="445.361328" xlink:href="#IPAexGothic-79"/>
     </g>
    </g>
   </g>
   <g id="patch_3">
    <path clip-path="url(#p8f7726a121)" d="M 118.699048 239.62875 
L 131.380866 239.62875 
L 131.380866 238.190655 
L 118.699048 238.190655 
z
" style="fill:#4c72b0;opacity:0.5;stroke:#ffffff;stroke-linejoin:miter;"/>
   </g>
   <g id="patch_4">
    <path clip-path="url(#p8f7726a121)" d="M 131.380866 239.62875 
L 144.062685 239.62875 
L 144.062685 239.62875 
L 131.380866 239.62875 
z
" style="fill:#4c72b0;opacity:0.5;stroke:#ffffff;stroke-linejoin:miter;"/>
   </g>
   <g id="patch_5">
    <path clip-path="url(#p8f7726a121)" d="M 144.062685 239.62875 
L 156.744503 239.62875 
L 156.744503 228.123988 
L 144.062685 228.123988 
z
" style="fill:#4c72b0;opacity:0.5;stroke:#ffffff;stroke-linejoin:miter;"/>
   </g>
   <g id="patch_6">
    <path clip-path="url(#p8f7726a121)" d="M 156.744503 239.62875 
L 169.426321 239.62875 
L 169.426321 226.685893 
L 156.744503 226.685893 
z
" style="fill:#4c72b0;opacity:0.5;stroke:#ffffff;stroke-linejoin:miter;"/>
   </g>
   <g id="patch_7">
    <path clip-path="url(#p8f7726a121)" d="M 169.426321 239.62875 
L 182.108139 239.62875 
L 182.108139 210.866845 
L 169.426321 210.866845 
z
" style="fill:#4c72b0;opacity:0.5;stroke:#ffffff;stroke-linejoin:miter;"/>
   </g>
   <g id="patch_8">
    <path clip-path="url(#p8f7726a121)" d="M 182.108139 239.62875 
L 194.789957 239.62875 
L 194.789957 170.600179 
L 182.108139 170.600179 
z
" style="fill:#4c72b0;opacity:0.5;stroke:#ffffff;stroke-linejoin:miter;"/>
   </g>
   <g id="patch_9">
    <path clip-path="url(#p8f7726a121)" d="M 194.789957 239.62875 
L 207.471776 239.62875 
L 207.471776 118.82875 
L 194.789957 118.82875 
z
" style="fill:#4c72b0;opacity:0.5;stroke:#ffffff;stroke-linejoin:miter;"/>
   </g>
   <g id="patch_10">
    <path clip-path="url(#p8f7726a121)" d="M 207.471776 239.62875 
L 220.153594 239.62875 
L 220.153594 56.990655 
L 207.471776 56.990655 
z
" style="fill:#4c72b0;opacity:0.5;stroke:#ffffff;stroke-linejoin:miter;"/>
   </g>
   <g id="patch_11">
    <path clip-path="url(#p8f7726a121)" d="M 220.153594 239.62875 
L 232.835412 239.62875 
L 232.835412 32.543036 
L 220.153594 32.543036 
z
" style="fill:#4c72b0;opacity:0.5;stroke:#ffffff;stroke-linejoin:miter;"/>
   </g>
   <g id="patch_12">
    <path clip-path="url(#p8f7726a121)" d="M 232.835412 239.62875 
L 245.51723 239.62875 
L 245.51723 81.438274 
L 232.835412 81.438274 
z
" style="fill:#4c72b0;opacity:0.5;stroke:#ffffff;stroke-linejoin:miter;"/>
   </g>
   <g id="patch_13">
    <path clip-path="url(#p8f7726a121)" d="M 245.51723 239.62875 
L 258.199048 239.62875 
L 258.199048 108.762083 
L 245.51723 108.762083 
z
" style="fill:#4c72b0;opacity:0.5;stroke:#ffffff;stroke-linejoin:miter;"/>
   </g>
   <g id="patch_14">
    <path clip-path="url(#p8f7726a121)" d="M 258.199048 239.62875 
L 270.880866 239.62875 
L 270.880866 136.085893 
L 258.199048 136.085893 
z
" style="fill:#4c72b0;opacity:0.5;stroke:#ffffff;stroke-linejoin:miter;"/>
   </g>
   <g id="patch_15">
    <path clip-path="url(#p8f7726a121)" d="M 270.880866 239.62875 
L 283.562685 239.62875 
L 283.562685 179.22875 
L 270.880866 179.22875 
z
" style="fill:#4c72b0;opacity:0.5;stroke:#ffffff;stroke-linejoin:miter;"/>
   </g>
   <g id="patch_16">
    <path clip-path="url(#p8f7726a121)" d="M 283.562685 239.62875 
L 296.244503 239.62875 
L 296.244503 207.990655 
L 283.562685 207.990655 
z
" style="fill:#4c72b0;opacity:0.5;stroke:#ffffff;stroke-linejoin:miter;"/>
   </g>
   <g id="patch_17">
    <path clip-path="url(#p8f7726a121)" d="M 296.244503 239.62875 
L 308.926321 239.62875 
L 308.926321 213.743036 
L 296.244503 213.743036 
z
" style="fill:#4c72b0;opacity:0.5;stroke:#ffffff;stroke-linejoin:miter;"/>
   </g>
   <g id="patch_18">
    <path clip-path="url(#p8f7726a121)" d="M 308.926321 239.62875 
L 321.608139 239.62875 
L 321.608139 225.247798 
L 308.926321 225.247798 
z
" style="fill:#4c72b0;opacity:0.5;stroke:#ffffff;stroke-linejoin:miter;"/>
   </g>
   <g id="patch_19">
    <path clip-path="url(#p8f7726a121)" d="M 321.608139 239.62875 
L 334.289957 239.62875 
L 334.289957 228.123988 
L 321.608139 228.123988 
z
" style="fill:#4c72b0;opacity:0.5;stroke:#ffffff;stroke-linejoin:miter;"/>
   </g>
   <g id="patch_20">
    <path clip-path="url(#p8f7726a121)" d="M 334.289957 239.62875 
L 346.971776 239.62875 
L 346.971776 233.876369 
L 334.289957 233.876369 
z
" style="fill:#4c72b0;opacity:0.5;stroke:#ffffff;stroke-linejoin:miter;"/>
   </g>
   <g id="patch_21">
    <path clip-path="url(#p8f7726a121)" d="M 346.971776 239.62875 
L 359.653594 239.62875 
L 359.653594 238.190655 
L 346.971776 238.190655 
z
" style="fill:#4c72b0;opacity:0.5;stroke:#ffffff;stroke-linejoin:miter;"/>
   </g>
   <g id="patch_22">
    <path clip-path="url(#p8f7726a121)" d="M 359.653594 239.62875 
L 372.335412 239.62875 
L 372.335412 235.314464 
L 359.653594 235.314464 
z
" style="fill:#4c72b0;opacity:0.5;stroke:#ffffff;stroke-linejoin:miter;"/>
   </g>
   <g id="patch_23">
    <path clip-path="url(#p8f7726a121)" d="M 67.971776 239.62875 
L 81.287685 239.62875 
L 81.287685 238.190655 
L 67.971776 238.190655 
z
" style="fill:#dd8452;opacity:0.5;stroke:#ffffff;stroke-linejoin:miter;"/>
   </g>
   <g id="patch_24">
    <path clip-path="url(#p8f7726a121)" d="M 81.287685 239.62875 
L 94.603594 239.62875 
L 94.603594 238.190655 
L 81.287685 238.190655 
z
" style="fill:#dd8452;opacity:0.5;stroke:#ffffff;stroke-linejoin:miter;"/>
   </g>
   <g id="patch_25">
    <path clip-path="url(#p8f7726a121)" d="M 94.603594 239.62875 
L 107.919503 239.62875 
L 107.919503 238.190655 
L 94.603594 238.190655 
z
" style="fill:#dd8452;opacity:0.5;stroke:#ffffff;stroke-linejoin:miter;"/>
   </g>
   <g id="patch_26">
    <path clip-path="url(#p8f7726a121)" d="M 107.919503 239.62875 
L 121.235412 239.62875 
L 121.235412 236.75256 
L 107.919503 236.75256 
z
" style="fill:#dd8452;opacity:0.5;stroke:#ffffff;stroke-linejoin:miter;"/>
   </g>
   <g id="patch_27">
    <path clip-path="url(#p8f7726a121)" d="M 121.235412 239.62875 
L 134.551321 239.62875 
L 134.551321 229.562083 
L 121.235412 229.562083 
z
" style="fill:#dd8452;opacity:0.5;stroke:#ffffff;stroke-linejoin:miter;"/>
   </g>
   <g id="patch_28">
    <path clip-path="url(#p8f7726a121)" d="M 134.551321 239.62875 
L 147.86723 239.62875 
L 147.86723 219.495417 
L 134.551321 219.495417 
z
" style="fill:#dd8452;opacity:0.5;stroke:#ffffff;stroke-linejoin:miter;"/>
   </g>
   <g id="patch_29">
    <path clip-path="url(#p8f7726a121)" d="M 147.86723 239.62875 
L 161.183139 239.62875 
L 161.183139 203.676369 
L 147.86723 203.676369 
z
" style="fill:#dd8452;opacity:0.5;stroke:#ffffff;stroke-linejoin:miter;"/>
   </g>
   <g id="patch_30">
    <path clip-path="url(#p8f7726a121)" d="M 161.183139 239.62875 
L 174.499048 239.62875 
L 174.499048 159.095417 
L 161.183139 159.095417 
z
" style="fill:#dd8452;opacity:0.5;stroke:#ffffff;stroke-linejoin:miter;"/>
   </g>
   <g id="patch_31">
    <path clip-path="url(#p8f7726a121)" d="M 174.499048 239.62875 
L 187.814957 239.62875 
L 187.814957 149.02875 
L 174.499048 149.02875 
z
" style="fill:#dd8452;opacity:0.5;stroke:#ffffff;stroke-linejoin:miter;"/>
   </g>
   <g id="patch_32">
    <path clip-path="url(#p8f7726a121)" d="M 187.814957 239.62875 
L 201.130866 239.62875 
L 201.130866 157.657321 
L 187.814957 157.657321 
z
" style="fill:#dd8452;opacity:0.5;stroke:#ffffff;stroke-linejoin:miter;"/>
   </g>
   <g id="patch_33">
    <path clip-path="url(#p8f7726a121)" d="M 201.130866 239.62875 
L 214.446776 239.62875 
L 214.446776 80.000179 
L 201.130866 80.000179 
z
" style="fill:#dd8452;opacity:0.5;stroke:#ffffff;stroke-linejoin:miter;"/>
   </g>
   <g id="patch_34">
    <path clip-path="url(#p8f7726a121)" d="M 214.446776 239.62875 
L 227.762685 239.62875 
L 227.762685 156.219226 
L 214.446776 156.219226 
z
" style="fill:#dd8452;opacity:0.5;stroke:#ffffff;stroke-linejoin:miter;"/>
   </g>
   <g id="patch_35">
    <path clip-path="url(#p8f7726a121)" d="M 227.762685 239.62875 
L 241.078594 239.62875 
L 241.078594 150.466845 
L 227.762685 150.466845 
z
" style="fill:#dd8452;opacity:0.5;stroke:#ffffff;stroke-linejoin:miter;"/>
   </g>
   <g id="patch_36">
    <path clip-path="url(#p8f7726a121)" d="M 241.078594 239.62875 
L 254.394503 239.62875 
L 254.394503 146.15256 
L 241.078594 146.15256 
z
" style="fill:#dd8452;opacity:0.5;stroke:#ffffff;stroke-linejoin:miter;"/>
   </g>
   <g id="patch_37">
    <path clip-path="url(#p8f7726a121)" d="M 254.394503 239.62875 
L 267.710412 239.62875 
L 267.710412 179.22875 
L 254.394503 179.22875 
z
" style="fill:#dd8452;opacity:0.5;stroke:#ffffff;stroke-linejoin:miter;"/>
   </g>
   <g id="patch_38">
    <path clip-path="url(#p8f7726a121)" d="M 267.710412 239.62875 
L 281.026321 239.62875 
L 281.026321 176.35256 
L 267.710412 176.35256 
z
" style="fill:#dd8452;opacity:0.5;stroke:#ffffff;stroke-linejoin:miter;"/>
   </g>
   <g id="patch_39">
    <path clip-path="url(#p8f7726a121)" d="M 281.026321 239.62875 
L 294.34223 239.62875 
L 294.34223 218.057321 
L 281.026321 218.057321 
z
" style="fill:#dd8452;opacity:0.5;stroke:#ffffff;stroke-linejoin:miter;"/>
   </g>
   <g id="patch_40">
    <path clip-path="url(#p8f7726a121)" d="M 294.34223 239.62875 
L 307.658139 239.62875 
L 307.658139 223.809702 
L 294.34223 223.809702 
z
" style="fill:#dd8452;opacity:0.5;stroke:#ffffff;stroke-linejoin:miter;"/>
   </g>
   <g id="patch_41">
    <path clip-path="url(#p8f7726a121)" d="M 307.658139 239.62875 
L 320.974048 239.62875 
L 320.974048 236.75256 
L 307.658139 236.75256 
z
" style="fill:#dd8452;opacity:0.5;stroke:#ffffff;stroke-linejoin:miter;"/>
   </g>
   <g id="patch_42">
    <path clip-path="url(#p8f7726a121)" d="M 320.974048 239.62875 
L 334.289957 239.62875 
L 334.289957 231.000179 
L 320.974048 231.000179 
z
" style="fill:#dd8452;opacity:0.5;stroke:#ffffff;stroke-linejoin:miter;"/>
   </g>
   <g id="patch_43">
    <path clip-path="url(#p8f7726a121)" d="M 150.403594 239.62875 
L 158.963821 239.62875 
L 158.963821 238.190655 
L 150.403594 238.190655 
z
" style="fill:#55a868;opacity:0.5;stroke:#ffffff;stroke-linejoin:miter;"/>
   </g>
   <g id="patch_44">
    <path clip-path="url(#p8f7726a121)" d="M 158.963821 239.62875 
L 167.524048 239.62875 
L 167.524048 239.62875 
L 158.963821 239.62875 
z
" style="fill:#55a868;opacity:0.5;stroke:#ffffff;stroke-linejoin:miter;"/>
   </g>
   <g id="patch_45">
    <path clip-path="url(#p8f7726a121)" d="M 167.524048 239.62875 
L 176.084276 239.62875 
L 176.084276 236.75256 
L 167.524048 236.75256 
z
" style="fill:#55a868;opacity:0.5;stroke:#ffffff;stroke-linejoin:miter;"/>
   </g>
   <g id="patch_46">
    <path clip-path="url(#p8f7726a121)" d="M 176.084276 239.62875 
L 184.644503 239.62875 
L 184.644503 238.190655 
L 176.084276 238.190655 
z
" style="fill:#55a868;opacity:0.5;stroke:#ffffff;stroke-linejoin:miter;"/>
   </g>
   <g id="patch_47">
    <path clip-path="url(#p8f7726a121)" d="M 184.644503 239.62875 
L 193.20473 239.62875 
L 193.20473 238.190655 
L 184.644503 238.190655 
z
" style="fill:#55a868;opacity:0.5;stroke:#ffffff;stroke-linejoin:miter;"/>
   </g>
   <g id="patch_48">
    <path clip-path="url(#p8f7726a121)" d="M 193.20473 239.62875 
L 201.764957 239.62875 
L 201.764957 233.876369 
L 193.20473 233.876369 
z
" style="fill:#55a868;opacity:0.5;stroke:#ffffff;stroke-linejoin:miter;"/>
   </g>
   <g id="patch_49">
    <path clip-path="url(#p8f7726a121)" d="M 201.764957 239.62875 
L 210.325185 239.62875 
L 210.325185 236.75256 
L 201.764957 236.75256 
z
" style="fill:#55a868;opacity:0.5;stroke:#ffffff;stroke-linejoin:miter;"/>
   </g>
   <g id="patch_50">
    <path clip-path="url(#p8f7726a121)" d="M 210.325185 239.62875 
L 218.885412 239.62875 
L 218.885412 235.314464 
L 210.325185 235.314464 
z
" style="fill:#55a868;opacity:0.5;stroke:#ffffff;stroke-linejoin:miter;"/>
   </g>
   <g id="patch_51">
    <path clip-path="url(#p8f7726a121)" d="M 218.885412 239.62875 
L 227.445639 239.62875 
L 227.445639 232.438274 
L 218.885412 232.438274 
z
" style="fill:#55a868;opacity:0.5;stroke:#ffffff;stroke-linejoin:miter;"/>
   </g>
   <g id="patch_52">
    <path clip-path="url(#p8f7726a121)" d="M 227.445639 239.62875 
L 236.005866 239.62875 
L 236.005866 236.75256 
L 227.445639 236.75256 
z
" style="fill:#55a868;opacity:0.5;stroke:#ffffff;stroke-linejoin:miter;"/>
   </g>
   <g id="patch_53">
    <path clip-path="url(#p8f7726a121)" d="M 236.005866 239.62875 
L 244.566094 239.62875 
L 244.566094 233.876369 
L 236.005866 233.876369 
z
" style="fill:#55a868;opacity:0.5;stroke:#ffffff;stroke-linejoin:miter;"/>
   </g>
   <g id="patch_54">
    <path clip-path="url(#p8f7726a121)" d="M 244.566094 239.62875 
L 253.126321 239.62875 
L 253.126321 225.247798 
L 244.566094 225.247798 
z
" style="fill:#55a868;opacity:0.5;stroke:#ffffff;stroke-linejoin:miter;"/>
   </g>
   <g id="patch_55">
    <path clip-path="url(#p8f7726a121)" d="M 253.126321 239.62875 
L 261.686548 239.62875 
L 261.686548 223.809702 
L 253.126321 223.809702 
z
" style="fill:#55a868;opacity:0.5;stroke:#ffffff;stroke-linejoin:miter;"/>
   </g>
   <g id="patch_56">
    <path clip-path="url(#p8f7726a121)" d="M 261.686548 239.62875 
L 270.246776 239.62875 
L 270.246776 232.438274 
L 261.686548 232.438274 
z
" style="fill:#55a868;opacity:0.5;stroke:#ffffff;stroke-linejoin:miter;"/>
   </g>
   <g id="patch_57">
    <path clip-path="url(#p8f7726a121)" d="M 270.246776 239.62875 
L 278.807003 239.62875 
L 278.807003 231.000179 
L 270.246776 231.000179 
z
" style="fill:#55a868;opacity:0.5;stroke:#ffffff;stroke-linejoin:miter;"/>
   </g>
   <g id="patch_58">
    <path clip-path="url(#p8f7726a121)" d="M 278.807003 239.62875 
L 287.36723 239.62875 
L 287.36723 238.190655 
L 278.807003 238.190655 
z
" style="fill:#55a868;opacity:0.5;stroke:#ffffff;stroke-linejoin:miter;"/>
   </g>
   <g id="patch_59">
    <path clip-path="url(#p8f7726a121)" d="M 287.36723 239.62875 
L 295.927457 239.62875 
L 295.927457 235.314464 
L 287.36723 235.314464 
z
" style="fill:#55a868;opacity:0.5;stroke:#ffffff;stroke-linejoin:miter;"/>
   </g>
   <g id="patch_60">
    <path clip-path="url(#p8f7726a121)" d="M 295.927457 239.62875 
L 304.487685 239.62875 
L 304.487685 231.000179 
L 295.927457 231.000179 
z
" style="fill:#55a868;opacity:0.5;stroke:#ffffff;stroke-linejoin:miter;"/>
   </g>
   <g id="patch_61">
    <path clip-path="url(#p8f7726a121)" d="M 304.487685 239.62875 
L 313.047912 239.62875 
L 313.047912 236.75256 
L 304.487685 236.75256 
z
" style="fill:#55a868;opacity:0.5;stroke:#ffffff;stroke-linejoin:miter;"/>
   </g>
   <g id="patch_62">
    <path clip-path="url(#p8f7726a121)" d="M 313.047912 239.62875 
L 321.608139 239.62875 
L 321.608139 238.190655 
L 313.047912 238.190655 
z
" style="fill:#55a868;opacity:0.5;stroke:#ffffff;stroke-linejoin:miter;"/>
   </g>
   <g id="patch_63">
    <path d="M 52.753594 239.62875 
L 52.753594 22.18875 
" style="fill:none;stroke:#ffffff;stroke-linecap:square;stroke-linejoin:miter;stroke-width:1.25;"/>
   </g>
   <g id="patch_64">
    <path d="M 387.553594 239.62875 
L 387.553594 22.18875 
" style="fill:none;stroke:#ffffff;stroke-linecap:square;stroke-linejoin:miter;stroke-width:1.25;"/>
   </g>
   <g id="patch_65">
    <path d="M 52.753594 239.62875 
L 387.553594 239.62875 
" style="fill:none;stroke:#ffffff;stroke-linecap:square;stroke-linejoin:miter;stroke-width:1.25;"/>
   </g>
   <g id="patch_66">
    <path d="M 52.753594 22.18875 
L 387.553594 22.18875 
" style="fill:none;stroke:#ffffff;stroke-linecap:square;stroke-linejoin:miter;stroke-width:1.25;"/>
   </g>
   <g id="text_15">
    <!-- 身長 -->
    <g style="fill:#262626;" transform="translate(208.153594 16.18875)scale(0.12 -0.12)">
     <defs>
      <path d="M 4456 1503 
Q 3147 375 941 -403 
L 641 6 
Q 2784 628 4013 1644 
Q 2666 1425 666 1284 
L 531 1741 
L 953 1759 
L 1063 1766 
L 1441 1791 
L 1441 4691 
L 2559 4691 
Q 2709 5038 2784 5356 
L 3322 5278 
Q 3188 4969 3034 4691 
L 4878 4691 
L 4878 2481 
Q 5256 2928 5600 3488 
L 6003 3213 
Q 5528 2522 4903 1913 
L 4903 72 
Q 4903 -244 4744 -356 
Q 4619 -453 4309 -453 
Q 3859 -453 3366 -409 
L 3263 78 
Q 3850 0 4244 0 
Q 4456 0 4456 206 
L 4456 1503 
z
M 4425 2022 
L 4425 2469 
L 1881 2469 
L 1881 1816 
L 2106 1828 
Q 3641 1925 4425 2022 
z
M 4425 2853 
L 4425 3384 
L 1881 3384 
L 1881 2853 
L 4425 2853 
z
M 4425 3769 
L 4425 4300 
L 1881 4300 
L 1881 3769 
L 4425 3769 
z
" id="IPAexGothic-8eab" transform="scale(0.015625)"/>
      <path d="M 1913 4581 
L 1913 4128 
L 5131 4128 
L 5131 3744 
L 1913 3744 
L 1913 3284 
L 5131 3284 
L 5131 2900 
L 1913 2900 
L 1913 2413 
L 6041 2413 
L 6041 2016 
L 3384 2016 
Q 3603 1503 4063 1063 
Q 4709 1478 5259 1984 
L 5650 1709 
Q 4950 1134 4378 788 
Q 5044 272 6066 6 
L 5766 -409 
Q 3613 259 2931 2016 
L 1913 2016 
L 1913 269 
Q 2741 466 3409 666 
L 3450 281 
Q 2244 -131 769 -456 
L 575 -6 
Q 1447 159 1453 159 
L 1453 2016 
L 353 2016 
L 353 2413 
L 1453 2413 
L 1453 4978 
L 5356 4978 
L 5356 4581 
L 1913 4581 
z
" id="IPAexGothic-9577" transform="scale(0.015625)"/>
     </defs>
     <use xlink:href="#IPAexGothic-8eab"/>
     <use x="100" xlink:href="#IPAexGothic-9577"/>
    </g>
   </g>
  </g>
 </g>
 <defs>
  <clipPath id="p8f7726a121">
   <rect height="217.44" width="334.8" x="52.753594" y="22.18875"/>
  </clipPath>
 </defs>
</svg>
