<?xml version="1.0" encoding="utf-8" standalone="no"?>
<!DOCTYPE svg PUBLIC "-//W3C//DTD SVG 1.1//EN"
  "http://www.w3.org/Graphics/SVG/1.1/DTD/svg11.dtd">
<!-- Created with matplotlib (https://matplotlib.org/) -->
<svg height="266.658437pt" version="1.1" viewBox="0 0 394.753594 266.658437" width="394.753594pt" xmlns="http://www.w3.org/2000/svg" xmlns:xlink="http://www.w3.org/1999/xlink">
 <metadata>
  <rdf:RDF xmlns:cc="http://creativecommons.org/ns#" xmlns:dc="http://purl.org/dc/elements/1.1/" xmlns:rdf="http://www.w3.org/1999/02/22-rdf-syntax-ns#">
   <cc:Work>
    <dc:type rdf:resource="http://purl.org/dc/dcmitype/StillImage"/>
    <dc:date>2021-03-05T18:59:07.299013</dc:date>
    <dc:format>image/svg+xml</dc:format>
    <dc:creator>
     <cc:Agent>
      <dc:title>Matplotlib v3.3.4, https://matplotlib.org/</dc:title>
     </cc:Agent>
    </dc:creator>
   </cc:Work>
  </rdf:RDF>
 </metadata>
 <defs>
  <style type="text/css">*{stroke-linecap:butt;stroke-linejoin:round;}</style>
 </defs>
 <g id="figure_1">
  <g id="patch_1">
   <path d="M 0 266.658437 
L 394.753594 266.658437 
L 394.753594 0 
L 0 0 
z
" style="fill:#ffffff;"/>
  </g>
  <g id="axes_1">
   <g id="patch_2">
    <path d="M 52.753594 239.62875 
L 387.553594 239.62875 
L 387.553594 22.18875 
L 52.753594 22.18875 
z
" style="fill:#eaeaf2;"/>
   </g>
   <g id="matplotlib.axis_1">
    <g id="xtick_1">
     <g id="line2d_1">
      <path clip-path="url(#p92c281fc00)" d="M 99.676321 239.62875 
L 99.676321 22.18875 
" style="fill:none;stroke:#ffffff;stroke-linecap:round;"/>
     </g>
     <g id="text_1">
      <!-- 160 -->
      <g style="fill:#262626;" transform="translate(89.283899 257.368437)scale(0.11 -0.11)">
       <defs>
        <path d="M 38.484375 0.984375 
L 29.6875 0.984375 
L 29.6875 64.109375 
Q 21.4375 61.28125 12.3125 59.328125 
L 10.6875 66.109375 
Q 23.734375 69.390625 32.90625 73.921875 
L 38.484375 73.921875 
z
" id="IPAexGothic-49"/>
        <path d="M 16.5 36.375 
Q 23.578125 46.578125 34.90625 46.578125 
Q 45.40625 46.578125 51.8125 39.265625 
Q 57.421875 32.90625 57.421875 23.78125 
Q 57.421875 13.8125 51.125 6.78125 
Q 44.578125 -0.484375 34.03125 -0.484375 
Q 21.484375 -0.484375 14.40625 9.078125 
Q 7.515625 18.40625 7.515625 34.8125 
Q 7.515625 53.515625 15.828125 64.203125 
Q 23.34375 73.828125 35.5 73.828125 
Q 49.859375 73.828125 56.390625 62.890625 
L 49.21875 58.984375 
Q 45.21875 66.65625 35.9375 66.65625 
Q 17.484375 66.65625 16.109375 36.375 
z
M 33.453125 39.796875 
Q 26.3125 39.796875 21.625 34.46875 
Q 17.4375 29.6875 17.4375 24.078125 
Q 17.4375 18.0625 21.140625 13.1875 
Q 26.125 6.6875 33.734375 6.6875 
Q 41.703125 6.6875 45.953125 13.1875 
Q 48.828125 17.625 48.828125 23.484375 
Q 48.828125 30.375 45.015625 34.8125 
Q 40.625 39.796875 33.453125 39.796875 
z
" id="IPAexGothic-54"/>
        <path d="M 31.84375 73.828125 
Q 45.015625 73.828125 52.09375 61.625 
Q 57.71875 51.953125 57.71875 36.625 
Q 57.71875 21.4375 52.09375 11.578125 
Q 45.125 -0.484375 31.5 -0.484375 
Q 17.921875 -0.484375 10.9375 11.578125 
Q 5.328125 21.4375 5.328125 36.71875 
Q 5.328125 58.015625 15.625 67.71875 
Q 22.171875 73.828125 31.84375 73.828125 
z
M 31.5 66.65625 
Q 23.6875 66.65625 19.1875 58.734375 
Q 14.59375 50.734375 14.59375 36.625 
Q 14.59375 22.75 19.09375 14.796875 
Q 23.640625 6.984375 31.5 6.984375 
Q 40.921875 6.984375 45.453125 18.015625 
Q 48.4375 25.34375 48.4375 37.109375 
Q 48.4375 50.875 43.84375 58.734375 
Q 39.203125 66.65625 31.5 66.65625 
z
" id="IPAexGothic-48"/>
       </defs>
       <use xlink:href="#IPAexGothic-49"/>
       <use x="62.988281" xlink:href="#IPAexGothic-54"/>
       <use x="125.976562" xlink:href="#IPAexGothic-48"/>
      </g>
     </g>
    </g>
    <g id="xtick_2">
     <g id="line2d_2">
      <path clip-path="url(#p92c281fc00)" d="M 163.085412 239.62875 
L 163.085412 22.18875 
" style="fill:none;stroke:#ffffff;stroke-linecap:round;"/>
     </g>
     <g id="text_2">
      <!-- 170 -->
      <g style="fill:#262626;" transform="translate(152.69299 257.368437)scale(0.11 -0.11)">
       <defs>
        <path d="M 56.203125 66.609375 
Q 34.96875 32.90625 27.78125 0.984375 
L 17.671875 0.984375 
Q 24.703125 28.65625 46.09375 64.5 
L 6.6875 64.5 
L 6.6875 72.40625 
L 56.203125 72.40625 
z
" id="IPAexGothic-55"/>
       </defs>
       <use xlink:href="#IPAexGothic-49"/>
       <use x="62.988281" xlink:href="#IPAexGothic-55"/>
       <use x="125.976562" xlink:href="#IPAexGothic-48"/>
      </g>
     </g>
    </g>
    <g id="xtick_3">
     <g id="line2d_3">
      <path clip-path="url(#p92c281fc00)" d="M 226.494503 239.62875 
L 226.494503 22.18875 
" style="fill:none;stroke:#ffffff;stroke-linecap:round;"/>
     </g>
     <g id="text_3">
      <!-- 180 -->
      <g style="fill:#262626;" transform="translate(216.102081 257.368437)scale(0.11 -0.11)">
       <defs>
        <path d="M 39.703125 37.890625 
Q 57.8125 31.734375 57.8125 18.703125 
Q 57.8125 8.453125 48.4375 3.078125 
Q 41.609375 -0.875 31.5 -0.875 
Q 21.34375 -0.875 14.5 3.078125 
Q 5.421875 8.296875 5.421875 18.40625 
Q 5.421875 31.0625 22.015625 37.203125 
L 22.015625 37.5 
Q 7.515625 42.71875 7.515625 54.828125 
Q 7.515625 64.0625 15.328125 69.625 
Q 21.96875 74.3125 31.546875 74.3125 
Q 42.234375 74.3125 48.921875 68.796875 
Q 55.515625 63.578125 55.515625 55.71875 
Q 55.515625 42.28125 39.703125 38.1875 
z
M 31.59375 41.015625 
Q 46.828125 44.625 46.828125 55.125 
Q 46.828125 61.1875 41.796875 64.84375 
Q 37.703125 67.921875 31.5 67.921875 
Q 25.09375 67.921875 20.796875 64.5 
Q 16.40625 60.890625 16.40625 55.03125 
Q 16.40625 49.21875 21.09375 45.703125 
Q 23.34375 43.890625 26.90625 42.53125 
Q 31 40.875 31.59375 41.015625 
z
M 30.90625 34.515625 
Q 14.40625 30.171875 14.40625 19 
Q 14.40625 12.109375 20.515625 8.6875 
Q 25.09375 6.109375 31.390625 6.109375 
Q 40.234375 6.109375 45.015625 10.890625 
Q 48.53125 14.40625 48.53125 19.53125 
Q 48.53125 24.90625 43.65625 28.90625 
Q 40.765625 31.15625 36.71875 32.8125 
Q 31.984375 34.71875 30.90625 34.515625 
z
" id="IPAexGothic-56"/>
       </defs>
       <use xlink:href="#IPAexGothic-49"/>
       <use x="62.988281" xlink:href="#IPAexGothic-56"/>
       <use x="125.976562" xlink:href="#IPAexGothic-48"/>
      </g>
     </g>
    </g>
    <g id="xtick_4">
     <g id="line2d_4">
      <path clip-path="url(#p92c281fc00)" d="M 289.903594 239.62875 
L 289.903594 22.18875 
" style="fill:none;stroke:#ffffff;stroke-linecap:round;"/>
     </g>
     <g id="text_4">
      <!-- 190 -->
      <g style="fill:#262626;" transform="translate(279.511172 257.368437)scale(0.11 -0.11)">
       <defs>
        <path d="M 46.625 36.8125 
Q 39.75 26.8125 28.328125 26.8125 
Q 19.578125 26.8125 13.234375 32.125 
Q 5.71875 38.421875 5.71875 49.421875 
Q 5.71875 59.578125 12.015625 66.65625 
Q 18.453125 73.828125 29.203125 73.828125 
Q 43.75 73.828125 50.640625 61.71875 
Q 55.609375 52.78125 55.609375 38.625 
Q 55.609375 19.53125 47.515625 9.1875 
Q 39.890625 -0.484375 27.640625 -0.484375 
Q 13.421875 -0.484375 6.109375 10.984375 
L 13.328125 14.890625 
Q 18.0625 6.6875 27.390625 6.6875 
Q 45.65625 6.6875 47.015625 36.8125 
z
M 29.5 66.84375 
Q 22.65625 66.84375 18.3125 61.71875 
Q 14.40625 57.078125 14.40625 50 
Q 14.40625 42.828125 18.109375 38.71875 
Q 22.40625 33.796875 29.78125 33.796875 
Q 37.984375 33.796875 42.625 40.1875 
Q 45.703125 44.484375 45.703125 49.515625 
Q 45.703125 55.515625 42.09375 60.359375 
Q 37.109375 66.84375 29.5 66.84375 
z
" id="IPAexGothic-57"/>
       </defs>
       <use xlink:href="#IPAexGothic-49"/>
       <use x="62.988281" xlink:href="#IPAexGothic-57"/>
       <use x="125.976562" xlink:href="#IPAexGothic-48"/>
      </g>
     </g>
    </g>
    <g id="xtick_5">
     <g id="line2d_5">
      <path clip-path="url(#p92c281fc00)" d="M 353.312685 239.62875 
L 353.312685 22.18875 
" style="fill:none;stroke:#ffffff;stroke-linecap:round;"/>
     </g>
     <g id="text_5">
      <!-- 200 -->
      <g style="fill:#262626;" transform="translate(342.920263 257.368437)scale(0.11 -0.11)">
       <defs>
        <path d="M 57.171875 0.984375 
L 6.984375 0.984375 
L 6.984375 9.28125 
Q 12.890625 23.046875 29.59375 34.421875 
L 32.375 36.28125 
Q 40.921875 42.140625 43.609375 45.40625 
Q 46.6875 49.265625 46.6875 53.8125 
Q 46.6875 58.9375 43.0625 62.546875 
Q 39.0625 66.546875 32.5625 66.546875 
Q 19.53125 66.546875 15.484375 52 
L 7.765625 54.78125 
Q 13.328125 73.828125 33.0625 73.828125 
Q 43.84375 73.828125 50.25 67.4375 
Q 55.859375 61.671875 55.859375 53.515625 
Q 55.859375 47.46875 52.25 42.53125 
Q 48.921875 37.75 36.96875 30.28125 
L 34.859375 29 
Q 19.625 19.578125 15.28125 8.890625 
L 57.171875 8.890625 
z
" id="IPAexGothic-50"/>
       </defs>
       <use xlink:href="#IPAexGothic-50"/>
       <use x="62.988281" xlink:href="#IPAexGothic-48"/>
       <use x="125.976562" xlink:href="#IPAexGothic-48"/>
      </g>
     </g>
    </g>
   </g>
   <g id="matplotlib.axis_2">
    <g id="ytick_1">
     <g id="line2d_6">
      <path clip-path="url(#p92c281fc00)" d="M 52.753594 239.62875 
L 387.553594 239.62875 
" style="fill:none;stroke:#ffffff;stroke-linecap:round;"/>
     </g>
     <g id="text_6">
      <!-- 0 -->
      <g style="fill:#262626;" transform="translate(36.325313 243.748594)scale(0.11 -0.11)">
       <use xlink:href="#IPAexGothic-48"/>
      </g>
     </g>
    </g>
    <g id="ytick_2">
     <g id="line2d_7">
      <path clip-path="url(#p92c281fc00)" d="M 52.753594 210.866845 
L 387.553594 210.866845 
" style="fill:none;stroke:#ffffff;stroke-linecap:round;"/>
     </g>
     <g id="text_7">
      <!-- 20 -->
      <g style="fill:#262626;" transform="translate(29.397031 214.986689)scale(0.11 -0.11)">
       <use xlink:href="#IPAexGothic-50"/>
       <use x="62.988281" xlink:href="#IPAexGothic-48"/>
      </g>
     </g>
    </g>
    <g id="ytick_3">
     <g id="line2d_8">
      <path clip-path="url(#p92c281fc00)" d="M 52.753594 182.10494 
L 387.553594 182.10494 
" style="fill:none;stroke:#ffffff;stroke-linecap:round;"/>
     </g>
     <g id="text_8">
      <!-- 40 -->
      <g style="fill:#262626;" transform="translate(29.397031 186.224784)scale(0.11 -0.11)">
       <defs>
        <path d="M 59.578125 18.109375 
L 47.796875 18.109375 
L 47.796875 0.984375 
L 39.796875 0.984375 
L 39.796875 18.109375 
L 3.078125 18.109375 
L 3.078125 26.125 
L 38.375 73.09375 
L 47.796875 73.09375 
L 47.796875 25.53125 
L 59.578125 25.53125 
z
M 40.28125 64.203125 
L 39.984375 64.203125 
Q 35.59375 57.125 31.296875 51.3125 
L 11.859375 25.53125 
L 39.796875 25.53125 
L 39.796875 49.125 
Q 39.796875 54.390625 40.28125 64.203125 
z
" id="IPAexGothic-52"/>
       </defs>
       <use xlink:href="#IPAexGothic-52"/>
       <use x="62.988281" xlink:href="#IPAexGothic-48"/>
      </g>
     </g>
    </g>
    <g id="ytick_4">
     <g id="line2d_9">
      <path clip-path="url(#p92c281fc00)" d="M 52.753594 153.343036 
L 387.553594 153.343036 
" style="fill:none;stroke:#ffffff;stroke-linecap:round;"/>
     </g>
     <g id="text_9">
      <!-- 60 -->
      <g style="fill:#262626;" transform="translate(29.397031 157.462879)scale(0.11 -0.11)">
       <use xlink:href="#IPAexGothic-54"/>
       <use x="62.988281" xlink:href="#IPAexGothic-48"/>
      </g>
     </g>
    </g>
    <g id="ytick_5">
     <g id="line2d_10">
      <path clip-path="url(#p92c281fc00)" d="M 52.753594 124.581131 
L 387.553594 124.581131 
" style="fill:none;stroke:#ffffff;stroke-linecap:round;"/>
     </g>
     <g id="text_10">
      <!-- 80 -->
      <g style="fill:#262626;" transform="translate(29.397031 128.700975)scale(0.11 -0.11)">
       <use xlink:href="#IPAexGothic-56"/>
       <use x="62.988281" xlink:href="#IPAexGothic-48"/>
      </g>
     </g>
    </g>
    <g id="ytick_6">
     <g id="line2d_11">
      <path clip-path="url(#p92c281fc00)" d="M 52.753594 95.819226 
L 387.553594 95.819226 
" style="fill:none;stroke:#ffffff;stroke-linecap:round;"/>
     </g>
     <g id="text_11">
      <!-- 100 -->
      <g style="fill:#262626;" transform="translate(22.46875 99.93907)scale(0.11 -0.11)">
       <use xlink:href="#IPAexGothic-49"/>
       <use x="62.988281" xlink:href="#IPAexGothic-48"/>
       <use x="125.976562" xlink:href="#IPAexGothic-48"/>
      </g>
     </g>
    </g>
    <g id="ytick_7">
     <g id="line2d_12">
      <path clip-path="url(#p92c281fc00)" d="M 52.753594 67.057321 
L 387.553594 67.057321 
" style="fill:none;stroke:#ffffff;stroke-linecap:round;"/>
     </g>
     <g id="text_12">
      <!-- 120 -->
      <g style="fill:#262626;" transform="translate(22.46875 71.177165)scale(0.11 -0.11)">
       <use xlink:href="#IPAexGothic-49"/>
       <use x="62.988281" xlink:href="#IPAexGothic-50"/>
       <use x="125.976562" xlink:href="#IPAexGothic-48"/>
      </g>
     </g>
    </g>
    <g id="ytick_8">
     <g id="line2d_13">
      <path clip-path="url(#p92c281fc00)" d="M 52.753594 38.295417 
L 387.553594 38.295417 
" style="fill:none;stroke:#ffffff;stroke-linecap:round;"/>
     </g>
     <g id="text_13">
      <!-- 140 -->
      <g style="fill:#262626;" transform="translate(22.46875 42.41526)scale(0.11 -0.11)">
       <use xlink:href="#IPAexGothic-49"/>
       <use x="62.988281" xlink:href="#IPAexGothic-52"/>
       <use x="125.976562" xlink:href="#IPAexGothic-48"/>
      </g>
     </g>
    </g>
    <g id="text_14">
     <!-- Frequency -->
     <g style="fill:#262626;" transform="translate(16.18875 160.584375)rotate(-90)scale(0.12 -0.12)">
      <defs>
       <path d="M 54.203125 64.703125 
L 18.3125 64.703125 
L 18.3125 41.5 
L 50.09375 41.5 
L 50.09375 34.1875 
L 18.3125 34.1875 
L 18.3125 0.984375 
L 9.515625 0.984375 
L 9.515625 72.40625 
L 54.203125 72.40625 
z
" id="IPAexGothic-70"/>
       <path d="M 36.078125 51.8125 
L 34.578125 43.265625 
Q 32.90625 43.609375 31.59375 43.609375 
Q 25.828125 43.609375 22.078125 38.1875 
Q 17.390625 31.34375 17.390625 26.171875 
L 17.390625 0.984375 
L 8.796875 0.984375 
L 8.796875 50.78125 
L 16.890625 50.78125 
L 16.5 35.984375 
L 16.703125 35.984375 
Q 22.21875 52.203125 32.765625 52.203125 
Q 34.46875 52.203125 36.078125 51.8125 
z
" id="IPAexGothic-114"/>
       <path d="M 13.484375 24.90625 
Q 13.921875 16.265625 18.890625 11.28125 
Q 23.96875 6.203125 31.203125 6.203125 
Q 40.71875 6.203125 46.296875 15.09375 
L 51.90625 11.375 
Q 44.828125 -0.484375 30.171875 -0.484375 
Q 19.09375 -0.484375 11.96875 6.59375 
Q 4.78125 13.8125 4.78125 25.640625 
Q 4.78125 38.1875 12.3125 45.703125 
Q 19 52.390625 29 52.390625 
Q 38.421875 52.390625 44.78125 46.1875 
Q 51.90625 38.96875 51.90625 26.90625 
L 51.90625 24.90625 
z
M 43.0625 31.203125 
Q 42.328125 37.984375 38.28125 41.890625 
Q 34.28125 45.90625 28.8125 45.90625 
Q 22.46875 45.90625 17.96875 40.484375 
Q 14.890625 36.8125 13.96875 31.203125 
z
" id="IPAexGothic-101"/>
       <path d="M 53.078125 -19 
L 44.484375 -19 
L 44.484375 8.6875 
Q 38.140625 -0.484375 27.484375 -0.484375 
Q 18.453125 -0.484375 12.3125 5.8125 
Q 4.890625 13.1875 4.890625 25.875 
Q 4.890625 38.28125 12.3125 45.703125 
Q 18.796875 52.203125 28.171875 52.203125 
Q 38.625 52.203125 45.359375 43.796875 
L 46.578125 51.171875 
L 53.078125 51.171875 
z
M 44.484375 19.96875 
L 44.484375 32.671875 
Q 44.484375 35.5 41.40625 39.203125 
Q 36.234375 45.40625 29.203125 45.40625 
Q 21.96875 45.40625 17.671875 39.3125 
Q 13.875 33.984375 13.875 26.125 
Q 13.875 17.4375 18.265625 11.8125 
Q 22.609375 6.390625 28.953125 6.390625 
Q 36.46875 6.390625 41.703125 13.671875 
Q 44.484375 17.671875 44.484375 19.96875 
z
" id="IPAexGothic-113"/>
       <path d="M 51.3125 0.984375 
L 43.3125 0.984375 
L 43.3125 10.0625 
Q 35.9375 0 25.390625 0 
Q 16.75 0 11.921875 5.859375 
Q 8.109375 10.59375 8.109375 19.390625 
L 8.109375 50.78125 
L 16.703125 50.78125 
L 16.703125 19.671875 
Q 16.703125 7.28125 27.09375 7.28125 
Q 37.59375 7.28125 42.71875 20.171875 
L 42.71875 50.78125 
L 51.3125 50.78125 
z
" id="IPAexGothic-117"/>
       <path d="M 52 0.984375 
L 43.40625 0.984375 
L 43.40625 31.890625 
Q 43.40625 44.578125 32.90625 44.578125 
Q 22.3125 44.578125 17.390625 31.890625 
L 17.390625 0.984375 
L 8.796875 0.984375 
L 8.796875 50.78125 
L 16.796875 50.78125 
L 16.796875 41.796875 
Q 23.828125 51.8125 34.71875 51.8125 
Q 52 51.8125 52 32.375 
z
" id="IPAexGothic-110"/>
       <path d="M 51.078125 12.25 
Q 44.28125 -0.484375 29.6875 -0.484375 
Q 19.1875 -0.484375 12.3125 6.390625 
Q 4.890625 13.921875 4.890625 25.984375 
Q 4.890625 37.9375 12.3125 45.515625 
Q 19.09375 52.296875 29.390625 52.296875 
Q 43.953125 52.296875 50.09375 39.703125 
L 43.171875 36.078125 
Q 38.8125 45.3125 29.6875 45.3125 
Q 23.6875 45.3125 19.28125 40.921875 
Q 13.765625 35.40625 13.765625 25.78125 
Q 13.765625 16.703125 19.09375 11.375 
Q 23.78125 6.6875 30.5625 6.6875 
Q 39.796875 6.6875 44.484375 15.875 
z
" id="IPAexGothic-99"/>
       <path d="M 48.78125 50.78125 
L 24.609375 -7.625 
Q 19.96875 -18.796875 8.59375 -18.796875 
L 7.46875 -18.796875 
L 5.375 -10.984375 
L 6.984375 -10.984375 
Q 15.140625 -10.984375 17.96875 -3.71875 
L 21.1875 4.296875 
L 0.59375 50.78125 
L 10.296875 50.78125 
L 21.296875 22.796875 
Q 23.875 16.015625 25.09375 12.203125 
L 25.390625 12.203125 
Q 27.34375 18.265625 29.109375 22.796875 
L 39.5 50.78125 
z
" id="IPAexGothic-121"/>
      </defs>
      <use xlink:href="#IPAexGothic-70"/>
      <use x="57.177734" xlink:href="#IPAexGothic-114"/>
      <use x="94.189453" xlink:href="#IPAexGothic-101"/>
      <use x="151.074219" xlink:href="#IPAexGothic-113"/>
      <use x="213.28125" xlink:href="#IPAexGothic-117"/>
      <use x="273.681641" xlink:href="#IPAexGothic-101"/>
      <use x="330.566406" xlink:href="#IPAexGothic-110"/>
      <use x="390.966797" xlink:href="#IPAexGothic-99"/>
      <use x="445.361328" xlink:href="#IPAexGothic-121"/>
     </g>
    </g>
   </g>
   <g id="patch_3">
    <path clip-path="url(#p92c281fc00)" d="M 118.699048 239.62875 
L 131.380866 239.62875 
L 131.380866 238.190655 
L 118.699048 238.190655 
z
" style="fill:#4c72b0;opacity:0.5;stroke:#ffffff;stroke-linejoin:miter;"/>
   </g>
   <g id="patch_4">
    <path clip-path="url(#p92c281fc00)" d="M 131.380866 239.62875 
L 144.062685 239.62875 
L 144.062685 239.62875 
L 131.380866 239.62875 
z
" style="fill:#4c72b0;opacity:0.5;stroke:#ffffff;stroke-linejoin:miter;"/>
   </g>
   <g id="patch_5">
    <path clip-path="url(#p92c281fc00)" d="M 144.062685 239.62875 
L 156.744503 239.62875 
L 156.744503 228.123988 
L 144.062685 228.123988 
z
" style="fill:#4c72b0;opacity:0.5;stroke:#ffffff;stroke-linejoin:miter;"/>
   </g>
   <g id="patch_6">
    <path clip-path="url(#p92c281fc00)" d="M 156.744503 239.62875 
L 169.426321 239.62875 
L 169.426321 226.685893 
L 156.744503 226.685893 
z
" style="fill:#4c72b0;opacity:0.5;stroke:#ffffff;stroke-linejoin:miter;"/>
   </g>
   <g id="patch_7">
    <path clip-path="url(#p92c281fc00)" d="M 169.426321 239.62875 
L 182.108139 239.62875 
L 182.108139 210.866845 
L 169.426321 210.866845 
z
" style="fill:#4c72b0;opacity:0.5;stroke:#ffffff;stroke-linejoin:miter;"/>
   </g>
   <g id="patch_8">
    <path clip-path="url(#p92c281fc00)" d="M 182.108139 239.62875 
L 194.789957 239.62875 
L 194.789957 170.600179 
L 182.108139 170.600179 
z
" style="fill:#4c72b0;opacity:0.5;stroke:#ffffff;stroke-linejoin:miter;"/>
   </g>
   <g id="patch_9">
    <path clip-path="url(#p92c281fc00)" d="M 194.789957 239.62875 
L 207.471776 239.62875 
L 207.471776 118.82875 
L 194.789957 118.82875 
z
" style="fill:#4c72b0;opacity:0.5;stroke:#ffffff;stroke-linejoin:miter;"/>
   </g>
   <g id="patch_10">
    <path clip-path="url(#p92c281fc00)" d="M 207.471776 239.62875 
L 220.153594 239.62875 
L 220.153594 56.990655 
L 207.471776 56.990655 
z
" style="fill:#4c72b0;opacity:0.5;stroke:#ffffff;stroke-linejoin:miter;"/>
   </g>
   <g id="patch_11">
    <path clip-path="url(#p92c281fc00)" d="M 220.153594 239.62875 
L 232.835412 239.62875 
L 232.835412 32.543036 
L 220.153594 32.543036 
z
" style="fill:#4c72b0;opacity:0.5;stroke:#ffffff;stroke-linejoin:miter;"/>
   </g>
   <g id="patch_12">
    <path clip-path="url(#p92c281fc00)" d="M 232.835412 239.62875 
L 245.51723 239.62875 
L 245.51723 81.438274 
L 232.835412 81.438274 
z
" style="fill:#4c72b0;opacity:0.5;stroke:#ffffff;stroke-linejoin:miter;"/>
   </g>
   <g id="patch_13">
    <path clip-path="url(#p92c281fc00)" d="M 245.51723 239.62875 
L 258.199048 239.62875 
L 258.199048 108.762083 
L 245.51723 108.762083 
z
" style="fill:#4c72b0;opacity:0.5;stroke:#ffffff;stroke-linejoin:miter;"/>
   </g>
   <g id="patch_14">
    <path clip-path="url(#p92c281fc00)" d="M 258.199048 239.62875 
L 270.880866 239.62875 
L 270.880866 136.085893 
L 258.199048 136.085893 
z
" style="fill:#4c72b0;opacity:0.5;stroke:#ffffff;stroke-linejoin:miter;"/>
   </g>
   <g id="patch_15">
    <path clip-path="url(#p92c281fc00)" d="M 270.880866 239.62875 
L 283.562685 239.62875 
L 283.562685 179.22875 
L 270.880866 179.22875 
z
" style="fill:#4c72b0;opacity:0.5;stroke:#ffffff;stroke-linejoin:miter;"/>
   </g>
   <g id="patch_16">
    <path clip-path="url(#p92c281fc00)" d="M 283.562685 239.62875 
L 296.244503 239.62875 
L 296.244503 207.990655 
L 283.562685 207.990655 
z
" style="fill:#4c72b0;opacity:0.5;stroke:#ffffff;stroke-linejoin:miter;"/>
   </g>
   <g id="patch_17">
    <path clip-path="url(#p92c281fc00)" d="M 296.244503 239.62875 
L 308.926321 239.62875 
L 308.926321 213.743036 
L 296.244503 213.743036 
z
" style="fill:#4c72b0;opacity:0.5;stroke:#ffffff;stroke-linejoin:miter;"/>
   </g>
   <g id="patch_18">
    <path clip-path="url(#p92c281fc00)" d="M 308.926321 239.62875 
L 321.608139 239.62875 
L 321.608139 225.247798 
L 308.926321 225.247798 
z
" style="fill:#4c72b0;opacity:0.5;stroke:#ffffff;stroke-linejoin:miter;"/>
   </g>
   <g id="patch_19">
    <path clip-path="url(#p92c281fc00)" d="M 321.608139 239.62875 
L 334.289957 239.62875 
L 334.289957 228.123988 
L 321.608139 228.123988 
z
" style="fill:#4c72b0;opacity:0.5;stroke:#ffffff;stroke-linejoin:miter;"/>
   </g>
   <g id="patch_20">
    <path clip-path="url(#p92c281fc00)" d="M 334.289957 239.62875 
L 346.971776 239.62875 
L 346.971776 233.876369 
L 334.289957 233.876369 
z
" style="fill:#4c72b0;opacity:0.5;stroke:#ffffff;stroke-linejoin:miter;"/>
   </g>
   <g id="patch_21">
    <path clip-path="url(#p92c281fc00)" d="M 346.971776 239.62875 
L 359.653594 239.62875 
L 359.653594 238.190655 
L 346.971776 238.190655 
z
" style="fill:#4c72b0;opacity:0.5;stroke:#ffffff;stroke-linejoin:miter;"/>
   </g>
   <g id="patch_22">
    <path clip-path="url(#p92c281fc00)" d="M 359.653594 239.62875 
L 372.335412 239.62875 
L 372.335412 235.314464 
L 359.653594 235.314464 
z
" style="fill:#4c72b0;opacity:0.5;stroke:#ffffff;stroke-linejoin:miter;"/>
   </g>
   <g id="patch_23">
    <path clip-path="url(#p92c281fc00)" d="M 67.971776 239.62875 
L 81.287685 239.62875 
L 81.287685 238.190655 
L 67.971776 238.190655 
z
" style="fill:#dd8452;opacity:0.5;stroke:#ffffff;stroke-linejoin:miter;"/>
   </g>
   <g id="patch_24">
    <path clip-path="url(#p92c281fc00)" d="M 81.287685 239.62875 
L 94.603594 239.62875 
L 94.603594 238.190655 
L 81.287685 238.190655 
z
" style="fill:#dd8452;opacity:0.5;stroke:#ffffff;stroke-linejoin:miter;"/>
   </g>
   <g id="patch_25">
    <path clip-path="url(#p92c281fc00)" d="M 94.603594 239.62875 
L 107.919503 239.62875 
L 107.919503 238.190655 
L 94.603594 238.190655 
z
" style="fill:#dd8452;opacity:0.5;stroke:#ffffff;stroke-linejoin:miter;"/>
   </g>
   <g id="patch_26">
    <path clip-path="url(#p92c281fc00)" d="M 107.919503 239.62875 
L 121.235412 239.62875 
L 121.235412 236.75256 
L 107.919503 236.75256 
z
" style="fill:#dd8452;opacity:0.5;stroke:#ffffff;stroke-linejoin:miter;"/>
   </g>
   <g id="patch_27">
    <path clip-path="url(#p92c281fc00)" d="M 121.235412 239.62875 
L 134.551321 239.62875 
L 134.551321 229.562083 
L 121.235412 229.562083 
z
" style="fill:#dd8452;opacity:0.5;stroke:#ffffff;stroke-linejoin:miter;"/>
   </g>
   <g id="patch_28">
    <path clip-path="url(#p92c281fc00)" d="M 134.551321 239.62875 
L 147.86723 239.62875 
L 147.86723 219.495417 
L 134.551321 219.495417 
z
" style="fill:#dd8452;opacity:0.5;stroke:#ffffff;stroke-linejoin:miter;"/>
   </g>
   <g id="patch_29">
    <path clip-path="url(#p92c281fc00)" d="M 147.86723 239.62875 
L 161.183139 239.62875 
L 161.183139 203.676369 
L 147.86723 203.676369 
z
" style="fill:#dd8452;opacity:0.5;stroke:#ffffff;stroke-linejoin:miter;"/>
   </g>
   <g id="patch_30">
    <path clip-path="url(#p92c281fc00)" d="M 161.183139 239.62875 
L 174.499048 239.62875 
L 174.499048 159.095417 
L 161.183139 159.095417 
z
" style="fill:#dd8452;opacity:0.5;stroke:#ffffff;stroke-linejoin:miter;"/>
   </g>
   <g id="patch_31">
    <path clip-path="url(#p92c281fc00)" d="M 174.499048 239.62875 
L 187.814957 239.62875 
L 187.814957 149.02875 
L 174.499048 149.02875 
z
" style="fill:#dd8452;opacity:0.5;stroke:#ffffff;stroke-linejoin:miter;"/>
   </g>
   <g id="patch_32">
    <path clip-path="url(#p92c281fc00)" d="M 187.814957 239.62875 
L 201.130866 239.62875 
L 201.130866 157.657321 
L 187.814957 157.657321 
z
" style="fill:#dd8452;opacity:0.5;stroke:#ffffff;stroke-linejoin:miter;"/>
   </g>
   <g id="patch_33">
    <path clip-path="url(#p92c281fc00)" d="M 201.130866 239.62875 
L 214.446776 239.62875 
L 214.446776 80.000179 
L 201.130866 80.000179 
z
" style="fill:#dd8452;opacity:0.5;stroke:#ffffff;stroke-linejoin:miter;"/>
   </g>
   <g id="patch_34">
    <path clip-path="url(#p92c281fc00)" d="M 214.446776 239.62875 
L 227.762685 239.62875 
L 227.762685 156.219226 
L 214.446776 156.219226 
z
" style="fill:#dd8452;opacity:0.5;stroke:#ffffff;stroke-linejoin:miter;"/>
   </g>
   <g id="patch_35">
    <path clip-path="url(#p92c281fc00)" d="M 227.762685 239.62875 
L 241.078594 239.62875 
L 241.078594 150.466845 
L 227.762685 150.466845 
z
" style="fill:#dd8452;opacity:0.5;stroke:#ffffff;stroke-linejoin:miter;"/>
   </g>
   <g id="patch_36">
    <path clip-path="url(#p92c281fc00)" d="M 241.078594 239.62875 
L 254.394503 239.62875 
L 254.394503 146.15256 
L 241.078594 146.15256 
z
" style="fill:#dd8452;opacity:0.5;stroke:#ffffff;stroke-linejoin:miter;"/>
   </g>
   <g id="patch_37">
    <path clip-path="url(#p92c281fc00)" d="M 254.394503 239.62875 
L 267.710412 239.62875 
L 267.710412 179.22875 
L 254.394503 179.22875 
z
" style="fill:#dd8452;opacity:0.5;stroke:#ffffff;stroke-linejoin:miter;"/>
   </g>
   <g id="patch_38">
    <path clip-path="url(#p92c281fc00)" d="M 267.710412 239.62875 
L 281.026321 239.62875 
L 281.026321 176.35256 
L 267.710412 176.35256 
z
" style="fill:#dd8452;opacity:0.5;stroke:#ffffff;stroke-linejoin:miter;"/>
   </g>
   <g id="patch_39">
    <path clip-path="url(#p92c281fc00)" d="M 281.026321 239.62875 
L 294.34223 239.62875 
L 294.34223 218.057321 
L 281.026321 218.057321 
z
" style="fill:#dd8452;opacity:0.5;stroke:#ffffff;stroke-linejoin:miter;"/>
   </g>
   <g id="patch_40">
    <path clip-path="url(#p92c281fc00)" d="M 294.34223 239.62875 
L 307.658139 239.62875 
L 307.658139 223.809702 
L 294.34223 223.809702 
z
" style="fill:#dd8452;opacity:0.5;stroke:#ffffff;stroke-linejoin:miter;"/>
   </g>
   <g id="patch_41">
    <path clip-path="url(#p92c281fc00)" d="M 307.658139 239.62875 
L 320.974048 239.62875 
L 320.974048 236.75256 
L 307.658139 236.75256 
z
" style="fill:#dd8452;opacity:0.5;stroke:#ffffff;stroke-linejoin:miter;"/>
   </g>
   <g id="patch_42">
    <path clip-path="url(#p92c281fc00)" d="M 320.974048 239.62875 
L 334.289957 239.62875 
L 334.289957 231.000179 
L 320.974048 231.000179 
z
" style="fill:#dd8452;opacity:0.5;stroke:#ffffff;stroke-linejoin:miter;"/>
   </g>
   <g id="patch_43">
    <path clip-path="url(#p92c281fc00)" d="M 150.403594 239.62875 
L 158.963821 239.62875 
L 158.963821 238.190655 
L 150.403594 238.190655 
z
" style="fill:#55a868;opacity:0.5;stroke:#ffffff;stroke-linejoin:miter;"/>
   </g>
   <g id="patch_44">
    <path clip-path="url(#p92c281fc00)" d="M 158.963821 239.62875 
L 167.524048 239.62875 
L 167.524048 239.62875 
L 158.963821 239.62875 
z
" style="fill:#55a868;opacity:0.5;stroke:#ffffff;stroke-linejoin:miter;"/>
   </g>
   <g id="patch_45">
    <path clip-path="url(#p92c281fc00)" d="M 167.524048 239.62875 
L 176.084276 239.62875 
L 176.084276 236.75256 
L 167.524048 236.75256 
z
" style="fill:#55a868;opacity:0.5;stroke:#ffffff;stroke-linejoin:miter;"/>
   </g>
   <g id="patch_46">
    <path clip-path="url(#p92c281fc00)" d="M 176.084276 239.62875 
L 184.644503 239.62875 
L 184.644503 238.190655 
L 176.084276 238.190655 
z
" style="fill:#55a868;opacity:0.5;stroke:#ffffff;stroke-linejoin:miter;"/>
   </g>
   <g id="patch_47">
    <path clip-path="url(#p92c281fc00)" d="M 184.644503 239.62875 
L 193.20473 239.62875 
L 193.20473 238.190655 
L 184.644503 238.190655 
z
" style="fill:#55a868;opacity:0.5;stroke:#ffffff;stroke-linejoin:miter;"/>
   </g>
   <g id="patch_48">
    <path clip-path="url(#p92c281fc00)" d="M 193.20473 239.62875 
L 201.764957 239.62875 
L 201.764957 233.876369 
L 193.20473 233.876369 
z
" style="fill:#55a868;opacity:0.5;stroke:#ffffff;stroke-linejoin:miter;"/>
   </g>
   <g id="patch_49">
    <path clip-path="url(#p92c281fc00)" d="M 201.764957 239.62875 
L 210.325185 239.62875 
L 210.325185 236.75256 
L 201.764957 236.75256 
z
" style="fill:#55a868;opacity:0.5;stroke:#ffffff;stroke-linejoin:miter;"/>
   </g>
   <g id="patch_50">
    <path clip-path="url(#p92c281fc00)" d="M 210.325185 239.62875 
L 218.885412 239.62875 
L 218.885412 235.314464 
L 210.325185 235.314464 
z
" style="fill:#55a868;opacity:0.5;stroke:#ffffff;stroke-linejoin:miter;"/>
   </g>
   <g id="patch_51">
    <path clip-path="url(#p92c281fc00)" d="M 218.885412 239.62875 
L 227.445639 239.62875 
L 227.445639 232.438274 
L 218.885412 232.438274 
z
" style="fill:#55a868;opacity:0.5;stroke:#ffffff;stroke-linejoin:miter;"/>
   </g>
   <g id="patch_52">
    <path clip-path="url(#p92c281fc00)" d="M 227.445639 239.62875 
L 236.005866 239.62875 
L 236.005866 236.75256 
L 227.445639 236.75256 
z
" style="fill:#55a868;opacity:0.5;stroke:#ffffff;stroke-linejoin:miter;"/>
   </g>
   <g id="patch_53">
    <path clip-path="url(#p92c281fc00)" d="M 236.005866 239.62875 
L 244.566094 239.62875 
L 244.566094 233.876369 
L 236.005866 233.876369 
z
" style="fill:#55a868;opacity:0.5;stroke:#ffffff;stroke-linejoin:miter;"/>
   </g>
   <g id="patch_54">
    <path clip-path="url(#p92c281fc00)" d="M 244.566094 239.62875 
L 253.126321 239.62875 
L 253.126321 225.247798 
L 244.566094 225.247798 
z
" style="fill:#55a868;opacity:0.5;stroke:#ffffff;stroke-linejoin:miter;"/>
   </g>
   <g id="patch_55">
    <path clip-path="url(#p92c281fc00)" d="M 253.126321 239.62875 
L 261.686548 239.62875 
L 261.686548 223.809702 
L 253.126321 223.809702 
z
" style="fill:#55a868;opacity:0.5;stroke:#ffffff;stroke-linejoin:miter;"/>
   </g>
   <g id="patch_56">
    <path clip-path="url(#p92c281fc00)" d="M 261.686548 239.62875 
L 270.246776 239.62875 
L 270.246776 232.438274 
L 261.686548 232.438274 
z
" style="fill:#55a868;opacity:0.5;stroke:#ffffff;stroke-linejoin:miter;"/>
   </g>
   <g id="patch_57">
    <path clip-path="url(#p92c281fc00)" d="M 270.246776 239.62875 
L 278.807003 239.62875 
L 278.807003 231.000179 
L 270.246776 231.000179 
z
" style="fill:#55a868;opacity:0.5;stroke:#ffffff;stroke-linejoin:miter;"/>
   </g>
   <g id="patch_58">
    <path clip-path="url(#p92c281fc00)" d="M 278.807003 239.62875 
L 287.36723 239.62875 
L 287.36723 238.190655 
L 278.807003 238.190655 
z
" style="fill:#55a868;opacity:0.5;stroke:#ffffff;stroke-linejoin:miter;"/>
   </g>
   <g id="patch_59">
    <path clip-path="url(#p92c281fc00)" d="M 287.36723 239.62875 
L 295.927457 239.62875 
L 295.927457 235.314464 
L 287.36723 235.314464 
z
" style="fill:#55a868;opacity:0.5;stroke:#ffffff;stroke-linejoin:miter;"/>
   </g>
   <g id="patch_60">
    <path clip-path="url(#p92c281fc00)" d="M 295.927457 239.62875 
L 304.487685 239.62875 
L 304.487685 231.000179 
L 295.927457 231.000179 
z
" style="fill:#55a868;opacity:0.5;stroke:#ffffff;stroke-linejoin:miter;"/>
   </g>
   <g id="patch_61">
    <path clip-path="url(#p92c281fc00)" d="M 304.487685 239.62875 
L 313.047912 239.62875 
L 313.047912 236.75256 
L 304.487685 236.75256 
z
" style="fill:#55a868;opacity:0.5;stroke:#ffffff;stroke-linejoin:miter;"/>
   </g>
   <g id="patch_62">
    <path clip-path="url(#p92c281fc00)" d="M 313.047912 239.62875 
L 321.608139 239.62875 
L 321.608139 238.190655 
L 313.047912 238.190655 
z
" style="fill:#55a868;opacity:0.5;stroke:#ffffff;stroke-linejoin:miter;"/>
   </g>
   <g id="patch_63">
    <path d="M 52.753594 239.62875 
L 52.753594 22.18875 
" style="fill:none;stroke:#ffffff;stroke-linecap:square;stroke-linejoin:miter;stroke-width:1.25;"/>
   </g>
   <g id="patch_64">
    <path d="M 387.553594 239.62875 
L 387.553594 22.18875 
" style="fill:none;stroke:#ffffff;stroke-linecap:square;stroke-linejoin:miter;stroke-width:1.25;"/>
   </g>
   <g id="patch_65">
    <path d="M 52.753594 239.62875 
L 387.553594 239.62875 
" style="fill:none;stroke:#ffffff;stroke-linecap:square;stroke-linejoin:miter;stroke-width:1.25;"/>
   </g>
   <g id="patch_66">
    <path d="M 52.753594 22.18875 
L 387.553594 22.18875 
" style="fill:none;stroke:#ffffff;stroke-linecap:square;stroke-linejoin:miter;stroke-width:1.25;"/>
   </g>
   <g id="text_15">
    <!-- 身長 -->
    <g style="fill:#262626;" transform="translate(208.153594 16.18875)scale(0.12 -0.12)">
     <defs>
      <path d="M 69.625 23.484375 
Q 49.171875 5.859375 14.703125 -6.296875 
L 10.015625 0.09375 
Q 43.5 9.8125 62.703125 25.6875 
Q 41.65625 22.265625 10.40625 20.0625 
L 8.296875 27.203125 
L 14.890625 27.484375 
L 16.609375 27.59375 
L 22.515625 27.984375 
L 22.515625 73.296875 
L 39.984375 73.296875 
Q 42.328125 78.71875 43.5 83.6875 
L 51.90625 82.46875 
Q 49.8125 77.640625 47.40625 73.296875 
L 76.21875 73.296875 
L 76.21875 38.765625 
Q 82.125 45.75 87.5 54.5 
L 93.796875 50.203125 
Q 86.375 39.40625 76.609375 29.890625 
L 76.609375 1.125 
Q 76.609375 -3.8125 74.125 -5.5625 
Q 72.171875 -7.078125 67.328125 -7.078125 
Q 60.296875 -7.078125 52.59375 -6.390625 
L 50.984375 1.21875 
Q 60.15625 0 66.3125 0 
Q 69.625 0 69.625 3.21875 
z
M 69.140625 31.59375 
L 69.140625 38.578125 
L 29.390625 38.578125 
L 29.390625 28.375 
L 32.90625 28.5625 
Q 56.890625 30.078125 69.140625 31.59375 
z
M 69.140625 44.578125 
L 69.140625 52.875 
L 29.390625 52.875 
L 29.390625 44.578125 
z
M 69.140625 58.890625 
L 69.140625 67.1875 
L 29.390625 67.1875 
L 29.390625 58.890625 
z
" id="IPAexGothic-36523"/>
      <path d="M 29.890625 71.578125 
L 29.890625 64.5 
L 80.171875 64.5 
L 80.171875 58.5 
L 29.890625 58.5 
L 29.890625 51.3125 
L 80.171875 51.3125 
L 80.171875 45.3125 
L 29.890625 45.3125 
L 29.890625 37.703125 
L 94.390625 37.703125 
L 94.390625 31.5 
L 52.875 31.5 
Q 56.296875 23.484375 63.484375 16.609375 
Q 73.578125 23.09375 82.171875 31 
L 88.28125 26.703125 
Q 77.34375 17.71875 68.40625 12.3125 
Q 78.8125 4.25 94.78125 0.09375 
L 90.09375 -6.390625 
Q 56.453125 4.046875 45.796875 31.5 
L 29.890625 31.5 
L 29.890625 4.203125 
Q 42.828125 7.28125 53.265625 10.40625 
L 53.90625 4.390625 
Q 35.0625 -2.046875 12.015625 -7.125 
L 8.984375 -0.09375 
Q 22.609375 2.484375 22.703125 2.484375 
L 22.703125 31.5 
L 5.515625 31.5 
L 5.515625 37.703125 
L 22.703125 37.703125 
L 22.703125 77.78125 
L 83.6875 77.78125 
L 83.6875 71.578125 
z
" id="IPAexGothic-38263"/>
     </defs>
     <use xlink:href="#IPAexGothic-36523"/>
     <use x="100" xlink:href="#IPAexGothic-38263"/>
    </g>
   </g>
  </g>
 </g>
 <defs>
  <clipPath id="p92c281fc00">
   <rect height="217.44" width="334.8" x="52.753594" y="22.18875"/>
  </clipPath>
 </defs>
</svg>
