<?xml version="1.0" encoding="utf-8" standalone="no"?>
<!DOCTYPE svg PUBLIC "-//W3C//DTD SVG 1.1//EN"
  "http://www.w3.org/Graphics/SVG/1.1/DTD/svg11.dtd">
<svg height="266.658437pt" version="1.1" viewBox="0 0 394.753594 266.658437" width="394.753594pt" xmlns="http://www.w3.org/2000/svg" xmlns:xlink="http://www.w3.org/1999/xlink">
 <metadata>
  <rdf:RDF xmlns:cc="http://creativecommons.org/ns#" xmlns:dc="http://purl.org/dc/elements/1.1/" xmlns:rdf="http://www.w3.org/1999/02/22-rdf-syntax-ns#">
   <cc:Work>
    <dc:type rdf:resource="http://purl.org/dc/dcmitype/StillImage"/>
    <dc:date>2021-05-24T14:47:21.305940</dc:date>
    <dc:format>image/svg+xml</dc:format>
    <dc:creator>
     <cc:Agent>
      <dc:title>Matplotlib v3.4.2, https://matplotlib.org/</dc:title>
     </cc:Agent>
    </dc:creator>
   </cc:Work>
  </rdf:RDF>
 </metadata>
 <defs>
  <style type="text/css">*{stroke-linecap:butt;stroke-linejoin:round;}</style>
 </defs>
 <g id="figure_1">
  <g id="patch_1">
   <path d="M 0 266.658437 
L 394.753594 266.658437 
L 394.753594 0 
L 0 0 
z
" style="fill:#ffffff;"/>
  </g>
  <g id="axes_1">
   <g id="patch_2">
    <path d="M 52.753594 239.62875 
L 387.553594 239.62875 
L 387.553594 22.18875 
L 52.753594 22.18875 
z
" style="fill:#eaeaf2;"/>
   </g>
   <g id="matplotlib.axis_1">
    <g id="xtick_1">
     <g id="line2d_1">
      <path clip-path="url(#p79d3e733c4)" d="M 91.088001 239.62875 
L 91.088001 22.18875 
" style="fill:none;stroke:#ffffff;stroke-linecap:round;"/>
     </g>
     <g id="text_1">
      <!-- 60 -->
      <g style="fill:#262626;" transform="translate(84.15972 257.368437)scale(0.11 -0.11)">
       <defs>
        <path d="M 1056 2328 
Q 1509 2981 2234 2981 
Q 2906 2981 3316 2513 
Q 3675 2106 3675 1522 
Q 3675 884 3272 434 
Q 2853 -31 2178 -31 
Q 1375 -31 922 581 
Q 481 1178 481 2228 
Q 481 3425 1013 4109 
Q 1494 4725 2272 4725 
Q 3191 4725 3609 4025 
L 3150 3775 
Q 2894 4266 2300 4266 
Q 1119 4266 1031 2328 
L 1056 2328 
z
M 2141 2547 
Q 1684 2547 1384 2206 
Q 1116 1900 1116 1541 
Q 1116 1156 1353 844 
Q 1672 428 2159 428 
Q 2669 428 2941 844 
Q 3125 1128 3125 1503 
Q 3125 1944 2881 2228 
Q 2600 2547 2141 2547 
z
" id="IPAexGothic-36" transform="scale(0.015625)"/>
        <path d="M 2038 4725 
Q 2881 4725 3334 3944 
Q 3694 3325 3694 2344 
Q 3694 1372 3334 741 
Q 2888 -31 2016 -31 
Q 1147 -31 700 741 
Q 341 1372 341 2350 
Q 341 3713 1000 4334 
Q 1419 4725 2038 4725 
z
M 2016 4266 
Q 1516 4266 1228 3759 
Q 934 3247 934 2344 
Q 934 1456 1222 947 
Q 1513 447 2016 447 
Q 2619 447 2909 1153 
Q 3100 1622 3100 2375 
Q 3100 3256 2806 3759 
Q 2509 4266 2016 4266 
z
" id="IPAexGothic-30" transform="scale(0.015625)"/>
       </defs>
       <use xlink:href="#IPAexGothic-36"/>
       <use x="62.988281" xlink:href="#IPAexGothic-30"/>
      </g>
     </g>
    </g>
    <g id="xtick_2">
     <g id="line2d_2">
      <path clip-path="url(#p79d3e733c4)" d="M 129.615044 239.62875 
L 129.615044 22.18875 
" style="fill:none;stroke:#ffffff;stroke-linecap:round;"/>
     </g>
     <g id="text_2">
      <!-- 80 -->
      <g style="fill:#262626;" transform="translate(122.686762 257.368437)scale(0.11 -0.11)">
       <defs>
        <path d="M 2541 2425 
Q 3700 2031 3700 1197 
Q 3700 541 3100 197 
Q 2663 -56 2016 -56 
Q 1366 -56 928 197 
Q 347 531 347 1178 
Q 347 1988 1409 2381 
L 1409 2400 
Q 481 2734 481 3509 
Q 481 4100 981 4456 
Q 1406 4756 2019 4756 
Q 2703 4756 3131 4403 
Q 3553 4069 3553 3566 
Q 3553 2706 2541 2444 
L 2541 2425 
z
M 2022 2625 
Q 2997 2856 2997 3528 
Q 2997 3916 2675 4150 
Q 2413 4347 2016 4347 
Q 1606 4347 1331 4128 
Q 1050 3897 1050 3522 
Q 1050 3150 1350 2925 
Q 1494 2809 1722 2722 
Q 1984 2616 2022 2625 
z
M 1978 2209 
Q 922 1931 922 1216 
Q 922 775 1313 556 
Q 1606 391 2009 391 
Q 2575 391 2881 697 
Q 3106 922 3106 1250 
Q 3106 1594 2794 1850 
Q 2609 1994 2350 2100 
Q 2047 2222 1978 2209 
z
" id="IPAexGothic-38" transform="scale(0.015625)"/>
       </defs>
       <use xlink:href="#IPAexGothic-38"/>
       <use x="62.988281" xlink:href="#IPAexGothic-30"/>
      </g>
     </g>
    </g>
    <g id="xtick_3">
     <g id="line2d_3">
      <path clip-path="url(#p79d3e733c4)" d="M 168.142086 239.62875 
L 168.142086 22.18875 
" style="fill:none;stroke:#ffffff;stroke-linecap:round;"/>
     </g>
     <g id="text_3">
      <!-- 100 -->
      <g style="fill:#262626;" transform="translate(157.749664 257.368437)scale(0.11 -0.11)">
       <defs>
        <path d="M 2463 63 
L 1900 63 
L 1900 4103 
Q 1372 3922 788 3797 
L 684 4231 
Q 1519 4441 2106 4731 
L 2463 4731 
L 2463 63 
z
" id="IPAexGothic-31" transform="scale(0.015625)"/>
       </defs>
       <use xlink:href="#IPAexGothic-31"/>
       <use x="62.988281" xlink:href="#IPAexGothic-30"/>
       <use x="125.976562" xlink:href="#IPAexGothic-30"/>
      </g>
     </g>
    </g>
    <g id="xtick_4">
     <g id="line2d_4">
      <path clip-path="url(#p79d3e733c4)" d="M 206.669129 239.62875 
L 206.669129 22.18875 
" style="fill:none;stroke:#ffffff;stroke-linecap:round;"/>
     </g>
     <g id="text_4">
      <!-- 120 -->
      <g style="fill:#262626;" transform="translate(196.276707 257.368437)scale(0.11 -0.11)">
       <defs>
        <path d="M 3659 63 
L 447 63 
L 447 594 
Q 825 1475 1894 2203 
L 2072 2322 
Q 2619 2697 2791 2906 
Q 2988 3153 2988 3444 
Q 2988 3772 2756 4003 
Q 2500 4259 2084 4259 
Q 1250 4259 991 3328 
L 497 3506 
Q 853 4725 2116 4725 
Q 2806 4725 3216 4316 
Q 3575 3947 3575 3425 
Q 3575 3038 3344 2722 
Q 3131 2416 2366 1938 
L 2231 1856 
Q 1256 1253 978 569 
L 3659 569 
L 3659 63 
z
" id="IPAexGothic-32" transform="scale(0.015625)"/>
       </defs>
       <use xlink:href="#IPAexGothic-31"/>
       <use x="62.988281" xlink:href="#IPAexGothic-32"/>
       <use x="125.976562" xlink:href="#IPAexGothic-30"/>
      </g>
     </g>
    </g>
    <g id="xtick_5">
     <g id="line2d_5">
      <path clip-path="url(#p79d3e733c4)" d="M 245.196171 239.62875 
L 245.196171 22.18875 
" style="fill:none;stroke:#ffffff;stroke-linecap:round;"/>
     </g>
     <g id="text_5">
      <!-- 140 -->
      <g style="fill:#262626;" transform="translate(234.80375 257.368437)scale(0.11 -0.11)">
       <defs>
        <path d="M 3813 1159 
L 3059 1159 
L 3059 63 
L 2547 63 
L 2547 1159 
L 197 1159 
L 197 1672 
L 2456 4678 
L 3059 4678 
L 3059 1634 
L 3813 1634 
L 3813 1159 
z
M 2578 4109 
L 2559 4109 
Q 2278 3656 2003 3284 
L 759 1634 
L 2547 1634 
L 2547 3144 
Q 2547 3481 2578 4109 
z
" id="IPAexGothic-34" transform="scale(0.015625)"/>
       </defs>
       <use xlink:href="#IPAexGothic-31"/>
       <use x="62.988281" xlink:href="#IPAexGothic-34"/>
       <use x="125.976562" xlink:href="#IPAexGothic-30"/>
      </g>
     </g>
    </g>
    <g id="xtick_6">
     <g id="line2d_6">
      <path clip-path="url(#p79d3e733c4)" d="M 283.723214 239.62875 
L 283.723214 22.18875 
" style="fill:none;stroke:#ffffff;stroke-linecap:round;"/>
     </g>
     <g id="text_6">
      <!-- 160 -->
      <g style="fill:#262626;" transform="translate(273.330792 257.368437)scale(0.11 -0.11)">
       <use xlink:href="#IPAexGothic-31"/>
       <use x="62.988281" xlink:href="#IPAexGothic-36"/>
       <use x="125.976562" xlink:href="#IPAexGothic-30"/>
      </g>
     </g>
    </g>
    <g id="xtick_7">
     <g id="line2d_7">
      <path clip-path="url(#p79d3e733c4)" d="M 322.250257 239.62875 
L 322.250257 22.18875 
" style="fill:none;stroke:#ffffff;stroke-linecap:round;"/>
     </g>
     <g id="text_7">
      <!-- 180 -->
      <g style="fill:#262626;" transform="translate(311.857835 257.368437)scale(0.11 -0.11)">
       <use xlink:href="#IPAexGothic-31"/>
       <use x="62.988281" xlink:href="#IPAexGothic-38"/>
       <use x="125.976562" xlink:href="#IPAexGothic-30"/>
      </g>
     </g>
    </g>
    <g id="xtick_8">
     <g id="line2d_8">
      <path clip-path="url(#p79d3e733c4)" d="M 360.777299 239.62875 
L 360.777299 22.18875 
" style="fill:none;stroke:#ffffff;stroke-linecap:round;"/>
     </g>
     <g id="text_8">
      <!-- 200 -->
      <g style="fill:#262626;" transform="translate(350.384877 257.368437)scale(0.11 -0.11)">
       <use xlink:href="#IPAexGothic-32"/>
       <use x="62.988281" xlink:href="#IPAexGothic-30"/>
       <use x="125.976562" xlink:href="#IPAexGothic-30"/>
      </g>
     </g>
    </g>
   </g>
   <g id="matplotlib.axis_2">
    <g id="ytick_1">
     <g id="line2d_9">
      <path clip-path="url(#p79d3e733c4)" d="M 52.753594 239.62875 
L 387.553594 239.62875 
" style="fill:none;stroke:#ffffff;stroke-linecap:round;"/>
     </g>
     <g id="text_9">
      <!-- 0 -->
      <g style="fill:#262626;" transform="translate(36.325313 243.748594)scale(0.11 -0.11)">
       <use xlink:href="#IPAexGothic-30"/>
      </g>
     </g>
    </g>
    <g id="ytick_2">
     <g id="line2d_10">
      <path clip-path="url(#p79d3e733c4)" d="M 52.753594 214.527451 
L 387.553594 214.527451 
" style="fill:none;stroke:#ffffff;stroke-linecap:round;"/>
     </g>
     <g id="text_10">
      <!-- 20 -->
      <g style="fill:#262626;" transform="translate(29.397031 218.647295)scale(0.11 -0.11)">
       <use xlink:href="#IPAexGothic-32"/>
       <use x="62.988281" xlink:href="#IPAexGothic-30"/>
      </g>
     </g>
    </g>
    <g id="ytick_3">
     <g id="line2d_11">
      <path clip-path="url(#p79d3e733c4)" d="M 52.753594 189.426153 
L 387.553594 189.426153 
" style="fill:none;stroke:#ffffff;stroke-linecap:round;"/>
     </g>
     <g id="text_11">
      <!-- 40 -->
      <g style="fill:#262626;" transform="translate(29.397031 193.545996)scale(0.11 -0.11)">
       <use xlink:href="#IPAexGothic-34"/>
       <use x="62.988281" xlink:href="#IPAexGothic-30"/>
      </g>
     </g>
    </g>
    <g id="ytick_4">
     <g id="line2d_12">
      <path clip-path="url(#p79d3e733c4)" d="M 52.753594 164.324854 
L 387.553594 164.324854 
" style="fill:none;stroke:#ffffff;stroke-linecap:round;"/>
     </g>
     <g id="text_12">
      <!-- 60 -->
      <g style="fill:#262626;" transform="translate(29.397031 168.444698)scale(0.11 -0.11)">
       <use xlink:href="#IPAexGothic-36"/>
       <use x="62.988281" xlink:href="#IPAexGothic-30"/>
      </g>
     </g>
    </g>
    <g id="ytick_5">
     <g id="line2d_13">
      <path clip-path="url(#p79d3e733c4)" d="M 52.753594 139.223555 
L 387.553594 139.223555 
" style="fill:none;stroke:#ffffff;stroke-linecap:round;"/>
     </g>
     <g id="text_13">
      <!-- 80 -->
      <g style="fill:#262626;" transform="translate(29.397031 143.343399)scale(0.11 -0.11)">
       <use xlink:href="#IPAexGothic-38"/>
       <use x="62.988281" xlink:href="#IPAexGothic-30"/>
      </g>
     </g>
    </g>
    <g id="ytick_6">
     <g id="line2d_14">
      <path clip-path="url(#p79d3e733c4)" d="M 52.753594 114.122256 
L 387.553594 114.122256 
" style="fill:none;stroke:#ffffff;stroke-linecap:round;"/>
     </g>
     <g id="text_14">
      <!-- 100 -->
      <g style="fill:#262626;" transform="translate(22.46875 118.2421)scale(0.11 -0.11)">
       <use xlink:href="#IPAexGothic-31"/>
       <use x="62.988281" xlink:href="#IPAexGothic-30"/>
       <use x="125.976562" xlink:href="#IPAexGothic-30"/>
      </g>
     </g>
    </g>
    <g id="ytick_7">
     <g id="line2d_15">
      <path clip-path="url(#p79d3e733c4)" d="M 52.753594 89.020958 
L 387.553594 89.020958 
" style="fill:none;stroke:#ffffff;stroke-linecap:round;"/>
     </g>
     <g id="text_15">
      <!-- 120 -->
      <g style="fill:#262626;" transform="translate(22.46875 93.140802)scale(0.11 -0.11)">
       <use xlink:href="#IPAexGothic-31"/>
       <use x="62.988281" xlink:href="#IPAexGothic-32"/>
       <use x="125.976562" xlink:href="#IPAexGothic-30"/>
      </g>
     </g>
    </g>
    <g id="ytick_8">
     <g id="line2d_16">
      <path clip-path="url(#p79d3e733c4)" d="M 52.753594 63.919659 
L 387.553594 63.919659 
" style="fill:none;stroke:#ffffff;stroke-linecap:round;"/>
     </g>
     <g id="text_16">
      <!-- 140 -->
      <g style="fill:#262626;" transform="translate(22.46875 68.039503)scale(0.11 -0.11)">
       <use xlink:href="#IPAexGothic-31"/>
       <use x="62.988281" xlink:href="#IPAexGothic-34"/>
       <use x="125.976562" xlink:href="#IPAexGothic-30"/>
      </g>
     </g>
    </g>
    <g id="ytick_9">
     <g id="line2d_17">
      <path clip-path="url(#p79d3e733c4)" d="M 52.753594 38.81836 
L 387.553594 38.81836 
" style="fill:none;stroke:#ffffff;stroke-linecap:round;"/>
     </g>
     <g id="text_17">
      <!-- 160 -->
      <g style="fill:#262626;" transform="translate(22.46875 42.938204)scale(0.11 -0.11)">
       <use xlink:href="#IPAexGothic-31"/>
       <use x="62.988281" xlink:href="#IPAexGothic-36"/>
       <use x="125.976562" xlink:href="#IPAexGothic-30"/>
      </g>
     </g>
    </g>
    <g id="text_18">
     <!-- Frequency -->
     <g style="fill:#262626;" transform="translate(16.18875 160.584375)rotate(-90)scale(0.12 -0.12)">
      <defs>
       <path d="M 3469 4141 
L 1172 4141 
L 1172 2656 
L 3206 2656 
L 3206 2188 
L 1172 2188 
L 1172 63 
L 609 63 
L 609 4634 
L 3469 4634 
L 3469 4141 
z
" id="IPAexGothic-46" transform="scale(0.015625)"/>
       <path d="M 2309 3316 
L 2213 2769 
Q 2106 2791 2022 2791 
Q 1653 2791 1413 2444 
Q 1113 2006 1113 1675 
L 1113 63 
L 563 63 
L 563 3250 
L 1081 3250 
L 1056 2303 
L 1069 2303 
Q 1422 3341 2097 3341 
Q 2206 3341 2309 3316 
z
" id="IPAexGothic-72" transform="scale(0.015625)"/>
       <path d="M 863 1594 
Q 891 1041 1209 722 
Q 1534 397 1997 397 
Q 2606 397 2963 966 
L 3322 728 
Q 2869 -31 1931 -31 
Q 1222 -31 766 422 
Q 306 884 306 1641 
Q 306 2444 788 2925 
Q 1216 3353 1856 3353 
Q 2459 3353 2866 2956 
Q 3322 2494 3322 1722 
L 3322 1594 
L 863 1594 
z
M 2756 1997 
Q 2709 2431 2450 2681 
Q 2194 2938 1844 2938 
Q 1438 2938 1150 2591 
Q 953 2356 894 1997 
L 2756 1997 
z
" id="IPAexGothic-65" transform="scale(0.015625)"/>
       <path d="M 3397 -1216 
L 2847 -1216 
L 2847 556 
Q 2441 -31 1759 -31 
Q 1181 -31 788 372 
Q 313 844 313 1656 
Q 313 2450 788 2925 
Q 1203 3341 1803 3341 
Q 2472 3341 2903 2803 
L 2981 3275 
L 3397 3275 
L 3397 -1216 
z
M 2847 1278 
L 2847 2091 
Q 2847 2272 2650 2509 
Q 2319 2906 1869 2906 
Q 1406 2906 1131 2516 
Q 888 2175 888 1672 
Q 888 1116 1169 756 
Q 1447 409 1853 409 
Q 2334 409 2669 875 
Q 2847 1131 2847 1278 
z
" id="IPAexGothic-71" transform="scale(0.015625)"/>
       <path d="M 3284 63 
L 2772 63 
L 2772 644 
Q 2300 0 1625 0 
Q 1072 0 763 375 
Q 519 678 519 1241 
L 519 3250 
L 1069 3250 
L 1069 1259 
Q 1069 466 1734 466 
Q 2406 466 2734 1291 
L 2734 3250 
L 3284 3250 
L 3284 63 
z
" id="IPAexGothic-75" transform="scale(0.015625)"/>
       <path d="M 3328 63 
L 2778 63 
L 2778 2041 
Q 2778 2853 2106 2853 
Q 1428 2853 1113 2041 
L 1113 63 
L 563 63 
L 563 3250 
L 1075 3250 
L 1075 2675 
Q 1525 3316 2222 3316 
Q 3328 3316 3328 2072 
L 3328 63 
z
" id="IPAexGothic-6e" transform="scale(0.015625)"/>
       <path d="M 3269 784 
Q 2834 -31 1900 -31 
Q 1228 -31 788 409 
Q 313 891 313 1663 
Q 313 2428 788 2913 
Q 1222 3347 1881 3347 
Q 2813 3347 3206 2541 
L 2763 2309 
Q 2484 2900 1900 2900 
Q 1516 2900 1234 2619 
Q 881 2266 881 1650 
Q 881 1069 1222 728 
Q 1522 428 1956 428 
Q 2547 428 2847 1016 
L 3269 784 
z
" id="IPAexGothic-63" transform="scale(0.015625)"/>
       <path d="M 3122 3250 
L 1575 -488 
Q 1278 -1203 550 -1203 
L 478 -1203 
L 344 -703 
L 447 -703 
Q 969 -703 1150 -238 
L 1356 275 
L 38 3250 
L 659 3250 
L 1363 1459 
Q 1528 1025 1606 781 
L 1625 781 
Q 1750 1169 1863 1459 
L 2528 3250 
L 3122 3250 
z
" id="IPAexGothic-79" transform="scale(0.015625)"/>
      </defs>
      <use xlink:href="#IPAexGothic-46"/>
      <use x="57.177734" xlink:href="#IPAexGothic-72"/>
      <use x="94.189453" xlink:href="#IPAexGothic-65"/>
      <use x="151.074219" xlink:href="#IPAexGothic-71"/>
      <use x="213.28125" xlink:href="#IPAexGothic-75"/>
      <use x="273.681641" xlink:href="#IPAexGothic-65"/>
      <use x="330.566406" xlink:href="#IPAexGothic-6e"/>
      <use x="390.966797" xlink:href="#IPAexGothic-63"/>
      <use x="445.361328" xlink:href="#IPAexGothic-79"/>
     </g>
    </g>
   </g>
   <g id="patch_3">
    <path clip-path="url(#p79d3e733c4)" d="M 91.088001 239.62875 
L 98.311822 239.62875 
L 98.311822 237.11862 
L 91.088001 237.11862 
z
" style="fill:#4c72b0;opacity:0.5;stroke:#ffffff;stroke-linejoin:miter;"/>
   </g>
   <g id="patch_4">
    <path clip-path="url(#p79d3e733c4)" d="M 98.311822 239.62875 
L 105.535642 239.62875 
L 105.535642 229.588231 
L 98.311822 229.588231 
z
" style="fill:#4c72b0;opacity:0.5;stroke:#ffffff;stroke-linejoin:miter;"/>
   </g>
   <g id="patch_5">
    <path clip-path="url(#p79d3e733c4)" d="M 105.535642 239.62875 
L 112.759463 239.62875 
L 112.759463 194.446412 
L 105.535642 194.446412 
z
" style="fill:#4c72b0;opacity:0.5;stroke:#ffffff;stroke-linejoin:miter;"/>
   </g>
   <g id="patch_6">
    <path clip-path="url(#p79d3e733c4)" d="M 112.759463 239.62875 
L 119.983283 239.62875 
L 119.983283 174.365373 
L 112.759463 174.365373 
z
" style="fill:#4c72b0;opacity:0.5;stroke:#ffffff;stroke-linejoin:miter;"/>
   </g>
   <g id="patch_7">
    <path clip-path="url(#p79d3e733c4)" d="M 119.983283 239.62875 
L 127.207104 239.62875 
L 127.207104 60.154464 
L 119.983283 60.154464 
z
" style="fill:#4c72b0;opacity:0.5;stroke:#ffffff;stroke-linejoin:miter;"/>
   </g>
   <g id="patch_8">
    <path clip-path="url(#p79d3e733c4)" d="M 127.207104 239.62875 
L 134.430924 239.62875 
L 134.430924 42.583555 
L 127.207104 42.583555 
z
" style="fill:#4c72b0;opacity:0.5;stroke:#ffffff;stroke-linejoin:miter;"/>
   </g>
   <g id="patch_9">
    <path clip-path="url(#p79d3e733c4)" d="M 134.430924 239.62875 
L 141.654744 239.62875 
L 141.654744 32.543036 
L 134.430924 32.543036 
z
" style="fill:#4c72b0;opacity:0.5;stroke:#ffffff;stroke-linejoin:miter;"/>
   </g>
   <g id="patch_10">
    <path clip-path="url(#p79d3e733c4)" d="M 141.654744 239.62875 
L 148.878565 239.62875 
L 148.878565 145.49888 
L 141.654744 145.49888 
z
" style="fill:#4c72b0;opacity:0.5;stroke:#ffffff;stroke-linejoin:miter;"/>
   </g>
   <g id="patch_11">
    <path clip-path="url(#p79d3e733c4)" d="M 148.878565 239.62875 
L 156.102385 239.62875 
L 156.102385 144.243815 
L 148.878565 144.243815 
z
" style="fill:#4c72b0;opacity:0.5;stroke:#ffffff;stroke-linejoin:miter;"/>
   </g>
   <g id="patch_12">
    <path clip-path="url(#p79d3e733c4)" d="M 156.102385 239.62875 
L 163.326206 239.62875 
L 163.326206 196.956542 
L 156.102385 196.956542 
z
" style="fill:#4c72b0;opacity:0.5;stroke:#ffffff;stroke-linejoin:miter;"/>
   </g>
   <g id="patch_13">
    <path clip-path="url(#p79d3e733c4)" d="M 163.326206 239.62875 
L 170.550026 239.62875 
L 170.550026 201.976802 
L 163.326206 201.976802 
z
" style="fill:#4c72b0;opacity:0.5;stroke:#ffffff;stroke-linejoin:miter;"/>
   </g>
   <g id="patch_14">
    <path clip-path="url(#p79d3e733c4)" d="M 170.550026 239.62875 
L 177.773847 239.62875 
L 177.773847 215.782516 
L 170.550026 215.782516 
z
" style="fill:#4c72b0;opacity:0.5;stroke:#ffffff;stroke-linejoin:miter;"/>
   </g>
   <g id="patch_15">
    <path clip-path="url(#p79d3e733c4)" d="M 177.773847 239.62875 
L 184.997667 239.62875 
L 184.997667 230.843295 
L 177.773847 230.843295 
z
" style="fill:#4c72b0;opacity:0.5;stroke:#ffffff;stroke-linejoin:miter;"/>
   </g>
   <g id="patch_16">
    <path clip-path="url(#p79d3e733c4)" d="M 184.997667 239.62875 
L 192.221488 239.62875 
L 192.221488 233.353425 
L 184.997667 233.353425 
z
" style="fill:#4c72b0;opacity:0.5;stroke:#ffffff;stroke-linejoin:miter;"/>
   </g>
   <g id="patch_17">
    <path clip-path="url(#p79d3e733c4)" d="M 192.221488 239.62875 
L 199.445308 239.62875 
L 199.445308 234.60849 
L 192.221488 234.60849 
z
" style="fill:#4c72b0;opacity:0.5;stroke:#ffffff;stroke-linejoin:miter;"/>
   </g>
   <g id="patch_18">
    <path clip-path="url(#p79d3e733c4)" d="M 199.445308 239.62875 
L 206.669129 239.62875 
L 206.669129 234.60849 
L 199.445308 234.60849 
z
" style="fill:#4c72b0;opacity:0.5;stroke:#ffffff;stroke-linejoin:miter;"/>
   </g>
   <g id="patch_19">
    <path clip-path="url(#p79d3e733c4)" d="M 206.669129 239.62875 
L 213.892949 239.62875 
L 213.892949 237.11862 
L 206.669129 237.11862 
z
" style="fill:#4c72b0;opacity:0.5;stroke:#ffffff;stroke-linejoin:miter;"/>
   </g>
   <g id="patch_20">
    <path clip-path="url(#p79d3e733c4)" d="M 213.892949 239.62875 
L 221.11677 239.62875 
L 221.11677 237.11862 
L 213.892949 237.11862 
z
" style="fill:#4c72b0;opacity:0.5;stroke:#ffffff;stroke-linejoin:miter;"/>
   </g>
   <g id="patch_21">
    <path clip-path="url(#p79d3e733c4)" d="M 221.11677 239.62875 
L 228.34059 239.62875 
L 228.34059 239.62875 
L 221.11677 239.62875 
z
" style="fill:#4c72b0;opacity:0.5;stroke:#ffffff;stroke-linejoin:miter;"/>
   </g>
   <g id="patch_22">
    <path clip-path="url(#p79d3e733c4)" d="M 228.34059 239.62875 
L 235.564411 239.62875 
L 235.564411 238.373685 
L 228.34059 238.373685 
z
" style="fill:#4c72b0;opacity:0.5;stroke:#ffffff;stroke-linejoin:miter;"/>
   </g>
   <g id="patch_23">
    <path clip-path="url(#p79d3e733c4)" d="M 67.971776 239.62875 
L 72.306068 239.62875 
L 72.306068 238.373685 
L 67.971776 238.373685 
z
" style="fill:#dd8452;opacity:0.5;stroke:#ffffff;stroke-linejoin:miter;"/>
   </g>
   <g id="patch_24">
    <path clip-path="url(#p79d3e733c4)" d="M 72.306068 239.62875 
L 76.64036 239.62875 
L 76.64036 239.62875 
L 72.306068 239.62875 
z
" style="fill:#dd8452;opacity:0.5;stroke:#ffffff;stroke-linejoin:miter;"/>
   </g>
   <g id="patch_25">
    <path clip-path="url(#p79d3e733c4)" d="M 76.64036 239.62875 
L 80.974652 239.62875 
L 80.974652 238.373685 
L 76.64036 238.373685 
z
" style="fill:#dd8452;opacity:0.5;stroke:#ffffff;stroke-linejoin:miter;"/>
   </g>
   <g id="patch_26">
    <path clip-path="url(#p79d3e733c4)" d="M 80.974652 239.62875 
L 85.308945 239.62875 
L 85.308945 235.863555 
L 80.974652 235.863555 
z
" style="fill:#dd8452;opacity:0.5;stroke:#ffffff;stroke-linejoin:miter;"/>
   </g>
   <g id="patch_27">
    <path clip-path="url(#p79d3e733c4)" d="M 85.308945 239.62875 
L 89.643237 239.62875 
L 89.643237 228.333166 
L 85.308945 228.333166 
z
" style="fill:#dd8452;opacity:0.5;stroke:#ffffff;stroke-linejoin:miter;"/>
   </g>
   <g id="patch_28">
    <path clip-path="url(#p79d3e733c4)" d="M 89.643237 239.62875 
L 93.977529 239.62875 
L 93.977529 217.037581 
L 89.643237 217.037581 
z
" style="fill:#dd8452;opacity:0.5;stroke:#ffffff;stroke-linejoin:miter;"/>
   </g>
   <g id="patch_29">
    <path clip-path="url(#p79d3e733c4)" d="M 93.977529 239.62875 
L 98.311822 239.62875 
L 98.311822 199.466672 
L 93.977529 199.466672 
z
" style="fill:#dd8452;opacity:0.5;stroke:#ffffff;stroke-linejoin:miter;"/>
   </g>
   <g id="patch_30">
    <path clip-path="url(#p79d3e733c4)" d="M 98.311822 239.62875 
L 102.646114 239.62875 
L 102.646114 178.130568 
L 98.311822 178.130568 
z
" style="fill:#dd8452;opacity:0.5;stroke:#ffffff;stroke-linejoin:miter;"/>
   </g>
   <g id="patch_31">
    <path clip-path="url(#p79d3e733c4)" d="M 102.646114 239.62875 
L 106.980406 239.62875 
L 106.980406 122.907711 
L 102.646114 122.907711 
z
" style="fill:#dd8452;opacity:0.5;stroke:#ffffff;stroke-linejoin:miter;"/>
   </g>
   <g id="patch_32">
    <path clip-path="url(#p79d3e733c4)" d="M 106.980406 239.62875 
L 111.314698 239.62875 
L 111.314698 145.49888 
L 106.980406 145.49888 
z
" style="fill:#dd8452;opacity:0.5;stroke:#ffffff;stroke-linejoin:miter;"/>
   </g>
   <g id="patch_33">
    <path clip-path="url(#p79d3e733c4)" d="M 111.314698 239.62875 
L 115.648991 239.62875 
L 115.648991 159.304594 
L 111.314698 159.304594 
z
" style="fill:#dd8452;opacity:0.5;stroke:#ffffff;stroke-linejoin:miter;"/>
   </g>
   <g id="patch_34">
    <path clip-path="url(#p79d3e733c4)" d="M 115.648991 239.62875 
L 119.983283 239.62875 
L 119.983283 154.284334 
L 115.648991 154.284334 
z
" style="fill:#dd8452;opacity:0.5;stroke:#ffffff;stroke-linejoin:miter;"/>
   </g>
   <g id="patch_35">
    <path clip-path="url(#p79d3e733c4)" d="M 119.983283 239.62875 
L 124.317575 239.62875 
L 124.317575 122.907711 
L 119.983283 122.907711 
z
" style="fill:#dd8452;opacity:0.5;stroke:#ffffff;stroke-linejoin:miter;"/>
   </g>
   <g id="patch_36">
    <path clip-path="url(#p79d3e733c4)" d="M 124.317575 239.62875 
L 128.651868 239.62875 
L 128.651868 181.895763 
L 124.317575 181.895763 
z
" style="fill:#dd8452;opacity:0.5;stroke:#ffffff;stroke-linejoin:miter;"/>
   </g>
   <g id="patch_37">
    <path clip-path="url(#p79d3e733c4)" d="M 128.651868 239.62875 
L 132.98616 239.62875 
L 132.98616 214.527451 
L 128.651868 214.527451 
z
" style="fill:#dd8452;opacity:0.5;stroke:#ffffff;stroke-linejoin:miter;"/>
   </g>
   <g id="patch_38">
    <path clip-path="url(#p79d3e733c4)" d="M 132.98616 239.62875 
L 137.320452 239.62875 
L 137.320452 200.721737 
L 132.98616 200.721737 
z
" style="fill:#dd8452;opacity:0.5;stroke:#ffffff;stroke-linejoin:miter;"/>
   </g>
   <g id="patch_39">
    <path clip-path="url(#p79d3e733c4)" d="M 137.320452 239.62875 
L 141.654744 239.62875 
L 141.654744 213.272386 
L 137.320452 213.272386 
z
" style="fill:#dd8452;opacity:0.5;stroke:#ffffff;stroke-linejoin:miter;"/>
   </g>
   <g id="patch_40">
    <path clip-path="url(#p79d3e733c4)" d="M 141.654744 239.62875 
L 145.989037 239.62875 
L 145.989037 230.843295 
L 141.654744 230.843295 
z
" style="fill:#dd8452;opacity:0.5;stroke:#ffffff;stroke-linejoin:miter;"/>
   </g>
   <g id="patch_41">
    <path clip-path="url(#p79d3e733c4)" d="M 145.989037 239.62875 
L 150.323329 239.62875 
L 150.323329 230.843295 
L 145.989037 230.843295 
z
" style="fill:#dd8452;opacity:0.5;stroke:#ffffff;stroke-linejoin:miter;"/>
   </g>
   <g id="patch_42">
    <path clip-path="url(#p79d3e733c4)" d="M 150.323329 239.62875 
L 154.657621 239.62875 
L 154.657621 233.353425 
L 150.323329 233.353425 
z
" style="fill:#dd8452;opacity:0.5;stroke:#ffffff;stroke-linejoin:miter;"/>
   </g>
   <g id="patch_43">
    <path clip-path="url(#p79d3e733c4)" d="M 197.037368 239.62875 
L 205.80227 239.62875 
L 205.80227 238.373685 
L 197.037368 238.373685 
z
" style="fill:#55a868;opacity:0.5;stroke:#ffffff;stroke-linejoin:miter;"/>
   </g>
   <g id="patch_44">
    <path clip-path="url(#p79d3e733c4)" d="M 205.80227 239.62875 
L 214.567173 239.62875 
L 214.567173 238.373685 
L 205.80227 238.373685 
z
" style="fill:#55a868;opacity:0.5;stroke:#ffffff;stroke-linejoin:miter;"/>
   </g>
   <g id="patch_45">
    <path clip-path="url(#p79d3e733c4)" d="M 214.567173 239.62875 
L 223.332075 239.62875 
L 223.332075 239.62875 
L 214.567173 239.62875 
z
" style="fill:#55a868;opacity:0.5;stroke:#ffffff;stroke-linejoin:miter;"/>
   </g>
   <g id="patch_46">
    <path clip-path="url(#p79d3e733c4)" d="M 223.332075 239.62875 
L 232.096977 239.62875 
L 232.096977 238.373685 
L 223.332075 238.373685 
z
" style="fill:#55a868;opacity:0.5;stroke:#ffffff;stroke-linejoin:miter;"/>
   </g>
   <g id="patch_47">
    <path clip-path="url(#p79d3e733c4)" d="M 232.096977 239.62875 
L 240.861879 239.62875 
L 240.861879 232.09836 
L 232.096977 232.09836 
z
" style="fill:#55a868;opacity:0.5;stroke:#ffffff;stroke-linejoin:miter;"/>
   </g>
   <g id="patch_48">
    <path clip-path="url(#p79d3e733c4)" d="M 240.861879 239.62875 
L 249.626781 239.62875 
L 249.626781 234.60849 
L 240.861879 234.60849 
z
" style="fill:#55a868;opacity:0.5;stroke:#ffffff;stroke-linejoin:miter;"/>
   </g>
   <g id="patch_49">
    <path clip-path="url(#p79d3e733c4)" d="M 249.626781 239.62875 
L 258.391684 239.62875 
L 258.391684 233.353425 
L 249.626781 233.353425 
z
" style="fill:#55a868;opacity:0.5;stroke:#ffffff;stroke-linejoin:miter;"/>
   </g>
   <g id="patch_50">
    <path clip-path="url(#p79d3e733c4)" d="M 258.391684 239.62875 
L 267.156586 239.62875 
L 267.156586 230.843295 
L 258.391684 230.843295 
z
" style="fill:#55a868;opacity:0.5;stroke:#ffffff;stroke-linejoin:miter;"/>
   </g>
   <g id="patch_51">
    <path clip-path="url(#p79d3e733c4)" d="M 267.156586 239.62875 
L 275.921488 239.62875 
L 275.921488 234.60849 
L 267.156586 234.60849 
z
" style="fill:#55a868;opacity:0.5;stroke:#ffffff;stroke-linejoin:miter;"/>
   </g>
   <g id="patch_52">
    <path clip-path="url(#p79d3e733c4)" d="M 275.921488 239.62875 
L 284.68639 239.62875 
L 284.68639 228.333166 
L 275.921488 228.333166 
z
" style="fill:#55a868;opacity:0.5;stroke:#ffffff;stroke-linejoin:miter;"/>
   </g>
   <g id="patch_53">
    <path clip-path="url(#p79d3e733c4)" d="M 284.68639 239.62875 
L 293.451292 239.62875 
L 293.451292 232.09836 
L 284.68639 232.09836 
z
" style="fill:#55a868;opacity:0.5;stroke:#ffffff;stroke-linejoin:miter;"/>
   </g>
   <g id="patch_54">
    <path clip-path="url(#p79d3e733c4)" d="M 293.451292 239.62875 
L 302.216194 239.62875 
L 302.216194 237.11862 
L 293.451292 237.11862 
z
" style="fill:#55a868;opacity:0.5;stroke:#ffffff;stroke-linejoin:miter;"/>
   </g>
   <g id="patch_55">
    <path clip-path="url(#p79d3e733c4)" d="M 302.216194 239.62875 
L 310.981097 239.62875 
L 310.981097 232.09836 
L 302.216194 232.09836 
z
" style="fill:#55a868;opacity:0.5;stroke:#ffffff;stroke-linejoin:miter;"/>
   </g>
   <g id="patch_56">
    <path clip-path="url(#p79d3e733c4)" d="M 310.981097 239.62875 
L 319.745999 239.62875 
L 319.745999 235.863555 
L 310.981097 235.863555 
z
" style="fill:#55a868;opacity:0.5;stroke:#ffffff;stroke-linejoin:miter;"/>
   </g>
   <g id="patch_57">
    <path clip-path="url(#p79d3e733c4)" d="M 319.745999 239.62875 
L 328.510901 239.62875 
L 328.510901 233.353425 
L 319.745999 233.353425 
z
" style="fill:#55a868;opacity:0.5;stroke:#ffffff;stroke-linejoin:miter;"/>
   </g>
   <g id="patch_58">
    <path clip-path="url(#p79d3e733c4)" d="M 328.510901 239.62875 
L 337.275803 239.62875 
L 337.275803 235.863555 
L 328.510901 235.863555 
z
" style="fill:#55a868;opacity:0.5;stroke:#ffffff;stroke-linejoin:miter;"/>
   </g>
   <g id="patch_59">
    <path clip-path="url(#p79d3e733c4)" d="M 337.275803 239.62875 
L 346.040705 239.62875 
L 346.040705 235.863555 
L 337.275803 235.863555 
z
" style="fill:#55a868;opacity:0.5;stroke:#ffffff;stroke-linejoin:miter;"/>
   </g>
   <g id="patch_60">
    <path clip-path="url(#p79d3e733c4)" d="M 346.040705 239.62875 
L 354.805608 239.62875 
L 354.805608 238.373685 
L 346.040705 238.373685 
z
" style="fill:#55a868;opacity:0.5;stroke:#ffffff;stroke-linejoin:miter;"/>
   </g>
   <g id="patch_61">
    <path clip-path="url(#p79d3e733c4)" d="M 354.805608 239.62875 
L 363.57051 239.62875 
L 363.57051 238.373685 
L 354.805608 238.373685 
z
" style="fill:#55a868;opacity:0.5;stroke:#ffffff;stroke-linejoin:miter;"/>
   </g>
   <g id="patch_62">
    <path clip-path="url(#p79d3e733c4)" d="M 363.57051 239.62875 
L 372.335412 239.62875 
L 372.335412 237.11862 
L 363.57051 237.11862 
z
" style="fill:#55a868;opacity:0.5;stroke:#ffffff;stroke-linejoin:miter;"/>
   </g>
   <g id="patch_63">
    <path d="M 52.753594 239.62875 
L 52.753594 22.18875 
" style="fill:none;stroke:#ffffff;stroke-linecap:square;stroke-linejoin:miter;stroke-width:1.25;"/>
   </g>
   <g id="patch_64">
    <path d="M 387.553594 239.62875 
L 387.553594 22.18875 
" style="fill:none;stroke:#ffffff;stroke-linecap:square;stroke-linejoin:miter;stroke-width:1.25;"/>
   </g>
   <g id="patch_65">
    <path d="M 52.753594 239.62875 
L 387.553594 239.62875 
" style="fill:none;stroke:#ffffff;stroke-linecap:square;stroke-linejoin:miter;stroke-width:1.25;"/>
   </g>
   <g id="patch_66">
    <path d="M 52.753594 22.18875 
L 387.553594 22.18875 
" style="fill:none;stroke:#ffffff;stroke-linecap:square;stroke-linejoin:miter;stroke-width:1.25;"/>
   </g>
   <g id="text_19">
    <!-- 体重 -->
    <g style="fill:#262626;" transform="translate(208.153594 16.18875)scale(0.12 -0.12)">
     <defs>
      <path d="M 4253 3481 
Q 4869 2069 6041 1138 
L 5688 703 
Q 4541 1841 4069 3122 
L 4069 1228 
L 4925 1228 
L 4925 831 
L 4081 831 
L 4081 -450 
L 3613 -450 
L 3613 831 
L 2781 831 
L 2781 1228 
L 3628 1228 
L 3628 3097 
Q 3216 1703 2063 556 
L 1706 928 
Q 2844 1875 3441 3481 
L 1969 3481 
L 1969 3897 
L 3613 3897 
L 3613 5209 
L 4081 5209 
L 4081 3897 
L 5872 3897 
L 5872 3481 
L 4253 3481 
z
M 1572 3700 
L 1572 -441 
L 1119 -441 
L 1119 2778 
Q 888 2363 550 1913 
L 300 2303 
Q 1219 3575 1591 5241 
L 2041 5125 
Q 1844 4356 1572 3700 
z
" id="IPAexGothic-4f53" transform="scale(0.015625)"/>
      <path d="M 2950 3284 
L 2950 3684 
L 481 3684 
L 481 4063 
L 2950 4063 
L 2950 4491 
L 2747 4478 
Q 2100 4431 1241 4400 
L 1038 4791 
Q 3488 4878 4903 5113 
L 5234 4734 
Q 4388 4600 3406 4522 
L 3406 4063 
L 5913 4063 
L 5913 3684 
L 3406 3684 
L 3406 3284 
L 5269 3284 
L 5269 1313 
L 3406 1313 
L 3406 884 
L 5594 884 
L 5594 519 
L 3406 519 
L 3406 84 
L 6009 84 
L 6009 -294 
L 384 -294 
L 384 84 
L 2950 84 
L 2950 519 
L 800 519 
L 800 884 
L 2950 884 
L 2950 1313 
L 1128 1313 
L 1128 3284 
L 2950 3284 
z
M 2963 2931 
L 1569 2931 
L 1569 2472 
L 2963 2472 
L 2963 2931 
z
M 3394 2931 
L 3394 2472 
L 4825 2472 
L 4825 2931 
L 3394 2931 
z
M 2963 2147 
L 1569 2147 
L 1569 1659 
L 2963 1659 
L 2963 2147 
z
M 3394 2147 
L 3394 1659 
L 4825 1659 
L 4825 2147 
L 3394 2147 
z
" id="IPAexGothic-91cd" transform="scale(0.015625)"/>
     </defs>
     <use xlink:href="#IPAexGothic-4f53"/>
     <use x="100" xlink:href="#IPAexGothic-91cd"/>
    </g>
   </g>
  </g>
 </g>
 <defs>
  <clipPath id="p79d3e733c4">
   <rect height="217.44" width="334.8" x="52.753594" y="22.18875"/>
  </clipPath>
 </defs>
</svg>
