<?xml version="1.0" encoding="utf-8" standalone="no"?>
<!DOCTYPE svg PUBLIC "-//W3C//DTD SVG 1.1//EN"
  "http://www.w3.org/Graphics/SVG/1.1/DTD/svg11.dtd">
<!-- Created with matplotlib (https://matplotlib.org/) -->
<svg height="266.938437pt" version="1.1" viewBox="0 0 415.538437 266.938437" width="415.538437pt" xmlns="http://www.w3.org/2000/svg" xmlns:xlink="http://www.w3.org/1999/xlink">
 <metadata>
  <rdf:RDF xmlns:cc="http://creativecommons.org/ns#" xmlns:dc="http://purl.org/dc/elements/1.1/" xmlns:rdf="http://www.w3.org/1999/02/22-rdf-syntax-ns#">
   <cc:Work>
    <dc:type rdf:resource="http://purl.org/dc/dcmitype/StillImage"/>
    <dc:date>2021-03-05T19:09:51.879123</dc:date>
    <dc:format>image/svg+xml</dc:format>
    <dc:creator>
     <cc:Agent>
      <dc:title>Matplotlib v3.3.4, https://matplotlib.org/</dc:title>
     </cc:Agent>
    </dc:creator>
   </cc:Work>
  </rdf:RDF>
 </metadata>
 <defs>
  <style type="text/css">*{stroke-linecap:butt;stroke-linejoin:round;}</style>
 </defs>
 <g id="figure_1">
  <g id="patch_1">
   <path d="M 0 266.938437 
L 415.538437 266.938437 
L 415.538437 0 
L 0 0 
z
" style="fill:#ffffff;"/>
  </g>
  <g id="axes_1">
   <g id="patch_2">
    <path d="M 73.538438 224.64 
L 408.338437 224.64 
L 408.338437 7.2 
L 73.538438 7.2 
z
" style="fill:#eaeaf2;"/>
   </g>
   <g id="matplotlib.axis_1">
    <g id="xtick_1">
     <g id="line2d_1">
      <path clip-path="url(#pd0eb32a9fc)" d="M 88.756619 224.64 
L 88.756619 7.2 
" style="fill:none;stroke:#ffffff;stroke-linecap:round;"/>
     </g>
     <g id="text_1">
      <!-- 1 -->
      <g style="fill:#262626;" transform="translate(85.292479 242.379687)scale(0.11 -0.11)">
       <defs>
        <path d="M 38.484375 0.984375 
L 29.6875 0.984375 
L 29.6875 64.109375 
Q 21.4375 61.28125 12.3125 59.328125 
L 10.6875 66.109375 
Q 23.734375 69.390625 32.90625 73.921875 
L 38.484375 73.921875 
z
" id="IPAexGothic-49"/>
       </defs>
       <use xlink:href="#IPAexGothic-49"/>
      </g>
     </g>
    </g>
    <g id="xtick_2">
     <g id="line2d_2">
      <path clip-path="url(#pd0eb32a9fc)" d="M 126.802074 224.64 
L 126.802074 7.2 
" style="fill:none;stroke:#ffffff;stroke-linecap:round;"/>
     </g>
     <g id="text_2">
      <!-- 2 -->
      <g style="fill:#262626;" transform="translate(123.337933 242.379687)scale(0.11 -0.11)">
       <defs>
        <path d="M 57.171875 0.984375 
L 6.984375 0.984375 
L 6.984375 9.28125 
Q 12.890625 23.046875 29.59375 34.421875 
L 32.375 36.28125 
Q 40.921875 42.140625 43.609375 45.40625 
Q 46.6875 49.265625 46.6875 53.8125 
Q 46.6875 58.9375 43.0625 62.546875 
Q 39.0625 66.546875 32.5625 66.546875 
Q 19.53125 66.546875 15.484375 52 
L 7.765625 54.78125 
Q 13.328125 73.828125 33.0625 73.828125 
Q 43.84375 73.828125 50.25 67.4375 
Q 55.859375 61.671875 55.859375 53.515625 
Q 55.859375 47.46875 52.25 42.53125 
Q 48.921875 37.75 36.96875 30.28125 
L 34.859375 29 
Q 19.625 19.578125 15.28125 8.890625 
L 57.171875 8.890625 
z
" id="IPAexGothic-50"/>
       </defs>
       <use xlink:href="#IPAexGothic-50"/>
      </g>
     </g>
    </g>
    <g id="xtick_3">
     <g id="line2d_3">
      <path clip-path="url(#pd0eb32a9fc)" d="M 164.847528 224.64 
L 164.847528 7.2 
" style="fill:none;stroke:#ffffff;stroke-linecap:round;"/>
     </g>
     <g id="text_3">
      <!-- 3 -->
      <g style="fill:#262626;" transform="translate(161.383388 242.379687)scale(0.11 -0.11)">
       <defs>
        <path d="M 37.203125 37.796875 
Q 54.78125 34.625 54.78125 19.96875 
Q 54.78125 11.1875 48.875 5.5625 
Q 42.328125 -0.484375 30.375 -0.484375 
Q 12.453125 -0.484375 4.5 13.765625 
L 11.8125 17.671875 
Q 17.328125 6.890625 30.28125 6.890625 
Q 37.890625 6.890625 42.09375 10.796875 
Q 46.09375 14.5 46.09375 20.171875 
Q 46.09375 26.859375 40.09375 30.90625 
Q 34.625 34.578125 25.6875 34.578125 
L 21.296875 34.578125 
L 21.296875 41.703125 
L 25.875 41.703125 
Q 34.859375 41.703125 39.59375 45.125 
Q 44.671875 48.734375 44.671875 54.828125 
Q 44.671875 61.46875 38.96875 64.65625 
Q 35.296875 66.84375 30.171875 66.84375 
Q 19.34375 66.84375 14.109375 55.90625 
L 6.78125 59.421875 
Q 14.015625 73.828125 30.28125 73.828125 
Q 40.578125 73.828125 46.96875 68.65625 
Q 53.375 63.578125 53.375 55.21875 
Q 53.375 47.3125 47.171875 42.28125 
Q 43.171875 39.0625 37.203125 38.1875 
z
" id="IPAexGothic-51"/>
       </defs>
       <use xlink:href="#IPAexGothic-51"/>
      </g>
     </g>
    </g>
    <g id="xtick_4">
     <g id="line2d_4">
      <path clip-path="url(#pd0eb32a9fc)" d="M 202.892983 224.64 
L 202.892983 7.2 
" style="fill:none;stroke:#ffffff;stroke-linecap:round;"/>
     </g>
     <g id="text_4">
      <!-- 4 -->
      <g style="fill:#262626;" transform="translate(199.428842 242.379687)scale(0.11 -0.11)">
       <defs>
        <path d="M 59.578125 18.109375 
L 47.796875 18.109375 
L 47.796875 0.984375 
L 39.796875 0.984375 
L 39.796875 18.109375 
L 3.078125 18.109375 
L 3.078125 26.125 
L 38.375 73.09375 
L 47.796875 73.09375 
L 47.796875 25.53125 
L 59.578125 25.53125 
z
M 40.28125 64.203125 
L 39.984375 64.203125 
Q 35.59375 57.125 31.296875 51.3125 
L 11.859375 25.53125 
L 39.796875 25.53125 
L 39.796875 49.125 
Q 39.796875 54.390625 40.28125 64.203125 
z
" id="IPAexGothic-52"/>
       </defs>
       <use xlink:href="#IPAexGothic-52"/>
      </g>
     </g>
    </g>
    <g id="xtick_5">
     <g id="line2d_5">
      <path clip-path="url(#pd0eb32a9fc)" d="M 240.938438 224.64 
L 240.938438 7.2 
" style="fill:none;stroke:#ffffff;stroke-linecap:round;"/>
     </g>
     <g id="text_5">
      <!-- 5 -->
      <g style="fill:#262626;" transform="translate(237.474297 242.379687)scale(0.11 -0.11)">
       <defs>
        <path d="M 18.40625 40.671875 
Q 25.53125 46.296875 33.9375 46.296875 
Q 44 46.296875 50.640625 39.5 
Q 56.84375 33.015625 56.84375 23.390625 
Q 56.84375 14.65625 51.515625 8.015625 
Q 44.828125 -0.484375 31.734375 -0.484375 
Q 14.984375 -0.484375 7.328125 12.25 
L 14.65625 16.0625 
Q 20.453125 6.78125 31.453125 6.78125 
Q 38.53125 6.78125 43.265625 11.1875 
Q 48.140625 15.828125 48.140625 23.484375 
Q 48.140625 30.71875 43.84375 35.015625 
Q 39.359375 39.5 32.125 39.5 
Q 21.96875 39.5 16.75 31.6875 
L 9.234375 32.671875 
L 13.8125 72.40625 
L 53.21875 72.40625 
L 53.21875 64.890625 
L 20.953125 64.890625 
L 17.71875 40.671875 
z
" id="IPAexGothic-53"/>
       </defs>
       <use xlink:href="#IPAexGothic-53"/>
      </g>
     </g>
    </g>
    <g id="xtick_6">
     <g id="line2d_6">
      <path clip-path="url(#pd0eb32a9fc)" d="M 278.983892 224.64 
L 278.983892 7.2 
" style="fill:none;stroke:#ffffff;stroke-linecap:round;"/>
     </g>
     <g id="text_6">
      <!-- 6 -->
      <g style="fill:#262626;" transform="translate(275.519751 242.379687)scale(0.11 -0.11)">
       <defs>
        <path d="M 16.5 36.375 
Q 23.578125 46.578125 34.90625 46.578125 
Q 45.40625 46.578125 51.8125 39.265625 
Q 57.421875 32.90625 57.421875 23.78125 
Q 57.421875 13.8125 51.125 6.78125 
Q 44.578125 -0.484375 34.03125 -0.484375 
Q 21.484375 -0.484375 14.40625 9.078125 
Q 7.515625 18.40625 7.515625 34.8125 
Q 7.515625 53.515625 15.828125 64.203125 
Q 23.34375 73.828125 35.5 73.828125 
Q 49.859375 73.828125 56.390625 62.890625 
L 49.21875 58.984375 
Q 45.21875 66.65625 35.9375 66.65625 
Q 17.484375 66.65625 16.109375 36.375 
z
M 33.453125 39.796875 
Q 26.3125 39.796875 21.625 34.46875 
Q 17.4375 29.6875 17.4375 24.078125 
Q 17.4375 18.0625 21.140625 13.1875 
Q 26.125 6.6875 33.734375 6.6875 
Q 41.703125 6.6875 45.953125 13.1875 
Q 48.828125 17.625 48.828125 23.484375 
Q 48.828125 30.375 45.015625 34.8125 
Q 40.625 39.796875 33.453125 39.796875 
z
" id="IPAexGothic-54"/>
       </defs>
       <use xlink:href="#IPAexGothic-54"/>
      </g>
     </g>
    </g>
    <g id="xtick_7">
     <g id="line2d_7">
      <path clip-path="url(#pd0eb32a9fc)" d="M 317.029347 224.64 
L 317.029347 7.2 
" style="fill:none;stroke:#ffffff;stroke-linecap:round;"/>
     </g>
     <g id="text_7">
      <!-- 7 -->
      <g style="fill:#262626;" transform="translate(313.565206 242.379687)scale(0.11 -0.11)">
       <defs>
        <path d="M 56.203125 66.609375 
Q 34.96875 32.90625 27.78125 0.984375 
L 17.671875 0.984375 
Q 24.703125 28.65625 46.09375 64.5 
L 6.6875 64.5 
L 6.6875 72.40625 
L 56.203125 72.40625 
z
" id="IPAexGothic-55"/>
       </defs>
       <use xlink:href="#IPAexGothic-55"/>
      </g>
     </g>
    </g>
    <g id="xtick_8">
     <g id="line2d_8">
      <path clip-path="url(#pd0eb32a9fc)" d="M 355.074801 224.64 
L 355.074801 7.2 
" style="fill:none;stroke:#ffffff;stroke-linecap:round;"/>
     </g>
     <g id="text_8">
      <!-- 8 -->
      <g style="fill:#262626;" transform="translate(351.610661 242.379687)scale(0.11 -0.11)">
       <defs>
        <path d="M 39.703125 37.890625 
Q 57.8125 31.734375 57.8125 18.703125 
Q 57.8125 8.453125 48.4375 3.078125 
Q 41.609375 -0.875 31.5 -0.875 
Q 21.34375 -0.875 14.5 3.078125 
Q 5.421875 8.296875 5.421875 18.40625 
Q 5.421875 31.0625 22.015625 37.203125 
L 22.015625 37.5 
Q 7.515625 42.71875 7.515625 54.828125 
Q 7.515625 64.0625 15.328125 69.625 
Q 21.96875 74.3125 31.546875 74.3125 
Q 42.234375 74.3125 48.921875 68.796875 
Q 55.515625 63.578125 55.515625 55.71875 
Q 55.515625 42.28125 39.703125 38.1875 
z
M 31.59375 41.015625 
Q 46.828125 44.625 46.828125 55.125 
Q 46.828125 61.1875 41.796875 64.84375 
Q 37.703125 67.921875 31.5 67.921875 
Q 25.09375 67.921875 20.796875 64.5 
Q 16.40625 60.890625 16.40625 55.03125 
Q 16.40625 49.21875 21.09375 45.703125 
Q 23.34375 43.890625 26.90625 42.53125 
Q 31 40.875 31.59375 41.015625 
z
M 30.90625 34.515625 
Q 14.40625 30.171875 14.40625 19 
Q 14.40625 12.109375 20.515625 8.6875 
Q 25.09375 6.109375 31.390625 6.109375 
Q 40.234375 6.109375 45.015625 10.890625 
Q 48.53125 14.40625 48.53125 19.53125 
Q 48.53125 24.90625 43.65625 28.90625 
Q 40.765625 31.15625 36.71875 32.8125 
Q 31.984375 34.71875 30.90625 34.515625 
z
" id="IPAexGothic-56"/>
       </defs>
       <use xlink:href="#IPAexGothic-56"/>
      </g>
     </g>
    </g>
    <g id="xtick_9">
     <g id="line2d_9">
      <path clip-path="url(#pd0eb32a9fc)" d="M 393.120256 224.64 
L 393.120256 7.2 
" style="fill:none;stroke:#ffffff;stroke-linecap:round;"/>
     </g>
     <g id="text_9">
      <!-- 9 -->
      <g style="fill:#262626;" transform="translate(389.656115 242.379687)scale(0.11 -0.11)">
       <defs>
        <path d="M 46.625 36.8125 
Q 39.75 26.8125 28.328125 26.8125 
Q 19.578125 26.8125 13.234375 32.125 
Q 5.71875 38.421875 5.71875 49.421875 
Q 5.71875 59.578125 12.015625 66.65625 
Q 18.453125 73.828125 29.203125 73.828125 
Q 43.75 73.828125 50.640625 61.71875 
Q 55.609375 52.78125 55.609375 38.625 
Q 55.609375 19.53125 47.515625 9.1875 
Q 39.890625 -0.484375 27.640625 -0.484375 
Q 13.421875 -0.484375 6.109375 10.984375 
L 13.328125 14.890625 
Q 18.0625 6.6875 27.390625 6.6875 
Q 45.65625 6.6875 47.015625 36.8125 
z
M 29.5 66.84375 
Q 22.65625 66.84375 18.3125 61.71875 
Q 14.40625 57.078125 14.40625 50 
Q 14.40625 42.828125 18.109375 38.71875 
Q 22.40625 33.796875 29.78125 33.796875 
Q 37.984375 33.796875 42.625 40.1875 
Q 45.703125 44.484375 45.703125 49.515625 
Q 45.703125 55.515625 42.09375 60.359375 
Q 37.109375 66.84375 29.5 66.84375 
z
" id="IPAexGothic-57"/>
       </defs>
       <use xlink:href="#IPAexGothic-57"/>
      </g>
     </g>
    </g>
    <g id="text_10">
     <!-- クラスタ数 -->
     <g style="fill:#262626;" transform="translate(210.938438 257.458437)scale(0.12 -0.12)">
      <defs>
       <path d="M 77.09375 65.484375 
L 82.375 61.578125 
Q 76.46875 36.46875 62.984375 20.3125 
Q 51.171875 6.109375 31.6875 -3.515625 
L 25.875 2.875 
Q 44.921875 10.796875 56.890625 25.390625 
Q 68.796875 39.890625 73.296875 58.296875 
L 45.359375 58.296875 
Q 34.1875 41.453125 21.1875 30.609375 
L 15.28125 36.078125 
Q 36.375 53.125 45.796875 78.46875 
L 53.46875 76.265625 
Q 52.546875 73 49.078125 65.484375 
z
" id="IPAexGothic-12463"/>
       <path d="M 22.609375 73.578125 
L 76.90625 73.578125 
L 76.90625 66.15625 
L 22.609375 66.15625 
z
M 14.015625 51.609375 
L 80.8125 51.609375 
L 85.59375 47.078125 
Q 79.203125 26.078125 65.921875 13.671875 
Q 54.296875 2.828125 36.03125 -2.828125 
L 30.8125 4.59375 
Q 64.84375 12.25 75.53125 44.1875 
L 14.015625 44.1875 
z
" id="IPAexGothic-12521"/>
       <path d="M 68.109375 70.015625 
L 73.6875 64.796875 
Q 67.625 48 56.984375 33.59375 
Q 72.796875 22.40625 88.421875 7.078125 
L 81.78125 0.296875 
Q 66.5 17 52.390625 27.78125 
Q 37.0625 9.328125 16.3125 -0.484375 
L 10.203125 6.296875 
Q 48.875 22.703125 64.015625 62.5 
L 19.390625 61.921875 
L 19.1875 69.578125 
z
" id="IPAexGothic-12473"/>
       <path d="M 77.78125 66.609375 
L 83.015625 62.3125 
Q 74.953125 37.984375 63.375 22.796875 
Q 49.859375 5.078125 28.46875 -4.6875 
L 22.90625 1.703125 
Q 33.296875 5.953125 40.828125 11.53125 
Q 47.703125 16.65625 55.171875 25 
Q 45.609375 34.765625 33.5 43.609375 
Q 25.046875 34.421875 18.3125 29.296875 
L 12.890625 34.90625 
Q 36.1875 52 44.78125 78.609375 
L 52.484375 76.515625 
Q 51.953125 74.609375 48.578125 66.609375 
z
M 45.21875 59.625 
Q 42.328125 55.03125 38.09375 49.515625 
Q 49.90625 40.875 60.015625 31.296875 
Q 68.21875 43.84375 74.171875 59.625 
z
" id="IPAexGothic-12479"/>
       <path d="M 44.484375 24.265625 
Q 42.828125 15.71875 37.890625 8.34375 
Q 41.015625 6.890625 48.296875 3.171875 
L 43.890625 -2.9375 
Q 39.703125 0 33.5 3.265625 
Q 24.515625 -4.546875 10.984375 -7.8125 
L 6.59375 -1.953125 
Q 19.734375 0.296875 27.296875 6.34375 
Q 19.09375 10.15625 11.46875 12.75 
Q 15.234375 18.3125 17.921875 23.484375 
L 18.3125 24.265625 
L 5.609375 24.265625 
L 5.609375 30.078125 
L 21 30.078125 
Q 21.96875 32.28125 24.515625 38.671875 
L 26.421875 38.28125 
L 26.421875 52.6875 
Q 19.53125 42.78125 8.59375 35.984375 
L 4.296875 41.609375 
Q 15.921875 47.078125 23.875 56.890625 
L 5.90625 56.890625 
L 5.90625 62.59375 
L 26.421875 62.59375 
L 26.421875 83.015625 
L 33.015625 83.015625 
L 33.015625 62.59375 
L 51.515625 62.59375 
L 51.515625 56.890625 
L 33.015625 56.890625 
L 33.015625 54.890625 
Q 41.546875 51.421875 49.609375 46.296875 
L 46.1875 40.375 
Q 39.890625 45.65625 33.015625 49.359375 
L 33.015625 37.0625 
L 30.71875 37.0625 
Q 30.125 35.75 29.25 33.453125 
Q 28.21875 30.859375 27.875 30.078125 
L 52.78125 30.078125 
L 52.78125 24.265625 
z
M 37.796875 24.265625 
L 25.203125 24.265625 
Q 23.09375 19.828125 20.515625 15.578125 
Q 24.359375 14.203125 31.984375 10.984375 
Q 36.140625 16.359375 37.796875 24.265625 
z
M 68.171875 18.171875 
Q 61.765625 27.828125 58.40625 41.21875 
Q 55.859375 35.640625 53.5625 31.5 
L 48.484375 37.59375 
Q 57.421875 53.8125 61.1875 82.671875 
L 68.171875 81.25 
Q 66.9375 72.90625 65.578125 65.578125 
L 93.890625 65.578125 
L 93.890625 58.984375 
L 85.984375 58.984375 
Q 84.328125 35.546875 76.078125 18.609375 
Q 84.671875 7.859375 96 1.171875 
L 90.96875 -5.90625 
Q 81.0625 1.65625 72.359375 12.3125 
Q 64.265625 0.53125 52.203125 -7.234375 
L 47.359375 -1.21875 
Q 60.75 6.34375 68.171875 18.171875 
z
M 71.6875 24.90625 
Q 77.15625 37.3125 79.046875 58.984375 
L 64.0625 58.984375 
Q 63.140625 54.984375 62.0625 51.375 
Q 62.203125 50.78125 62.359375 49.90625 
Q 65.234375 35.25 71.6875 24.90625 
z
M 15.671875 64.3125 
Q 13.71875 71 9.96875 77.09375 
L 16.453125 79.59375 
Q 19.484375 74.8125 22.46875 66.703125 
z
M 36.1875 66.703125 
Q 39.84375 73.25 42 80.171875 
L 48.875 78.078125 
Q 46.34375 71.6875 41.796875 64.5 
z
" id="IPAexGothic-25968"/>
      </defs>
      <use xlink:href="#IPAexGothic-12463"/>
      <use x="100" xlink:href="#IPAexGothic-12521"/>
      <use x="200" xlink:href="#IPAexGothic-12473"/>
      <use x="300" xlink:href="#IPAexGothic-12479"/>
      <use x="400" xlink:href="#IPAexGothic-25968"/>
     </g>
    </g>
   </g>
   <g id="matplotlib.axis_2">
    <g id="ytick_1">
     <g id="line2d_10">
      <path clip-path="url(#pd0eb32a9fc)" d="M 73.538438 196.317098 
L 408.338437 196.317098 
" style="fill:none;stroke:#ffffff;stroke-linecap:round;"/>
     </g>
     <g id="text_11">
      <!-- 100000 -->
      <g style="fill:#262626;" transform="translate(22.46875 200.436941)scale(0.11 -0.11)">
       <defs>
        <path d="M 31.84375 73.828125 
Q 45.015625 73.828125 52.09375 61.625 
Q 57.71875 51.953125 57.71875 36.625 
Q 57.71875 21.4375 52.09375 11.578125 
Q 45.125 -0.484375 31.5 -0.484375 
Q 17.921875 -0.484375 10.9375 11.578125 
Q 5.328125 21.4375 5.328125 36.71875 
Q 5.328125 58.015625 15.625 67.71875 
Q 22.171875 73.828125 31.84375 73.828125 
z
M 31.5 66.65625 
Q 23.6875 66.65625 19.1875 58.734375 
Q 14.59375 50.734375 14.59375 36.625 
Q 14.59375 22.75 19.09375 14.796875 
Q 23.640625 6.984375 31.5 6.984375 
Q 40.921875 6.984375 45.453125 18.015625 
Q 48.4375 25.34375 48.4375 37.109375 
Q 48.4375 50.875 43.84375 58.734375 
Q 39.203125 66.65625 31.5 66.65625 
z
" id="IPAexGothic-48"/>
       </defs>
       <use xlink:href="#IPAexGothic-49"/>
       <use x="62.988281" xlink:href="#IPAexGothic-48"/>
       <use x="125.976562" xlink:href="#IPAexGothic-48"/>
       <use x="188.964844" xlink:href="#IPAexGothic-48"/>
       <use x="251.953125" xlink:href="#IPAexGothic-48"/>
       <use x="314.941406" xlink:href="#IPAexGothic-48"/>
      </g>
     </g>
    </g>
    <g id="ytick_2">
     <g id="line2d_11">
      <path clip-path="url(#pd0eb32a9fc)" d="M 73.538438 166.113572 
L 408.338437 166.113572 
" style="fill:none;stroke:#ffffff;stroke-linecap:round;"/>
     </g>
     <g id="text_12">
      <!-- 200000 -->
      <g style="fill:#262626;" transform="translate(22.46875 170.233415)scale(0.11 -0.11)">
       <use xlink:href="#IPAexGothic-50"/>
       <use x="62.988281" xlink:href="#IPAexGothic-48"/>
       <use x="125.976562" xlink:href="#IPAexGothic-48"/>
       <use x="188.964844" xlink:href="#IPAexGothic-48"/>
       <use x="251.953125" xlink:href="#IPAexGothic-48"/>
       <use x="314.941406" xlink:href="#IPAexGothic-48"/>
      </g>
     </g>
    </g>
    <g id="ytick_3">
     <g id="line2d_12">
      <path clip-path="url(#pd0eb32a9fc)" d="M 73.538438 135.910046 
L 408.338437 135.910046 
" style="fill:none;stroke:#ffffff;stroke-linecap:round;"/>
     </g>
     <g id="text_13">
      <!-- 300000 -->
      <g style="fill:#262626;" transform="translate(22.46875 140.029889)scale(0.11 -0.11)">
       <use xlink:href="#IPAexGothic-51"/>
       <use x="62.988281" xlink:href="#IPAexGothic-48"/>
       <use x="125.976562" xlink:href="#IPAexGothic-48"/>
       <use x="188.964844" xlink:href="#IPAexGothic-48"/>
       <use x="251.953125" xlink:href="#IPAexGothic-48"/>
       <use x="314.941406" xlink:href="#IPAexGothic-48"/>
      </g>
     </g>
    </g>
    <g id="ytick_4">
     <g id="line2d_13">
      <path clip-path="url(#pd0eb32a9fc)" d="M 73.538438 105.706519 
L 408.338437 105.706519 
" style="fill:none;stroke:#ffffff;stroke-linecap:round;"/>
     </g>
     <g id="text_14">
      <!-- 400000 -->
      <g style="fill:#262626;" transform="translate(22.46875 109.826363)scale(0.11 -0.11)">
       <use xlink:href="#IPAexGothic-52"/>
       <use x="62.988281" xlink:href="#IPAexGothic-48"/>
       <use x="125.976562" xlink:href="#IPAexGothic-48"/>
       <use x="188.964844" xlink:href="#IPAexGothic-48"/>
       <use x="251.953125" xlink:href="#IPAexGothic-48"/>
       <use x="314.941406" xlink:href="#IPAexGothic-48"/>
      </g>
     </g>
    </g>
    <g id="ytick_5">
     <g id="line2d_14">
      <path clip-path="url(#pd0eb32a9fc)" d="M 73.538438 75.502993 
L 408.338437 75.502993 
" style="fill:none;stroke:#ffffff;stroke-linecap:round;"/>
     </g>
     <g id="text_15">
      <!-- 500000 -->
      <g style="fill:#262626;" transform="translate(22.46875 79.622837)scale(0.11 -0.11)">
       <use xlink:href="#IPAexGothic-53"/>
       <use x="62.988281" xlink:href="#IPAexGothic-48"/>
       <use x="125.976562" xlink:href="#IPAexGothic-48"/>
       <use x="188.964844" xlink:href="#IPAexGothic-48"/>
       <use x="251.953125" xlink:href="#IPAexGothic-48"/>
       <use x="314.941406" xlink:href="#IPAexGothic-48"/>
      </g>
     </g>
    </g>
    <g id="ytick_6">
     <g id="line2d_15">
      <path clip-path="url(#pd0eb32a9fc)" d="M 73.538438 45.299467 
L 408.338437 45.299467 
" style="fill:none;stroke:#ffffff;stroke-linecap:round;"/>
     </g>
     <g id="text_16">
      <!-- 600000 -->
      <g style="fill:#262626;" transform="translate(22.46875 49.419311)scale(0.11 -0.11)">
       <use xlink:href="#IPAexGothic-54"/>
       <use x="62.988281" xlink:href="#IPAexGothic-48"/>
       <use x="125.976562" xlink:href="#IPAexGothic-48"/>
       <use x="188.964844" xlink:href="#IPAexGothic-48"/>
       <use x="251.953125" xlink:href="#IPAexGothic-48"/>
       <use x="314.941406" xlink:href="#IPAexGothic-48"/>
      </g>
     </g>
    </g>
    <g id="ytick_7">
     <g id="line2d_16">
      <path clip-path="url(#pd0eb32a9fc)" d="M 73.538438 15.095941 
L 408.338437 15.095941 
" style="fill:none;stroke:#ffffff;stroke-linecap:round;"/>
     </g>
     <g id="text_17">
      <!-- 700000 -->
      <g style="fill:#262626;" transform="translate(22.46875 19.215785)scale(0.11 -0.11)">
       <use xlink:href="#IPAexGothic-55"/>
       <use x="62.988281" xlink:href="#IPAexGothic-48"/>
       <use x="125.976562" xlink:href="#IPAexGothic-48"/>
       <use x="188.964844" xlink:href="#IPAexGothic-48"/>
       <use x="251.953125" xlink:href="#IPAexGothic-48"/>
       <use x="314.941406" xlink:href="#IPAexGothic-48"/>
      </g>
     </g>
    </g>
    <g id="text_18">
     <!-- 距離の総和 -->
     <g style="fill:#262626;" transform="translate(16.18875 145.92)rotate(-90)scale(0.12 -0.12)">
      <defs>
       <path d="M 42.828125 77.875 
L 42.828125 47.609375 
L 31.203125 47.609375 
L 31.203125 33.203125 
L 45.609375 33.203125 
L 45.609375 27.203125 
L 31.203125 27.203125 
L 31.203125 6.890625 
Q 38.578125 8.84375 47.125 11.375 
L 47.515625 5.421875 
Q 30.71875 -0.4375 8.203125 -5.8125 
L 5.515625 1.125 
Q 8.109375 1.515625 9.90625 2 
Q 10.296875 2 10.59375 2.09375 
L 10.59375 39.40625 
L 17.09375 39.40625 
L 17.09375 3.515625 
Q 20.5625 4.25 23.390625 4.984375 
L 24.703125 5.328125 
L 24.703125 47.609375 
L 9.625 47.609375 
L 9.625 77.875 
z
M 16.3125 71.875 
L 16.3125 53.609375 
L 36.140625 53.609375 
L 36.140625 71.875 
z
M 58.203125 70.40625 
L 58.203125 53.515625 
L 90.234375 53.515625 
L 90.234375 17.71875 
L 83.546875 17.71875 
L 83.546875 24.609375 
L 58.203125 24.609375 
L 58.203125 5.90625 
L 95.515625 5.90625 
L 95.515625 -0.390625 
L 58.203125 -0.390625 
L 58.203125 -6.984375 
L 51.421875 -6.984375 
L 51.421875 76.8125 
L 93.109375 76.8125 
L 93.109375 70.40625 
z
M 83.546875 47.40625 
L 58.203125 47.40625 
L 58.203125 30.8125 
L 83.546875 30.8125 
z
" id="IPAexGothic-36317"/>
       <path d="M 34.671875 13.765625 
Q 33.34375 17.234375 30.8125 21.578125 
L 35.796875 23.390625 
Q 40.28125 16.265625 43.0625 7.625 
L 37.703125 4.6875 
Q 37.203125 6.5 36.28125 9.578125 
Q 27.34375 7.515625 15.671875 6 
L 13.96875 12.015625 
Q 17.625 12.15625 18.890625 12.3125 
Q 20.265625 16.75 22.265625 25.875 
L 13.09375 25.875 
L 13.09375 -6.984375 
L 6.6875 -6.984375 
L 6.6875 31.390625 
L 23.390625 31.390625 
Q 23.6875 33.0625 24.359375 37.796875 
L 9.1875 37.796875 
L 9.1875 64.203125 
L 15.375 64.203125 
L 15.375 43.3125 
L 41.5 43.3125 
L 41.5 64.203125 
L 47.703125 64.203125 
L 47.703125 37.796875 
L 30.8125 37.796875 
Q 30.078125 32.90625 29.78125 31.390625 
L 50.390625 31.390625 
L 50.390625 0.875 
Q 50.390625 -3.421875 48.484375 -4.6875 
Q 46.921875 -6 42.578125 -6 
Q 37.203125 -6 33.890625 -5.609375 
L 33.109375 0.875 
Q 37.75 0 41.109375 0 
Q 44 0 44 3.078125 
L 44 25.875 
L 28.375 25.875 
Q 28.265625 25.25 27.9375 23.828125 
Q 27.734375 22.953125 27.6875 22.5625 
Q 26.265625 16.890625 24.90625 12.796875 
L 28.265625 13.09375 
Q 32.5625 13.421875 34.671875 13.765625 
z
M 80.078125 37.796875 
L 80.078125 24.3125 
L 92.484375 24.3125 
L 92.484375 18.5 
L 80.078125 18.5 
L 80.078125 4.296875 
L 95.359375 4.296875 
L 95.359375 -1.90625 
L 63.1875 -1.90625 
L 63.1875 -6.984375 
L 56.890625 -6.984375 
L 56.890625 47.90625 
Q 54.15625 41.453125 51.65625 37.5 
L 47.75 42.578125 
Q 57.078125 58.734375 61.078125 82.171875 
L 67.484375 80.8125 
Q 65.328125 71.140625 63.09375 64.203125 
L 62.796875 63.1875 
L 74.171875 63.1875 
Q 77.296875 71.4375 79.15625 81.59375 
L 85.796875 79.890625 
Q 82.765625 69.1875 80.28125 63.1875 
L 94.390625 63.1875 
L 94.390625 57.171875 
L 80.078125 57.171875 
L 80.078125 43.609375 
L 92.484375 43.609375 
L 92.484375 37.796875 
z
M 73.875 57.171875 
L 63.1875 57.171875 
L 63.1875 43.609375 
L 73.875 43.609375 
z
M 73.875 37.796875 
L 63.1875 37.796875 
L 63.1875 24.3125 
L 73.875 24.3125 
z
M 73.875 18.5 
L 63.1875 18.5 
L 63.1875 4.296875 
L 73.875 4.296875 
z
M 31.59375 73.390625 
L 52.78125 73.390625 
L 52.78125 67.578125 
L 4.390625 67.578125 
L 4.390625 73.390625 
L 24.90625 73.390625 
L 24.90625 83.015625 
L 31.59375 83.015625 
z
M 25.390625 54.390625 
Q 22.171875 56.640625 16.5 59.90625 
L 20.171875 63.8125 
Q 24.078125 61.625 29.109375 58.296875 
Q 31.640625 61.1875 34.078125 65.1875 
L 39.203125 62.5 
Q 36.1875 58.25 33.40625 55.171875 
Q 39.0625 50.59375 40.484375 49.421875 
L 36.765625 45.015625 
Q 32.71875 48.734375 29.59375 51.3125 
Q 25.53125 47.359375 20.265625 44.28125 
L 16.609375 48.390625 
Q 21.484375 50.921875 25.390625 54.390625 
z
" id="IPAexGothic-38626"/>
       <path d="M 48.734375 7.328125 
Q 82.421875 11.96875 82.421875 37.890625 
Q 82.421875 53.953125 68.953125 61.328125 
Q 63.140625 64.3125 55.421875 64.984375 
Q 53.03125 39.453125 44.53125 21.875 
Q 36.28125 4.78125 26.90625 4.78125 
Q 21.625 4.78125 16.9375 10.40625 
Q 9.515625 19.4375 9.515625 31.296875 
Q 9.515625 47.265625 21.828125 59.28125 
Q 34.125 71.296875 53.609375 71.296875 
Q 67.28125 71.296875 77 64.40625 
Q 90.828125 54.78125 90.828125 37.890625 
Q 90.828125 6.84375 53.609375 0.09375 
z
M 47.703125 64.796875 
Q 37.15625 63.1875 29.546875 56.890625 
Q 17.140625 46.578125 17.140625 31.109375 
Q 17.140625 21.34375 22.40625 15.28125 
Q 24.703125 12.703125 26.859375 12.703125 
Q 31.59375 12.703125 37.75 25.390625 
Q 45.453125 41.21875 47.703125 64.796875 
z
" id="IPAexGothic-12398"/>
       <path d="M 19.484375 48.1875 
Q 12.796875 57.671875 6 64.5 
L 10.40625 69.09375 
Q 12.203125 67.28125 14.3125 64.890625 
Q 20.015625 73.1875 24.078125 83.296875 
L 30.5625 79.984375 
Q 24.078125 68.0625 18.109375 60.296875 
Q 20.609375 56.984375 23 53.515625 
Q 29.78125 63.96875 33.40625 71.09375 
L 39.40625 67.390625 
Q 29.25 50.4375 20.515625 40.1875 
L 25.484375 40.484375 
Q 31.453125 40.828125 34.375 41.109375 
Q 32.421875 45.609375 30.46875 49.21875 
L 35.890625 51.515625 
Q 40.71875 43.171875 44.09375 32.90625 
L 38.1875 29.984375 
Q 36.671875 34.859375 36.1875 36.1875 
Q 34.8125 35.84375 27.78125 34.90625 
L 27.78125 -6.984375 
L 21.296875 -6.984375 
L 21.296875 34.078125 
L 20.3125 33.984375 
Q 15.765625 33.5 6.78125 32.90625 
L 4.5 39.59375 
Q 10.9375 39.75 13.484375 39.890625 
Q 14.890625 41.84375 17.28125 45.171875 
Q 18.890625 47.359375 19.484375 48.1875 
z
M 53.265625 41.703125 
Q 59.671875 53.421875 63.484375 65.484375 
L 69.875 63.625 
Q 65.375 50.828125 60.40625 41.890625 
Q 77.390625 42.71875 79.890625 43.015625 
Q 77 47.40625 73 52.6875 
L 77.984375 55.8125 
Q 85.796875 47.359375 92.1875 36.375 
L 86.078125 32.171875 
Q 82.953125 38.03125 82.90625 38.09375 
Q 67.71875 35.984375 46.296875 34.8125 
L 44.1875 41.609375 
Q 49.078125 41.609375 51.515625 41.703125 
z
M 5.609375 3.078125 
Q 9.1875 13.484375 10.203125 27.484375 
L 16.609375 26.703125 
Q 15.53125 10.6875 12.015625 -0.203125 
z
M 35.203125 6.78125 
Q 33.25 18.953125 30.375 27.484375 
L 35.984375 29.203125 
Q 39.0625 22.46875 41.796875 9.625 
z
M 42.78125 55.671875 
Q 51.90625 65.96875 56.890625 80.671875 
L 62.890625 78.5625 
Q 57.765625 62.453125 47.515625 50.6875 
z
M 89.203125 53.8125 
Q 77.34375 64.75 70.3125 78.71875 
L 75.78125 81.5 
Q 83.25 68.796875 94.484375 59.421875 
z
M 42.28125 1.421875 
Q 46.296875 11.328125 47.3125 23.484375 
L 53.609375 22.21875 
Q 52.09375 6.734375 48.1875 -2.390625 
z
M 57.421875 25.296875 
L 63.921875 25.296875 
L 63.921875 3.90625 
Q 63.921875 1.3125 65.53125 0.875 
Q 66.453125 0.484375 69.234375 0.484375 
Q 75.390625 0.484375 76.125 2.984375 
Q 76.65625 5.03125 76.8125 12.703125 
L 83.296875 10.59375 
Q 83.15625 -2.25 80.125 -4.296875 
Q 77.59375 -6.109375 69.140625 -6.109375 
Q 62.15625 -6.109375 60.109375 -4.78125 
Q 57.421875 -3.171875 57.421875 0.984375 
z
M 89.890625 0.59375 
Q 85.359375 13.96875 80.46875 21.921875 
L 86.078125 24.609375 
Q 92.671875 14.359375 95.90625 4.109375 
z
M 72.609375 18.40625 
Q 67.328125 25.875 61.28125 30.8125 
L 66.109375 34.71875 
Q 73 29.640625 77.78125 23.09375 
z
" id="IPAexGothic-32207"/>
       <path d="M 26.515625 35.75 
Q 20.65625 20.703125 10.5 8.640625 
L 5.90625 15.140625 
Q 18.609375 28.71875 25.203125 47.125 
L 6.6875 47.125 
L 6.6875 53.515625 
L 26.515625 53.515625 
L 26.515625 67.828125 
L 25.828125 67.71875 
Q 19.484375 66.546875 12.109375 65.625 
L 8.796875 71.4375 
Q 28.078125 73.921875 43.3125 79.109375 
L 48.1875 73.1875 
Q 41.15625 70.84375 33.59375 69.1875 
L 33.59375 53.515625 
L 50.984375 53.515625 
L 50.984375 47.125 
L 33.59375 47.125 
L 33.59375 39.3125 
Q 42.828125 33.40625 50.6875 26.3125 
L 46.578125 19.140625 
Q 40.484375 26.3125 33.59375 32.03125 
L 33.59375 -6.984375 
L 26.515625 -6.984375 
z
M 90.328125 70.40625 
L 90.328125 -3.515625 
L 83.25 -3.515625 
L 83.25 2.59375 
L 62.109375 2.59375 
L 62.109375 -4.59375 
L 55.03125 -4.59375 
L 55.03125 70.40625 
z
M 62.109375 63.921875 
L 62.109375 9.1875 
L 83.25 9.1875 
L 83.25 63.921875 
z
" id="IPAexGothic-21644"/>
      </defs>
      <use xlink:href="#IPAexGothic-36317"/>
      <use x="100" xlink:href="#IPAexGothic-38626"/>
      <use x="200" xlink:href="#IPAexGothic-12398"/>
      <use x="300" xlink:href="#IPAexGothic-32207"/>
      <use x="400" xlink:href="#IPAexGothic-21644"/>
     </g>
    </g>
   </g>
   <g id="line2d_17">
    <path clip-path="url(#pd0eb32a9fc)" d="M 88.756619 17.083636 
L 126.802074 155.483867 
L 164.847528 187.857254 
L 202.892983 198.84487 
L 240.938438 204.149283 
L 278.983892 209.293436 
L 317.029347 211.473799 
L 355.074801 213.346416 
L 393.120256 214.756364 
" style="fill:none;stroke:#4c72b0;stroke-linecap:round;stroke-width:1.5;"/>
    <defs>
     <path d="M -3 0 
L 3 0 
M 0 3 
L 0 -3 
" id="m3c0efc685a" style="stroke:#4c72b0;"/>
    </defs>
    <g clip-path="url(#pd0eb32a9fc)">
     <use style="fill:#4c72b0;stroke:#4c72b0;" x="88.756619" xlink:href="#m3c0efc685a" y="17.083636"/>
     <use style="fill:#4c72b0;stroke:#4c72b0;" x="126.802074" xlink:href="#m3c0efc685a" y="155.483867"/>
     <use style="fill:#4c72b0;stroke:#4c72b0;" x="164.847528" xlink:href="#m3c0efc685a" y="187.857254"/>
     <use style="fill:#4c72b0;stroke:#4c72b0;" x="202.892983" xlink:href="#m3c0efc685a" y="198.84487"/>
     <use style="fill:#4c72b0;stroke:#4c72b0;" x="240.938438" xlink:href="#m3c0efc685a" y="204.149283"/>
     <use style="fill:#4c72b0;stroke:#4c72b0;" x="278.983892" xlink:href="#m3c0efc685a" y="209.293436"/>
     <use style="fill:#4c72b0;stroke:#4c72b0;" x="317.029347" xlink:href="#m3c0efc685a" y="211.473799"/>
     <use style="fill:#4c72b0;stroke:#4c72b0;" x="355.074801" xlink:href="#m3c0efc685a" y="213.346416"/>
     <use style="fill:#4c72b0;stroke:#4c72b0;" x="393.120256" xlink:href="#m3c0efc685a" y="214.756364"/>
    </g>
   </g>
   <g id="patch_3">
    <path d="M 73.538438 224.64 
L 73.538438 7.2 
" style="fill:none;stroke:#ffffff;stroke-linecap:square;stroke-linejoin:miter;stroke-width:1.25;"/>
   </g>
   <g id="patch_4">
    <path d="M 408.338437 224.64 
L 408.338437 7.2 
" style="fill:none;stroke:#ffffff;stroke-linecap:square;stroke-linejoin:miter;stroke-width:1.25;"/>
   </g>
   <g id="patch_5">
    <path d="M 73.538438 224.64 
L 408.338437 224.64 
" style="fill:none;stroke:#ffffff;stroke-linecap:square;stroke-linejoin:miter;stroke-width:1.25;"/>
   </g>
   <g id="patch_6">
    <path d="M 73.538438 7.2 
L 408.338437 7.2 
" style="fill:none;stroke:#ffffff;stroke-linecap:square;stroke-linejoin:miter;stroke-width:1.25;"/>
   </g>
  </g>
 </g>
 <defs>
  <clipPath id="pd0eb32a9fc">
   <rect height="217.44" width="334.8" x="73.538438" y="7.2"/>
  </clipPath>
 </defs>
</svg>
