<?xml version="1.0" encoding="utf-8" standalone="no"?>
<!DOCTYPE svg PUBLIC "-//W3C//DTD SVG 1.1//EN"
  "http://www.w3.org/Graphics/SVG/1.1/DTD/svg11.dtd">
<svg height="266.938437pt" version="1.1" viewBox="0 0 415.538437 266.938437" width="415.538437pt" xmlns="http://www.w3.org/2000/svg" xmlns:xlink="http://www.w3.org/1999/xlink">
 <metadata>
  <rdf:RDF xmlns:cc="http://creativecommons.org/ns#" xmlns:dc="http://purl.org/dc/elements/1.1/" xmlns:rdf="http://www.w3.org/1999/02/22-rdf-syntax-ns#">
   <cc:Work>
    <dc:type rdf:resource="http://purl.org/dc/dcmitype/StillImage"/>
    <dc:date>2021-05-24T14:44:41.036185</dc:date>
    <dc:format>image/svg+xml</dc:format>
    <dc:creator>
     <cc:Agent>
      <dc:title>Matplotlib v3.4.2, https://matplotlib.org/</dc:title>
     </cc:Agent>
    </dc:creator>
   </cc:Work>
  </rdf:RDF>
 </metadata>
 <defs>
  <style type="text/css">*{stroke-linecap:butt;stroke-linejoin:round;}</style>
 </defs>
 <g id="figure_1">
  <g id="patch_1">
   <path d="M 0 266.938437 
L 415.538437 266.938437 
L 415.538437 0 
L 0 0 
z
" style="fill:#ffffff;"/>
  </g>
  <g id="axes_1">
   <g id="patch_2">
    <path d="M 73.538438 224.64 
L 408.338437 224.64 
L 408.338437 7.2 
L 73.538438 7.2 
z
" style="fill:#eaeaf2;"/>
   </g>
   <g id="matplotlib.axis_1">
    <g id="xtick_1">
     <g id="line2d_1">
      <path clip-path="url(#pabf97bd634)" d="M 122.574801 224.64 
L 122.574801 7.2 
" style="fill:none;stroke:#ffffff;stroke-linecap:round;"/>
     </g>
     <g id="text_1">
      <!-- 2 -->
      <g style="fill:#262626;" transform="translate(119.110661 242.379687)scale(0.11 -0.11)">
       <defs>
        <path d="M 3659 63 
L 447 63 
L 447 594 
Q 825 1475 1894 2203 
L 2072 2322 
Q 2619 2697 2791 2906 
Q 2988 3153 2988 3444 
Q 2988 3772 2756 4003 
Q 2500 4259 2084 4259 
Q 1250 4259 991 3328 
L 497 3506 
Q 853 4725 2116 4725 
Q 2806 4725 3216 4316 
Q 3575 3947 3575 3425 
Q 3575 3038 3344 2722 
Q 3131 2416 2366 1938 
L 2231 1856 
Q 1256 1253 978 569 
L 3659 569 
L 3659 63 
z
" id="IPAexGothic-32" transform="scale(0.015625)"/>
       </defs>
       <use xlink:href="#IPAexGothic-32"/>
      </g>
     </g>
    </g>
    <g id="xtick_2">
     <g id="line2d_2">
      <path clip-path="url(#pabf97bd634)" d="M 190.211165 224.64 
L 190.211165 7.2 
" style="fill:none;stroke:#ffffff;stroke-linecap:round;"/>
     </g>
     <g id="text_2">
      <!-- 4 -->
      <g style="fill:#262626;" transform="translate(186.747024 242.379687)scale(0.11 -0.11)">
       <defs>
        <path d="M 3813 1159 
L 3059 1159 
L 3059 63 
L 2547 63 
L 2547 1159 
L 197 1159 
L 197 1672 
L 2456 4678 
L 3059 4678 
L 3059 1634 
L 3813 1634 
L 3813 1159 
z
M 2578 4109 
L 2559 4109 
Q 2278 3656 2003 3284 
L 759 1634 
L 2547 1634 
L 2547 3144 
Q 2547 3481 2578 4109 
z
" id="IPAexGothic-34" transform="scale(0.015625)"/>
       </defs>
       <use xlink:href="#IPAexGothic-34"/>
      </g>
     </g>
    </g>
    <g id="xtick_3">
     <g id="line2d_3">
      <path clip-path="url(#pabf97bd634)" d="M 257.847528 224.64 
L 257.847528 7.2 
" style="fill:none;stroke:#ffffff;stroke-linecap:round;"/>
     </g>
     <g id="text_3">
      <!-- 6 -->
      <g style="fill:#262626;" transform="translate(254.383388 242.379687)scale(0.11 -0.11)">
       <defs>
        <path d="M 1056 2328 
Q 1509 2981 2234 2981 
Q 2906 2981 3316 2513 
Q 3675 2106 3675 1522 
Q 3675 884 3272 434 
Q 2853 -31 2178 -31 
Q 1375 -31 922 581 
Q 481 1178 481 2228 
Q 481 3425 1013 4109 
Q 1494 4725 2272 4725 
Q 3191 4725 3609 4025 
L 3150 3775 
Q 2894 4266 2300 4266 
Q 1119 4266 1031 2328 
L 1056 2328 
z
M 2141 2547 
Q 1684 2547 1384 2206 
Q 1116 1900 1116 1541 
Q 1116 1156 1353 844 
Q 1672 428 2159 428 
Q 2669 428 2941 844 
Q 3125 1128 3125 1503 
Q 3125 1944 2881 2228 
Q 2600 2547 2141 2547 
z
" id="IPAexGothic-36" transform="scale(0.015625)"/>
       </defs>
       <use xlink:href="#IPAexGothic-36"/>
      </g>
     </g>
    </g>
    <g id="xtick_4">
     <g id="line2d_4">
      <path clip-path="url(#pabf97bd634)" d="M 325.483892 224.64 
L 325.483892 7.2 
" style="fill:none;stroke:#ffffff;stroke-linecap:round;"/>
     </g>
     <g id="text_4">
      <!-- 8 -->
      <g style="fill:#262626;" transform="translate(322.019751 242.379687)scale(0.11 -0.11)">
       <defs>
        <path d="M 2541 2425 
Q 3700 2031 3700 1197 
Q 3700 541 3100 197 
Q 2663 -56 2016 -56 
Q 1366 -56 928 197 
Q 347 531 347 1178 
Q 347 1988 1409 2381 
L 1409 2400 
Q 481 2734 481 3509 
Q 481 4100 981 4456 
Q 1406 4756 2019 4756 
Q 2703 4756 3131 4403 
Q 3553 4069 3553 3566 
Q 3553 2706 2541 2444 
L 2541 2425 
z
M 2022 2625 
Q 2997 2856 2997 3528 
Q 2997 3916 2675 4150 
Q 2413 4347 2016 4347 
Q 1606 4347 1331 4128 
Q 1050 3897 1050 3522 
Q 1050 3150 1350 2925 
Q 1494 2809 1722 2722 
Q 1984 2616 2022 2625 
z
M 1978 2209 
Q 922 1931 922 1216 
Q 922 775 1313 556 
Q 1606 391 2009 391 
Q 2575 391 2881 697 
Q 3106 922 3106 1250 
Q 3106 1594 2794 1850 
Q 2609 1994 2350 2100 
Q 2047 2222 1978 2209 
z
" id="IPAexGothic-38" transform="scale(0.015625)"/>
       </defs>
       <use xlink:href="#IPAexGothic-38"/>
      </g>
     </g>
    </g>
    <g id="xtick_5">
     <g id="line2d_5">
      <path clip-path="url(#pabf97bd634)" d="M 393.120256 224.64 
L 393.120256 7.2 
" style="fill:none;stroke:#ffffff;stroke-linecap:round;"/>
     </g>
     <g id="text_5">
      <!-- 10 -->
      <g style="fill:#262626;" transform="translate(386.191974 242.379687)scale(0.11 -0.11)">
       <defs>
        <path d="M 2463 63 
L 1900 63 
L 1900 4103 
Q 1372 3922 788 3797 
L 684 4231 
Q 1519 4441 2106 4731 
L 2463 4731 
L 2463 63 
z
" id="IPAexGothic-31" transform="scale(0.015625)"/>
        <path d="M 2038 4725 
Q 2881 4725 3334 3944 
Q 3694 3325 3694 2344 
Q 3694 1372 3334 741 
Q 2888 -31 2016 -31 
Q 1147 -31 700 741 
Q 341 1372 341 2350 
Q 341 3713 1000 4334 
Q 1419 4725 2038 4725 
z
M 2016 4266 
Q 1516 4266 1228 3759 
Q 934 3247 934 2344 
Q 934 1456 1222 947 
Q 1513 447 2016 447 
Q 2619 447 2909 1153 
Q 3100 1622 3100 2375 
Q 3100 3256 2806 3759 
Q 2509 4266 2016 4266 
z
" id="IPAexGothic-30" transform="scale(0.015625)"/>
       </defs>
       <use xlink:href="#IPAexGothic-31"/>
       <use x="62.988281" xlink:href="#IPAexGothic-30"/>
      </g>
     </g>
    </g>
    <g id="text_6">
     <!-- クラスタ数 -->
     <g style="fill:#262626;" transform="translate(210.938438 257.458437)scale(0.12 -0.12)">
      <defs>
       <path d="M 4934 4191 
L 5272 3941 
Q 4894 2334 4031 1300 
Q 3275 391 2028 -225 
L 1656 184 
Q 2875 691 3641 1625 
Q 4403 2553 4691 3731 
L 2903 3731 
Q 2188 2653 1356 1959 
L 978 2309 
Q 2328 3400 2931 5022 
L 3422 4881 
Q 3363 4672 3141 4191 
L 4934 4191 
z
" id="IPAexGothic-30af" transform="scale(0.015625)"/>
       <path d="M 1447 4709 
L 4922 4709 
L 4922 4234 
L 1447 4234 
L 1447 4709 
z
M 897 3303 
L 5172 3303 
L 5478 3013 
Q 5069 1669 4219 875 
Q 3475 181 2306 -181 
L 1972 294 
Q 4150 784 4834 2828 
L 897 2828 
L 897 3303 
z
" id="IPAexGothic-30e9" transform="scale(0.015625)"/>
       <path d="M 4359 4481 
L 4716 4147 
Q 4328 3072 3647 2150 
Q 4659 1434 5659 453 
L 5234 19 
Q 4256 1088 3353 1778 
Q 2372 597 1044 -31 
L 653 403 
Q 3128 1453 4097 4000 
L 1241 3963 
L 1228 4453 
L 4359 4481 
z
" id="IPAexGothic-30b9" transform="scale(0.015625)"/>
       <path d="M 4978 4263 
L 5313 3988 
Q 4797 2431 4056 1459 
Q 3191 325 1822 -300 
L 1466 109 
Q 2131 381 2613 738 
Q 3053 1066 3531 1600 
Q 2919 2225 2144 2791 
Q 1603 2203 1172 1875 
L 825 2234 
Q 2316 3328 2866 5031 
L 3359 4897 
Q 3325 4775 3109 4263 
L 4978 4263 
z
M 2894 3816 
Q 2709 3522 2438 3169 
Q 3194 2616 3841 2003 
Q 4366 2806 4747 3816 
L 2894 3816 
z
" id="IPAexGothic-30bf" transform="scale(0.015625)"/>
       <path d="M 2847 1553 
Q 2741 1006 2425 534 
Q 2625 441 3091 203 
L 2809 -188 
Q 2541 0 2144 209 
Q 1569 -291 703 -500 
L 422 -125 
Q 1263 19 1747 406 
Q 1222 650 734 816 
Q 975 1172 1147 1503 
L 1172 1553 
L 359 1553 
L 359 1925 
L 1344 1925 
Q 1406 2066 1569 2475 
L 1691 2450 
L 1691 3372 
Q 1250 2738 550 2303 
L 275 2663 
Q 1019 3013 1528 3641 
L 378 3641 
L 378 4006 
L 1691 4006 
L 1691 5313 
L 2113 5313 
L 2113 4006 
L 3297 4006 
L 3297 3641 
L 2113 3641 
L 2113 3513 
Q 2659 3291 3175 2963 
L 2956 2584 
Q 2553 2922 2113 3159 
L 2113 2372 
L 1966 2372 
Q 1928 2288 1872 2141 
Q 1806 1975 1784 1925 
L 3378 1925 
L 3378 1553 
L 2847 1553 
z
M 2419 1553 
L 1613 1553 
Q 1478 1269 1313 997 
Q 1559 909 2047 703 
Q 2313 1047 2419 1553 
z
M 4363 1163 
Q 3953 1781 3738 2638 
Q 3575 2281 3428 2016 
L 3103 2406 
Q 3675 3444 3916 5291 
L 4363 5200 
Q 4284 4666 4197 4197 
L 6009 4197 
L 6009 3775 
L 5503 3775 
Q 5397 2275 4869 1191 
Q 5419 503 6144 75 
L 5822 -378 
Q 5188 106 4631 788 
Q 4113 34 3341 -463 
L 3031 -78 
Q 3888 406 4363 1163 
z
M 4588 1594 
Q 4938 2388 5059 3775 
L 4100 3775 
Q 4041 3519 3972 3288 
Q 3981 3250 3991 3194 
Q 4175 2256 4588 1594 
z
M 1003 4116 
Q 878 4544 638 4934 
L 1053 5094 
Q 1247 4788 1438 4269 
L 1003 4116 
z
M 2316 4269 
Q 2550 4688 2688 5131 
L 3128 4997 
Q 2966 4588 2675 4128 
L 2316 4269 
z
" id="IPAexGothic-6570" transform="scale(0.015625)"/>
      </defs>
      <use xlink:href="#IPAexGothic-30af"/>
      <use x="100" xlink:href="#IPAexGothic-30e9"/>
      <use x="200" xlink:href="#IPAexGothic-30b9"/>
      <use x="300" xlink:href="#IPAexGothic-30bf"/>
      <use x="400" xlink:href="#IPAexGothic-6570"/>
     </g>
    </g>
   </g>
   <g id="matplotlib.axis_2">
    <g id="ytick_1">
     <g id="line2d_6">
      <path clip-path="url(#pabf97bd634)" d="M 73.538438 195.379298 
L 408.338437 195.379298 
" style="fill:none;stroke:#ffffff;stroke-linecap:round;"/>
     </g>
     <g id="text_7">
      <!-- 100000 -->
      <g style="fill:#262626;" transform="translate(22.46875 199.499141)scale(0.11 -0.11)">
       <use xlink:href="#IPAexGothic-31"/>
       <use x="62.988281" xlink:href="#IPAexGothic-30"/>
       <use x="125.976562" xlink:href="#IPAexGothic-30"/>
       <use x="188.964844" xlink:href="#IPAexGothic-30"/>
       <use x="251.953125" xlink:href="#IPAexGothic-30"/>
       <use x="314.941406" xlink:href="#IPAexGothic-30"/>
      </g>
     </g>
    </g>
    <g id="ytick_2">
     <g id="line2d_7">
      <path clip-path="url(#pabf97bd634)" d="M 73.538438 165.333805 
L 408.338437 165.333805 
" style="fill:none;stroke:#ffffff;stroke-linecap:round;"/>
     </g>
     <g id="text_8">
      <!-- 200000 -->
      <g style="fill:#262626;" transform="translate(22.46875 169.453649)scale(0.11 -0.11)">
       <use xlink:href="#IPAexGothic-32"/>
       <use x="62.988281" xlink:href="#IPAexGothic-30"/>
       <use x="125.976562" xlink:href="#IPAexGothic-30"/>
       <use x="188.964844" xlink:href="#IPAexGothic-30"/>
       <use x="251.953125" xlink:href="#IPAexGothic-30"/>
       <use x="314.941406" xlink:href="#IPAexGothic-30"/>
      </g>
     </g>
    </g>
    <g id="ytick_3">
     <g id="line2d_8">
      <path clip-path="url(#pabf97bd634)" d="M 73.538438 135.288312 
L 408.338437 135.288312 
" style="fill:none;stroke:#ffffff;stroke-linecap:round;"/>
     </g>
     <g id="text_9">
      <!-- 300000 -->
      <g style="fill:#262626;" transform="translate(22.46875 139.408156)scale(0.11 -0.11)">
       <defs>
        <path d="M 2381 2419 
Q 3506 2216 3506 1278 
Q 3506 716 3128 356 
Q 2709 -31 1944 -31 
Q 797 -31 288 881 
L 756 1131 
Q 1109 441 1938 441 
Q 2425 441 2694 691 
Q 2950 928 2950 1291 
Q 2950 1719 2566 1978 
Q 2216 2213 1644 2213 
L 1363 2213 
L 1363 2669 
L 1656 2669 
Q 2231 2669 2534 2888 
Q 2859 3119 2859 3509 
Q 2859 3934 2494 4138 
Q 2259 4278 1931 4278 
Q 1238 4278 903 3578 
L 434 3803 
Q 897 4725 1938 4725 
Q 2597 4725 3006 4394 
Q 3416 4069 3416 3534 
Q 3416 3028 3019 2706 
Q 2763 2500 2381 2444 
L 2381 2419 
z
" id="IPAexGothic-33" transform="scale(0.015625)"/>
       </defs>
       <use xlink:href="#IPAexGothic-33"/>
       <use x="62.988281" xlink:href="#IPAexGothic-30"/>
       <use x="125.976562" xlink:href="#IPAexGothic-30"/>
       <use x="188.964844" xlink:href="#IPAexGothic-30"/>
       <use x="251.953125" xlink:href="#IPAexGothic-30"/>
       <use x="314.941406" xlink:href="#IPAexGothic-30"/>
      </g>
     </g>
    </g>
    <g id="ytick_4">
     <g id="line2d_9">
      <path clip-path="url(#pabf97bd634)" d="M 73.538438 105.24282 
L 408.338437 105.24282 
" style="fill:none;stroke:#ffffff;stroke-linecap:round;"/>
     </g>
     <g id="text_10">
      <!-- 400000 -->
      <g style="fill:#262626;" transform="translate(22.46875 109.362663)scale(0.11 -0.11)">
       <use xlink:href="#IPAexGothic-34"/>
       <use x="62.988281" xlink:href="#IPAexGothic-30"/>
       <use x="125.976562" xlink:href="#IPAexGothic-30"/>
       <use x="188.964844" xlink:href="#IPAexGothic-30"/>
       <use x="251.953125" xlink:href="#IPAexGothic-30"/>
       <use x="314.941406" xlink:href="#IPAexGothic-30"/>
      </g>
     </g>
    </g>
    <g id="ytick_5">
     <g id="line2d_10">
      <path clip-path="url(#pabf97bd634)" d="M 73.538438 75.197327 
L 408.338437 75.197327 
" style="fill:none;stroke:#ffffff;stroke-linecap:round;"/>
     </g>
     <g id="text_11">
      <!-- 500000 -->
      <g style="fill:#262626;" transform="translate(22.46875 79.317171)scale(0.11 -0.11)">
       <defs>
        <path d="M 1178 2603 
Q 1634 2963 2172 2963 
Q 2816 2963 3241 2528 
Q 3638 2113 3638 1497 
Q 3638 938 3297 513 
Q 2869 -31 2031 -31 
Q 959 -31 469 784 
L 938 1028 
Q 1309 434 2013 434 
Q 2466 434 2769 716 
Q 3081 1013 3081 1503 
Q 3081 1966 2806 2241 
Q 2519 2528 2056 2528 
Q 1406 2528 1072 2028 
L 591 2091 
L 884 4634 
L 3406 4634 
L 3406 4153 
L 1341 4153 
L 1134 2603 
L 1178 2603 
z
" id="IPAexGothic-35" transform="scale(0.015625)"/>
       </defs>
       <use xlink:href="#IPAexGothic-35"/>
       <use x="62.988281" xlink:href="#IPAexGothic-30"/>
       <use x="125.976562" xlink:href="#IPAexGothic-30"/>
       <use x="188.964844" xlink:href="#IPAexGothic-30"/>
       <use x="251.953125" xlink:href="#IPAexGothic-30"/>
       <use x="314.941406" xlink:href="#IPAexGothic-30"/>
      </g>
     </g>
    </g>
    <g id="ytick_6">
     <g id="line2d_11">
      <path clip-path="url(#pabf97bd634)" d="M 73.538438 45.151834 
L 408.338437 45.151834 
" style="fill:none;stroke:#ffffff;stroke-linecap:round;"/>
     </g>
     <g id="text_12">
      <!-- 600000 -->
      <g style="fill:#262626;" transform="translate(22.46875 49.271678)scale(0.11 -0.11)">
       <use xlink:href="#IPAexGothic-36"/>
       <use x="62.988281" xlink:href="#IPAexGothic-30"/>
       <use x="125.976562" xlink:href="#IPAexGothic-30"/>
       <use x="188.964844" xlink:href="#IPAexGothic-30"/>
       <use x="251.953125" xlink:href="#IPAexGothic-30"/>
       <use x="314.941406" xlink:href="#IPAexGothic-30"/>
      </g>
     </g>
    </g>
    <g id="ytick_7">
     <g id="line2d_12">
      <path clip-path="url(#pabf97bd634)" d="M 73.538438 15.106342 
L 408.338437 15.106342 
" style="fill:none;stroke:#ffffff;stroke-linecap:round;"/>
     </g>
     <g id="text_13">
      <!-- 700000 -->
      <g style="fill:#262626;" transform="translate(22.46875 19.226185)scale(0.11 -0.11)">
       <defs>
        <path d="M 3597 4263 
Q 2238 2106 1778 63 
L 1131 63 
Q 1581 1834 2950 4128 
L 428 4128 
L 428 4634 
L 3597 4634 
L 3597 4263 
z
" id="IPAexGothic-37" transform="scale(0.015625)"/>
       </defs>
       <use xlink:href="#IPAexGothic-37"/>
       <use x="62.988281" xlink:href="#IPAexGothic-30"/>
       <use x="125.976562" xlink:href="#IPAexGothic-30"/>
       <use x="188.964844" xlink:href="#IPAexGothic-30"/>
       <use x="251.953125" xlink:href="#IPAexGothic-30"/>
       <use x="314.941406" xlink:href="#IPAexGothic-30"/>
      </g>
     </g>
    </g>
    <g id="text_14">
     <!-- 距離の総和 -->
     <g style="fill:#262626;" transform="translate(16.18875 145.92)rotate(-90)scale(0.12 -0.12)">
      <defs>
       <path d="M 2741 4984 
L 2741 3047 
L 1997 3047 
L 1997 2125 
L 2919 2125 
L 2919 1741 
L 1997 1741 
L 1997 441 
Q 2469 566 3016 728 
L 3041 347 
Q 1966 -28 525 -372 
L 353 72 
Q 519 97 634 128 
Q 659 128 678 134 
L 678 2522 
L 1094 2522 
L 1094 225 
Q 1316 272 1497 319 
L 1581 341 
L 1581 3047 
L 616 3047 
L 616 4984 
L 2741 4984 
z
M 1044 4600 
L 1044 3431 
L 2313 3431 
L 2313 4600 
L 1044 4600 
z
M 3725 4506 
L 3725 3425 
L 5775 3425 
L 5775 1134 
L 5347 1134 
L 5347 1575 
L 3725 1575 
L 3725 378 
L 6113 378 
L 6113 -25 
L 3725 -25 
L 3725 -447 
L 3291 -447 
L 3291 4916 
L 5959 4916 
L 5959 4506 
L 3725 4506 
z
M 5347 3034 
L 3725 3034 
L 3725 1972 
L 5347 1972 
L 5347 3034 
z
" id="IPAexGothic-8ddd" transform="scale(0.015625)"/>
       <path d="M 2219 881 
Q 2134 1103 1972 1381 
L 2291 1497 
Q 2578 1041 2756 488 
L 2413 300 
Q 2381 416 2322 613 
Q 1750 481 1003 384 
L 894 769 
Q 1128 778 1209 788 
Q 1297 1072 1425 1656 
L 838 1656 
L 838 -447 
L 428 -447 
L 428 2009 
L 1497 2009 
Q 1516 2116 1559 2419 
L 588 2419 
L 588 4109 
L 984 4109 
L 984 2772 
L 2656 2772 
L 2656 4109 
L 3053 4109 
L 3053 2419 
L 1972 2419 
Q 1925 2106 1906 2009 
L 3225 2009 
L 3225 56 
Q 3225 -219 3103 -300 
Q 3003 -384 2725 -384 
Q 2381 -384 2169 -359 
L 2119 56 
Q 2416 0 2631 0 
Q 2816 0 2816 197 
L 2816 1656 
L 1816 1656 
Q 1809 1616 1788 1525 
Q 1775 1469 1772 1444 
Q 1681 1081 1594 819 
L 1809 838 
Q 2084 859 2219 881 
z
M 5125 2419 
L 5125 1556 
L 5919 1556 
L 5919 1184 
L 5125 1184 
L 5125 275 
L 6103 275 
L 6103 -122 
L 4044 -122 
L 4044 -447 
L 3641 -447 
L 3641 3066 
Q 3466 2653 3306 2400 
L 3056 2725 
Q 3653 3759 3909 5259 
L 4319 5172 
Q 4181 4553 4038 4109 
L 4019 4044 
L 4747 4044 
Q 4947 4572 5066 5222 
L 5491 5113 
Q 5297 4428 5138 4044 
L 6041 4044 
L 6041 3659 
L 5125 3659 
L 5125 2791 
L 5919 2791 
L 5919 2419 
L 5125 2419 
z
M 4728 3659 
L 4044 3659 
L 4044 2791 
L 4728 2791 
L 4728 3659 
z
M 4728 2419 
L 4044 2419 
L 4044 1556 
L 4728 1556 
L 4728 2419 
z
M 4728 1184 
L 4044 1184 
L 4044 275 
L 4728 275 
L 4728 1184 
z
M 2022 4697 
L 3378 4697 
L 3378 4325 
L 281 4325 
L 281 4697 
L 1594 4697 
L 1594 5313 
L 2022 5313 
L 2022 4697 
z
M 1625 3481 
Q 1419 3625 1056 3834 
L 1291 4084 
Q 1541 3944 1863 3731 
Q 2025 3916 2181 4172 
L 2509 4000 
Q 2316 3728 2138 3531 
Q 2500 3238 2591 3163 
L 2353 2881 
Q 2094 3119 1894 3284 
Q 1634 3031 1297 2834 
L 1063 3097 
Q 1375 3259 1625 3481 
z
" id="IPAexGothic-96e2" transform="scale(0.015625)"/>
       <path d="M 3119 469 
Q 5275 766 5275 2425 
Q 5275 3453 4413 3925 
Q 4041 4116 3547 4159 
Q 3394 2525 2850 1400 
Q 2322 306 1722 306 
Q 1384 306 1084 666 
Q 609 1244 609 2003 
Q 609 3025 1397 3794 
Q 2184 4563 3431 4563 
Q 4306 4563 4928 4122 
Q 5813 3506 5813 2425 
Q 5813 438 3431 6 
L 3119 469 
z
M 3053 4147 
Q 2378 4044 1891 3641 
Q 1097 2981 1097 1991 
Q 1097 1366 1434 978 
Q 1581 813 1719 813 
Q 2022 813 2416 1625 
Q 2909 2638 3053 4147 
z
" id="IPAexGothic-306e" transform="scale(0.015625)"/>
       <path d="M 1247 3084 
Q 819 3691 384 4128 
L 666 4422 
Q 781 4306 916 4153 
Q 1281 4684 1541 5331 
L 1956 5119 
Q 1541 4356 1159 3859 
Q 1319 3647 1472 3425 
Q 1906 4094 2138 4550 
L 2522 4313 
Q 1872 3228 1313 2572 
L 1631 2591 
Q 2013 2613 2200 2631 
Q 2075 2919 1950 3150 
L 2297 3297 
Q 2606 2763 2822 2106 
L 2444 1919 
Q 2347 2231 2316 2316 
Q 2228 2294 1778 2234 
L 1778 -447 
L 1363 -447 
L 1363 2181 
L 1300 2175 
Q 1009 2144 434 2106 
L 288 2534 
Q 700 2544 863 2553 
Q 953 2678 1106 2891 
Q 1209 3031 1247 3084 
z
M 3409 2669 
Q 3819 3419 4063 4191 
L 4472 4072 
Q 4184 3253 3866 2681 
Q 4953 2734 5113 2753 
Q 4928 3034 4672 3372 
L 4991 3572 
Q 5491 3031 5900 2328 
L 5509 2059 
Q 5309 2434 5306 2438 
Q 4334 2303 2963 2228 
L 2828 2663 
Q 3141 2663 3297 2669 
L 3409 2669 
z
M 359 197 
Q 588 863 653 1759 
L 1063 1709 
Q 994 684 769 -13 
L 359 197 
z
M 2253 434 
Q 2128 1213 1944 1759 
L 2303 1869 
Q 2500 1438 2675 616 
L 2253 434 
z
M 2738 3563 
Q 3322 4222 3641 5163 
L 4025 5028 
Q 3697 3997 3041 3244 
L 2738 3563 
z
M 5709 3444 
Q 4950 4144 4500 5038 
L 4850 5216 
Q 5328 4403 6047 3803 
L 5709 3444 
z
M 2706 91 
Q 2963 725 3028 1503 
L 3431 1422 
Q 3334 431 3084 -153 
L 2706 91 
z
M 3675 1619 
L 4091 1619 
L 4091 250 
Q 4091 84 4194 56 
Q 4253 31 4431 31 
Q 4825 31 4872 191 
Q 4906 322 4916 813 
L 5331 678 
Q 5322 -144 5128 -275 
Q 4966 -391 4425 -391 
Q 3978 -391 3847 -306 
Q 3675 -203 3675 63 
L 3675 1619 
z
M 5753 38 
Q 5463 894 5150 1403 
L 5509 1575 
Q 5931 919 6138 263 
L 5753 38 
z
M 4647 1178 
Q 4309 1656 3922 1972 
L 4231 2222 
Q 4672 1897 4978 1478 
L 4647 1178 
z
" id="IPAexGothic-7dcf" transform="scale(0.015625)"/>
       <path d="M 1697 2288 
Q 1322 1325 672 553 
L 378 969 
Q 1191 1838 1613 3016 
L 428 3016 
L 428 3425 
L 1697 3425 
L 1697 4341 
L 1653 4334 
Q 1247 4259 775 4200 
L 563 4572 
Q 1797 4731 2772 5063 
L 3084 4684 
Q 2634 4534 2150 4428 
L 2150 3425 
L 3263 3425 
L 3263 3016 
L 2150 3016 
L 2150 2516 
Q 2741 2138 3244 1684 
L 2981 1225 
Q 2591 1684 2150 2050 
L 2150 -447 
L 1697 -447 
L 1697 2288 
z
M 5781 4506 
L 5781 -225 
L 5328 -225 
L 5328 166 
L 3975 166 
L 3975 -294 
L 3522 -294 
L 3522 4506 
L 5781 4506 
z
M 3975 4091 
L 3975 588 
L 5328 588 
L 5328 4091 
L 3975 4091 
z
" id="IPAexGothic-548c" transform="scale(0.015625)"/>
      </defs>
      <use xlink:href="#IPAexGothic-8ddd"/>
      <use x="100" xlink:href="#IPAexGothic-96e2"/>
      <use x="200" xlink:href="#IPAexGothic-306e"/>
      <use x="300" xlink:href="#IPAexGothic-7dcf"/>
      <use x="400" xlink:href="#IPAexGothic-548c"/>
     </g>
    </g>
   </g>
   <g id="line2d_13">
    <path clip-path="url(#pabf97bd634)" d="M 88.756619 17.083636 
L 122.574801 154.759718 
L 156.392983 186.968372 
L 190.211165 197.896573 
L 224.029347 203.170503 
L 257.847528 208.28774 
L 291.66571 210.451461 
L 325.483892 212.3296 
L 359.302074 213.748071 
L 393.120256 214.756364 
" style="fill:none;stroke:#4c72b0;stroke-linecap:round;stroke-width:1.5;"/>
    <defs>
     <path d="M -3 0 
L 3 0 
M 0 3 
L 0 -3 
" id="mf33f945de4" style="stroke:#4c72b0;"/>
    </defs>
    <g clip-path="url(#pabf97bd634)">
     <use style="fill:#4c72b0;stroke:#4c72b0;" x="88.756619" xlink:href="#mf33f945de4" y="17.083636"/>
     <use style="fill:#4c72b0;stroke:#4c72b0;" x="122.574801" xlink:href="#mf33f945de4" y="154.759718"/>
     <use style="fill:#4c72b0;stroke:#4c72b0;" x="156.392983" xlink:href="#mf33f945de4" y="186.968372"/>
     <use style="fill:#4c72b0;stroke:#4c72b0;" x="190.211165" xlink:href="#mf33f945de4" y="197.896573"/>
     <use style="fill:#4c72b0;stroke:#4c72b0;" x="224.029347" xlink:href="#mf33f945de4" y="203.170503"/>
     <use style="fill:#4c72b0;stroke:#4c72b0;" x="257.847528" xlink:href="#mf33f945de4" y="208.28774"/>
     <use style="fill:#4c72b0;stroke:#4c72b0;" x="291.66571" xlink:href="#mf33f945de4" y="210.451461"/>
     <use style="fill:#4c72b0;stroke:#4c72b0;" x="325.483892" xlink:href="#mf33f945de4" y="212.3296"/>
     <use style="fill:#4c72b0;stroke:#4c72b0;" x="359.302074" xlink:href="#mf33f945de4" y="213.748071"/>
     <use style="fill:#4c72b0;stroke:#4c72b0;" x="393.120256" xlink:href="#mf33f945de4" y="214.756364"/>
    </g>
   </g>
   <g id="patch_3">
    <path d="M 73.538438 224.64 
L 73.538438 7.2 
" style="fill:none;stroke:#ffffff;stroke-linecap:square;stroke-linejoin:miter;stroke-width:1.25;"/>
   </g>
   <g id="patch_4">
    <path d="M 408.338437 224.64 
L 408.338437 7.2 
" style="fill:none;stroke:#ffffff;stroke-linecap:square;stroke-linejoin:miter;stroke-width:1.25;"/>
   </g>
   <g id="patch_5">
    <path d="M 73.538437 224.64 
L 408.338437 224.64 
" style="fill:none;stroke:#ffffff;stroke-linecap:square;stroke-linejoin:miter;stroke-width:1.25;"/>
   </g>
   <g id="patch_6">
    <path d="M 73.538437 7.2 
L 408.338437 7.2 
" style="fill:none;stroke:#ffffff;stroke-linecap:square;stroke-linejoin:miter;stroke-width:1.25;"/>
   </g>
  </g>
 </g>
 <defs>
  <clipPath id="pabf97bd634">
   <rect height="217.44" width="334.8" x="73.538438" y="7.2"/>
  </clipPath>
 </defs>
</svg>
