<?xml version="1.0" encoding="utf-8" standalone="no"?>
<!DOCTYPE svg PUBLIC "-//W3C//DTD SVG 1.1//EN"
  "http://www.w3.org/Graphics/SVG/1.1/DTD/svg11.dtd">
<!-- Created with matplotlib (https://matplotlib.org/) -->
<svg height="266.938437pt" version="1.1" viewBox="0 0 399.656987 266.938437" width="399.656987pt" xmlns="http://www.w3.org/2000/svg" xmlns:xlink="http://www.w3.org/1999/xlink">
 <metadata>
  <rdf:RDF xmlns:cc="http://creativecommons.org/ns#" xmlns:dc="http://purl.org/dc/elements/1.1/" xmlns:rdf="http://www.w3.org/1999/02/22-rdf-syntax-ns#">
   <cc:Work>
    <dc:type rdf:resource="http://purl.org/dc/dcmitype/StillImage"/>
    <dc:date>2021-03-16T16:36:51.962192</dc:date>
    <dc:format>image/svg+xml</dc:format>
    <dc:creator>
     <cc:Agent>
      <dc:title>Matplotlib v3.3.4, https://matplotlib.org/</dc:title>
     </cc:Agent>
    </dc:creator>
   </cc:Work>
  </rdf:RDF>
 </metadata>
 <defs>
  <style type="text/css">*{stroke-linecap:butt;stroke-linejoin:round;}</style>
 </defs>
 <g id="figure_1">
  <g id="patch_1">
   <path d="M 0 266.938437 
L 399.656987 266.938437 
L 399.656987 0 
L 0 0 
z
" style="fill:#ffffff;"/>
  </g>
  <g id="axes_1">
   <g id="patch_2">
    <path d="M 55.66 224.64 
L 390.46 224.64 
L 390.46 7.2 
L 55.66 7.2 
z
" style="fill:#eaeaf2;"/>
   </g>
   <g id="matplotlib.axis_1">
    <g id="xtick_1">
     <g id="line2d_1">
      <path clip-path="url(#pfdb76ec61b)" d="M 85.58648 224.64 
L 85.58648 7.2 
" style="fill:none;stroke:#ffffff;stroke-linecap:round;"/>
     </g>
     <g id="text_1">
      <!-- 0 -->
      <g style="fill:#262626;" transform="translate(82.122339 242.379687)scale(0.11 -0.11)">
       <defs>
        <path d="M 31.84375 73.828125 
Q 45.015625 73.828125 52.09375 61.625 
Q 57.71875 51.953125 57.71875 36.625 
Q 57.71875 21.4375 52.09375 11.578125 
Q 45.125 -0.484375 31.5 -0.484375 
Q 17.921875 -0.484375 10.9375 11.578125 
Q 5.328125 21.4375 5.328125 36.71875 
Q 5.328125 58.015625 15.625 67.71875 
Q 22.171875 73.828125 31.84375 73.828125 
z
M 31.5 66.65625 
Q 23.6875 66.65625 19.1875 58.734375 
Q 14.59375 50.734375 14.59375 36.625 
Q 14.59375 22.75 19.09375 14.796875 
Q 23.640625 6.984375 31.5 6.984375 
Q 40.921875 6.984375 45.453125 18.015625 
Q 48.4375 25.34375 48.4375 37.109375 
Q 48.4375 50.875 43.84375 58.734375 
Q 39.203125 66.65625 31.5 66.65625 
z
" id="IPAexGothic-48"/>
       </defs>
       <use xlink:href="#IPAexGothic-48"/>
      </g>
     </g>
    </g>
    <g id="xtick_2">
     <g id="line2d_2">
      <path clip-path="url(#pfdb76ec61b)" d="M 135.576851 224.64 
L 135.576851 7.2 
" style="fill:none;stroke:#ffffff;stroke-linecap:round;"/>
     </g>
     <g id="text_2">
      <!-- 10 -->
      <g style="fill:#262626;" transform="translate(128.64857 242.379687)scale(0.11 -0.11)">
       <defs>
        <path d="M 38.484375 0.984375 
L 29.6875 0.984375 
L 29.6875 64.109375 
Q 21.4375 61.28125 12.3125 59.328125 
L 10.6875 66.109375 
Q 23.734375 69.390625 32.90625 73.921875 
L 38.484375 73.921875 
z
" id="IPAexGothic-49"/>
       </defs>
       <use xlink:href="#IPAexGothic-49"/>
       <use x="62.988281" xlink:href="#IPAexGothic-48"/>
      </g>
     </g>
    </g>
    <g id="xtick_3">
     <g id="line2d_3">
      <path clip-path="url(#pfdb76ec61b)" d="M 185.567222 224.64 
L 185.567222 7.2 
" style="fill:none;stroke:#ffffff;stroke-linecap:round;"/>
     </g>
     <g id="text_3">
      <!-- 20 -->
      <g style="fill:#262626;" transform="translate(178.638941 242.379687)scale(0.11 -0.11)">
       <defs>
        <path d="M 57.171875 0.984375 
L 6.984375 0.984375 
L 6.984375 9.28125 
Q 12.890625 23.046875 29.59375 34.421875 
L 32.375 36.28125 
Q 40.921875 42.140625 43.609375 45.40625 
Q 46.6875 49.265625 46.6875 53.8125 
Q 46.6875 58.9375 43.0625 62.546875 
Q 39.0625 66.546875 32.5625 66.546875 
Q 19.53125 66.546875 15.484375 52 
L 7.765625 54.78125 
Q 13.328125 73.828125 33.0625 73.828125 
Q 43.84375 73.828125 50.25 67.4375 
Q 55.859375 61.671875 55.859375 53.515625 
Q 55.859375 47.46875 52.25 42.53125 
Q 48.921875 37.75 36.96875 30.28125 
L 34.859375 29 
Q 19.625 19.578125 15.28125 8.890625 
L 57.171875 8.890625 
z
" id="IPAexGothic-50"/>
       </defs>
       <use xlink:href="#IPAexGothic-50"/>
       <use x="62.988281" xlink:href="#IPAexGothic-48"/>
      </g>
     </g>
    </g>
    <g id="xtick_4">
     <g id="line2d_4">
      <path clip-path="url(#pfdb76ec61b)" d="M 235.557593 224.64 
L 235.557593 7.2 
" style="fill:none;stroke:#ffffff;stroke-linecap:round;"/>
     </g>
     <g id="text_4">
      <!-- 30 -->
      <g style="fill:#262626;" transform="translate(228.629311 242.379687)scale(0.11 -0.11)">
       <defs>
        <path d="M 37.203125 37.796875 
Q 54.78125 34.625 54.78125 19.96875 
Q 54.78125 11.1875 48.875 5.5625 
Q 42.328125 -0.484375 30.375 -0.484375 
Q 12.453125 -0.484375 4.5 13.765625 
L 11.8125 17.671875 
Q 17.328125 6.890625 30.28125 6.890625 
Q 37.890625 6.890625 42.09375 10.796875 
Q 46.09375 14.5 46.09375 20.171875 
Q 46.09375 26.859375 40.09375 30.90625 
Q 34.625 34.578125 25.6875 34.578125 
L 21.296875 34.578125 
L 21.296875 41.703125 
L 25.875 41.703125 
Q 34.859375 41.703125 39.59375 45.125 
Q 44.671875 48.734375 44.671875 54.828125 
Q 44.671875 61.46875 38.96875 64.65625 
Q 35.296875 66.84375 30.171875 66.84375 
Q 19.34375 66.84375 14.109375 55.90625 
L 6.78125 59.421875 
Q 14.015625 73.828125 30.28125 73.828125 
Q 40.578125 73.828125 46.96875 68.65625 
Q 53.375 63.578125 53.375 55.21875 
Q 53.375 47.3125 47.171875 42.28125 
Q 43.171875 39.0625 37.203125 38.1875 
z
" id="IPAexGothic-51"/>
       </defs>
       <use xlink:href="#IPAexGothic-51"/>
       <use x="62.988281" xlink:href="#IPAexGothic-48"/>
      </g>
     </g>
    </g>
    <g id="xtick_5">
     <g id="line2d_5">
      <path clip-path="url(#pfdb76ec61b)" d="M 285.547964 224.64 
L 285.547964 7.2 
" style="fill:none;stroke:#ffffff;stroke-linecap:round;"/>
     </g>
     <g id="text_5">
      <!-- 40 -->
      <g style="fill:#262626;" transform="translate(278.619682 242.379687)scale(0.11 -0.11)">
       <defs>
        <path d="M 59.578125 18.109375 
L 47.796875 18.109375 
L 47.796875 0.984375 
L 39.796875 0.984375 
L 39.796875 18.109375 
L 3.078125 18.109375 
L 3.078125 26.125 
L 38.375 73.09375 
L 47.796875 73.09375 
L 47.796875 25.53125 
L 59.578125 25.53125 
z
M 40.28125 64.203125 
L 39.984375 64.203125 
Q 35.59375 57.125 31.296875 51.3125 
L 11.859375 25.53125 
L 39.796875 25.53125 
L 39.796875 49.125 
Q 39.796875 54.390625 40.28125 64.203125 
z
" id="IPAexGothic-52"/>
       </defs>
       <use xlink:href="#IPAexGothic-52"/>
       <use x="62.988281" xlink:href="#IPAexGothic-48"/>
      </g>
     </g>
    </g>
    <g id="xtick_6">
     <g id="line2d_6">
      <path clip-path="url(#pfdb76ec61b)" d="M 335.538335 224.64 
L 335.538335 7.2 
" style="fill:none;stroke:#ffffff;stroke-linecap:round;"/>
     </g>
     <g id="text_6">
      <!-- 50 -->
      <g style="fill:#262626;" transform="translate(328.610053 242.379687)scale(0.11 -0.11)">
       <defs>
        <path d="M 18.40625 40.671875 
Q 25.53125 46.296875 33.9375 46.296875 
Q 44 46.296875 50.640625 39.5 
Q 56.84375 33.015625 56.84375 23.390625 
Q 56.84375 14.65625 51.515625 8.015625 
Q 44.828125 -0.484375 31.734375 -0.484375 
Q 14.984375 -0.484375 7.328125 12.25 
L 14.65625 16.0625 
Q 20.453125 6.78125 31.453125 6.78125 
Q 38.53125 6.78125 43.265625 11.1875 
Q 48.140625 15.828125 48.140625 23.484375 
Q 48.140625 30.71875 43.84375 35.015625 
Q 39.359375 39.5 32.125 39.5 
Q 21.96875 39.5 16.75 31.6875 
L 9.234375 32.671875 
L 13.8125 72.40625 
L 53.21875 72.40625 
L 53.21875 64.890625 
L 20.953125 64.890625 
L 17.71875 40.671875 
z
" id="IPAexGothic-53"/>
       </defs>
       <use xlink:href="#IPAexGothic-53"/>
       <use x="62.988281" xlink:href="#IPAexGothic-48"/>
      </g>
     </g>
    </g>
    <g id="xtick_7">
     <g id="line2d_7">
      <path clip-path="url(#pfdb76ec61b)" d="M 385.528706 224.64 
L 385.528706 7.2 
" style="fill:none;stroke:#ffffff;stroke-linecap:round;"/>
     </g>
     <g id="text_7">
      <!-- 60 -->
      <g style="fill:#262626;" transform="translate(378.600424 242.379687)scale(0.11 -0.11)">
       <defs>
        <path d="M 16.5 36.375 
Q 23.578125 46.578125 34.90625 46.578125 
Q 45.40625 46.578125 51.8125 39.265625 
Q 57.421875 32.90625 57.421875 23.78125 
Q 57.421875 13.8125 51.125 6.78125 
Q 44.578125 -0.484375 34.03125 -0.484375 
Q 21.484375 -0.484375 14.40625 9.078125 
Q 7.515625 18.40625 7.515625 34.8125 
Q 7.515625 53.515625 15.828125 64.203125 
Q 23.34375 73.828125 35.5 73.828125 
Q 49.859375 73.828125 56.390625 62.890625 
L 49.21875 58.984375 
Q 45.21875 66.65625 35.9375 66.65625 
Q 17.484375 66.65625 16.109375 36.375 
z
M 33.453125 39.796875 
Q 26.3125 39.796875 21.625 34.46875 
Q 17.4375 29.6875 17.4375 24.078125 
Q 17.4375 18.0625 21.140625 13.1875 
Q 26.125 6.6875 33.734375 6.6875 
Q 41.703125 6.6875 45.953125 13.1875 
Q 48.828125 17.625 48.828125 23.484375 
Q 48.828125 30.375 45.015625 34.8125 
Q 40.625 39.796875 33.453125 39.796875 
z
" id="IPAexGothic-54"/>
       </defs>
       <use xlink:href="#IPAexGothic-54"/>
       <use x="62.988281" xlink:href="#IPAexGothic-48"/>
      </g>
     </g>
    </g>
    <g id="text_8">
     <!-- medv -->
     <g style="fill:#262626;" transform="translate(207.760938 257.458437)scale(0.12 -0.12)">
      <defs>
       <path d="M 78.46875 0.984375 
L 69.875 0.984375 
L 69.875 32.171875 
Q 69.875 44.828125 60.109375 44.828125 
Q 55.46875 44.828125 51.609375 40.53125 
Q 48.875 37.453125 47.796875 32.859375 
L 47.796875 0.984375 
L 39.203125 0.984375 
L 39.203125 32.28125 
Q 39.203125 44.828125 29.984375 44.828125 
Q 25.09375 44.828125 21.390625 40.53125 
Q 17.390625 36.03125 17.390625 31.890625 
L 17.390625 0.984375 
L 8.796875 0.984375 
L 8.796875 50.78125 
L 16.796875 50.78125 
L 16.796875 42.1875 
Q 21.734375 51.8125 31.6875 51.8125 
Q 42.578125 51.8125 46.1875 41.359375 
Q 51.609375 51.8125 61.765625 51.8125 
Q 69.96875 51.8125 74.5625 46 
Q 78.46875 41.21875 78.46875 32.375 
z
" id="IPAexGothic-109"/>
       <path d="M 13.484375 24.90625 
Q 13.921875 16.265625 18.890625 11.28125 
Q 23.96875 6.203125 31.203125 6.203125 
Q 40.71875 6.203125 46.296875 15.09375 
L 51.90625 11.375 
Q 44.828125 -0.484375 30.171875 -0.484375 
Q 19.09375 -0.484375 11.96875 6.59375 
Q 4.78125 13.8125 4.78125 25.640625 
Q 4.78125 38.1875 12.3125 45.703125 
Q 19 52.390625 29 52.390625 
Q 38.421875 52.390625 44.78125 46.1875 
Q 51.90625 38.96875 51.90625 26.90625 
L 51.90625 24.90625 
z
M 43.0625 31.203125 
Q 42.328125 37.984375 38.28125 41.890625 
Q 34.28125 45.90625 28.8125 45.90625 
Q 22.46875 45.90625 17.96875 40.484375 
Q 14.890625 36.8125 13.96875 31.203125 
z
" id="IPAexGothic-101"/>
       <path d="M 52.984375 0.984375 
L 45.171875 0.984375 
L 45.171875 9.671875 
Q 38.140625 -0.484375 27.390625 -0.484375 
Q 18.453125 -0.484375 12.3125 5.8125 
Q 4.890625 13.1875 4.890625 25.984375 
Q 4.890625 38.53125 12.0625 45.90625 
Q 18.265625 52.203125 27.390625 52.203125 
Q 37.25 52.203125 44.484375 43.890625 
L 44.484375 74.90625 
L 52.984375 74.90625 
z
M 44.484375 20.359375 
L 44.484375 32.765625 
Q 44.484375 37.703125 38.375 42.28125 
Q 34.078125 45.40625 28.953125 45.40625 
Q 23.1875 45.40625 19.1875 41.40625 
Q 13.875 36.078125 13.875 26.21875 
Q 13.875 17.328125 18.265625 11.71875 
Q 22.515625 6.390625 28.859375 6.390625 
Q 36.28125 6.390625 41.5 13.671875 
Q 44.484375 17.71875 44.484375 20.359375 
z
" id="IPAexGothic-100"/>
       <path d="M 48.484375 50.78125 
L 27.296875 0.09375 
L 21.484375 0.09375 
L 0.390625 50.78125 
L 9.8125 50.78125 
L 20.90625 21.6875 
L 23.78125 13.1875 
L 24.515625 10.984375 
L 24.8125 10.984375 
Q 25.640625 13.8125 28.46875 21.6875 
L 39.3125 50.78125 
z
" id="IPAexGothic-118"/>
      </defs>
      <use xlink:href="#IPAexGothic-109"/>
      <use x="87.109375" xlink:href="#IPAexGothic-101"/>
      <use x="143.994141" xlink:href="#IPAexGothic-100"/>
      <use x="206.396484" xlink:href="#IPAexGothic-118"/>
     </g>
    </g>
   </g>
   <g id="matplotlib.axis_2">
    <g id="ytick_1">
     <g id="line2d_8">
      <path clip-path="url(#pfdb76ec61b)" d="M 55.66 224.64 
L 390.46 224.64 
" style="fill:none;stroke:#ffffff;stroke-linecap:round;"/>
     </g>
     <g id="text_9">
      <!-- 0.00 -->
      <g style="fill:#262626;" transform="translate(22.46875 228.759844)scale(0.11 -0.11)">
       <defs>
        <path d="M 18.5 0.984375 
L 7.71875 0.984375 
L 7.71875 11.765625 
L 18.5 11.765625 
z
" id="IPAexGothic-46"/>
       </defs>
       <use xlink:href="#IPAexGothic-48"/>
       <use x="62.988281" xlink:href="#IPAexGothic-46"/>
       <use x="89.404297" xlink:href="#IPAexGothic-48"/>
       <use x="152.392578" xlink:href="#IPAexGothic-48"/>
      </g>
     </g>
    </g>
    <g id="ytick_2">
     <g id="line2d_9">
      <path clip-path="url(#pfdb76ec61b)" d="M 55.66 179.731984 
L 390.46 179.731984 
" style="fill:none;stroke:#ffffff;stroke-linecap:round;"/>
     </g>
     <g id="text_10">
      <!-- 0.02 -->
      <g style="fill:#262626;" transform="translate(22.46875 183.851827)scale(0.11 -0.11)">
       <use xlink:href="#IPAexGothic-48"/>
       <use x="62.988281" xlink:href="#IPAexGothic-46"/>
       <use x="89.404297" xlink:href="#IPAexGothic-48"/>
       <use x="152.392578" xlink:href="#IPAexGothic-50"/>
      </g>
     </g>
    </g>
    <g id="ytick_3">
     <g id="line2d_10">
      <path clip-path="url(#pfdb76ec61b)" d="M 55.66 134.823967 
L 390.46 134.823967 
" style="fill:none;stroke:#ffffff;stroke-linecap:round;"/>
     </g>
     <g id="text_11">
      <!-- 0.04 -->
      <g style="fill:#262626;" transform="translate(22.46875 138.943811)scale(0.11 -0.11)">
       <use xlink:href="#IPAexGothic-48"/>
       <use x="62.988281" xlink:href="#IPAexGothic-46"/>
       <use x="89.404297" xlink:href="#IPAexGothic-48"/>
       <use x="152.392578" xlink:href="#IPAexGothic-52"/>
      </g>
     </g>
    </g>
    <g id="ytick_4">
     <g id="line2d_11">
      <path clip-path="url(#pfdb76ec61b)" d="M 55.66 89.915951 
L 390.46 89.915951 
" style="fill:none;stroke:#ffffff;stroke-linecap:round;"/>
     </g>
     <g id="text_12">
      <!-- 0.06 -->
      <g style="fill:#262626;" transform="translate(22.46875 94.035795)scale(0.11 -0.11)">
       <use xlink:href="#IPAexGothic-48"/>
       <use x="62.988281" xlink:href="#IPAexGothic-46"/>
       <use x="89.404297" xlink:href="#IPAexGothic-48"/>
       <use x="152.392578" xlink:href="#IPAexGothic-54"/>
      </g>
     </g>
    </g>
    <g id="ytick_5">
     <g id="line2d_12">
      <path clip-path="url(#pfdb76ec61b)" d="M 55.66 45.007935 
L 390.46 45.007935 
" style="fill:none;stroke:#ffffff;stroke-linecap:round;"/>
     </g>
     <g id="text_13">
      <!-- 0.08 -->
      <g style="fill:#262626;" transform="translate(22.46875 49.127778)scale(0.11 -0.11)">
       <defs>
        <path d="M 39.703125 37.890625 
Q 57.8125 31.734375 57.8125 18.703125 
Q 57.8125 8.453125 48.4375 3.078125 
Q 41.609375 -0.875 31.5 -0.875 
Q 21.34375 -0.875 14.5 3.078125 
Q 5.421875 8.296875 5.421875 18.40625 
Q 5.421875 31.0625 22.015625 37.203125 
L 22.015625 37.5 
Q 7.515625 42.71875 7.515625 54.828125 
Q 7.515625 64.0625 15.328125 69.625 
Q 21.96875 74.3125 31.546875 74.3125 
Q 42.234375 74.3125 48.921875 68.796875 
Q 55.515625 63.578125 55.515625 55.71875 
Q 55.515625 42.28125 39.703125 38.1875 
z
M 31.59375 41.015625 
Q 46.828125 44.625 46.828125 55.125 
Q 46.828125 61.1875 41.796875 64.84375 
Q 37.703125 67.921875 31.5 67.921875 
Q 25.09375 67.921875 20.796875 64.5 
Q 16.40625 60.890625 16.40625 55.03125 
Q 16.40625 49.21875 21.09375 45.703125 
Q 23.34375 43.890625 26.90625 42.53125 
Q 31 40.875 31.59375 41.015625 
z
M 30.90625 34.515625 
Q 14.40625 30.171875 14.40625 19 
Q 14.40625 12.109375 20.515625 8.6875 
Q 25.09375 6.109375 31.390625 6.109375 
Q 40.234375 6.109375 45.015625 10.890625 
Q 48.53125 14.40625 48.53125 19.53125 
Q 48.53125 24.90625 43.65625 28.90625 
Q 40.765625 31.15625 36.71875 32.8125 
Q 31.984375 34.71875 30.90625 34.515625 
z
" id="IPAexGothic-56"/>
       </defs>
       <use xlink:href="#IPAexGothic-48"/>
       <use x="62.988281" xlink:href="#IPAexGothic-46"/>
       <use x="89.404297" xlink:href="#IPAexGothic-48"/>
       <use x="152.392578" xlink:href="#IPAexGothic-56"/>
      </g>
     </g>
    </g>
    <g id="text_14">
     <!-- Density -->
     <g style="fill:#262626;" transform="translate(16.18875 136.920937)rotate(-90)scale(0.12 -0.12)">
      <defs>
       <path d="M 9.515625 72.40625 
L 31 72.40625 
Q 49.359375 72.40625 59.234375 63.28125 
Q 69.625 53.8125 69.625 36.8125 
Q 69.625 16.359375 54.9375 6.890625 
Q 45.703125 0.984375 30.328125 0.984375 
L 9.515625 0.984375 
z
M 18.3125 8.6875 
L 29.59375 8.6875 
Q 60.203125 8.6875 60.203125 36.8125 
Q 60.203125 64.796875 30.125 64.796875 
L 18.3125 64.796875 
z
" id="IPAexGothic-68"/>
       <path d="M 52 0.984375 
L 43.40625 0.984375 
L 43.40625 31.890625 
Q 43.40625 44.578125 32.90625 44.578125 
Q 22.3125 44.578125 17.390625 31.890625 
L 17.390625 0.984375 
L 8.796875 0.984375 
L 8.796875 50.78125 
L 16.796875 50.78125 
L 16.796875 41.796875 
Q 23.828125 51.8125 34.71875 51.8125 
Q 52 51.8125 52 32.375 
z
" id="IPAexGothic-110"/>
       <path d="M 34.90625 39.796875 
Q 30.28125 45.796875 23.1875 45.796875 
Q 13.921875 45.796875 13.921875 38.671875 
Q 13.921875 33.640625 23.921875 30.375 
L 27.203125 29.296875 
Q 41.40625 24.65625 41.40625 13.96875 
Q 41.40625 6.78125 35.5 2.6875 
Q 30.8125 -0.484375 23.390625 -0.484375 
Q 11.96875 -0.484375 4 7.859375 
L 9.421875 12.796875 
Q 15.578125 6.203125 23.6875 6.203125 
Q 33.296875 6.203125 33.296875 13.671875 
Q 33.296875 19.34375 22.703125 23.09375 
L 19.28125 24.265625 
Q 5.90625 28.953125 5.90625 37.984375 
Q 5.90625 43.703125 9.8125 47.609375 
Q 14.5 52.296875 22.703125 52.296875 
Q 33.6875 52.296875 40.71875 44.671875 
z
" id="IPAexGothic-115"/>
       <path d="M 18.40625 61.375 
L 8.59375 61.375 
L 8.59375 71.390625 
L 18.40625 71.390625 
z
M 17.78125 0.984375 
L 9.1875 0.984375 
L 9.1875 50.78125 
L 17.78125 50.78125 
z
" id="IPAexGothic-105"/>
       <path d="M 33.203125 3.765625 
Q 27.640625 -0.09375 21.828125 -0.09375 
Q 10.203125 -0.09375 10.203125 12.984375 
L 10.203125 44.671875 
L 3.421875 44.671875 
L 3.421875 50.78125 
L 10.203125 50.78125 
L 10.203125 61.96875 
L 18.40625 66.0625 
L 18.40625 50.78125 
L 32.234375 50.78125 
L 32.234375 44.671875 
L 18.40625 44.671875 
L 18.40625 14.15625 
Q 18.40625 6.5 23.640625 6.5 
Q 27.15625 6.5 30.328125 9.1875 
z
" id="IPAexGothic-116"/>
       <path d="M 48.78125 50.78125 
L 24.609375 -7.625 
Q 19.96875 -18.796875 8.59375 -18.796875 
L 7.46875 -18.796875 
L 5.375 -10.984375 
L 6.984375 -10.984375 
Q 15.140625 -10.984375 17.96875 -3.71875 
L 21.1875 4.296875 
L 0.59375 50.78125 
L 10.296875 50.78125 
L 21.296875 22.796875 
Q 23.875 16.015625 25.09375 12.203125 
L 25.390625 12.203125 
Q 27.34375 18.265625 29.109375 22.796875 
L 39.5 50.78125 
z
" id="IPAexGothic-121"/>
      </defs>
      <use xlink:href="#IPAexGothic-68"/>
      <use x="75.683594" xlink:href="#IPAexGothic-101"/>
      <use x="132.568359" xlink:href="#IPAexGothic-110"/>
      <use x="192.96875" xlink:href="#IPAexGothic-115"/>
      <use x="239.160156" xlink:href="#IPAexGothic-105"/>
      <use x="266.162109" xlink:href="#IPAexGothic-116"/>
      <use x="300.78125" xlink:href="#IPAexGothic-121"/>
     </g>
    </g>
   </g>
   <g id="patch_3">
    <path clip-path="url(#pfdb76ec61b)" d="M 110.581665 224.64 
L 112.831232 224.64 
L 112.831232 204.917551 
L 110.581665 204.917551 
z
" style="fill:#55a868;opacity:0.4;stroke:#ffffff;stroke-linejoin:miter;"/>
   </g>
   <g id="patch_4">
    <path clip-path="url(#pfdb76ec61b)" d="M 112.831232 224.64 
L 115.080799 224.64 
L 115.080799 214.778776 
L 112.831232 214.778776 
z
" style="fill:#55a868;opacity:0.4;stroke:#ffffff;stroke-linejoin:miter;"/>
   </g>
   <g id="patch_5">
    <path clip-path="url(#pfdb76ec61b)" d="M 115.080799 224.64 
L 117.330365 224.64 
L 117.330365 214.778776 
L 115.080799 214.778776 
z
" style="fill:#55a868;opacity:0.4;stroke:#ffffff;stroke-linejoin:miter;"/>
   </g>
   <g id="patch_6">
    <path clip-path="url(#pfdb76ec61b)" d="M 117.330365 224.64 
L 119.579932 224.64 
L 119.579932 224.64 
L 117.330365 224.64 
z
" style="fill:#55a868;opacity:0.4;stroke:#ffffff;stroke-linejoin:miter;"/>
   </g>
   <g id="patch_7">
    <path clip-path="url(#pfdb76ec61b)" d="M 119.579932 224.64 
L 121.829499 224.64 
L 121.829499 175.333878 
L 119.579932 175.333878 
z
" style="fill:#55a868;opacity:0.4;stroke:#ffffff;stroke-linejoin:miter;"/>
   </g>
   <g id="patch_8">
    <path clip-path="url(#pfdb76ec61b)" d="M 121.829499 224.64 
L 124.079065 224.64 
L 124.079065 204.917551 
L 121.829499 204.917551 
z
" style="fill:#55a868;opacity:0.4;stroke:#ffffff;stroke-linejoin:miter;"/>
   </g>
   <g id="patch_9">
    <path clip-path="url(#pfdb76ec61b)" d="M 124.079065 224.64 
L 126.328632 224.64 
L 126.328632 214.778776 
L 124.079065 214.778776 
z
" style="fill:#55a868;opacity:0.4;stroke:#ffffff;stroke-linejoin:miter;"/>
   </g>
   <g id="patch_10">
    <path clip-path="url(#pfdb76ec61b)" d="M 126.328632 224.64 
L 128.578199 224.64 
L 128.578199 165.472653 
L 126.328632 165.472653 
z
" style="fill:#55a868;opacity:0.4;stroke:#ffffff;stroke-linejoin:miter;"/>
   </g>
   <g id="patch_11">
    <path clip-path="url(#pfdb76ec61b)" d="M 128.578199 224.64 
L 130.827766 224.64 
L 130.827766 195.056327 
L 128.578199 195.056327 
z
" style="fill:#55a868;opacity:0.4;stroke:#ffffff;stroke-linejoin:miter;"/>
   </g>
   <g id="patch_12">
    <path clip-path="url(#pfdb76ec61b)" d="M 130.827766 224.64 
L 133.077332 224.64 
L 133.077332 224.64 
L 130.827766 224.64 
z
" style="fill:#55a868;opacity:0.4;stroke:#ffffff;stroke-linejoin:miter;"/>
   </g>
   <g id="patch_13">
    <path clip-path="url(#pfdb76ec61b)" d="M 133.077332 224.64 
L 135.326899 224.64 
L 135.326899 195.056327 
L 133.077332 195.056327 
z
" style="fill:#55a868;opacity:0.4;stroke:#ffffff;stroke-linejoin:miter;"/>
   </g>
   <g id="patch_14">
    <path clip-path="url(#pfdb76ec61b)" d="M 135.326899 224.64 
L 137.576466 224.64 
L 137.576466 195.056327 
L 135.326899 195.056327 
z
" style="fill:#55a868;opacity:0.4;stroke:#ffffff;stroke-linejoin:miter;"/>
   </g>
   <g id="patch_15">
    <path clip-path="url(#pfdb76ec61b)" d="M 137.576466 224.64 
L 139.826032 224.64 
L 139.826032 175.333878 
L 137.576466 175.333878 
z
" style="fill:#55a868;opacity:0.4;stroke:#ffffff;stroke-linejoin:miter;"/>
   </g>
   <g id="patch_16">
    <path clip-path="url(#pfdb76ec61b)" d="M 139.826032 224.64 
L 142.075599 224.64 
L 142.075599 195.056327 
L 139.826032 195.056327 
z
" style="fill:#55a868;opacity:0.4;stroke:#ffffff;stroke-linejoin:miter;"/>
   </g>
   <g id="patch_17">
    <path clip-path="url(#pfdb76ec61b)" d="M 142.075599 224.64 
L 144.325166 224.64 
L 144.325166 185.195102 
L 142.075599 185.195102 
z
" style="fill:#55a868;opacity:0.4;stroke:#ffffff;stroke-linejoin:miter;"/>
   </g>
   <g id="patch_18">
    <path clip-path="url(#pfdb76ec61b)" d="M 144.325166 224.64 
L 146.574732 224.64 
L 146.574732 165.472653 
L 144.325166 165.472653 
z
" style="fill:#55a868;opacity:0.4;stroke:#ffffff;stroke-linejoin:miter;"/>
   </g>
   <g id="patch_19">
    <path clip-path="url(#pfdb76ec61b)" d="M 146.574732 224.64 
L 148.824299 224.64 
L 148.824299 195.056327 
L 146.574732 195.056327 
z
" style="fill:#55a868;opacity:0.4;stroke:#ffffff;stroke-linejoin:miter;"/>
   </g>
   <g id="patch_20">
    <path clip-path="url(#pfdb76ec61b)" d="M 148.824299 224.64 
L 151.073866 224.64 
L 151.073866 175.333878 
L 148.824299 175.333878 
z
" style="fill:#55a868;opacity:0.4;stroke:#ffffff;stroke-linejoin:miter;"/>
   </g>
   <g id="patch_21">
    <path clip-path="url(#pfdb76ec61b)" d="M 151.073866 224.64 
L 153.323432 224.64 
L 153.323432 86.582857 
L 151.073866 86.582857 
z
" style="fill:#55a868;opacity:0.4;stroke:#ffffff;stroke-linejoin:miter;"/>
   </g>
   <g id="patch_22">
    <path clip-path="url(#pfdb76ec61b)" d="M 153.323432 224.64 
L 155.572999 224.64 
L 155.572999 135.88898 
L 153.323432 135.88898 
z
" style="fill:#55a868;opacity:0.4;stroke:#ffffff;stroke-linejoin:miter;"/>
   </g>
   <g id="patch_23">
    <path clip-path="url(#pfdb76ec61b)" d="M 155.572999 224.64 
L 157.822566 224.64 
L 157.822566 135.88898 
L 155.572999 135.88898 
z
" style="fill:#55a868;opacity:0.4;stroke:#ffffff;stroke-linejoin:miter;"/>
   </g>
   <g id="patch_24">
    <path clip-path="url(#pfdb76ec61b)" d="M 157.822566 224.64 
L 160.072133 224.64 
L 160.072133 165.472653 
L 157.822566 165.472653 
z
" style="fill:#55a868;opacity:0.4;stroke:#ffffff;stroke-linejoin:miter;"/>
   </g>
   <g id="patch_25">
    <path clip-path="url(#pfdb76ec61b)" d="M 160.072133 224.64 
L 162.321699 224.64 
L 162.321699 116.166531 
L 160.072133 116.166531 
z
" style="fill:#55a868;opacity:0.4;stroke:#ffffff;stroke-linejoin:miter;"/>
   </g>
   <g id="patch_26">
    <path clip-path="url(#pfdb76ec61b)" d="M 162.321699 224.64 
L 164.571266 224.64 
L 164.571266 145.750204 
L 162.321699 145.750204 
z
" style="fill:#55a868;opacity:0.4;stroke:#ffffff;stroke-linejoin:miter;"/>
   </g>
   <g id="patch_27">
    <path clip-path="url(#pfdb76ec61b)" d="M 164.571266 224.64 
L 166.820833 224.64 
L 166.820833 165.472653 
L 164.571266 165.472653 
z
" style="fill:#55a868;opacity:0.4;stroke:#ffffff;stroke-linejoin:miter;"/>
   </g>
   <g id="patch_28">
    <path clip-path="url(#pfdb76ec61b)" d="M 166.820833 224.64 
L 169.070399 224.64 
L 169.070399 145.750204 
L 166.820833 145.750204 
z
" style="fill:#55a868;opacity:0.4;stroke:#ffffff;stroke-linejoin:miter;"/>
   </g>
   <g id="patch_29">
    <path clip-path="url(#pfdb76ec61b)" d="M 169.070399 224.64 
L 171.319966 224.64 
L 171.319966 165.472653 
L 169.070399 165.472653 
z
" style="fill:#55a868;opacity:0.4;stroke:#ffffff;stroke-linejoin:miter;"/>
   </g>
   <g id="patch_30">
    <path clip-path="url(#pfdb76ec61b)" d="M 171.319966 224.64 
L 173.569533 224.64 
L 173.569533 126.027755 
L 171.319966 126.027755 
z
" style="fill:#55a868;opacity:0.4;stroke:#ffffff;stroke-linejoin:miter;"/>
   </g>
   <g id="patch_31">
    <path clip-path="url(#pfdb76ec61b)" d="M 173.569533 224.64 
L 175.819099 224.64 
L 175.819099 135.88898 
L 173.569533 135.88898 
z
" style="fill:#55a868;opacity:0.4;stroke:#ffffff;stroke-linejoin:miter;"/>
   </g>
   <g id="patch_32">
    <path clip-path="url(#pfdb76ec61b)" d="M 175.819099 224.64 
L 178.068666 224.64 
L 178.068666 135.88898 
L 175.819099 135.88898 
z
" style="fill:#55a868;opacity:0.4;stroke:#ffffff;stroke-linejoin:miter;"/>
   </g>
   <g id="patch_33">
    <path clip-path="url(#pfdb76ec61b)" d="M 178.068666 224.64 
L 180.318233 224.64 
L 180.318233 76.721633 
L 178.068666 76.721633 
z
" style="fill:#55a868;opacity:0.4;stroke:#ffffff;stroke-linejoin:miter;"/>
   </g>
   <g id="patch_34">
    <path clip-path="url(#pfdb76ec61b)" d="M 180.318233 224.64 
L 182.5678 224.64 
L 182.5678 96.444082 
L 180.318233 96.444082 
z
" style="fill:#55a868;opacity:0.4;stroke:#ffffff;stroke-linejoin:miter;"/>
   </g>
   <g id="patch_35">
    <path clip-path="url(#pfdb76ec61b)" d="M 182.5678 224.64 
L 184.817366 224.64 
L 184.817366 27.41551 
L 182.5678 27.41551 
z
" style="fill:#55a868;opacity:0.4;stroke:#ffffff;stroke-linejoin:miter;"/>
   </g>
   <g id="patch_36">
    <path clip-path="url(#pfdb76ec61b)" d="M 184.817366 224.64 
L 187.066933 224.64 
L 187.066933 66.860408 
L 184.817366 66.860408 
z
" style="fill:#55a868;opacity:0.4;stroke:#ffffff;stroke-linejoin:miter;"/>
   </g>
   <g id="patch_37">
    <path clip-path="url(#pfdb76ec61b)" d="M 187.066933 224.64 
L 189.3165 224.64 
L 189.3165 37.276735 
L 187.066933 37.276735 
z
" style="fill:#55a868;opacity:0.4;stroke:#ffffff;stroke-linejoin:miter;"/>
   </g>
   <g id="patch_38">
    <path clip-path="url(#pfdb76ec61b)" d="M 189.3165 224.64 
L 191.566066 224.64 
L 191.566066 126.027755 
L 189.3165 126.027755 
z
" style="fill:#55a868;opacity:0.4;stroke:#ffffff;stroke-linejoin:miter;"/>
   </g>
   <g id="patch_39">
    <path clip-path="url(#pfdb76ec61b)" d="M 191.566066 224.64 
L 193.815633 224.64 
L 193.815633 86.582857 
L 191.566066 86.582857 
z
" style="fill:#55a868;opacity:0.4;stroke:#ffffff;stroke-linejoin:miter;"/>
   </g>
   <g id="patch_40">
    <path clip-path="url(#pfdb76ec61b)" d="M 193.815633 224.64 
L 196.0652 224.64 
L 196.0652 37.276735 
L 193.815633 37.276735 
z
" style="fill:#55a868;opacity:0.4;stroke:#ffffff;stroke-linejoin:miter;"/>
   </g>
   <g id="patch_41">
    <path clip-path="url(#pfdb76ec61b)" d="M 196.0652 224.64 
L 198.314766 224.64 
L 198.314766 96.444082 
L 196.0652 96.444082 
z
" style="fill:#55a868;opacity:0.4;stroke:#ffffff;stroke-linejoin:miter;"/>
   </g>
   <g id="patch_42">
    <path clip-path="url(#pfdb76ec61b)" d="M 198.314766 224.64 
L 200.564333 224.64 
L 200.564333 76.721633 
L 198.314766 76.721633 
z
" style="fill:#55a868;opacity:0.4;stroke:#ffffff;stroke-linejoin:miter;"/>
   </g>
   <g id="patch_43">
    <path clip-path="url(#pfdb76ec61b)" d="M 200.564333 224.64 
L 202.8139 224.64 
L 202.8139 17.554286 
L 200.564333 17.554286 
z
" style="fill:#55a868;opacity:0.4;stroke:#ffffff;stroke-linejoin:miter;"/>
   </g>
   <g id="patch_44">
    <path clip-path="url(#pfdb76ec61b)" d="M 202.8139 224.64 
L 205.063466 224.64 
L 205.063466 66.860408 
L 202.8139 66.860408 
z
" style="fill:#55a868;opacity:0.4;stroke:#ffffff;stroke-linejoin:miter;"/>
   </g>
   <g id="patch_45">
    <path clip-path="url(#pfdb76ec61b)" d="M 205.063466 224.64 
L 207.313033 224.64 
L 207.313033 135.88898 
L 205.063466 135.88898 
z
" style="fill:#55a868;opacity:0.4;stroke:#ffffff;stroke-linejoin:miter;"/>
   </g>
   <g id="patch_46">
    <path clip-path="url(#pfdb76ec61b)" d="M 207.313033 224.64 
L 209.5626 224.64 
L 209.5626 106.305306 
L 207.313033 106.305306 
z
" style="fill:#55a868;opacity:0.4;stroke:#ffffff;stroke-linejoin:miter;"/>
   </g>
   <g id="patch_47">
    <path clip-path="url(#pfdb76ec61b)" d="M 209.5626 224.64 
L 211.812167 224.64 
L 211.812167 86.582857 
L 209.5626 86.582857 
z
" style="fill:#55a868;opacity:0.4;stroke:#ffffff;stroke-linejoin:miter;"/>
   </g>
   <g id="patch_48">
    <path clip-path="url(#pfdb76ec61b)" d="M 211.812167 224.64 
L 214.061733 224.64 
L 214.061733 214.778776 
L 211.812167 214.778776 
z
" style="fill:#55a868;opacity:0.4;stroke:#ffffff;stroke-linejoin:miter;"/>
   </g>
   <g id="patch_49">
    <path clip-path="url(#pfdb76ec61b)" d="M 214.061733 224.64 
L 216.3113 224.64 
L 216.3113 224.64 
L 214.061733 224.64 
z
" style="fill:#55a868;opacity:0.4;stroke:#ffffff;stroke-linejoin:miter;"/>
   </g>
   <g id="patch_50">
    <path clip-path="url(#pfdb76ec61b)" d="M 216.3113 224.64 
L 218.560867 224.64 
L 218.560867 185.195102 
L 216.3113 185.195102 
z
" style="fill:#55a868;opacity:0.4;stroke:#ffffff;stroke-linejoin:miter;"/>
   </g>
   <g id="patch_51">
    <path clip-path="url(#pfdb76ec61b)" d="M 218.560867 224.64 
L 220.810433 224.64 
L 220.810433 175.333878 
L 218.560867 175.333878 
z
" style="fill:#55a868;opacity:0.4;stroke:#ffffff;stroke-linejoin:miter;"/>
   </g>
   <g id="patch_52">
    <path clip-path="url(#pfdb76ec61b)" d="M 220.810433 224.64 
L 223.06 224.64 
L 223.06 204.917551 
L 220.810433 204.917551 
z
" style="fill:#55a868;opacity:0.4;stroke:#ffffff;stroke-linejoin:miter;"/>
   </g>
   <g id="patch_53">
    <path clip-path="url(#pfdb76ec61b)" d="M 223.06 224.64 
L 225.309567 224.64 
L 225.309567 165.472653 
L 223.06 165.472653 
z
" style="fill:#55a868;opacity:0.4;stroke:#ffffff;stroke-linejoin:miter;"/>
   </g>
   <g id="patch_54">
    <path clip-path="url(#pfdb76ec61b)" d="M 225.309567 224.64 
L 227.559133 224.64 
L 227.559133 175.333878 
L 225.309567 175.333878 
z
" style="fill:#55a868;opacity:0.4;stroke:#ffffff;stroke-linejoin:miter;"/>
   </g>
   <g id="patch_55">
    <path clip-path="url(#pfdb76ec61b)" d="M 227.559133 224.64 
L 229.8087 224.64 
L 229.8087 175.333878 
L 227.559133 175.333878 
z
" style="fill:#55a868;opacity:0.4;stroke:#ffffff;stroke-linejoin:miter;"/>
   </g>
   <g id="patch_56">
    <path clip-path="url(#pfdb76ec61b)" d="M 229.8087 224.64 
L 232.058267 224.64 
L 232.058267 185.195102 
L 229.8087 185.195102 
z
" style="fill:#55a868;opacity:0.4;stroke:#ffffff;stroke-linejoin:miter;"/>
   </g>
   <g id="patch_57">
    <path clip-path="url(#pfdb76ec61b)" d="M 232.058267 224.64 
L 234.307833 224.64 
L 234.307833 195.056327 
L 232.058267 195.056327 
z
" style="fill:#55a868;opacity:0.4;stroke:#ffffff;stroke-linejoin:miter;"/>
   </g>
   <g id="patch_58">
    <path clip-path="url(#pfdb76ec61b)" d="M 234.307833 224.64 
L 236.5574 224.64 
L 236.5574 165.472653 
L 234.307833 165.472653 
z
" style="fill:#55a868;opacity:0.4;stroke:#ffffff;stroke-linejoin:miter;"/>
   </g>
   <g id="patch_59">
    <path clip-path="url(#pfdb76ec61b)" d="M 236.5574 224.64 
L 238.806967 224.64 
L 238.806967 204.917551 
L 236.5574 204.917551 
z
" style="fill:#55a868;opacity:0.4;stroke:#ffffff;stroke-linejoin:miter;"/>
   </g>
   <g id="patch_60">
    <path clip-path="url(#pfdb76ec61b)" d="M 238.806967 224.64 
L 241.056534 224.64 
L 241.056534 195.056327 
L 238.806967 195.056327 
z
" style="fill:#55a868;opacity:0.4;stroke:#ffffff;stroke-linejoin:miter;"/>
   </g>
   <g id="patch_61">
    <path clip-path="url(#pfdb76ec61b)" d="M 241.056534 224.64 
L 243.3061 224.64 
L 243.3061 185.195102 
L 241.056534 185.195102 
z
" style="fill:#55a868;opacity:0.4;stroke:#ffffff;stroke-linejoin:miter;"/>
   </g>
   <g id="patch_62">
    <path clip-path="url(#pfdb76ec61b)" d="M 243.3061 224.64 
L 245.555667 224.64 
L 245.555667 195.056327 
L 243.3061 195.056327 
z
" style="fill:#55a868;opacity:0.4;stroke:#ffffff;stroke-linejoin:miter;"/>
   </g>
   <g id="patch_63">
    <path clip-path="url(#pfdb76ec61b)" d="M 245.555667 224.64 
L 247.805234 224.64 
L 247.805234 185.195102 
L 245.555667 185.195102 
z
" style="fill:#55a868;opacity:0.4;stroke:#ffffff;stroke-linejoin:miter;"/>
   </g>
   <g id="patch_64">
    <path clip-path="url(#pfdb76ec61b)" d="M 247.805234 224.64 
L 250.0548 224.64 
L 250.0548 195.056327 
L 247.805234 195.056327 
z
" style="fill:#55a868;opacity:0.4;stroke:#ffffff;stroke-linejoin:miter;"/>
   </g>
   <g id="patch_65">
    <path clip-path="url(#pfdb76ec61b)" d="M 250.0548 224.64 
L 252.304367 224.64 
L 252.304367 165.472653 
L 250.0548 165.472653 
z
" style="fill:#55a868;opacity:0.4;stroke:#ffffff;stroke-linejoin:miter;"/>
   </g>
   <g id="patch_66">
    <path clip-path="url(#pfdb76ec61b)" d="M 252.304367 224.64 
L 254.553934 224.64 
L 254.553934 204.917551 
L 252.304367 204.917551 
z
" style="fill:#55a868;opacity:0.4;stroke:#ffffff;stroke-linejoin:miter;"/>
   </g>
   <g id="patch_67">
    <path clip-path="url(#pfdb76ec61b)" d="M 254.553934 224.64 
L 256.8035 224.64 
L 256.8035 214.778776 
L 254.553934 214.778776 
z
" style="fill:#55a868;opacity:0.4;stroke:#ffffff;stroke-linejoin:miter;"/>
   </g>
   <g id="patch_68">
    <path clip-path="url(#pfdb76ec61b)" d="M 256.8035 224.64 
L 259.053067 224.64 
L 259.053067 214.778776 
L 256.8035 214.778776 
z
" style="fill:#55a868;opacity:0.4;stroke:#ffffff;stroke-linejoin:miter;"/>
   </g>
   <g id="patch_69">
    <path clip-path="url(#pfdb76ec61b)" d="M 259.053067 224.64 
L 261.302634 224.64 
L 261.302634 175.333878 
L 259.053067 175.333878 
z
" style="fill:#55a868;opacity:0.4;stroke:#ffffff;stroke-linejoin:miter;"/>
   </g>
   <g id="patch_70">
    <path clip-path="url(#pfdb76ec61b)" d="M 261.302634 224.64 
L 263.5522 224.64 
L 263.5522 195.056327 
L 261.302634 195.056327 
z
" style="fill:#55a868;opacity:0.4;stroke:#ffffff;stroke-linejoin:miter;"/>
   </g>
   <g id="patch_71">
    <path clip-path="url(#pfdb76ec61b)" d="M 263.5522 224.64 
L 265.801767 224.64 
L 265.801767 214.778776 
L 263.5522 214.778776 
z
" style="fill:#55a868;opacity:0.4;stroke:#ffffff;stroke-linejoin:miter;"/>
   </g>
   <g id="patch_72">
    <path clip-path="url(#pfdb76ec61b)" d="M 265.801767 224.64 
L 268.051334 224.64 
L 268.051334 185.195102 
L 265.801767 185.195102 
z
" style="fill:#55a868;opacity:0.4;stroke:#ffffff;stroke-linejoin:miter;"/>
   </g>
   <g id="patch_73">
    <path clip-path="url(#pfdb76ec61b)" d="M 268.051334 224.64 
L 270.300901 224.64 
L 270.300901 214.778776 
L 268.051334 214.778776 
z
" style="fill:#55a868;opacity:0.4;stroke:#ffffff;stroke-linejoin:miter;"/>
   </g>
   <g id="patch_74">
    <path clip-path="url(#pfdb76ec61b)" d="M 270.300901 224.64 
L 272.550467 224.64 
L 272.550467 195.056327 
L 270.300901 195.056327 
z
" style="fill:#55a868;opacity:0.4;stroke:#ffffff;stroke-linejoin:miter;"/>
   </g>
   <g id="patch_75">
    <path clip-path="url(#pfdb76ec61b)" d="M 272.550467 224.64 
L 274.800034 224.64 
L 274.800034 214.778776 
L 272.550467 214.778776 
z
" style="fill:#55a868;opacity:0.4;stroke:#ffffff;stroke-linejoin:miter;"/>
   </g>
   <g id="patch_76">
    <path clip-path="url(#pfdb76ec61b)" d="M 274.800034 224.64 
L 277.049601 224.64 
L 277.049601 214.778776 
L 274.800034 214.778776 
z
" style="fill:#55a868;opacity:0.4;stroke:#ffffff;stroke-linejoin:miter;"/>
   </g>
   <g id="patch_77">
    <path clip-path="url(#pfdb76ec61b)" d="M 277.049601 224.64 
L 279.299167 224.64 
L 279.299167 214.778776 
L 277.049601 214.778776 
z
" style="fill:#55a868;opacity:0.4;stroke:#ffffff;stroke-linejoin:miter;"/>
   </g>
   <g id="patch_78">
    <path clip-path="url(#pfdb76ec61b)" d="M 279.299167 224.64 
L 281.548734 224.64 
L 281.548734 224.64 
L 279.299167 224.64 
z
" style="fill:#55a868;opacity:0.4;stroke:#ffffff;stroke-linejoin:miter;"/>
   </g>
   <g id="patch_79">
    <path clip-path="url(#pfdb76ec61b)" d="M 281.548734 224.64 
L 283.798301 224.64 
L 283.798301 224.64 
L 281.548734 224.64 
z
" style="fill:#55a868;opacity:0.4;stroke:#ffffff;stroke-linejoin:miter;"/>
   </g>
   <g id="patch_80">
    <path clip-path="url(#pfdb76ec61b)" d="M 283.798301 224.64 
L 286.047867 224.64 
L 286.047867 214.778776 
L 283.798301 214.778776 
z
" style="fill:#55a868;opacity:0.4;stroke:#ffffff;stroke-linejoin:miter;"/>
   </g>
   <g id="patch_81">
    <path clip-path="url(#pfdb76ec61b)" d="M 286.047867 224.64 
L 288.297434 224.64 
L 288.297434 224.64 
L 286.047867 224.64 
z
" style="fill:#55a868;opacity:0.4;stroke:#ffffff;stroke-linejoin:miter;"/>
   </g>
   <g id="patch_82">
    <path clip-path="url(#pfdb76ec61b)" d="M 288.297434 224.64 
L 290.547001 224.64 
L 290.547001 224.64 
L 288.297434 224.64 
z
" style="fill:#55a868;opacity:0.4;stroke:#ffffff;stroke-linejoin:miter;"/>
   </g>
   <g id="patch_83">
    <path clip-path="url(#pfdb76ec61b)" d="M 290.547001 224.64 
L 292.796568 224.64 
L 292.796568 214.778776 
L 290.547001 214.778776 
z
" style="fill:#55a868;opacity:0.4;stroke:#ffffff;stroke-linejoin:miter;"/>
   </g>
   <g id="patch_84">
    <path clip-path="url(#pfdb76ec61b)" d="M 292.796568 224.64 
L 295.046134 224.64 
L 295.046134 214.778776 
L 292.796568 214.778776 
z
" style="fill:#55a868;opacity:0.4;stroke:#ffffff;stroke-linejoin:miter;"/>
   </g>
   <g id="patch_85">
    <path clip-path="url(#pfdb76ec61b)" d="M 295.046134 224.64 
L 297.295701 224.64 
L 297.295701 214.778776 
L 295.046134 214.778776 
z
" style="fill:#55a868;opacity:0.4;stroke:#ffffff;stroke-linejoin:miter;"/>
   </g>
   <g id="patch_86">
    <path clip-path="url(#pfdb76ec61b)" d="M 297.295701 224.64 
L 299.545268 224.64 
L 299.545268 214.778776 
L 297.295701 214.778776 
z
" style="fill:#55a868;opacity:0.4;stroke:#ffffff;stroke-linejoin:miter;"/>
   </g>
   <g id="patch_87">
    <path clip-path="url(#pfdb76ec61b)" d="M 299.545268 224.64 
L 301.794834 224.64 
L 301.794834 214.778776 
L 299.545268 214.778776 
z
" style="fill:#55a868;opacity:0.4;stroke:#ffffff;stroke-linejoin:miter;"/>
   </g>
   <g id="patch_88">
    <path clip-path="url(#pfdb76ec61b)" d="M 301.794834 224.64 
L 304.044401 224.64 
L 304.044401 214.778776 
L 301.794834 214.778776 
z
" style="fill:#55a868;opacity:0.4;stroke:#ffffff;stroke-linejoin:miter;"/>
   </g>
   <g id="patch_89">
    <path clip-path="url(#pfdb76ec61b)" d="M 304.044401 224.64 
L 306.293968 224.64 
L 306.293968 204.917551 
L 304.044401 204.917551 
z
" style="fill:#55a868;opacity:0.4;stroke:#ffffff;stroke-linejoin:miter;"/>
   </g>
   <g id="patch_90">
    <path clip-path="url(#pfdb76ec61b)" d="M 306.293968 224.64 
L 308.543534 224.64 
L 308.543534 224.64 
L 306.293968 224.64 
z
" style="fill:#55a868;opacity:0.4;stroke:#ffffff;stroke-linejoin:miter;"/>
   </g>
   <g id="patch_91">
    <path clip-path="url(#pfdb76ec61b)" d="M 308.543534 224.64 
L 310.793101 224.64 
L 310.793101 214.778776 
L 308.543534 214.778776 
z
" style="fill:#55a868;opacity:0.4;stroke:#ffffff;stroke-linejoin:miter;"/>
   </g>
   <g id="patch_92">
    <path clip-path="url(#pfdb76ec61b)" d="M 310.793101 224.64 
L 313.042668 224.64 
L 313.042668 214.778776 
L 310.793101 214.778776 
z
" style="fill:#55a868;opacity:0.4;stroke:#ffffff;stroke-linejoin:miter;"/>
   </g>
   <g id="patch_93">
    <path clip-path="url(#pfdb76ec61b)" d="M 313.042668 224.64 
L 315.292234 224.64 
L 315.292234 224.64 
L 313.042668 224.64 
z
" style="fill:#55a868;opacity:0.4;stroke:#ffffff;stroke-linejoin:miter;"/>
   </g>
   <g id="patch_94">
    <path clip-path="url(#pfdb76ec61b)" d="M 315.292234 224.64 
L 317.541801 224.64 
L 317.541801 214.778776 
L 315.292234 214.778776 
z
" style="fill:#55a868;opacity:0.4;stroke:#ffffff;stroke-linejoin:miter;"/>
   </g>
   <g id="patch_95">
    <path clip-path="url(#pfdb76ec61b)" d="M 317.541801 224.64 
L 319.791368 224.64 
L 319.791368 214.778776 
L 317.541801 214.778776 
z
" style="fill:#55a868;opacity:0.4;stroke:#ffffff;stroke-linejoin:miter;"/>
   </g>
   <g id="patch_96">
    <path clip-path="url(#pfdb76ec61b)" d="M 319.791368 224.64 
L 322.040935 224.64 
L 322.040935 224.64 
L 319.791368 224.64 
z
" style="fill:#55a868;opacity:0.4;stroke:#ffffff;stroke-linejoin:miter;"/>
   </g>
   <g id="patch_97">
    <path clip-path="url(#pfdb76ec61b)" d="M 322.040935 224.64 
L 324.290501 224.64 
L 324.290501 224.64 
L 322.040935 224.64 
z
" style="fill:#55a868;opacity:0.4;stroke:#ffffff;stroke-linejoin:miter;"/>
   </g>
   <g id="patch_98">
    <path clip-path="url(#pfdb76ec61b)" d="M 324.290501 224.64 
L 326.540068 224.64 
L 326.540068 224.64 
L 324.290501 224.64 
z
" style="fill:#55a868;opacity:0.4;stroke:#ffffff;stroke-linejoin:miter;"/>
   </g>
   <g id="patch_99">
    <path clip-path="url(#pfdb76ec61b)" d="M 326.540068 224.64 
L 328.789635 224.64 
L 328.789635 204.917551 
L 326.540068 204.917551 
z
" style="fill:#55a868;opacity:0.4;stroke:#ffffff;stroke-linejoin:miter;"/>
   </g>
   <g id="patch_100">
    <path clip-path="url(#pfdb76ec61b)" d="M 328.789635 224.64 
L 331.039201 224.64 
L 331.039201 214.778776 
L 328.789635 214.778776 
z
" style="fill:#55a868;opacity:0.4;stroke:#ffffff;stroke-linejoin:miter;"/>
   </g>
   <g id="patch_101">
    <path clip-path="url(#pfdb76ec61b)" d="M 331.039201 224.64 
L 333.288768 224.64 
L 333.288768 224.64 
L 331.039201 224.64 
z
" style="fill:#55a868;opacity:0.4;stroke:#ffffff;stroke-linejoin:miter;"/>
   </g>
   <g id="patch_102">
    <path clip-path="url(#pfdb76ec61b)" d="M 333.288768 224.64 
L 335.538335 224.64 
L 335.538335 66.860408 
L 333.288768 66.860408 
z
" style="fill:#55a868;opacity:0.4;stroke:#ffffff;stroke-linejoin:miter;"/>
   </g>
   <g id="line2d_13">
    <path clip-path="url(#pfdb76ec61b)" d="M 70.878182 224.616207 
L 80.054975 224.460913 
L 84.643371 224.21732 
L 89.231768 223.732837 
L 92.290699 223.205108 
L 95.34963 222.456903 
L 98.408561 221.440481 
L 101.467492 220.115912 
L 104.526423 218.457763 
L 107.585354 216.460157 
L 110.644285 214.138186 
L 113.703216 211.524183 
L 116.762147 208.658579 
L 121.350544 203.961739 
L 125.93894 198.8107 
L 128.997871 195.083584 
L 132.056802 191.068116 
L 135.115733 186.72332 
L 138.174664 182.037824 
L 142.763061 174.458933 
L 158.057716 147.94345 
L 162.646112 139.758663 
L 165.705043 133.914878 
L 168.763974 127.664478 
L 173.352371 117.665839 
L 177.940767 107.66089 
L 180.999698 101.656151 
L 182.529164 99.032902 
L 184.05863 96.742966 
L 185.588095 94.843157 
L 187.117561 93.385244 
L 188.647026 92.414399 
L 190.176492 91.967859 
L 191.705957 92.073801 
L 193.235423 92.750416 
L 194.764888 94.005166 
L 196.294354 95.834245 
L 197.823819 98.222241 
L 199.353285 101.142064 
L 200.88275 104.555182 
L 202.412216 108.412208 
L 205.471147 117.21266 
L 208.530078 126.980295 
L 214.64794 146.914718 
L 217.706871 155.951111 
L 220.765802 163.838886 
L 222.295267 167.29254 
L 223.824733 170.411177 
L 225.354198 173.201795 
L 226.883664 175.680107 
L 228.413129 177.868729 
L 229.942595 179.795251 
L 231.47206 181.490341 
L 233.001526 182.985989 
L 236.060457 185.504729 
L 239.119388 187.58374 
L 243.707784 190.275182 
L 252.884577 195.433942 
L 257.472974 198.239544 
L 262.06137 201.265485 
L 275.82656 210.676582 
L 278.885491 212.40607 
L 281.944422 213.841411 
L 285.003353 214.943835 
L 288.062284 215.711222 
L 291.121215 216.177037 
L 294.180146 216.400446 
L 298.768543 216.429017 
L 303.356939 216.241578 
L 307.945336 215.878224 
L 312.533732 215.249053 
L 315.592663 214.628499 
L 320.18106 213.413208 
L 326.298922 211.700244 
L 329.357853 211.126099 
L 330.887318 210.978617 
L 332.416784 210.945499 
L 333.946249 211.037752 
L 335.475715 211.261388 
L 337.00518 211.616944 
L 338.534646 212.099381 
L 341.593577 213.398888 
L 344.652508 215.027019 
L 352.299836 219.399721 
L 355.358767 220.877703 
L 358.417698 222.074498 
L 361.476629 222.97908 
L 364.53556 223.61939 
L 367.594491 224.044871 
L 372.182887 224.399892 
L 375.241818 224.517265 
L 375.241818 224.517265 
" style="fill:none;stroke:#55a868;stroke-linecap:round;stroke-width:1.5;"/>
   </g>
   <g id="patch_103">
    <path d="M 55.66 224.64 
L 55.66 7.2 
" style="fill:none;stroke:#ffffff;stroke-linecap:square;stroke-linejoin:miter;stroke-width:1.25;"/>
   </g>
   <g id="patch_104">
    <path d="M 390.46 224.64 
L 390.46 7.2 
" style="fill:none;stroke:#ffffff;stroke-linecap:square;stroke-linejoin:miter;stroke-width:1.25;"/>
   </g>
   <g id="patch_105">
    <path d="M 55.66 224.64 
L 390.46 224.64 
" style="fill:none;stroke:#ffffff;stroke-linecap:square;stroke-linejoin:miter;stroke-width:1.25;"/>
   </g>
   <g id="patch_106">
    <path d="M 55.66 7.2 
L 390.46 7.2 
" style="fill:none;stroke:#ffffff;stroke-linecap:square;stroke-linejoin:miter;stroke-width:1.25;"/>
   </g>
  </g>
 </g>
 <defs>
  <clipPath id="pfdb76ec61b">
   <rect height="217.44" width="334.8" x="55.66" y="7.2"/>
  </clipPath>
 </defs>
</svg>
