<?xml version="1.0" encoding="utf-8" standalone="no"?>
<!DOCTYPE svg PUBLIC "-//W3C//DTD SVG 1.1//EN"
  "http://www.w3.org/Graphics/SVG/1.1/DTD/svg11.dtd">
<!-- Created with matplotlib (https://matplotlib.org/) -->
<svg height="266.938437pt" version="1.1" viewBox="0 0 387.825312 266.938437" width="387.825312pt" xmlns="http://www.w3.org/2000/svg" xmlns:xlink="http://www.w3.org/1999/xlink">
 <metadata>
  <rdf:RDF xmlns:cc="http://creativecommons.org/ns#" xmlns:dc="http://purl.org/dc/elements/1.1/" xmlns:rdf="http://www.w3.org/1999/02/22-rdf-syntax-ns#">
   <cc:Work>
    <dc:type rdf:resource="http://purl.org/dc/dcmitype/StillImage"/>
    <dc:date>2021-03-05T22:32:06.055609</dc:date>
    <dc:format>image/svg+xml</dc:format>
    <dc:creator>
     <cc:Agent>
      <dc:title>Matplotlib v3.3.4, https://matplotlib.org/</dc:title>
     </cc:Agent>
    </dc:creator>
   </cc:Work>
  </rdf:RDF>
 </metadata>
 <defs>
  <style type="text/css">*{stroke-linecap:butt;stroke-linejoin:round;}</style>
 </defs>
 <g id="figure_1">
  <g id="patch_1">
   <path d="M 0 266.938437 
L 387.825312 266.938437 
L 387.825312 0 
L 0 0 
z
" style="fill:#ffffff;"/>
  </g>
  <g id="axes_1">
   <g id="patch_2">
    <path d="M 45.825313 224.64 
L 380.625313 224.64 
L 380.625313 7.2 
L 45.825313 7.2 
z
" style="fill:#eaeaf2;"/>
   </g>
   <g id="matplotlib.axis_1">
    <g id="xtick_1">
     <g id="line2d_1">
      <path clip-path="url(#p52616b043c)" d="M 63.266502 224.64 
L 63.266502 7.2 
" style="fill:none;stroke:#ffffff;stroke-linecap:round;"/>
     </g>
     <g id="text_1">
      <!-- 0.3 -->
      <g style="fill:#262626;" transform="translate(54.885017 242.379687)scale(0.11 -0.11)">
       <defs>
        <path d="M 31.84375 73.828125 
Q 45.015625 73.828125 52.09375 61.625 
Q 57.71875 51.953125 57.71875 36.625 
Q 57.71875 21.4375 52.09375 11.578125 
Q 45.125 -0.484375 31.5 -0.484375 
Q 17.921875 -0.484375 10.9375 11.578125 
Q 5.328125 21.4375 5.328125 36.71875 
Q 5.328125 58.015625 15.625 67.71875 
Q 22.171875 73.828125 31.84375 73.828125 
z
M 31.5 66.65625 
Q 23.6875 66.65625 19.1875 58.734375 
Q 14.59375 50.734375 14.59375 36.625 
Q 14.59375 22.75 19.09375 14.796875 
Q 23.640625 6.984375 31.5 6.984375 
Q 40.921875 6.984375 45.453125 18.015625 
Q 48.4375 25.34375 48.4375 37.109375 
Q 48.4375 50.875 43.84375 58.734375 
Q 39.203125 66.65625 31.5 66.65625 
z
" id="IPAexGothic-48"/>
        <path d="M 18.5 0.984375 
L 7.71875 0.984375 
L 7.71875 11.765625 
L 18.5 11.765625 
z
" id="IPAexGothic-46"/>
        <path d="M 37.203125 37.796875 
Q 54.78125 34.625 54.78125 19.96875 
Q 54.78125 11.1875 48.875 5.5625 
Q 42.328125 -0.484375 30.375 -0.484375 
Q 12.453125 -0.484375 4.5 13.765625 
L 11.8125 17.671875 
Q 17.328125 6.890625 30.28125 6.890625 
Q 37.890625 6.890625 42.09375 10.796875 
Q 46.09375 14.5 46.09375 20.171875 
Q 46.09375 26.859375 40.09375 30.90625 
Q 34.625 34.578125 25.6875 34.578125 
L 21.296875 34.578125 
L 21.296875 41.703125 
L 25.875 41.703125 
Q 34.859375 41.703125 39.59375 45.125 
Q 44.671875 48.734375 44.671875 54.828125 
Q 44.671875 61.46875 38.96875 64.65625 
Q 35.296875 66.84375 30.171875 66.84375 
Q 19.34375 66.84375 14.109375 55.90625 
L 6.78125 59.421875 
Q 14.015625 73.828125 30.28125 73.828125 
Q 40.578125 73.828125 46.96875 68.65625 
Q 53.375 63.578125 53.375 55.21875 
Q 53.375 47.3125 47.171875 42.28125 
Q 43.171875 39.0625 37.203125 38.1875 
z
" id="IPAexGothic-51"/>
       </defs>
       <use xlink:href="#IPAexGothic-48"/>
       <use x="62.988281" xlink:href="#IPAexGothic-46"/>
       <use x="89.404297" xlink:href="#IPAexGothic-51"/>
      </g>
     </g>
    </g>
    <g id="xtick_2">
     <g id="line2d_2">
      <path clip-path="url(#p52616b043c)" d="M 108.985651 224.64 
L 108.985651 7.2 
" style="fill:none;stroke:#ffffff;stroke-linecap:round;"/>
     </g>
     <g id="text_2">
      <!-- 0.4 -->
      <g style="fill:#262626;" transform="translate(100.604167 242.379687)scale(0.11 -0.11)">
       <defs>
        <path d="M 59.578125 18.109375 
L 47.796875 18.109375 
L 47.796875 0.984375 
L 39.796875 0.984375 
L 39.796875 18.109375 
L 3.078125 18.109375 
L 3.078125 26.125 
L 38.375 73.09375 
L 47.796875 73.09375 
L 47.796875 25.53125 
L 59.578125 25.53125 
z
M 40.28125 64.203125 
L 39.984375 64.203125 
Q 35.59375 57.125 31.296875 51.3125 
L 11.859375 25.53125 
L 39.796875 25.53125 
L 39.796875 49.125 
Q 39.796875 54.390625 40.28125 64.203125 
z
" id="IPAexGothic-52"/>
       </defs>
       <use xlink:href="#IPAexGothic-48"/>
       <use x="62.988281" xlink:href="#IPAexGothic-46"/>
       <use x="89.404297" xlink:href="#IPAexGothic-52"/>
      </g>
     </g>
    </g>
    <g id="xtick_3">
     <g id="line2d_3">
      <path clip-path="url(#p52616b043c)" d="M 154.704801 224.64 
L 154.704801 7.2 
" style="fill:none;stroke:#ffffff;stroke-linecap:round;"/>
     </g>
     <g id="text_3">
      <!-- 0.5 -->
      <g style="fill:#262626;" transform="translate(146.323317 242.379687)scale(0.11 -0.11)">
       <defs>
        <path d="M 18.40625 40.671875 
Q 25.53125 46.296875 33.9375 46.296875 
Q 44 46.296875 50.640625 39.5 
Q 56.84375 33.015625 56.84375 23.390625 
Q 56.84375 14.65625 51.515625 8.015625 
Q 44.828125 -0.484375 31.734375 -0.484375 
Q 14.984375 -0.484375 7.328125 12.25 
L 14.65625 16.0625 
Q 20.453125 6.78125 31.453125 6.78125 
Q 38.53125 6.78125 43.265625 11.1875 
Q 48.140625 15.828125 48.140625 23.484375 
Q 48.140625 30.71875 43.84375 35.015625 
Q 39.359375 39.5 32.125 39.5 
Q 21.96875 39.5 16.75 31.6875 
L 9.234375 32.671875 
L 13.8125 72.40625 
L 53.21875 72.40625 
L 53.21875 64.890625 
L 20.953125 64.890625 
L 17.71875 40.671875 
z
" id="IPAexGothic-53"/>
       </defs>
       <use xlink:href="#IPAexGothic-48"/>
       <use x="62.988281" xlink:href="#IPAexGothic-46"/>
       <use x="89.404297" xlink:href="#IPAexGothic-53"/>
      </g>
     </g>
    </g>
    <g id="xtick_4">
     <g id="line2d_4">
      <path clip-path="url(#p52616b043c)" d="M 200.423951 224.64 
L 200.423951 7.2 
" style="fill:none;stroke:#ffffff;stroke-linecap:round;"/>
     </g>
     <g id="text_4">
      <!-- 0.6 -->
      <g style="fill:#262626;" transform="translate(192.042466 242.379687)scale(0.11 -0.11)">
       <defs>
        <path d="M 16.5 36.375 
Q 23.578125 46.578125 34.90625 46.578125 
Q 45.40625 46.578125 51.8125 39.265625 
Q 57.421875 32.90625 57.421875 23.78125 
Q 57.421875 13.8125 51.125 6.78125 
Q 44.578125 -0.484375 34.03125 -0.484375 
Q 21.484375 -0.484375 14.40625 9.078125 
Q 7.515625 18.40625 7.515625 34.8125 
Q 7.515625 53.515625 15.828125 64.203125 
Q 23.34375 73.828125 35.5 73.828125 
Q 49.859375 73.828125 56.390625 62.890625 
L 49.21875 58.984375 
Q 45.21875 66.65625 35.9375 66.65625 
Q 17.484375 66.65625 16.109375 36.375 
z
M 33.453125 39.796875 
Q 26.3125 39.796875 21.625 34.46875 
Q 17.4375 29.6875 17.4375 24.078125 
Q 17.4375 18.0625 21.140625 13.1875 
Q 26.125 6.6875 33.734375 6.6875 
Q 41.703125 6.6875 45.953125 13.1875 
Q 48.828125 17.625 48.828125 23.484375 
Q 48.828125 30.375 45.015625 34.8125 
Q 40.625 39.796875 33.453125 39.796875 
z
" id="IPAexGothic-54"/>
       </defs>
       <use xlink:href="#IPAexGothic-48"/>
       <use x="62.988281" xlink:href="#IPAexGothic-46"/>
       <use x="89.404297" xlink:href="#IPAexGothic-54"/>
      </g>
     </g>
    </g>
    <g id="xtick_5">
     <g id="line2d_5">
      <path clip-path="url(#p52616b043c)" d="M 246.1431 224.64 
L 246.1431 7.2 
" style="fill:none;stroke:#ffffff;stroke-linecap:round;"/>
     </g>
     <g id="text_5">
      <!-- 0.7 -->
      <g style="fill:#262626;" transform="translate(237.761616 242.379687)scale(0.11 -0.11)">
       <defs>
        <path d="M 56.203125 66.609375 
Q 34.96875 32.90625 27.78125 0.984375 
L 17.671875 0.984375 
Q 24.703125 28.65625 46.09375 64.5 
L 6.6875 64.5 
L 6.6875 72.40625 
L 56.203125 72.40625 
z
" id="IPAexGothic-55"/>
       </defs>
       <use xlink:href="#IPAexGothic-48"/>
       <use x="62.988281" xlink:href="#IPAexGothic-46"/>
       <use x="89.404297" xlink:href="#IPAexGothic-55"/>
      </g>
     </g>
    </g>
    <g id="xtick_6">
     <g id="line2d_6">
      <path clip-path="url(#p52616b043c)" d="M 291.86225 224.64 
L 291.86225 7.2 
" style="fill:none;stroke:#ffffff;stroke-linecap:round;"/>
     </g>
     <g id="text_6">
      <!-- 0.8 -->
      <g style="fill:#262626;" transform="translate(283.480765 242.379687)scale(0.11 -0.11)">
       <defs>
        <path d="M 39.703125 37.890625 
Q 57.8125 31.734375 57.8125 18.703125 
Q 57.8125 8.453125 48.4375 3.078125 
Q 41.609375 -0.875 31.5 -0.875 
Q 21.34375 -0.875 14.5 3.078125 
Q 5.421875 8.296875 5.421875 18.40625 
Q 5.421875 31.0625 22.015625 37.203125 
L 22.015625 37.5 
Q 7.515625 42.71875 7.515625 54.828125 
Q 7.515625 64.0625 15.328125 69.625 
Q 21.96875 74.3125 31.546875 74.3125 
Q 42.234375 74.3125 48.921875 68.796875 
Q 55.515625 63.578125 55.515625 55.71875 
Q 55.515625 42.28125 39.703125 38.1875 
z
M 31.59375 41.015625 
Q 46.828125 44.625 46.828125 55.125 
Q 46.828125 61.1875 41.796875 64.84375 
Q 37.703125 67.921875 31.5 67.921875 
Q 25.09375 67.921875 20.796875 64.5 
Q 16.40625 60.890625 16.40625 55.03125 
Q 16.40625 49.21875 21.09375 45.703125 
Q 23.34375 43.890625 26.90625 42.53125 
Q 31 40.875 31.59375 41.015625 
z
M 30.90625 34.515625 
Q 14.40625 30.171875 14.40625 19 
Q 14.40625 12.109375 20.515625 8.6875 
Q 25.09375 6.109375 31.390625 6.109375 
Q 40.234375 6.109375 45.015625 10.890625 
Q 48.53125 14.40625 48.53125 19.53125 
Q 48.53125 24.90625 43.65625 28.90625 
Q 40.765625 31.15625 36.71875 32.8125 
Q 31.984375 34.71875 30.90625 34.515625 
z
" id="IPAexGothic-56"/>
       </defs>
       <use xlink:href="#IPAexGothic-48"/>
       <use x="62.988281" xlink:href="#IPAexGothic-46"/>
       <use x="89.404297" xlink:href="#IPAexGothic-56"/>
      </g>
     </g>
    </g>
    <g id="xtick_7">
     <g id="line2d_7">
      <path clip-path="url(#p52616b043c)" d="M 337.581399 224.64 
L 337.581399 7.2 
" style="fill:none;stroke:#ffffff;stroke-linecap:round;"/>
     </g>
     <g id="text_7">
      <!-- 0.9 -->
      <g style="fill:#262626;" transform="translate(329.199915 242.379687)scale(0.11 -0.11)">
       <defs>
        <path d="M 46.625 36.8125 
Q 39.75 26.8125 28.328125 26.8125 
Q 19.578125 26.8125 13.234375 32.125 
Q 5.71875 38.421875 5.71875 49.421875 
Q 5.71875 59.578125 12.015625 66.65625 
Q 18.453125 73.828125 29.203125 73.828125 
Q 43.75 73.828125 50.640625 61.71875 
Q 55.609375 52.78125 55.609375 38.625 
Q 55.609375 19.53125 47.515625 9.1875 
Q 39.890625 -0.484375 27.640625 -0.484375 
Q 13.421875 -0.484375 6.109375 10.984375 
L 13.328125 14.890625 
Q 18.0625 6.6875 27.390625 6.6875 
Q 45.65625 6.6875 47.015625 36.8125 
z
M 29.5 66.84375 
Q 22.65625 66.84375 18.3125 61.71875 
Q 14.40625 57.078125 14.40625 50 
Q 14.40625 42.828125 18.109375 38.71875 
Q 22.40625 33.796875 29.78125 33.796875 
Q 37.984375 33.796875 42.625 40.1875 
Q 45.703125 44.484375 45.703125 49.515625 
Q 45.703125 55.515625 42.09375 60.359375 
Q 37.109375 66.84375 29.5 66.84375 
z
" id="IPAexGothic-57"/>
       </defs>
       <use xlink:href="#IPAexGothic-48"/>
       <use x="62.988281" xlink:href="#IPAexGothic-46"/>
       <use x="89.404297" xlink:href="#IPAexGothic-57"/>
      </g>
     </g>
    </g>
    <g id="text_8">
     <!-- nox -->
     <g style="fill:#262626;" transform="translate(203.044062 257.458437)scale(0.12 -0.12)">
      <defs>
       <path d="M 52 0.984375 
L 43.40625 0.984375 
L 43.40625 31.890625 
Q 43.40625 44.578125 32.90625 44.578125 
Q 22.3125 44.578125 17.390625 31.890625 
L 17.390625 0.984375 
L 8.796875 0.984375 
L 8.796875 50.78125 
L 16.796875 50.78125 
L 16.796875 41.796875 
Q 23.828125 51.8125 34.71875 51.8125 
Q 52 51.8125 52 32.375 
z
" id="IPAexGothic-110"/>
       <path d="M 29.984375 52.203125 
Q 40.53125 52.203125 47.75 45.125 
Q 55.171875 37.703125 55.171875 25.59375 
Q 55.171875 13.875 47.90625 6.59375 
Q 40.765625 -0.484375 29.984375 -0.484375 
Q 19.1875 -0.484375 12.203125 6.5 
Q 4.890625 13.765625 4.890625 25.875 
Q 4.890625 37.703125 12.3125 45.125 
Q 19.390625 52.203125 29.984375 52.203125 
z
M 29.984375 45.609375 
Q 23.734375 45.609375 19.390625 41.109375 
Q 13.875 35.59375 13.875 25.78125 
Q 13.875 16.109375 19.28125 10.6875 
Q 23.6875 6.296875 29.984375 6.296875 
Q 36.421875 6.296875 40.765625 10.796875 
Q 46.1875 16.21875 46.1875 26.125 
Q 46.1875 35.453125 40.671875 41.109375 
Q 36.1875 45.609375 29.984375 45.609375 
z
" id="IPAexGothic-111"/>
       <path d="M 47.65625 0.984375 
L 37.796875 0.984375 
L 24.171875 20.90625 
L 10.796875 0.984375 
L 0.875 0.984375 
L 19.484375 26.171875 
L 1.65625 50.78125 
L 11.671875 50.78125 
L 24.65625 31.5 
L 37.703125 50.78125 
L 47.171875 50.78125 
L 29.296875 26.265625 
z
" id="IPAexGothic-120"/>
      </defs>
      <use xlink:href="#IPAexGothic-110"/>
      <use x="60.400391" xlink:href="#IPAexGothic-111"/>
      <use x="120.800781" xlink:href="#IPAexGothic-120"/>
     </g>
    </g>
   </g>
   <g id="matplotlib.axis_2">
    <g id="ytick_1">
     <g id="line2d_8">
      <path clip-path="url(#p52616b043c)" d="M 45.825313 199.862614 
L 380.625313 199.862614 
" style="fill:none;stroke:#ffffff;stroke-linecap:round;"/>
     </g>
     <g id="text_9">
      <!-- 0 -->
      <g style="fill:#262626;" transform="translate(29.397031 203.982458)scale(0.11 -0.11)">
       <use xlink:href="#IPAexGothic-48"/>
      </g>
     </g>
    </g>
    <g id="ytick_2">
     <g id="line2d_9">
      <path clip-path="url(#p52616b043c)" d="M 45.825313 157.574144 
L 380.625313 157.574144 
" style="fill:none;stroke:#ffffff;stroke-linecap:round;"/>
     </g>
     <g id="text_10">
      <!-- 10 -->
      <g style="fill:#262626;" transform="translate(22.46875 161.693987)scale(0.11 -0.11)">
       <defs>
        <path d="M 38.484375 0.984375 
L 29.6875 0.984375 
L 29.6875 64.109375 
Q 21.4375 61.28125 12.3125 59.328125 
L 10.6875 66.109375 
Q 23.734375 69.390625 32.90625 73.921875 
L 38.484375 73.921875 
z
" id="IPAexGothic-49"/>
       </defs>
       <use xlink:href="#IPAexGothic-49"/>
       <use x="62.988281" xlink:href="#IPAexGothic-48"/>
      </g>
     </g>
    </g>
    <g id="ytick_3">
     <g id="line2d_10">
      <path clip-path="url(#p52616b043c)" d="M 45.825313 115.285673 
L 380.625313 115.285673 
" style="fill:none;stroke:#ffffff;stroke-linecap:round;"/>
     </g>
     <g id="text_11">
      <!-- 20 -->
      <g style="fill:#262626;" transform="translate(22.46875 119.405517)scale(0.11 -0.11)">
       <defs>
        <path d="M 57.171875 0.984375 
L 6.984375 0.984375 
L 6.984375 9.28125 
Q 12.890625 23.046875 29.59375 34.421875 
L 32.375 36.28125 
Q 40.921875 42.140625 43.609375 45.40625 
Q 46.6875 49.265625 46.6875 53.8125 
Q 46.6875 58.9375 43.0625 62.546875 
Q 39.0625 66.546875 32.5625 66.546875 
Q 19.53125 66.546875 15.484375 52 
L 7.765625 54.78125 
Q 13.328125 73.828125 33.0625 73.828125 
Q 43.84375 73.828125 50.25 67.4375 
Q 55.859375 61.671875 55.859375 53.515625 
Q 55.859375 47.46875 52.25 42.53125 
Q 48.921875 37.75 36.96875 30.28125 
L 34.859375 29 
Q 19.625 19.578125 15.28125 8.890625 
L 57.171875 8.890625 
z
" id="IPAexGothic-50"/>
       </defs>
       <use xlink:href="#IPAexGothic-50"/>
       <use x="62.988281" xlink:href="#IPAexGothic-48"/>
      </g>
     </g>
    </g>
    <g id="ytick_4">
     <g id="line2d_11">
      <path clip-path="url(#p52616b043c)" d="M 45.825313 72.997202 
L 380.625313 72.997202 
" style="fill:none;stroke:#ffffff;stroke-linecap:round;"/>
     </g>
     <g id="text_12">
      <!-- 30 -->
      <g style="fill:#262626;" transform="translate(22.46875 77.117046)scale(0.11 -0.11)">
       <use xlink:href="#IPAexGothic-51"/>
       <use x="62.988281" xlink:href="#IPAexGothic-48"/>
      </g>
     </g>
    </g>
    <g id="ytick_5">
     <g id="line2d_12">
      <path clip-path="url(#p52616b043c)" d="M 45.825313 30.708732 
L 380.625313 30.708732 
" style="fill:none;stroke:#ffffff;stroke-linecap:round;"/>
     </g>
     <g id="text_13">
      <!-- 40 -->
      <g style="fill:#262626;" transform="translate(22.46875 34.828575)scale(0.11 -0.11)">
       <use xlink:href="#IPAexGothic-52"/>
       <use x="62.988281" xlink:href="#IPAexGothic-48"/>
      </g>
     </g>
    </g>
    <g id="text_14">
     <!-- lstat -->
     <g style="fill:#262626;" transform="translate(16.18875 127.765312)rotate(-90)scale(0.12 -0.12)">
      <defs>
       <path d="M 17.671875 0.984375 
L 9.078125 0.984375 
L 9.078125 74.90625 
L 17.671875 74.90625 
z
" id="IPAexGothic-108"/>
       <path d="M 34.90625 39.796875 
Q 30.28125 45.796875 23.1875 45.796875 
Q 13.921875 45.796875 13.921875 38.671875 
Q 13.921875 33.640625 23.921875 30.375 
L 27.203125 29.296875 
Q 41.40625 24.65625 41.40625 13.96875 
Q 41.40625 6.78125 35.5 2.6875 
Q 30.8125 -0.484375 23.390625 -0.484375 
Q 11.96875 -0.484375 4 7.859375 
L 9.421875 12.796875 
Q 15.578125 6.203125 23.6875 6.203125 
Q 33.296875 6.203125 33.296875 13.671875 
Q 33.296875 19.34375 22.703125 23.09375 
L 19.28125 24.265625 
Q 5.90625 28.953125 5.90625 37.984375 
Q 5.90625 43.703125 9.8125 47.609375 
Q 14.5 52.296875 22.703125 52.296875 
Q 33.6875 52.296875 40.71875 44.671875 
z
" id="IPAexGothic-115"/>
       <path d="M 33.203125 3.765625 
Q 27.640625 -0.09375 21.828125 -0.09375 
Q 10.203125 -0.09375 10.203125 12.984375 
L 10.203125 44.671875 
L 3.421875 44.671875 
L 3.421875 50.78125 
L 10.203125 50.78125 
L 10.203125 61.96875 
L 18.40625 66.0625 
L 18.40625 50.78125 
L 32.234375 50.78125 
L 32.234375 44.671875 
L 18.40625 44.671875 
L 18.40625 14.15625 
Q 18.40625 6.5 23.640625 6.5 
Q 27.15625 6.5 30.328125 9.1875 
z
" id="IPAexGothic-116"/>
       <path d="M 49.3125 0.984375 
L 41.75 0.984375 
Q 39.984375 4.734375 39.546875 8.6875 
L 39.203125 8.6875 
Q 33.546875 -0.390625 22.3125 -0.390625 
Q 14.59375 -0.390625 9.71875 4.5 
Q 5.421875 8.796875 5.421875 14.984375 
Q 5.421875 30.421875 32.03125 31.203125 
L 38.71875 31.390625 
L 38.71875 33.984375 
Q 38.71875 39.203125 35.75 42.1875 
Q 32.625 45.3125 27.734375 45.3125 
Q 19.34375 45.3125 15.140625 37.15625 
L 7.71875 40.578125 
Q 14.65625 52 27.9375 52 
Q 37.109375 52 42.046875 46.875 
Q 46.625 42.28125 46.625 33.890625 
L 46.625 15.578125 
Q 46.625 6.25 49.3125 0.984375 
z
M 38.921875 25.390625 
L 33.453125 25.296875 
Q 14.109375 24.859375 14.109375 14.890625 
Q 14.109375 11.375 16.40625 9.078125 
Q 19.234375 6.296875 23.828125 6.296875 
Q 30.21875 6.296875 34.90625 10.984375 
Q 38.921875 15.140625 38.921875 21 
z
" id="IPAexGothic-97"/>
      </defs>
      <use xlink:href="#IPAexGothic-108"/>
      <use x="27.001953" xlink:href="#IPAexGothic-115"/>
      <use x="73.193359" xlink:href="#IPAexGothic-116"/>
      <use x="107.8125" xlink:href="#IPAexGothic-97"/>
      <use x="162.792969" xlink:href="#IPAexGothic-116"/>
     </g>
    </g>
   </g>
   <g id="LineCollection_1">
    <path clip-path="url(#p52616b043c)" d="M 94.615262 208.276799 
L 97.980086 208.40407 
L 103.027323 208.3208 
L 109.756971 207.866031 
L 115.81226 207.157387 
L 121.533855 206.39773 
L 141.7228 203.131426 
L 161.911745 199.247382 
L 165.276569 198.830553 
L 168.641393 198.665341 
L 170.323805 198.727886 
L 172.006217 198.906193 
L 175.371041 199.602831 
L 182.826922 201.69407 
L 185.465514 202.169351 
L 188.830338 202.46274 
L 192.195162 202.457669 
L 195.559986 202.197155 
L 198.95999 201.69407 
L 202.289634 201.031136 
L 207.33687 199.676542 
L 212.384106 197.980888 
L 217.431343 195.959333 
L 222.478579 193.660724 
L 229.208227 190.238289 
L 238.255684 185.304121 
L 244.356884 182.026131 
L 249.397172 179.524266 
L 256.12682 176.509739 
L 266.221292 172.092005 
L 271.268529 169.585673 
L 276.429849 166.728844 
L 288.092649 159.979634 
L 291.457473 158.388862 
L 294.822297 157.124159 
L 298.187122 156.202857 
L 301.551946 155.565697 
L 308.281594 154.700638 
L 313.32883 153.99715 
L 316.693654 153.350481 
L 320.058478 152.503457 
L 323.423302 151.42941 
L 326.788127 150.100395 
L 330.739092 148.153568 
L 333.517775 146.527449 
L 335.961025 144.875578 
L 338.762028 142.690251 
L 341.152556 140.504925 
L 343.166748 138.319598 
L 344.83273 136.134271 
L 346.148523 133.948945 
L 347.079213 131.763618 
L 347.394991 130.670955 
L 347.588697 129.578291 
L 347.647113 128.485628 
L 347.548993 127.392965 
L 347.26273 126.300302 
L 346.736267 125.207638 
L 345.881539 124.114975 
L 344.532483 123.022312 
L 343.612247 122.496202 
L 341.929835 121.808223 
L 340.247423 121.365639 
L 338.565011 121.088384 
L 335.200187 120.897976 
L 331.835363 121.063144 
L 328.470539 121.508907 
L 325.105715 122.192454 
L 321.74089 123.064611 
L 316.693654 124.56551 
L 311.646418 126.076126 
L 308.281594 126.834786 
L 306.599182 127.054841 
L 304.91677 127.094017 
L 303.234358 126.849421 
L 301.551946 126.119887 
L 300.614898 125.207638 
L 299.869534 124.031376 
L 299.550597 123.022312 
L 299.182488 120.836985 
L 298.576673 115.373668 
L 297.84784 112.095678 
L 296.069797 105.539698 
L 295.869639 103.354372 
L 295.926387 102.261709 
L 296.110129 101.169045 
L 296.504709 99.897462 
L 296.989665 98.983719 
L 298.187122 97.43494 
L 299.869534 96.301857 
L 301.902365 95.705729 
L 303.234358 95.514875 
L 306.599182 95.372523 
L 311.646418 95.173013 
L 315.011242 94.815353 
L 318.376066 94.219829 
L 321.74089 93.357009 
L 325.105715 92.212041 
L 328.470539 90.759076 
L 331.835363 88.956032 
L 335.200187 86.741148 
L 337.660354 84.779095 
L 339.909089 82.593769 
L 341.677361 80.408442 
L 342.956968 78.223116 
L 343.612247 76.330889 
L 343.693322 76.037789 
L 343.82032 74.945126 
L 343.612247 73.328198 
L 343.438574 72.759799 
L 342.785385 71.667136 
L 341.636438 70.574472 
L 340.247423 69.805203 
L 338.565011 69.248589 
L 336.882599 68.95548 
L 335.200187 68.837936 
L 333.517775 68.858825 
L 330.152951 69.226007 
L 326.788127 69.94885 
L 323.423302 70.974721 
L 320.058478 72.281785 
L 316.693654 73.864429 
L 312.805441 76.037789 
L 309.434193 78.223116 
L 304.91677 81.548205 
L 300.478159 84.779095 
L 299.869534 85.210431 
L 298.187122 86.058606 
L 296.504709 86.569891 
L 294.822297 86.697957 
L 293.139885 86.52712 
L 290.723439 85.871759 
L 289.775061 85.582165 
L 286.410237 84.206319 
L 283.045413 82.568499 
L 279.680589 80.616449 
L 277.817988 79.315779 
L 276.315765 78.052769 
L 274.633353 76.197107 
L 274.51355 76.037789 
L 273.839596 74.945126 
L 273.32308 73.852462 
L 272.950941 72.729553 
L 272.649131 70.574472 
L 272.692148 68.389146 
L 273.078911 65.111156 
L 273.41237 61.833166 
L 273.325178 59.647839 
L 272.950941 58.094399 
L 272.713355 57.462513 
L 272.065279 56.369849 
L 271.042569 55.277186 
L 269.331723 54.184523 
L 267.903704 53.610801 
L 265.795989 53.091859 
L 264.53888 52.886982 
L 261.174056 52.654958 
L 257.809232 52.71128 
L 253.306379 53.091859 
L 249.397172 53.565393 
L 244.349936 54.407386 
L 240.196412 55.277186 
L 237.620287 55.888041 
L 234.255463 56.984334 
L 230.890639 58.635462 
L 227.478019 60.740503 
L 220.586646 65.111156 
L 216.598265 67.296482 
L 212.384106 69.228565 
L 208.869161 70.574472 
L 200.607222 73.152622 
L 190.51275 76.34526 
L 183.783101 78.715773 
L 176.7259 81.501106 
L 173.688629 82.835016 
L 168.641393 85.319083 
L 161.911745 89.116628 
L 148.452448 97.676159 
L 142.284987 102.261709 
L 138.172251 105.539698 
L 131.289059 111.003015 
L 123.962935 116.466332 
L 116.486619 122.012644 
L 111.021633 126.300302 
L 104.519261 131.763618 
L 99.656553 136.134271 
L 96.24922 139.412261 
L 93.11406 142.690251 
L 89.568026 146.902589 
L 87.807002 149.246231 
L 85.526148 152.524221 
L 80.722042 160.172864 
L 77.487699 165.636181 
L 75.694065 168.914171 
L 74.102331 172.192161 
L 73.159661 174.377487 
L 71.61091 178.748141 
L 70.50457 183.118794 
L 69.966915 186.396784 
L 69.743746 189.674774 
L 69.807566 191.860101 
L 70.102059 194.045427 
L 70.719647 196.230754 
L 71.725419 198.41608 
L 72.743905 199.898443 
L 73.30046 200.601407 
L 74.426318 201.732727 
L 76.10873 203.086541 
L 77.791142 204.146924 
L 79.473554 204.997902 
L 82.169344 206.064724 
L 84.52079 206.784987 
L 87.885614 207.523008 
L 91.250438 208.005466 
L 94.615262 208.276799 
L 94.615262 208.276799 
" style="fill:none;stroke:#4c72b0;stroke-width:1.5;"/>
    <path clip-path="url(#p52616b043c)" d="M 214.066519 56.533359 
L 215.748931 56.724215 
L 217.431343 56.765891 
L 219.113755 56.702231 
L 220.796167 56.554275 
L 222.168008 56.369849 
L 222.478579 56.327996 
L 224.160991 56.042589 
L 225.843403 55.680653 
L 227.251901 55.277186 
L 227.525815 55.197989 
L 229.208227 54.616111 
L 230.122463 54.184523 
L 230.890639 53.811294 
L 232.036004 53.091859 
L 232.573051 52.731074 
L 233.460598 51.999196 
L 234.255463 51.268068 
L 234.587832 50.906533 
L 235.473199 49.813869 
L 235.937875 49.09636 
L 236.154698 48.721206 
L 236.572993 47.628543 
L 236.692288 46.535879 
L 236.347938 45.443216 
L 235.937875 45.010221 
L 234.844111 44.350553 
L 234.255463 44.166782 
L 232.573051 43.963419 
L 230.890639 44.004942 
L 229.208227 44.205024 
L 228.454572 44.350553 
L 227.525815 44.549986 
L 225.843403 45.003228 
L 224.372749 45.443216 
L 224.160991 45.514091 
L 222.478579 46.148215 
L 221.486576 46.535879 
L 220.796167 46.839254 
L 219.113755 47.5918 
L 219.035526 47.628543 
L 217.431343 48.479315 
L 216.973616 48.721206 
L 215.748931 49.469526 
L 215.178913 49.813869 
L 214.066519 50.613642 
L 213.65157 50.906533 
L 212.400084 51.999196 
L 212.384106 52.020334 
L 211.550473 53.091859 
L 211.111596 54.184523 
L 211.401407 55.277186 
L 212.384106 56.001683 
L 213.365688 56.369849 
L 214.066519 56.533359 
" style="fill:none;stroke:#4c72b0;stroke-width:1.5;"/>
   </g>
   <g id="LineCollection_2">
    <path clip-path="url(#p52616b043c)" d="M 94.615262 201.859304 
L 97.980086 202.344974 
L 101.34491 202.586339 
L 104.709735 202.644137 
L 109.756971 202.463869 
L 114.804207 202.017826 
L 121.533855 201.141108 
L 129.945916 199.750414 
L 143.405212 197.132648 
L 150.13486 195.592294 
L 160.229333 192.861001 
L 177.053453 188.105658 
L 180.418277 187.46049 
L 183.783101 187.171228 
L 185.465514 187.207545 
L 187.571168 187.489447 
L 188.830338 187.784855 
L 192.195162 188.947184 
L 195.559986 190.04895 
L 197.242398 190.403174 
L 198.92481 190.611833 
L 200.607222 190.678188 
L 202.289634 190.614119 
L 205.654458 190.15311 
L 209.019282 189.310313 
L 212.384106 188.119718 
L 215.748931 186.598288 
L 218.136786 185.304121 
L 220.796167 183.642786 
L 223.058689 182.026131 
L 225.843403 179.711118 
L 227.964322 177.655477 
L 229.91256 175.470151 
L 231.601272 173.284824 
L 233.749457 170.006834 
L 236.163266 165.636181 
L 237.978655 162.358191 
L 239.439701 160.172864 
L 241.313667 157.987538 
L 242.667524 156.711186 
L 245.222137 154.709548 
L 248.677994 152.524221 
L 252.761996 150.338894 
L 264.53888 144.635021 
L 267.942595 142.690251 
L 271.268529 140.422639 
L 273.797104 138.319598 
L 275.947792 136.134271 
L 277.998177 133.618599 
L 279.300236 131.763618 
L 280.619356 129.578291 
L 281.709848 127.392965 
L 282.584538 125.207638 
L 283.196578 123.022312 
L 283.535742 120.836985 
L 283.534016 118.651658 
L 283.155949 116.466332 
L 282.40782 114.281005 
L 281.296244 112.095678 
L 276.900212 104.447035 
L 274.065796 97.891055 
L 272.950941 96.231021 
L 272.533367 95.705729 
L 271.268529 94.382969 
L 269.586117 92.959292 
L 267.303822 91.335075 
L 259.14018 85.871759 
L 256.12682 83.390933 
L 254.444408 81.696823 
L 254.256275 81.501106 
L 253.38744 80.408442 
L 252.126591 78.223116 
L 251.369333 76.037789 
L 250.7607 73.852462 
L 250.308456 72.759799 
L 249.397172 71.477049 
L 247.71476 70.645913 
L 246.032348 70.517477 
L 244.349936 70.750721 
L 242.667524 71.22514 
L 240.985111 71.873988 
L 239.178435 72.759799 
L 237.335428 73.852462 
L 234.216538 76.037789 
L 224.160991 83.880816 
L 220.796167 85.986217 
L 216.827792 88.057085 
L 214.066519 89.28199 
L 210.701694 90.574089 
L 205.044742 92.427739 
L 193.877574 95.849914 
L 187.147926 98.19823 
L 178.735865 101.463187 
L 170.323805 105.0277 
L 163.594157 108.190999 
L 156.864508 111.729922 
L 150.13486 115.600768 
L 139.264941 121.929648 
L 121.533855 131.82217 
L 116.42535 135.041608 
L 111.753678 138.319598 
L 108.928174 140.504925 
L 105.103376 143.782915 
L 101.694886 147.060905 
L 98.611931 150.338894 
L 93.992228 155.802211 
L 89.84068 161.265528 
L 86.86211 165.636181 
L 84.334422 170.006834 
L 83.235911 172.192161 
L 81.446973 176.562814 
L 80.159827 180.933467 
L 79.741626 183.118794 
L 79.473554 185.564522 
L 79.414373 187.489447 
L 79.592045 189.674774 
L 80.089567 191.860101 
L 80.503988 192.952764 
L 81.155966 194.195067 
L 81.755305 195.13809 
L 82.838378 196.41384 
L 84.52079 197.894718 
L 86.203202 198.995848 
L 87.885614 199.851108 
L 89.788297 200.601407 
L 92.93285 201.511116 
L 94.615262 201.859304 
L 94.615262 201.859304 
" style="fill:none;stroke:#4c72b0;stroke-width:1.5;"/>
   </g>
   <g id="LineCollection_3">
    <path clip-path="url(#p52616b043c)" d="M 101.34491 198.61824 
L 104.709735 198.899924 
L 108.074559 198.962796 
L 111.439383 198.852957 
L 116.524893 198.41608 
L 121.533855 197.785053 
L 128.263503 196.667625 
L 138.357976 194.648191 
L 146.770036 192.675301 
L 151.817272 191.322081 
L 158.546921 189.24657 
L 165.276569 186.835153 
L 172.006217 184.088182 
L 178.99863 180.933467 
L 185.714221 177.655477 
L 196.275402 172.192161 
L 210.356967 164.543518 
L 214.066519 162.358191 
L 230.651238 152.524221 
L 235.937875 149.896525 
L 240.985111 147.628024 
L 254.642211 141.597588 
L 258.81719 139.412261 
L 261.174056 138.011645 
L 263.957606 136.134271 
L 266.694167 133.948945 
L 268.945212 131.763618 
L 270.753307 129.578291 
L 272.14331 127.392965 
L 273.107718 125.207638 
L 273.427853 124.114975 
L 273.629371 123.022312 
L 273.70722 121.929648 
L 273.654401 120.836985 
L 273.46313 119.744322 
L 272.950941 118.246181 
L 272.63471 117.558995 
L 271.268529 115.466929 
L 270.258817 114.281005 
L 267.903704 111.874386 
L 264.856899 108.817688 
L 260.980549 104.447035 
L 259.491644 102.974522 
L 257.183352 101.169045 
L 255.428425 100.076382 
L 252.761996 98.712021 
L 249.397172 97.35796 
L 246.032348 96.363942 
L 244.349936 96.022666 
L 242.667524 95.79866 
L 240.545351 95.705729 
L 239.302699 95.725159 
L 237.620287 95.874444 
L 234.255463 96.505781 
L 230.890639 97.492587 
L 225.843403 99.342997 
L 220.796167 101.224721 
L 217.431343 102.324155 
L 213.649003 103.354372 
L 208.540549 104.447035 
L 198.92481 106.084878 
L 192.195162 107.339996 
L 185.465514 108.887784 
L 180.418277 110.285259 
L 174.957489 112.095678 
L 170.323805 113.887018 
L 165.276569 116.154209 
L 160.229333 118.72681 
L 151.817272 123.3941 
L 145.087624 127.038634 
L 140.032565 129.578291 
L 126.515408 136.134271 
L 121.533855 138.867153 
L 117.160976 141.597588 
L 114.025976 143.782915 
L 111.178776 145.968241 
L 107.326502 149.246231 
L 103.875407 152.524221 
L 100.72769 155.802211 
L 96.92575 160.172864 
L 93.58387 164.543518 
L 90.765258 168.914171 
L 89.018783 172.192161 
L 87.606541 175.470151 
L 86.835284 177.655477 
L 85.997559 180.933467 
L 85.648192 183.118794 
L 85.5314 185.304121 
L 85.703885 187.489447 
L 86.263828 189.674774 
L 86.716662 190.767437 
L 87.885614 192.604145 
L 88.157389 192.952764 
L 89.568026 194.334724 
L 91.250438 195.531221 
L 92.93285 196.423649 
L 95.262105 197.323417 
L 97.980086 198.061686 
L 101.34491 198.61824 
L 101.34491 198.61824 
" style="fill:none;stroke:#4c72b0;stroke-width:1.5;"/>
   </g>
   <g id="LineCollection_4">
    <path clip-path="url(#p52616b043c)" d="M 101.34491 195.21207 
L 104.709735 195.774876 
L 108.074559 196.02262 
L 111.439383 196.04025 
L 114.804207 195.879358 
L 119.851443 195.36643 
L 126.581091 194.324159 
L 134.993152 192.634534 
L 141.7228 191.054402 
L 148.452448 189.252109 
L 154.121227 187.489447 
L 158.546921 185.931628 
L 163.594157 183.902999 
L 168.641393 181.586031 
L 173.688629 178.950204 
L 177.812948 176.562814 
L 183.783101 172.746796 
L 200.607222 161.79408 
L 215.748931 152.881874 
L 224.160991 148.108342 
L 228.510261 145.968241 
L 231.023061 144.875578 
L 235.937875 142.996628 
L 246.032348 139.403646 
L 249.397172 137.999286 
L 253.21163 136.134271 
L 256.12682 134.401106 
L 258.294789 132.856281 
L 259.604083 131.763618 
L 261.174056 130.163237 
L 261.676267 129.578291 
L 262.856468 127.804823 
L 263.086642 127.392965 
L 263.523597 126.300302 
L 263.782879 125.207638 
L 263.844245 124.114975 
L 263.683756 123.022312 
L 263.277046 121.929648 
L 262.57212 120.836985 
L 261.174056 119.472182 
L 259.491644 118.364429 
L 257.809232 117.540891 
L 254.740493 116.466332 
L 252.761996 115.940891 
L 249.397172 115.340984 
L 246.032348 115.014605 
L 242.667524 114.953006 
L 237.620287 115.201749 
L 232.573051 115.446053 
L 228.948227 115.373668 
L 224.160991 115.031905 
L 215.748931 114.392651 
L 209.019282 114.137306 
L 203.972046 114.134921 
L 198.92481 114.335838 
L 193.877574 114.774717 
L 188.830338 115.491634 
L 183.783101 116.50352 
L 179.70678 117.558995 
L 176.176896 118.651658 
L 173.11413 119.744322 
L 170.323805 120.856578 
L 165.276569 123.146317 
L 158.546921 126.586002 
L 150.600451 130.670955 
L 145.087624 133.226723 
L 138.233661 136.134271 
L 131.628328 138.937235 
L 126.051388 141.597588 
L 122.038206 143.782915 
L 119.851443 145.092129 
L 116.486619 147.310021 
L 112.422441 150.338894 
L 109.756971 152.550225 
L 106.18765 155.802211 
L 102.963352 159.080201 
L 100.071943 162.358191 
L 97.533755 165.636181 
L 95.351968 168.914171 
L 93.539274 172.192161 
L 92.09293 175.470151 
L 91.250438 178.042328 
L 90.782462 179.840804 
L 90.43305 182.026131 
L 90.35307 184.211457 
L 90.619195 186.396784 
L 91.250438 188.3062 
L 91.364567 188.582111 
L 91.973348 189.674774 
L 92.93285 190.90356 
L 94.615262 192.39476 
L 96.297674 193.434066 
L 97.980086 194.200432 
L 101.044381 195.13809 
L 101.34491 195.21207 
L 101.34491 195.21207 
" style="fill:none;stroke:#4c72b0;stroke-width:1.5;"/>
   </g>
   <g id="LineCollection_5">
    <path clip-path="url(#p52616b043c)" d="M 111.439383 194.076289 
L 114.804207 193.992604 
L 118.169031 193.73778 
L 123.216267 193.089918 
L 130.019375 191.860101 
L 135.034386 190.767437 
L 141.7228 189.115616 
L 148.452448 187.187513 
L 154.096669 185.304121 
L 158.546921 183.602468 
L 163.594157 181.376663 
L 166.958981 179.694686 
L 170.651984 177.655477 
L 175.371041 174.735184 
L 179.127591 172.192161 
L 197.242398 159.469533 
L 206.132638 153.616884 
L 210.807591 150.338894 
L 215.075938 147.060905 
L 220.007473 142.690251 
L 222.478579 139.909927 
L 222.916823 139.412261 
L 223.599488 138.319598 
L 223.974365 137.226935 
L 223.948415 136.134271 
L 223.452238 135.041608 
L 214.066519 124.673551 
L 212.384106 123.428356 
L 210.701694 122.492406 
L 209.019282 121.776438 
L 205.757672 120.836985 
L 203.972046 120.503468 
L 200.607222 120.112376 
L 197.242398 119.975922 
L 193.877574 120.054474 
L 190.51275 120.326137 
L 186.833761 120.836985 
L 183.783101 121.416827 
L 180.418277 122.233239 
L 177.053453 123.232487 
L 173.688629 124.414333 
L 169.1207 126.300302 
L 165.276569 128.08525 
L 150.914548 135.041608 
L 145.608495 137.226935 
L 129.945916 143.268641 
L 124.898679 145.680645 
L 120.519438 148.153568 
L 118.169031 149.635565 
L 114.104734 152.524221 
L 111.359839 154.709548 
L 107.668771 157.987538 
L 104.429254 161.265528 
L 101.606942 164.543518 
L 99.189903 167.821508 
L 97.180294 171.099497 
L 95.579351 174.377487 
L 94.615262 177.019127 
L 94.118033 178.748141 
L 93.723416 180.933467 
L 93.621513 183.118794 
L 93.898897 185.304121 
L 94.224846 186.396784 
L 94.710525 187.489447 
L 95.39366 188.582111 
L 96.33598 189.674774 
L 97.980086 190.995493 
L 99.662498 191.939038 
L 102.414518 192.952764 
L 104.709735 193.497749 
L 108.074559 193.936831 
L 111.439383 194.076289 
L 111.439383 194.076289 
" style="fill:none;stroke:#4c72b0;stroke-width:1.5;"/>
    <path clip-path="url(#p52616b043c)" d="M 240.985111 133.009387 
L 242.667524 132.900902 
L 242.886699 132.856281 
L 244.349936 132.492937 
L 246.032348 131.946714 
L 246.461447 131.763618 
L 247.71476 131.100273 
L 248.403182 130.670955 
L 249.397172 129.838158 
L 249.658498 129.578291 
L 250.175907 128.485628 
L 249.843654 127.392965 
L 249.397172 127.096578 
L 247.71476 126.789841 
L 246.032348 126.968505 
L 244.393665 127.392965 
L 244.349936 127.407313 
L 242.667524 128.178379 
L 242.073463 128.485628 
L 240.985111 129.200299 
L 240.427654 129.578291 
L 239.302699 130.614899 
L 239.238865 130.670955 
L 238.684114 131.763618 
L 239.302699 132.721166 
L 239.603647 132.856281 
L 240.985111 133.009387 
" style="fill:none;stroke:#4c72b0;stroke-width:1.5;"/>
   </g>
   <g id="LineCollection_6">
    <path clip-path="url(#p52616b043c)" d="M 108.074559 190.95766 
L 111.439383 191.348791 
L 114.804207 191.421037 
L 118.169031 191.258306 
L 122.560506 190.767437 
L 126.581091 190.12911 
L 131.628328 189.101983 
L 138.357976 187.438133 
L 143.405212 186.002737 
L 148.928624 184.211457 
L 153.499684 182.518381 
L 157.271231 180.933467 
L 161.824539 178.748141 
L 165.793858 176.562814 
L 169.322412 174.377487 
L 174.050616 171.099497 
L 179.790574 166.728844 
L 196.217722 153.616884 
L 199.749001 150.338894 
L 201.698289 148.153568 
L 203.219073 145.968241 
L 204.238799 143.782915 
L 204.554907 142.690251 
L 204.737155 141.597588 
L 204.79057 140.504925 
L 204.720874 139.412261 
L 204.533192 138.319598 
L 203.972046 136.542137 
L 203.268545 135.041608 
L 202.289634 133.561578 
L 201.702079 132.856281 
L 200.579544 131.763618 
L 198.92481 130.602965 
L 196.698401 129.578291 
L 195.559986 129.206567 
L 193.877574 128.81598 
L 191.095722 128.485628 
L 188.830338 128.424226 
L 185.465514 128.643978 
L 182.100689 129.162906 
L 178.735865 129.941454 
L 175.371041 130.950794 
L 172.006217 132.157405 
L 166.958981 134.240786 
L 155.054217 139.412261 
L 149.182769 141.597588 
L 142.362122 143.782915 
L 134.993152 146.092328 
L 129.945916 147.946613 
L 126.581091 149.405182 
L 122.592205 151.431558 
L 119.851443 153.016094 
L 116.486619 155.233907 
L 112.864734 157.987538 
L 109.756971 160.702711 
L 107.019632 163.450854 
L 104.709735 166.136127 
L 103.027323 168.388038 
L 101.948157 170.006834 
L 100.687081 172.192161 
L 99.648392 174.377487 
L 98.821798 176.562814 
L 98.260489 178.748141 
L 98.003113 180.933467 
L 98.012905 182.026131 
L 98.136244 183.118794 
L 98.396183 184.211457 
L 98.823512 185.304121 
L 99.662498 186.660244 
L 100.382849 187.489447 
L 101.702248 188.582111 
L 103.689724 189.674774 
L 104.709735 190.084342 
L 107.148014 190.767437 
L 108.074559 190.95766 
L 108.074559 190.95766 
" style="fill:none;stroke:#4c72b0;stroke-width:1.5;"/>
   </g>
   <g id="LineCollection_7">
    <path clip-path="url(#p52616b043c)" d="M 116.486619 188.589366 
L 119.851443 188.452519 
L 123.216267 188.096539 
L 126.983616 187.489447 
L 131.628328 186.514065 
L 136.675564 185.211246 
L 141.7228 183.690492 
L 146.770036 181.942817 
L 152.010627 179.840804 
L 156.864508 177.55462 
L 160.687757 175.470151 
L 164.218569 173.284824 
L 167.386216 171.099497 
L 171.670692 167.821508 
L 177.053453 163.270881 
L 181.638143 159.080201 
L 185.906272 154.709548 
L 187.719301 152.524221 
L 189.215032 150.338894 
L 190.302752 148.153568 
L 190.663764 147.060905 
L 190.88112 145.968241 
L 190.939976 144.875578 
L 190.818154 143.782915 
L 190.483461 142.690251 
L 189.846871 141.597588 
L 188.830338 140.493358 
L 187.09607 139.412261 
L 185.465514 138.831854 
L 183.783101 138.48452 
L 182.100689 138.328356 
L 180.418277 138.319598 
L 177.053453 138.630975 
L 173.688629 139.268077 
L 168.641393 140.637478 
L 162.439206 142.690251 
L 150.13486 146.705556 
L 144.946838 148.153568 
L 134.993152 150.843889 
L 129.945916 152.537316 
L 126.581091 153.907 
L 122.726796 155.802211 
L 119.851443 157.457074 
L 116.486619 159.731927 
L 114.509133 161.265528 
L 111.439383 163.995825 
L 109.756971 165.727881 
L 107.967208 167.821508 
L 106.367468 170.006834 
L 105.030228 172.192161 
L 103.959691 174.377487 
L 103.179829 176.562814 
L 102.73359 178.748141 
L 102.662522 179.840804 
L 102.713611 180.933467 
L 103.027323 182.38525 
L 103.290541 183.118794 
L 103.908438 184.211457 
L 104.835201 185.304121 
L 106.392147 186.475535 
L 108.636978 187.489447 
L 109.756971 187.832465 
L 111.439383 188.196663 
L 114.804207 188.553027 
L 116.486619 188.589366 
L 116.486619 188.589366 
" style="fill:none;stroke:#4c72b0;stroke-width:1.5;"/>
   </g>
   <g id="LineCollection_8">
    <path clip-path="url(#p52616b043c)" d="M 118.169031 185.353741 
L 121.533855 185.291113 
L 124.898679 184.932766 
L 128.97474 184.211457 
L 133.31074 183.173429 
L 137.217952 182.026131 
L 141.7228 180.478907 
L 146.09008 178.748141 
L 150.823305 176.562814 
L 155.182096 174.199316 
L 158.546921 172.099944 
L 161.911745 169.712242 
L 165.276569 167.015594 
L 166.958981 165.543979 
L 170.323805 162.288152 
L 172.251728 160.172864 
L 173.98904 157.987538 
L 175.402617 155.802211 
L 175.935629 154.709548 
L 176.338024 153.616884 
L 176.571129 152.524221 
L 176.571938 151.431558 
L 176.234435 150.338894 
L 175.371041 149.246231 
L 173.688629 148.400845 
L 172.006217 148.03735 
L 170.323805 147.93578 
L 166.958981 148.143086 
L 163.594157 148.687545 
L 158.546921 149.791525 
L 133.871582 155.802211 
L 130.497178 156.894874 
L 127.656399 157.987538 
L 124.898679 159.229434 
L 121.533855 161.062405 
L 119.5216 162.358191 
L 116.486619 164.648629 
L 114.214303 166.728844 
L 112.222737 168.914171 
L 110.599256 171.099497 
L 109.330818 173.284824 
L 108.440697 175.470151 
L 108.074559 177.058674 
L 107.984741 177.655477 
L 107.962412 178.748141 
L 108.109437 179.840804 
L 108.486133 180.933467 
L 109.151513 182.026131 
L 110.255173 183.118794 
L 112.176961 184.211457 
L 113.121795 184.56056 
L 114.804207 184.985775 
L 117.391202 185.304121 
L 118.169031 185.353741 
L 118.169031 185.353741 
" style="fill:none;stroke:#4c72b0;stroke-width:1.5;"/>
   </g>
   <g id="LineCollection_9">
    <path clip-path="url(#p52616b043c)" d="M 119.851443 181.114668 
L 121.533855 181.293552 
L 123.216267 181.320422 
L 124.898679 181.229442 
L 126.581091 181.044882 
L 127.284366 180.933467 
L 128.263503 180.76981 
L 129.945916 180.419538 
L 131.628328 180.016625 
L 132.278716 179.840804 
L 133.31074 179.544798 
L 134.993152 179.021478 
L 135.81429 178.748141 
L 136.675564 178.44208 
L 138.357976 177.81507 
L 138.767574 177.655477 
L 140.040388 177.123798 
L 141.349693 176.562814 
L 141.7228 176.390265 
L 143.405212 175.595603 
L 143.665642 175.470151 
L 145.087624 174.730504 
L 145.760268 174.377487 
L 146.770036 173.802859 
L 147.67679 173.284824 
L 148.452448 172.802766 
L 149.43523 172.192161 
L 150.13486 171.718237 
L 151.051694 171.099497 
L 151.817272 170.535477 
L 152.539481 170.006834 
L 153.499684 169.239287 
L 153.909892 168.914171 
L 155.172227 167.821508 
L 155.182096 167.811833 
L 156.30374 166.728844 
L 156.864508 166.12952 
L 157.333513 165.636181 
L 158.244643 164.543518 
L 158.546921 164.108632 
L 159.013862 163.450854 
L 159.622849 162.358191 
L 160.042388 161.265528 
L 160.165872 160.172864 
L 159.761669 159.080201 
L 158.546921 158.151742 
L 158.123702 157.987538 
L 156.864508 157.699754 
L 155.182096 157.550124 
L 153.499684 157.545485 
L 151.817272 157.628769 
L 150.13486 157.76866 
L 148.452448 157.947469 
L 148.144436 157.987538 
L 146.770036 158.168824 
L 145.087624 158.413672 
L 143.405212 158.677023 
L 141.7228 158.960348 
L 141.079505 159.080201 
L 140.040388 159.276313 
L 138.357976 159.622603 
L 136.675564 159.998636 
L 135.975727 160.172864 
L 134.993152 160.42137 
L 133.31074 160.892706 
L 132.112681 161.265528 
L 131.628328 161.419514 
L 129.945916 162.017335 
L 129.084211 162.358191 
L 128.263503 162.692016 
L 126.581091 163.450854 
L 124.898679 164.324589 
L 124.515811 164.543518 
L 123.216267 165.320137 
L 122.733276 165.636181 
L 121.533855 166.464294 
L 121.181518 166.728844 
L 119.851443 167.793636 
L 119.81918 167.821508 
L 118.653228 168.914171 
L 118.169031 169.411842 
L 117.628001 170.006834 
L 116.741721 171.099497 
L 116.486619 171.464985 
L 116.007736 172.192161 
L 115.415602 173.284824 
L 114.962253 174.377487 
L 114.804207 174.992564 
L 114.687191 175.470151 
L 114.616765 176.562814 
L 114.785452 177.655477 
L 114.804207 177.701756 
L 115.339081 178.748141 
L 116.412971 179.840804 
L 116.486619 179.891041 
L 118.169031 180.69546 
L 119.009797 180.933467 
L 119.851443 181.114668 
" style="fill:none;stroke:#4c72b0;stroke-width:1.5;"/>
   </g>
   <g id="LineCollection_10"/>
   <g id="patch_3">
    <path d="M 45.825313 224.64 
L 45.825313 7.2 
" style="fill:none;stroke:#ffffff;stroke-linecap:square;stroke-linejoin:miter;stroke-width:1.25;"/>
   </g>
   <g id="patch_4">
    <path d="M 380.625313 224.64 
L 380.625313 7.2 
" style="fill:none;stroke:#ffffff;stroke-linecap:square;stroke-linejoin:miter;stroke-width:1.25;"/>
   </g>
   <g id="patch_5">
    <path d="M 45.825312 224.64 
L 380.625313 224.64 
" style="fill:none;stroke:#ffffff;stroke-linecap:square;stroke-linejoin:miter;stroke-width:1.25;"/>
   </g>
   <g id="patch_6">
    <path d="M 45.825312 7.2 
L 380.625313 7.2 
" style="fill:none;stroke:#ffffff;stroke-linecap:square;stroke-linejoin:miter;stroke-width:1.25;"/>
   </g>
  </g>
 </g>
 <defs>
  <clipPath id="p52616b043c">
   <rect height="217.44" width="334.8" x="45.825313" y="7.2"/>
  </clipPath>
 </defs>
</svg>
