<?xml version="1.0" encoding="UTF-8" standalone="no"?>
<!DOCTYPE svg PUBLIC "-//W3C//DTD SVG 1.1//EN"
 "http://www.w3.org/Graphics/SVG/1.1/DTD/svg11.dtd">
<!-- Generated by graphviz version 2.46.1 (20210213.1702)
 -->
<!-- Pages: 1 -->
<svg width="2318pt" height="566pt"
 viewBox="0.00 0.00 2317.79 566.00" xmlns="http://www.w3.org/2000/svg" xmlns:xlink="http://www.w3.org/1999/xlink">
<g id="graph0" class="graph" transform="scale(1 1) rotate(0) translate(4 562)">
<polygon fill="white" stroke="transparent" points="-4,4 -4,-562 2313.79,-562 2313.79,4 -4,4"/>
<!-- 0 -->
<g id="node1" class="node">
<title>0</title>
<ellipse fill="none" stroke="black" cx="691.39" cy="-540" rx="72.59" ry="18"/>
<text text-anchor="middle" x="691.39" y="-536.3" font-family="Times,serif" font-size="14.00">lstat&lt;5.23000002</text>
</g>
<!-- 1 -->
<g id="node2" class="node">
<title>1</title>
<ellipse fill="none" stroke="black" cx="568.39" cy="-453" rx="68.49" ry="18"/>
<text text-anchor="middle" x="568.39" y="-449.3" font-family="Times,serif" font-size="14.00">dis&lt;3.20744991</text>
</g>
<!-- 0&#45;&gt;1 -->
<g id="edge1" class="edge">
<title>0&#45;&gt;1</title>
<path fill="none" stroke="#0000ff" d="M667.97,-522.81C648.73,-509.52 621.3,-490.56 600.1,-475.91"/>
<polygon fill="#0000ff" stroke="#0000ff" points="601.95,-472.93 591.73,-470.13 597.97,-478.69 601.95,-472.93"/>
<text text-anchor="middle" x="671.89" y="-492.8" font-family="Times,serif" font-size="14.00">yes, missing</text>
</g>
<!-- 2 -->
<g id="node3" class="node">
<title>2</title>
<ellipse fill="none" stroke="black" cx="796.39" cy="-453" rx="81.49" ry="18"/>
<text text-anchor="middle" x="796.39" y="-449.3" font-family="Times,serif" font-size="14.00">ptratio&lt;18.6500015</text>
</g>
<!-- 0&#45;&gt;2 -->
<g id="edge2" class="edge">
<title>0&#45;&gt;2</title>
<path fill="none" stroke="#ff0000" d="M711.64,-522.61C727.66,-509.64 750.22,-491.38 768.04,-476.95"/>
<polygon fill="#ff0000" stroke="#ff0000" points="770.28,-479.64 775.85,-470.63 765.88,-474.2 770.28,-479.64"/>
<text text-anchor="middle" x="757.39" y="-492.8" font-family="Times,serif" font-size="14.00">no</text>
</g>
<!-- 3 -->
<g id="node4" class="node">
<title>3</title>
<ellipse fill="none" stroke="black" cx="419.39" cy="-366" rx="66.89" ry="18"/>
<text text-anchor="middle" x="419.39" y="-362.3" font-family="Times,serif" font-size="14.00">leaf=3.1019578</text>
</g>
<!-- 1&#45;&gt;3 -->
<g id="edge3" class="edge">
<title>1&#45;&gt;3</title>
<path fill="none" stroke="#0000ff" d="M535.21,-437.24C522.55,-431.32 508.12,-424.19 495.39,-417 480.28,-408.46 464.13,-398.03 450.63,-388.92"/>
<polygon fill="#0000ff" stroke="#0000ff" points="452.4,-385.89 442.17,-383.15 448.46,-391.67 452.4,-385.89"/>
<text text-anchor="middle" x="529.89" y="-405.8" font-family="Times,serif" font-size="14.00">yes, missing</text>
</g>
<!-- 4 -->
<g id="node5" class="node">
<title>4</title>
<ellipse fill="none" stroke="black" cx="568.39" cy="-366" rx="63.89" ry="18"/>
<text text-anchor="middle" x="568.39" y="-362.3" font-family="Times,serif" font-size="14.00">rm&lt;7.4295001</text>
</g>
<!-- 1&#45;&gt;4 -->
<g id="edge4" class="edge">
<title>1&#45;&gt;4</title>
<path fill="none" stroke="#ff0000" d="M568.39,-434.8C568.39,-423.16 568.39,-407.55 568.39,-394.24"/>
<polygon fill="#ff0000" stroke="#ff0000" points="571.89,-394.18 568.39,-384.18 564.89,-394.18 571.89,-394.18"/>
<text text-anchor="middle" x="575.39" y="-405.8" font-family="Times,serif" font-size="14.00">no</text>
</g>
<!-- 5 -->
<g id="node16" class="node">
<title>5</title>
<ellipse fill="none" stroke="black" cx="796.39" cy="-366" rx="46.59" ry="18"/>
<text text-anchor="middle" x="796.39" y="-362.3" font-family="Times,serif" font-size="14.00">tax&lt;222.5</text>
</g>
<!-- 2&#45;&gt;5 -->
<g id="edge15" class="edge">
<title>2&#45;&gt;5</title>
<path fill="none" stroke="#0000ff" d="M796.39,-434.8C796.39,-423.16 796.39,-407.55 796.39,-394.24"/>
<polygon fill="#0000ff" stroke="#0000ff" points="799.89,-394.18 796.39,-384.18 792.89,-394.18 799.89,-394.18"/>
<text text-anchor="middle" x="830.89" y="-405.8" font-family="Times,serif" font-size="14.00">yes, missing</text>
</g>
<!-- 6 -->
<g id="node17" class="node">
<title>6</title>
<ellipse fill="none" stroke="black" cx="1131.39" cy="-366" rx="68.49" ry="18"/>
<text text-anchor="middle" x="1131.39" y="-362.3" font-family="Times,serif" font-size="14.00">dis&lt;1.17165005</text>
</g>
<!-- 2&#45;&gt;6 -->
<g id="edge16" class="edge">
<title>2&#45;&gt;6</title>
<path fill="none" stroke="#ff0000" d="M847.64,-439C908.7,-423.5 1010.45,-397.69 1074.08,-381.54"/>
<polygon fill="#ff0000" stroke="#ff0000" points="1075.12,-384.89 1083.95,-379.04 1073.4,-378.1 1075.12,-384.89"/>
<text text-anchor="middle" x="991.39" y="-405.8" font-family="Times,serif" font-size="14.00">no</text>
</g>
<!-- 7 -->
<g id="node6" class="node">
<title>7</title>
<ellipse fill="none" stroke="black" cx="368.39" cy="-279" rx="68.49" ry="18"/>
<text text-anchor="middle" x="368.39" y="-275.3" font-family="Times,serif" font-size="14.00">rm&lt;6.41149998</text>
</g>
<!-- 4&#45;&gt;7 -->
<g id="edge5" class="edge">
<title>4&#45;&gt;7</title>
<path fill="none" stroke="#0000ff" d="M534.47,-350.58C500.81,-336.28 449.07,-314.29 412.3,-298.66"/>
<polygon fill="#0000ff" stroke="#0000ff" points="413.39,-295.32 402.82,-294.63 410.66,-301.77 413.39,-295.32"/>
<text text-anchor="middle" x="514.89" y="-318.8" font-family="Times,serif" font-size="14.00">yes, missing</text>
</g>
<!-- 8 -->
<g id="node7" class="node">
<title>8</title>
<ellipse fill="none" stroke="black" cx="568.39" cy="-279" rx="70.39" ry="18"/>
<text text-anchor="middle" x="568.39" y="-275.3" font-family="Times,serif" font-size="14.00">age&lt;74.6500015</text>
</g>
<!-- 4&#45;&gt;8 -->
<g id="edge6" class="edge">
<title>4&#45;&gt;8</title>
<path fill="none" stroke="#ff0000" d="M568.39,-347.8C568.39,-336.16 568.39,-320.55 568.39,-307.24"/>
<polygon fill="#ff0000" stroke="#ff0000" points="571.89,-307.18 568.39,-297.18 564.89,-307.18 571.89,-307.18"/>
<text text-anchor="middle" x="575.39" y="-318.8" font-family="Times,serif" font-size="14.00">no</text>
</g>
<!-- 13 -->
<g id="node8" class="node">
<title>13</title>
<ellipse fill="none" stroke="black" cx="197.39" cy="-192" rx="75.29" ry="18"/>
<text text-anchor="middle" x="197.39" y="-188.3" font-family="Times,serif" font-size="14.00">leaf=0.682135105</text>
</g>
<!-- 7&#45;&gt;13 -->
<g id="edge7" class="edge">
<title>7&#45;&gt;13</title>
<path fill="none" stroke="#0000ff" d="M336.69,-263.01C323.84,-256.88 308.87,-249.67 295.39,-243 276,-233.41 254.59,-222.52 236.74,-213.35"/>
<polygon fill="#0000ff" stroke="#0000ff" points="238.25,-210.19 227.75,-208.73 235.05,-216.42 238.25,-210.19"/>
<text text-anchor="middle" x="329.89" y="-231.8" font-family="Times,serif" font-size="14.00">yes, missing</text>
</g>
<!-- 14 -->
<g id="node9" class="node">
<title>14</title>
<ellipse fill="none" stroke="black" cx="368.39" cy="-192" rx="77.19" ry="18"/>
<text text-anchor="middle" x="368.39" y="-188.3" font-family="Times,serif" font-size="14.00">indus&lt;7.22500038</text>
</g>
<!-- 7&#45;&gt;14 -->
<g id="edge8" class="edge">
<title>7&#45;&gt;14</title>
<path fill="none" stroke="#ff0000" d="M368.39,-260.8C368.39,-249.16 368.39,-233.55 368.39,-220.24"/>
<polygon fill="#ff0000" stroke="#ff0000" points="371.89,-220.18 368.39,-210.18 364.89,-220.18 371.89,-220.18"/>
<text text-anchor="middle" x="375.39" y="-231.8" font-family="Times,serif" font-size="14.00">no</text>
</g>
<!-- 15 -->
<g id="node14" class="node">
<title>15</title>
<ellipse fill="none" stroke="black" cx="535.39" cy="-192" rx="71.49" ry="18"/>
<text text-anchor="middle" x="535.39" y="-188.3" font-family="Times,serif" font-size="14.00">leaf=2.71038723</text>
</g>
<!-- 8&#45;&gt;15 -->
<g id="edge13" class="edge">
<title>8&#45;&gt;15</title>
<path fill="none" stroke="#0000ff" d="M561.72,-260.8C557.15,-249.05 551.02,-233.24 545.81,-219.84"/>
<polygon fill="#0000ff" stroke="#0000ff" points="548.94,-218.23 542.06,-210.18 542.42,-220.76 548.94,-218.23"/>
<text text-anchor="middle" x="588.89" y="-231.8" font-family="Times,serif" font-size="14.00">yes, missing</text>
</g>
<!-- 16 -->
<g id="node15" class="node">
<title>16</title>
<ellipse fill="none" stroke="black" cx="700.39" cy="-192" rx="75.29" ry="18"/>
<text text-anchor="middle" x="700.39" y="-188.3" font-family="Times,serif" font-size="14.00">leaf=0.978082716</text>
</g>
<!-- 8&#45;&gt;16 -->
<g id="edge14" class="edge">
<title>8&#45;&gt;16</title>
<path fill="none" stroke="#ff0000" d="M595.64,-262.34C605.71,-256.42 617.15,-249.53 627.39,-243 641.18,-234.2 656.12,-224.08 668.87,-215.25"/>
<polygon fill="#ff0000" stroke="#ff0000" points="671.1,-217.96 677.31,-209.38 667.1,-212.22 671.1,-217.96"/>
<text text-anchor="middle" x="657.39" y="-231.8" font-family="Times,serif" font-size="14.00">no</text>
</g>
<!-- 21 -->
<g id="node10" class="node">
<title>21</title>
<ellipse fill="none" stroke="black" cx="228.39" cy="-105" rx="70.39" ry="18"/>
<text text-anchor="middle" x="228.39" y="-101.3" font-family="Times,serif" font-size="14.00">age&lt;11.9499998</text>
</g>
<!-- 14&#45;&gt;21 -->
<g id="edge9" class="edge">
<title>14&#45;&gt;21</title>
<path fill="none" stroke="#0000ff" d="M339.49,-175.13C328.99,-169.25 317.09,-162.44 306.39,-156 291.47,-147.02 275.22,-136.69 261.43,-127.76"/>
<polygon fill="#0000ff" stroke="#0000ff" points="263.05,-124.64 252.76,-122.12 259.24,-130.51 263.05,-124.64"/>
<text text-anchor="middle" x="340.89" y="-144.8" font-family="Times,serif" font-size="14.00">yes, missing</text>
</g>
<!-- 22 -->
<g id="node11" class="node">
<title>22</title>
<ellipse fill="none" stroke="black" cx="392.39" cy="-105" rx="75.29" ry="18"/>
<text text-anchor="middle" x="392.39" y="-101.3" font-family="Times,serif" font-size="14.00">leaf=0.550757408</text>
</g>
<!-- 14&#45;&gt;22 -->
<g id="edge10" class="edge">
<title>14&#45;&gt;22</title>
<path fill="none" stroke="#ff0000" d="M373.25,-173.8C376.57,-162.05 381.03,-146.24 384.81,-132.84"/>
<polygon fill="#ff0000" stroke="#ff0000" points="388.19,-133.75 387.54,-123.18 381.46,-131.85 388.19,-133.75"/>
<text text-anchor="middle" x="389.39" y="-144.8" font-family="Times,serif" font-size="14.00">no</text>
</g>
<!-- 29 -->
<g id="node12" class="node">
<title>29</title>
<ellipse fill="none" stroke="black" cx="75.39" cy="-18" rx="75.29" ry="18"/>
<text text-anchor="middle" x="75.39" y="-14.3" font-family="Times,serif" font-size="14.00">leaf=0.942833126</text>
</g>
<!-- 21&#45;&gt;29 -->
<g id="edge11" class="edge">
<title>21&#45;&gt;29</title>
<path fill="none" stroke="#0000ff" d="M198.22,-88.61C186.64,-82.6 173.34,-75.59 161.39,-69 144.58,-59.73 126.15,-49.08 110.68,-40"/>
<polygon fill="#0000ff" stroke="#0000ff" points="112.34,-36.91 101.95,-34.85 108.79,-42.94 112.34,-36.91"/>
<text text-anchor="middle" x="195.89" y="-57.8" font-family="Times,serif" font-size="14.00">yes, missing</text>
</g>
<!-- 30 -->
<g id="node13" class="node">
<title>30</title>
<ellipse fill="none" stroke="black" cx="240.39" cy="-18" rx="71.49" ry="18"/>
<text text-anchor="middle" x="240.39" y="-14.3" font-family="Times,serif" font-size="14.00">leaf=1.75033355</text>
</g>
<!-- 21&#45;&gt;30 -->
<g id="edge12" class="edge">
<title>21&#45;&gt;30</title>
<path fill="none" stroke="#ff0000" d="M230.82,-86.8C232.46,-75.16 234.67,-59.55 236.55,-46.24"/>
<polygon fill="#ff0000" stroke="#ff0000" points="240.04,-46.57 237.97,-36.18 233.1,-45.59 240.04,-46.57"/>
<text text-anchor="middle" x="242.39" y="-57.8" font-family="Times,serif" font-size="14.00">no</text>
</g>
<!-- 9 -->
<g id="node18" class="node">
<title>9</title>
<ellipse fill="none" stroke="black" cx="732.39" cy="-279" rx="71.49" ry="18"/>
<text text-anchor="middle" x="732.39" y="-275.3" font-family="Times,serif" font-size="14.00">leaf=2.31343174</text>
</g>
<!-- 5&#45;&gt;9 -->
<g id="edge17" class="edge">
<title>5&#45;&gt;9</title>
<path fill="none" stroke="#0000ff" d="M784.05,-348.61C774.79,-336.31 761.93,-319.23 751.37,-305.2"/>
<polygon fill="#0000ff" stroke="#0000ff" points="753.94,-302.8 745.13,-296.92 748.35,-307.01 753.94,-302.8"/>
<text text-anchor="middle" x="802.89" y="-318.8" font-family="Times,serif" font-size="14.00">yes, missing</text>
</g>
<!-- 10 -->
<g id="node19" class="node">
<title>10</title>
<ellipse fill="none" stroke="black" cx="890.39" cy="-279" rx="68.49" ry="18"/>
<text text-anchor="middle" x="890.39" y="-275.3" font-family="Times,serif" font-size="14.00">rm&lt;7.99399996</text>
</g>
<!-- 5&#45;&gt;10 -->
<g id="edge18" class="edge">
<title>5&#45;&gt;10</title>
<path fill="none" stroke="#ff0000" d="M817.47,-349.54C825.18,-343.64 833.86,-336.72 841.39,-330 850.42,-321.95 859.84,-312.6 867.97,-304.18"/>
<polygon fill="#ff0000" stroke="#ff0000" points="870.67,-306.42 875.04,-296.77 865.6,-301.59 870.67,-306.42"/>
<text text-anchor="middle" x="864.39" y="-318.8" font-family="Times,serif" font-size="14.00">no</text>
</g>
<!-- 11 -->
<g id="node28" class="node">
<title>11</title>
<ellipse fill="none" stroke="black" cx="1131.39" cy="-279" rx="71.49" ry="18"/>
<text text-anchor="middle" x="1131.39" y="-275.3" font-family="Times,serif" font-size="14.00">leaf=2.95735979</text>
</g>
<!-- 6&#45;&gt;11 -->
<g id="edge27" class="edge">
<title>6&#45;&gt;11</title>
<path fill="none" stroke="#0000ff" d="M1131.39,-347.8C1131.39,-336.16 1131.39,-320.55 1131.39,-307.24"/>
<polygon fill="#0000ff" stroke="#0000ff" points="1134.89,-307.18 1131.39,-297.18 1127.89,-307.18 1134.89,-307.18"/>
<text text-anchor="middle" x="1165.89" y="-318.8" font-family="Times,serif" font-size="14.00">yes, missing</text>
</g>
<!-- 12 -->
<g id="node29" class="node">
<title>12</title>
<ellipse fill="none" stroke="black" cx="1309.39" cy="-279" rx="50.89" ry="18"/>
<text text-anchor="middle" x="1309.39" y="-275.3" font-family="Times,serif" font-size="14.00">lstat&lt;15.54</text>
</g>
<!-- 6&#45;&gt;12 -->
<g id="edge28" class="edge">
<title>6&#45;&gt;12</title>
<path fill="none" stroke="#ff0000" d="M1162.81,-350C1193.06,-335.55 1238.86,-313.68 1271.2,-298.24"/>
<polygon fill="#ff0000" stroke="#ff0000" points="1272.84,-301.33 1280.36,-293.87 1269.83,-295.02 1272.84,-301.33"/>
<text text-anchor="middle" x="1238.39" y="-318.8" font-family="Times,serif" font-size="14.00">no</text>
</g>
<!-- 17 -->
<g id="node20" class="node">
<title>17</title>
<ellipse fill="none" stroke="black" cx="862.39" cy="-192" rx="68.49" ry="18"/>
<text text-anchor="middle" x="862.39" y="-188.3" font-family="Times,serif" font-size="14.00">rm&lt;5.40750027</text>
</g>
<!-- 10&#45;&gt;17 -->
<g id="edge19" class="edge">
<title>10&#45;&gt;17</title>
<path fill="none" stroke="#0000ff" d="M884.73,-260.8C880.86,-249.05 875.65,-233.24 871.24,-219.84"/>
<polygon fill="#0000ff" stroke="#0000ff" points="874.5,-218.58 868.05,-210.18 867.86,-220.77 874.5,-218.58"/>
<text text-anchor="middle" x="912.89" y="-231.8" font-family="Times,serif" font-size="14.00">yes, missing</text>
</g>
<!-- 18 -->
<g id="node21" class="node">
<title>18</title>
<ellipse fill="none" stroke="black" cx="1020.39" cy="-192" rx="71.49" ry="18"/>
<text text-anchor="middle" x="1020.39" y="-188.3" font-family="Times,serif" font-size="14.00">leaf=2.59881377</text>
</g>
<!-- 10&#45;&gt;18 -->
<g id="edge20" class="edge">
<title>10&#45;&gt;18</title>
<path fill="none" stroke="#ff0000" d="M918.7,-262.58C929.13,-256.69 940.94,-249.76 951.39,-243 964.59,-234.47 978.71,-224.41 990.72,-215.56"/>
<polygon fill="#ff0000" stroke="#ff0000" points="993.12,-218.14 999.05,-209.37 988.94,-212.52 993.12,-218.14"/>
<text text-anchor="middle" x="980.39" y="-231.8" font-family="Times,serif" font-size="14.00">no</text>
</g>
<!-- 23 -->
<g id="node22" class="node">
<title>23</title>
<ellipse fill="none" stroke="black" cx="586.39" cy="-105" rx="77.19" ry="18"/>
<text text-anchor="middle" x="586.39" y="-101.3" font-family="Times,serif" font-size="14.00">black&lt;353.720001</text>
</g>
<!-- 17&#45;&gt;23 -->
<g id="edge21" class="edge">
<title>17&#45;&gt;23</title>
<path fill="none" stroke="#0000ff" d="M819.87,-177.91C771.86,-163.12 693.6,-139.02 641.07,-122.84"/>
<polygon fill="#0000ff" stroke="#0000ff" points="641.84,-119.41 631.25,-119.82 639.78,-126.1 641.84,-119.41"/>
<text text-anchor="middle" x="775.89" y="-144.8" font-family="Times,serif" font-size="14.00">yes, missing</text>
</g>
<!-- 24 -->
<g id="node23" class="node">
<title>24</title>
<ellipse fill="none" stroke="black" cx="862.39" cy="-105" rx="46.59" ry="18"/>
<text text-anchor="middle" x="862.39" y="-101.3" font-family="Times,serif" font-size="14.00">tax&lt;412.5</text>
</g>
<!-- 17&#45;&gt;24 -->
<g id="edge22" class="edge">
<title>17&#45;&gt;24</title>
<path fill="none" stroke="#ff0000" d="M862.39,-173.8C862.39,-162.16 862.39,-146.55 862.39,-133.24"/>
<polygon fill="#ff0000" stroke="#ff0000" points="865.89,-133.18 862.39,-123.18 858.89,-133.18 865.89,-133.18"/>
<text text-anchor="middle" x="869.39" y="-144.8" font-family="Times,serif" font-size="14.00">no</text>
</g>
<!-- 31 -->
<g id="node24" class="node">
<title>31</title>
<ellipse fill="none" stroke="black" cx="417.39" cy="-18" rx="75.29" ry="18"/>
<text text-anchor="middle" x="417.39" y="-14.3" font-family="Times,serif" font-size="14.00">leaf=0.123397425</text>
</g>
<!-- 23&#45;&gt;31 -->
<g id="edge23" class="edge">
<title>23&#45;&gt;31</title>
<path fill="none" stroke="#0000ff" d="M553.58,-88.55C540.97,-82.54 526.47,-75.54 513.39,-69 494.53,-59.57 473.76,-48.8 456.38,-39.68"/>
<polygon fill="#0000ff" stroke="#0000ff" points="457.58,-36.35 447.1,-34.8 454.32,-42.55 457.58,-36.35"/>
<text text-anchor="middle" x="547.89" y="-57.8" font-family="Times,serif" font-size="14.00">yes, missing</text>
</g>
<!-- 32 -->
<g id="node25" class="node">
<title>32</title>
<ellipse fill="none" stroke="black" cx="586.39" cy="-18" rx="75.29" ry="18"/>
<text text-anchor="middle" x="586.39" y="-14.3" font-family="Times,serif" font-size="14.00">leaf=0.675809324</text>
</g>
<!-- 23&#45;&gt;32 -->
<g id="edge24" class="edge">
<title>23&#45;&gt;32</title>
<path fill="none" stroke="#ff0000" d="M586.39,-86.8C586.39,-75.16 586.39,-59.55 586.39,-46.24"/>
<polygon fill="#ff0000" stroke="#ff0000" points="589.89,-46.18 586.39,-36.18 582.89,-46.18 589.89,-46.18"/>
<text text-anchor="middle" x="593.39" y="-57.8" font-family="Times,serif" font-size="14.00">no</text>
</g>
<!-- 33 -->
<g id="node26" class="node">
<title>33</title>
<ellipse fill="none" stroke="black" cx="746.39" cy="-18" rx="66.89" ry="18"/>
<text text-anchor="middle" x="746.39" y="-14.3" font-family="Times,serif" font-size="14.00">leaf=1.2684108</text>
</g>
<!-- 24&#45;&gt;33 -->
<g id="edge25" class="edge">
<title>24&#45;&gt;33</title>
<path fill="none" stroke="#0000ff" d="M839.14,-89.27C829.77,-83.18 818.95,-75.92 809.39,-69 797.59,-60.44 784.94,-50.55 774.09,-41.84"/>
<polygon fill="#0000ff" stroke="#0000ff" points="776.17,-39.01 766.19,-35.44 771.76,-44.45 776.17,-39.01"/>
<text text-anchor="middle" x="843.89" y="-57.8" font-family="Times,serif" font-size="14.00">yes, missing</text>
</g>
<!-- 34 -->
<g id="node27" class="node">
<title>34</title>
<ellipse fill="none" stroke="black" cx="906.39" cy="-18" rx="75.29" ry="18"/>
<text text-anchor="middle" x="906.39" y="-14.3" font-family="Times,serif" font-size="14.00">leaf=0.624091387</text>
</g>
<!-- 24&#45;&gt;34 -->
<g id="edge26" class="edge">
<title>24&#45;&gt;34</title>
<path fill="none" stroke="#ff0000" d="M871.09,-87.21C877.31,-75.18 885.82,-58.75 892.92,-45.03"/>
<polygon fill="#ff0000" stroke="#ff0000" points="896.08,-46.54 897.57,-36.05 889.86,-43.32 896.08,-46.54"/>
<text text-anchor="middle" x="894.39" y="-57.8" font-family="Times,serif" font-size="14.00">no</text>
</g>
<!-- 19 -->
<g id="node30" class="node">
<title>19</title>
<ellipse fill="none" stroke="black" cx="1309.39" cy="-192" rx="77.19" ry="18"/>
<text text-anchor="middle" x="1309.39" y="-188.3" font-family="Times,serif" font-size="14.00">indus&lt;15.4650002</text>
</g>
<!-- 12&#45;&gt;19 -->
<g id="edge29" class="edge">
<title>12&#45;&gt;19</title>
<path fill="none" stroke="#0000ff" d="M1309.39,-260.8C1309.39,-249.16 1309.39,-233.55 1309.39,-220.24"/>
<polygon fill="#0000ff" stroke="#0000ff" points="1312.89,-220.18 1309.39,-210.18 1305.89,-220.18 1312.89,-220.18"/>
<text text-anchor="middle" x="1343.89" y="-231.8" font-family="Times,serif" font-size="14.00">yes, missing</text>
</g>
<!-- 20 -->
<g id="node31" class="node">
<title>20</title>
<ellipse fill="none" stroke="black" cx="1795.39" cy="-192" rx="63.89" ry="18"/>
<text text-anchor="middle" x="1795.39" y="-188.3" font-family="Times,serif" font-size="14.00">rm&lt;6.8380003</text>
</g>
<!-- 12&#45;&gt;20 -->
<g id="edge30" class="edge">
<title>12&#45;&gt;20</title>
<path fill="none" stroke="#ff0000" d="M1353.81,-270.23C1440.58,-255.06 1632.81,-221.44 1732.57,-203.99"/>
<polygon fill="#ff0000" stroke="#ff0000" points="1733.27,-207.42 1742.51,-202.25 1732.06,-200.52 1733.27,-207.42"/>
<text text-anchor="middle" x="1589.39" y="-231.8" font-family="Times,serif" font-size="14.00">no</text>
</g>
<!-- 25 -->
<g id="node32" class="node">
<title>25</title>
<ellipse fill="none" stroke="black" cx="1236.39" cy="-105" rx="70.39" ry="18"/>
<text text-anchor="middle" x="1236.39" y="-101.3" font-family="Times,serif" font-size="14.00">age&lt;56.4500008</text>
</g>
<!-- 19&#45;&gt;25 -->
<g id="edge31" class="edge">
<title>19&#45;&gt;25</title>
<path fill="none" stroke="#0000ff" d="M1291.82,-174.36C1286.1,-168.69 1279.82,-162.21 1274.39,-156 1267.58,-148.2 1260.59,-139.3 1254.5,-131.19"/>
<polygon fill="#0000ff" stroke="#0000ff" points="1257.28,-129.07 1248.51,-123.11 1251.65,-133.23 1257.28,-129.07"/>
<text text-anchor="middle" x="1308.89" y="-144.8" font-family="Times,serif" font-size="14.00">yes, missing</text>
</g>
<!-- 26 -->
<g id="node33" class="node">
<title>26</title>
<ellipse fill="none" stroke="black" cx="1401.39" cy="-105" rx="74.99" ry="18"/>
<text text-anchor="middle" x="1401.39" y="-101.3" font-family="Times,serif" font-size="14.00">crim&lt;16.9714012</text>
</g>
<!-- 19&#45;&gt;26 -->
<g id="edge32" class="edge">
<title>19&#45;&gt;26</title>
<path fill="none" stroke="#ff0000" d="M1327.57,-174.21C1341.3,-161.52 1360.34,-143.93 1375.64,-129.79"/>
<polygon fill="#ff0000" stroke="#ff0000" points="1378.28,-132.12 1383.25,-122.76 1373.53,-126.97 1378.28,-132.12"/>
<text text-anchor="middle" x="1368.39" y="-144.8" font-family="Times,serif" font-size="14.00">no</text>
</g>
<!-- 27 -->
<g id="node38" class="node">
<title>27</title>
<ellipse fill="none" stroke="black" cx="1795.39" cy="-105" rx="75.29" ry="18"/>
<text text-anchor="middle" x="1795.39" y="-101.3" font-family="Times,serif" font-size="14.00">nox&lt;0.675000012</text>
</g>
<!-- 20&#45;&gt;27 -->
<g id="edge37" class="edge">
<title>20&#45;&gt;27</title>
<path fill="none" stroke="#0000ff" d="M1795.39,-173.8C1795.39,-162.16 1795.39,-146.55 1795.39,-133.24"/>
<polygon fill="#0000ff" stroke="#0000ff" points="1798.89,-133.18 1795.39,-123.18 1791.89,-133.18 1798.89,-133.18"/>
<text text-anchor="middle" x="1829.89" y="-144.8" font-family="Times,serif" font-size="14.00">yes, missing</text>
</g>
<!-- 28 -->
<g id="node39" class="node">
<title>28</title>
<ellipse fill="none" stroke="black" cx="2069.39" cy="-105" rx="74.99" ry="18"/>
<text text-anchor="middle" x="2069.39" y="-101.3" font-family="Times,serif" font-size="14.00">crim&lt;51.7072487</text>
</g>
<!-- 20&#45;&gt;28 -->
<g id="edge38" class="edge">
<title>20&#45;&gt;28</title>
<path fill="none" stroke="#ff0000" d="M1836.71,-178.18C1884.46,-163.37 1963.19,-138.95 2015.67,-122.67"/>
<polygon fill="#ff0000" stroke="#ff0000" points="2016.95,-125.93 2025.47,-119.63 2014.88,-119.25 2016.95,-125.93"/>
<text text-anchor="middle" x="1956.39" y="-144.8" font-family="Times,serif" font-size="14.00">no</text>
</g>
<!-- 35 -->
<g id="node34" class="node">
<title>35</title>
<ellipse fill="none" stroke="black" cx="1071.39" cy="-18" rx="71.49" ry="18"/>
<text text-anchor="middle" x="1071.39" y="-14.3" font-family="Times,serif" font-size="14.00">leaf=1.02788222</text>
</g>
<!-- 25&#45;&gt;35 -->
<g id="edge33" class="edge">
<title>25&#45;&gt;35</title>
<path fill="none" stroke="#0000ff" d="M1203.88,-88.84C1191.18,-82.81 1176.53,-75.72 1163.39,-69 1145.09,-59.65 1125.01,-48.8 1108.29,-39.61"/>
<polygon fill="#0000ff" stroke="#0000ff" points="1109.83,-36.46 1099.38,-34.69 1106.45,-42.59 1109.83,-36.46"/>
<text text-anchor="middle" x="1197.89" y="-57.8" font-family="Times,serif" font-size="14.00">yes, missing</text>
</g>
<!-- 36 -->
<g id="node35" class="node">
<title>36</title>
<ellipse fill="none" stroke="black" cx="1236.39" cy="-18" rx="75.29" ry="18"/>
<text text-anchor="middle" x="1236.39" y="-14.3" font-family="Times,serif" font-size="14.00">leaf=0.675885737</text>
</g>
<!-- 25&#45;&gt;36 -->
<g id="edge34" class="edge">
<title>25&#45;&gt;36</title>
<path fill="none" stroke="#ff0000" d="M1236.39,-86.8C1236.39,-75.16 1236.39,-59.55 1236.39,-46.24"/>
<polygon fill="#ff0000" stroke="#ff0000" points="1239.89,-46.18 1236.39,-36.18 1232.89,-46.18 1239.89,-46.18"/>
<text text-anchor="middle" x="1243.39" y="-57.8" font-family="Times,serif" font-size="14.00">no</text>
</g>
<!-- 37 -->
<g id="node36" class="node">
<title>37</title>
<ellipse fill="none" stroke="black" cx="1401.39" cy="-18" rx="71.49" ry="18"/>
<text text-anchor="middle" x="1401.39" y="-14.3" font-family="Times,serif" font-size="14.00">leaf=1.26320934</text>
</g>
<!-- 26&#45;&gt;37 -->
<g id="edge35" class="edge">
<title>26&#45;&gt;37</title>
<path fill="none" stroke="#0000ff" d="M1401.39,-86.8C1401.39,-75.16 1401.39,-59.55 1401.39,-46.24"/>
<polygon fill="#0000ff" stroke="#0000ff" points="1404.89,-46.18 1401.39,-36.18 1397.89,-46.18 1404.89,-46.18"/>
<text text-anchor="middle" x="1435.89" y="-57.8" font-family="Times,serif" font-size="14.00">yes, missing</text>
</g>
<!-- 38 -->
<g id="node37" class="node">
<title>38</title>
<ellipse fill="none" stroke="black" cx="1566.39" cy="-18" rx="75.29" ry="18"/>
<text text-anchor="middle" x="1566.39" y="-14.3" font-family="Times,serif" font-size="14.00">leaf=0.437837601</text>
</g>
<!-- 26&#45;&gt;38 -->
<g id="edge36" class="edge">
<title>26&#45;&gt;38</title>
<path fill="none" stroke="#ff0000" d="M1434.27,-88.67C1446.89,-82.68 1461.38,-75.65 1474.39,-69 1492.56,-59.72 1512.48,-48.96 1529.12,-39.81"/>
<polygon fill="#ff0000" stroke="#ff0000" points="1530.93,-42.81 1538,-34.92 1527.55,-36.68 1530.93,-42.81"/>
<text text-anchor="middle" x="1510.39" y="-57.8" font-family="Times,serif" font-size="14.00">no</text>
</g>
<!-- 39 -->
<g id="node40" class="node">
<title>39</title>
<ellipse fill="none" stroke="black" cx="1735.39" cy="-18" rx="75.29" ry="18"/>
<text text-anchor="middle" x="1735.39" y="-14.3" font-family="Times,serif" font-size="14.00">leaf=0.735671103</text>
</g>
<!-- 27&#45;&gt;39 -->
<g id="edge39" class="edge">
<title>27&#45;&gt;39</title>
<path fill="none" stroke="#0000ff" d="M1783.54,-87.21C1774.88,-74.95 1763,-58.11 1753.21,-44.24"/>
<polygon fill="#0000ff" stroke="#0000ff" points="1756.05,-42.2 1747.43,-36.05 1750.34,-46.24 1756.05,-42.2"/>
<text text-anchor="middle" x="1803.89" y="-57.8" font-family="Times,serif" font-size="14.00">yes, missing</text>
</g>
<!-- 40 -->
<g id="node41" class="node">
<title>40</title>
<ellipse fill="none" stroke="black" cx="1904.39" cy="-18" rx="75.29" ry="18"/>
<text text-anchor="middle" x="1904.39" y="-14.3" font-family="Times,serif" font-size="14.00">leaf=0.419754595</text>
</g>
<!-- 27&#45;&gt;40 -->
<g id="edge40" class="edge">
<title>27&#45;&gt;40</title>
<path fill="none" stroke="#ff0000" d="M1817.52,-87.79C1825.42,-81.94 1834.35,-75.23 1842.39,-69 1853.72,-60.22 1866.03,-50.36 1876.67,-41.73"/>
<polygon fill="#ff0000" stroke="#ff0000" points="1878.9,-44.44 1884.45,-35.41 1874.48,-39.01 1878.9,-44.44"/>
<text text-anchor="middle" x="1868.39" y="-57.8" font-family="Times,serif" font-size="14.00">no</text>
</g>
<!-- 41 -->
<g id="node42" class="node">
<title>41</title>
<ellipse fill="none" stroke="black" cx="2069.39" cy="-18" rx="71.49" ry="18"/>
<text text-anchor="middle" x="2069.39" y="-14.3" font-family="Times,serif" font-size="14.00">leaf=1.81880581</text>
</g>
<!-- 28&#45;&gt;41 -->
<g id="edge41" class="edge">
<title>28&#45;&gt;41</title>
<path fill="none" stroke="#0000ff" d="M2069.39,-86.8C2069.39,-75.16 2069.39,-59.55 2069.39,-46.24"/>
<polygon fill="#0000ff" stroke="#0000ff" points="2072.89,-46.18 2069.39,-36.18 2065.89,-46.18 2072.89,-46.18"/>
<text text-anchor="middle" x="2103.89" y="-57.8" font-family="Times,serif" font-size="14.00">yes, missing</text>
</g>
<!-- 42 -->
<g id="node43" class="node">
<title>42</title>
<ellipse fill="none" stroke="black" cx="2234.39" cy="-18" rx="75.29" ry="18"/>
<text text-anchor="middle" x="2234.39" y="-14.3" font-family="Times,serif" font-size="14.00">leaf=0.148241624</text>
</g>
<!-- 28&#45;&gt;42 -->
<g id="edge42" class="edge">
<title>28&#45;&gt;42</title>
<path fill="none" stroke="#ff0000" d="M2102.27,-88.67C2114.89,-82.68 2129.38,-75.65 2142.39,-69 2160.56,-59.72 2180.48,-48.96 2197.12,-39.81"/>
<polygon fill="#ff0000" stroke="#ff0000" points="2198.93,-42.81 2206,-34.92 2195.55,-36.68 2198.93,-42.81"/>
<text text-anchor="middle" x="2177.39" y="-57.8" font-family="Times,serif" font-size="14.00">no</text>
</g>
</g>
</svg>
