<?xml version="1.0" encoding="utf-8" standalone="no"?>
<!DOCTYPE svg PUBLIC "-//W3C//DTD SVG 1.1//EN"
  "http://www.w3.org/Graphics/SVG/1.1/DTD/svg11.dtd">
<!-- Created with matplotlib (https://matplotlib.org/) -->
<svg height="558pt" version="1.1" viewBox="0 0 851.4 558" width="851.4pt" xmlns="http://www.w3.org/2000/svg" xmlns:xlink="http://www.w3.org/1999/xlink">
 <metadata>
  <rdf:RDF xmlns:cc="http://creativecommons.org/ns#" xmlns:dc="http://purl.org/dc/elements/1.1/" xmlns:rdf="http://www.w3.org/1999/02/22-rdf-syntax-ns#">
   <cc:Work>
    <dc:type rdf:resource="http://purl.org/dc/dcmitype/StillImage"/>
    <dc:date>2021-03-21T16:41:51.631904</dc:date>
    <dc:format>image/svg+xml</dc:format>
    <dc:creator>
     <cc:Agent>
      <dc:title>Matplotlib v3.3.4, https://matplotlib.org/</dc:title>
     </cc:Agent>
    </dc:creator>
   </cc:Work>
  </rdf:RDF>
 </metadata>
 <defs>
  <style type="text/css">*{stroke-linecap:butt;stroke-linejoin:round;}</style>
 </defs>
 <g id="figure_1">
  <g id="patch_1">
   <path d="M 0 558 
L 851.4 558 
L 851.4 0 
L 0 0 
z
" style="fill:#ffffff;"/>
  </g>
  <g id="axes_1">
   <g id="patch_2">
    <path d="M 67.663681 461.674459 
Q 89.183813 405.768396 111.105585 348.818933 
" style="fill:none;stroke:#262626;stroke-linecap:round;"/>
    <path d="M 70.809877 458.803444 
L 67.663681 461.674459 
L 67.254587 457.434893 
" style="fill:none;stroke:#262626;stroke-linecap:round;"/>
   </g>
   <g id="text_1">
    <g id="patch_3">
     <path d="M 9.997424 500.566407 
L 109.027576 500.566407 
Q 111.884773 500.566407 111.884773 497.70921 
L 111.884773 467.935729 
Q 111.884773 465.078532 109.027576 465.078532 
L 9.997424 465.078532 
Q 7.140227 465.078532 7.140227 467.935729 
L 7.140227 497.70921 
Q 7.140227 500.566407 9.997424 500.566407 
z
" style="fill:#e78c4a;stroke:#ffffff;stroke-linejoin:miter;"/>
    </g>
    <!-- gini = 0.143 -->
    <g style="fill:#262626;" transform="translate(32.36392 475.069793)scale(0.09524 -0.09524)">
     <defs>
      <path d="M 20.796875 17.96875 
Q 15.71875 17.53125 15.71875 14.0625 
Q 15.71875 9.578125 27.546875 8.984375 
L 33.296875 8.6875 
Q 51.609375 7.765625 51.609375 -4.59375 
Q 51.609375 -10.9375 45.703125 -14.984375 
Q 39.359375 -19.578125 28.03125 -19.578125 
Q 17.78125 -19.578125 11.53125 -16.0625 
Q 5.515625 -12.640625 5.515625 -6.6875 
Q 5.515625 1.3125 16.796875 3.859375 
L 16.796875 4.203125 
Q 7.90625 6.453125 7.90625 12.15625 
Q 7.90625 17.4375 15.53125 20.265625 
Q 7.125 24.609375 7.125 34.078125 
Q 7.125 41.40625 12.015625 46.296875 
Q 17.625 51.90625 27.15625 51.90625 
Q 33.203125 51.90625 37.84375 49.265625 
Q 41.40625 53.953125 50.921875 54.109375 
L 50.921875 47.078125 
Q 44.34375 46.921875 42.234375 45.90625 
Q 47.40625 40.828125 47.40625 33.890625 
Q 47.40625 27 42.71875 22.265625 
Q 37.5 17.09375 28.328125 17.09375 
Q 24.421875 17.09375 20.796875 17.96875 
z
M 27.09375 45.609375 
Q 22.015625 45.609375 18.703125 42.28125 
Q 15.4375 39.015625 15.4375 34.078125 
Q 15.4375 29.25 18.5 26.3125 
Q 21.828125 23 27.4375 23 
Q 32.71875 23 35.890625 26.21875 
Q 39.109375 29.390625 39.109375 34.421875 
Q 39.109375 39.015625 35.890625 42.1875 
Q 32.515625 45.609375 27.09375 45.609375 
z
M 27.390625 2.484375 
Q 14.109375 2.484375 14.109375 -5.71875 
Q 14.109375 -13.671875 28.125 -13.671875 
Q 37.15625 -13.671875 41.21875 -9.46875 
Q 43.3125 -7.515625 43.3125 -4.890625 
Q 43.3125 2.484375 27.390625 2.484375 
z
" id="IPAexGothic-103"/>
      <path d="M 18.40625 61.375 
L 8.59375 61.375 
L 8.59375 71.390625 
L 18.40625 71.390625 
z
M 17.78125 0.984375 
L 9.1875 0.984375 
L 9.1875 50.78125 
L 17.78125 50.78125 
z
" id="IPAexGothic-105"/>
      <path d="M 52 0.984375 
L 43.40625 0.984375 
L 43.40625 31.890625 
Q 43.40625 44.578125 32.90625 44.578125 
Q 22.3125 44.578125 17.390625 31.890625 
L 17.390625 0.984375 
L 8.796875 0.984375 
L 8.796875 50.78125 
L 16.796875 50.78125 
L 16.796875 41.796875 
Q 23.828125 51.8125 34.71875 51.8125 
Q 52 51.8125 52 32.375 
z
" id="IPAexGothic-110"/>
      <path id="IPAexGothic-32"/>
      <path d="M 6.5 43.796875 
L 61.28125 43.796875 
L 61.28125 38.09375 
L 6.5 38.09375 
z
M 6.5 25.390625 
L 61.28125 25.390625 
L 61.28125 19.671875 
L 6.5 19.671875 
z
" id="IPAexGothic-61"/>
      <path d="M 31.84375 73.828125 
Q 45.015625 73.828125 52.09375 61.625 
Q 57.71875 51.953125 57.71875 36.625 
Q 57.71875 21.4375 52.09375 11.578125 
Q 45.125 -0.484375 31.5 -0.484375 
Q 17.921875 -0.484375 10.9375 11.578125 
Q 5.328125 21.4375 5.328125 36.71875 
Q 5.328125 58.015625 15.625 67.71875 
Q 22.171875 73.828125 31.84375 73.828125 
z
M 31.5 66.65625 
Q 23.6875 66.65625 19.1875 58.734375 
Q 14.59375 50.734375 14.59375 36.625 
Q 14.59375 22.75 19.09375 14.796875 
Q 23.640625 6.984375 31.5 6.984375 
Q 40.921875 6.984375 45.453125 18.015625 
Q 48.4375 25.34375 48.4375 37.109375 
Q 48.4375 50.875 43.84375 58.734375 
Q 39.203125 66.65625 31.5 66.65625 
z
" id="IPAexGothic-48"/>
      <path d="M 18.5 0.984375 
L 7.71875 0.984375 
L 7.71875 11.765625 
L 18.5 11.765625 
z
" id="IPAexGothic-46"/>
      <path d="M 38.484375 0.984375 
L 29.6875 0.984375 
L 29.6875 64.109375 
Q 21.4375 61.28125 12.3125 59.328125 
L 10.6875 66.109375 
Q 23.734375 69.390625 32.90625 73.921875 
L 38.484375 73.921875 
z
" id="IPAexGothic-49"/>
      <path d="M 59.578125 18.109375 
L 47.796875 18.109375 
L 47.796875 0.984375 
L 39.796875 0.984375 
L 39.796875 18.109375 
L 3.078125 18.109375 
L 3.078125 26.125 
L 38.375 73.09375 
L 47.796875 73.09375 
L 47.796875 25.53125 
L 59.578125 25.53125 
z
M 40.28125 64.203125 
L 39.984375 64.203125 
Q 35.59375 57.125 31.296875 51.3125 
L 11.859375 25.53125 
L 39.796875 25.53125 
L 39.796875 49.125 
Q 39.796875 54.390625 40.28125 64.203125 
z
" id="IPAexGothic-52"/>
      <path d="M 37.203125 37.796875 
Q 54.78125 34.625 54.78125 19.96875 
Q 54.78125 11.1875 48.875 5.5625 
Q 42.328125 -0.484375 30.375 -0.484375 
Q 12.453125 -0.484375 4.5 13.765625 
L 11.8125 17.671875 
Q 17.328125 6.890625 30.28125 6.890625 
Q 37.890625 6.890625 42.09375 10.796875 
Q 46.09375 14.5 46.09375 20.171875 
Q 46.09375 26.859375 40.09375 30.90625 
Q 34.625 34.578125 25.6875 34.578125 
L 21.296875 34.578125 
L 21.296875 41.703125 
L 25.875 41.703125 
Q 34.859375 41.703125 39.59375 45.125 
Q 44.671875 48.734375 44.671875 54.828125 
Q 44.671875 61.46875 38.96875 64.65625 
Q 35.296875 66.84375 30.171875 66.84375 
Q 19.34375 66.84375 14.109375 55.90625 
L 6.78125 59.421875 
Q 14.015625 73.828125 30.28125 73.828125 
Q 40.578125 73.828125 46.96875 68.65625 
Q 53.375 63.578125 53.375 55.21875 
Q 53.375 47.3125 47.171875 42.28125 
Q 43.171875 39.0625 37.203125 38.1875 
z
" id="IPAexGothic-51"/>
     </defs>
     <use xlink:href="#IPAexGothic-103"/>
     <use x="55.517578" xlink:href="#IPAexGothic-105"/>
     <use x="82.519531" xlink:href="#IPAexGothic-110"/>
     <use x="142.919922" xlink:href="#IPAexGothic-105"/>
     <use x="169.921875" xlink:href="#IPAexGothic-32"/>
     <use x="196.923828" xlink:href="#IPAexGothic-61"/>
     <use x="264.746094" xlink:href="#IPAexGothic-32"/>
     <use x="291.748047" xlink:href="#IPAexGothic-48"/>
     <use x="354.736328" xlink:href="#IPAexGothic-46"/>
     <use x="381.152344" xlink:href="#IPAexGothic-49"/>
     <use x="444.140625" xlink:href="#IPAexGothic-52"/>
     <use x="507.128906" xlink:href="#IPAexGothic-51"/>
    </g>
    <!-- samples = 20.2% -->
    <g style="fill:#262626;" transform="translate(21.288561 485.529217)scale(0.09524 -0.09524)">
     <defs>
      <path d="M 34.90625 39.796875 
Q 30.28125 45.796875 23.1875 45.796875 
Q 13.921875 45.796875 13.921875 38.671875 
Q 13.921875 33.640625 23.921875 30.375 
L 27.203125 29.296875 
Q 41.40625 24.65625 41.40625 13.96875 
Q 41.40625 6.78125 35.5 2.6875 
Q 30.8125 -0.484375 23.390625 -0.484375 
Q 11.96875 -0.484375 4 7.859375 
L 9.421875 12.796875 
Q 15.578125 6.203125 23.6875 6.203125 
Q 33.296875 6.203125 33.296875 13.671875 
Q 33.296875 19.34375 22.703125 23.09375 
L 19.28125 24.265625 
Q 5.90625 28.953125 5.90625 37.984375 
Q 5.90625 43.703125 9.8125 47.609375 
Q 14.5 52.296875 22.703125 52.296875 
Q 33.6875 52.296875 40.71875 44.671875 
z
" id="IPAexGothic-115"/>
      <path d="M 49.3125 0.984375 
L 41.75 0.984375 
Q 39.984375 4.734375 39.546875 8.6875 
L 39.203125 8.6875 
Q 33.546875 -0.390625 22.3125 -0.390625 
Q 14.59375 -0.390625 9.71875 4.5 
Q 5.421875 8.796875 5.421875 14.984375 
Q 5.421875 30.421875 32.03125 31.203125 
L 38.71875 31.390625 
L 38.71875 33.984375 
Q 38.71875 39.203125 35.75 42.1875 
Q 32.625 45.3125 27.734375 45.3125 
Q 19.34375 45.3125 15.140625 37.15625 
L 7.71875 40.578125 
Q 14.65625 52 27.9375 52 
Q 37.109375 52 42.046875 46.875 
Q 46.625 42.28125 46.625 33.890625 
L 46.625 15.578125 
Q 46.625 6.25 49.3125 0.984375 
z
M 38.921875 25.390625 
L 33.453125 25.296875 
Q 14.109375 24.859375 14.109375 14.890625 
Q 14.109375 11.375 16.40625 9.078125 
Q 19.234375 6.296875 23.828125 6.296875 
Q 30.21875 6.296875 34.90625 10.984375 
Q 38.921875 15.140625 38.921875 21 
z
" id="IPAexGothic-97"/>
      <path d="M 78.46875 0.984375 
L 69.875 0.984375 
L 69.875 32.171875 
Q 69.875 44.828125 60.109375 44.828125 
Q 55.46875 44.828125 51.609375 40.53125 
Q 48.875 37.453125 47.796875 32.859375 
L 47.796875 0.984375 
L 39.203125 0.984375 
L 39.203125 32.28125 
Q 39.203125 44.828125 29.984375 44.828125 
Q 25.09375 44.828125 21.390625 40.53125 
Q 17.390625 36.03125 17.390625 31.890625 
L 17.390625 0.984375 
L 8.796875 0.984375 
L 8.796875 50.78125 
L 16.796875 50.78125 
L 16.796875 42.1875 
Q 21.734375 51.8125 31.6875 51.8125 
Q 42.578125 51.8125 46.1875 41.359375 
Q 51.609375 51.8125 61.765625 51.8125 
Q 69.96875 51.8125 74.5625 46 
Q 78.46875 41.21875 78.46875 32.375 
z
" id="IPAexGothic-109"/>
      <path d="M 16.796875 42 
Q 23.828125 52.203125 34.46875 52.203125 
Q 43.265625 52.203125 49.5625 45.90625 
Q 56.890625 38.578125 56.890625 25.6875 
Q 56.890625 13.140625 49.65625 5.8125 
Q 43.359375 -0.484375 34.375 -0.484375 
Q 24.515625 -0.484375 17.28125 7.765625 
L 17.28125 -19 
L 8.796875 -19 
L 8.796875 50.78125 
L 16.796875 50.78125 
z
M 17.28125 30.46875 
L 17.28125 20.171875 
Q 17.28125 14.015625 23.6875 9.375 
Q 27.984375 6.296875 32.90625 6.296875 
Q 38.578125 6.296875 42.578125 10.296875 
Q 47.90625 15.578125 47.90625 25.484375 
Q 47.90625 34.375 43.5 39.984375 
Q 39.109375 45.3125 32.8125 45.3125 
Q 25.875 45.3125 20.90625 38.8125 
Q 17.28125 34.125 17.28125 30.46875 
z
" id="IPAexGothic-112"/>
      <path d="M 17.671875 0.984375 
L 9.078125 0.984375 
L 9.078125 74.90625 
L 17.671875 74.90625 
z
" id="IPAexGothic-108"/>
      <path d="M 13.484375 24.90625 
Q 13.921875 16.265625 18.890625 11.28125 
Q 23.96875 6.203125 31.203125 6.203125 
Q 40.71875 6.203125 46.296875 15.09375 
L 51.90625 11.375 
Q 44.828125 -0.484375 30.171875 -0.484375 
Q 19.09375 -0.484375 11.96875 6.59375 
Q 4.78125 13.8125 4.78125 25.640625 
Q 4.78125 38.1875 12.3125 45.703125 
Q 19 52.390625 29 52.390625 
Q 38.421875 52.390625 44.78125 46.1875 
Q 51.90625 38.96875 51.90625 26.90625 
L 51.90625 24.90625 
z
M 43.0625 31.203125 
Q 42.328125 37.984375 38.28125 41.890625 
Q 34.28125 45.90625 28.8125 45.90625 
Q 22.46875 45.90625 17.96875 40.484375 
Q 14.890625 36.8125 13.96875 31.203125 
z
" id="IPAexGothic-101"/>
      <path d="M 57.171875 0.984375 
L 6.984375 0.984375 
L 6.984375 9.28125 
Q 12.890625 23.046875 29.59375 34.421875 
L 32.375 36.28125 
Q 40.921875 42.140625 43.609375 45.40625 
Q 46.6875 49.265625 46.6875 53.8125 
Q 46.6875 58.9375 43.0625 62.546875 
Q 39.0625 66.546875 32.5625 66.546875 
Q 19.53125 66.546875 15.484375 52 
L 7.765625 54.78125 
Q 13.328125 73.828125 33.0625 73.828125 
Q 43.84375 73.828125 50.25 67.4375 
Q 55.859375 61.671875 55.859375 53.515625 
Q 55.859375 47.46875 52.25 42.53125 
Q 48.921875 37.75 36.96875 30.28125 
L 34.859375 29 
Q 19.625 19.578125 15.28125 8.890625 
L 57.171875 8.890625 
z
" id="IPAexGothic-50"/>
      <path d="M 63.875 38.765625 
Q 70.75 38.765625 75 34.078125 
Q 79.59375 28.859375 79.59375 18.796875 
Q 79.59375 8.34375 73.875 3.078125 
Q 69.875 -0.59375 63.875 -0.59375 
Q 56.984375 -0.59375 52.78125 4.203125 
Q 48.1875 9.375 48.1875 19.09375 
Q 48.1875 29.78125 53.8125 35.0625 
Q 57.765625 38.765625 63.875 38.765625 
z
M 63.765625 32.765625 
Q 55.71875 32.765625 55.71875 19.28125 
Q 55.71875 5.5625 64.015625 5.5625 
Q 72.078125 5.5625 72.078125 19.390625 
Q 72.078125 32.765625 63.765625 32.765625 
z
M 20.796875 73.921875 
Q 27.640625 73.921875 31.890625 69.234375 
Q 36.46875 64.015625 36.46875 53.90625 
Q 36.46875 43.453125 30.765625 38.234375 
Q 26.765625 34.515625 20.796875 34.515625 
Q 13.875 34.515625 9.671875 39.3125 
Q 5.078125 44.53125 5.078125 54.25 
Q 5.078125 64.9375 10.6875 70.21875 
Q 14.703125 73.921875 20.796875 73.921875 
z
M 20.65625 67.921875 
Q 12.59375 67.921875 12.59375 54.4375 
Q 12.59375 40.71875 20.90625 40.71875 
Q 29.046875 40.71875 29.046875 54.4375 
Q 29.046875 60.296875 26.953125 63.921875 
Q 24.75 67.921875 20.65625 67.921875 
z
M 71.390625 71.921875 
L 17.28125 -2.09375 
L 13.375 1.21875 
L 67.390625 75.203125 
z
" id="IPAexGothic-37"/>
     </defs>
     <use xlink:href="#IPAexGothic-115"/>
     <use x="46.191406" xlink:href="#IPAexGothic-97"/>
     <use x="101.171875" xlink:href="#IPAexGothic-109"/>
     <use x="188.28125" xlink:href="#IPAexGothic-112"/>
     <use x="250.390625" xlink:href="#IPAexGothic-108"/>
     <use x="277.392578" xlink:href="#IPAexGothic-101"/>
     <use x="334.277344" xlink:href="#IPAexGothic-115"/>
     <use x="380.46875" xlink:href="#IPAexGothic-32"/>
     <use x="407.470703" xlink:href="#IPAexGothic-61"/>
     <use x="475.292969" xlink:href="#IPAexGothic-32"/>
     <use x="502.294922" xlink:href="#IPAexGothic-50"/>
     <use x="565.283203" xlink:href="#IPAexGothic-48"/>
     <use x="628.271484" xlink:href="#IPAexGothic-46"/>
     <use x="654.6875" xlink:href="#IPAexGothic-50"/>
     <use x="717.675781" xlink:href="#IPAexGothic-37"/>
    </g>
    <!-- value = [0.922, 0.078] -->
    <g style="fill:#262626;" transform="translate(9.997424 495.899652)scale(0.09524 -0.09524)">
     <defs>
      <path d="M 48.484375 50.78125 
L 27.296875 0.09375 
L 21.484375 0.09375 
L 0.390625 50.78125 
L 9.8125 50.78125 
L 20.90625 21.6875 
L 23.78125 13.1875 
L 24.515625 10.984375 
L 24.8125 10.984375 
Q 25.640625 13.8125 28.46875 21.6875 
L 39.3125 50.78125 
z
" id="IPAexGothic-118"/>
      <path d="M 51.3125 0.984375 
L 43.3125 0.984375 
L 43.3125 10.0625 
Q 35.9375 0 25.390625 0 
Q 16.75 0 11.921875 5.859375 
Q 8.109375 10.59375 8.109375 19.390625 
L 8.109375 50.78125 
L 16.703125 50.78125 
L 16.703125 19.671875 
Q 16.703125 7.28125 27.09375 7.28125 
Q 37.59375 7.28125 42.71875 20.171875 
L 42.71875 50.78125 
L 51.3125 50.78125 
z
" id="IPAexGothic-117"/>
      <path d="M 26.65625 -15.484375 
L 9.078125 -15.484375 
L 9.078125 74.21875 
L 26.65625 74.21875 
L 26.65625 69.34375 
L 16.0625 69.34375 
L 16.0625 -10.59375 
L 26.65625 -10.59375 
z
" id="IPAexGothic-91"/>
      <path d="M 46.625 36.8125 
Q 39.75 26.8125 28.328125 26.8125 
Q 19.578125 26.8125 13.234375 32.125 
Q 5.71875 38.421875 5.71875 49.421875 
Q 5.71875 59.578125 12.015625 66.65625 
Q 18.453125 73.828125 29.203125 73.828125 
Q 43.75 73.828125 50.640625 61.71875 
Q 55.609375 52.78125 55.609375 38.625 
Q 55.609375 19.53125 47.515625 9.1875 
Q 39.890625 -0.484375 27.640625 -0.484375 
Q 13.421875 -0.484375 6.109375 10.984375 
L 13.328125 14.890625 
Q 18.0625 6.6875 27.390625 6.6875 
Q 45.65625 6.6875 47.015625 36.8125 
z
M 29.5 66.84375 
Q 22.65625 66.84375 18.3125 61.71875 
Q 14.40625 57.078125 14.40625 50 
Q 14.40625 42.828125 18.109375 38.71875 
Q 22.40625 33.796875 29.78125 33.796875 
Q 37.984375 33.796875 42.625 40.1875 
Q 45.703125 44.484375 45.703125 49.515625 
Q 45.703125 55.515625 42.09375 60.359375 
Q 37.109375 66.84375 29.5 66.84375 
z
" id="IPAexGothic-57"/>
      <path d="M 17.96875 11.375 
Q 16.0625 -2.484375 8.796875 -15.71875 
L 2.390625 -14.015625 
Q 7.71875 -1.5625 8.890625 11.375 
z
" id="IPAexGothic-44"/>
      <path d="M 56.203125 66.609375 
Q 34.96875 32.90625 27.78125 0.984375 
L 17.671875 0.984375 
Q 24.703125 28.65625 46.09375 64.5 
L 6.6875 64.5 
L 6.6875 72.40625 
L 56.203125 72.40625 
z
" id="IPAexGothic-55"/>
      <path d="M 39.703125 37.890625 
Q 57.8125 31.734375 57.8125 18.703125 
Q 57.8125 8.453125 48.4375 3.078125 
Q 41.609375 -0.875 31.5 -0.875 
Q 21.34375 -0.875 14.5 3.078125 
Q 5.421875 8.296875 5.421875 18.40625 
Q 5.421875 31.0625 22.015625 37.203125 
L 22.015625 37.5 
Q 7.515625 42.71875 7.515625 54.828125 
Q 7.515625 64.0625 15.328125 69.625 
Q 21.96875 74.3125 31.546875 74.3125 
Q 42.234375 74.3125 48.921875 68.796875 
Q 55.515625 63.578125 55.515625 55.71875 
Q 55.515625 42.28125 39.703125 38.1875 
z
M 31.59375 41.015625 
Q 46.828125 44.625 46.828125 55.125 
Q 46.828125 61.1875 41.796875 64.84375 
Q 37.703125 67.921875 31.5 67.921875 
Q 25.09375 67.921875 20.796875 64.5 
Q 16.40625 60.890625 16.40625 55.03125 
Q 16.40625 49.21875 21.09375 45.703125 
Q 23.34375 43.890625 26.90625 42.53125 
Q 31 40.875 31.59375 41.015625 
z
M 30.90625 34.515625 
Q 14.40625 30.171875 14.40625 19 
Q 14.40625 12.109375 20.515625 8.6875 
Q 25.09375 6.109375 31.390625 6.109375 
Q 40.234375 6.109375 45.015625 10.890625 
Q 48.53125 14.40625 48.53125 19.53125 
Q 48.53125 24.90625 43.65625 28.90625 
Q 40.765625 31.15625 36.71875 32.8125 
Q 31.984375 34.71875 30.90625 34.515625 
z
" id="IPAexGothic-56"/>
      <path d="M 20.65625 -15.484375 
L 3.078125 -15.484375 
L 3.078125 -10.59375 
L 13.671875 -10.59375 
L 13.671875 69.34375 
L 3.078125 69.34375 
L 3.078125 74.21875 
L 20.65625 74.21875 
z
" id="IPAexGothic-93"/>
     </defs>
     <use xlink:href="#IPAexGothic-118"/>
     <use x="48.583984" xlink:href="#IPAexGothic-97"/>
     <use x="103.564453" xlink:href="#IPAexGothic-108"/>
     <use x="130.566406" xlink:href="#IPAexGothic-117"/>
     <use x="190.966797" xlink:href="#IPAexGothic-101"/>
     <use x="247.851562" xlink:href="#IPAexGothic-32"/>
     <use x="274.853516" xlink:href="#IPAexGothic-61"/>
     <use x="342.675781" xlink:href="#IPAexGothic-32"/>
     <use x="369.677734" xlink:href="#IPAexGothic-91"/>
     <use x="399.658203" xlink:href="#IPAexGothic-48"/>
     <use x="462.646484" xlink:href="#IPAexGothic-46"/>
     <use x="489.0625" xlink:href="#IPAexGothic-57"/>
     <use x="552.050781" xlink:href="#IPAexGothic-50"/>
     <use x="615.039062" xlink:href="#IPAexGothic-50"/>
     <use x="678.027344" xlink:href="#IPAexGothic-44"/>
     <use x="704.443359" xlink:href="#IPAexGothic-32"/>
     <use x="731.445312" xlink:href="#IPAexGothic-48"/>
     <use x="794.433594" xlink:href="#IPAexGothic-46"/>
     <use x="820.849609" xlink:href="#IPAexGothic-48"/>
     <use x="883.837891" xlink:href="#IPAexGothic-55"/>
     <use x="946.826172" xlink:href="#IPAexGothic-56"/>
     <use x="1009.814453" xlink:href="#IPAexGothic-93"/>
    </g>
   </g>
   <g id="patch_4">
    <path d="M 155.986319 461.674459 
Q 134.466187 405.768396 112.544415 348.818933 
" style="fill:none;stroke:#262626;stroke-linecap:round;"/>
    <path d="M 156.395413 457.434893 
L 155.986319 461.674459 
L 152.840123 458.803444 
" style="fill:none;stroke:#262626;stroke-linecap:round;"/>
   </g>
   <g id="text_2">
    <g id="patch_5">
     <path d="M 120.62105 500.566407 
L 207.65395 500.566407 
Q 210.511147 500.566407 210.511147 497.70921 
L 210.511147 467.935729 
Q 210.511147 465.078532 207.65395 465.078532 
L 120.62105 465.078532 
Q 117.763853 465.078532 117.763853 467.935729 
L 117.763853 497.70921 
Q 117.763853 500.566407 120.62105 500.566407 
z
" style="fill:#ea9b62;stroke:#ffffff;stroke-linejoin:miter;"/>
    </g>
    <!-- gini = 0.282 -->
    <g style="fill:#262626;" transform="translate(136.98892 475.069793)scale(0.09524 -0.09524)">
     <use xlink:href="#IPAexGothic-103"/>
     <use x="55.517578" xlink:href="#IPAexGothic-105"/>
     <use x="82.519531" xlink:href="#IPAexGothic-110"/>
     <use x="142.919922" xlink:href="#IPAexGothic-105"/>
     <use x="169.921875" xlink:href="#IPAexGothic-32"/>
     <use x="196.923828" xlink:href="#IPAexGothic-61"/>
     <use x="264.746094" xlink:href="#IPAexGothic-32"/>
     <use x="291.748047" xlink:href="#IPAexGothic-48"/>
     <use x="354.736328" xlink:href="#IPAexGothic-46"/>
     <use x="381.152344" xlink:href="#IPAexGothic-50"/>
     <use x="444.140625" xlink:href="#IPAexGothic-56"/>
     <use x="507.128906" xlink:href="#IPAexGothic-50"/>
    </g>
    <!-- samples = 26.4% -->
    <g style="fill:#262626;" transform="translate(125.913561 485.529217)scale(0.09524 -0.09524)">
     <defs>
      <path d="M 16.5 36.375 
Q 23.578125 46.578125 34.90625 46.578125 
Q 45.40625 46.578125 51.8125 39.265625 
Q 57.421875 32.90625 57.421875 23.78125 
Q 57.421875 13.8125 51.125 6.78125 
Q 44.578125 -0.484375 34.03125 -0.484375 
Q 21.484375 -0.484375 14.40625 9.078125 
Q 7.515625 18.40625 7.515625 34.8125 
Q 7.515625 53.515625 15.828125 64.203125 
Q 23.34375 73.828125 35.5 73.828125 
Q 49.859375 73.828125 56.390625 62.890625 
L 49.21875 58.984375 
Q 45.21875 66.65625 35.9375 66.65625 
Q 17.484375 66.65625 16.109375 36.375 
z
M 33.453125 39.796875 
Q 26.3125 39.796875 21.625 34.46875 
Q 17.4375 29.6875 17.4375 24.078125 
Q 17.4375 18.0625 21.140625 13.1875 
Q 26.125 6.6875 33.734375 6.6875 
Q 41.703125 6.6875 45.953125 13.1875 
Q 48.828125 17.625 48.828125 23.484375 
Q 48.828125 30.375 45.015625 34.8125 
Q 40.625 39.796875 33.453125 39.796875 
z
" id="IPAexGothic-54"/>
     </defs>
     <use xlink:href="#IPAexGothic-115"/>
     <use x="46.191406" xlink:href="#IPAexGothic-97"/>
     <use x="101.171875" xlink:href="#IPAexGothic-109"/>
     <use x="188.28125" xlink:href="#IPAexGothic-112"/>
     <use x="250.390625" xlink:href="#IPAexGothic-108"/>
     <use x="277.392578" xlink:href="#IPAexGothic-101"/>
     <use x="334.277344" xlink:href="#IPAexGothic-115"/>
     <use x="380.46875" xlink:href="#IPAexGothic-32"/>
     <use x="407.470703" xlink:href="#IPAexGothic-61"/>
     <use x="475.292969" xlink:href="#IPAexGothic-32"/>
     <use x="502.294922" xlink:href="#IPAexGothic-50"/>
     <use x="565.283203" xlink:href="#IPAexGothic-54"/>
     <use x="628.271484" xlink:href="#IPAexGothic-46"/>
     <use x="654.6875" xlink:href="#IPAexGothic-52"/>
     <use x="717.675781" xlink:href="#IPAexGothic-37"/>
    </g>
    <!-- value = [0.83, 0.17] -->
    <g style="fill:#262626;" transform="translate(120.62105 495.899652)scale(0.09524 -0.09524)">
     <use xlink:href="#IPAexGothic-118"/>
     <use x="48.583984" xlink:href="#IPAexGothic-97"/>
     <use x="103.564453" xlink:href="#IPAexGothic-108"/>
     <use x="130.566406" xlink:href="#IPAexGothic-117"/>
     <use x="190.966797" xlink:href="#IPAexGothic-101"/>
     <use x="247.851562" xlink:href="#IPAexGothic-32"/>
     <use x="274.853516" xlink:href="#IPAexGothic-61"/>
     <use x="342.675781" xlink:href="#IPAexGothic-32"/>
     <use x="369.677734" xlink:href="#IPAexGothic-91"/>
     <use x="399.658203" xlink:href="#IPAexGothic-48"/>
     <use x="462.646484" xlink:href="#IPAexGothic-46"/>
     <use x="489.0625" xlink:href="#IPAexGothic-56"/>
     <use x="552.050781" xlink:href="#IPAexGothic-51"/>
     <use x="615.039062" xlink:href="#IPAexGothic-44"/>
     <use x="641.455078" xlink:href="#IPAexGothic-32"/>
     <use x="668.457031" xlink:href="#IPAexGothic-48"/>
     <use x="731.445312" xlink:href="#IPAexGothic-46"/>
     <use x="757.861328" xlink:href="#IPAexGothic-49"/>
     <use x="820.849609" xlink:href="#IPAexGothic-55"/>
     <use x="883.837891" xlink:href="#IPAexGothic-93"/>
    </g>
   </g>
   <g id="patch_6">
    <path d="M 276.913681 461.674459 
Q 298.433813 405.768396 320.355585 348.818933 
" style="fill:none;stroke:#262626;stroke-linecap:round;"/>
    <path d="M 280.059877 458.803444 
L 276.913681 461.674459 
L 276.504587 457.434893 
" style="fill:none;stroke:#262626;stroke-linecap:round;"/>
   </g>
   <g id="text_3">
    <g id="patch_7">
     <path d="M 231.244675 500.566407 
L 306.280325 500.566407 
Q 309.137522 500.566407 309.137522 497.70921 
L 309.137522 467.935729 
Q 309.137522 465.078532 306.280325 465.078532 
L 231.244675 465.078532 
Q 228.387478 465.078532 228.387478 467.935729 
L 228.387478 497.70921 
Q 228.387478 500.566407 231.244675 500.566407 
z
" style="fill:#399de5;stroke:#ffffff;stroke-linejoin:miter;"/>
    </g>
    <!-- gini = 0.0 -->
    <g style="fill:#262626;" transform="translate(247.612545 475.069793)scale(0.09524 -0.09524)">
     <use xlink:href="#IPAexGothic-103"/>
     <use x="55.517578" xlink:href="#IPAexGothic-105"/>
     <use x="82.519531" xlink:href="#IPAexGothic-110"/>
     <use x="142.919922" xlink:href="#IPAexGothic-105"/>
     <use x="169.921875" xlink:href="#IPAexGothic-32"/>
     <use x="196.923828" xlink:href="#IPAexGothic-61"/>
     <use x="264.746094" xlink:href="#IPAexGothic-32"/>
     <use x="291.748047" xlink:href="#IPAexGothic-48"/>
     <use x="354.736328" xlink:href="#IPAexGothic-46"/>
     <use x="381.152344" xlink:href="#IPAexGothic-48"/>
    </g>
    <!-- samples = 0.4% -->
    <g style="fill:#262626;" transform="translate(233.537874 485.529217)scale(0.09524 -0.09524)">
     <use xlink:href="#IPAexGothic-115"/>
     <use x="46.191406" xlink:href="#IPAexGothic-97"/>
     <use x="101.171875" xlink:href="#IPAexGothic-109"/>
     <use x="188.28125" xlink:href="#IPAexGothic-112"/>
     <use x="250.390625" xlink:href="#IPAexGothic-108"/>
     <use x="277.392578" xlink:href="#IPAexGothic-101"/>
     <use x="334.277344" xlink:href="#IPAexGothic-115"/>
     <use x="380.46875" xlink:href="#IPAexGothic-32"/>
     <use x="407.470703" xlink:href="#IPAexGothic-61"/>
     <use x="475.292969" xlink:href="#IPAexGothic-32"/>
     <use x="502.294922" xlink:href="#IPAexGothic-48"/>
     <use x="565.283203" xlink:href="#IPAexGothic-46"/>
     <use x="591.699219" xlink:href="#IPAexGothic-52"/>
     <use x="654.6875" xlink:href="#IPAexGothic-37"/>
    </g>
    <!-- value = [0.0, 1.0] -->
    <g style="fill:#262626;" transform="translate(231.244675 495.899652)scale(0.09524 -0.09524)">
     <use xlink:href="#IPAexGothic-118"/>
     <use x="48.583984" xlink:href="#IPAexGothic-97"/>
     <use x="103.564453" xlink:href="#IPAexGothic-108"/>
     <use x="130.566406" xlink:href="#IPAexGothic-117"/>
     <use x="190.966797" xlink:href="#IPAexGothic-101"/>
     <use x="247.851562" xlink:href="#IPAexGothic-32"/>
     <use x="274.853516" xlink:href="#IPAexGothic-61"/>
     <use x="342.675781" xlink:href="#IPAexGothic-32"/>
     <use x="369.677734" xlink:href="#IPAexGothic-91"/>
     <use x="399.658203" xlink:href="#IPAexGothic-48"/>
     <use x="462.646484" xlink:href="#IPAexGothic-46"/>
     <use x="489.0625" xlink:href="#IPAexGothic-48"/>
     <use x="552.050781" xlink:href="#IPAexGothic-44"/>
     <use x="578.466797" xlink:href="#IPAexGothic-32"/>
     <use x="605.46875" xlink:href="#IPAexGothic-49"/>
     <use x="668.457031" xlink:href="#IPAexGothic-46"/>
     <use x="694.873047" xlink:href="#IPAexGothic-48"/>
     <use x="757.861328" xlink:href="#IPAexGothic-93"/>
    </g>
   </g>
   <g id="patch_8">
    <path d="M 365.236319 461.674459 
Q 343.716187 405.768396 321.794415 348.818933 
" style="fill:none;stroke:#262626;stroke-linecap:round;"/>
    <path d="M 365.645413 457.434893 
L 365.236319 461.674459 
L 362.090123 458.803444 
" style="fill:none;stroke:#262626;stroke-linecap:round;"/>
   </g>
   <g id="text_4">
    <g id="patch_9">
     <path d="M 323.872424 500.566407 
L 422.902576 500.566407 
Q 425.759773 500.566407 425.759773 497.70921 
L 425.759773 467.935729 
Q 425.759773 465.078532 422.902576 465.078532 
L 323.872424 465.078532 
Q 321.015227 465.078532 321.015227 467.935729 
L 321.015227 497.70921 
Q 321.015227 500.566407 323.872424 500.566407 
z
" style="fill:#f1bd97;stroke:#ffffff;stroke-linejoin:miter;"/>
    </g>
    <!-- gini = 0.437 -->
    <g style="fill:#262626;" transform="translate(346.23892 475.069793)scale(0.09524 -0.09524)">
     <use xlink:href="#IPAexGothic-103"/>
     <use x="55.517578" xlink:href="#IPAexGothic-105"/>
     <use x="82.519531" xlink:href="#IPAexGothic-110"/>
     <use x="142.919922" xlink:href="#IPAexGothic-105"/>
     <use x="169.921875" xlink:href="#IPAexGothic-32"/>
     <use x="196.923828" xlink:href="#IPAexGothic-61"/>
     <use x="264.746094" xlink:href="#IPAexGothic-32"/>
     <use x="291.748047" xlink:href="#IPAexGothic-48"/>
     <use x="354.736328" xlink:href="#IPAexGothic-46"/>
     <use x="381.152344" xlink:href="#IPAexGothic-52"/>
     <use x="444.140625" xlink:href="#IPAexGothic-51"/>
     <use x="507.128906" xlink:href="#IPAexGothic-55"/>
    </g>
    <!-- samples = 17.7% -->
    <g style="fill:#262626;" transform="translate(335.163561 485.529217)scale(0.09524 -0.09524)">
     <use xlink:href="#IPAexGothic-115"/>
     <use x="46.191406" xlink:href="#IPAexGothic-97"/>
     <use x="101.171875" xlink:href="#IPAexGothic-109"/>
     <use x="188.28125" xlink:href="#IPAexGothic-112"/>
     <use x="250.390625" xlink:href="#IPAexGothic-108"/>
     <use x="277.392578" xlink:href="#IPAexGothic-101"/>
     <use x="334.277344" xlink:href="#IPAexGothic-115"/>
     <use x="380.46875" xlink:href="#IPAexGothic-32"/>
     <use x="407.470703" xlink:href="#IPAexGothic-61"/>
     <use x="475.292969" xlink:href="#IPAexGothic-32"/>
     <use x="502.294922" xlink:href="#IPAexGothic-49"/>
     <use x="565.283203" xlink:href="#IPAexGothic-55"/>
     <use x="628.271484" xlink:href="#IPAexGothic-46"/>
     <use x="654.6875" xlink:href="#IPAexGothic-55"/>
     <use x="717.675781" xlink:href="#IPAexGothic-37"/>
    </g>
    <!-- value = [0.677, 0.323] -->
    <g style="fill:#262626;" transform="translate(323.872424 495.899652)scale(0.09524 -0.09524)">
     <use xlink:href="#IPAexGothic-118"/>
     <use x="48.583984" xlink:href="#IPAexGothic-97"/>
     <use x="103.564453" xlink:href="#IPAexGothic-108"/>
     <use x="130.566406" xlink:href="#IPAexGothic-117"/>
     <use x="190.966797" xlink:href="#IPAexGothic-101"/>
     <use x="247.851562" xlink:href="#IPAexGothic-32"/>
     <use x="274.853516" xlink:href="#IPAexGothic-61"/>
     <use x="342.675781" xlink:href="#IPAexGothic-32"/>
     <use x="369.677734" xlink:href="#IPAexGothic-91"/>
     <use x="399.658203" xlink:href="#IPAexGothic-48"/>
     <use x="462.646484" xlink:href="#IPAexGothic-46"/>
     <use x="489.0625" xlink:href="#IPAexGothic-54"/>
     <use x="552.050781" xlink:href="#IPAexGothic-55"/>
     <use x="615.039062" xlink:href="#IPAexGothic-55"/>
     <use x="678.027344" xlink:href="#IPAexGothic-44"/>
     <use x="704.443359" xlink:href="#IPAexGothic-32"/>
     <use x="731.445312" xlink:href="#IPAexGothic-48"/>
     <use x="794.433594" xlink:href="#IPAexGothic-46"/>
     <use x="820.849609" xlink:href="#IPAexGothic-51"/>
     <use x="883.837891" xlink:href="#IPAexGothic-50"/>
     <use x="946.826172" xlink:href="#IPAexGothic-51"/>
     <use x="1009.814453" xlink:href="#IPAexGothic-93"/>
    </g>
   </g>
   <g id="patch_10">
    <path d="M 486.163681 461.674459 
Q 507.683813 405.768396 529.605585 348.818933 
" style="fill:none;stroke:#262626;stroke-linecap:round;"/>
    <path d="M 489.309877 458.803444 
L 486.163681 461.674459 
L 485.754587 457.434893 
" style="fill:none;stroke:#262626;stroke-linecap:round;"/>
   </g>
   <g id="text_5">
    <g id="patch_11">
     <path d="M 440.494675 500.566407 
L 515.530325 500.566407 
Q 518.387522 500.566407 518.387522 497.70921 
L 518.387522 467.935729 
Q 518.387522 465.078532 515.530325 465.078532 
L 440.494675 465.078532 
Q 437.637478 465.078532 437.637478 467.935729 
L 437.637478 497.70921 
Q 437.637478 500.566407 440.494675 500.566407 
z
" style="fill:#4fa8e8;stroke:#ffffff;stroke-linejoin:miter;"/>
    </g>
    <!-- gini = 0.18 -->
    <g style="fill:#262626;" transform="translate(453.863233 475.069793)scale(0.09524 -0.09524)">
     <use xlink:href="#IPAexGothic-103"/>
     <use x="55.517578" xlink:href="#IPAexGothic-105"/>
     <use x="82.519531" xlink:href="#IPAexGothic-110"/>
     <use x="142.919922" xlink:href="#IPAexGothic-105"/>
     <use x="169.921875" xlink:href="#IPAexGothic-32"/>
     <use x="196.923828" xlink:href="#IPAexGothic-61"/>
     <use x="264.746094" xlink:href="#IPAexGothic-32"/>
     <use x="291.748047" xlink:href="#IPAexGothic-48"/>
     <use x="354.736328" xlink:href="#IPAexGothic-46"/>
     <use x="381.152344" xlink:href="#IPAexGothic-49"/>
     <use x="444.140625" xlink:href="#IPAexGothic-56"/>
    </g>
    <!-- samples = 7.9% -->
    <g style="fill:#262626;" transform="translate(442.787874 485.529217)scale(0.09524 -0.09524)">
     <use xlink:href="#IPAexGothic-115"/>
     <use x="46.191406" xlink:href="#IPAexGothic-97"/>
     <use x="101.171875" xlink:href="#IPAexGothic-109"/>
     <use x="188.28125" xlink:href="#IPAexGothic-112"/>
     <use x="250.390625" xlink:href="#IPAexGothic-108"/>
     <use x="277.392578" xlink:href="#IPAexGothic-101"/>
     <use x="334.277344" xlink:href="#IPAexGothic-115"/>
     <use x="380.46875" xlink:href="#IPAexGothic-32"/>
     <use x="407.470703" xlink:href="#IPAexGothic-61"/>
     <use x="475.292969" xlink:href="#IPAexGothic-32"/>
     <use x="502.294922" xlink:href="#IPAexGothic-55"/>
     <use x="565.283203" xlink:href="#IPAexGothic-46"/>
     <use x="591.699219" xlink:href="#IPAexGothic-57"/>
     <use x="654.6875" xlink:href="#IPAexGothic-37"/>
    </g>
    <!-- value = [0.1, 0.9] -->
    <g style="fill:#262626;" transform="translate(440.494675 495.899652)scale(0.09524 -0.09524)">
     <use xlink:href="#IPAexGothic-118"/>
     <use x="48.583984" xlink:href="#IPAexGothic-97"/>
     <use x="103.564453" xlink:href="#IPAexGothic-108"/>
     <use x="130.566406" xlink:href="#IPAexGothic-117"/>
     <use x="190.966797" xlink:href="#IPAexGothic-101"/>
     <use x="247.851562" xlink:href="#IPAexGothic-32"/>
     <use x="274.853516" xlink:href="#IPAexGothic-61"/>
     <use x="342.675781" xlink:href="#IPAexGothic-32"/>
     <use x="369.677734" xlink:href="#IPAexGothic-91"/>
     <use x="399.658203" xlink:href="#IPAexGothic-48"/>
     <use x="462.646484" xlink:href="#IPAexGothic-46"/>
     <use x="489.0625" xlink:href="#IPAexGothic-49"/>
     <use x="552.050781" xlink:href="#IPAexGothic-44"/>
     <use x="578.466797" xlink:href="#IPAexGothic-32"/>
     <use x="605.46875" xlink:href="#IPAexGothic-48"/>
     <use x="668.457031" xlink:href="#IPAexGothic-46"/>
     <use x="694.873047" xlink:href="#IPAexGothic-57"/>
     <use x="757.861328" xlink:href="#IPAexGothic-93"/>
    </g>
   </g>
   <g id="patch_12">
    <path d="M 574.486319 461.674459 
Q 552.966187 405.768396 531.044415 348.818933 
" style="fill:none;stroke:#262626;stroke-linecap:round;"/>
    <path d="M 574.895413 457.434893 
L 574.486319 461.674459 
L 571.340123 458.803444 
" style="fill:none;stroke:#262626;stroke-linecap:round;"/>
   </g>
   <g id="text_6">
    <g id="patch_13">
     <path d="M 539.12105 500.566407 
L 626.15395 500.566407 
Q 629.011147 500.566407 629.011147 497.70921 
L 629.011147 467.935729 
Q 629.011147 465.078532 626.15395 465.078532 
L 539.12105 465.078532 
Q 536.263853 465.078532 536.263853 467.935729 
L 536.263853 497.70921 
Q 536.263853 500.566407 539.12105 500.566407 
z
" style="fill:#3d9fe6;stroke:#ffffff;stroke-linejoin:miter;"/>
    </g>
    <!-- gini = 0.039 -->
    <g style="fill:#262626;" transform="translate(555.48892 475.069793)scale(0.09524 -0.09524)">
     <use xlink:href="#IPAexGothic-103"/>
     <use x="55.517578" xlink:href="#IPAexGothic-105"/>
     <use x="82.519531" xlink:href="#IPAexGothic-110"/>
     <use x="142.919922" xlink:href="#IPAexGothic-105"/>
     <use x="169.921875" xlink:href="#IPAexGothic-32"/>
     <use x="196.923828" xlink:href="#IPAexGothic-61"/>
     <use x="264.746094" xlink:href="#IPAexGothic-32"/>
     <use x="291.748047" xlink:href="#IPAexGothic-48"/>
     <use x="354.736328" xlink:href="#IPAexGothic-46"/>
     <use x="381.152344" xlink:href="#IPAexGothic-48"/>
     <use x="444.140625" xlink:href="#IPAexGothic-51"/>
     <use x="507.128906" xlink:href="#IPAexGothic-57"/>
    </g>
    <!-- samples = 11.2% -->
    <g style="fill:#262626;" transform="translate(544.413561 485.529217)scale(0.09524 -0.09524)">
     <use xlink:href="#IPAexGothic-115"/>
     <use x="46.191406" xlink:href="#IPAexGothic-97"/>
     <use x="101.171875" xlink:href="#IPAexGothic-109"/>
     <use x="188.28125" xlink:href="#IPAexGothic-112"/>
     <use x="250.390625" xlink:href="#IPAexGothic-108"/>
     <use x="277.392578" xlink:href="#IPAexGothic-101"/>
     <use x="334.277344" xlink:href="#IPAexGothic-115"/>
     <use x="380.46875" xlink:href="#IPAexGothic-32"/>
     <use x="407.470703" xlink:href="#IPAexGothic-61"/>
     <use x="475.292969" xlink:href="#IPAexGothic-32"/>
     <use x="502.294922" xlink:href="#IPAexGothic-49"/>
     <use x="565.283203" xlink:href="#IPAexGothic-49"/>
     <use x="628.271484" xlink:href="#IPAexGothic-46"/>
     <use x="654.6875" xlink:href="#IPAexGothic-50"/>
     <use x="717.675781" xlink:href="#IPAexGothic-37"/>
    </g>
    <!-- value = [0.02, 0.98] -->
    <g style="fill:#262626;" transform="translate(539.12105 495.899652)scale(0.09524 -0.09524)">
     <use xlink:href="#IPAexGothic-118"/>
     <use x="48.583984" xlink:href="#IPAexGothic-97"/>
     <use x="103.564453" xlink:href="#IPAexGothic-108"/>
     <use x="130.566406" xlink:href="#IPAexGothic-117"/>
     <use x="190.966797" xlink:href="#IPAexGothic-101"/>
     <use x="247.851562" xlink:href="#IPAexGothic-32"/>
     <use x="274.853516" xlink:href="#IPAexGothic-61"/>
     <use x="342.675781" xlink:href="#IPAexGothic-32"/>
     <use x="369.677734" xlink:href="#IPAexGothic-91"/>
     <use x="399.658203" xlink:href="#IPAexGothic-48"/>
     <use x="462.646484" xlink:href="#IPAexGothic-46"/>
     <use x="489.0625" xlink:href="#IPAexGothic-48"/>
     <use x="552.050781" xlink:href="#IPAexGothic-50"/>
     <use x="615.039062" xlink:href="#IPAexGothic-44"/>
     <use x="641.455078" xlink:href="#IPAexGothic-32"/>
     <use x="668.457031" xlink:href="#IPAexGothic-48"/>
     <use x="731.445312" xlink:href="#IPAexGothic-46"/>
     <use x="757.861328" xlink:href="#IPAexGothic-57"/>
     <use x="820.849609" xlink:href="#IPAexGothic-56"/>
     <use x="883.837891" xlink:href="#IPAexGothic-93"/>
    </g>
   </g>
   <g id="patch_14">
    <path d="M 695.413681 461.674459 
Q 716.933813 405.768396 738.855585 348.818933 
" style="fill:none;stroke:#262626;stroke-linecap:round;"/>
    <path d="M 698.559877 458.803444 
L 695.413681 461.674459 
L 695.004587 457.434893 
" style="fill:none;stroke:#262626;stroke-linecap:round;"/>
   </g>
   <g id="text_7">
    <g id="patch_15">
     <path d="M 643.74605 500.566407 
L 730.77895 500.566407 
Q 733.636147 500.566407 733.636147 497.70921 
L 733.636147 467.935729 
Q 733.636147 465.078532 730.77895 465.078532 
L 643.74605 465.078532 
Q 640.888853 465.078532 640.888853 467.935729 
L 640.888853 497.70921 
Q 640.888853 500.566407 643.74605 500.566407 
z
" style="fill:#c3e1f7;stroke:#ffffff;stroke-linejoin:miter;"/>
    </g>
    <!-- gini = 0.484 -->
    <g style="fill:#262626;" transform="translate(660.11392 475.069793)scale(0.09524 -0.09524)">
     <use xlink:href="#IPAexGothic-103"/>
     <use x="55.517578" xlink:href="#IPAexGothic-105"/>
     <use x="82.519531" xlink:href="#IPAexGothic-110"/>
     <use x="142.919922" xlink:href="#IPAexGothic-105"/>
     <use x="169.921875" xlink:href="#IPAexGothic-32"/>
     <use x="196.923828" xlink:href="#IPAexGothic-61"/>
     <use x="264.746094" xlink:href="#IPAexGothic-32"/>
     <use x="291.748047" xlink:href="#IPAexGothic-48"/>
     <use x="354.736328" xlink:href="#IPAexGothic-46"/>
     <use x="381.152344" xlink:href="#IPAexGothic-52"/>
     <use x="444.140625" xlink:href="#IPAexGothic-56"/>
     <use x="507.128906" xlink:href="#IPAexGothic-52"/>
    </g>
    <!-- samples = 13.1% -->
    <g style="fill:#262626;" transform="translate(649.038561 485.529217)scale(0.09524 -0.09524)">
     <use xlink:href="#IPAexGothic-115"/>
     <use x="46.191406" xlink:href="#IPAexGothic-97"/>
     <use x="101.171875" xlink:href="#IPAexGothic-109"/>
     <use x="188.28125" xlink:href="#IPAexGothic-112"/>
     <use x="250.390625" xlink:href="#IPAexGothic-108"/>
     <use x="277.392578" xlink:href="#IPAexGothic-101"/>
     <use x="334.277344" xlink:href="#IPAexGothic-115"/>
     <use x="380.46875" xlink:href="#IPAexGothic-32"/>
     <use x="407.470703" xlink:href="#IPAexGothic-61"/>
     <use x="475.292969" xlink:href="#IPAexGothic-32"/>
     <use x="502.294922" xlink:href="#IPAexGothic-49"/>
     <use x="565.283203" xlink:href="#IPAexGothic-51"/>
     <use x="628.271484" xlink:href="#IPAexGothic-46"/>
     <use x="654.6875" xlink:href="#IPAexGothic-49"/>
     <use x="717.675781" xlink:href="#IPAexGothic-37"/>
    </g>
    <!-- value = [0.41, 0.59] -->
    <g style="fill:#262626;" transform="translate(643.74605 495.899652)scale(0.09524 -0.09524)">
     <defs>
      <path d="M 18.40625 40.671875 
Q 25.53125 46.296875 33.9375 46.296875 
Q 44 46.296875 50.640625 39.5 
Q 56.84375 33.015625 56.84375 23.390625 
Q 56.84375 14.65625 51.515625 8.015625 
Q 44.828125 -0.484375 31.734375 -0.484375 
Q 14.984375 -0.484375 7.328125 12.25 
L 14.65625 16.0625 
Q 20.453125 6.78125 31.453125 6.78125 
Q 38.53125 6.78125 43.265625 11.1875 
Q 48.140625 15.828125 48.140625 23.484375 
Q 48.140625 30.71875 43.84375 35.015625 
Q 39.359375 39.5 32.125 39.5 
Q 21.96875 39.5 16.75 31.6875 
L 9.234375 32.671875 
L 13.8125 72.40625 
L 53.21875 72.40625 
L 53.21875 64.890625 
L 20.953125 64.890625 
L 17.71875 40.671875 
z
" id="IPAexGothic-53"/>
     </defs>
     <use xlink:href="#IPAexGothic-118"/>
     <use x="48.583984" xlink:href="#IPAexGothic-97"/>
     <use x="103.564453" xlink:href="#IPAexGothic-108"/>
     <use x="130.566406" xlink:href="#IPAexGothic-117"/>
     <use x="190.966797" xlink:href="#IPAexGothic-101"/>
     <use x="247.851562" xlink:href="#IPAexGothic-32"/>
     <use x="274.853516" xlink:href="#IPAexGothic-61"/>
     <use x="342.675781" xlink:href="#IPAexGothic-32"/>
     <use x="369.677734" xlink:href="#IPAexGothic-91"/>
     <use x="399.658203" xlink:href="#IPAexGothic-48"/>
     <use x="462.646484" xlink:href="#IPAexGothic-46"/>
     <use x="489.0625" xlink:href="#IPAexGothic-52"/>
     <use x="552.050781" xlink:href="#IPAexGothic-49"/>
     <use x="615.039062" xlink:href="#IPAexGothic-44"/>
     <use x="641.455078" xlink:href="#IPAexGothic-32"/>
     <use x="668.457031" xlink:href="#IPAexGothic-48"/>
     <use x="731.445312" xlink:href="#IPAexGothic-46"/>
     <use x="757.861328" xlink:href="#IPAexGothic-53"/>
     <use x="820.849609" xlink:href="#IPAexGothic-57"/>
     <use x="883.837891" xlink:href="#IPAexGothic-93"/>
    </g>
   </g>
   <g id="patch_16">
    <path d="M 783.736319 461.674459 
Q 762.216187 405.768396 740.294415 348.818933 
" style="fill:none;stroke:#262626;stroke-linecap:round;"/>
    <path d="M 784.145413 457.434893 
L 783.736319 461.674459 
L 780.590123 458.803444 
" style="fill:none;stroke:#262626;stroke-linecap:round;"/>
   </g>
   <g id="text_8">
    <g id="patch_17">
     <path d="M 742.372424 500.566407 
L 841.402576 500.566407 
Q 844.259773 500.566407 844.259773 497.70921 
L 844.259773 467.935729 
Q 844.259773 465.078532 841.402576 465.078532 
L 742.372424 465.078532 
Q 739.515227 465.078532 739.515227 467.935729 
L 739.515227 497.70921 
Q 739.515227 500.566407 742.372424 500.566407 
z
" style="fill:#e89152;stroke:#ffffff;stroke-linejoin:miter;"/>
    </g>
    <!-- gini = 0.198 -->
    <g style="fill:#262626;" transform="translate(764.73892 475.069793)scale(0.09524 -0.09524)">
     <use xlink:href="#IPAexGothic-103"/>
     <use x="55.517578" xlink:href="#IPAexGothic-105"/>
     <use x="82.519531" xlink:href="#IPAexGothic-110"/>
     <use x="142.919922" xlink:href="#IPAexGothic-105"/>
     <use x="169.921875" xlink:href="#IPAexGothic-32"/>
     <use x="196.923828" xlink:href="#IPAexGothic-61"/>
     <use x="264.746094" xlink:href="#IPAexGothic-32"/>
     <use x="291.748047" xlink:href="#IPAexGothic-48"/>
     <use x="354.736328" xlink:href="#IPAexGothic-46"/>
     <use x="381.152344" xlink:href="#IPAexGothic-49"/>
     <use x="444.140625" xlink:href="#IPAexGothic-57"/>
     <use x="507.128906" xlink:href="#IPAexGothic-56"/>
    </g>
    <!-- samples = 3.0% -->
    <g style="fill:#262626;" transform="translate(756.662874 485.529217)scale(0.09524 -0.09524)">
     <use xlink:href="#IPAexGothic-115"/>
     <use x="46.191406" xlink:href="#IPAexGothic-97"/>
     <use x="101.171875" xlink:href="#IPAexGothic-109"/>
     <use x="188.28125" xlink:href="#IPAexGothic-112"/>
     <use x="250.390625" xlink:href="#IPAexGothic-108"/>
     <use x="277.392578" xlink:href="#IPAexGothic-101"/>
     <use x="334.277344" xlink:href="#IPAexGothic-115"/>
     <use x="380.46875" xlink:href="#IPAexGothic-32"/>
     <use x="407.470703" xlink:href="#IPAexGothic-61"/>
     <use x="475.292969" xlink:href="#IPAexGothic-32"/>
     <use x="502.294922" xlink:href="#IPAexGothic-51"/>
     <use x="565.283203" xlink:href="#IPAexGothic-46"/>
     <use x="591.699219" xlink:href="#IPAexGothic-48"/>
     <use x="654.6875" xlink:href="#IPAexGothic-37"/>
    </g>
    <!-- value = [0.889, 0.111] -->
    <g style="fill:#262626;" transform="translate(742.372424 495.899652)scale(0.09524 -0.09524)">
     <use xlink:href="#IPAexGothic-118"/>
     <use x="48.583984" xlink:href="#IPAexGothic-97"/>
     <use x="103.564453" xlink:href="#IPAexGothic-108"/>
     <use x="130.566406" xlink:href="#IPAexGothic-117"/>
     <use x="190.966797" xlink:href="#IPAexGothic-101"/>
     <use x="247.851562" xlink:href="#IPAexGothic-32"/>
     <use x="274.853516" xlink:href="#IPAexGothic-61"/>
     <use x="342.675781" xlink:href="#IPAexGothic-32"/>
     <use x="369.677734" xlink:href="#IPAexGothic-91"/>
     <use x="399.658203" xlink:href="#IPAexGothic-48"/>
     <use x="462.646484" xlink:href="#IPAexGothic-46"/>
     <use x="489.0625" xlink:href="#IPAexGothic-56"/>
     <use x="552.050781" xlink:href="#IPAexGothic-56"/>
     <use x="615.039062" xlink:href="#IPAexGothic-57"/>
     <use x="678.027344" xlink:href="#IPAexGothic-44"/>
     <use x="704.443359" xlink:href="#IPAexGothic-32"/>
     <use x="731.445312" xlink:href="#IPAexGothic-48"/>
     <use x="794.433594" xlink:href="#IPAexGothic-46"/>
     <use x="820.849609" xlink:href="#IPAexGothic-49"/>
     <use x="883.837891" xlink:href="#IPAexGothic-49"/>
     <use x="946.826172" xlink:href="#IPAexGothic-49"/>
     <use x="1009.814453" xlink:href="#IPAexGothic-93"/>
    </g>
   </g>
   <g id="patch_18">
    <path d="M 131.763483 321.051411 
Q 173.154797 267.28721 215.228142 212.637102 
" style="fill:none;stroke:#262626;stroke-linecap:round;"/>
    <path d="M 135.596767 319.194742 
L 131.763483 321.051411 
L 132.578119 316.870783 
" style="fill:none;stroke:#262626;stroke-linecap:round;"/>
   </g>
   <g id="text_9">
    <g id="patch_19">
     <path d="M 68.30855 369.879155 
L 155.34145 369.879155 
Q 158.198647 369.879155 158.198647 367.021958 
L 158.198647 326.878042 
Q 158.198647 324.020845 155.34145 324.020845 
L 68.30855 324.020845 
Q 65.451353 324.020845 65.451353 326.878042 
L 65.451353 367.021958 
Q 65.451353 369.879155 68.30855 369.879155 
z
" style="fill:#e99457;stroke:#ffffff;stroke-linejoin:miter;"/>
    </g>
    <!-- Fare &lt;= 7.91 -->
    <g style="fill:#262626;" transform="translate(82.724746 334.012106)scale(0.09524 -0.09524)">
     <defs>
      <path d="M 54.203125 64.703125 
L 18.3125 64.703125 
L 18.3125 41.5 
L 50.09375 41.5 
L 50.09375 34.1875 
L 18.3125 34.1875 
L 18.3125 0.984375 
L 9.515625 0.984375 
L 9.515625 72.40625 
L 54.203125 72.40625 
z
" id="IPAexGothic-70"/>
      <path d="M 36.078125 51.8125 
L 34.578125 43.265625 
Q 32.90625 43.609375 31.59375 43.609375 
Q 25.828125 43.609375 22.078125 38.1875 
Q 17.390625 31.34375 17.390625 26.171875 
L 17.390625 0.984375 
L 8.796875 0.984375 
L 8.796875 50.78125 
L 16.890625 50.78125 
L 16.5 35.984375 
L 16.703125 35.984375 
Q 22.21875 52.203125 32.765625 52.203125 
Q 34.46875 52.203125 36.078125 51.8125 
z
" id="IPAexGothic-114"/>
      <path d="M 14.015625 31.6875 
L 61.375 9.515625 
L 58.890625 4.109375 
L 6.390625 29.390625 
L 6.390625 33.984375 
L 58.890625 59.28125 
L 61.375 53.90625 
z
" id="IPAexGothic-60"/>
     </defs>
     <use xlink:href="#IPAexGothic-70"/>
     <use x="57.177734" xlink:href="#IPAexGothic-97"/>
     <use x="112.158203" xlink:href="#IPAexGothic-114"/>
     <use x="149.169922" xlink:href="#IPAexGothic-101"/>
     <use x="206.054688" xlink:href="#IPAexGothic-32"/>
     <use x="233.056641" xlink:href="#IPAexGothic-60"/>
     <use x="300.878906" xlink:href="#IPAexGothic-61"/>
     <use x="368.701172" xlink:href="#IPAexGothic-32"/>
     <use x="395.703125" xlink:href="#IPAexGothic-55"/>
     <use x="458.691406" xlink:href="#IPAexGothic-46"/>
     <use x="485.107422" xlink:href="#IPAexGothic-57"/>
     <use x="548.095703" xlink:href="#IPAexGothic-49"/>
    </g>
    <!-- gini = 0.226 -->
    <g style="fill:#262626;" transform="translate(84.67642 344.382541)scale(0.09524 -0.09524)">
     <use xlink:href="#IPAexGothic-103"/>
     <use x="55.517578" xlink:href="#IPAexGothic-105"/>
     <use x="82.519531" xlink:href="#IPAexGothic-110"/>
     <use x="142.919922" xlink:href="#IPAexGothic-105"/>
     <use x="169.921875" xlink:href="#IPAexGothic-32"/>
     <use x="196.923828" xlink:href="#IPAexGothic-61"/>
     <use x="264.746094" xlink:href="#IPAexGothic-32"/>
     <use x="291.748047" xlink:href="#IPAexGothic-48"/>
     <use x="354.736328" xlink:href="#IPAexGothic-46"/>
     <use x="381.152344" xlink:href="#IPAexGothic-50"/>
     <use x="444.140625" xlink:href="#IPAexGothic-50"/>
     <use x="507.128906" xlink:href="#IPAexGothic-54"/>
    </g>
    <!-- samples = 46.6% -->
    <g style="fill:#262626;" transform="translate(73.601061 354.841965)scale(0.09524 -0.09524)">
     <use xlink:href="#IPAexGothic-115"/>
     <use x="46.191406" xlink:href="#IPAexGothic-97"/>
     <use x="101.171875" xlink:href="#IPAexGothic-109"/>
     <use x="188.28125" xlink:href="#IPAexGothic-112"/>
     <use x="250.390625" xlink:href="#IPAexGothic-108"/>
     <use x="277.392578" xlink:href="#IPAexGothic-101"/>
     <use x="334.277344" xlink:href="#IPAexGothic-115"/>
     <use x="380.46875" xlink:href="#IPAexGothic-32"/>
     <use x="407.470703" xlink:href="#IPAexGothic-61"/>
     <use x="475.292969" xlink:href="#IPAexGothic-32"/>
     <use x="502.294922" xlink:href="#IPAexGothic-52"/>
     <use x="565.283203" xlink:href="#IPAexGothic-54"/>
     <use x="628.271484" xlink:href="#IPAexGothic-46"/>
     <use x="654.6875" xlink:href="#IPAexGothic-54"/>
     <use x="717.675781" xlink:href="#IPAexGothic-37"/>
    </g>
    <!-- value = [0.87, 0.13] -->
    <g style="fill:#262626;" transform="translate(68.30855 365.2124)scale(0.09524 -0.09524)">
     <use xlink:href="#IPAexGothic-118"/>
     <use x="48.583984" xlink:href="#IPAexGothic-97"/>
     <use x="103.564453" xlink:href="#IPAexGothic-108"/>
     <use x="130.566406" xlink:href="#IPAexGothic-117"/>
     <use x="190.966797" xlink:href="#IPAexGothic-101"/>
     <use x="247.851562" xlink:href="#IPAexGothic-32"/>
     <use x="274.853516" xlink:href="#IPAexGothic-61"/>
     <use x="342.675781" xlink:href="#IPAexGothic-32"/>
     <use x="369.677734" xlink:href="#IPAexGothic-91"/>
     <use x="399.658203" xlink:href="#IPAexGothic-48"/>
     <use x="462.646484" xlink:href="#IPAexGothic-46"/>
     <use x="489.0625" xlink:href="#IPAexGothic-56"/>
     <use x="552.050781" xlink:href="#IPAexGothic-55"/>
     <use x="615.039062" xlink:href="#IPAexGothic-44"/>
     <use x="641.455078" xlink:href="#IPAexGothic-32"/>
     <use x="668.457031" xlink:href="#IPAexGothic-48"/>
     <use x="731.445312" xlink:href="#IPAexGothic-46"/>
     <use x="757.861328" xlink:href="#IPAexGothic-49"/>
     <use x="820.849609" xlink:href="#IPAexGothic-51"/>
     <use x="883.837891" xlink:href="#IPAexGothic-93"/>
    </g>
   </g>
   <g id="patch_20">
    <path d="M 301.136517 321.051411 
Q 259.745203 267.28721 217.671858 212.637102 
" style="fill:none;stroke:#262626;stroke-linecap:round;"/>
    <path d="M 300.321881 316.870783 
L 301.136517 321.051411 
L 297.303233 319.194742 
" style="fill:none;stroke:#262626;stroke-linecap:round;"/>
   </g>
   <g id="text_10">
    <g id="patch_21">
     <path d="M 277.55855 369.879155 
L 364.59145 369.879155 
Q 367.448647 369.879155 367.448647 367.021958 
L 367.448647 326.878042 
Q 367.448647 324.020845 364.59145 324.020845 
L 277.55855 324.020845 
Q 274.701353 324.020845 274.701353 326.878042 
L 274.701353 367.021958 
Q 274.701353 369.879155 277.55855 369.879155 
z
" style="fill:#f2c29f;stroke:#ffffff;stroke-linejoin:miter;"/>
    </g>
    <!-- Fare &lt;= 26.469 -->
    <g style="fill:#262626;" transform="translate(285.97612 334.012106)scale(0.09524 -0.09524)">
     <use xlink:href="#IPAexGothic-70"/>
     <use x="57.177734" xlink:href="#IPAexGothic-97"/>
     <use x="112.158203" xlink:href="#IPAexGothic-114"/>
     <use x="149.169922" xlink:href="#IPAexGothic-101"/>
     <use x="206.054688" xlink:href="#IPAexGothic-32"/>
     <use x="233.056641" xlink:href="#IPAexGothic-60"/>
     <use x="300.878906" xlink:href="#IPAexGothic-61"/>
     <use x="368.701172" xlink:href="#IPAexGothic-32"/>
     <use x="395.703125" xlink:href="#IPAexGothic-50"/>
     <use x="458.691406" xlink:href="#IPAexGothic-54"/>
     <use x="521.679688" xlink:href="#IPAexGothic-46"/>
     <use x="548.095703" xlink:href="#IPAexGothic-52"/>
     <use x="611.083984" xlink:href="#IPAexGothic-54"/>
     <use x="674.072266" xlink:href="#IPAexGothic-57"/>
    </g>
    <!-- gini = 0.448 -->
    <g style="fill:#262626;" transform="translate(293.92642 344.382541)scale(0.09524 -0.09524)">
     <use xlink:href="#IPAexGothic-103"/>
     <use x="55.517578" xlink:href="#IPAexGothic-105"/>
     <use x="82.519531" xlink:href="#IPAexGothic-110"/>
     <use x="142.919922" xlink:href="#IPAexGothic-105"/>
     <use x="169.921875" xlink:href="#IPAexGothic-32"/>
     <use x="196.923828" xlink:href="#IPAexGothic-61"/>
     <use x="264.746094" xlink:href="#IPAexGothic-32"/>
     <use x="291.748047" xlink:href="#IPAexGothic-48"/>
     <use x="354.736328" xlink:href="#IPAexGothic-46"/>
     <use x="381.152344" xlink:href="#IPAexGothic-52"/>
     <use x="444.140625" xlink:href="#IPAexGothic-52"/>
     <use x="507.128906" xlink:href="#IPAexGothic-56"/>
    </g>
    <!-- samples = 18.2% -->
    <g style="fill:#262626;" transform="translate(282.851061 354.841965)scale(0.09524 -0.09524)">
     <use xlink:href="#IPAexGothic-115"/>
     <use x="46.191406" xlink:href="#IPAexGothic-97"/>
     <use x="101.171875" xlink:href="#IPAexGothic-109"/>
     <use x="188.28125" xlink:href="#IPAexGothic-112"/>
     <use x="250.390625" xlink:href="#IPAexGothic-108"/>
     <use x="277.392578" xlink:href="#IPAexGothic-101"/>
     <use x="334.277344" xlink:href="#IPAexGothic-115"/>
     <use x="380.46875" xlink:href="#IPAexGothic-32"/>
     <use x="407.470703" xlink:href="#IPAexGothic-61"/>
     <use x="475.292969" xlink:href="#IPAexGothic-32"/>
     <use x="502.294922" xlink:href="#IPAexGothic-49"/>
     <use x="565.283203" xlink:href="#IPAexGothic-56"/>
     <use x="628.271484" xlink:href="#IPAexGothic-46"/>
     <use x="654.6875" xlink:href="#IPAexGothic-50"/>
     <use x="717.675781" xlink:href="#IPAexGothic-37"/>
    </g>
    <!-- value = [0.66, 0.34] -->
    <g style="fill:#262626;" transform="translate(277.55855 365.2124)scale(0.09524 -0.09524)">
     <use xlink:href="#IPAexGothic-118"/>
     <use x="48.583984" xlink:href="#IPAexGothic-97"/>
     <use x="103.564453" xlink:href="#IPAexGothic-108"/>
     <use x="130.566406" xlink:href="#IPAexGothic-117"/>
     <use x="190.966797" xlink:href="#IPAexGothic-101"/>
     <use x="247.851562" xlink:href="#IPAexGothic-32"/>
     <use x="274.853516" xlink:href="#IPAexGothic-61"/>
     <use x="342.675781" xlink:href="#IPAexGothic-32"/>
     <use x="369.677734" xlink:href="#IPAexGothic-91"/>
     <use x="399.658203" xlink:href="#IPAexGothic-48"/>
     <use x="462.646484" xlink:href="#IPAexGothic-46"/>
     <use x="489.0625" xlink:href="#IPAexGothic-54"/>
     <use x="552.050781" xlink:href="#IPAexGothic-54"/>
     <use x="615.039062" xlink:href="#IPAexGothic-44"/>
     <use x="641.455078" xlink:href="#IPAexGothic-32"/>
     <use x="668.457031" xlink:href="#IPAexGothic-48"/>
     <use x="731.445312" xlink:href="#IPAexGothic-46"/>
     <use x="757.861328" xlink:href="#IPAexGothic-51"/>
     <use x="820.849609" xlink:href="#IPAexGothic-52"/>
     <use x="883.837891" xlink:href="#IPAexGothic-93"/>
    </g>
   </g>
   <g id="patch_22">
    <path d="M 550.263483 321.051411 
Q 591.654797 267.28721 633.728142 212.637102 
" style="fill:none;stroke:#262626;stroke-linecap:round;"/>
    <path d="M 554.096767 319.194742 
L 550.263483 321.051411 
L 551.078119 316.870783 
" style="fill:none;stroke:#262626;stroke-linecap:round;"/>
   </g>
   <g id="text_11">
    <g id="patch_23">
     <path d="M 480.809924 369.879155 
L 579.840076 369.879155 
Q 582.697273 369.879155 582.697273 367.021958 
L 582.697273 326.878042 
Q 582.697273 324.020845 579.840076 324.020845 
L 480.809924 324.020845 
Q 477.952727 324.020845 477.952727 326.878042 
L 477.952727 367.021958 
Q 477.952727 369.879155 480.809924 369.879155 
z
" style="fill:#44a2e6;stroke:#ffffff;stroke-linejoin:miter;"/>
    </g>
    <!-- Fare &lt;= 28.856 -->
    <g style="fill:#262626;" transform="translate(495.22612 334.012106)scale(0.09524 -0.09524)">
     <use xlink:href="#IPAexGothic-70"/>
     <use x="57.177734" xlink:href="#IPAexGothic-97"/>
     <use x="112.158203" xlink:href="#IPAexGothic-114"/>
     <use x="149.169922" xlink:href="#IPAexGothic-101"/>
     <use x="206.054688" xlink:href="#IPAexGothic-32"/>
     <use x="233.056641" xlink:href="#IPAexGothic-60"/>
     <use x="300.878906" xlink:href="#IPAexGothic-61"/>
     <use x="368.701172" xlink:href="#IPAexGothic-32"/>
     <use x="395.703125" xlink:href="#IPAexGothic-50"/>
     <use x="458.691406" xlink:href="#IPAexGothic-56"/>
     <use x="521.679688" xlink:href="#IPAexGothic-46"/>
     <use x="548.095703" xlink:href="#IPAexGothic-56"/>
     <use x="611.083984" xlink:href="#IPAexGothic-53"/>
     <use x="674.072266" xlink:href="#IPAexGothic-54"/>
    </g>
    <!-- gini = 0.1 -->
    <g style="fill:#262626;" transform="translate(509.175045 344.382541)scale(0.09524 -0.09524)">
     <use xlink:href="#IPAexGothic-103"/>
     <use x="55.517578" xlink:href="#IPAexGothic-105"/>
     <use x="82.519531" xlink:href="#IPAexGothic-110"/>
     <use x="142.919922" xlink:href="#IPAexGothic-105"/>
     <use x="169.921875" xlink:href="#IPAexGothic-32"/>
     <use x="196.923828" xlink:href="#IPAexGothic-61"/>
     <use x="264.746094" xlink:href="#IPAexGothic-32"/>
     <use x="291.748047" xlink:href="#IPAexGothic-48"/>
     <use x="354.736328" xlink:href="#IPAexGothic-46"/>
     <use x="381.152344" xlink:href="#IPAexGothic-49"/>
    </g>
    <!-- samples = 19.1% -->
    <g style="fill:#262626;" transform="translate(492.101061 354.841965)scale(0.09524 -0.09524)">
     <use xlink:href="#IPAexGothic-115"/>
     <use x="46.191406" xlink:href="#IPAexGothic-97"/>
     <use x="101.171875" xlink:href="#IPAexGothic-109"/>
     <use x="188.28125" xlink:href="#IPAexGothic-112"/>
     <use x="250.390625" xlink:href="#IPAexGothic-108"/>
     <use x="277.392578" xlink:href="#IPAexGothic-101"/>
     <use x="334.277344" xlink:href="#IPAexGothic-115"/>
     <use x="380.46875" xlink:href="#IPAexGothic-32"/>
     <use x="407.470703" xlink:href="#IPAexGothic-61"/>
     <use x="475.292969" xlink:href="#IPAexGothic-32"/>
     <use x="502.294922" xlink:href="#IPAexGothic-49"/>
     <use x="565.283203" xlink:href="#IPAexGothic-57"/>
     <use x="628.271484" xlink:href="#IPAexGothic-46"/>
     <use x="654.6875" xlink:href="#IPAexGothic-49"/>
     <use x="717.675781" xlink:href="#IPAexGothic-37"/>
    </g>
    <!-- value = [0.053, 0.947] -->
    <g style="fill:#262626;" transform="translate(480.809924 365.2124)scale(0.09524 -0.09524)">
     <use xlink:href="#IPAexGothic-118"/>
     <use x="48.583984" xlink:href="#IPAexGothic-97"/>
     <use x="103.564453" xlink:href="#IPAexGothic-108"/>
     <use x="130.566406" xlink:href="#IPAexGothic-117"/>
     <use x="190.966797" xlink:href="#IPAexGothic-101"/>
     <use x="247.851562" xlink:href="#IPAexGothic-32"/>
     <use x="274.853516" xlink:href="#IPAexGothic-61"/>
     <use x="342.675781" xlink:href="#IPAexGothic-32"/>
     <use x="369.677734" xlink:href="#IPAexGothic-91"/>
     <use x="399.658203" xlink:href="#IPAexGothic-48"/>
     <use x="462.646484" xlink:href="#IPAexGothic-46"/>
     <use x="489.0625" xlink:href="#IPAexGothic-48"/>
     <use x="552.050781" xlink:href="#IPAexGothic-53"/>
     <use x="615.039062" xlink:href="#IPAexGothic-51"/>
     <use x="678.027344" xlink:href="#IPAexGothic-44"/>
     <use x="704.443359" xlink:href="#IPAexGothic-32"/>
     <use x="731.445312" xlink:href="#IPAexGothic-48"/>
     <use x="794.433594" xlink:href="#IPAexGothic-46"/>
     <use x="820.849609" xlink:href="#IPAexGothic-57"/>
     <use x="883.837891" xlink:href="#IPAexGothic-52"/>
     <use x="946.826172" xlink:href="#IPAexGothic-55"/>
     <use x="1009.814453" xlink:href="#IPAexGothic-93"/>
    </g>
   </g>
   <g id="patch_24">
    <path d="M 719.636517 321.051411 
Q 678.245203 267.28721 636.171858 212.637102 
" style="fill:none;stroke:#262626;stroke-linecap:round;"/>
    <path d="M 718.821881 316.870783 
L 719.636517 321.051411 
L 715.803233 319.194742 
" style="fill:none;stroke:#262626;stroke-linecap:round;"/>
   </g>
   <g id="text_12">
    <g id="patch_25">
     <path d="M 701.351061 369.879155 
L 777.798939 369.879155 
Q 780.656136 369.879155 780.656136 367.021958 
L 780.656136 326.878042 
Q 780.656136 324.020845 777.798939 324.020845 
L 701.351061 324.020845 
Q 698.493864 324.020845 698.493864 326.878042 
L 698.493864 367.021958 
Q 698.493864 369.879155 701.351061 369.879155 
z
" style="fill:#ffffff;stroke:#ffffff;stroke-linejoin:miter;"/>
    </g>
    <!-- Fare &lt;= 23.35 -->
    <g style="fill:#262626;" transform="translate(707.475433 334.012106)scale(0.09524 -0.09524)">
     <use xlink:href="#IPAexGothic-70"/>
     <use x="57.177734" xlink:href="#IPAexGothic-97"/>
     <use x="112.158203" xlink:href="#IPAexGothic-114"/>
     <use x="149.169922" xlink:href="#IPAexGothic-101"/>
     <use x="206.054688" xlink:href="#IPAexGothic-32"/>
     <use x="233.056641" xlink:href="#IPAexGothic-60"/>
     <use x="300.878906" xlink:href="#IPAexGothic-61"/>
     <use x="368.701172" xlink:href="#IPAexGothic-32"/>
     <use x="395.703125" xlink:href="#IPAexGothic-50"/>
     <use x="458.691406" xlink:href="#IPAexGothic-51"/>
     <use x="521.679688" xlink:href="#IPAexGothic-46"/>
     <use x="548.095703" xlink:href="#IPAexGothic-51"/>
     <use x="611.083984" xlink:href="#IPAexGothic-53"/>
    </g>
    <!-- gini = 0.5 -->
    <g style="fill:#262626;" transform="translate(718.425045 344.382541)scale(0.09524 -0.09524)">
     <use xlink:href="#IPAexGothic-103"/>
     <use x="55.517578" xlink:href="#IPAexGothic-105"/>
     <use x="82.519531" xlink:href="#IPAexGothic-110"/>
     <use x="142.919922" xlink:href="#IPAexGothic-105"/>
     <use x="169.921875" xlink:href="#IPAexGothic-32"/>
     <use x="196.923828" xlink:href="#IPAexGothic-61"/>
     <use x="264.746094" xlink:href="#IPAexGothic-32"/>
     <use x="291.748047" xlink:href="#IPAexGothic-48"/>
     <use x="354.736328" xlink:href="#IPAexGothic-46"/>
     <use x="381.152344" xlink:href="#IPAexGothic-53"/>
    </g>
    <!-- samples = 16.2% -->
    <g style="fill:#262626;" transform="translate(701.351061 354.841965)scale(0.09524 -0.09524)">
     <use xlink:href="#IPAexGothic-115"/>
     <use x="46.191406" xlink:href="#IPAexGothic-97"/>
     <use x="101.171875" xlink:href="#IPAexGothic-109"/>
     <use x="188.28125" xlink:href="#IPAexGothic-112"/>
     <use x="250.390625" xlink:href="#IPAexGothic-108"/>
     <use x="277.392578" xlink:href="#IPAexGothic-101"/>
     <use x="334.277344" xlink:href="#IPAexGothic-115"/>
     <use x="380.46875" xlink:href="#IPAexGothic-32"/>
     <use x="407.470703" xlink:href="#IPAexGothic-61"/>
     <use x="475.292969" xlink:href="#IPAexGothic-32"/>
     <use x="502.294922" xlink:href="#IPAexGothic-49"/>
     <use x="565.283203" xlink:href="#IPAexGothic-54"/>
     <use x="628.271484" xlink:href="#IPAexGothic-46"/>
     <use x="654.6875" xlink:href="#IPAexGothic-50"/>
     <use x="717.675781" xlink:href="#IPAexGothic-37"/>
    </g>
    <!-- value = [0.5, 0.5] -->
    <g style="fill:#262626;" transform="translate(702.057175 365.2124)scale(0.09524 -0.09524)">
     <use xlink:href="#IPAexGothic-118"/>
     <use x="48.583984" xlink:href="#IPAexGothic-97"/>
     <use x="103.564453" xlink:href="#IPAexGothic-108"/>
     <use x="130.566406" xlink:href="#IPAexGothic-117"/>
     <use x="190.966797" xlink:href="#IPAexGothic-101"/>
     <use x="247.851562" xlink:href="#IPAexGothic-32"/>
     <use x="274.853516" xlink:href="#IPAexGothic-61"/>
     <use x="342.675781" xlink:href="#IPAexGothic-32"/>
     <use x="369.677734" xlink:href="#IPAexGothic-91"/>
     <use x="399.658203" xlink:href="#IPAexGothic-48"/>
     <use x="462.646484" xlink:href="#IPAexGothic-46"/>
     <use x="489.0625" xlink:href="#IPAexGothic-53"/>
     <use x="552.050781" xlink:href="#IPAexGothic-44"/>
     <use x="578.466797" xlink:href="#IPAexGothic-32"/>
     <use x="605.46875" xlink:href="#IPAexGothic-48"/>
     <use x="668.457031" xlink:href="#IPAexGothic-46"/>
     <use x="694.873047" xlink:href="#IPAexGothic-53"/>
     <use x="757.861328" xlink:href="#IPAexGothic-93"/>
    </g>
   </g>
   <g id="patch_26">
    <path d="M 255.142168 185.920893 
Q 339.113576 131.384624 424.022623 76.239393 
" style="fill:none;stroke:#262626;stroke-linecap:round;"/>
    <path d="M 259.374574 185.443373 
L 255.142168 185.920893 
L 257.299596 182.248457 
" style="fill:none;stroke:#262626;stroke-linecap:round;"/>
   </g>
   <g id="text_13">
    <g id="patch_27">
     <path d="M 166.934924 233.979155 
L 265.965076 233.979155 
Q 268.822273 233.979155 268.822273 231.121958 
L 268.822273 190.978042 
Q 268.822273 188.120845 265.965076 188.120845 
L 166.934924 188.120845 
Q 164.077727 188.120845 164.077727 190.978042 
L 164.077727 231.121958 
Q 164.077727 233.979155 166.934924 233.979155 
z
" style="fill:#eb9e67;stroke:#ffffff;stroke-linejoin:miter;"/>
    </g>
    <!-- Fare &lt;= 26.269 -->
    <g style="fill:#262626;" transform="translate(181.35112 198.112106)scale(0.09524 -0.09524)">
     <use xlink:href="#IPAexGothic-70"/>
     <use x="57.177734" xlink:href="#IPAexGothic-97"/>
     <use x="112.158203" xlink:href="#IPAexGothic-114"/>
     <use x="149.169922" xlink:href="#IPAexGothic-101"/>
     <use x="206.054688" xlink:href="#IPAexGothic-32"/>
     <use x="233.056641" xlink:href="#IPAexGothic-60"/>
     <use x="300.878906" xlink:href="#IPAexGothic-61"/>
     <use x="368.701172" xlink:href="#IPAexGothic-32"/>
     <use x="395.703125" xlink:href="#IPAexGothic-50"/>
     <use x="458.691406" xlink:href="#IPAexGothic-54"/>
     <use x="521.679688" xlink:href="#IPAexGothic-46"/>
     <use x="548.095703" xlink:href="#IPAexGothic-50"/>
     <use x="611.083984" xlink:href="#IPAexGothic-54"/>
     <use x="674.072266" xlink:href="#IPAexGothic-57"/>
    </g>
    <!-- gini = 0.306 -->
    <g style="fill:#262626;" transform="translate(189.30142 208.482541)scale(0.09524 -0.09524)">
     <use xlink:href="#IPAexGothic-103"/>
     <use x="55.517578" xlink:href="#IPAexGothic-105"/>
     <use x="82.519531" xlink:href="#IPAexGothic-110"/>
     <use x="142.919922" xlink:href="#IPAexGothic-105"/>
     <use x="169.921875" xlink:href="#IPAexGothic-32"/>
     <use x="196.923828" xlink:href="#IPAexGothic-61"/>
     <use x="264.746094" xlink:href="#IPAexGothic-32"/>
     <use x="291.748047" xlink:href="#IPAexGothic-48"/>
     <use x="354.736328" xlink:href="#IPAexGothic-46"/>
     <use x="381.152344" xlink:href="#IPAexGothic-51"/>
     <use x="444.140625" xlink:href="#IPAexGothic-48"/>
     <use x="507.128906" xlink:href="#IPAexGothic-54"/>
    </g>
    <!-- samples = 64.8% -->
    <g style="fill:#262626;" transform="translate(178.226061 218.941965)scale(0.09524 -0.09524)">
     <use xlink:href="#IPAexGothic-115"/>
     <use x="46.191406" xlink:href="#IPAexGothic-97"/>
     <use x="101.171875" xlink:href="#IPAexGothic-109"/>
     <use x="188.28125" xlink:href="#IPAexGothic-112"/>
     <use x="250.390625" xlink:href="#IPAexGothic-108"/>
     <use x="277.392578" xlink:href="#IPAexGothic-101"/>
     <use x="334.277344" xlink:href="#IPAexGothic-115"/>
     <use x="380.46875" xlink:href="#IPAexGothic-32"/>
     <use x="407.470703" xlink:href="#IPAexGothic-61"/>
     <use x="475.292969" xlink:href="#IPAexGothic-32"/>
     <use x="502.294922" xlink:href="#IPAexGothic-54"/>
     <use x="565.283203" xlink:href="#IPAexGothic-52"/>
     <use x="628.271484" xlink:href="#IPAexGothic-46"/>
     <use x="654.6875" xlink:href="#IPAexGothic-56"/>
     <use x="717.675781" xlink:href="#IPAexGothic-37"/>
    </g>
    <!-- value = [0.811, 0.189] -->
    <g style="fill:#262626;" transform="translate(166.934924 229.3124)scale(0.09524 -0.09524)">
     <use xlink:href="#IPAexGothic-118"/>
     <use x="48.583984" xlink:href="#IPAexGothic-97"/>
     <use x="103.564453" xlink:href="#IPAexGothic-108"/>
     <use x="130.566406" xlink:href="#IPAexGothic-117"/>
     <use x="190.966797" xlink:href="#IPAexGothic-101"/>
     <use x="247.851562" xlink:href="#IPAexGothic-32"/>
     <use x="274.853516" xlink:href="#IPAexGothic-61"/>
     <use x="342.675781" xlink:href="#IPAexGothic-32"/>
     <use x="369.677734" xlink:href="#IPAexGothic-91"/>
     <use x="399.658203" xlink:href="#IPAexGothic-48"/>
     <use x="462.646484" xlink:href="#IPAexGothic-46"/>
     <use x="489.0625" xlink:href="#IPAexGothic-56"/>
     <use x="552.050781" xlink:href="#IPAexGothic-49"/>
     <use x="615.039062" xlink:href="#IPAexGothic-49"/>
     <use x="678.027344" xlink:href="#IPAexGothic-44"/>
     <use x="704.443359" xlink:href="#IPAexGothic-32"/>
     <use x="731.445312" xlink:href="#IPAexGothic-48"/>
     <use x="794.433594" xlink:href="#IPAexGothic-46"/>
     <use x="820.849609" xlink:href="#IPAexGothic-49"/>
     <use x="883.837891" xlink:href="#IPAexGothic-56"/>
     <use x="946.826172" xlink:href="#IPAexGothic-57"/>
     <use x="1009.814453" xlink:href="#IPAexGothic-93"/>
    </g>
   </g>
   <g id="patch_28">
    <path d="M 596.257832 185.920893 
Q 512.286424 131.384624 427.377377 76.239393 
" style="fill:none;stroke:#262626;stroke-linecap:round;"/>
    <path d="M 594.100404 182.248457 
L 596.257832 185.920893 
L 592.025426 185.443373 
" style="fill:none;stroke:#262626;stroke-linecap:round;"/>
   </g>
   <g id="text_14">
    <g id="patch_29">
     <path d="M 585.434924 233.979155 
L 684.465076 233.979155 
Q 687.322273 233.979155 687.322273 231.121958 
L 687.322273 190.978042 
Q 687.322273 188.120845 684.465076 188.120845 
L 585.434924 188.120845 
Q 582.577727 188.120845 582.577727 190.978042 
L 582.577727 231.121958 
Q 582.577727 233.979155 585.434924 233.979155 
z
" style="fill:#7ebfee;stroke:#ffffff;stroke-linejoin:miter;"/>
    </g>
    <!-- Pclass &lt;= 2.5 -->
    <g style="fill:#262626;" transform="translate(604.811036 198.112106)scale(0.09524 -0.09524)">
     <defs>
      <path d="M 9.515625 72.40625 
L 30.328125 72.40625 
Q 57.625 72.40625 57.625 51.90625 
Q 57.625 30.21875 29.78125 30.21875 
L 18.3125 30.21875 
L 18.3125 0.984375 
L 9.515625 0.984375 
z
M 18.3125 37.203125 
L 28.125 37.203125 
Q 48.4375 37.203125 48.4375 51.8125 
Q 48.4375 65.328125 29.59375 65.328125 
L 18.3125 65.328125 
z
" id="IPAexGothic-80"/>
      <path d="M 51.078125 12.25 
Q 44.28125 -0.484375 29.6875 -0.484375 
Q 19.1875 -0.484375 12.3125 6.390625 
Q 4.890625 13.921875 4.890625 25.984375 
Q 4.890625 37.9375 12.3125 45.515625 
Q 19.09375 52.296875 29.390625 52.296875 
Q 43.953125 52.296875 50.09375 39.703125 
L 43.171875 36.078125 
Q 38.8125 45.3125 29.6875 45.3125 
Q 23.6875 45.3125 19.28125 40.921875 
Q 13.765625 35.40625 13.765625 25.78125 
Q 13.765625 16.703125 19.09375 11.375 
Q 23.78125 6.6875 30.5625 6.6875 
Q 39.796875 6.6875 44.484375 15.875 
z
" id="IPAexGothic-99"/>
     </defs>
     <use xlink:href="#IPAexGothic-80"/>
     <use x="62.109375" xlink:href="#IPAexGothic-99"/>
     <use x="116.503906" xlink:href="#IPAexGothic-108"/>
     <use x="143.505859" xlink:href="#IPAexGothic-97"/>
     <use x="198.486328" xlink:href="#IPAexGothic-115"/>
     <use x="244.677734" xlink:href="#IPAexGothic-115"/>
     <use x="290.869141" xlink:href="#IPAexGothic-32"/>
     <use x="317.871094" xlink:href="#IPAexGothic-60"/>
     <use x="385.693359" xlink:href="#IPAexGothic-61"/>
     <use x="453.515625" xlink:href="#IPAexGothic-32"/>
     <use x="480.517578" xlink:href="#IPAexGothic-50"/>
     <use x="543.505859" xlink:href="#IPAexGothic-46"/>
     <use x="569.921875" xlink:href="#IPAexGothic-53"/>
    </g>
    <!-- gini = 0.383 -->
    <g style="fill:#262626;" transform="translate(607.80142 208.482541)scale(0.09524 -0.09524)">
     <use xlink:href="#IPAexGothic-103"/>
     <use x="55.517578" xlink:href="#IPAexGothic-105"/>
     <use x="82.519531" xlink:href="#IPAexGothic-110"/>
     <use x="142.919922" xlink:href="#IPAexGothic-105"/>
     <use x="169.921875" xlink:href="#IPAexGothic-32"/>
     <use x="196.923828" xlink:href="#IPAexGothic-61"/>
     <use x="264.746094" xlink:href="#IPAexGothic-32"/>
     <use x="291.748047" xlink:href="#IPAexGothic-48"/>
     <use x="354.736328" xlink:href="#IPAexGothic-46"/>
     <use x="381.152344" xlink:href="#IPAexGothic-51"/>
     <use x="444.140625" xlink:href="#IPAexGothic-56"/>
     <use x="507.128906" xlink:href="#IPAexGothic-51"/>
    </g>
    <!-- samples = 35.2% -->
    <g style="fill:#262626;" transform="translate(596.726061 218.941965)scale(0.09524 -0.09524)">
     <use xlink:href="#IPAexGothic-115"/>
     <use x="46.191406" xlink:href="#IPAexGothic-97"/>
     <use x="101.171875" xlink:href="#IPAexGothic-109"/>
     <use x="188.28125" xlink:href="#IPAexGothic-112"/>
     <use x="250.390625" xlink:href="#IPAexGothic-108"/>
     <use x="277.392578" xlink:href="#IPAexGothic-101"/>
     <use x="334.277344" xlink:href="#IPAexGothic-115"/>
     <use x="380.46875" xlink:href="#IPAexGothic-32"/>
     <use x="407.470703" xlink:href="#IPAexGothic-61"/>
     <use x="475.292969" xlink:href="#IPAexGothic-32"/>
     <use x="502.294922" xlink:href="#IPAexGothic-51"/>
     <use x="565.283203" xlink:href="#IPAexGothic-53"/>
     <use x="628.271484" xlink:href="#IPAexGothic-46"/>
     <use x="654.6875" xlink:href="#IPAexGothic-50"/>
     <use x="717.675781" xlink:href="#IPAexGothic-37"/>
    </g>
    <!-- value = [0.258, 0.742] -->
    <g style="fill:#262626;" transform="translate(585.434924 229.3124)scale(0.09524 -0.09524)">
     <use xlink:href="#IPAexGothic-118"/>
     <use x="48.583984" xlink:href="#IPAexGothic-97"/>
     <use x="103.564453" xlink:href="#IPAexGothic-108"/>
     <use x="130.566406" xlink:href="#IPAexGothic-117"/>
     <use x="190.966797" xlink:href="#IPAexGothic-101"/>
     <use x="247.851562" xlink:href="#IPAexGothic-32"/>
     <use x="274.853516" xlink:href="#IPAexGothic-61"/>
     <use x="342.675781" xlink:href="#IPAexGothic-32"/>
     <use x="369.677734" xlink:href="#IPAexGothic-91"/>
     <use x="399.658203" xlink:href="#IPAexGothic-48"/>
     <use x="462.646484" xlink:href="#IPAexGothic-46"/>
     <use x="489.0625" xlink:href="#IPAexGothic-50"/>
     <use x="552.050781" xlink:href="#IPAexGothic-53"/>
     <use x="615.039062" xlink:href="#IPAexGothic-56"/>
     <use x="678.027344" xlink:href="#IPAexGothic-44"/>
     <use x="704.443359" xlink:href="#IPAexGothic-32"/>
     <use x="731.445312" xlink:href="#IPAexGothic-48"/>
     <use x="794.433594" xlink:href="#IPAexGothic-46"/>
     <use x="820.849609" xlink:href="#IPAexGothic-55"/>
     <use x="883.837891" xlink:href="#IPAexGothic-52"/>
     <use x="946.826172" xlink:href="#IPAexGothic-50"/>
     <use x="1009.814453" xlink:href="#IPAexGothic-93"/>
    </g>
   </g>
   <g id="patch_30">
    <path d="M 425.7 75.15 
Q 425.7 75.15 425.7 75.15 
" style="fill:none;stroke:#262626;stroke-linecap:round;"/>
   </g>
   <g id="text_15">
    <g id="patch_31">
     <path d="M 376.184924 98.079155 
L 475.215076 98.079155 
Q 478.072273 98.079155 478.072273 95.221958 
L 478.072273 55.078042 
Q 478.072273 52.220845 475.215076 52.220845 
L 376.184924 52.220845 
Q 373.327727 52.220845 373.327727 55.078042 
L 373.327727 95.221958 
Q 373.327727 98.079155 376.184924 98.079155 
z
" style="fill:#f5cfb4;stroke:#ffffff;stroke-linejoin:miter;"/>
    </g>
    <!-- Sex &lt;= 0.5 -->
    <g style="fill:#262626;" transform="translate(401.589424 62.212106)scale(0.09524 -0.09524)">
     <defs>
      <path d="M 45.609375 56.890625 
Q 40.046875 66.546875 28.953125 66.546875 
Q 22.703125 66.546875 18.953125 62.640625 
Q 16.0625 59.421875 16.0625 55.21875 
Q 16.0625 50.59375 19.78125 47.609375 
Q 22.5625 45.515625 31 42 
L 34.375 40.578125 
Q 45.703125 36.03125 49.859375 30.515625 
Q 53.46875 25.6875 53.46875 19.671875 
Q 53.46875 10.0625 46.390625 4.5 
Q 39.984375 -0.484375 30.171875 -0.484375 
Q 13.765625 -0.484375 4.890625 11.96875 
L 11.765625 17.1875 
Q 18.796875 7.171875 30.28125 7.171875 
Q 35.75 7.171875 39.59375 9.765625 
Q 44.390625 13.234375 44.390625 19 
Q 44.390625 23.484375 40.875 27 
Q 37.109375 30.609375 27 34.46875 
L 24.078125 35.59375 
Q 7.078125 42.09375 7.078125 54.390625 
Q 7.078125 62.59375 12.59375 67.921875 
Q 18.796875 73.828125 29.109375 73.828125 
Q 44.390625 73.828125 52.484375 61.8125 
z
" id="IPAexGothic-83"/>
      <path d="M 47.65625 0.984375 
L 37.796875 0.984375 
L 24.171875 20.90625 
L 10.796875 0.984375 
L 0.875 0.984375 
L 19.484375 26.171875 
L 1.65625 50.78125 
L 11.671875 50.78125 
L 24.65625 31.5 
L 37.703125 50.78125 
L 47.171875 50.78125 
L 29.296875 26.265625 
z
" id="IPAexGothic-120"/>
     </defs>
     <use xlink:href="#IPAexGothic-83"/>
     <use x="58.496094" xlink:href="#IPAexGothic-101"/>
     <use x="115.380859" xlink:href="#IPAexGothic-120"/>
     <use x="164.257812" xlink:href="#IPAexGothic-32"/>
     <use x="191.259766" xlink:href="#IPAexGothic-60"/>
     <use x="259.082031" xlink:href="#IPAexGothic-61"/>
     <use x="326.904297" xlink:href="#IPAexGothic-32"/>
     <use x="353.90625" xlink:href="#IPAexGothic-48"/>
     <use x="416.894531" xlink:href="#IPAexGothic-46"/>
     <use x="443.310547" xlink:href="#IPAexGothic-53"/>
    </g>
    <!-- gini = 0.473 -->
    <g style="fill:#262626;" transform="translate(398.55142 72.582541)scale(0.09524 -0.09524)">
     <use xlink:href="#IPAexGothic-103"/>
     <use x="55.517578" xlink:href="#IPAexGothic-105"/>
     <use x="82.519531" xlink:href="#IPAexGothic-110"/>
     <use x="142.919922" xlink:href="#IPAexGothic-105"/>
     <use x="169.921875" xlink:href="#IPAexGothic-32"/>
     <use x="196.923828" xlink:href="#IPAexGothic-61"/>
     <use x="264.746094" xlink:href="#IPAexGothic-32"/>
     <use x="291.748047" xlink:href="#IPAexGothic-48"/>
     <use x="354.736328" xlink:href="#IPAexGothic-46"/>
     <use x="381.152344" xlink:href="#IPAexGothic-52"/>
     <use x="444.140625" xlink:href="#IPAexGothic-55"/>
     <use x="507.128906" xlink:href="#IPAexGothic-51"/>
    </g>
    <!-- samples = 100.0% -->
    <g style="fill:#262626;" transform="translate(384.476748 83.041965)scale(0.09524 -0.09524)">
     <use xlink:href="#IPAexGothic-115"/>
     <use x="46.191406" xlink:href="#IPAexGothic-97"/>
     <use x="101.171875" xlink:href="#IPAexGothic-109"/>
     <use x="188.28125" xlink:href="#IPAexGothic-112"/>
     <use x="250.390625" xlink:href="#IPAexGothic-108"/>
     <use x="277.392578" xlink:href="#IPAexGothic-101"/>
     <use x="334.277344" xlink:href="#IPAexGothic-115"/>
     <use x="380.46875" xlink:href="#IPAexGothic-32"/>
     <use x="407.470703" xlink:href="#IPAexGothic-61"/>
     <use x="475.292969" xlink:href="#IPAexGothic-32"/>
     <use x="502.294922" xlink:href="#IPAexGothic-49"/>
     <use x="565.283203" xlink:href="#IPAexGothic-48"/>
     <use x="628.271484" xlink:href="#IPAexGothic-48"/>
     <use x="691.259766" xlink:href="#IPAexGothic-46"/>
     <use x="717.675781" xlink:href="#IPAexGothic-48"/>
     <use x="780.664062" xlink:href="#IPAexGothic-37"/>
    </g>
    <!-- value = [0.616, 0.384] -->
    <g style="fill:#262626;" transform="translate(376.184924 93.4124)scale(0.09524 -0.09524)">
     <use xlink:href="#IPAexGothic-118"/>
     <use x="48.583984" xlink:href="#IPAexGothic-97"/>
     <use x="103.564453" xlink:href="#IPAexGothic-108"/>
     <use x="130.566406" xlink:href="#IPAexGothic-117"/>
     <use x="190.966797" xlink:href="#IPAexGothic-101"/>
     <use x="247.851562" xlink:href="#IPAexGothic-32"/>
     <use x="274.853516" xlink:href="#IPAexGothic-61"/>
     <use x="342.675781" xlink:href="#IPAexGothic-32"/>
     <use x="369.677734" xlink:href="#IPAexGothic-91"/>
     <use x="399.658203" xlink:href="#IPAexGothic-48"/>
     <use x="462.646484" xlink:href="#IPAexGothic-46"/>
     <use x="489.0625" xlink:href="#IPAexGothic-54"/>
     <use x="552.050781" xlink:href="#IPAexGothic-49"/>
     <use x="615.039062" xlink:href="#IPAexGothic-54"/>
     <use x="678.027344" xlink:href="#IPAexGothic-44"/>
     <use x="704.443359" xlink:href="#IPAexGothic-32"/>
     <use x="731.445312" xlink:href="#IPAexGothic-48"/>
     <use x="794.433594" xlink:href="#IPAexGothic-46"/>
     <use x="820.849609" xlink:href="#IPAexGothic-51"/>
     <use x="883.837891" xlink:href="#IPAexGothic-56"/>
     <use x="946.826172" xlink:href="#IPAexGothic-52"/>
     <use x="1009.814453" xlink:href="#IPAexGothic-93"/>
    </g>
   </g>
  </g>
 </g>
</svg>
