<?xml version="1.0" encoding="utf-8" standalone="no"?>
<!DOCTYPE svg PUBLIC "-//W3C//DTD SVG 1.1//EN"
  "http://www.w3.org/Graphics/SVG/1.1/DTD/svg11.dtd">
<!-- Created with matplotlib (https://matplotlib.org/) -->
<svg height="231.84pt" version="1.1" viewBox="0 0 349.2 231.84" width="349.2pt" xmlns="http://www.w3.org/2000/svg" xmlns:xlink="http://www.w3.org/1999/xlink">
 <metadata>
  <rdf:RDF xmlns:cc="http://creativecommons.org/ns#" xmlns:dc="http://purl.org/dc/elements/1.1/" xmlns:rdf="http://www.w3.org/1999/02/22-rdf-syntax-ns#">
   <cc:Work>
    <dc:type rdf:resource="http://purl.org/dc/dcmitype/StillImage"/>
    <dc:date>2021-03-19T03:55:34.180279</dc:date>
    <dc:format>image/svg+xml</dc:format>
    <dc:creator>
     <cc:Agent>
      <dc:title>Matplotlib v3.3.4, https://matplotlib.org/</dc:title>
     </cc:Agent>
    </dc:creator>
   </cc:Work>
  </rdf:RDF>
 </metadata>
 <defs>
  <style type="text/css">*{stroke-linecap:butt;stroke-linejoin:round;}</style>
 </defs>
 <g id="figure_1">
  <g id="patch_1">
   <path d="M 0 231.84 
L 349.2 231.84 
L 349.2 0 
L 0 0 
z
" style="fill:none;"/>
  </g>
  <g id="axes_1">
   <g id="patch_2">
    <path d="M 32.013495 187.358276 
Q 39.971712 166.684024 48.331571 144.966372 
" style="fill:none;stroke:#000000;stroke-linecap:round;"/>
    <path d="M 33.174033 186.299244 
L 32.013495 187.358276 
L 31.862592 185.794427 
" style="fill:none;stroke:#000000;stroke-linecap:round;"/>
   </g>
   <g id="text_1">
    <g id="patch_3">
     <path d="M 8.193828 204.147876 
L 48.056172 204.147876 
Q 49.110107 204.147876 49.110107 203.093941 
L 49.110107 191.826059 
Q 49.110107 190.772124 48.056172 190.772124 
L 8.193828 190.772124 
Q 7.139893 190.772124 7.139893 191.826059 
L 7.139893 203.093941 
Q 7.139893 204.147876 8.193828 204.147876 
z
" style="fill:#e78c4a;stroke:#000000;stroke-linejoin:miter;"/>
    </g>
    <!-- gini = 0.143 -->
    <g transform="translate(17.303503 194.495479)scale(0.035131 -0.035131)">
     <defs>
      <path d="M 45.40625 27.984375 
Q 45.40625 37.75 41.375 43.109375 
Q 37.359375 48.484375 30.078125 48.484375 
Q 22.859375 48.484375 18.828125 43.109375 
Q 14.796875 37.75 14.796875 27.984375 
Q 14.796875 18.265625 18.828125 12.890625 
Q 22.859375 7.515625 30.078125 7.515625 
Q 37.359375 7.515625 41.375 12.890625 
Q 45.40625 18.265625 45.40625 27.984375 
z
M 54.390625 6.78125 
Q 54.390625 -7.171875 48.1875 -13.984375 
Q 42 -20.796875 29.203125 -20.796875 
Q 24.46875 -20.796875 20.265625 -20.09375 
Q 16.0625 -19.390625 12.109375 -17.921875 
L 12.109375 -9.1875 
Q 16.0625 -11.328125 19.921875 -12.34375 
Q 23.78125 -13.375 27.78125 -13.375 
Q 36.625 -13.375 41.015625 -8.765625 
Q 45.40625 -4.15625 45.40625 5.171875 
L 45.40625 9.625 
Q 42.625 4.78125 38.28125 2.390625 
Q 33.9375 0 27.875 0 
Q 17.828125 0 11.671875 7.65625 
Q 5.515625 15.328125 5.515625 27.984375 
Q 5.515625 40.671875 11.671875 48.328125 
Q 17.828125 56 27.875 56 
Q 33.9375 56 38.28125 53.609375 
Q 42.625 51.21875 45.40625 46.390625 
L 45.40625 54.6875 
L 54.390625 54.6875 
z
" id="DejaVuSans-103"/>
      <path d="M 9.421875 54.6875 
L 18.40625 54.6875 
L 18.40625 0 
L 9.421875 0 
z
M 9.421875 75.984375 
L 18.40625 75.984375 
L 18.40625 64.59375 
L 9.421875 64.59375 
z
" id="DejaVuSans-105"/>
      <path d="M 54.890625 33.015625 
L 54.890625 0 
L 45.90625 0 
L 45.90625 32.71875 
Q 45.90625 40.484375 42.875 44.328125 
Q 39.84375 48.1875 33.796875 48.1875 
Q 26.515625 48.1875 22.3125 43.546875 
Q 18.109375 38.921875 18.109375 30.90625 
L 18.109375 0 
L 9.078125 0 
L 9.078125 54.6875 
L 18.109375 54.6875 
L 18.109375 46.1875 
Q 21.34375 51.125 25.703125 53.5625 
Q 30.078125 56 35.796875 56 
Q 45.21875 56 50.046875 50.171875 
Q 54.890625 44.34375 54.890625 33.015625 
z
" id="DejaVuSans-110"/>
      <path id="DejaVuSans-32"/>
      <path d="M 10.59375 45.40625 
L 73.1875 45.40625 
L 73.1875 37.203125 
L 10.59375 37.203125 
z
M 10.59375 25.484375 
L 73.1875 25.484375 
L 73.1875 17.1875 
L 10.59375 17.1875 
z
" id="DejaVuSans-61"/>
      <path d="M 31.78125 66.40625 
Q 24.171875 66.40625 20.328125 58.90625 
Q 16.5 51.421875 16.5 36.375 
Q 16.5 21.390625 20.328125 13.890625 
Q 24.171875 6.390625 31.78125 6.390625 
Q 39.453125 6.390625 43.28125 13.890625 
Q 47.125 21.390625 47.125 36.375 
Q 47.125 51.421875 43.28125 58.90625 
Q 39.453125 66.40625 31.78125 66.40625 
z
M 31.78125 74.21875 
Q 44.046875 74.21875 50.515625 64.515625 
Q 56.984375 54.828125 56.984375 36.375 
Q 56.984375 17.96875 50.515625 8.265625 
Q 44.046875 -1.421875 31.78125 -1.421875 
Q 19.53125 -1.421875 13.0625 8.265625 
Q 6.59375 17.96875 6.59375 36.375 
Q 6.59375 54.828125 13.0625 64.515625 
Q 19.53125 74.21875 31.78125 74.21875 
z
" id="DejaVuSans-48"/>
      <path d="M 10.6875 12.40625 
L 21 12.40625 
L 21 0 
L 10.6875 0 
z
" id="DejaVuSans-46"/>
      <path d="M 12.40625 8.296875 
L 28.515625 8.296875 
L 28.515625 63.921875 
L 10.984375 60.40625 
L 10.984375 69.390625 
L 28.421875 72.90625 
L 38.28125 72.90625 
L 38.28125 8.296875 
L 54.390625 8.296875 
L 54.390625 0 
L 12.40625 0 
z
" id="DejaVuSans-49"/>
      <path d="M 37.796875 64.3125 
L 12.890625 25.390625 
L 37.796875 25.390625 
z
M 35.203125 72.90625 
L 47.609375 72.90625 
L 47.609375 25.390625 
L 58.015625 25.390625 
L 58.015625 17.1875 
L 47.609375 17.1875 
L 47.609375 0 
L 37.796875 0 
L 37.796875 17.1875 
L 4.890625 17.1875 
L 4.890625 26.703125 
z
" id="DejaVuSans-52"/>
      <path d="M 40.578125 39.3125 
Q 47.65625 37.796875 51.625 33 
Q 55.609375 28.21875 55.609375 21.1875 
Q 55.609375 10.40625 48.1875 4.484375 
Q 40.765625 -1.421875 27.09375 -1.421875 
Q 22.515625 -1.421875 17.65625 -0.515625 
Q 12.796875 0.390625 7.625 2.203125 
L 7.625 11.71875 
Q 11.71875 9.328125 16.59375 8.109375 
Q 21.484375 6.890625 26.8125 6.890625 
Q 36.078125 6.890625 40.9375 10.546875 
Q 45.796875 14.203125 45.796875 21.1875 
Q 45.796875 27.640625 41.28125 31.265625 
Q 36.765625 34.90625 28.71875 34.90625 
L 20.21875 34.90625 
L 20.21875 43.015625 
L 29.109375 43.015625 
Q 36.375 43.015625 40.234375 45.921875 
Q 44.09375 48.828125 44.09375 54.296875 
Q 44.09375 59.90625 40.109375 62.90625 
Q 36.140625 65.921875 28.71875 65.921875 
Q 24.65625 65.921875 20.015625 65.03125 
Q 15.375 64.15625 9.8125 62.3125 
L 9.8125 71.09375 
Q 15.4375 72.65625 20.34375 73.4375 
Q 25.25 74.21875 29.59375 74.21875 
Q 40.828125 74.21875 47.359375 69.109375 
Q 53.90625 64.015625 53.90625 55.328125 
Q 53.90625 49.265625 50.4375 45.09375 
Q 46.96875 40.921875 40.578125 39.3125 
z
" id="DejaVuSans-51"/>
     </defs>
     <use xlink:href="#DejaVuSans-103"/>
     <use x="63.476562" xlink:href="#DejaVuSans-105"/>
     <use x="91.259766" xlink:href="#DejaVuSans-110"/>
     <use x="154.638672" xlink:href="#DejaVuSans-105"/>
     <use x="182.421875" xlink:href="#DejaVuSans-32"/>
     <use x="214.208984" xlink:href="#DejaVuSans-61"/>
     <use x="297.998047" xlink:href="#DejaVuSans-32"/>
     <use x="329.785156" xlink:href="#DejaVuSans-48"/>
     <use x="393.408203" xlink:href="#DejaVuSans-46"/>
     <use x="425.195312" xlink:href="#DejaVuSans-49"/>
     <use x="488.818359" xlink:href="#DejaVuSans-52"/>
     <use x="552.441406" xlink:href="#DejaVuSans-51"/>
    </g>
    <!-- samples = 20.2% -->
    <g transform="translate(12.654937 198.429401)scale(0.035131 -0.035131)">
     <defs>
      <path d="M 44.28125 53.078125 
L 44.28125 44.578125 
Q 40.484375 46.53125 36.375 47.5 
Q 32.28125 48.484375 27.875 48.484375 
Q 21.1875 48.484375 17.84375 46.4375 
Q 14.5 44.390625 14.5 40.28125 
Q 14.5 37.15625 16.890625 35.375 
Q 19.28125 33.59375 26.515625 31.984375 
L 29.59375 31.296875 
Q 39.15625 29.25 43.1875 25.515625 
Q 47.21875 21.78125 47.21875 15.09375 
Q 47.21875 7.46875 41.1875 3.015625 
Q 35.15625 -1.421875 24.609375 -1.421875 
Q 20.21875 -1.421875 15.453125 -0.5625 
Q 10.6875 0.296875 5.421875 2 
L 5.421875 11.28125 
Q 10.40625 8.6875 15.234375 7.390625 
Q 20.0625 6.109375 24.8125 6.109375 
Q 31.15625 6.109375 34.5625 8.28125 
Q 37.984375 10.453125 37.984375 14.40625 
Q 37.984375 18.0625 35.515625 20.015625 
Q 33.0625 21.96875 24.703125 23.78125 
L 21.578125 24.515625 
Q 13.234375 26.265625 9.515625 29.90625 
Q 5.8125 33.546875 5.8125 39.890625 
Q 5.8125 47.609375 11.28125 51.796875 
Q 16.75 56 26.8125 56 
Q 31.78125 56 36.171875 55.265625 
Q 40.578125 54.546875 44.28125 53.078125 
z
" id="DejaVuSans-115"/>
      <path d="M 34.28125 27.484375 
Q 23.390625 27.484375 19.1875 25 
Q 14.984375 22.515625 14.984375 16.5 
Q 14.984375 11.71875 18.140625 8.90625 
Q 21.296875 6.109375 26.703125 6.109375 
Q 34.1875 6.109375 38.703125 11.40625 
Q 43.21875 16.703125 43.21875 25.484375 
L 43.21875 27.484375 
z
M 52.203125 31.203125 
L 52.203125 0 
L 43.21875 0 
L 43.21875 8.296875 
Q 40.140625 3.328125 35.546875 0.953125 
Q 30.953125 -1.421875 24.3125 -1.421875 
Q 15.921875 -1.421875 10.953125 3.296875 
Q 6 8.015625 6 15.921875 
Q 6 25.140625 12.171875 29.828125 
Q 18.359375 34.515625 30.609375 34.515625 
L 43.21875 34.515625 
L 43.21875 35.40625 
Q 43.21875 41.609375 39.140625 45 
Q 35.0625 48.390625 27.6875 48.390625 
Q 23 48.390625 18.546875 47.265625 
Q 14.109375 46.140625 10.015625 43.890625 
L 10.015625 52.203125 
Q 14.9375 54.109375 19.578125 55.046875 
Q 24.21875 56 28.609375 56 
Q 40.484375 56 46.34375 49.84375 
Q 52.203125 43.703125 52.203125 31.203125 
z
" id="DejaVuSans-97"/>
      <path d="M 52 44.1875 
Q 55.375 50.25 60.0625 53.125 
Q 64.75 56 71.09375 56 
Q 79.640625 56 84.28125 50.015625 
Q 88.921875 44.046875 88.921875 33.015625 
L 88.921875 0 
L 79.890625 0 
L 79.890625 32.71875 
Q 79.890625 40.578125 77.09375 44.375 
Q 74.3125 48.1875 68.609375 48.1875 
Q 61.625 48.1875 57.5625 43.546875 
Q 53.515625 38.921875 53.515625 30.90625 
L 53.515625 0 
L 44.484375 0 
L 44.484375 32.71875 
Q 44.484375 40.625 41.703125 44.40625 
Q 38.921875 48.1875 33.109375 48.1875 
Q 26.21875 48.1875 22.15625 43.53125 
Q 18.109375 38.875 18.109375 30.90625 
L 18.109375 0 
L 9.078125 0 
L 9.078125 54.6875 
L 18.109375 54.6875 
L 18.109375 46.1875 
Q 21.1875 51.21875 25.484375 53.609375 
Q 29.78125 56 35.6875 56 
Q 41.65625 56 45.828125 52.96875 
Q 50 49.953125 52 44.1875 
z
" id="DejaVuSans-109"/>
      <path d="M 18.109375 8.203125 
L 18.109375 -20.796875 
L 9.078125 -20.796875 
L 9.078125 54.6875 
L 18.109375 54.6875 
L 18.109375 46.390625 
Q 20.953125 51.265625 25.265625 53.625 
Q 29.59375 56 35.59375 56 
Q 45.5625 56 51.78125 48.09375 
Q 58.015625 40.1875 58.015625 27.296875 
Q 58.015625 14.40625 51.78125 6.484375 
Q 45.5625 -1.421875 35.59375 -1.421875 
Q 29.59375 -1.421875 25.265625 0.953125 
Q 20.953125 3.328125 18.109375 8.203125 
z
M 48.6875 27.296875 
Q 48.6875 37.203125 44.609375 42.84375 
Q 40.53125 48.484375 33.40625 48.484375 
Q 26.265625 48.484375 22.1875 42.84375 
Q 18.109375 37.203125 18.109375 27.296875 
Q 18.109375 17.390625 22.1875 11.75 
Q 26.265625 6.109375 33.40625 6.109375 
Q 40.53125 6.109375 44.609375 11.75 
Q 48.6875 17.390625 48.6875 27.296875 
z
" id="DejaVuSans-112"/>
      <path d="M 9.421875 75.984375 
L 18.40625 75.984375 
L 18.40625 0 
L 9.421875 0 
z
" id="DejaVuSans-108"/>
      <path d="M 56.203125 29.59375 
L 56.203125 25.203125 
L 14.890625 25.203125 
Q 15.484375 15.921875 20.484375 11.0625 
Q 25.484375 6.203125 34.421875 6.203125 
Q 39.59375 6.203125 44.453125 7.46875 
Q 49.3125 8.734375 54.109375 11.28125 
L 54.109375 2.78125 
Q 49.265625 0.734375 44.1875 -0.34375 
Q 39.109375 -1.421875 33.890625 -1.421875 
Q 20.796875 -1.421875 13.15625 6.1875 
Q 5.515625 13.8125 5.515625 26.8125 
Q 5.515625 40.234375 12.765625 48.109375 
Q 20.015625 56 32.328125 56 
Q 43.359375 56 49.78125 48.890625 
Q 56.203125 41.796875 56.203125 29.59375 
z
M 47.21875 32.234375 
Q 47.125 39.59375 43.09375 43.984375 
Q 39.0625 48.390625 32.421875 48.390625 
Q 24.90625 48.390625 20.390625 44.140625 
Q 15.875 39.890625 15.1875 32.171875 
z
" id="DejaVuSans-101"/>
      <path d="M 19.1875 8.296875 
L 53.609375 8.296875 
L 53.609375 0 
L 7.328125 0 
L 7.328125 8.296875 
Q 12.9375 14.109375 22.625 23.890625 
Q 32.328125 33.6875 34.8125 36.53125 
Q 39.546875 41.84375 41.421875 45.53125 
Q 43.3125 49.21875 43.3125 52.78125 
Q 43.3125 58.59375 39.234375 62.25 
Q 35.15625 65.921875 28.609375 65.921875 
Q 23.96875 65.921875 18.8125 64.3125 
Q 13.671875 62.703125 7.8125 59.421875 
L 7.8125 69.390625 
Q 13.765625 71.78125 18.9375 73 
Q 24.125 74.21875 28.421875 74.21875 
Q 39.75 74.21875 46.484375 68.546875 
Q 53.21875 62.890625 53.21875 53.421875 
Q 53.21875 48.921875 51.53125 44.890625 
Q 49.859375 40.875 45.40625 35.40625 
Q 44.1875 33.984375 37.640625 27.21875 
Q 31.109375 20.453125 19.1875 8.296875 
z
" id="DejaVuSans-50"/>
      <path d="M 72.703125 32.078125 
Q 68.453125 32.078125 66.03125 28.46875 
Q 63.625 24.859375 63.625 18.40625 
Q 63.625 12.0625 66.03125 8.421875 
Q 68.453125 4.78125 72.703125 4.78125 
Q 76.859375 4.78125 79.265625 8.421875 
Q 81.6875 12.0625 81.6875 18.40625 
Q 81.6875 24.8125 79.265625 28.4375 
Q 76.859375 32.078125 72.703125 32.078125 
z
M 72.703125 38.28125 
Q 80.421875 38.28125 84.953125 32.90625 
Q 89.5 27.546875 89.5 18.40625 
Q 89.5 9.28125 84.9375 3.921875 
Q 80.375 -1.421875 72.703125 -1.421875 
Q 64.890625 -1.421875 60.34375 3.921875 
Q 55.8125 9.28125 55.8125 18.40625 
Q 55.8125 27.59375 60.375 32.9375 
Q 64.9375 38.28125 72.703125 38.28125 
z
M 22.3125 68.015625 
Q 18.109375 68.015625 15.6875 64.375 
Q 13.28125 60.75 13.28125 54.390625 
Q 13.28125 47.953125 15.671875 44.328125 
Q 18.0625 40.71875 22.3125 40.71875 
Q 26.5625 40.71875 28.96875 44.328125 
Q 31.390625 47.953125 31.390625 54.390625 
Q 31.390625 60.6875 28.953125 64.34375 
Q 26.515625 68.015625 22.3125 68.015625 
z
M 66.40625 74.21875 
L 74.21875 74.21875 
L 28.609375 -1.421875 
L 20.796875 -1.421875 
z
M 22.3125 74.21875 
Q 30.03125 74.21875 34.609375 68.875 
Q 39.203125 63.53125 39.203125 54.390625 
Q 39.203125 45.171875 34.640625 39.84375 
Q 30.078125 34.515625 22.3125 34.515625 
Q 14.546875 34.515625 10.03125 39.859375 
Q 5.515625 45.21875 5.515625 54.390625 
Q 5.515625 63.484375 10.046875 68.84375 
Q 14.59375 74.21875 22.3125 74.21875 
z
" id="DejaVuSans-37"/>
     </defs>
     <use xlink:href="#DejaVuSans-115"/>
     <use x="52.099609" xlink:href="#DejaVuSans-97"/>
     <use x="113.378906" xlink:href="#DejaVuSans-109"/>
     <use x="210.791016" xlink:href="#DejaVuSans-112"/>
     <use x="274.267578" xlink:href="#DejaVuSans-108"/>
     <use x="302.050781" xlink:href="#DejaVuSans-101"/>
     <use x="363.574219" xlink:href="#DejaVuSans-115"/>
     <use x="415.673828" xlink:href="#DejaVuSans-32"/>
     <use x="447.460938" xlink:href="#DejaVuSans-61"/>
     <use x="531.25" xlink:href="#DejaVuSans-32"/>
     <use x="563.037109" xlink:href="#DejaVuSans-50"/>
     <use x="626.660156" xlink:href="#DejaVuSans-48"/>
     <use x="690.283203" xlink:href="#DejaVuSans-46"/>
     <use x="722.070312" xlink:href="#DejaVuSans-50"/>
     <use x="785.693359" xlink:href="#DejaVuSans-37"/>
    </g>
    <!-- value = [0.922, 0.078] -->
    <g transform="translate(8.193828 202.363323)scale(0.035131 -0.035131)">
     <defs>
      <path d="M 2.984375 54.6875 
L 12.5 54.6875 
L 29.59375 8.796875 
L 46.6875 54.6875 
L 56.203125 54.6875 
L 35.6875 0 
L 23.484375 0 
z
" id="DejaVuSans-118"/>
      <path d="M 8.5 21.578125 
L 8.5 54.6875 
L 17.484375 54.6875 
L 17.484375 21.921875 
Q 17.484375 14.15625 20.5 10.265625 
Q 23.53125 6.390625 29.59375 6.390625 
Q 36.859375 6.390625 41.078125 11.03125 
Q 45.3125 15.671875 45.3125 23.6875 
L 45.3125 54.6875 
L 54.296875 54.6875 
L 54.296875 0 
L 45.3125 0 
L 45.3125 8.40625 
Q 42.046875 3.421875 37.71875 1 
Q 33.40625 -1.421875 27.6875 -1.421875 
Q 18.265625 -1.421875 13.375 4.4375 
Q 8.5 10.296875 8.5 21.578125 
z
M 31.109375 56 
z
" id="DejaVuSans-117"/>
      <path d="M 8.59375 75.984375 
L 29.296875 75.984375 
L 29.296875 69 
L 17.578125 69 
L 17.578125 -6.203125 
L 29.296875 -6.203125 
L 29.296875 -13.1875 
L 8.59375 -13.1875 
z
" id="DejaVuSans-91"/>
      <path d="M 10.984375 1.515625 
L 10.984375 10.5 
Q 14.703125 8.734375 18.5 7.8125 
Q 22.3125 6.890625 25.984375 6.890625 
Q 35.75 6.890625 40.890625 13.453125 
Q 46.046875 20.015625 46.78125 33.40625 
Q 43.953125 29.203125 39.59375 26.953125 
Q 35.25 24.703125 29.984375 24.703125 
Q 19.046875 24.703125 12.671875 31.3125 
Q 6.296875 37.9375 6.296875 49.421875 
Q 6.296875 60.640625 12.9375 67.421875 
Q 19.578125 74.21875 30.609375 74.21875 
Q 43.265625 74.21875 49.921875 64.515625 
Q 56.59375 54.828125 56.59375 36.375 
Q 56.59375 19.140625 48.40625 8.859375 
Q 40.234375 -1.421875 26.421875 -1.421875 
Q 22.703125 -1.421875 18.890625 -0.6875 
Q 15.09375 0.046875 10.984375 1.515625 
z
M 30.609375 32.421875 
Q 37.25 32.421875 41.125 36.953125 
Q 45.015625 41.5 45.015625 49.421875 
Q 45.015625 57.28125 41.125 61.84375 
Q 37.25 66.40625 30.609375 66.40625 
Q 23.96875 66.40625 20.09375 61.84375 
Q 16.21875 57.28125 16.21875 49.421875 
Q 16.21875 41.5 20.09375 36.953125 
Q 23.96875 32.421875 30.609375 32.421875 
z
" id="DejaVuSans-57"/>
      <path d="M 11.71875 12.40625 
L 22.015625 12.40625 
L 22.015625 4 
L 14.015625 -11.625 
L 7.71875 -11.625 
L 11.71875 4 
z
" id="DejaVuSans-44"/>
      <path d="M 8.203125 72.90625 
L 55.078125 72.90625 
L 55.078125 68.703125 
L 28.609375 0 
L 18.3125 0 
L 43.21875 64.59375 
L 8.203125 64.59375 
z
" id="DejaVuSans-55"/>
      <path d="M 31.78125 34.625 
Q 24.75 34.625 20.71875 30.859375 
Q 16.703125 27.09375 16.703125 20.515625 
Q 16.703125 13.921875 20.71875 10.15625 
Q 24.75 6.390625 31.78125 6.390625 
Q 38.8125 6.390625 42.859375 10.171875 
Q 46.921875 13.96875 46.921875 20.515625 
Q 46.921875 27.09375 42.890625 30.859375 
Q 38.875 34.625 31.78125 34.625 
z
M 21.921875 38.8125 
Q 15.578125 40.375 12.03125 44.71875 
Q 8.5 49.078125 8.5 55.328125 
Q 8.5 64.0625 14.71875 69.140625 
Q 20.953125 74.21875 31.78125 74.21875 
Q 42.671875 74.21875 48.875 69.140625 
Q 55.078125 64.0625 55.078125 55.328125 
Q 55.078125 49.078125 51.53125 44.71875 
Q 48 40.375 41.703125 38.8125 
Q 48.828125 37.15625 52.796875 32.3125 
Q 56.78125 27.484375 56.78125 20.515625 
Q 56.78125 9.90625 50.3125 4.234375 
Q 43.84375 -1.421875 31.78125 -1.421875 
Q 19.734375 -1.421875 13.25 4.234375 
Q 6.78125 9.90625 6.78125 20.515625 
Q 6.78125 27.484375 10.78125 32.3125 
Q 14.796875 37.15625 21.921875 38.8125 
z
M 18.3125 54.390625 
Q 18.3125 48.734375 21.84375 45.5625 
Q 25.390625 42.390625 31.78125 42.390625 
Q 38.140625 42.390625 41.71875 45.5625 
Q 45.3125 48.734375 45.3125 54.390625 
Q 45.3125 60.0625 41.71875 63.234375 
Q 38.140625 66.40625 31.78125 66.40625 
Q 25.390625 66.40625 21.84375 63.234375 
Q 18.3125 60.0625 18.3125 54.390625 
z
" id="DejaVuSans-56"/>
      <path d="M 30.421875 75.984375 
L 30.421875 -13.1875 
L 9.71875 -13.1875 
L 9.71875 -6.203125 
L 21.390625 -6.203125 
L 21.390625 69 
L 9.71875 69 
L 9.71875 75.984375 
z
" id="DejaVuSans-93"/>
     </defs>
     <use xlink:href="#DejaVuSans-118"/>
     <use x="59.179688" xlink:href="#DejaVuSans-97"/>
     <use x="120.458984" xlink:href="#DejaVuSans-108"/>
     <use x="148.242188" xlink:href="#DejaVuSans-117"/>
     <use x="211.621094" xlink:href="#DejaVuSans-101"/>
     <use x="273.144531" xlink:href="#DejaVuSans-32"/>
     <use x="304.931641" xlink:href="#DejaVuSans-61"/>
     <use x="388.720703" xlink:href="#DejaVuSans-32"/>
     <use x="420.507812" xlink:href="#DejaVuSans-91"/>
     <use x="459.521484" xlink:href="#DejaVuSans-48"/>
     <use x="523.144531" xlink:href="#DejaVuSans-46"/>
     <use x="554.931641" xlink:href="#DejaVuSans-57"/>
     <use x="618.554688" xlink:href="#DejaVuSans-50"/>
     <use x="682.177734" xlink:href="#DejaVuSans-50"/>
     <use x="745.800781" xlink:href="#DejaVuSans-44"/>
     <use x="777.587891" xlink:href="#DejaVuSans-32"/>
     <use x="809.375" xlink:href="#DejaVuSans-48"/>
     <use x="872.998047" xlink:href="#DejaVuSans-46"/>
     <use x="904.785156" xlink:href="#DejaVuSans-48"/>
     <use x="968.408203" xlink:href="#DejaVuSans-55"/>
     <use x="1032.03125" xlink:href="#DejaVuSans-56"/>
     <use x="1095.654297" xlink:href="#DejaVuSans-93"/>
    </g>
   </g>
   <g id="patch_4">
    <path d="M 66.086505 187.358276 
Q 58.128288 166.684024 49.768429 144.966372 
" style="fill:none;stroke:#000000;stroke-linecap:round;"/>
    <path d="M 66.237408 185.794427 
L 66.086505 187.358276 
L 64.925967 186.299244 
" style="fill:none;stroke:#000000;stroke-linecap:round;"/>
   </g>
   <g id="text_2">
    <g id="patch_5">
     <path d="M 52.279048 204.147876 
L 87.670952 204.147876 
Q 88.724887 204.147876 88.724887 203.093941 
L 88.724887 191.826059 
Q 88.724887 190.772124 87.670952 190.772124 
L 52.279048 190.772124 
Q 51.225113 190.772124 51.225113 191.826059 
L 51.225113 203.093941 
Q 51.225113 204.147876 52.279048 204.147876 
z
" style="fill:#ea9b62;stroke:#000000;stroke-linejoin:miter;"/>
    </g>
    <!-- gini = 0.282 -->
    <g transform="translate(59.153503 194.495479)scale(0.035131 -0.035131)">
     <use xlink:href="#DejaVuSans-103"/>
     <use x="63.476562" xlink:href="#DejaVuSans-105"/>
     <use x="91.259766" xlink:href="#DejaVuSans-110"/>
     <use x="154.638672" xlink:href="#DejaVuSans-105"/>
     <use x="182.421875" xlink:href="#DejaVuSans-32"/>
     <use x="214.208984" xlink:href="#DejaVuSans-61"/>
     <use x="297.998047" xlink:href="#DejaVuSans-32"/>
     <use x="329.785156" xlink:href="#DejaVuSans-48"/>
     <use x="393.408203" xlink:href="#DejaVuSans-46"/>
     <use x="425.195312" xlink:href="#DejaVuSans-50"/>
     <use x="488.818359" xlink:href="#DejaVuSans-56"/>
     <use x="552.441406" xlink:href="#DejaVuSans-50"/>
    </g>
    <!-- samples = 26.4% -->
    <g transform="translate(54.504937 198.429401)scale(0.035131 -0.035131)">
     <defs>
      <path d="M 33.015625 40.375 
Q 26.375 40.375 22.484375 35.828125 
Q 18.609375 31.296875 18.609375 23.390625 
Q 18.609375 15.53125 22.484375 10.953125 
Q 26.375 6.390625 33.015625 6.390625 
Q 39.65625 6.390625 43.53125 10.953125 
Q 47.40625 15.53125 47.40625 23.390625 
Q 47.40625 31.296875 43.53125 35.828125 
Q 39.65625 40.375 33.015625 40.375 
z
M 52.59375 71.296875 
L 52.59375 62.3125 
Q 48.875 64.0625 45.09375 64.984375 
Q 41.3125 65.921875 37.59375 65.921875 
Q 27.828125 65.921875 22.671875 59.328125 
Q 17.53125 52.734375 16.796875 39.40625 
Q 19.671875 43.65625 24.015625 45.921875 
Q 28.375 48.1875 33.59375 48.1875 
Q 44.578125 48.1875 50.953125 41.515625 
Q 57.328125 34.859375 57.328125 23.390625 
Q 57.328125 12.15625 50.6875 5.359375 
Q 44.046875 -1.421875 33.015625 -1.421875 
Q 20.359375 -1.421875 13.671875 8.265625 
Q 6.984375 17.96875 6.984375 36.375 
Q 6.984375 53.65625 15.1875 63.9375 
Q 23.390625 74.21875 37.203125 74.21875 
Q 40.921875 74.21875 44.703125 73.484375 
Q 48.484375 72.75 52.59375 71.296875 
z
" id="DejaVuSans-54"/>
     </defs>
     <use xlink:href="#DejaVuSans-115"/>
     <use x="52.099609" xlink:href="#DejaVuSans-97"/>
     <use x="113.378906" xlink:href="#DejaVuSans-109"/>
     <use x="210.791016" xlink:href="#DejaVuSans-112"/>
     <use x="274.267578" xlink:href="#DejaVuSans-108"/>
     <use x="302.050781" xlink:href="#DejaVuSans-101"/>
     <use x="363.574219" xlink:href="#DejaVuSans-115"/>
     <use x="415.673828" xlink:href="#DejaVuSans-32"/>
     <use x="447.460938" xlink:href="#DejaVuSans-61"/>
     <use x="531.25" xlink:href="#DejaVuSans-32"/>
     <use x="563.037109" xlink:href="#DejaVuSans-50"/>
     <use x="626.660156" xlink:href="#DejaVuSans-54"/>
     <use x="690.283203" xlink:href="#DejaVuSans-46"/>
     <use x="722.070312" xlink:href="#DejaVuSans-52"/>
     <use x="785.693359" xlink:href="#DejaVuSans-37"/>
    </g>
    <!-- value = [0.83, 0.17] -->
    <g transform="translate(52.279048 202.363323)scale(0.035131 -0.035131)">
     <use xlink:href="#DejaVuSans-118"/>
     <use x="59.179688" xlink:href="#DejaVuSans-97"/>
     <use x="120.458984" xlink:href="#DejaVuSans-108"/>
     <use x="148.242188" xlink:href="#DejaVuSans-117"/>
     <use x="211.621094" xlink:href="#DejaVuSans-101"/>
     <use x="273.144531" xlink:href="#DejaVuSans-32"/>
     <use x="304.931641" xlink:href="#DejaVuSans-61"/>
     <use x="388.720703" xlink:href="#DejaVuSans-32"/>
     <use x="420.507812" xlink:href="#DejaVuSans-91"/>
     <use x="459.521484" xlink:href="#DejaVuSans-48"/>
     <use x="523.144531" xlink:href="#DejaVuSans-46"/>
     <use x="554.931641" xlink:href="#DejaVuSans-56"/>
     <use x="618.554688" xlink:href="#DejaVuSans-51"/>
     <use x="682.177734" xlink:href="#DejaVuSans-44"/>
     <use x="713.964844" xlink:href="#DejaVuSans-32"/>
     <use x="745.751953" xlink:href="#DejaVuSans-48"/>
     <use x="809.375" xlink:href="#DejaVuSans-46"/>
     <use x="841.162109" xlink:href="#DejaVuSans-49"/>
     <use x="904.785156" xlink:href="#DejaVuSans-55"/>
     <use x="968.408203" xlink:href="#DejaVuSans-93"/>
    </g>
   </g>
   <g id="patch_6">
    <path d="M 115.713495 187.358276 
Q 123.671712 166.684024 132.031571 144.966372 
" style="fill:none;stroke:#000000;stroke-linecap:round;"/>
    <path d="M 116.874033 186.299244 
L 115.713495 187.358276 
L 115.562592 185.794427 
" style="fill:none;stroke:#000000;stroke-linecap:round;"/>
   </g>
   <g id="text_3">
    <g id="patch_7">
     <path d="M 96.364268 204.147876 
L 127.285732 204.147876 
Q 128.339667 204.147876 128.339667 203.093941 
L 128.339667 191.826059 
Q 128.339667 190.772124 127.285732 190.772124 
L 96.364268 190.772124 
Q 95.310333 190.772124 95.310333 191.826059 
L 95.310333 203.093941 
Q 95.310333 204.147876 96.364268 204.147876 
z
" style="fill:#399de5;stroke:#000000;stroke-linejoin:miter;"/>
    </g>
    <!-- gini = 0.0 -->
    <g transform="translate(103.238724 194.495479)scale(0.035131 -0.035131)">
     <use xlink:href="#DejaVuSans-103"/>
     <use x="63.476562" xlink:href="#DejaVuSans-105"/>
     <use x="91.259766" xlink:href="#DejaVuSans-110"/>
     <use x="154.638672" xlink:href="#DejaVuSans-105"/>
     <use x="182.421875" xlink:href="#DejaVuSans-32"/>
     <use x="214.208984" xlink:href="#DejaVuSans-61"/>
     <use x="297.998047" xlink:href="#DejaVuSans-32"/>
     <use x="329.785156" xlink:href="#DejaVuSans-48"/>
     <use x="393.408203" xlink:href="#DejaVuSans-46"/>
     <use x="425.195312" xlink:href="#DejaVuSans-48"/>
    </g>
    <!-- samples = 0.4% -->
    <g transform="translate(97.472547 198.429401)scale(0.035131 -0.035131)">
     <use xlink:href="#DejaVuSans-115"/>
     <use x="52.099609" xlink:href="#DejaVuSans-97"/>
     <use x="113.378906" xlink:href="#DejaVuSans-109"/>
     <use x="210.791016" xlink:href="#DejaVuSans-112"/>
     <use x="274.267578" xlink:href="#DejaVuSans-108"/>
     <use x="302.050781" xlink:href="#DejaVuSans-101"/>
     <use x="363.574219" xlink:href="#DejaVuSans-115"/>
     <use x="415.673828" xlink:href="#DejaVuSans-32"/>
     <use x="447.460938" xlink:href="#DejaVuSans-61"/>
     <use x="531.25" xlink:href="#DejaVuSans-32"/>
     <use x="563.037109" xlink:href="#DejaVuSans-48"/>
     <use x="626.660156" xlink:href="#DejaVuSans-46"/>
     <use x="658.447266" xlink:href="#DejaVuSans-52"/>
     <use x="722.070312" xlink:href="#DejaVuSans-37"/>
    </g>
    <!-- value = [0.0, 1.0] -->
    <g transform="translate(96.364268 202.363323)scale(0.035131 -0.035131)">
     <use xlink:href="#DejaVuSans-118"/>
     <use x="59.179688" xlink:href="#DejaVuSans-97"/>
     <use x="120.458984" xlink:href="#DejaVuSans-108"/>
     <use x="148.242188" xlink:href="#DejaVuSans-117"/>
     <use x="211.621094" xlink:href="#DejaVuSans-101"/>
     <use x="273.144531" xlink:href="#DejaVuSans-32"/>
     <use x="304.931641" xlink:href="#DejaVuSans-61"/>
     <use x="388.720703" xlink:href="#DejaVuSans-32"/>
     <use x="420.507812" xlink:href="#DejaVuSans-91"/>
     <use x="459.521484" xlink:href="#DejaVuSans-48"/>
     <use x="523.144531" xlink:href="#DejaVuSans-46"/>
     <use x="554.931641" xlink:href="#DejaVuSans-48"/>
     <use x="618.554688" xlink:href="#DejaVuSans-44"/>
     <use x="650.341797" xlink:href="#DejaVuSans-32"/>
     <use x="682.128906" xlink:href="#DejaVuSans-49"/>
     <use x="745.751953" xlink:href="#DejaVuSans-46"/>
     <use x="777.539062" xlink:href="#DejaVuSans-48"/>
     <use x="841.162109" xlink:href="#DejaVuSans-93"/>
    </g>
   </g>
   <g id="patch_8">
    <path d="M 149.786505 187.358276 
Q 141.828288 166.684024 133.468429 144.966372 
" style="fill:none;stroke:#000000;stroke-linecap:round;"/>
    <path d="M 149.937408 185.794427 
L 149.786505 187.358276 
L 148.625967 186.299244 
" style="fill:none;stroke:#000000;stroke-linecap:round;"/>
   </g>
   <g id="text_4">
    <g id="patch_9">
     <path d="M 133.743828 204.147876 
L 173.606172 204.147876 
Q 174.660107 204.147876 174.660107 203.093941 
L 174.660107 191.826059 
Q 174.660107 190.772124 173.606172 190.772124 
L 133.743828 190.772124 
Q 132.689893 190.772124 132.689893 191.826059 
L 132.689893 203.093941 
Q 132.689893 204.147876 133.743828 204.147876 
z
" style="fill:#f1bd97;stroke:#000000;stroke-linejoin:miter;"/>
    </g>
    <!-- gini = 0.437 -->
    <g transform="translate(142.853503 194.495479)scale(0.035131 -0.035131)">
     <use xlink:href="#DejaVuSans-103"/>
     <use x="63.476562" xlink:href="#DejaVuSans-105"/>
     <use x="91.259766" xlink:href="#DejaVuSans-110"/>
     <use x="154.638672" xlink:href="#DejaVuSans-105"/>
     <use x="182.421875" xlink:href="#DejaVuSans-32"/>
     <use x="214.208984" xlink:href="#DejaVuSans-61"/>
     <use x="297.998047" xlink:href="#DejaVuSans-32"/>
     <use x="329.785156" xlink:href="#DejaVuSans-48"/>
     <use x="393.408203" xlink:href="#DejaVuSans-46"/>
     <use x="425.195312" xlink:href="#DejaVuSans-52"/>
     <use x="488.818359" xlink:href="#DejaVuSans-51"/>
     <use x="552.441406" xlink:href="#DejaVuSans-55"/>
    </g>
    <!-- samples = 17.7% -->
    <g transform="translate(138.204937 198.429401)scale(0.035131 -0.035131)">
     <use xlink:href="#DejaVuSans-115"/>
     <use x="52.099609" xlink:href="#DejaVuSans-97"/>
     <use x="113.378906" xlink:href="#DejaVuSans-109"/>
     <use x="210.791016" xlink:href="#DejaVuSans-112"/>
     <use x="274.267578" xlink:href="#DejaVuSans-108"/>
     <use x="302.050781" xlink:href="#DejaVuSans-101"/>
     <use x="363.574219" xlink:href="#DejaVuSans-115"/>
     <use x="415.673828" xlink:href="#DejaVuSans-32"/>
     <use x="447.460938" xlink:href="#DejaVuSans-61"/>
     <use x="531.25" xlink:href="#DejaVuSans-32"/>
     <use x="563.037109" xlink:href="#DejaVuSans-49"/>
     <use x="626.660156" xlink:href="#DejaVuSans-55"/>
     <use x="690.283203" xlink:href="#DejaVuSans-46"/>
     <use x="722.070312" xlink:href="#DejaVuSans-55"/>
     <use x="785.693359" xlink:href="#DejaVuSans-37"/>
    </g>
    <!-- value = [0.677, 0.323] -->
    <g transform="translate(133.743828 202.363323)scale(0.035131 -0.035131)">
     <use xlink:href="#DejaVuSans-118"/>
     <use x="59.179688" xlink:href="#DejaVuSans-97"/>
     <use x="120.458984" xlink:href="#DejaVuSans-108"/>
     <use x="148.242188" xlink:href="#DejaVuSans-117"/>
     <use x="211.621094" xlink:href="#DejaVuSans-101"/>
     <use x="273.144531" xlink:href="#DejaVuSans-32"/>
     <use x="304.931641" xlink:href="#DejaVuSans-61"/>
     <use x="388.720703" xlink:href="#DejaVuSans-32"/>
     <use x="420.507812" xlink:href="#DejaVuSans-91"/>
     <use x="459.521484" xlink:href="#DejaVuSans-48"/>
     <use x="523.144531" xlink:href="#DejaVuSans-46"/>
     <use x="554.931641" xlink:href="#DejaVuSans-54"/>
     <use x="618.554688" xlink:href="#DejaVuSans-55"/>
     <use x="682.177734" xlink:href="#DejaVuSans-55"/>
     <use x="745.800781" xlink:href="#DejaVuSans-44"/>
     <use x="777.587891" xlink:href="#DejaVuSans-32"/>
     <use x="809.375" xlink:href="#DejaVuSans-48"/>
     <use x="872.998047" xlink:href="#DejaVuSans-46"/>
     <use x="904.785156" xlink:href="#DejaVuSans-51"/>
     <use x="968.408203" xlink:href="#DejaVuSans-50"/>
     <use x="1032.03125" xlink:href="#DejaVuSans-51"/>
     <use x="1095.654297" xlink:href="#DejaVuSans-93"/>
    </g>
   </g>
   <g id="patch_10">
    <path d="M 199.413495 187.358276 
Q 207.371712 166.684024 215.731571 144.966372 
" style="fill:none;stroke:#000000;stroke-linecap:round;"/>
    <path d="M 200.574033 186.299244 
L 199.413495 187.358276 
L 199.262592 185.794427 
" style="fill:none;stroke:#000000;stroke-linecap:round;"/>
   </g>
   <g id="text_5">
    <g id="patch_11">
     <path d="M 180.064268 204.147876 
L 210.985732 204.147876 
Q 212.039667 204.147876 212.039667 203.093941 
L 212.039667 191.826059 
Q 212.039667 190.772124 210.985732 190.772124 
L 180.064268 190.772124 
Q 179.010333 190.772124 179.010333 191.826059 
L 179.010333 203.093941 
Q 179.010333 204.147876 180.064268 204.147876 
z
" style="fill:#4fa8e8;stroke:#000000;stroke-linejoin:miter;"/>
    </g>
    <!-- gini = 0.18 -->
    <g transform="translate(185.821114 194.495479)scale(0.035131 -0.035131)">
     <use xlink:href="#DejaVuSans-103"/>
     <use x="63.476562" xlink:href="#DejaVuSans-105"/>
     <use x="91.259766" xlink:href="#DejaVuSans-110"/>
     <use x="154.638672" xlink:href="#DejaVuSans-105"/>
     <use x="182.421875" xlink:href="#DejaVuSans-32"/>
     <use x="214.208984" xlink:href="#DejaVuSans-61"/>
     <use x="297.998047" xlink:href="#DejaVuSans-32"/>
     <use x="329.785156" xlink:href="#DejaVuSans-48"/>
     <use x="393.408203" xlink:href="#DejaVuSans-46"/>
     <use x="425.195312" xlink:href="#DejaVuSans-49"/>
     <use x="488.818359" xlink:href="#DejaVuSans-56"/>
    </g>
    <!-- samples = 7.9% -->
    <g transform="translate(181.172547 198.429401)scale(0.035131 -0.035131)">
     <use xlink:href="#DejaVuSans-115"/>
     <use x="52.099609" xlink:href="#DejaVuSans-97"/>
     <use x="113.378906" xlink:href="#DejaVuSans-109"/>
     <use x="210.791016" xlink:href="#DejaVuSans-112"/>
     <use x="274.267578" xlink:href="#DejaVuSans-108"/>
     <use x="302.050781" xlink:href="#DejaVuSans-101"/>
     <use x="363.574219" xlink:href="#DejaVuSans-115"/>
     <use x="415.673828" xlink:href="#DejaVuSans-32"/>
     <use x="447.460938" xlink:href="#DejaVuSans-61"/>
     <use x="531.25" xlink:href="#DejaVuSans-32"/>
     <use x="563.037109" xlink:href="#DejaVuSans-55"/>
     <use x="626.660156" xlink:href="#DejaVuSans-46"/>
     <use x="658.447266" xlink:href="#DejaVuSans-57"/>
     <use x="722.070312" xlink:href="#DejaVuSans-37"/>
    </g>
    <!-- value = [0.1, 0.9] -->
    <g transform="translate(180.064268 202.363323)scale(0.035131 -0.035131)">
     <use xlink:href="#DejaVuSans-118"/>
     <use x="59.179688" xlink:href="#DejaVuSans-97"/>
     <use x="120.458984" xlink:href="#DejaVuSans-108"/>
     <use x="148.242188" xlink:href="#DejaVuSans-117"/>
     <use x="211.621094" xlink:href="#DejaVuSans-101"/>
     <use x="273.144531" xlink:href="#DejaVuSans-32"/>
     <use x="304.931641" xlink:href="#DejaVuSans-61"/>
     <use x="388.720703" xlink:href="#DejaVuSans-32"/>
     <use x="420.507812" xlink:href="#DejaVuSans-91"/>
     <use x="459.521484" xlink:href="#DejaVuSans-48"/>
     <use x="523.144531" xlink:href="#DejaVuSans-46"/>
     <use x="554.931641" xlink:href="#DejaVuSans-49"/>
     <use x="618.554688" xlink:href="#DejaVuSans-44"/>
     <use x="650.341797" xlink:href="#DejaVuSans-32"/>
     <use x="682.128906" xlink:href="#DejaVuSans-48"/>
     <use x="745.751953" xlink:href="#DejaVuSans-46"/>
     <use x="777.539062" xlink:href="#DejaVuSans-57"/>
     <use x="841.162109" xlink:href="#DejaVuSans-93"/>
    </g>
   </g>
   <g id="patch_12">
    <path d="M 233.486505 187.358276 
Q 225.528288 166.684024 217.168429 144.966372 
" style="fill:none;stroke:#000000;stroke-linecap:round;"/>
    <path d="M 233.637408 185.794427 
L 233.486505 187.358276 
L 232.325967 186.299244 
" style="fill:none;stroke:#000000;stroke-linecap:round;"/>
   </g>
   <g id="text_6">
    <g id="patch_13">
     <path d="M 219.679048 204.147876 
L 255.070952 204.147876 
Q 256.124887 204.147876 256.124887 203.093941 
L 256.124887 191.826059 
Q 256.124887 190.772124 255.070952 190.772124 
L 219.679048 190.772124 
Q 218.625113 190.772124 218.625113 191.826059 
L 218.625113 203.093941 
Q 218.625113 204.147876 219.679048 204.147876 
z
" style="fill:#3d9fe6;stroke:#000000;stroke-linejoin:miter;"/>
    </g>
    <!-- gini = 0.039 -->
    <g transform="translate(226.553503 194.495479)scale(0.035131 -0.035131)">
     <use xlink:href="#DejaVuSans-103"/>
     <use x="63.476562" xlink:href="#DejaVuSans-105"/>
     <use x="91.259766" xlink:href="#DejaVuSans-110"/>
     <use x="154.638672" xlink:href="#DejaVuSans-105"/>
     <use x="182.421875" xlink:href="#DejaVuSans-32"/>
     <use x="214.208984" xlink:href="#DejaVuSans-61"/>
     <use x="297.998047" xlink:href="#DejaVuSans-32"/>
     <use x="329.785156" xlink:href="#DejaVuSans-48"/>
     <use x="393.408203" xlink:href="#DejaVuSans-46"/>
     <use x="425.195312" xlink:href="#DejaVuSans-48"/>
     <use x="488.818359" xlink:href="#DejaVuSans-51"/>
     <use x="552.441406" xlink:href="#DejaVuSans-57"/>
    </g>
    <!-- samples = 11.2% -->
    <g transform="translate(221.904937 198.429401)scale(0.035131 -0.035131)">
     <use xlink:href="#DejaVuSans-115"/>
     <use x="52.099609" xlink:href="#DejaVuSans-97"/>
     <use x="113.378906" xlink:href="#DejaVuSans-109"/>
     <use x="210.791016" xlink:href="#DejaVuSans-112"/>
     <use x="274.267578" xlink:href="#DejaVuSans-108"/>
     <use x="302.050781" xlink:href="#DejaVuSans-101"/>
     <use x="363.574219" xlink:href="#DejaVuSans-115"/>
     <use x="415.673828" xlink:href="#DejaVuSans-32"/>
     <use x="447.460938" xlink:href="#DejaVuSans-61"/>
     <use x="531.25" xlink:href="#DejaVuSans-32"/>
     <use x="563.037109" xlink:href="#DejaVuSans-49"/>
     <use x="626.660156" xlink:href="#DejaVuSans-49"/>
     <use x="690.283203" xlink:href="#DejaVuSans-46"/>
     <use x="722.070312" xlink:href="#DejaVuSans-50"/>
     <use x="785.693359" xlink:href="#DejaVuSans-37"/>
    </g>
    <!-- value = [0.02, 0.98] -->
    <g transform="translate(219.679048 202.363323)scale(0.035131 -0.035131)">
     <use xlink:href="#DejaVuSans-118"/>
     <use x="59.179688" xlink:href="#DejaVuSans-97"/>
     <use x="120.458984" xlink:href="#DejaVuSans-108"/>
     <use x="148.242188" xlink:href="#DejaVuSans-117"/>
     <use x="211.621094" xlink:href="#DejaVuSans-101"/>
     <use x="273.144531" xlink:href="#DejaVuSans-32"/>
     <use x="304.931641" xlink:href="#DejaVuSans-61"/>
     <use x="388.720703" xlink:href="#DejaVuSans-32"/>
     <use x="420.507812" xlink:href="#DejaVuSans-91"/>
     <use x="459.521484" xlink:href="#DejaVuSans-48"/>
     <use x="523.144531" xlink:href="#DejaVuSans-46"/>
     <use x="554.931641" xlink:href="#DejaVuSans-48"/>
     <use x="618.554688" xlink:href="#DejaVuSans-50"/>
     <use x="682.177734" xlink:href="#DejaVuSans-44"/>
     <use x="713.964844" xlink:href="#DejaVuSans-32"/>
     <use x="745.751953" xlink:href="#DejaVuSans-48"/>
     <use x="809.375" xlink:href="#DejaVuSans-46"/>
     <use x="841.162109" xlink:href="#DejaVuSans-57"/>
     <use x="904.785156" xlink:href="#DejaVuSans-56"/>
     <use x="968.408203" xlink:href="#DejaVuSans-93"/>
    </g>
   </g>
   <g id="patch_14">
    <path d="M 283.113495 187.358276 
Q 291.071712 166.684024 299.431571 144.966372 
" style="fill:none;stroke:#000000;stroke-linecap:round;"/>
    <path d="M 284.274033 186.299244 
L 283.113495 187.358276 
L 282.962592 185.794427 
" style="fill:none;stroke:#000000;stroke-linecap:round;"/>
   </g>
   <g id="text_7">
    <g id="patch_15">
     <path d="M 261.529048 204.147876 
L 296.920952 204.147876 
Q 297.974887 204.147876 297.974887 203.093941 
L 297.974887 191.826059 
Q 297.974887 190.772124 296.920952 190.772124 
L 261.529048 190.772124 
Q 260.475113 190.772124 260.475113 191.826059 
L 260.475113 203.093941 
Q 260.475113 204.147876 261.529048 204.147876 
z
" style="fill:#c3e1f7;stroke:#000000;stroke-linejoin:miter;"/>
    </g>
    <!-- gini = 0.484 -->
    <g transform="translate(268.403503 194.495479)scale(0.035131 -0.035131)">
     <use xlink:href="#DejaVuSans-103"/>
     <use x="63.476562" xlink:href="#DejaVuSans-105"/>
     <use x="91.259766" xlink:href="#DejaVuSans-110"/>
     <use x="154.638672" xlink:href="#DejaVuSans-105"/>
     <use x="182.421875" xlink:href="#DejaVuSans-32"/>
     <use x="214.208984" xlink:href="#DejaVuSans-61"/>
     <use x="297.998047" xlink:href="#DejaVuSans-32"/>
     <use x="329.785156" xlink:href="#DejaVuSans-48"/>
     <use x="393.408203" xlink:href="#DejaVuSans-46"/>
     <use x="425.195312" xlink:href="#DejaVuSans-52"/>
     <use x="488.818359" xlink:href="#DejaVuSans-56"/>
     <use x="552.441406" xlink:href="#DejaVuSans-52"/>
    </g>
    <!-- samples = 13.1% -->
    <g transform="translate(263.754937 198.429401)scale(0.035131 -0.035131)">
     <use xlink:href="#DejaVuSans-115"/>
     <use x="52.099609" xlink:href="#DejaVuSans-97"/>
     <use x="113.378906" xlink:href="#DejaVuSans-109"/>
     <use x="210.791016" xlink:href="#DejaVuSans-112"/>
     <use x="274.267578" xlink:href="#DejaVuSans-108"/>
     <use x="302.050781" xlink:href="#DejaVuSans-101"/>
     <use x="363.574219" xlink:href="#DejaVuSans-115"/>
     <use x="415.673828" xlink:href="#DejaVuSans-32"/>
     <use x="447.460938" xlink:href="#DejaVuSans-61"/>
     <use x="531.25" xlink:href="#DejaVuSans-32"/>
     <use x="563.037109" xlink:href="#DejaVuSans-49"/>
     <use x="626.660156" xlink:href="#DejaVuSans-51"/>
     <use x="690.283203" xlink:href="#DejaVuSans-46"/>
     <use x="722.070312" xlink:href="#DejaVuSans-49"/>
     <use x="785.693359" xlink:href="#DejaVuSans-37"/>
    </g>
    <!-- value = [0.41, 0.59] -->
    <g transform="translate(261.529048 202.363323)scale(0.035131 -0.035131)">
     <defs>
      <path d="M 10.796875 72.90625 
L 49.515625 72.90625 
L 49.515625 64.59375 
L 19.828125 64.59375 
L 19.828125 46.734375 
Q 21.96875 47.46875 24.109375 47.828125 
Q 26.265625 48.1875 28.421875 48.1875 
Q 40.625 48.1875 47.75 41.5 
Q 54.890625 34.8125 54.890625 23.390625 
Q 54.890625 11.625 47.5625 5.09375 
Q 40.234375 -1.421875 26.90625 -1.421875 
Q 22.3125 -1.421875 17.546875 -0.640625 
Q 12.796875 0.140625 7.71875 1.703125 
L 7.71875 11.625 
Q 12.109375 9.234375 16.796875 8.0625 
Q 21.484375 6.890625 26.703125 6.890625 
Q 35.15625 6.890625 40.078125 11.328125 
Q 45.015625 15.765625 45.015625 23.390625 
Q 45.015625 31 40.078125 35.4375 
Q 35.15625 39.890625 26.703125 39.890625 
Q 22.75 39.890625 18.8125 39.015625 
Q 14.890625 38.140625 10.796875 36.28125 
z
" id="DejaVuSans-53"/>
     </defs>
     <use xlink:href="#DejaVuSans-118"/>
     <use x="59.179688" xlink:href="#DejaVuSans-97"/>
     <use x="120.458984" xlink:href="#DejaVuSans-108"/>
     <use x="148.242188" xlink:href="#DejaVuSans-117"/>
     <use x="211.621094" xlink:href="#DejaVuSans-101"/>
     <use x="273.144531" xlink:href="#DejaVuSans-32"/>
     <use x="304.931641" xlink:href="#DejaVuSans-61"/>
     <use x="388.720703" xlink:href="#DejaVuSans-32"/>
     <use x="420.507812" xlink:href="#DejaVuSans-91"/>
     <use x="459.521484" xlink:href="#DejaVuSans-48"/>
     <use x="523.144531" xlink:href="#DejaVuSans-46"/>
     <use x="554.931641" xlink:href="#DejaVuSans-52"/>
     <use x="618.554688" xlink:href="#DejaVuSans-49"/>
     <use x="682.177734" xlink:href="#DejaVuSans-44"/>
     <use x="713.964844" xlink:href="#DejaVuSans-32"/>
     <use x="745.751953" xlink:href="#DejaVuSans-48"/>
     <use x="809.375" xlink:href="#DejaVuSans-46"/>
     <use x="841.162109" xlink:href="#DejaVuSans-53"/>
     <use x="904.785156" xlink:href="#DejaVuSans-57"/>
     <use x="968.408203" xlink:href="#DejaVuSans-93"/>
    </g>
   </g>
   <g id="patch_16">
    <path d="M 317.186505 187.358276 
Q 309.228288 166.684024 300.868429 144.966372 
" style="fill:none;stroke:#000000;stroke-linecap:round;"/>
    <path d="M 317.337408 185.794427 
L 317.186505 187.358276 
L 316.025967 186.299244 
" style="fill:none;stroke:#000000;stroke-linecap:round;"/>
   </g>
   <g id="text_8">
    <g id="patch_17">
     <path d="M 301.143828 204.147876 
L 341.006172 204.147876 
Q 342.060107 204.147876 342.060107 203.093941 
L 342.060107 191.826059 
Q 342.060107 190.772124 341.006172 190.772124 
L 301.143828 190.772124 
Q 300.089893 190.772124 300.089893 191.826059 
L 300.089893 203.093941 
Q 300.089893 204.147876 301.143828 204.147876 
z
" style="fill:#e89152;stroke:#000000;stroke-linejoin:miter;"/>
    </g>
    <!-- gini = 0.198 -->
    <g transform="translate(310.253503 194.495479)scale(0.035131 -0.035131)">
     <use xlink:href="#DejaVuSans-103"/>
     <use x="63.476562" xlink:href="#DejaVuSans-105"/>
     <use x="91.259766" xlink:href="#DejaVuSans-110"/>
     <use x="154.638672" xlink:href="#DejaVuSans-105"/>
     <use x="182.421875" xlink:href="#DejaVuSans-32"/>
     <use x="214.208984" xlink:href="#DejaVuSans-61"/>
     <use x="297.998047" xlink:href="#DejaVuSans-32"/>
     <use x="329.785156" xlink:href="#DejaVuSans-48"/>
     <use x="393.408203" xlink:href="#DejaVuSans-46"/>
     <use x="425.195312" xlink:href="#DejaVuSans-49"/>
     <use x="488.818359" xlink:href="#DejaVuSans-57"/>
     <use x="552.441406" xlink:href="#DejaVuSans-56"/>
    </g>
    <!-- samples = 3.0% -->
    <g transform="translate(306.722547 198.429401)scale(0.035131 -0.035131)">
     <use xlink:href="#DejaVuSans-115"/>
     <use x="52.099609" xlink:href="#DejaVuSans-97"/>
     <use x="113.378906" xlink:href="#DejaVuSans-109"/>
     <use x="210.791016" xlink:href="#DejaVuSans-112"/>
     <use x="274.267578" xlink:href="#DejaVuSans-108"/>
     <use x="302.050781" xlink:href="#DejaVuSans-101"/>
     <use x="363.574219" xlink:href="#DejaVuSans-115"/>
     <use x="415.673828" xlink:href="#DejaVuSans-32"/>
     <use x="447.460938" xlink:href="#DejaVuSans-61"/>
     <use x="531.25" xlink:href="#DejaVuSans-32"/>
     <use x="563.037109" xlink:href="#DejaVuSans-51"/>
     <use x="626.660156" xlink:href="#DejaVuSans-46"/>
     <use x="658.447266" xlink:href="#DejaVuSans-48"/>
     <use x="722.070312" xlink:href="#DejaVuSans-37"/>
    </g>
    <!-- value = [0.889, 0.111] -->
    <g transform="translate(301.143828 202.363323)scale(0.035131 -0.035131)">
     <use xlink:href="#DejaVuSans-118"/>
     <use x="59.179688" xlink:href="#DejaVuSans-97"/>
     <use x="120.458984" xlink:href="#DejaVuSans-108"/>
     <use x="148.242188" xlink:href="#DejaVuSans-117"/>
     <use x="211.621094" xlink:href="#DejaVuSans-101"/>
     <use x="273.144531" xlink:href="#DejaVuSans-32"/>
     <use x="304.931641" xlink:href="#DejaVuSans-61"/>
     <use x="388.720703" xlink:href="#DejaVuSans-32"/>
     <use x="420.507812" xlink:href="#DejaVuSans-91"/>
     <use x="459.521484" xlink:href="#DejaVuSans-48"/>
     <use x="523.144531" xlink:href="#DejaVuSans-46"/>
     <use x="554.931641" xlink:href="#DejaVuSans-56"/>
     <use x="618.554688" xlink:href="#DejaVuSans-56"/>
     <use x="682.177734" xlink:href="#DejaVuSans-57"/>
     <use x="745.800781" xlink:href="#DejaVuSans-44"/>
     <use x="777.587891" xlink:href="#DejaVuSans-32"/>
     <use x="809.375" xlink:href="#DejaVuSans-48"/>
     <use x="872.998047" xlink:href="#DejaVuSans-46"/>
     <use x="904.785156" xlink:href="#DejaVuSans-49"/>
     <use x="968.408203" xlink:href="#DejaVuSans-49"/>
     <use x="1032.03125" xlink:href="#DejaVuSans-49"/>
     <use x="1095.654297" xlink:href="#DejaVuSans-93"/>
    </g>
   </g>
   <g id="patch_18">
    <path d="M 58.00081 131.473572 
Q 73.499623 111.341781 89.680467 90.324081 
" style="fill:none;stroke:#000000;stroke-linecap:round;"/>
    <path d="M 59.414794 130.788702 
L 58.00081 131.473572 
L 58.301305 129.931463 
" style="fill:none;stroke:#000000;stroke-linecap:round;"/>
   </g>
   <g id="text_9">
    <g id="patch_19">
     <path d="M 31.354048 151.754837 
L 66.745952 151.754837 
Q 67.799887 151.754837 67.799887 150.700902 
L 67.799887 135.499098 
Q 67.799887 134.445163 66.745952 134.445163 
L 31.354048 134.445163 
Q 30.300113 134.445163 30.300113 135.499098 
L 30.300113 150.700902 
Q 30.300113 151.754837 31.354048 151.754837 
z
" style="fill:#e99457;stroke:#000000;stroke-linejoin:miter;"/>
    </g>
    <!-- X[2] &lt;= 7.91 -->
    <g transform="translate(37.387002 138.168518)scale(0.035131 -0.035131)">
     <defs>
      <path d="M 6.296875 72.90625 
L 16.890625 72.90625 
L 35.015625 45.796875 
L 53.21875 72.90625 
L 63.8125 72.90625 
L 40.375 37.890625 
L 65.375 0 
L 54.78125 0 
L 34.28125 31 
L 13.625 0 
L 2.984375 0 
L 29 38.921875 
z
" id="DejaVuSans-88"/>
      <path d="M 73.1875 49.21875 
L 22.796875 31.296875 
L 73.1875 13.484375 
L 73.1875 4.59375 
L 10.59375 27.296875 
L 10.59375 35.40625 
L 73.1875 58.109375 
z
" id="DejaVuSans-60"/>
     </defs>
     <use xlink:href="#DejaVuSans-88"/>
     <use x="68.505859" xlink:href="#DejaVuSans-91"/>
     <use x="107.519531" xlink:href="#DejaVuSans-50"/>
     <use x="171.142578" xlink:href="#DejaVuSans-93"/>
     <use x="210.15625" xlink:href="#DejaVuSans-32"/>
     <use x="241.943359" xlink:href="#DejaVuSans-60"/>
     <use x="325.732422" xlink:href="#DejaVuSans-61"/>
     <use x="409.521484" xlink:href="#DejaVuSans-32"/>
     <use x="441.308594" xlink:href="#DejaVuSans-55"/>
     <use x="504.931641" xlink:href="#DejaVuSans-46"/>
     <use x="536.71875" xlink:href="#DejaVuSans-57"/>
     <use x="600.341797" xlink:href="#DejaVuSans-49"/>
    </g>
    <!-- gini = 0.226 -->
    <g transform="translate(38.228503 142.10244)scale(0.035131 -0.035131)">
     <use xlink:href="#DejaVuSans-103"/>
     <use x="63.476562" xlink:href="#DejaVuSans-105"/>
     <use x="91.259766" xlink:href="#DejaVuSans-110"/>
     <use x="154.638672" xlink:href="#DejaVuSans-105"/>
     <use x="182.421875" xlink:href="#DejaVuSans-32"/>
     <use x="214.208984" xlink:href="#DejaVuSans-61"/>
     <use x="297.998047" xlink:href="#DejaVuSans-32"/>
     <use x="329.785156" xlink:href="#DejaVuSans-48"/>
     <use x="393.408203" xlink:href="#DejaVuSans-46"/>
     <use x="425.195312" xlink:href="#DejaVuSans-50"/>
     <use x="488.818359" xlink:href="#DejaVuSans-50"/>
     <use x="552.441406" xlink:href="#DejaVuSans-54"/>
    </g>
    <!-- samples = 46.6% -->
    <g transform="translate(33.579937 146.036362)scale(0.035131 -0.035131)">
     <use xlink:href="#DejaVuSans-115"/>
     <use x="52.099609" xlink:href="#DejaVuSans-97"/>
     <use x="113.378906" xlink:href="#DejaVuSans-109"/>
     <use x="210.791016" xlink:href="#DejaVuSans-112"/>
     <use x="274.267578" xlink:href="#DejaVuSans-108"/>
     <use x="302.050781" xlink:href="#DejaVuSans-101"/>
     <use x="363.574219" xlink:href="#DejaVuSans-115"/>
     <use x="415.673828" xlink:href="#DejaVuSans-32"/>
     <use x="447.460938" xlink:href="#DejaVuSans-61"/>
     <use x="531.25" xlink:href="#DejaVuSans-32"/>
     <use x="563.037109" xlink:href="#DejaVuSans-52"/>
     <use x="626.660156" xlink:href="#DejaVuSans-54"/>
     <use x="690.283203" xlink:href="#DejaVuSans-46"/>
     <use x="722.070312" xlink:href="#DejaVuSans-54"/>
     <use x="785.693359" xlink:href="#DejaVuSans-37"/>
    </g>
    <!-- value = [0.87, 0.13] -->
    <g transform="translate(31.354048 149.970284)scale(0.035131 -0.035131)">
     <use xlink:href="#DejaVuSans-118"/>
     <use x="59.179688" xlink:href="#DejaVuSans-97"/>
     <use x="120.458984" xlink:href="#DejaVuSans-108"/>
     <use x="148.242188" xlink:href="#DejaVuSans-117"/>
     <use x="211.621094" xlink:href="#DejaVuSans-101"/>
     <use x="273.144531" xlink:href="#DejaVuSans-32"/>
     <use x="304.931641" xlink:href="#DejaVuSans-61"/>
     <use x="388.720703" xlink:href="#DejaVuSans-32"/>
     <use x="420.507812" xlink:href="#DejaVuSans-91"/>
     <use x="459.521484" xlink:href="#DejaVuSans-48"/>
     <use x="523.144531" xlink:href="#DejaVuSans-46"/>
     <use x="554.931641" xlink:href="#DejaVuSans-56"/>
     <use x="618.554688" xlink:href="#DejaVuSans-55"/>
     <use x="682.177734" xlink:href="#DejaVuSans-44"/>
     <use x="713.964844" xlink:href="#DejaVuSans-32"/>
     <use x="745.751953" xlink:href="#DejaVuSans-48"/>
     <use x="809.375" xlink:href="#DejaVuSans-46"/>
     <use x="841.162109" xlink:href="#DejaVuSans-49"/>
     <use x="904.785156" xlink:href="#DejaVuSans-51"/>
     <use x="968.408203" xlink:href="#DejaVuSans-93"/>
    </g>
   </g>
   <g id="patch_20">
    <path d="M 123.79919 131.473572 
Q 108.300377 111.341781 92.119533 90.324081 
" style="fill:none;stroke:#000000;stroke-linecap:round;"/>
    <path d="M 123.498695 129.931463 
L 123.79919 131.473572 
L 122.385206 130.788702 
" style="fill:none;stroke:#000000;stroke-linecap:round;"/>
   </g>
   <g id="text_10">
    <g id="patch_21">
     <path d="M 115.054048 151.754837 
L 150.445952 151.754837 
Q 151.499887 151.754837 151.499887 150.700902 
L 151.499887 135.499098 
Q 151.499887 134.445163 150.445952 134.445163 
L 115.054048 134.445163 
Q 114.000113 134.445163 114.000113 135.499098 
L 114.000113 150.700902 
Q 114.000113 151.754837 115.054048 151.754837 
z
" style="fill:#f2c29f;stroke:#000000;stroke-linejoin:miter;"/>
    </g>
    <!-- X[2] &lt;= 26.469 -->
    <g transform="translate(118.851782 138.168518)scale(0.035131 -0.035131)">
     <use xlink:href="#DejaVuSans-88"/>
     <use x="68.505859" xlink:href="#DejaVuSans-91"/>
     <use x="107.519531" xlink:href="#DejaVuSans-50"/>
     <use x="171.142578" xlink:href="#DejaVuSans-93"/>
     <use x="210.15625" xlink:href="#DejaVuSans-32"/>
     <use x="241.943359" xlink:href="#DejaVuSans-60"/>
     <use x="325.732422" xlink:href="#DejaVuSans-61"/>
     <use x="409.521484" xlink:href="#DejaVuSans-32"/>
     <use x="441.308594" xlink:href="#DejaVuSans-50"/>
     <use x="504.931641" xlink:href="#DejaVuSans-54"/>
     <use x="568.554688" xlink:href="#DejaVuSans-46"/>
     <use x="600.341797" xlink:href="#DejaVuSans-52"/>
     <use x="663.964844" xlink:href="#DejaVuSans-54"/>
     <use x="727.587891" xlink:href="#DejaVuSans-57"/>
    </g>
    <!-- gini = 0.448 -->
    <g transform="translate(121.928503 142.10244)scale(0.035131 -0.035131)">
     <use xlink:href="#DejaVuSans-103"/>
     <use x="63.476562" xlink:href="#DejaVuSans-105"/>
     <use x="91.259766" xlink:href="#DejaVuSans-110"/>
     <use x="154.638672" xlink:href="#DejaVuSans-105"/>
     <use x="182.421875" xlink:href="#DejaVuSans-32"/>
     <use x="214.208984" xlink:href="#DejaVuSans-61"/>
     <use x="297.998047" xlink:href="#DejaVuSans-32"/>
     <use x="329.785156" xlink:href="#DejaVuSans-48"/>
     <use x="393.408203" xlink:href="#DejaVuSans-46"/>
     <use x="425.195312" xlink:href="#DejaVuSans-52"/>
     <use x="488.818359" xlink:href="#DejaVuSans-52"/>
     <use x="552.441406" xlink:href="#DejaVuSans-56"/>
    </g>
    <!-- samples = 18.2% -->
    <g transform="translate(117.279937 146.036362)scale(0.035131 -0.035131)">
     <use xlink:href="#DejaVuSans-115"/>
     <use x="52.099609" xlink:href="#DejaVuSans-97"/>
     <use x="113.378906" xlink:href="#DejaVuSans-109"/>
     <use x="210.791016" xlink:href="#DejaVuSans-112"/>
     <use x="274.267578" xlink:href="#DejaVuSans-108"/>
     <use x="302.050781" xlink:href="#DejaVuSans-101"/>
     <use x="363.574219" xlink:href="#DejaVuSans-115"/>
     <use x="415.673828" xlink:href="#DejaVuSans-32"/>
     <use x="447.460938" xlink:href="#DejaVuSans-61"/>
     <use x="531.25" xlink:href="#DejaVuSans-32"/>
     <use x="563.037109" xlink:href="#DejaVuSans-49"/>
     <use x="626.660156" xlink:href="#DejaVuSans-56"/>
     <use x="690.283203" xlink:href="#DejaVuSans-46"/>
     <use x="722.070312" xlink:href="#DejaVuSans-50"/>
     <use x="785.693359" xlink:href="#DejaVuSans-37"/>
    </g>
    <!-- value = [0.66, 0.34] -->
    <g transform="translate(115.054048 149.970284)scale(0.035131 -0.035131)">
     <use xlink:href="#DejaVuSans-118"/>
     <use x="59.179688" xlink:href="#DejaVuSans-97"/>
     <use x="120.458984" xlink:href="#DejaVuSans-108"/>
     <use x="148.242188" xlink:href="#DejaVuSans-117"/>
     <use x="211.621094" xlink:href="#DejaVuSans-101"/>
     <use x="273.144531" xlink:href="#DejaVuSans-32"/>
     <use x="304.931641" xlink:href="#DejaVuSans-61"/>
     <use x="388.720703" xlink:href="#DejaVuSans-32"/>
     <use x="420.507812" xlink:href="#DejaVuSans-91"/>
     <use x="459.521484" xlink:href="#DejaVuSans-48"/>
     <use x="523.144531" xlink:href="#DejaVuSans-46"/>
     <use x="554.931641" xlink:href="#DejaVuSans-54"/>
     <use x="618.554688" xlink:href="#DejaVuSans-54"/>
     <use x="682.177734" xlink:href="#DejaVuSans-44"/>
     <use x="713.964844" xlink:href="#DejaVuSans-32"/>
     <use x="745.751953" xlink:href="#DejaVuSans-48"/>
     <use x="809.375" xlink:href="#DejaVuSans-46"/>
     <use x="841.162109" xlink:href="#DejaVuSans-51"/>
     <use x="904.785156" xlink:href="#DejaVuSans-52"/>
     <use x="968.408203" xlink:href="#DejaVuSans-93"/>
    </g>
   </g>
   <g id="patch_22">
    <path d="M 225.40081 131.473572 
Q 240.899623 111.341781 257.080467 90.324081 
" style="fill:none;stroke:#000000;stroke-linecap:round;"/>
    <path d="M 226.814794 130.788702 
L 225.40081 131.473572 
L 225.701305 129.931463 
" style="fill:none;stroke:#000000;stroke-linecap:round;"/>
   </g>
   <g id="text_11">
    <g id="patch_23">
     <path d="M 196.518828 151.754837 
L 236.381172 151.754837 
Q 237.435107 151.754837 237.435107 150.700902 
L 237.435107 135.499098 
Q 237.435107 134.445163 236.381172 134.445163 
L 196.518828 134.445163 
Q 195.464893 134.445163 195.464893 135.499098 
L 195.464893 150.700902 
Q 195.464893 151.754837 196.518828 151.754837 
z
" style="fill:#44a2e6;stroke:#000000;stroke-linejoin:miter;"/>
    </g>
    <!-- X[2] &lt;= 28.856 -->
    <g transform="translate(202.551782 138.168518)scale(0.035131 -0.035131)">
     <use xlink:href="#DejaVuSans-88"/>
     <use x="68.505859" xlink:href="#DejaVuSans-91"/>
     <use x="107.519531" xlink:href="#DejaVuSans-50"/>
     <use x="171.142578" xlink:href="#DejaVuSans-93"/>
     <use x="210.15625" xlink:href="#DejaVuSans-32"/>
     <use x="241.943359" xlink:href="#DejaVuSans-60"/>
     <use x="325.732422" xlink:href="#DejaVuSans-61"/>
     <use x="409.521484" xlink:href="#DejaVuSans-32"/>
     <use x="441.308594" xlink:href="#DejaVuSans-50"/>
     <use x="504.931641" xlink:href="#DejaVuSans-56"/>
     <use x="568.554688" xlink:href="#DejaVuSans-46"/>
     <use x="600.341797" xlink:href="#DejaVuSans-56"/>
     <use x="663.964844" xlink:href="#DejaVuSans-53"/>
     <use x="727.587891" xlink:href="#DejaVuSans-54"/>
    </g>
    <!-- gini = 0.1 -->
    <g transform="translate(207.863724 142.10244)scale(0.035131 -0.035131)">
     <use xlink:href="#DejaVuSans-103"/>
     <use x="63.476562" xlink:href="#DejaVuSans-105"/>
     <use x="91.259766" xlink:href="#DejaVuSans-110"/>
     <use x="154.638672" xlink:href="#DejaVuSans-105"/>
     <use x="182.421875" xlink:href="#DejaVuSans-32"/>
     <use x="214.208984" xlink:href="#DejaVuSans-61"/>
     <use x="297.998047" xlink:href="#DejaVuSans-32"/>
     <use x="329.785156" xlink:href="#DejaVuSans-48"/>
     <use x="393.408203" xlink:href="#DejaVuSans-46"/>
     <use x="425.195312" xlink:href="#DejaVuSans-49"/>
    </g>
    <!-- samples = 19.1% -->
    <g transform="translate(200.979937 146.036362)scale(0.035131 -0.035131)">
     <use xlink:href="#DejaVuSans-115"/>
     <use x="52.099609" xlink:href="#DejaVuSans-97"/>
     <use x="113.378906" xlink:href="#DejaVuSans-109"/>
     <use x="210.791016" xlink:href="#DejaVuSans-112"/>
     <use x="274.267578" xlink:href="#DejaVuSans-108"/>
     <use x="302.050781" xlink:href="#DejaVuSans-101"/>
     <use x="363.574219" xlink:href="#DejaVuSans-115"/>
     <use x="415.673828" xlink:href="#DejaVuSans-32"/>
     <use x="447.460938" xlink:href="#DejaVuSans-61"/>
     <use x="531.25" xlink:href="#DejaVuSans-32"/>
     <use x="563.037109" xlink:href="#DejaVuSans-49"/>
     <use x="626.660156" xlink:href="#DejaVuSans-57"/>
     <use x="690.283203" xlink:href="#DejaVuSans-46"/>
     <use x="722.070312" xlink:href="#DejaVuSans-49"/>
     <use x="785.693359" xlink:href="#DejaVuSans-37"/>
    </g>
    <!-- value = [0.053, 0.947] -->
    <g transform="translate(196.518828 149.970284)scale(0.035131 -0.035131)">
     <use xlink:href="#DejaVuSans-118"/>
     <use x="59.179688" xlink:href="#DejaVuSans-97"/>
     <use x="120.458984" xlink:href="#DejaVuSans-108"/>
     <use x="148.242188" xlink:href="#DejaVuSans-117"/>
     <use x="211.621094" xlink:href="#DejaVuSans-101"/>
     <use x="273.144531" xlink:href="#DejaVuSans-32"/>
     <use x="304.931641" xlink:href="#DejaVuSans-61"/>
     <use x="388.720703" xlink:href="#DejaVuSans-32"/>
     <use x="420.507812" xlink:href="#DejaVuSans-91"/>
     <use x="459.521484" xlink:href="#DejaVuSans-48"/>
     <use x="523.144531" xlink:href="#DejaVuSans-46"/>
     <use x="554.931641" xlink:href="#DejaVuSans-48"/>
     <use x="618.554688" xlink:href="#DejaVuSans-53"/>
     <use x="682.177734" xlink:href="#DejaVuSans-51"/>
     <use x="745.800781" xlink:href="#DejaVuSans-44"/>
     <use x="777.587891" xlink:href="#DejaVuSans-32"/>
     <use x="809.375" xlink:href="#DejaVuSans-48"/>
     <use x="872.998047" xlink:href="#DejaVuSans-46"/>
     <use x="904.785156" xlink:href="#DejaVuSans-57"/>
     <use x="968.408203" xlink:href="#DejaVuSans-52"/>
     <use x="1032.03125" xlink:href="#DejaVuSans-55"/>
     <use x="1095.654297" xlink:href="#DejaVuSans-93"/>
    </g>
   </g>
   <g id="patch_24">
    <path d="M 291.19919 131.473572 
Q 275.700377 111.341781 259.519533 90.324081 
" style="fill:none;stroke:#000000;stroke-linecap:round;"/>
    <path d="M 290.898695 129.931463 
L 291.19919 131.473572 
L 289.785206 130.788702 
" style="fill:none;stroke:#000000;stroke-linecap:round;"/>
   </g>
   <g id="text_12">
    <g id="patch_25">
     <path d="M 284.679937 151.754837 
L 315.620063 151.754837 
Q 316.673998 151.754837 316.673998 150.700902 
L 316.673998 135.499098 
Q 316.673998 134.445163 315.620063 134.445163 
L 284.679937 134.445163 
Q 283.626002 134.445163 283.626002 135.499098 
L 283.626002 150.700902 
Q 283.626002 151.754837 284.679937 151.754837 
z
" style="fill:#ffffff;stroke:#000000;stroke-linejoin:miter;"/>
    </g>
    <!-- X[2] &lt;= 23.35 -->
    <g transform="translate(287.369392 138.168518)scale(0.035131 -0.035131)">
     <use xlink:href="#DejaVuSans-88"/>
     <use x="68.505859" xlink:href="#DejaVuSans-91"/>
     <use x="107.519531" xlink:href="#DejaVuSans-50"/>
     <use x="171.142578" xlink:href="#DejaVuSans-93"/>
     <use x="210.15625" xlink:href="#DejaVuSans-32"/>
     <use x="241.943359" xlink:href="#DejaVuSans-60"/>
     <use x="325.732422" xlink:href="#DejaVuSans-61"/>
     <use x="409.521484" xlink:href="#DejaVuSans-32"/>
     <use x="441.308594" xlink:href="#DejaVuSans-50"/>
     <use x="504.931641" xlink:href="#DejaVuSans-51"/>
     <use x="568.554688" xlink:href="#DejaVuSans-46"/>
     <use x="600.341797" xlink:href="#DejaVuSans-51"/>
     <use x="663.964844" xlink:href="#DejaVuSans-53"/>
    </g>
    <!-- gini = 0.5 -->
    <g transform="translate(291.563724 142.10244)scale(0.035131 -0.035131)">
     <use xlink:href="#DejaVuSans-103"/>
     <use x="63.476562" xlink:href="#DejaVuSans-105"/>
     <use x="91.259766" xlink:href="#DejaVuSans-110"/>
     <use x="154.638672" xlink:href="#DejaVuSans-105"/>
     <use x="182.421875" xlink:href="#DejaVuSans-32"/>
     <use x="214.208984" xlink:href="#DejaVuSans-61"/>
     <use x="297.998047" xlink:href="#DejaVuSans-32"/>
     <use x="329.785156" xlink:href="#DejaVuSans-48"/>
     <use x="393.408203" xlink:href="#DejaVuSans-46"/>
     <use x="425.195312" xlink:href="#DejaVuSans-53"/>
    </g>
    <!-- samples = 16.2% -->
    <g transform="translate(284.679937 146.036362)scale(0.035131 -0.035131)">
     <use xlink:href="#DejaVuSans-115"/>
     <use x="52.099609" xlink:href="#DejaVuSans-97"/>
     <use x="113.378906" xlink:href="#DejaVuSans-109"/>
     <use x="210.791016" xlink:href="#DejaVuSans-112"/>
     <use x="274.267578" xlink:href="#DejaVuSans-108"/>
     <use x="302.050781" xlink:href="#DejaVuSans-101"/>
     <use x="363.574219" xlink:href="#DejaVuSans-115"/>
     <use x="415.673828" xlink:href="#DejaVuSans-32"/>
     <use x="447.460938" xlink:href="#DejaVuSans-61"/>
     <use x="531.25" xlink:href="#DejaVuSans-32"/>
     <use x="563.037109" xlink:href="#DejaVuSans-49"/>
     <use x="626.660156" xlink:href="#DejaVuSans-54"/>
     <use x="690.283203" xlink:href="#DejaVuSans-46"/>
     <use x="722.070312" xlink:href="#DejaVuSans-50"/>
     <use x="785.693359" xlink:href="#DejaVuSans-37"/>
    </g>
    <!-- value = [0.5, 0.5] -->
    <g transform="translate(284.689268 149.970284)scale(0.035131 -0.035131)">
     <use xlink:href="#DejaVuSans-118"/>
     <use x="59.179688" xlink:href="#DejaVuSans-97"/>
     <use x="120.458984" xlink:href="#DejaVuSans-108"/>
     <use x="148.242188" xlink:href="#DejaVuSans-117"/>
     <use x="211.621094" xlink:href="#DejaVuSans-101"/>
     <use x="273.144531" xlink:href="#DejaVuSans-32"/>
     <use x="304.931641" xlink:href="#DejaVuSans-61"/>
     <use x="388.720703" xlink:href="#DejaVuSans-32"/>
     <use x="420.507812" xlink:href="#DejaVuSans-91"/>
     <use x="459.521484" xlink:href="#DejaVuSans-48"/>
     <use x="523.144531" xlink:href="#DejaVuSans-46"/>
     <use x="554.931641" xlink:href="#DejaVuSans-53"/>
     <use x="618.554688" xlink:href="#DejaVuSans-44"/>
     <use x="650.341797" xlink:href="#DejaVuSans-32"/>
     <use x="682.128906" xlink:href="#DejaVuSans-48"/>
     <use x="745.751953" xlink:href="#DejaVuSans-46"/>
     <use x="777.539062" xlink:href="#DejaVuSans-53"/>
     <use x="841.162109" xlink:href="#DejaVuSans-93"/>
    </g>
   </g>
   <g id="patch_26">
    <path d="M 107.610857 77.886927 
Q 139.79706 56.9832 172.920902 35.470511 
" style="fill:none;stroke:#000000;stroke-linecap:round;"/>
    <path d="M 109.172066 77.710784 
L 107.610857 77.886927 
L 108.406668 76.532275 
" style="fill:none;stroke:#000000;stroke-linecap:round;"/>
   </g>
   <g id="text_13">
    <g id="patch_27">
     <path d="M 70.968828 97.394837 
L 110.831172 97.394837 
Q 111.885107 97.394837 111.885107 96.340902 
L 111.885107 81.139098 
Q 111.885107 80.085163 110.831172 80.085163 
L 70.968828 80.085163 
Q 69.914893 80.085163 69.914893 81.139098 
L 69.914893 96.340902 
Q 69.914893 97.394837 70.968828 97.394837 
z
" style="fill:#eb9e67;stroke:#000000;stroke-linejoin:miter;"/>
    </g>
    <!-- X[2] &lt;= 26.269 -->
    <g transform="translate(77.001782 83.808518)scale(0.035131 -0.035131)">
     <use xlink:href="#DejaVuSans-88"/>
     <use x="68.505859" xlink:href="#DejaVuSans-91"/>
     <use x="107.519531" xlink:href="#DejaVuSans-50"/>
     <use x="171.142578" xlink:href="#DejaVuSans-93"/>
     <use x="210.15625" xlink:href="#DejaVuSans-32"/>
     <use x="241.943359" xlink:href="#DejaVuSans-60"/>
     <use x="325.732422" xlink:href="#DejaVuSans-61"/>
     <use x="409.521484" xlink:href="#DejaVuSans-32"/>
     <use x="441.308594" xlink:href="#DejaVuSans-50"/>
     <use x="504.931641" xlink:href="#DejaVuSans-54"/>
     <use x="568.554688" xlink:href="#DejaVuSans-46"/>
     <use x="600.341797" xlink:href="#DejaVuSans-50"/>
     <use x="663.964844" xlink:href="#DejaVuSans-54"/>
     <use x="727.587891" xlink:href="#DejaVuSans-57"/>
    </g>
    <!-- gini = 0.306 -->
    <g transform="translate(80.078503 87.74244)scale(0.035131 -0.035131)">
     <use xlink:href="#DejaVuSans-103"/>
     <use x="63.476562" xlink:href="#DejaVuSans-105"/>
     <use x="91.259766" xlink:href="#DejaVuSans-110"/>
     <use x="154.638672" xlink:href="#DejaVuSans-105"/>
     <use x="182.421875" xlink:href="#DejaVuSans-32"/>
     <use x="214.208984" xlink:href="#DejaVuSans-61"/>
     <use x="297.998047" xlink:href="#DejaVuSans-32"/>
     <use x="329.785156" xlink:href="#DejaVuSans-48"/>
     <use x="393.408203" xlink:href="#DejaVuSans-46"/>
     <use x="425.195312" xlink:href="#DejaVuSans-51"/>
     <use x="488.818359" xlink:href="#DejaVuSans-48"/>
     <use x="552.441406" xlink:href="#DejaVuSans-54"/>
    </g>
    <!-- samples = 64.8% -->
    <g transform="translate(75.429937 91.676362)scale(0.035131 -0.035131)">
     <use xlink:href="#DejaVuSans-115"/>
     <use x="52.099609" xlink:href="#DejaVuSans-97"/>
     <use x="113.378906" xlink:href="#DejaVuSans-109"/>
     <use x="210.791016" xlink:href="#DejaVuSans-112"/>
     <use x="274.267578" xlink:href="#DejaVuSans-108"/>
     <use x="302.050781" xlink:href="#DejaVuSans-101"/>
     <use x="363.574219" xlink:href="#DejaVuSans-115"/>
     <use x="415.673828" xlink:href="#DejaVuSans-32"/>
     <use x="447.460938" xlink:href="#DejaVuSans-61"/>
     <use x="531.25" xlink:href="#DejaVuSans-32"/>
     <use x="563.037109" xlink:href="#DejaVuSans-54"/>
     <use x="626.660156" xlink:href="#DejaVuSans-52"/>
     <use x="690.283203" xlink:href="#DejaVuSans-46"/>
     <use x="722.070312" xlink:href="#DejaVuSans-56"/>
     <use x="785.693359" xlink:href="#DejaVuSans-37"/>
    </g>
    <!-- value = [0.811, 0.189] -->
    <g transform="translate(70.968828 95.610284)scale(0.035131 -0.035131)">
     <use xlink:href="#DejaVuSans-118"/>
     <use x="59.179688" xlink:href="#DejaVuSans-97"/>
     <use x="120.458984" xlink:href="#DejaVuSans-108"/>
     <use x="148.242188" xlink:href="#DejaVuSans-117"/>
     <use x="211.621094" xlink:href="#DejaVuSans-101"/>
     <use x="273.144531" xlink:href="#DejaVuSans-32"/>
     <use x="304.931641" xlink:href="#DejaVuSans-61"/>
     <use x="388.720703" xlink:href="#DejaVuSans-32"/>
     <use x="420.507812" xlink:href="#DejaVuSans-91"/>
     <use x="459.521484" xlink:href="#DejaVuSans-48"/>
     <use x="523.144531" xlink:href="#DejaVuSans-46"/>
     <use x="554.931641" xlink:href="#DejaVuSans-56"/>
     <use x="618.554688" xlink:href="#DejaVuSans-49"/>
     <use x="682.177734" xlink:href="#DejaVuSans-49"/>
     <use x="745.800781" xlink:href="#DejaVuSans-44"/>
     <use x="777.587891" xlink:href="#DejaVuSans-32"/>
     <use x="809.375" xlink:href="#DejaVuSans-48"/>
     <use x="872.998047" xlink:href="#DejaVuSans-46"/>
     <use x="904.785156" xlink:href="#DejaVuSans-49"/>
     <use x="968.408203" xlink:href="#DejaVuSans-56"/>
     <use x="1032.03125" xlink:href="#DejaVuSans-57"/>
     <use x="1095.654297" xlink:href="#DejaVuSans-93"/>
    </g>
   </g>
   <g id="patch_28">
    <path d="M 241.589143 77.886927 
Q 209.40294 56.9832 176.279098 35.470511 
" style="fill:none;stroke:#000000;stroke-linecap:round;"/>
    <path d="M 240.793332 76.532275 
L 241.589143 77.886927 
L 240.027934 77.710784 
" style="fill:none;stroke:#000000;stroke-linecap:round;"/>
   </g>
   <g id="text_14">
    <g id="patch_29">
     <path d="M 238.368828 97.394837 
L 278.231172 97.394837 
Q 279.285107 97.394837 279.285107 96.340902 
L 279.285107 81.139098 
Q 279.285107 80.085163 278.231172 80.085163 
L 238.368828 80.085163 
Q 237.314893 80.085163 237.314893 81.139098 
L 237.314893 96.340902 
Q 237.314893 97.394837 238.368828 97.394837 
z
" style="fill:#7ebfee;stroke:#000000;stroke-linejoin:miter;"/>
    </g>
    <!-- X[0] &lt;= 2.5 -->
    <g transform="translate(247.754612 83.808518)scale(0.035131 -0.035131)">
     <use xlink:href="#DejaVuSans-88"/>
     <use x="68.505859" xlink:href="#DejaVuSans-91"/>
     <use x="107.519531" xlink:href="#DejaVuSans-48"/>
     <use x="171.142578" xlink:href="#DejaVuSans-93"/>
     <use x="210.15625" xlink:href="#DejaVuSans-32"/>
     <use x="241.943359" xlink:href="#DejaVuSans-60"/>
     <use x="325.732422" xlink:href="#DejaVuSans-61"/>
     <use x="409.521484" xlink:href="#DejaVuSans-32"/>
     <use x="441.308594" xlink:href="#DejaVuSans-50"/>
     <use x="504.931641" xlink:href="#DejaVuSans-46"/>
     <use x="536.71875" xlink:href="#DejaVuSans-53"/>
    </g>
    <!-- gini = 0.383 -->
    <g transform="translate(247.478503 87.74244)scale(0.035131 -0.035131)">
     <use xlink:href="#DejaVuSans-103"/>
     <use x="63.476562" xlink:href="#DejaVuSans-105"/>
     <use x="91.259766" xlink:href="#DejaVuSans-110"/>
     <use x="154.638672" xlink:href="#DejaVuSans-105"/>
     <use x="182.421875" xlink:href="#DejaVuSans-32"/>
     <use x="214.208984" xlink:href="#DejaVuSans-61"/>
     <use x="297.998047" xlink:href="#DejaVuSans-32"/>
     <use x="329.785156" xlink:href="#DejaVuSans-48"/>
     <use x="393.408203" xlink:href="#DejaVuSans-46"/>
     <use x="425.195312" xlink:href="#DejaVuSans-51"/>
     <use x="488.818359" xlink:href="#DejaVuSans-56"/>
     <use x="552.441406" xlink:href="#DejaVuSans-51"/>
    </g>
    <!-- samples = 35.2% -->
    <g transform="translate(242.829937 91.676362)scale(0.035131 -0.035131)">
     <use xlink:href="#DejaVuSans-115"/>
     <use x="52.099609" xlink:href="#DejaVuSans-97"/>
     <use x="113.378906" xlink:href="#DejaVuSans-109"/>
     <use x="210.791016" xlink:href="#DejaVuSans-112"/>
     <use x="274.267578" xlink:href="#DejaVuSans-108"/>
     <use x="302.050781" xlink:href="#DejaVuSans-101"/>
     <use x="363.574219" xlink:href="#DejaVuSans-115"/>
     <use x="415.673828" xlink:href="#DejaVuSans-32"/>
     <use x="447.460938" xlink:href="#DejaVuSans-61"/>
     <use x="531.25" xlink:href="#DejaVuSans-32"/>
     <use x="563.037109" xlink:href="#DejaVuSans-51"/>
     <use x="626.660156" xlink:href="#DejaVuSans-53"/>
     <use x="690.283203" xlink:href="#DejaVuSans-46"/>
     <use x="722.070312" xlink:href="#DejaVuSans-50"/>
     <use x="785.693359" xlink:href="#DejaVuSans-37"/>
    </g>
    <!-- value = [0.258, 0.742] -->
    <g transform="translate(238.368828 95.610284)scale(0.035131 -0.035131)">
     <use xlink:href="#DejaVuSans-118"/>
     <use x="59.179688" xlink:href="#DejaVuSans-97"/>
     <use x="120.458984" xlink:href="#DejaVuSans-108"/>
     <use x="148.242188" xlink:href="#DejaVuSans-117"/>
     <use x="211.621094" xlink:href="#DejaVuSans-101"/>
     <use x="273.144531" xlink:href="#DejaVuSans-32"/>
     <use x="304.931641" xlink:href="#DejaVuSans-61"/>
     <use x="388.720703" xlink:href="#DejaVuSans-32"/>
     <use x="420.507812" xlink:href="#DejaVuSans-91"/>
     <use x="459.521484" xlink:href="#DejaVuSans-48"/>
     <use x="523.144531" xlink:href="#DejaVuSans-46"/>
     <use x="554.931641" xlink:href="#DejaVuSans-50"/>
     <use x="618.554688" xlink:href="#DejaVuSans-53"/>
     <use x="682.177734" xlink:href="#DejaVuSans-56"/>
     <use x="745.800781" xlink:href="#DejaVuSans-44"/>
     <use x="777.587891" xlink:href="#DejaVuSans-32"/>
     <use x="809.375" xlink:href="#DejaVuSans-48"/>
     <use x="872.998047" xlink:href="#DejaVuSans-46"/>
     <use x="904.785156" xlink:href="#DejaVuSans-55"/>
     <use x="968.408203" xlink:href="#DejaVuSans-52"/>
     <use x="1032.03125" xlink:href="#DejaVuSans-50"/>
     <use x="1095.654297" xlink:href="#DejaVuSans-93"/>
    </g>
   </g>
   <g id="patch_30">
    <path d="M 174.6 34.38 
Q 174.6 34.38 174.6 34.38 
" style="fill:none;stroke:#000000;stroke-linecap:round;"/>
   </g>
   <g id="text_15">
    <g id="patch_31">
     <path d="M 154.668828 43.034837 
L 194.531172 43.034837 
Q 195.585107 43.034837 195.585107 41.980902 
L 195.585107 26.779098 
Q 195.585107 25.725163 194.531172 25.725163 
L 154.668828 25.725163 
Q 153.614893 25.725163 153.614893 26.779098 
L 153.614893 41.980902 
Q 153.614893 43.034837 154.668828 43.034837 
z
" style="fill:#f5cfb4;stroke:#000000;stroke-linejoin:miter;"/>
    </g>
    <!-- X[1] &lt;= 0.5 -->
    <g transform="translate(164.054612 29.448518)scale(0.035131 -0.035131)">
     <use xlink:href="#DejaVuSans-88"/>
     <use x="68.505859" xlink:href="#DejaVuSans-91"/>
     <use x="107.519531" xlink:href="#DejaVuSans-49"/>
     <use x="171.142578" xlink:href="#DejaVuSans-93"/>
     <use x="210.15625" xlink:href="#DejaVuSans-32"/>
     <use x="241.943359" xlink:href="#DejaVuSans-60"/>
     <use x="325.732422" xlink:href="#DejaVuSans-61"/>
     <use x="409.521484" xlink:href="#DejaVuSans-32"/>
     <use x="441.308594" xlink:href="#DejaVuSans-48"/>
     <use x="504.931641" xlink:href="#DejaVuSans-46"/>
     <use x="536.71875" xlink:href="#DejaVuSans-53"/>
    </g>
    <!-- gini = 0.473 -->
    <g transform="translate(163.778503 33.38244)scale(0.035131 -0.035131)">
     <use xlink:href="#DejaVuSans-103"/>
     <use x="63.476562" xlink:href="#DejaVuSans-105"/>
     <use x="91.259766" xlink:href="#DejaVuSans-110"/>
     <use x="154.638672" xlink:href="#DejaVuSans-105"/>
     <use x="182.421875" xlink:href="#DejaVuSans-32"/>
     <use x="214.208984" xlink:href="#DejaVuSans-61"/>
     <use x="297.998047" xlink:href="#DejaVuSans-32"/>
     <use x="329.785156" xlink:href="#DejaVuSans-48"/>
     <use x="393.408203" xlink:href="#DejaVuSans-46"/>
     <use x="425.195312" xlink:href="#DejaVuSans-52"/>
     <use x="488.818359" xlink:href="#DejaVuSans-55"/>
     <use x="552.441406" xlink:href="#DejaVuSans-51"/>
    </g>
    <!-- samples = 100.0% -->
    <g transform="translate(158.012327 37.316362)scale(0.035131 -0.035131)">
     <use xlink:href="#DejaVuSans-115"/>
     <use x="52.099609" xlink:href="#DejaVuSans-97"/>
     <use x="113.378906" xlink:href="#DejaVuSans-109"/>
     <use x="210.791016" xlink:href="#DejaVuSans-112"/>
     <use x="274.267578" xlink:href="#DejaVuSans-108"/>
     <use x="302.050781" xlink:href="#DejaVuSans-101"/>
     <use x="363.574219" xlink:href="#DejaVuSans-115"/>
     <use x="415.673828" xlink:href="#DejaVuSans-32"/>
     <use x="447.460938" xlink:href="#DejaVuSans-61"/>
     <use x="531.25" xlink:href="#DejaVuSans-32"/>
     <use x="563.037109" xlink:href="#DejaVuSans-49"/>
     <use x="626.660156" xlink:href="#DejaVuSans-48"/>
     <use x="690.283203" xlink:href="#DejaVuSans-48"/>
     <use x="753.90625" xlink:href="#DejaVuSans-46"/>
     <use x="785.693359" xlink:href="#DejaVuSans-48"/>
     <use x="849.316406" xlink:href="#DejaVuSans-37"/>
    </g>
    <!-- value = [0.616, 0.384] -->
    <g transform="translate(154.668828 41.250284)scale(0.035131 -0.035131)">
     <use xlink:href="#DejaVuSans-118"/>
     <use x="59.179688" xlink:href="#DejaVuSans-97"/>
     <use x="120.458984" xlink:href="#DejaVuSans-108"/>
     <use x="148.242188" xlink:href="#DejaVuSans-117"/>
     <use x="211.621094" xlink:href="#DejaVuSans-101"/>
     <use x="273.144531" xlink:href="#DejaVuSans-32"/>
     <use x="304.931641" xlink:href="#DejaVuSans-61"/>
     <use x="388.720703" xlink:href="#DejaVuSans-32"/>
     <use x="420.507812" xlink:href="#DejaVuSans-91"/>
     <use x="459.521484" xlink:href="#DejaVuSans-48"/>
     <use x="523.144531" xlink:href="#DejaVuSans-46"/>
     <use x="554.931641" xlink:href="#DejaVuSans-54"/>
     <use x="618.554688" xlink:href="#DejaVuSans-49"/>
     <use x="682.177734" xlink:href="#DejaVuSans-54"/>
     <use x="745.800781" xlink:href="#DejaVuSans-44"/>
     <use x="777.587891" xlink:href="#DejaVuSans-32"/>
     <use x="809.375" xlink:href="#DejaVuSans-48"/>
     <use x="872.998047" xlink:href="#DejaVuSans-46"/>
     <use x="904.785156" xlink:href="#DejaVuSans-51"/>
     <use x="968.408203" xlink:href="#DejaVuSans-56"/>
     <use x="1032.03125" xlink:href="#DejaVuSans-52"/>
     <use x="1095.654297" xlink:href="#DejaVuSans-93"/>
    </g>
   </g>
  </g>
 </g>
</svg>
