<?xml version="1.0" encoding="utf-8" standalone="no"?>
<!DOCTYPE svg PUBLIC "-//W3C//DTD SVG 1.1//EN"
  "http://www.w3.org/Graphics/SVG/1.1/DTD/svg11.dtd">
<!-- Created with matplotlib (https://matplotlib.org/) -->
<svg height="305.915937pt" version="1.1" viewBox="0 0 377.2 305.915937" width="377.2pt" xmlns="http://www.w3.org/2000/svg" xmlns:xlink="http://www.w3.org/1999/xlink">
 <metadata>
  <rdf:RDF xmlns:cc="http://creativecommons.org/ns#" xmlns:dc="http://purl.org/dc/elements/1.1/" xmlns:rdf="http://www.w3.org/1999/02/22-rdf-syntax-ns#">
   <cc:Work>
    <dc:type rdf:resource="http://purl.org/dc/dcmitype/StillImage"/>
    <dc:date>2021-03-16T08:19:28.776913</dc:date>
    <dc:format>image/svg+xml</dc:format>
    <dc:creator>
     <cc:Agent>
      <dc:title>Matplotlib v3.3.4, https://matplotlib.org/</dc:title>
     </cc:Agent>
    </dc:creator>
   </cc:Work>
  </rdf:RDF>
 </metadata>
 <defs>
  <style type="text/css">*{stroke-linecap:butt;stroke-linejoin:round;}</style>
 </defs>
 <g id="figure_1">
  <g id="patch_1">
   <path d="M 0 305.915937 
L 377.2 305.915937 
L 377.2 0 
L 0 0 
z
" style="fill:none;"/>
  </g>
  <g id="axes_1">
   <g id="patch_2">
    <path d="M 35.2 279 
L 370 279 
L 370 7.2 
L 35.2 7.2 
z
" style="fill:#ffffff;"/>
   </g>
   <g id="PathCollection_1">
    <defs>
     <path d="M 0 3 
C 0.795609 3 1.55874 2.683901 2.12132 2.12132 
C 2.683901 1.55874 3 0.795609 3 0 
C 3 -0.795609 2.683901 -1.55874 2.12132 -2.12132 
C 1.55874 -2.683901 0.795609 -3 0 -3 
C -0.795609 -3 -1.55874 -2.683901 -2.12132 -2.12132 
C -2.683901 -1.55874 -3 -0.795609 -3 0 
C -3 0.795609 -2.683901 1.55874 -2.12132 2.12132 
C -1.55874 2.683901 -0.795609 3 0 3 
z
" id="m44c7165ace" style="stroke:#ff0000;stroke-opacity:0.5;"/>
    </defs>
    <g clip-path="url(#p5a0eb3432b)">
     <use style="fill:#ff0000;fill-opacity:0.5;stroke:#ff0000;stroke-opacity:0.5;" x="354.781818" xlink:href="#m44c7165ace" y="19.554545"/>
     <use style="fill:#ff0000;fill-opacity:0.5;stroke:#ff0000;stroke-opacity:0.5;" x="333.911169" xlink:href="#m44c7165ace" y="147.715825"/>
     <use style="fill:#ff0000;fill-opacity:0.5;stroke:#ff0000;stroke-opacity:0.5;" x="321.292874" xlink:href="#m44c7165ace" y="197.497303"/>
     <use style="fill:#ff0000;fill-opacity:0.5;stroke:#ff0000;stroke-opacity:0.5;" x="312.526852" xlink:href="#m44c7165ace" y="222.316429"/>
     <use style="fill:#ff0000;fill-opacity:0.5;stroke:#ff0000;stroke-opacity:0.5;" x="305.982903" xlink:href="#m44c7165ace" y="236.437121"/>
     <use style="fill:#ff0000;fill-opacity:0.5;stroke:#ff0000;stroke-opacity:0.5;" x="300.872807" xlink:href="#m44c7165ace" y="245.173216"/>
     <use style="fill:#ff0000;fill-opacity:0.5;stroke:#ff0000;stroke-opacity:0.5;" x="296.756392" xlink:href="#m44c7165ace" y="250.903124"/>
     <use style="fill:#ff0000;fill-opacity:0.5;stroke:#ff0000;stroke-opacity:0.5;" x="293.363879" xlink:href="#m44c7165ace" y="254.827182"/>
     <use style="fill:#ff0000;fill-opacity:0.5;stroke:#ff0000;stroke-opacity:0.5;" x="290.51866" xlink:href="#m44c7165ace" y="257.605411"/>
     <use style="fill:#ff0000;fill-opacity:0.5;stroke:#ff0000;stroke-opacity:0.5;" x="288.099257" xlink:href="#m44c7165ace" y="259.624996"/>
     <use style="fill:#ff0000;fill-opacity:0.5;stroke:#ff0000;stroke-opacity:0.5;" x="286.018828" xlink:href="#m44c7165ace" y="261.124892"/>
     <use style="fill:#ff0000;fill-opacity:0.5;stroke:#ff0000;stroke-opacity:0.5;" x="284.213326" xlink:href="#m44c7165ace" y="262.258735"/>
     <use style="fill:#ff0000;fill-opacity:0.5;stroke:#ff0000;stroke-opacity:0.5;" x="282.634294" xlink:href="#m44c7165ace" y="263.128694"/>
     <use style="fill:#ff0000;fill-opacity:0.5;stroke:#ff0000;stroke-opacity:0.5;" x="281.244276" xlink:href="#m44c7165ace" y="263.804661"/>
     <use style="fill:#ff0000;fill-opacity:0.5;stroke:#ff0000;stroke-opacity:0.5;" x="280.013782" xlink:href="#m44c7165ace" y="264.33561"/>
     <use style="fill:#ff0000;fill-opacity:0.5;stroke:#ff0000;stroke-opacity:0.5;" x="278.919227" xlink:href="#m44c7165ace" y="264.756579"/>
     <use style="fill:#ff0000;fill-opacity:0.5;stroke:#ff0000;stroke-opacity:0.5;" x="277.941488" xlink:href="#m44c7165ace" y="265.093084"/>
     <use style="fill:#ff0000;fill-opacity:0.5;stroke:#ff0000;stroke-opacity:0.5;" x="277.064873" xlink:href="#m44c7165ace" y="265.364007"/>
     <use style="fill:#ff0000;fill-opacity:0.5;stroke:#ff0000;stroke-opacity:0.5;" x="276.276365" xlink:href="#m44c7165ace" y="265.583512"/>
     <use style="fill:#ff0000;fill-opacity:0.5;stroke:#ff0000;stroke-opacity:0.5;" x="275.565065" xlink:href="#m44c7165ace" y="265.762356"/>
     <use style="fill:#ff0000;fill-opacity:0.5;stroke:#ff0000;stroke-opacity:0.5;" x="274.921768" xlink:href="#m44c7165ace" y="265.9088"/>
     <use style="fill:#ff0000;fill-opacity:0.5;stroke:#ff0000;stroke-opacity:0.5;" x="274.338643" xlink:href="#m44c7165ace" y="266.029249"/>
     <use style="fill:#ff0000;fill-opacity:0.5;stroke:#ff0000;stroke-opacity:0.5;" x="273.808976" xlink:href="#m44c7165ace" y="266.128714"/>
     <use style="fill:#ff0000;fill-opacity:0.5;stroke:#ff0000;stroke-opacity:0.5;" x="273.326981" xlink:href="#m44c7165ace" y="266.211148"/>
     <use style="fill:#ff0000;fill-opacity:0.5;stroke:#ff0000;stroke-opacity:0.5;" x="272.887638" xlink:href="#m44c7165ace" y="266.279687"/>
     <use style="fill:#ff0000;fill-opacity:0.5;stroke:#ff0000;stroke-opacity:0.5;" x="272.486571" xlink:href="#m44c7165ace" y="266.336842"/>
     <use style="fill:#ff0000;fill-opacity:0.5;stroke:#ff0000;stroke-opacity:0.5;" x="272.119949" xlink:href="#m44c7165ace" y="266.384629"/>
     <use style="fill:#ff0000;fill-opacity:0.5;stroke:#ff0000;stroke-opacity:0.5;" x="271.784399" xlink:href="#m44c7165ace" y="266.424682"/>
     <use style="fill:#ff0000;fill-opacity:0.5;stroke:#ff0000;stroke-opacity:0.5;" x="271.476944" xlink:href="#m44c7165ace" y="266.458325"/>
     <use style="fill:#ff0000;fill-opacity:0.5;stroke:#ff0000;stroke-opacity:0.5;" x="271.194944" xlink:href="#m44c7165ace" y="266.48664"/>
     <use style="fill:#ff0000;fill-opacity:0.5;stroke:#ff0000;stroke-opacity:0.5;" x="270.93605" xlink:href="#m44c7165ace" y="266.510516"/>
     <use style="fill:#ff0000;fill-opacity:0.5;stroke:#ff0000;stroke-opacity:0.5;" x="270.698166" xlink:href="#m44c7165ace" y="266.530681"/>
     <use style="fill:#ff0000;fill-opacity:0.5;stroke:#ff0000;stroke-opacity:0.5;" x="270.479418" xlink:href="#m44c7165ace" y="266.547738"/>
     <use style="fill:#ff0000;fill-opacity:0.5;stroke:#ff0000;stroke-opacity:0.5;" x="270.278123" xlink:href="#m44c7165ace" y="266.562187"/>
     <use style="fill:#ff0000;fill-opacity:0.5;stroke:#ff0000;stroke-opacity:0.5;" x="270.092768" xlink:href="#m44c7165ace" y="266.574441"/>
     <use style="fill:#ff0000;fill-opacity:0.5;stroke:#ff0000;stroke-opacity:0.5;" x="269.921987" xlink:href="#m44c7165ace" y="266.584847"/>
     <use style="fill:#ff0000;fill-opacity:0.5;stroke:#ff0000;stroke-opacity:0.5;" x="269.764549" xlink:href="#m44c7165ace" y="266.593693"/>
     <use style="fill:#ff0000;fill-opacity:0.5;stroke:#ff0000;stroke-opacity:0.5;" x="269.619337" xlink:href="#m44c7165ace" y="266.60122"/>
     <use style="fill:#ff0000;fill-opacity:0.5;stroke:#ff0000;stroke-opacity:0.5;" x="269.48534" xlink:href="#m44c7165ace" y="266.60763"/>
     <use style="fill:#ff0000;fill-opacity:0.5;stroke:#ff0000;stroke-opacity:0.5;" x="269.361639" xlink:href="#m44c7165ace" y="266.613094"/>
     <use style="fill:#ff0000;fill-opacity:0.5;stroke:#ff0000;stroke-opacity:0.5;" x="269.247397" xlink:href="#m44c7165ace" y="266.617755"/>
     <use style="fill:#ff0000;fill-opacity:0.5;stroke:#ff0000;stroke-opacity:0.5;" x="269.141854" xlink:href="#m44c7165ace" y="266.621735"/>
     <use style="fill:#ff0000;fill-opacity:0.5;stroke:#ff0000;stroke-opacity:0.5;" x="269.044314" xlink:href="#m44c7165ace" y="266.625134"/>
     <use style="fill:#ff0000;fill-opacity:0.5;stroke:#ff0000;stroke-opacity:0.5;" x="268.954142" xlink:href="#m44c7165ace" y="266.628039"/>
     <use style="fill:#ff0000;fill-opacity:0.5;stroke:#ff0000;stroke-opacity:0.5;" x="268.870758" xlink:href="#m44c7165ace" y="266.630524"/>
     <use style="fill:#ff0000;fill-opacity:0.5;stroke:#ff0000;stroke-opacity:0.5;" x="268.793631" xlink:href="#m44c7165ace" y="266.63265"/>
     <use style="fill:#ff0000;fill-opacity:0.5;stroke:#ff0000;stroke-opacity:0.5;" x="268.722274" xlink:href="#m44c7165ace" y="266.63447"/>
     <use style="fill:#ff0000;fill-opacity:0.5;stroke:#ff0000;stroke-opacity:0.5;" x="268.65624" xlink:href="#m44c7165ace" y="266.636029"/>
     <use style="fill:#ff0000;fill-opacity:0.5;stroke:#ff0000;stroke-opacity:0.5;" x="268.59512" xlink:href="#m44c7165ace" y="266.637364"/>
     <use style="fill:#ff0000;fill-opacity:0.5;stroke:#ff0000;stroke-opacity:0.5;" x="268.538537" xlink:href="#m44c7165ace" y="266.638509"/>
     <use style="fill:#ff0000;fill-opacity:0.5;stroke:#ff0000;stroke-opacity:0.5;" x="268.486145" xlink:href="#m44c7165ace" y="266.63949"/>
     <use style="fill:#ff0000;fill-opacity:0.5;stroke:#ff0000;stroke-opacity:0.5;" x="268.437626" xlink:href="#m44c7165ace" y="266.640332"/>
     <use style="fill:#ff0000;fill-opacity:0.5;stroke:#ff0000;stroke-opacity:0.5;" x="268.392687" xlink:href="#m44c7165ace" y="266.641054"/>
     <use style="fill:#ff0000;fill-opacity:0.5;stroke:#ff0000;stroke-opacity:0.5;" x="268.351057" xlink:href="#m44c7165ace" y="266.641674"/>
     <use style="fill:#ff0000;fill-opacity:0.5;stroke:#ff0000;stroke-opacity:0.5;" x="268.312488" xlink:href="#m44c7165ace" y="266.642206"/>
     <use style="fill:#ff0000;fill-opacity:0.5;stroke:#ff0000;stroke-opacity:0.5;" x="268.27675" xlink:href="#m44c7165ace" y="266.642663"/>
     <use style="fill:#ff0000;fill-opacity:0.5;stroke:#ff0000;stroke-opacity:0.5;" x="268.243633" xlink:href="#m44c7165ace" y="266.643055"/>
     <use style="fill:#ff0000;fill-opacity:0.5;stroke:#ff0000;stroke-opacity:0.5;" x="268.21294" xlink:href="#m44c7165ace" y="266.643392"/>
     <use style="fill:#ff0000;fill-opacity:0.5;stroke:#ff0000;stroke-opacity:0.5;" x="268.184492" xlink:href="#m44c7165ace" y="266.643682"/>
     <use style="fill:#ff0000;fill-opacity:0.5;stroke:#ff0000;stroke-opacity:0.5;" x="268.158122" xlink:href="#m44c7165ace" y="266.643931"/>
     <use style="fill:#ff0000;fill-opacity:0.5;stroke:#ff0000;stroke-opacity:0.5;" x="268.133676" xlink:href="#m44c7165ace" y="266.644144"/>
     <use style="fill:#ff0000;fill-opacity:0.5;stroke:#ff0000;stroke-opacity:0.5;" x="268.111012" xlink:href="#m44c7165ace" y="266.644328"/>
     <use style="fill:#ff0000;fill-opacity:0.5;stroke:#ff0000;stroke-opacity:0.5;" x="268.089999" xlink:href="#m44c7165ace" y="266.644486"/>
     <use style="fill:#ff0000;fill-opacity:0.5;stroke:#ff0000;stroke-opacity:0.5;" x="268.070515" xlink:href="#m44c7165ace" y="266.644622"/>
     <use style="fill:#ff0000;fill-opacity:0.5;stroke:#ff0000;stroke-opacity:0.5;" x="268.052448" xlink:href="#m44c7165ace" y="266.644739"/>
     <use style="fill:#ff0000;fill-opacity:0.5;stroke:#ff0000;stroke-opacity:0.5;" x="268.035694" xlink:href="#m44c7165ace" y="266.644839"/>
     <use style="fill:#ff0000;fill-opacity:0.5;stroke:#ff0000;stroke-opacity:0.5;" x="268.020156" xlink:href="#m44c7165ace" y="266.644926"/>
     <use style="fill:#ff0000;fill-opacity:0.5;stroke:#ff0000;stroke-opacity:0.5;" x="268.005746" xlink:href="#m44c7165ace" y="266.645"/>
     <use style="fill:#ff0000;fill-opacity:0.5;stroke:#ff0000;stroke-opacity:0.5;" x="267.992381" xlink:href="#m44c7165ace" y="266.645064"/>
     <use style="fill:#ff0000;fill-opacity:0.5;stroke:#ff0000;stroke-opacity:0.5;" x="267.979985" xlink:href="#m44c7165ace" y="266.645119"/>
     <use style="fill:#ff0000;fill-opacity:0.5;stroke:#ff0000;stroke-opacity:0.5;" x="267.968487" xlink:href="#m44c7165ace" y="266.645166"/>
     <use style="fill:#ff0000;fill-opacity:0.5;stroke:#ff0000;stroke-opacity:0.5;" x="267.957822" xlink:href="#m44c7165ace" y="266.645207"/>
     <use style="fill:#ff0000;fill-opacity:0.5;stroke:#ff0000;stroke-opacity:0.5;" x="267.947929" xlink:href="#m44c7165ace" y="266.645242"/>
     <use style="fill:#ff0000;fill-opacity:0.5;stroke:#ff0000;stroke-opacity:0.5;" x="267.938752" xlink:href="#m44c7165ace" y="266.645272"/>
     <use style="fill:#ff0000;fill-opacity:0.5;stroke:#ff0000;stroke-opacity:0.5;" x="267.930239" xlink:href="#m44c7165ace" y="266.645298"/>
     <use style="fill:#ff0000;fill-opacity:0.5;stroke:#ff0000;stroke-opacity:0.5;" x="267.922341" xlink:href="#m44c7165ace" y="266.64532"/>
     <use style="fill:#ff0000;fill-opacity:0.5;stroke:#ff0000;stroke-opacity:0.5;" x="267.915014" xlink:href="#m44c7165ace" y="266.64534"/>
     <use style="fill:#ff0000;fill-opacity:0.5;stroke:#ff0000;stroke-opacity:0.5;" x="267.908217" xlink:href="#m44c7165ace" y="266.645356"/>
     <use style="fill:#ff0000;fill-opacity:0.5;stroke:#ff0000;stroke-opacity:0.5;" x="267.901911" xlink:href="#m44c7165ace" y="266.64537"/>
     <use style="fill:#ff0000;fill-opacity:0.5;stroke:#ff0000;stroke-opacity:0.5;" x="267.896061" xlink:href="#m44c7165ace" y="266.645383"/>
     <use style="fill:#ff0000;fill-opacity:0.5;stroke:#ff0000;stroke-opacity:0.5;" x="267.890632" xlink:href="#m44c7165ace" y="266.645393"/>
     <use style="fill:#ff0000;fill-opacity:0.5;stroke:#ff0000;stroke-opacity:0.5;" x="267.885596" xlink:href="#m44c7165ace" y="266.645402"/>
     <use style="fill:#ff0000;fill-opacity:0.5;stroke:#ff0000;stroke-opacity:0.5;" x="267.880924" xlink:href="#m44c7165ace" y="266.64541"/>
     <use style="fill:#ff0000;fill-opacity:0.5;stroke:#ff0000;stroke-opacity:0.5;" x="267.876588" xlink:href="#m44c7165ace" y="266.645417"/>
     <use style="fill:#ff0000;fill-opacity:0.5;stroke:#ff0000;stroke-opacity:0.5;" x="267.872566" xlink:href="#m44c7165ace" y="266.645422"/>
     <use style="fill:#ff0000;fill-opacity:0.5;stroke:#ff0000;stroke-opacity:0.5;" x="267.868833" xlink:href="#m44c7165ace" y="266.645427"/>
     <use style="fill:#ff0000;fill-opacity:0.5;stroke:#ff0000;stroke-opacity:0.5;" x="267.86537" xlink:href="#m44c7165ace" y="266.645432"/>
     <use style="fill:#ff0000;fill-opacity:0.5;stroke:#ff0000;stroke-opacity:0.5;" x="267.862157" xlink:href="#m44c7165ace" y="266.645435"/>
     <use style="fill:#ff0000;fill-opacity:0.5;stroke:#ff0000;stroke-opacity:0.5;" x="267.859175" xlink:href="#m44c7165ace" y="266.645439"/>
     <use style="fill:#ff0000;fill-opacity:0.5;stroke:#ff0000;stroke-opacity:0.5;" x="267.856409" xlink:href="#m44c7165ace" y="266.645441"/>
     <use style="fill:#ff0000;fill-opacity:0.5;stroke:#ff0000;stroke-opacity:0.5;" x="267.853842" xlink:href="#m44c7165ace" y="266.645444"/>
     <use style="fill:#ff0000;fill-opacity:0.5;stroke:#ff0000;stroke-opacity:0.5;" x="267.85146" xlink:href="#m44c7165ace" y="266.645446"/>
     <use style="fill:#ff0000;fill-opacity:0.5;stroke:#ff0000;stroke-opacity:0.5;" x="267.849249" xlink:href="#m44c7165ace" y="266.645448"/>
     <use style="fill:#ff0000;fill-opacity:0.5;stroke:#ff0000;stroke-opacity:0.5;" x="267.847198" xlink:href="#m44c7165ace" y="266.645449"/>
     <use style="fill:#ff0000;fill-opacity:0.5;stroke:#ff0000;stroke-opacity:0.5;" x="267.845295" xlink:href="#m44c7165ace" y="266.64545"/>
     <use style="fill:#ff0000;fill-opacity:0.5;stroke:#ff0000;stroke-opacity:0.5;" x="267.843529" xlink:href="#m44c7165ace" y="266.645451"/>
     <use style="fill:#ff0000;fill-opacity:0.5;stroke:#ff0000;stroke-opacity:0.5;" x="267.841891" xlink:href="#m44c7165ace" y="266.645452"/>
     <use style="fill:#ff0000;fill-opacity:0.5;stroke:#ff0000;stroke-opacity:0.5;" x="267.84037" xlink:href="#m44c7165ace" y="266.645453"/>
     <use style="fill:#ff0000;fill-opacity:0.5;stroke:#ff0000;stroke-opacity:0.5;" x="267.838959" xlink:href="#m44c7165ace" y="266.645454"/>
     <use style="fill:#ff0000;fill-opacity:0.5;stroke:#ff0000;stroke-opacity:0.5;" x="267.83765" xlink:href="#m44c7165ace" y="266.645455"/>
    </g>
   </g>
   <g id="matplotlib.axis_1">
    <g id="xtick_1">
     <g id="line2d_1">
      <defs>
       <path d="M 0 0 
L 0 3.5 
" id="mfc82006daf" style="stroke:#000000;stroke-width:0.8;"/>
      </defs>
      <g>
       <use style="stroke:#000000;stroke-width:0.8;" x="93.898701" xlink:href="#mfc82006daf" y="279"/>
      </g>
     </g>
     <g id="text_1">
      <!-- −2 -->
      <g transform="translate(86.451358 295.72125)scale(0.14 -0.14)">
       <defs>
        <path d="M 54.4375 31.25 
L 1.8125 31.25 
L 1.8125 35.25 
L 54.4375 35.25 
z
" id="TimesNewRomanPSMT-8722"/>
        <path d="M 45.84375 12.75 
L 41.21875 0 
L 2.15625 0 
L 2.15625 1.8125 
Q 19.390625 17.53125 26.421875 27.484375 
Q 33.453125 37.453125 33.453125 45.703125 
Q 33.453125 52 29.59375 56.046875 
Q 25.734375 60.109375 20.359375 60.109375 
Q 15.484375 60.109375 11.59375 57.25 
Q 7.71875 54.390625 5.859375 48.875 
L 4.046875 48.875 
Q 5.28125 57.90625 10.328125 62.734375 
Q 15.375 67.578125 22.953125 67.578125 
Q 31 67.578125 36.390625 62.40625 
Q 41.796875 57.234375 41.796875 50.203125 
Q 41.796875 45.171875 39.453125 40.140625 
Q 35.84375 32.234375 27.734375 23.390625 
Q 15.578125 10.109375 12.546875 7.375 
L 29.828125 7.375 
Q 35.109375 7.375 37.234375 7.765625 
Q 39.359375 8.15625 41.0625 9.34375 
Q 42.78125 10.546875 44.046875 12.75 
z
" id="TimesNewRomanPSMT-50"/>
       </defs>
       <use xlink:href="#TimesNewRomanPSMT-8722"/>
       <use x="56.396484" xlink:href="#TimesNewRomanPSMT-50"/>
      </g>
     </g>
    </g>
    <g id="xtick_2">
     <g id="line2d_2">
      <g>
       <use style="stroke:#000000;stroke-width:0.8;" x="180.85974" xlink:href="#mfc82006daf" y="279"/>
      </g>
     </g>
     <g id="text_2">
      <!-- 0 -->
      <g transform="translate(177.35974 295.72125)scale(0.14 -0.14)">
       <defs>
        <path d="M 3.609375 32.71875 
Q 3.609375 44.046875 7.03125 52.21875 
Q 10.453125 60.40625 16.109375 64.40625 
Q 20.515625 67.578125 25.203125 67.578125 
Q 32.8125 67.578125 38.875 59.8125 
Q 46.4375 50.203125 46.4375 33.734375 
Q 46.4375 22.21875 43.109375 14.15625 
Q 39.796875 6.109375 34.640625 2.46875 
Q 29.5 -1.171875 24.703125 -1.171875 
Q 15.234375 -1.171875 8.9375 10.015625 
Q 3.609375 19.4375 3.609375 32.71875 
z
M 13.1875 31.5 
Q 13.1875 17.828125 16.546875 9.1875 
Q 19.34375 1.90625 24.859375 1.90625 
Q 27.484375 1.90625 30.3125 4.265625 
Q 33.15625 6.640625 34.625 12.203125 
Q 36.859375 20.609375 36.859375 35.890625 
Q 36.859375 47.21875 34.515625 54.78125 
Q 32.765625 60.40625 29.984375 62.75 
Q 27.984375 64.359375 25.140625 64.359375 
Q 21.828125 64.359375 19.234375 61.375 
Q 15.71875 57.328125 14.453125 48.625 
Q 13.1875 39.9375 13.1875 31.5 
z
" id="TimesNewRomanPSMT-48"/>
       </defs>
       <use xlink:href="#TimesNewRomanPSMT-48"/>
      </g>
     </g>
    </g>
    <g id="xtick_3">
     <g id="line2d_3">
      <g>
       <use style="stroke:#000000;stroke-width:0.8;" x="267.820779" xlink:href="#mfc82006daf" y="279"/>
      </g>
     </g>
     <g id="text_3">
      <!-- 2 -->
      <g transform="translate(264.320779 295.72125)scale(0.14 -0.14)">
       <use xlink:href="#TimesNewRomanPSMT-50"/>
      </g>
     </g>
    </g>
    <g id="xtick_4">
     <g id="line2d_4">
      <g>
       <use style="stroke:#000000;stroke-width:0.8;" x="354.781818" xlink:href="#mfc82006daf" y="279"/>
      </g>
     </g>
     <g id="text_4">
      <!-- 4 -->
      <g transform="translate(351.281818 295.72125)scale(0.14 -0.14)">
       <defs>
        <path d="M 46.53125 24.421875 
L 46.53125 17.484375 
L 37.640625 17.484375 
L 37.640625 0 
L 29.59375 0 
L 29.59375 17.484375 
L 1.5625 17.484375 
L 1.5625 23.734375 
L 32.28125 67.578125 
L 37.640625 67.578125 
L 37.640625 24.421875 
z
M 29.59375 24.421875 
L 29.59375 57.28125 
L 6.34375 24.421875 
z
" id="TimesNewRomanPSMT-52"/>
       </defs>
       <use xlink:href="#TimesNewRomanPSMT-52"/>
      </g>
     </g>
    </g>
   </g>
   <g id="matplotlib.axis_2">
    <g id="ytick_1">
     <g id="line2d_5">
      <defs>
       <path d="M 0 0 
L -3.5 0 
" id="m2da965e6ea" style="stroke:#000000;stroke-width:0.8;"/>
      </defs>
      <g>
       <use style="stroke:#000000;stroke-width:0.8;" x="35.2" xlink:href="#m2da965e6ea" y="261.029756"/>
      </g>
     </g>
     <g id="text_5">
      <!-- 0 -->
      <g transform="translate(21.2 265.890381)scale(0.14 -0.14)">
       <use xlink:href="#TimesNewRomanPSMT-48"/>
      </g>
     </g>
    </g>
    <g id="ytick_2">
     <g id="line2d_6">
      <g>
       <use style="stroke:#000000;stroke-width:0.8;" x="35.2" xlink:href="#m2da965e6ea" y="225.931615"/>
      </g>
     </g>
     <g id="text_6">
      <!-- 50 -->
      <g transform="translate(14.2 230.79224)scale(0.14 -0.14)">
       <defs>
        <path d="M 43.40625 66.21875 
L 39.59375 57.90625 
L 19.671875 57.90625 
L 15.328125 49.03125 
Q 28.265625 47.125 35.84375 39.40625 
Q 42.328125 32.765625 42.328125 23.78125 
Q 42.328125 18.5625 40.203125 14.109375 
Q 38.09375 9.671875 34.859375 6.546875 
Q 31.640625 3.421875 27.6875 1.515625 
Q 22.078125 -1.171875 16.15625 -1.171875 
Q 10.203125 -1.171875 7.484375 0.84375 
Q 4.78125 2.875 4.78125 5.328125 
Q 4.78125 6.6875 5.90625 7.734375 
Q 7.03125 8.796875 8.734375 8.796875 
Q 10.015625 8.796875 10.96875 8.40625 
Q 11.921875 8.015625 14.203125 6.390625 
Q 17.875 3.859375 21.625 3.859375 
Q 27.34375 3.859375 31.65625 8.171875 
Q 35.984375 12.5 35.984375 18.703125 
Q 35.984375 24.703125 32.125 29.90625 
Q 28.265625 35.109375 21.484375 37.9375 
Q 16.15625 40.140625 6.984375 40.484375 
L 19.671875 66.21875 
z
" id="TimesNewRomanPSMT-53"/>
       </defs>
       <use xlink:href="#TimesNewRomanPSMT-53"/>
       <use x="50" xlink:href="#TimesNewRomanPSMT-48"/>
      </g>
     </g>
    </g>
    <g id="ytick_3">
     <g id="line2d_7">
      <g>
       <use style="stroke:#000000;stroke-width:0.8;" x="35.2" xlink:href="#m2da965e6ea" y="190.833474"/>
      </g>
     </g>
     <g id="text_7">
      <!-- 100 -->
      <g transform="translate(7.2 195.694099)scale(0.14 -0.14)">
       <defs>
        <path d="M 11.71875 59.71875 
L 27.828125 67.578125 
L 29.4375 67.578125 
L 29.4375 11.671875 
Q 29.4375 6.109375 29.90625 4.734375 
Q 30.375 3.375 31.828125 2.640625 
Q 33.296875 1.90625 37.796875 1.8125 
L 37.796875 0 
L 12.890625 0 
L 12.890625 1.8125 
Q 17.578125 1.90625 18.9375 2.609375 
Q 20.3125 3.328125 20.84375 4.515625 
Q 21.390625 5.71875 21.390625 11.671875 
L 21.390625 47.40625 
Q 21.390625 54.640625 20.90625 56.6875 
Q 20.5625 58.25 19.65625 58.984375 
Q 18.75 59.71875 17.484375 59.71875 
Q 15.671875 59.71875 12.453125 58.203125 
z
" id="TimesNewRomanPSMT-49"/>
       </defs>
       <use xlink:href="#TimesNewRomanPSMT-49"/>
       <use x="50" xlink:href="#TimesNewRomanPSMT-48"/>
       <use x="100" xlink:href="#TimesNewRomanPSMT-48"/>
      </g>
     </g>
    </g>
    <g id="ytick_4">
     <g id="line2d_8">
      <g>
       <use style="stroke:#000000;stroke-width:0.8;" x="35.2" xlink:href="#m2da965e6ea" y="155.735333"/>
      </g>
     </g>
     <g id="text_8">
      <!-- 150 -->
      <g transform="translate(7.2 160.595958)scale(0.14 -0.14)">
       <use xlink:href="#TimesNewRomanPSMT-49"/>
       <use x="50" xlink:href="#TimesNewRomanPSMT-53"/>
       <use x="100" xlink:href="#TimesNewRomanPSMT-48"/>
      </g>
     </g>
    </g>
    <g id="ytick_5">
     <g id="line2d_9">
      <g>
       <use style="stroke:#000000;stroke-width:0.8;" x="35.2" xlink:href="#m2da965e6ea" y="120.637192"/>
      </g>
     </g>
     <g id="text_9">
      <!-- 200 -->
      <g transform="translate(7.2 125.497817)scale(0.14 -0.14)">
       <use xlink:href="#TimesNewRomanPSMT-50"/>
       <use x="50" xlink:href="#TimesNewRomanPSMT-48"/>
       <use x="100" xlink:href="#TimesNewRomanPSMT-48"/>
      </g>
     </g>
    </g>
    <g id="ytick_6">
     <g id="line2d_10">
      <g>
       <use style="stroke:#000000;stroke-width:0.8;" x="35.2" xlink:href="#m2da965e6ea" y="85.539051"/>
      </g>
     </g>
     <g id="text_10">
      <!-- 250 -->
      <g transform="translate(7.2 90.399676)scale(0.14 -0.14)">
       <use xlink:href="#TimesNewRomanPSMT-50"/>
       <use x="50" xlink:href="#TimesNewRomanPSMT-53"/>
       <use x="100" xlink:href="#TimesNewRomanPSMT-48"/>
      </g>
     </g>
    </g>
    <g id="ytick_7">
     <g id="line2d_11">
      <g>
       <use style="stroke:#000000;stroke-width:0.8;" x="35.2" xlink:href="#m2da965e6ea" y="50.44091"/>
      </g>
     </g>
     <g id="text_11">
      <!-- 300 -->
      <g transform="translate(7.2 55.301535)scale(0.14 -0.14)">
       <defs>
        <path d="M 5.078125 53.609375 
Q 7.90625 60.296875 12.21875 63.9375 
Q 16.546875 67.578125 23 67.578125 
Q 30.953125 67.578125 35.203125 62.40625 
Q 38.421875 58.546875 38.421875 54.15625 
Q 38.421875 46.921875 29.34375 39.203125 
Q 35.453125 36.8125 38.578125 32.375 
Q 41.703125 27.9375 41.703125 21.921875 
Q 41.703125 13.328125 36.234375 7.03125 
Q 29.109375 -1.171875 15.578125 -1.171875 
Q 8.890625 -1.171875 6.46875 0.484375 
Q 4.046875 2.15625 4.046875 4.046875 
Q 4.046875 5.46875 5.1875 6.546875 
Q 6.34375 7.625 7.953125 7.625 
Q 9.1875 7.625 10.453125 7.234375 
Q 11.28125 6.984375 14.203125 5.4375 
Q 17.140625 3.90625 18.265625 3.609375 
Q 20.0625 3.078125 22.125 3.078125 
Q 27.09375 3.078125 30.78125 6.9375 
Q 34.46875 10.796875 34.46875 16.0625 
Q 34.46875 19.921875 32.765625 23.578125 
Q 31.5 26.3125 29.984375 27.734375 
Q 27.875 29.6875 24.21875 31.265625 
Q 20.5625 32.859375 16.75 32.859375 
L 15.1875 32.859375 
L 15.1875 34.328125 
Q 19.046875 34.8125 22.921875 37.109375 
Q 26.8125 39.40625 28.5625 42.625 
Q 30.328125 45.84375 30.328125 49.703125 
Q 30.328125 54.734375 27.171875 57.828125 
Q 24.03125 60.9375 19.34375 60.9375 
Q 11.765625 60.9375 6.6875 52.828125 
z
" id="TimesNewRomanPSMT-51"/>
       </defs>
       <use xlink:href="#TimesNewRomanPSMT-51"/>
       <use x="50" xlink:href="#TimesNewRomanPSMT-48"/>
       <use x="100" xlink:href="#TimesNewRomanPSMT-48"/>
      </g>
     </g>
    </g>
    <g id="ytick_8">
     <g id="line2d_12">
      <g>
       <use style="stroke:#000000;stroke-width:0.8;" x="35.2" xlink:href="#m2da965e6ea" y="15.342769"/>
      </g>
     </g>
     <g id="text_12">
      <!-- 350 -->
      <g transform="translate(7.2 20.203394)scale(0.14 -0.14)">
       <use xlink:href="#TimesNewRomanPSMT-51"/>
       <use x="50" xlink:href="#TimesNewRomanPSMT-53"/>
       <use x="100" xlink:href="#TimesNewRomanPSMT-48"/>
      </g>
     </g>
    </g>
   </g>
   <g id="line2d_13">
    <path clip-path="url(#p5a0eb3432b)" d="M 50.418182 73.605683 
L 53.492562 90.830941 
L 56.566942 106.8095 
L 59.641322 121.599018 
L 62.715702 135.255892 
L 65.790083 147.835254 
L 68.864463 159.390974 
L 71.938843 169.975659 
L 75.013223 179.640652 
L 78.087603 188.436032 
L 81.161983 196.410616 
L 84.236364 203.611957 
L 87.310744 210.086346 
L 90.385124 215.878809 
L 93.459504 221.03311 
L 96.533884 225.591749 
L 99.608264 229.595962 
L 102.682645 233.085723 
L 105.757025 236.099744 
L 108.831405 238.67547 
L 111.905785 240.849085 
L 114.980165 242.655511 
L 118.054545 244.128404 
L 121.128926 245.300159 
L 124.203306 246.201905 
L 127.277686 246.863511 
L 130.352066 247.313581 
L 133.426446 247.579456 
L 136.500826 247.687212 
L 139.575207 247.661666 
L 142.649587 247.526366 
L 145.723967 247.303603 
L 148.798347 247.014399 
L 151.872727 246.678516 
L 154.947107 246.314452 
L 158.021488 245.939442 
L 161.095868 245.569457 
L 164.170248 245.219206 
L 167.244628 244.902133 
L 170.319008 244.630419 
L 173.393388 244.414983 
L 176.467769 244.265481 
L 179.542149 244.190303 
L 182.616529 244.196579 
L 185.690909 244.290173 
L 188.765289 244.475688 
L 191.839669 244.756462 
L 194.91405 245.13457 
L 197.98843 245.610825 
L 201.06281 246.184775 
L 204.13719 246.854707 
L 207.21157 247.617641 
L 210.28595 248.469338 
L 213.360331 249.404293 
L 216.434711 250.415738 
L 219.509091 251.495643 
L 222.583471 252.634714 
L 225.657851 253.822393 
L 228.732231 255.046859 
L 231.806612 256.295029 
L 234.880992 257.552555 
L 237.955372 258.803827 
L 241.029752 260.031971 
L 244.104132 261.218851 
L 247.178512 262.345065 
L 250.252893 263.389951 
L 253.327273 264.331581 
L 256.401653 265.146765 
L 259.476033 265.811051 
L 262.550413 266.29872 
L 265.624793 266.582794 
L 268.699174 266.635029 
L 271.773554 266.425918 
L 274.847934 265.924692 
L 277.922314 265.099318 
L 280.996694 263.9165 
L 284.071074 262.341677 
L 287.145455 260.339027 
L 290.219835 257.871464 
L 293.294215 254.900638 
L 296.368595 251.386937 
L 299.442975 247.289484 
L 302.517355 242.566141 
L 305.591736 237.173505 
L 308.666116 231.06691 
L 311.740496 224.200427 
L 314.814876 216.526864 
L 317.889256 207.997764 
L 320.963636 198.56341 
L 324.038017 188.172819 
L 327.112397 176.773745 
L 330.186777 164.31268 
L 333.261157 150.734851 
L 336.335537 135.984224 
L 339.409917 120.0035 
L 342.484298 102.734118 
L 345.558678 84.116251 
L 348.633058 64.088811 
L 351.707438 42.589448 
L 354.781818 19.554545 
" style="fill:none;stroke:#1f77b4;stroke-linecap:square;stroke-width:1.5;"/>
   </g>
   <g id="patch_3">
    <path d="M 35.2 279 
L 35.2 7.2 
" style="fill:none;stroke:#000000;stroke-linecap:square;stroke-linejoin:miter;stroke-width:0.8;"/>
   </g>
   <g id="patch_4">
    <path d="M 370 279 
L 370 7.2 
" style="fill:none;stroke:#000000;stroke-linecap:square;stroke-linejoin:miter;stroke-width:0.8;"/>
   </g>
   <g id="patch_5">
    <path d="M 35.2 279 
L 370 279 
" style="fill:none;stroke:#000000;stroke-linecap:square;stroke-linejoin:miter;stroke-width:0.8;"/>
   </g>
   <g id="patch_6">
    <path d="M 35.2 7.2 
L 370 7.2 
" style="fill:none;stroke:#000000;stroke-linecap:square;stroke-linejoin:miter;stroke-width:0.8;"/>
   </g>
  </g>
 </g>
 <defs>
  <clipPath id="p5a0eb3432b">
   <rect height="271.8" width="334.8" x="35.2" y="7.2"/>
  </clipPath>
 </defs>
</svg>
