<?xml version="1.0" encoding="utf-8" standalone="no"?>
<!DOCTYPE svg PUBLIC "-//W3C//DTD SVG 1.1//EN"
  "http://www.w3.org/Graphics/SVG/1.1/DTD/svg11.dtd">
<!-- Created with matplotlib (https://matplotlib.org/) -->
<svg height="590.4pt" version="1.1" viewBox="0 0 601.803194 590.4" width="601.803194pt" xmlns="http://www.w3.org/2000/svg" xmlns:xlink="http://www.w3.org/1999/xlink">
 <metadata>
  <rdf:RDF xmlns:cc="http://creativecommons.org/ns#" xmlns:dc="http://purl.org/dc/elements/1.1/" xmlns:rdf="http://www.w3.org/1999/02/22-rdf-syntax-ns#">
   <cc:Work>
    <dc:type rdf:resource="http://purl.org/dc/dcmitype/StillImage"/>
    <dc:date>2021-04-11T17:38:38.990931</dc:date>
    <dc:format>image/svg+xml</dc:format>
    <dc:creator>
     <cc:Agent>
      <dc:title>Matplotlib v3.3.4, https://matplotlib.org/</dc:title>
     </cc:Agent>
    </dc:creator>
   </cc:Work>
  </rdf:RDF>
 </metadata>
 <defs>
  <style type="text/css">*{stroke-linecap:butt;stroke-linejoin:round;}</style>
 </defs>
 <g id="figure_1">
  <g id="patch_1">
   <path d="M 0 590.4 
L 601.803194 590.4 
L 601.803194 0 
L 0 0 
z
" style="fill:none;"/>
  </g>
  <g id="patch_2">
   <path d="M 7.2 583.2 
L 583.2 583.2 
L 583.2 7.2 
L 7.2 7.2 
z
" style="fill:#ffffff;"/>
  </g>
  <g id="pane3d_1">
   <g id="patch_3">
    <path d="M 50.691972 441.176859 
L 240.905984 281.735703 
L 238.261827 51.793054 
L 38.945094 197.245327 
" style="fill:#f2f2f2;opacity:0.5;stroke:#f2f2f2;stroke-linejoin:miter;"/>
   </g>
  </g>
  <g id="pane3d_2">
   <g id="patch_4">
    <path d="M 240.905984 281.735703 
L 546.131603 370.452741 
L 557.024029 132.58998 
L 238.261827 51.793054 
" style="fill:#e6e6e6;opacity:0.5;stroke:#e6e6e6;stroke-linejoin:miter;"/>
   </g>
  </g>
  <g id="pane3d_3">
   <g id="patch_5">
    <path d="M 50.691972 441.176859 
L 374.246037 546.849616 
L 546.131603 370.452741 
L 240.905984 281.735703 
" style="fill:#ececec;opacity:0.5;stroke:#ececec;stroke-linejoin:miter;"/>
   </g>
  </g>
  <g id="axis3d_1">
   <g id="line2d_1">
    <path d="M 50.691972 441.176859 
L 374.246037 546.849616 
" style="fill:none;stroke:#000000;stroke-linecap:square;stroke-width:0.8;"/>
   </g>
   <g id="text_1">
    <!-- x -->
    <g transform="translate(189.025709 530.494825)scale(0.1 -0.1)">
     <defs>
      <path d="M 54.890625 54.6875 
L 35.109375 28.078125 
L 55.90625 0 
L 45.3125 0 
L 29.390625 21.484375 
L 13.484375 0 
L 2.875 0 
L 24.125 28.609375 
L 4.6875 54.6875 
L 15.28125 54.6875 
L 29.78125 35.203125 
L 44.28125 54.6875 
z
" id="DejaVuSans-120"/>
     </defs>
     <use xlink:href="#DejaVuSans-120"/>
    </g>
   </g>
   <g id="Line3DCollection_1">
    <path d="M 70.288104 447.576956 
L 259.468871 287.131202 
L 257.609567 56.697142 
" style="fill:none;stroke:#b0b0b0;stroke-width:0.8;"/>
    <path d="M 104.182226 458.646776 
L 291.55239 296.456614 
L 291.061307 65.176183 
" style="fill:none;stroke:#b0b0b0;stroke-width:0.8;"/>
    <path d="M 138.461827 469.842494 
L 323.97058 305.879302 
L 324.877061 73.747491 
" style="fill:none;stroke:#b0b0b0;stroke-width:0.8;"/>
    <path d="M 173.13352 481.166269 
L 356.728704 315.400795 
L 359.062805 82.41258 
" style="fill:none;stroke:#b0b0b0;stroke-width:0.8;"/>
    <path d="M 208.204072 492.620311 
L 389.832139 325.022657 
L 393.624643 91.172999 
" style="fill:none;stroke:#b0b0b0;stroke-width:0.8;"/>
    <path d="M 243.680405 504.206881 
L 423.286372 334.746482 
L 428.568817 100.030329 
" style="fill:none;stroke:#b0b0b0;stroke-width:0.8;"/>
    <path d="M 279.569603 515.928293 
L 457.09701 344.573899 
L 463.901707 108.986186 
" style="fill:none;stroke:#b0b0b0;stroke-width:0.8;"/>
    <path d="M 315.878914 527.786914 
L 491.269778 354.506574 
L 499.629834 118.042225 
" style="fill:none;stroke:#b0b0b0;stroke-width:0.8;"/>
    <path d="M 352.615759 539.785168 
L 525.810527 364.546206 
L 535.759868 127.200135 
" style="fill:none;stroke:#b0b0b0;stroke-width:0.8;"/>
   </g>
   <g id="xtick_1">
    <g id="line2d_2">
     <path d="M 71.93548 446.179803 
L 66.986284 450.377256 
" style="fill:none;stroke:#000000;stroke-linecap:square;stroke-width:0.8;"/>
    </g>
    <g id="text_2">
     <!-- −10.0 -->
     <g transform="translate(47.451426 470.854748)scale(0.1 -0.1)">
      <defs>
       <path d="M 10.59375 35.5 
L 73.1875 35.5 
L 73.1875 27.203125 
L 10.59375 27.203125 
z
" id="DejaVuSans-8722"/>
       <path d="M 12.40625 8.296875 
L 28.515625 8.296875 
L 28.515625 63.921875 
L 10.984375 60.40625 
L 10.984375 69.390625 
L 28.421875 72.90625 
L 38.28125 72.90625 
L 38.28125 8.296875 
L 54.390625 8.296875 
L 54.390625 0 
L 12.40625 0 
z
" id="DejaVuSans-49"/>
       <path d="M 31.78125 66.40625 
Q 24.171875 66.40625 20.328125 58.90625 
Q 16.5 51.421875 16.5 36.375 
Q 16.5 21.390625 20.328125 13.890625 
Q 24.171875 6.390625 31.78125 6.390625 
Q 39.453125 6.390625 43.28125 13.890625 
Q 47.125 21.390625 47.125 36.375 
Q 47.125 51.421875 43.28125 58.90625 
Q 39.453125 66.40625 31.78125 66.40625 
z
M 31.78125 74.21875 
Q 44.046875 74.21875 50.515625 64.515625 
Q 56.984375 54.828125 56.984375 36.375 
Q 56.984375 17.96875 50.515625 8.265625 
Q 44.046875 -1.421875 31.78125 -1.421875 
Q 19.53125 -1.421875 13.0625 8.265625 
Q 6.59375 17.96875 6.59375 36.375 
Q 6.59375 54.828125 13.0625 64.515625 
Q 19.53125 74.21875 31.78125 74.21875 
z
" id="DejaVuSans-48"/>
       <path d="M 10.6875 12.40625 
L 21 12.40625 
L 21 0 
L 10.6875 0 
z
" id="DejaVuSans-46"/>
      </defs>
      <use xlink:href="#DejaVuSans-8722"/>
      <use x="83.789062" xlink:href="#DejaVuSans-49"/>
      <use x="147.412109" xlink:href="#DejaVuSans-48"/>
      <use x="211.035156" xlink:href="#DejaVuSans-46"/>
      <use x="242.822266" xlink:href="#DejaVuSans-48"/>
     </g>
    </g>
   </g>
   <g id="xtick_2">
    <g id="line2d_3">
     <path d="M 105.814584 457.233785 
L 100.910465 461.478857 
" style="fill:none;stroke:#000000;stroke-linecap:square;stroke-width:0.8;"/>
    </g>
    <g id="text_3">
     <!-- −7.5 -->
     <g transform="translate(84.542659 482.032458)scale(0.1 -0.1)">
      <defs>
       <path d="M 8.203125 72.90625 
L 55.078125 72.90625 
L 55.078125 68.703125 
L 28.609375 0 
L 18.3125 0 
L 43.21875 64.59375 
L 8.203125 64.59375 
z
" id="DejaVuSans-55"/>
       <path d="M 10.796875 72.90625 
L 49.515625 72.90625 
L 49.515625 64.59375 
L 19.828125 64.59375 
L 19.828125 46.734375 
Q 21.96875 47.46875 24.109375 47.828125 
Q 26.265625 48.1875 28.421875 48.1875 
Q 40.625 48.1875 47.75 41.5 
Q 54.890625 34.8125 54.890625 23.390625 
Q 54.890625 11.625 47.5625 5.09375 
Q 40.234375 -1.421875 26.90625 -1.421875 
Q 22.3125 -1.421875 17.546875 -0.640625 
Q 12.796875 0.140625 7.71875 1.703125 
L 7.71875 11.625 
Q 12.109375 9.234375 16.796875 8.0625 
Q 21.484375 6.890625 26.703125 6.890625 
Q 35.15625 6.890625 40.078125 11.328125 
Q 45.015625 15.765625 45.015625 23.390625 
Q 45.015625 31 40.078125 35.4375 
Q 35.15625 39.890625 26.703125 39.890625 
Q 22.75 39.890625 18.8125 39.015625 
Q 14.890625 38.140625 10.796875 36.28125 
z
" id="DejaVuSans-53"/>
      </defs>
      <use xlink:href="#DejaVuSans-8722"/>
      <use x="83.789062" xlink:href="#DejaVuSans-55"/>
      <use x="147.412109" xlink:href="#DejaVuSans-46"/>
      <use x="179.199219" xlink:href="#DejaVuSans-53"/>
     </g>
    </g>
   </g>
   <g id="xtick_3">
    <g id="line2d_4">
     <path d="M 140.078719 468.413392 
L 135.221025 472.706899 
" style="fill:none;stroke:#000000;stroke-linecap:square;stroke-width:0.8;"/>
    </g>
    <g id="text_4">
     <!-- −5.0 -->
     <g transform="translate(118.83897 493.337513)scale(0.1 -0.1)">
      <use xlink:href="#DejaVuSans-8722"/>
      <use x="83.789062" xlink:href="#DejaVuSans-53"/>
      <use x="147.412109" xlink:href="#DejaVuSans-46"/>
      <use x="179.199219" xlink:href="#DejaVuSans-48"/>
     </g>
    </g>
   </g>
   <g id="xtick_4">
    <g id="line2d_5">
     <path d="M 174.734485 479.72078 
L 169.924603 484.063555 
" style="fill:none;stroke:#000000;stroke-linecap:square;stroke-width:0.8;"/>
    </g>
    <g id="text_5">
     <!-- −2.5 -->
     <g transform="translate(153.528249 504.772102)scale(0.1 -0.1)">
      <defs>
       <path d="M 19.1875 8.296875 
L 53.609375 8.296875 
L 53.609375 0 
L 7.328125 0 
L 7.328125 8.296875 
Q 12.9375 14.109375 22.625 23.890625 
Q 32.328125 33.6875 34.8125 36.53125 
Q 39.546875 41.84375 41.421875 45.53125 
Q 43.3125 49.21875 43.3125 52.78125 
Q 43.3125 58.59375 39.234375 62.25 
Q 35.15625 65.921875 28.609375 65.921875 
Q 23.96875 65.921875 18.8125 64.3125 
Q 13.671875 62.703125 7.8125 59.421875 
L 7.8125 69.390625 
Q 13.765625 71.78125 18.9375 73 
Q 24.125 74.21875 28.421875 74.21875 
Q 39.75 74.21875 46.484375 68.546875 
Q 53.21875 62.890625 53.21875 53.421875 
Q 53.21875 48.921875 51.53125 44.890625 
Q 49.859375 40.875 45.40625 35.40625 
Q 44.1875 33.984375 37.640625 27.21875 
Q 31.109375 20.453125 19.1875 8.296875 
z
" id="DejaVuSans-50"/>
      </defs>
      <use xlink:href="#DejaVuSans-8722"/>
      <use x="83.789062" xlink:href="#DejaVuSans-50"/>
      <use x="147.412109" xlink:href="#DejaVuSans-46"/>
      <use x="179.199219" xlink:href="#DejaVuSans-53"/>
     </g>
    </g>
   </g>
   <g id="xtick_5">
    <g id="line2d_6">
     <path d="M 209.788635 491.158152 
L 205.02799 495.551047 
" style="fill:none;stroke:#000000;stroke-linecap:square;stroke-width:0.8;"/>
    </g>
    <g id="text_6">
     <!-- 0.0 -->
     <g transform="translate(192.807132 516.338463)scale(0.1 -0.1)">
      <use xlink:href="#DejaVuSans-48"/>
      <use x="63.623047" xlink:href="#DejaVuSans-46"/>
      <use x="95.410156" xlink:href="#DejaVuSans-48"/>
     </g>
    </g>
   </g>
   <g id="xtick_6">
    <g id="line2d_7">
     <path d="M 245.248079 502.727762 
L 240.538136 507.171651 
" style="fill:none;stroke:#000000;stroke-linecap:square;stroke-width:0.8;"/>
    </g>
    <g id="text_7">
     <!-- 2.5 -->
     <g transform="translate(228.302883 528.038888)scale(0.1 -0.1)">
      <use xlink:href="#DejaVuSans-50"/>
      <use x="63.623047" xlink:href="#DejaVuSans-46"/>
      <use x="95.410156" xlink:href="#DejaVuSans-53"/>
     </g>
    </g>
   </g>
   <g id="xtick_7">
    <g id="line2d_8">
     <path d="M 281.119886 514.431916 
L 276.462151 518.927692 
" style="fill:none;stroke:#000000;stroke-linecap:square;stroke-width:0.8;"/>
    </g>
    <g id="text_8">
     <!-- 5.0 -->
     <g transform="translate(264.212456 539.875721)scale(0.1 -0.1)">
      <use xlink:href="#DejaVuSans-53"/>
      <use x="63.623047" xlink:href="#DejaVuSans-46"/>
      <use x="95.410156" xlink:href="#DejaVuSans-48"/>
     </g>
    </g>
   </g>
   <g id="xtick_8">
    <g id="line2d_9">
     <path d="M 317.411291 526.272976 
L 312.807314 530.821552 
" style="fill:none;stroke:#000000;stroke-linecap:square;stroke-width:0.8;"/>
    </g>
    <g id="text_9">
     <!-- 7.5 -->
     <g transform="translate(300.543133 551.851362)scale(0.1 -0.1)">
      <use xlink:href="#DejaVuSans-55"/>
      <use x="63.623047" xlink:href="#DejaVuSans-46"/>
      <use x="95.410156" xlink:href="#DejaVuSans-53"/>
     </g>
    </g>
   </g>
   <g id="xtick_9">
    <g id="line2d_10">
     <path d="M 354.1297 538.253358 
L 349.581075 542.85567 
" style="fill:none;stroke:#000000;stroke-linecap:square;stroke-width:0.8;"/>
    </g>
    <g id="text_10">
     <!-- 10.0 -->
     <g transform="translate(334.121112 563.968266)scale(0.1 -0.1)">
      <use xlink:href="#DejaVuSans-49"/>
      <use x="63.623047" xlink:href="#DejaVuSans-48"/>
      <use x="127.246094" xlink:href="#DejaVuSans-46"/>
      <use x="159.033203" xlink:href="#DejaVuSans-48"/>
     </g>
    </g>
   </g>
  </g>
  <g id="axis3d_2">
   <g id="line2d_11">
    <path d="M 546.131603 370.452741 
L 374.246037 546.849616 
" style="fill:none;stroke:#000000;stroke-linecap:square;stroke-width:0.8;"/>
   </g>
   <g id="text_11">
    <!-- y -->
    <g transform="translate(488.030558 485.452904)scale(0.1 -0.1)">
     <defs>
      <path d="M 32.171875 -5.078125 
Q 28.375 -14.84375 24.75 -17.8125 
Q 21.140625 -20.796875 15.09375 -20.796875 
L 7.90625 -20.796875 
L 7.90625 -13.28125 
L 13.1875 -13.28125 
Q 16.890625 -13.28125 18.9375 -11.515625 
Q 21 -9.765625 23.484375 -3.21875 
L 25.09375 0.875 
L 2.984375 54.6875 
L 12.5 54.6875 
L 29.59375 11.921875 
L 46.6875 54.6875 
L 56.203125 54.6875 
z
" id="DejaVuSans-121"/>
     </defs>
     <use xlink:href="#DejaVuSans-121"/>
    </g>
   </g>
   <g id="Line3DCollection_2">
    <path d="M 52.72834 187.186942 
L 63.799325 430.190016 
L 386.139188 534.644318 
" style="fill:none;stroke:#b0b0b0;stroke-width:0.8;"/>
    <path d="M 75.982724 170.216952 
L 85.928962 411.640515 
L 406.202396 514.05453 
" style="fill:none;stroke:#b0b0b0;stroke-width:0.8;"/>
    <path d="M 98.776722 153.58293 
L 107.639496 393.442316 
L 425.865589 493.875257 
" style="fill:none;stroke:#b0b0b0;stroke-width:0.8;"/>
    <path d="M 121.123871 137.274999 
L 128.942719 375.585531 
L 445.140612 474.094342 
" style="fill:none;stroke:#b0b0b0;stroke-width:0.8;"/>
    <path d="M 143.037184 121.283661 
L 149.849989 358.060643 
L 464.038846 454.700105 
" style="fill:none;stroke:#b0b0b0;stroke-width:0.8;"/>
    <path d="M 164.529174 105.599786 
L 170.372242 340.858484 
L 482.571233 435.681317 
" style="fill:none;stroke:#b0b0b0;stroke-width:0.8;"/>
    <path d="M 185.611874 90.214591 
L 190.520017 323.97022 
L 500.748294 417.02718 
" style="fill:none;stroke:#b0b0b0;stroke-width:0.8;"/>
    <path d="M 206.296868 75.119625 
L 210.30347 307.387337 
L 518.580151 398.727308 
" style="fill:none;stroke:#b0b0b0;stroke-width:0.8;"/>
    <path d="M 226.595302 60.306752 
L 229.732396 291.101626 
L 536.076547 380.771702 
" style="fill:none;stroke:#b0b0b0;stroke-width:0.8;"/>
   </g>
   <g id="xtick_10">
    <g id="line2d_12">
     <path d="M 383.42282 533.764078 
L 391.578948 536.407073 
" style="fill:none;stroke:#000000;stroke-linecap:square;stroke-width:0.8;"/>
    </g>
    <g id="text_12">
     <!-- −10.0 -->
     <g transform="translate(383.693017 555.661725)scale(0.1 -0.1)">
      <use xlink:href="#DejaVuSans-8722"/>
      <use x="83.789062" xlink:href="#DejaVuSans-49"/>
      <use x="147.412109" xlink:href="#DejaVuSans-48"/>
      <use x="211.035156" xlink:href="#DejaVuSans-46"/>
      <use x="242.822266" xlink:href="#DejaVuSans-48"/>
     </g>
    </g>
   </g>
   <g id="xtick_11">
    <g id="line2d_13">
     <path d="M 403.504819 513.191924 
L 411.604457 515.78195 
" style="fill:none;stroke:#000000;stroke-linecap:square;stroke-width:0.8;"/>
    </g>
    <g id="text_13">
     <!-- −7.5 -->
     <g transform="translate(406.813276 534.931144)scale(0.1 -0.1)">
      <use xlink:href="#DejaVuSans-8722"/>
      <use x="83.789062" xlink:href="#DejaVuSans-55"/>
      <use x="147.412109" xlink:href="#DejaVuSans-46"/>
      <use x="179.199219" xlink:href="#DejaVuSans-53"/>
     </g>
    </g>
   </g>
   <g id="xtick_12">
    <g id="line2d_14">
     <path d="M 423.186597 493.02976 
L 431.230365 495.568393 
" style="fill:none;stroke:#000000;stroke-linecap:square;stroke-width:0.8;"/>
    </g>
    <g id="text_14">
     <!-- −5.0 -->
     <g transform="translate(426.354638 514.613997)scale(0.1 -0.1)">
      <use xlink:href="#DejaVuSans-8722"/>
      <use x="83.789062" xlink:href="#DejaVuSans-53"/>
      <use x="147.412109" xlink:href="#DejaVuSans-46"/>
      <use x="179.199219" xlink:href="#DejaVuSans-48"/>
     </g>
    </g>
   </g>
   <g id="xtick_13">
    <g id="line2d_15">
     <path d="M 442.479999 473.26545 
L 450.468514 475.754205 
" style="fill:none;stroke:#000000;stroke-linecap:square;stroke-width:0.8;"/>
    </g>
    <g id="text_15">
     <!-- −2.5 -->
     <g transform="translate(445.510131 494.698038)scale(0.1 -0.1)">
      <use xlink:href="#DejaVuSans-8722"/>
      <use x="83.789062" xlink:href="#DejaVuSans-50"/>
      <use x="147.412109" xlink:href="#DejaVuSans-46"/>
      <use x="179.199219" xlink:href="#DejaVuSans-53"/>
     </g>
    </g>
   </g>
   <g id="xtick_14">
    <g id="line2d_16">
     <path d="M 461.39641 453.887334 
L 469.330284 456.327666 
" style="fill:none;stroke:#000000;stroke-linecap:square;stroke-width:0.8;"/>
    </g>
    <g id="text_16">
     <!-- 0.0 -->
     <g transform="translate(468.480916 475.1715)scale(0.1 -0.1)">
      <use xlink:href="#DejaVuSans-48"/>
      <use x="63.623047" xlink:href="#DejaVuSans-46"/>
      <use x="95.410156" xlink:href="#DejaVuSans-48"/>
     </g>
    </g>
   </g>
   <g id="xtick_15">
    <g id="line2d_17">
     <path d="M 479.946772 434.884201 
L 487.826613 437.27751 
" style="fill:none;stroke:#000000;stroke-linecap:square;stroke-width:0.8;"/>
    </g>
    <g id="text_17">
     <!-- 2.5 -->
     <g transform="translate(486.898185 456.023072)scale(0.1 -0.1)">
      <use xlink:href="#DejaVuSans-50"/>
      <use x="63.623047" xlink:href="#DejaVuSans-46"/>
      <use x="95.410156" xlink:href="#DejaVuSans-53"/>
     </g>
    </g>
   </g>
   <g id="xtick_16">
    <g id="line2d_18">
     <path d="M 498.141608 416.245271 
L 505.968019 418.592904 
" style="fill:none;stroke:#000000;stroke-linecap:square;stroke-width:0.8;"/>
    </g>
    <g id="text_18">
     <!-- 5.0 -->
     <g transform="translate(504.962244 437.241877)scale(0.1 -0.1)">
      <use xlink:href="#DejaVuSans-53"/>
      <use x="63.623047" xlink:href="#DejaVuSans-46"/>
      <use x="95.410156" xlink:href="#DejaVuSans-48"/>
     </g>
    </g>
   </g>
   <g id="xtick_17">
    <g id="line2d_19">
     <path d="M 515.991041 397.960175 
L 523.764622 400.263426 
" style="fill:none;stroke:#000000;stroke-linecap:square;stroke-width:0.8;"/>
    </g>
    <g id="text_19">
     <!-- 7.5 -->
     <g transform="translate(522.683157 418.81745)scale(0.1 -0.1)">
      <use xlink:href="#DejaVuSans-55"/>
      <use x="63.623047" xlink:href="#DejaVuSans-46"/>
      <use x="95.410156" xlink:href="#DejaVuSans-53"/>
     </g>
    </g>
   </g>
   <g id="xtick_18">
    <g id="line2d_20">
     <path d="M 533.504816 380.01893 
L 541.226159 382.279046 
" style="fill:none;stroke:#000000;stroke-linecap:square;stroke-width:0.8;"/>
    </g>
    <g id="text_20">
     <!-- 10.0 -->
     <g transform="translate(536.889359 400.739722)scale(0.1 -0.1)">
      <use xlink:href="#DejaVuSans-49"/>
      <use x="63.623047" xlink:href="#DejaVuSans-48"/>
      <use x="127.246094" xlink:href="#DejaVuSans-46"/>
      <use x="159.033203" xlink:href="#DejaVuSans-48"/>
     </g>
    </g>
   </g>
  </g>
  <g id="axis3d_3">
   <g id="line2d_21">
    <path d="M 546.131603 370.452741 
L 557.024029 132.58998 
" style="fill:none;stroke:#000000;stroke-linecap:square;stroke-width:0.8;"/>
   </g>
   <g id="text_21">
    <!-- z -->
    <g transform="translate(589.354757 251.457577)scale(0.1 -0.1)">
     <defs>
      <path d="M 5.515625 54.6875 
L 48.1875 54.6875 
L 48.1875 46.484375 
L 14.40625 7.171875 
L 48.1875 7.171875 
L 48.1875 0 
L 4.296875 0 
L 4.296875 8.203125 
L 38.09375 47.515625 
L 5.515625 47.515625 
z
" id="DejaVuSans-122"/>
     </defs>
     <use xlink:href="#DejaVuSans-122"/>
    </g>
   </g>
   <g id="Line3DCollection_3">
    <path d="M 546.34029 365.895553 
L 240.85522 277.321125 
L 50.467287 436.511124 
" style="fill:none;stroke:#b0b0b0;stroke-width:0.8;"/>
    <path d="M 547.599972 338.387304 
L 240.548883 250.681288 
L 49.110726 408.341254 
" style="fill:none;stroke:#b0b0b0;stroke-width:0.8;"/>
    <path d="M 548.872764 310.592791 
L 240.23951 223.777444 
L 47.739511 379.867083 
" style="fill:none;stroke:#b0b0b0;stroke-width:0.8;"/>
    <path d="M 550.15887 282.507524 
L 239.927056 196.605648 
L 46.353403 351.083653 
" style="fill:none;stroke:#b0b0b0;stroke-width:0.8;"/>
    <path d="M 551.4585 254.126916 
L 239.611474 169.161877 
L 44.952158 321.985899 
" style="fill:none;stroke:#b0b0b0;stroke-width:0.8;"/>
    <path d="M 552.77187 225.446284 
L 239.292718 141.442028 
L 43.535527 292.568643 
" style="fill:none;stroke:#b0b0b0;stroke-width:0.8;"/>
    <path d="M 554.099197 196.460845 
L 238.970739 113.441913 
L 42.103256 262.826594 
" style="fill:none;stroke:#b0b0b0;stroke-width:0.8;"/>
    <path d="M 555.440706 167.165713 
L 238.645488 85.15726 
L 40.655083 232.754343 
" style="fill:none;stroke:#b0b0b0;stroke-width:0.8;"/>
    <path d="M 556.796625 137.5559 
L 238.316915 56.58371 
L 39.190742 202.34636 
" style="fill:none;stroke:#b0b0b0;stroke-width:0.8;"/>
   </g>
   <g id="xtick_19">
    <g id="line2d_22">
     <path d="M 543.776326 365.15214 
L 551.474321 367.384149 
" style="fill:none;stroke:#000000;stroke-linecap:square;stroke-width:0.8;"/>
    </g>
    <g id="text_22">
     <!-- 0 -->
     <g transform="translate(561.452538 370.888876)scale(0.1 -0.1)">
      <use xlink:href="#DejaVuSans-48"/>
     </g>
    </g>
   </g>
   <g id="xtick_20">
    <g id="line2d_23">
     <path d="M 545.02224 337.651001 
L 552.761605 339.861672 
" style="fill:none;stroke:#000000;stroke-linecap:square;stroke-width:0.8;"/>
    </g>
    <g id="text_23">
     <!-- 25 -->
     <g transform="translate(559.623773 343.405557)scale(0.1 -0.1)">
      <use xlink:href="#DejaVuSans-50"/>
      <use x="63.623047" xlink:href="#DejaVuSans-53"/>
     </g>
    </g>
   </g>
   <g id="xtick_21">
    <g id="line2d_24">
     <path d="M 546.281115 309.863787 
L 554.062295 312.052553 
" style="fill:none;stroke:#000000;stroke-linecap:square;stroke-width:0.8;"/>
    </g>
    <g id="text_24">
     <!-- 50 -->
     <g transform="translate(560.990312 315.636634)scale(0.1 -0.1)">
      <use xlink:href="#DejaVuSans-53"/>
      <use x="63.623047" xlink:href="#DejaVuSans-48"/>
     </g>
    </g>
   </g>
   <g id="xtick_22">
    <g id="line2d_25">
     <path d="M 547.553153 281.786012 
L 555.376603 283.952293 
" style="fill:none;stroke:#000000;stroke-linecap:square;stroke-width:0.8;"/>
    </g>
    <g id="text_25">
     <!-- 75 -->
     <g transform="translate(562.371127 287.577635)scale(0.1 -0.1)">
      <use xlink:href="#DejaVuSans-55"/>
      <use x="63.623047" xlink:href="#DejaVuSans-53"/>
     </g>
    </g>
   </g>
   <g id="xtick_23">
    <g id="line2d_26">
     <path d="M 548.838562 253.413095 
L 556.704743 255.556294 
" style="fill:none;stroke:#000000;stroke-linecap:square;stroke-width:0.8;"/>
    </g>
    <g id="text_26">
     <!-- 100 -->
     <g transform="translate(560.585191 259.223989)scale(0.1 -0.1)">
      <use xlink:href="#DejaVuSans-49"/>
      <use x="63.623047" xlink:href="#DejaVuSans-48"/>
      <use x="127.246094" xlink:href="#DejaVuSans-48"/>
     </g>
    </g>
   </g>
   <g id="xtick_24">
    <g id="line2d_27">
     <path d="M 550.137555 224.740356 
L 558.046935 226.859864 
" style="fill:none;stroke:#000000;stroke-linecap:square;stroke-width:0.8;"/>
    </g>
    <g id="text_27">
     <!-- 125 -->
     <g transform="translate(561.995235 230.571031)scale(0.1 -0.1)">
      <use xlink:href="#DejaVuSans-49"/>
      <use x="63.623047" xlink:href="#DejaVuSans-50"/>
      <use x="127.246094" xlink:href="#DejaVuSans-53"/>
     </g>
    </g>
   </g>
   <g id="xtick_25">
    <g id="line2d_28">
     <path d="M 551.450347 195.763019 
L 559.403403 197.85821 
" style="fill:none;stroke:#000000;stroke-linecap:square;stroke-width:0.8;"/>
    </g>
    <g id="text_28">
     <!-- 150 -->
     <g transform="translate(563.420242 201.613997)scale(0.1 -0.1)">
      <use xlink:href="#DejaVuSans-49"/>
      <use x="63.623047" xlink:href="#DejaVuSans-53"/>
      <use x="127.246094" xlink:href="#DejaVuSans-48"/>
     </g>
    </g>
   </g>
   <g id="xtick_26">
    <g id="line2d_29">
     <path d="M 552.77716 166.476204 
L 560.774376 168.546435 
" style="fill:none;stroke:#000000;stroke-linecap:square;stroke-width:0.8;"/>
    </g>
    <g id="text_29">
     <!-- 175 -->
     <g transform="translate(564.860454 172.348019)scale(0.1 -0.1)">
      <use xlink:href="#DejaVuSans-49"/>
      <use x="63.623047" xlink:href="#DejaVuSans-55"/>
      <use x="127.246094" xlink:href="#DejaVuSans-53"/>
     </g>
    </g>
   </g>
   <g id="xtick_27">
    <g id="line2d_30">
     <path d="M 554.118219 136.874926 
L 562.160088 138.919538 
" style="fill:none;stroke:#000000;stroke-linecap:square;stroke-width:0.8;"/>
    </g>
    <g id="text_30">
     <!-- 200 -->
     <g transform="translate(566.316113 142.768128)scale(0.1 -0.1)">
      <use xlink:href="#DejaVuSans-50"/>
      <use x="63.623047" xlink:href="#DejaVuSans-48"/>
      <use x="127.246094" xlink:href="#DejaVuSans-48"/>
     </g>
    </g>
   </g>
  </g>
  <g id="axes_1">
   <g id="Line3DCollection_4">
    <path clip-path="url(#p5dcc1b14c1)" d="M 73.339031 198.071904 
L 103.124768 249.842974 
L 132.410823 291.732865 
L 161.355341 324.01049 
L 190.112403 346.841555 
L 218.83477 360.2914 
L 247.67661 364.325161 
L 276.796313 358.805214 
L 306.359495 343.485738 
L 336.542333 318.004062 
L 367.535363 281.868295 
" style="fill:none;stroke:#1f77b4;stroke-width:1.5;"/>
    <path clip-path="url(#p5dcc1b14c1)" d="M 93.526079 227.715143 
L 122.774735 278.570553 
L 151.568468 319.755292 
L 180.060141 351.529369 
L 208.399049 374.053361 
L 236.733529 387.391114 
L 265.213576 391.509922 
L 293.993535 386.278112 
L 323.234995 371.459913 
L 353.109995 346.707282 
L 383.804673 311.548217 
" style="fill:none;stroke:#1f77b4;stroke-width:1.5;"/>
    <path clip-path="url(#p5dcc1b14c1)" d="M 112.75436 247.054209 
L 141.535268 297.141895 
L 169.902052 337.728406 
L 198.003071 369.066294 
L 225.983547 391.311753 
L 253.988082 404.527218 
L 282.163161 408.681532 
L 310.659759 403.64766 
L 339.636137 389.197792 
L 369.260936 364.995552 
L 399.716719 330.584868 
" style="fill:none;stroke:#1f77b4;stroke-width:1.5;"/>
    <path clip-path="url(#p5dcc1b14c1)" d="M 131.161952 256.613088 
L 159.538764 306.069311 
L 187.538916 346.156314 
L 215.30695 377.120486 
L 242.984666 399.114315 
L 270.713543 412.198894 
L 298.637167 416.344095 
L 326.903759 411.426361 
L 355.668888 397.224002 
L 385.098488 373.409705 
L 415.372301 339.539841 
" style="fill:none;stroke:#1f77b4;stroke-width:1.5;"/>
    <path clip-path="url(#p5dcc1b14c1)" d="M 148.871561 256.789802 
L 176.90323 305.741518 
L 204.592894 345.421128 
L 232.081905 376.070026 
L 259.509223 397.837609 
L 287.013772 410.783705 
L 314.736798 414.87874 
L 342.824337 410.001596 
L 371.429864 395.935054 
L 400.717247 372.358529 
L 430.864113 338.837712 
" style="fill:none;stroke:#1f77b4;stroke-width:1.5;"/>
    <path clip-path="url(#p5dcc1b14c1)" d="M 165.993484 247.870523 
L 193.7351 296.437412 
L 221.167013 335.796507 
L 248.427951 366.185284 
L 275.654578 387.75061 
L 302.983784 400.551117 
L 330.554999 404.557354 
L 358.512608 399.649694 
L 387.008554 385.613875 
L 416.205245 362.133904 
L 446.278869 328.781944 
" style="fill:none;stroke:#1f77b4;stroke-width:1.5;"/>
    <path clip-path="url(#p5dcc1b14c1)" d="M 182.628074 230.039968 
L 210.131585 278.33621 
L 237.355736 317.457636 
L 264.437159 347.638801 
L 291.510723 369.02457 
L 318.711777 381.67244 
L 346.178429 385.552678 
L 374.05392 380.54626 
L 402.489202 366.440466 
L 431.645806 342.921902 
L 461.69913 309.566549 
" style="fill:none;stroke:#1f77b4;stroke-width:1.5;"/>
    <path clip-path="url(#p5dcc1b14c1)" d="M 198.867814 203.388698 
L 226.182661 251.524565 
L 253.246881 290.488207 
L 280.195505 320.512209 
L 307.162078 341.739928 
L 334.280881 354.227778 
L 361.689171 357.945356 
L 389.529539 352.773387 
L 417.952465 338.499346 
L 447.119177 314.810537 
L 477.204912 281.284231 
" style="fill:none;stroke:#1f77b4;stroke-width:1.5;"/>
    <path clip-path="url(#p5dcc1b14c1)" d="M 214.799109 167.917765 
L 241.972791 216.001073 
L 268.923283 254.884841 
L 295.784482 284.800594 
L 322.689069 305.890654 
L 349.770703 318.210398 
L 377.166253 321.728368 
L 405.018141 316.324198 
L 433.476895 301.784242 
L 462.703997 277.79465 
L 492.87516 243.931523 
" style="fill:none;stroke:#1f77b4;stroke-width:1.5;"/>
    <path clip-path="url(#p5dcc1b14c1)" d="M 230.503866 123.540967 
L 257.582453 171.678453 
L 284.464279 210.559203 
L 311.282557 240.414578 
L 338.169545 261.386322 
L 365.258725 273.528808 
L 392.687032 276.809127 
L 420.597198 271.104988 
L 449.140311 256.200306 
L 478.478682 231.778233 
L 508.789132 197.411252 
" style="fill:none;stroke:#1f77b4;stroke-width:1.5;"/>
    <path clip-path="url(#p5dcc1b14c1)" d="M 246.060914 70.084905 
L 273.089529 118.383557 
L 299.947068 157.337985 
L 326.766504 187.180274 
L 353.680107 208.052039 
L 380.821622 220.006671 
L 408.328505 223.0094 
L 436.344283 216.935147 
L 465.02113 201.564048 
L 494.522761 176.574377 
L 525.027762 141.532515 
" style="fill:none;stroke:#1f77b4;stroke-width:1.5;"/>
    <path clip-path="url(#p5dcc1b14c1)" d="M 73.339031 198.071904 
L 93.526079 227.715143 
L 112.75436 247.054209 
L 131.161952 256.613088 
L 148.871561 256.789802 
L 165.993484 247.870523 
L 182.628074 230.039968 
L 198.867814 203.388698 
L 214.799109 167.917765 
L 230.503866 123.540967 
L 246.060914 70.084905 
" style="fill:none;stroke:#1f77b4;stroke-width:1.5;"/>
    <path clip-path="url(#p5dcc1b14c1)" d="M 103.124768 249.842974 
L 122.774735 278.570553 
L 141.535268 297.141895 
L 159.538764 306.069311 
L 176.90323 305.741518 
L 193.7351 296.437412 
L 210.131585 278.33621 
L 226.182661 251.524565 
L 241.972791 216.001073 
L 257.582453 171.678453 
L 273.089529 118.383557 
" style="fill:none;stroke:#1f77b4;stroke-width:1.5;"/>
    <path clip-path="url(#p5dcc1b14c1)" d="M 132.410823 291.732865 
L 151.568468 319.755292 
L 169.902052 337.728406 
L 187.538916 346.156314 
L 204.592894 345.421128 
L 221.167013 335.796507 
L 237.355736 317.457636 
L 253.246881 290.488207 
L 268.923283 254.884841 
L 284.464279 210.559203 
L 299.947068 157.337985 
" style="fill:none;stroke:#1f77b4;stroke-width:1.5;"/>
    <path clip-path="url(#p5dcc1b14c1)" d="M 161.355341 324.01049 
L 180.060141 351.529369 
L 198.003071 369.066294 
L 215.30695 377.120486 
L 232.081905 376.070026 
L 248.427951 366.185284 
L 264.437159 347.638801 
L 280.195505 320.512209 
L 295.784482 284.800594 
L 311.282557 240.414578 
L 326.766504 187.180274 
" style="fill:none;stroke:#1f77b4;stroke-width:1.5;"/>
    <path clip-path="url(#p5dcc1b14c1)" d="M 190.112403 346.841555 
L 208.399049 374.053361 
L 225.983547 391.311753 
L 242.984666 399.114315 
L 259.509223 397.837609 
L 275.654578 387.75061 
L 291.510723 369.02457 
L 307.162078 341.739928 
L 322.689069 305.890654 
L 338.169545 261.386322 
L 353.680107 208.052039 
" style="fill:none;stroke:#1f77b4;stroke-width:1.5;"/>
    <path clip-path="url(#p5dcc1b14c1)" d="M 218.83477 360.2914 
L 236.733529 387.391114 
L 253.988082 404.527218 
L 270.713543 412.198894 
L 287.013772 410.783705 
L 302.983784 400.551117 
L 318.711777 381.67244 
L 334.280881 354.227778 
L 349.770703 318.210398 
L 365.258725 273.528808 
L 380.821622 220.006671 
" style="fill:none;stroke:#1f77b4;stroke-width:1.5;"/>
    <path clip-path="url(#p5dcc1b14c1)" d="M 247.67661 364.325161 
L 265.213576 391.509922 
L 282.163161 408.681532 
L 298.637167 416.344095 
L 314.736798 414.87874 
L 330.554999 404.557354 
L 346.178429 385.552678 
L 361.689171 357.945356 
L 377.166253 321.728368 
L 392.687032 276.809127 
L 408.328505 223.0094 
" style="fill:none;stroke:#1f77b4;stroke-width:1.5;"/>
    <path clip-path="url(#p5dcc1b14c1)" d="M 276.796313 358.805214 
L 293.993535 386.278112 
L 310.659759 403.64766 
L 326.903759 411.426361 
L 342.824337 410.001596 
L 358.512608 399.649694 
L 374.05392 380.54626 
L 389.529539 352.773387 
L 405.018141 316.324198 
L 420.597198 271.104988 
L 436.344283 216.935147 
" style="fill:none;stroke:#1f77b4;stroke-width:1.5;"/>
    <path clip-path="url(#p5dcc1b14c1)" d="M 306.359495 343.485738 
L 323.234995 371.459913 
L 339.636137 389.197792 
L 355.668888 397.224002 
L 371.429864 395.935054 
L 387.008554 385.613875 
L 402.489202 366.440466 
L 417.952465 338.499346 
L 433.476895 301.784242 
L 449.140311 256.200306 
L 465.02113 201.564048 
" style="fill:none;stroke:#1f77b4;stroke-width:1.5;"/>
    <path clip-path="url(#p5dcc1b14c1)" d="M 336.542333 318.004062 
L 353.109995 346.707282 
L 369.260936 364.995552 
L 385.098488 373.409705 
L 400.717247 372.358529 
L 416.205245 362.133904 
L 431.645806 342.921902 
L 447.119177 314.810537 
L 462.703997 277.79465 
L 478.478682 231.778233 
L 494.522761 176.574377 
" style="fill:none;stroke:#1f77b4;stroke-width:1.5;"/>
    <path clip-path="url(#p5dcc1b14c1)" d="M 367.535363 281.868295 
L 383.804673 311.548217 
L 399.716719 330.584868 
L 415.372301 339.539841 
L 430.864113 338.837712 
L 446.278869 328.781944 
L 461.69913 309.566549 
L 477.204912 281.284231 
L 492.87516 243.931523 
L 508.789132 197.411252 
L 525.027762 141.532515 
" style="fill:none;stroke:#1f77b4;stroke-width:1.5;"/>
   </g>
  </g>
 </g>
 <defs>
  <clipPath id="p5dcc1b14c1">
   <rect height="576" width="576" x="7.2" y="7.2"/>
  </clipPath>
 </defs>
</svg>
